<svg width="243" height="132" viewBox="0 0 243 132" fill="none" xmlns="http://www.w3.org/2000/svg">
<g clip-path="url(#clip0_1600_15189)">
<rect width="243" height="132" rx="5" fill="#F4F4F4"/>
<path d="M58.2344 102.521C58.2344 111.071 65.1655 118.002 73.7155 118.002C82.2654 118.002 89.1966 111.071 89.1966 102.521C89.1966 93.9709 82.2654 87.0398 73.7155 87.0398C65.1655 87.0398 58.2344 93.9709 58.2344 102.521Z" fill="#1877F2"/>
<path d="M81.4557 102.521C81.4557 98.264 77.9725 94.7808 73.7152 94.7808C69.4579 94.7808 65.9746 98.264 65.9746 102.521C65.9746 106.392 68.7806 109.585 72.4573 110.165V104.747H70.5222V102.521H72.4573V100.78C72.4573 98.8445 73.6184 97.7802 75.36 97.7802C76.2308 97.7802 77.1016 97.9737 77.1016 97.9737V99.9089H76.1341C75.1665 99.9089 74.8762 100.489 74.8762 101.07V102.521H77.0049L76.6179 104.747H74.7795V110.262C78.6498 109.681 81.4557 106.392 81.4557 102.521Z" fill="white"/>
<path d="M94.0332 102.521C94.0332 111.071 100.964 118.002 109.514 118.002C118.064 118.002 124.995 111.071 124.995 102.521C124.995 93.9709 118.064 87.0398 109.514 87.0398C100.964 87.0398 94.0332 93.9709 94.0332 102.521Z" fill="#1DA1F2"/>
<path d="M117.255 97.6823C116.674 97.9726 116.093 98.0693 115.416 98.1661C116.093 97.7791 116.577 97.1985 116.771 96.4245C116.19 96.8115 115.513 97.005 114.739 97.1985C114.158 96.618 113.288 96.231 112.417 96.231C110.385 96.231 108.837 98.1661 109.32 100.101C106.708 100.004 104.386 98.7466 102.741 96.8115C101.87 98.2629 102.354 100.101 103.709 101.069C103.225 101.069 102.741 100.875 102.257 100.682C102.257 102.133 103.322 103.488 104.773 103.875C104.289 103.972 103.805 104.068 103.322 103.972C103.709 105.229 104.87 106.197 106.321 106.197C105.16 107.068 103.418 107.552 101.773 107.358C103.225 108.229 104.87 108.809 106.611 108.809C112.513 108.809 115.803 103.875 115.61 99.3272C116.287 98.9401 116.868 98.3596 117.255 97.6823Z" fill="white"/>
<path d="M129.834 102.521C129.834 111.071 136.765 118.002 145.315 118.002C153.865 118.002 160.796 111.071 160.796 102.521C160.796 93.9709 153.865 87.0398 145.315 87.0398C136.765 87.0398 129.834 93.9709 129.834 102.521Z" fill="#2867B2"/>
<path d="M141.057 110.262H137.768V99.9089H141.057V110.262ZM139.413 98.4575C138.348 98.4575 137.574 97.6835 137.574 96.6191C137.574 95.5548 138.445 94.7808 139.413 94.7808C140.477 94.7808 141.251 95.5548 141.251 96.6191C141.251 97.6835 140.477 98.4575 139.413 98.4575ZM153.055 110.262H149.766V104.65C149.766 103.005 149.088 102.521 148.121 102.521C147.153 102.521 146.186 103.295 146.186 104.747V110.262H142.896V99.9089H145.992V101.36C146.282 100.683 147.443 99.6186 149.088 99.6186C150.927 99.6186 152.862 100.683 152.862 103.876V110.262H153.055Z" fill="white"/>
<path d="M165.633 102.521C165.633 111.071 172.564 118.002 181.114 118.002C189.664 118.002 196.595 111.071 196.595 102.521C196.595 93.9709 189.664 87.0398 181.114 87.0398C172.564 87.0398 165.633 93.9709 165.633 102.521Z" fill="#F00073"/>
<path d="M181.115 95.9396C183.243 95.9396 183.534 95.9396 184.405 95.9396C185.179 95.9396 185.566 96.1331 185.856 96.2299C186.243 96.4234 186.533 96.5202 186.823 96.8104C187.114 97.1007 187.307 97.391 187.404 97.778C187.501 98.0683 187.598 98.4553 187.694 99.2294C187.694 100.1 187.694 100.294 187.694 102.519C187.694 104.745 187.694 104.938 187.694 105.809C187.694 106.583 187.501 106.97 187.404 107.26C187.21 107.647 187.114 107.937 186.823 108.228C186.533 108.518 186.243 108.712 185.856 108.808C185.566 108.905 185.179 109.002 184.405 109.099C183.534 109.099 183.34 109.099 181.115 109.099C178.889 109.099 178.696 109.099 177.825 109.099C177.051 109.099 176.664 108.905 176.374 108.808C175.987 108.615 175.696 108.518 175.406 108.228C175.116 107.937 174.922 107.647 174.826 107.26C174.729 106.97 174.632 106.583 174.535 105.809C174.535 104.938 174.535 104.745 174.535 102.519C174.535 100.294 174.535 100.1 174.535 99.2294C174.535 98.4553 174.729 98.0683 174.826 97.778C175.019 97.391 175.116 97.1007 175.406 96.8104C175.696 96.5202 175.987 96.3267 176.374 96.2299C176.664 96.1331 177.051 96.0364 177.825 95.9396C178.696 95.9396 178.986 95.9396 181.115 95.9396ZM181.115 94.4883C178.889 94.4883 178.696 94.4883 177.825 94.4883C176.954 94.4883 176.374 94.6818 175.89 94.8753C175.406 95.0688 174.922 95.3591 174.439 95.8429C173.955 96.3267 173.761 96.7137 173.471 97.2942C173.277 97.778 173.181 98.3586 173.084 99.2294C173.084 100.1 173.084 100.39 173.084 102.519C173.084 104.745 173.084 104.938 173.084 105.809C173.084 106.68 173.277 107.26 173.471 107.744C173.665 108.228 173.955 108.712 174.439 109.195C174.922 109.679 175.309 109.873 175.89 110.163C176.374 110.356 176.954 110.453 177.825 110.55C178.696 110.55 178.986 110.55 181.115 110.55C183.243 110.55 183.534 110.55 184.405 110.55C185.275 110.55 185.856 110.356 186.34 110.163C186.823 109.969 187.307 109.679 187.791 109.195C188.275 108.712 188.468 108.325 188.759 107.744C188.952 107.26 189.049 106.68 189.146 105.809C189.146 104.938 189.146 104.648 189.146 102.519C189.146 100.39 189.146 100.1 189.146 99.2294C189.146 98.3586 188.952 97.778 188.759 97.2942C188.565 96.8104 188.275 96.3267 187.791 95.8429C187.307 95.3591 186.92 95.1656 186.34 94.8753C185.856 94.6818 185.275 94.585 184.405 94.4883C183.534 94.4883 183.34 94.4883 181.115 94.4883Z" fill="white"/>
<path d="M181.115 98.3586C178.793 98.3586 176.954 100.197 176.954 102.519C176.954 104.841 178.793 106.68 181.115 106.68C183.437 106.68 185.275 104.841 185.275 102.519C185.275 100.197 183.437 98.3586 181.115 98.3586ZM181.115 105.228C179.663 105.228 178.406 104.067 178.406 102.519C178.406 101.068 179.567 99.8099 181.115 99.8099C182.566 99.8099 183.824 100.971 183.824 102.519C183.824 103.97 182.566 105.228 181.115 105.228Z" fill="white"/>
<path d="M185.372 99.2294C185.906 99.2294 186.34 98.7962 186.34 98.2618C186.34 97.7274 185.906 97.2942 185.372 97.2942C184.838 97.2942 184.405 97.7274 184.405 98.2618C184.405 98.7962 184.838 99.2294 185.372 99.2294Z" fill="white"/>
<path d="M53.3958 102.521C53.3958 93.9709 46.4647 87.0398 37.9147 87.0398C29.3647 87.0398 22.4336 93.9709 22.4336 102.521C22.4336 111.071 29.3647 118.002 37.9147 118.002C46.4647 118.002 53.3958 111.071 53.3958 102.521Z" fill="white"/>
<path fill-rule="evenodd" clip-rule="evenodd" d="M45.4915 102.695C45.4915 102.146 45.4422 101.618 45.3507 101.112H38.0605V104.106H42.2264C42.0469 105.074 41.5016 105.893 40.6818 106.442V108.384H43.1834C44.6471 107.037 45.4915 105.052 45.4915 102.695Z" fill="#4285F4"/>
<path fill-rule="evenodd" clip-rule="evenodd" d="M38.0598 110.261C40.1498 110.261 41.902 109.568 43.1827 108.385L40.6811 106.443C39.9879 106.908 39.1013 107.182 38.0598 107.182C36.0438 107.182 34.3373 105.821 33.7286 103.991H31.1426V105.996C32.4163 108.526 35.034 110.261 38.0598 110.261Z" fill="#34A853"/>
<path fill-rule="evenodd" clip-rule="evenodd" d="M33.7277 103.992C33.5729 103.527 33.485 103.031 33.485 102.521C33.485 102.011 33.5729 101.515 33.7277 101.05V99.0449H31.1417C30.6174 100.09 30.3184 101.272 30.3184 102.521C30.3184 103.77 30.6174 104.952 31.1417 105.997L33.7277 103.992Z" fill="#FBBC05"/>
<path fill-rule="evenodd" clip-rule="evenodd" d="M38.0598 97.8594C39.1963 97.8594 40.2166 98.2499 41.0188 99.017L43.239 96.7968C41.8984 95.5478 40.1463 94.7808 38.0598 94.7808C35.034 94.7808 32.4163 96.5154 31.1426 99.0451L33.7286 101.051C34.3373 99.221 36.0438 97.8594 38.0598 97.8594Z" fill="#EA4335"/>
<g filter="url(#filter0_d_1600_15189)">
<rect x="22.4336" y="21" width="341.106" height="46.3615" rx="8.83693" fill="white"/>
<rect x="22.8754" y="21.4418" width="340.222" height="45.4778" rx="8.39509" stroke="#D6D6D6" stroke-width="0.883693"/>
</g>
<g clip-path="url(#clip1_1600_15189)">
<path d="M52.8333 34.8333H41.1667C40.062 34.8346 39.003 35.274 38.2218 36.0551C37.4407 36.8362 37.0013 37.8953 37 38.9999V48.9999C37.0013 50.1046 37.4407 51.1636 38.2218 51.9447C39.003 52.7258 40.062 53.1653 41.1667 53.1666H52.8333C53.938 53.1653 54.997 52.7258 55.7782 51.9447C56.5593 51.1636 56.9987 50.1046 57 48.9999V38.9999C56.9987 37.8953 56.5593 36.8362 55.7782 36.0551C54.997 35.274 53.938 34.8346 52.8333 34.8333ZM41.1667 36.4999H52.8333C53.3323 36.5009 53.8196 36.6512 54.2325 36.9314C54.6453 37.2117 54.9649 37.609 55.15 38.0724L48.7683 44.4549C48.2987 44.9227 47.6628 45.1853 47 45.1853C46.3372 45.1853 45.7013 44.9227 45.2317 44.4549L38.85 38.0724C39.0351 37.609 39.3547 37.2117 39.7675 36.9314C40.1804 36.6512 40.6677 36.5009 41.1667 36.4999ZM52.8333 51.4999H41.1667C40.5036 51.4999 39.8677 51.2365 39.3989 50.7677C38.9301 50.2988 38.6667 49.663 38.6667 48.9999V40.2499L44.0533 45.6333C44.8355 46.4135 45.8952 46.8516 47 46.8516C48.1048 46.8516 49.1645 46.4135 49.9467 45.6333L55.3333 40.2499V48.9999C55.3333 49.663 55.0699 50.2988 54.6011 50.7677C54.1323 51.2365 53.4964 51.4999 52.8333 51.4999Z" fill="#374957"/>
</g>
<path d="M70.9526 48V38.6346H71.8805V48H70.9526ZM75.6974 48.1485C75.2767 48.1485 74.9015 48.0701 74.5715 47.9134C74.2416 47.7484 73.9818 47.5258 73.7921 47.2453C73.6024 46.9649 73.5076 46.6432 73.5076 46.2803C73.5076 45.9339 73.5818 45.6205 73.7303 45.3401C73.8787 45.0514 74.1097 44.8081 74.4231 44.6102C74.7365 44.4122 75.1365 44.272 75.6231 44.1895L78.2212 43.7565V44.5978L75.8458 44.9937C75.3675 45.0762 75.021 45.2287 74.8066 45.4514C74.6004 45.6741 74.4973 45.938 74.4973 46.2432C74.4973 46.5401 74.6128 46.7917 74.8437 46.9979C75.0829 47.2041 75.3881 47.3072 75.7592 47.3072C76.2129 47.3072 76.6087 47.2123 76.9469 47.0226C77.2851 46.8247 77.549 46.5608 77.7387 46.2308C77.9284 45.9009 78.0232 45.5339 78.0232 45.1298V43.4472C78.0232 43.0513 77.8789 42.7297 77.5902 42.4822C77.3016 42.2348 76.9263 42.1111 76.4644 42.1111C76.0603 42.1111 75.7056 42.2142 75.4004 42.4204C75.0953 42.6183 74.8685 42.8781 74.72 43.1998L73.8787 42.742C74.0024 42.4616 74.1963 42.2059 74.4602 41.975C74.7324 41.744 75.0417 41.5626 75.3881 41.4306C75.7345 41.2904 76.0933 41.2203 76.4644 41.2203C76.951 41.2203 77.3799 41.3152 77.7511 41.5049C78.1305 41.6946 78.4233 41.9585 78.6295 42.2966C78.8439 42.6266 78.9511 43.0101 78.9511 43.4472V48H78.0232V46.6762L78.1593 46.8123C78.0439 47.0598 77.8624 47.2866 77.615 47.4928C77.3758 47.6907 77.0912 47.8515 76.7613 47.9753C76.4397 48.0907 76.085 48.1485 75.6974 48.1485ZM83.2103 48.1485C82.7484 48.1485 82.3278 48.0412 81.9484 47.8268C81.569 47.6041 81.2679 47.2989 81.0452 46.9113C80.8308 46.5154 80.7236 46.0618 80.7236 45.5504V41.3688H81.6514V45.4391C81.6514 45.7937 81.7215 46.1071 81.8618 46.3793C82.0102 46.6432 82.2123 46.8494 82.468 46.9979C82.7319 47.1464 83.0329 47.2206 83.3711 47.2206C83.7093 47.2206 84.0103 47.1464 84.2742 46.9979C84.5382 46.8412 84.7444 46.6226 84.8928 46.3422C85.0413 46.0535 85.1155 45.7112 85.1155 45.3153V41.3688H86.0434V48H85.1155V46.7133L85.3258 46.7628C85.1691 47.1917 84.9011 47.5299 84.5217 47.7773C84.1423 48.0247 83.7051 48.1485 83.2103 48.1485ZM87.9516 48V41.3688H88.8795V42.4575L88.7558 42.2966C88.9125 41.9832 89.1476 41.7358 89.461 41.5543C89.7826 41.3729 90.1703 41.2822 90.6239 41.2822H91.0446V42.21H90.4631C89.9847 42.21 89.6012 42.3585 89.3125 42.6554C89.0239 42.9523 88.8795 43.373 88.8795 43.9173V48H87.9516ZM94.0495 48.1485C93.6289 48.1485 93.2536 48.0701 92.9237 47.9134C92.5938 47.7484 92.334 47.5258 92.1443 47.2453C91.9546 46.9649 91.8597 46.6432 91.8597 46.2803C91.8597 45.9339 91.934 45.6205 92.0824 45.3401C92.2309 45.0514 92.4618 44.8081 92.7752 44.6102C93.0887 44.4122 93.4887 44.272 93.9753 44.1895L96.5734 43.7565V44.5978L94.198 44.9937C93.7196 45.0762 93.3732 45.2287 93.1588 45.4514C92.9526 45.6741 92.8495 45.938 92.8495 46.2432C92.8495 46.5401 92.9649 46.7917 93.1959 46.9979C93.4351 47.2041 93.7402 47.3072 94.1114 47.3072C94.565 47.3072 94.9609 47.2123 95.2991 47.0226C95.6372 46.8247 95.9012 46.5608 96.0909 46.2308C96.2806 45.9009 96.3754 45.5339 96.3754 45.1298V43.4472C96.3754 43.0513 96.2311 42.7297 95.9424 42.4822C95.6537 42.2348 95.2785 42.1111 94.8166 42.1111C94.4124 42.1111 94.0578 42.2142 93.7526 42.4204C93.4474 42.6183 93.2206 42.8781 93.0722 43.1998L92.2309 42.742C92.3546 42.4616 92.5484 42.2059 92.8124 41.975C93.0845 41.744 93.3938 41.5626 93.7402 41.4306C94.0866 41.2904 94.4454 41.2203 94.8166 41.2203C95.3032 41.2203 95.7321 41.3152 96.1032 41.5049C96.4826 41.6946 96.7754 41.9585 96.9816 42.2966C97.1961 42.6266 97.3033 43.0101 97.3033 43.4472V48H96.3754V46.6762L96.5115 46.8123C96.396 47.0598 96.2146 47.2866 95.9671 47.4928C95.728 47.6907 95.4434 47.8515 95.1135 47.9753C94.7918 48.0907 94.4372 48.1485 94.0495 48.1485ZM99.2118 48V38.6346H100.14V48H99.2118ZM105.144 48.1485C104.517 48.1485 103.948 48 103.437 47.7031C102.926 47.3979 102.517 46.9855 102.212 46.4659C101.915 45.938 101.767 45.3401 101.767 44.672C101.767 44.0122 101.915 43.4225 102.212 42.9029C102.509 42.3832 102.909 41.975 103.412 41.6781C103.924 41.3729 104.501 41.2203 105.144 41.2203C105.788 41.2203 106.361 41.3688 106.864 41.6657C107.375 41.9626 107.775 42.3709 108.064 42.8905C108.361 43.4101 108.509 44.0039 108.509 44.672C108.509 45.3483 108.357 45.9504 108.052 46.4783C107.746 46.9979 107.338 47.4062 106.827 47.7031C106.324 48 105.763 48.1485 105.144 48.1485ZM105.144 47.2206C105.59 47.2206 105.99 47.1092 106.344 46.8865C106.707 46.6639 106.992 46.3587 107.198 45.971C107.412 45.5834 107.52 45.1504 107.52 44.672C107.52 44.1936 107.412 43.7648 107.198 43.3854C106.992 43.006 106.707 42.7049 106.344 42.4822C105.99 42.2595 105.59 42.1482 105.144 42.1482C104.699 42.1482 104.295 42.2595 103.932 42.4822C103.577 42.7049 103.293 43.006 103.078 43.3854C102.864 43.7648 102.757 44.1936 102.757 44.672C102.757 45.1504 102.864 45.5834 103.078 45.971C103.293 46.3587 103.577 46.6639 103.932 46.8865C104.295 47.1092 104.699 47.2206 105.144 47.2206ZM110.146 50.4743V41.3688H111.074V42.8534L110.925 42.5936C111.189 42.1729 111.54 41.8389 111.977 41.5915C112.422 41.344 112.929 41.2203 113.499 41.2203C114.125 41.2203 114.682 41.3729 115.169 41.6781C115.664 41.975 116.051 42.3832 116.332 42.9029C116.62 43.4225 116.765 44.0163 116.765 44.6844C116.765 45.3442 116.62 45.938 116.332 46.4659C116.051 46.9855 115.664 47.3979 115.169 47.7031C114.682 48 114.125 48.1485 113.499 48.1485C112.929 48.1485 112.414 48.0206 111.952 47.7649C111.498 47.501 111.156 47.1299 110.925 46.6515L111.074 46.5154V50.4743H110.146ZM113.449 47.2206C113.894 47.2206 114.29 47.1092 114.637 46.8865C114.991 46.6639 115.268 46.3628 115.466 45.9834C115.672 45.5958 115.775 45.1628 115.775 44.6844C115.775 44.1978 115.672 43.7648 115.466 43.3854C115.268 43.006 114.991 42.7049 114.637 42.4822C114.29 42.2595 113.894 42.1482 113.449 42.1482C113.004 42.1482 112.6 42.2595 112.237 42.4822C111.882 42.7049 111.597 43.0101 111.383 43.3977C111.177 43.7771 111.074 44.206 111.074 44.6844C111.074 45.1628 111.177 45.5958 111.383 45.9834C111.597 46.3628 111.882 46.6639 112.237 46.8865C112.6 47.1092 113.004 47.2206 113.449 47.2206ZM121.416 48.1485C120.798 48.1485 120.237 48 119.734 47.7031C119.239 47.3979 118.847 46.9814 118.558 46.4535C118.27 45.9257 118.125 45.3277 118.125 44.6596C118.125 43.9916 118.266 43.4018 118.546 42.8905C118.827 42.3709 119.206 41.9626 119.684 41.6657C120.171 41.3688 120.715 41.2203 121.317 41.2203C121.796 41.2203 122.22 41.311 122.592 41.4925C122.971 41.6657 123.293 41.9049 123.557 42.21C123.821 42.507 124.023 42.8451 124.163 43.2245C124.303 43.5957 124.373 43.9792 124.373 44.3751C124.373 44.4576 124.369 44.5524 124.361 44.6596C124.353 44.7586 124.34 44.8617 124.324 44.9689H118.719V44.1029H123.792L123.346 44.4741C123.421 44.0204 123.367 43.6163 123.185 43.2616C123.012 42.8987 122.761 42.6142 122.431 42.408C122.101 42.1935 121.73 42.0863 121.317 42.0863C120.905 42.0863 120.521 42.1935 120.167 42.408C119.82 42.6224 119.548 42.9235 119.35 43.3111C119.152 43.6905 119.074 44.1442 119.115 44.672C119.074 45.1999 119.156 45.6617 119.363 46.0576C119.577 46.4453 119.866 46.7463 120.229 46.9608C120.6 47.1752 120.996 47.2824 121.416 47.2824C121.903 47.2824 122.311 47.167 122.641 46.936C122.971 46.7051 123.239 46.4164 123.445 46.07L124.237 46.4907C124.105 46.7876 123.903 47.0639 123.631 47.3196C123.359 47.567 123.033 47.7691 122.654 47.9258C122.282 48.0742 121.87 48.1485 121.416 48.1485ZM125.329 48V47.1958L129.325 41.9379L129.498 42.2966H125.539V41.3688H130.314V42.1729L126.331 47.4309L126.158 47.0721H130.339V48H125.329ZM136.577 50.5609C135.851 50.5609 135.175 50.429 134.548 50.165C133.93 49.9094 133.385 49.5465 132.915 49.0763C132.445 48.6062 132.078 48.0619 131.814 47.4433C131.558 46.8164 131.431 46.1442 131.431 45.4267C131.431 44.7091 131.563 44.0411 131.827 43.4225C132.09 42.8039 132.453 42.2637 132.915 41.8018C133.385 41.3399 133.934 40.9811 134.561 40.7254C135.188 40.4615 135.86 40.3295 136.577 40.3295C137.32 40.3295 138.004 40.4698 138.631 40.7502C139.258 41.0224 139.798 41.3976 140.252 41.876C140.714 42.3461 141.068 42.8822 141.316 43.4843C141.571 44.0864 141.699 44.7174 141.699 45.3772C141.699 45.8968 141.617 46.3546 141.452 46.7505C141.295 47.1381 141.064 47.4433 140.759 47.666C140.454 47.8887 140.087 48 139.658 48C139.402 48 139.159 47.9546 138.928 47.8639C138.697 47.7649 138.499 47.6288 138.334 47.4556C138.177 47.2742 138.07 47.0598 138.012 46.8123L138.21 46.9731C138.078 47.1958 137.913 47.3855 137.715 47.5422C137.526 47.6907 137.311 47.8062 137.072 47.8887C136.833 47.9629 136.573 48 136.293 48C135.814 48 135.381 47.8845 134.994 47.6536C134.614 47.4227 134.313 47.1092 134.091 46.7133C133.868 46.3174 133.757 45.8679 133.757 45.3648C133.757 44.8617 133.868 44.4122 134.091 44.0163C134.313 43.6204 134.614 43.307 134.994 43.0761C135.381 42.8369 135.814 42.7173 136.293 42.7173C136.697 42.7173 137.064 42.7998 137.394 42.9647C137.732 43.1297 138 43.3606 138.198 43.6575L138.111 43.806V42.841H138.916V46.2556C138.916 46.5608 138.982 46.7834 139.113 46.9237C139.254 47.0639 139.439 47.134 139.67 47.134C140.017 47.134 140.285 46.9896 140.474 46.701C140.672 46.4123 140.771 45.9793 140.771 45.4019C140.771 44.8081 140.668 44.2555 140.462 43.7441C140.256 43.2328 139.967 42.7874 139.596 42.408C139.225 42.0286 138.784 41.7317 138.272 41.5172C137.761 41.3028 137.196 41.1956 136.577 41.1956C135.975 41.1956 135.414 41.3028 134.895 41.5172C134.383 41.7234 133.938 42.0162 133.559 42.3956C133.179 42.775 132.882 43.2204 132.668 43.7318C132.462 44.2431 132.359 44.804 132.359 45.4143C132.359 46.0082 132.458 46.5649 132.655 47.0845C132.862 47.5959 133.15 48.0454 133.521 48.433C133.901 48.8289 134.35 49.1382 134.87 49.3609C135.39 49.5836 135.967 49.6949 136.602 49.6949C136.973 49.6949 137.332 49.6537 137.678 49.5712C138.025 49.497 138.338 49.3815 138.619 49.2248L139.015 49.9671C138.313 50.363 137.501 50.5609 136.577 50.5609ZM136.33 47.134C136.652 47.134 136.936 47.0556 137.183 46.8989C137.431 46.7422 137.625 46.5319 137.765 46.268C137.913 45.9958 137.988 45.6906 137.988 45.3525C137.988 44.8411 137.831 44.4246 137.518 44.1029C137.204 43.773 136.808 43.608 136.33 43.608C136.016 43.608 135.732 43.6864 135.476 43.8431C135.229 43.9916 135.035 44.1978 134.895 44.4617C134.755 44.7256 134.684 45.0267 134.684 45.3648C134.684 45.6947 134.755 45.9958 134.895 46.268C135.043 46.5319 135.241 46.7422 135.489 46.8989C135.736 47.0556 136.016 47.134 136.33 47.134ZM145.358 48.1485C144.723 48.1485 144.166 47.9876 143.687 47.666C143.209 47.3443 142.863 46.9072 142.648 46.3546L143.428 45.9834C143.617 46.3876 143.881 46.7092 144.219 46.9484C144.566 47.1876 144.945 47.3072 145.358 47.3072C145.754 47.3072 146.088 47.2123 146.36 47.0226C146.632 46.8247 146.768 46.569 146.768 46.2556C146.768 46.0247 146.702 45.8432 146.57 45.7112C146.438 45.571 146.285 45.4638 146.112 45.3896C145.939 45.3153 145.786 45.2617 145.655 45.2287L144.702 44.9566C144.092 44.7834 143.65 44.54 143.378 44.2266C143.106 43.9132 142.97 43.5503 142.97 43.1379C142.97 42.7503 143.069 42.4121 143.267 42.1234C143.465 41.8348 143.733 41.6121 144.071 41.4554C144.409 41.2987 144.784 41.2203 145.197 41.2203C145.758 41.2203 146.265 41.3688 146.718 41.6657C147.18 41.9544 147.506 42.3585 147.696 42.8781L146.904 43.2493C146.739 42.8781 146.5 42.5894 146.187 42.3832C145.881 42.1688 145.539 42.0616 145.16 42.0616C144.789 42.0616 144.492 42.1564 144.269 42.3461C144.046 42.5358 143.935 42.775 143.935 43.0637C143.935 43.2864 143.993 43.4637 144.108 43.5957C144.224 43.7276 144.356 43.8266 144.504 43.8926C144.661 43.9586 144.797 44.0081 144.912 44.0411L146.013 44.3627C146.549 44.5194 146.966 44.7627 147.263 45.0926C147.568 45.4226 147.721 45.8102 147.721 46.2556C147.721 46.6185 147.618 46.9443 147.411 47.233C147.213 47.5216 146.937 47.7484 146.582 47.9134C146.228 48.0701 145.819 48.1485 145.358 48.1485ZM151.887 48.0742C151.293 48.0742 150.836 47.901 150.514 47.5546C150.192 47.2082 150.032 46.7133 150.032 46.07V42.2966H148.807V41.3688H149.116C149.396 41.3688 149.619 41.278 149.784 41.0966C149.949 40.9069 150.032 40.6718 150.032 40.3914V39.8347H150.959V41.3688H152.419V42.2966H150.959V46.07C150.959 46.2927 150.992 46.4907 151.058 46.6639C151.124 46.8288 151.236 46.9608 151.392 47.0598C151.557 47.1587 151.776 47.2082 152.048 47.2082C152.114 47.2082 152.192 47.2041 152.283 47.1958C152.374 47.1876 152.452 47.1793 152.518 47.1711V48C152.419 48.0247 152.308 48.0412 152.184 48.0495C152.06 48.066 151.961 48.0742 151.887 48.0742ZM156.925 48.1485C156.306 48.1485 155.745 48 155.242 47.7031C154.747 47.3979 154.355 46.9814 154.067 46.4535C153.778 45.9257 153.634 45.3277 153.634 44.6596C153.634 43.9916 153.774 43.4018 154.054 42.8905C154.335 42.3709 154.714 41.9626 155.193 41.6657C155.679 41.3688 156.224 41.2203 156.826 41.2203C157.304 41.2203 157.729 41.311 158.1 41.4925C158.479 41.6657 158.801 41.9049 159.065 42.21C159.329 42.507 159.531 42.8451 159.671 43.2245C159.811 43.5957 159.881 43.9792 159.881 44.3751C159.881 44.4576 159.877 44.5524 159.869 44.6596C159.861 44.7586 159.848 44.8617 159.832 44.9689H154.228V44.1029H159.3L158.855 44.4741C158.929 44.0204 158.875 43.6163 158.694 43.2616C158.521 42.8987 158.269 42.6142 157.939 42.408C157.609 42.1935 157.238 42.0863 156.826 42.0863C156.413 42.0863 156.03 42.1935 155.675 42.408C155.329 42.6224 155.056 42.9235 154.859 43.3111C154.661 43.6905 154.582 44.1442 154.623 44.672C154.582 45.1999 154.665 45.6617 154.871 46.0576C155.085 46.4453 155.374 46.7463 155.737 46.9608C156.108 47.1752 156.504 47.2824 156.925 47.2824C157.411 47.2824 157.819 47.167 158.149 46.936C158.479 46.7051 158.747 46.4164 158.954 46.07L159.745 46.4907C159.613 46.7876 159.411 47.0639 159.139 47.3196C158.867 47.567 158.541 47.7691 158.162 47.9258C157.791 48.0742 157.378 48.1485 156.925 48.1485ZM161.517 48V41.3688H162.445V42.4575L162.322 42.2966C162.478 41.9832 162.713 41.7358 163.027 41.5543C163.348 41.3729 163.736 41.2822 164.19 41.2822H164.61V42.21H164.029C163.55 42.21 163.167 42.3585 162.878 42.6554C162.59 42.9523 162.445 43.373 162.445 43.9173V48H161.517ZM165.698 48V38.6346H166.626V48H165.698ZM168.525 48V41.3688H169.453V48H168.525ZM168.525 40.144V38.7831H169.453V40.144H168.525ZM171.352 48V41.3688H172.28V42.6554L172.069 42.6059C172.234 42.177 172.502 41.8389 172.874 41.5915C173.253 41.344 173.69 41.2203 174.185 41.2203C174.655 41.2203 175.076 41.3275 175.447 41.542C175.826 41.7564 176.123 42.0533 176.338 42.4327C176.56 42.8039 176.672 43.2245 176.672 43.6946V48H175.744V44.0534C175.744 43.6493 175.67 43.307 175.521 43.0266C175.381 42.7461 175.179 42.5317 174.915 42.3832C174.659 42.2265 174.362 42.1482 174.024 42.1482C173.686 42.1482 173.385 42.2265 173.121 42.3832C172.857 42.5317 172.651 42.7503 172.502 43.0389C172.354 43.3194 172.28 43.6575 172.28 44.0534V48H171.352ZM181.586 50.7218C181.133 50.7218 180.712 50.6517 180.324 50.5115C179.945 50.3712 179.615 50.1774 179.335 49.93C179.062 49.6908 178.852 49.4104 178.704 49.0887L179.557 48.631C179.689 48.9444 179.924 49.2166 180.263 49.4475C180.601 49.6784 181.034 49.7939 181.562 49.7939C181.966 49.7939 182.337 49.7155 182.675 49.5588C183.013 49.4021 183.285 49.1712 183.492 48.866C183.698 48.5609 183.801 48.1856 183.801 47.7402V46.268L183.949 46.404C183.718 46.8824 183.376 47.2536 182.922 47.5175C182.469 47.7732 181.974 47.901 181.438 47.901C180.819 47.901 180.263 47.7526 179.768 47.4556C179.273 47.1587 178.881 46.7587 178.592 46.2556C178.312 45.7442 178.172 45.1793 178.172 44.5607C178.172 43.9338 178.312 43.3689 178.592 42.8657C178.881 42.3626 179.269 41.9626 179.755 41.6657C180.25 41.3688 180.811 41.2203 181.438 41.2203C181.974 41.2203 182.461 41.344 182.898 41.5915C183.343 41.8389 183.694 42.1729 183.949 42.5936L183.801 42.8534V41.3688H184.729V47.7402C184.729 48.3093 184.593 48.8165 184.32 49.2619C184.057 49.7155 183.685 50.0702 183.207 50.3259C182.737 50.5898 182.197 50.7218 181.586 50.7218ZM181.487 46.9731C181.916 46.9731 182.304 46.8659 182.65 46.6515C182.997 46.4288 183.273 46.136 183.479 45.7731C183.694 45.4019 183.801 44.9978 183.801 44.5607C183.801 44.1235 183.694 43.7235 183.479 43.3606C183.273 42.9895 182.997 42.6967 182.65 42.4822C182.304 42.2595 181.916 42.1482 181.487 42.1482C181.05 42.1482 180.654 42.2595 180.3 42.4822C179.945 42.6967 179.665 42.9853 179.458 43.3482C179.26 43.7111 179.161 44.1153 179.161 44.5607C179.161 44.9978 179.26 45.4019 179.458 45.7731C179.665 46.136 179.941 46.4288 180.287 46.6515C180.642 46.8659 181.042 46.9731 181.487 46.9731ZM189.666 48.1485C189.015 48.1485 188.442 47.9959 187.947 47.6907C187.452 47.3855 187.064 46.9731 186.784 46.4535C186.503 45.9257 186.363 45.3318 186.363 44.672C186.363 44.0122 186.503 43.4225 186.784 42.9029C187.064 42.3832 187.452 41.975 187.947 41.6781C188.442 41.3729 189.015 41.2203 189.666 41.2203C190.079 41.2203 190.466 41.2945 190.829 41.443C191.192 41.5915 191.514 41.7935 191.794 42.0492C192.075 42.2966 192.285 42.5853 192.425 42.9152L191.584 43.3482C191.419 42.9936 191.167 42.7049 190.829 42.4822C190.491 42.2595 190.104 42.1482 189.666 42.1482C189.229 42.1482 188.833 42.2595 188.479 42.4822C188.132 42.6967 187.856 42.9977 187.65 43.3854C187.452 43.7648 187.353 44.1978 187.353 44.6844C187.353 45.1628 187.452 45.5958 187.65 45.9834C187.856 46.3628 188.132 46.6639 188.479 46.8865C188.833 47.1092 189.229 47.2206 189.666 47.2206C190.104 47.2206 190.487 47.1092 190.817 46.8865C191.155 46.6639 191.411 46.3669 191.584 45.9958L192.425 46.4535C192.285 46.7752 192.075 47.0639 191.794 47.3196C191.514 47.5752 191.192 47.7773 190.829 47.9258C190.466 48.0742 190.079 48.1485 189.666 48.1485ZM197.159 48.1485C196.532 48.1485 195.963 48 195.452 47.7031C194.94 47.3979 194.532 46.9855 194.227 46.4659C193.93 45.938 193.781 45.3401 193.781 44.672C193.781 44.0122 193.93 43.4225 194.227 42.9029C194.524 42.3832 194.924 41.975 195.427 41.6781C195.938 41.3729 196.515 41.2203 197.159 41.2203C197.802 41.2203 198.375 41.3688 198.878 41.6657C199.39 41.9626 199.79 42.3709 200.079 42.8905C200.375 43.4101 200.524 44.0039 200.524 44.672C200.524 45.3483 200.371 45.9504 200.066 46.4783C199.761 46.9979 199.353 47.4062 198.841 47.7031C198.338 48 197.777 48.1485 197.159 48.1485ZM197.159 47.2206C197.604 47.2206 198.004 47.1092 198.359 46.8865C198.722 46.6639 199.006 46.3587 199.213 45.971C199.427 45.5834 199.534 45.1504 199.534 44.672C199.534 44.1936 199.427 43.7648 199.213 43.3854C199.006 43.006 198.722 42.7049 198.359 42.4822C198.004 42.2595 197.604 42.1482 197.159 42.1482C196.713 42.1482 196.309 42.2595 195.946 42.4822C195.592 42.7049 195.307 43.006 195.093 43.3854C194.878 43.7648 194.771 44.1936 194.771 44.672C194.771 45.1504 194.878 45.5834 195.093 45.971C195.307 46.3587 195.592 46.6639 195.946 46.8865C196.309 47.1092 196.713 47.2206 197.159 47.2206ZM205.266 48.1485C204.639 48.1485 204.07 48 203.558 47.7031C203.047 47.3979 202.639 46.9855 202.334 46.4659C202.037 45.938 201.888 45.3401 201.888 44.672C201.888 44.0122 202.037 43.4225 202.334 42.9029C202.63 42.3832 203.031 41.975 203.534 41.6781C204.045 41.3729 204.622 41.2203 205.266 41.2203C205.909 41.2203 206.482 41.3688 206.985 41.6657C207.497 41.9626 207.897 42.3709 208.185 42.8905C208.482 43.4101 208.631 44.0039 208.631 44.672C208.631 45.3483 208.478 45.9504 208.173 46.4783C207.868 46.9979 207.46 47.4062 206.948 47.7031C206.445 48 205.884 48.1485 205.266 48.1485ZM205.266 47.2206C205.711 47.2206 206.111 47.1092 206.466 46.8865C206.829 46.6639 207.113 46.3587 207.319 45.971C207.534 45.5834 207.641 45.1504 207.641 44.672C207.641 44.1936 207.534 43.7648 207.319 43.3854C207.113 43.006 206.829 42.7049 206.466 42.4822C206.111 42.2595 205.711 42.1482 205.266 42.1482C204.82 42.1482 204.416 42.2595 204.053 42.4822C203.699 42.7049 203.414 43.006 203.2 43.3854C202.985 43.7648 202.878 44.1936 202.878 44.672C202.878 45.1504 202.985 45.5834 203.2 45.971C203.414 46.3587 203.699 46.6639 204.053 46.8865C204.416 47.1092 204.82 47.2206 205.266 47.2206ZM210.267 50.4743V41.3688H211.195V42.8534L211.047 42.5936C211.311 42.1729 211.661 41.8389 212.098 41.5915C212.544 41.344 213.051 41.2203 213.62 41.2203C214.247 41.2203 214.804 41.3729 215.29 41.6781C215.785 41.975 216.173 42.3832 216.453 42.9029C216.742 43.4225 216.886 44.0163 216.886 44.6844C216.886 45.3442 216.742 45.938 216.453 46.4659C216.173 46.9855 215.785 47.3979 215.29 47.7031C214.804 48 214.247 48.1485 213.62 48.1485C213.051 48.1485 212.535 48.0206 212.073 47.7649C211.62 47.501 211.278 47.1299 211.047 46.6515L211.195 46.5154V50.4743H210.267ZM213.57 47.2206C214.016 47.2206 214.412 47.1092 214.758 46.8865C215.113 46.6639 215.389 46.3628 215.587 45.9834C215.793 45.5958 215.896 45.1628 215.896 44.6844C215.896 44.1978 215.793 43.7648 215.587 43.3854C215.389 43.006 215.113 42.7049 214.758 42.4822C214.412 42.2595 214.016 42.1482 213.57 42.1482C213.125 42.1482 212.721 42.2595 212.358 42.4822C212.003 42.7049 211.719 43.0101 211.504 43.3977C211.298 43.7771 211.195 44.206 211.195 44.6844C211.195 45.1628 211.298 45.5958 211.504 45.9834C211.719 46.3628 212.003 46.6639 212.358 46.8865C212.721 47.1092 213.125 47.2206 213.57 47.2206ZM221.538 48.1485C220.919 48.1485 220.358 48 219.855 47.7031C219.36 47.3979 218.969 46.9814 218.68 46.4535C218.391 45.9257 218.247 45.3277 218.247 44.6596C218.247 43.9916 218.387 43.4018 218.668 42.8905C218.948 42.3709 219.327 41.9626 219.806 41.6657C220.292 41.3688 220.837 41.2203 221.439 41.2203C221.917 41.2203 222.342 41.311 222.713 41.4925C223.092 41.6657 223.414 41.9049 223.678 42.21C223.942 42.507 224.144 42.8451 224.284 43.2245C224.424 43.5957 224.495 43.9792 224.495 44.3751C224.495 44.4576 224.49 44.5524 224.482 44.6596C224.474 44.7586 224.462 44.8617 224.445 44.9689H218.841V44.1029H223.913L223.468 44.4741C223.542 44.0204 223.488 43.6163 223.307 43.2616C223.134 42.8987 222.882 42.6142 222.552 42.408C222.222 42.1935 221.851 42.0863 221.439 42.0863C221.026 42.0863 220.643 42.1935 220.288 42.408C219.942 42.6224 219.67 42.9235 219.472 43.3111C219.274 43.6905 219.195 44.1442 219.237 44.672C219.195 45.1999 219.278 45.6617 219.484 46.0576C219.698 46.4453 219.987 46.7463 220.35 46.9608C220.721 47.1752 221.117 47.2824 221.538 47.2824C222.024 47.2824 222.433 47.167 222.763 46.936C223.092 46.7051 223.361 46.4164 223.567 46.07L224.359 46.4907C224.227 46.7876 224.024 47.0639 223.752 47.3196C223.48 47.567 223.154 47.7691 222.775 47.9258C222.404 48.0742 221.991 48.1485 221.538 48.1485ZM226.131 48V41.3688H227.058V42.4575L226.935 42.2966C227.091 41.9832 227.326 41.7358 227.64 41.5543C227.962 41.3729 228.349 41.2822 228.803 41.2822H229.223V42.21H228.642C228.164 42.21 227.78 42.3585 227.491 42.6554C227.203 42.9523 227.058 43.373 227.058 43.9173V48H226.131ZM230.137 48V46.6391H231.127V48H230.137ZM236.387 48.1485C235.735 48.1485 235.162 47.9959 234.667 47.6907C234.172 47.3855 233.784 46.9731 233.504 46.4535C233.223 45.9257 233.083 45.3318 233.083 44.672C233.083 44.0122 233.223 43.4225 233.504 42.9029C233.784 42.3832 234.172 41.975 234.667 41.6781C235.162 41.3729 235.735 41.2203 236.387 41.2203C236.799 41.2203 237.187 41.2945 237.549 41.443C237.912 41.5915 238.234 41.7935 238.514 42.0492C238.795 42.2966 239.005 42.5853 239.145 42.9152L238.304 43.3482C238.139 42.9936 237.888 42.7049 237.549 42.4822C237.211 42.2595 236.824 42.1482 236.387 42.1482C235.949 42.1482 235.553 42.2595 235.199 42.4822C234.852 42.6967 234.576 42.9977 234.37 43.3854C234.172 43.7648 234.073 44.1978 234.073 44.6844C234.073 45.1628 234.172 45.5958 234.37 45.9834C234.576 46.3628 234.852 46.6639 235.199 46.8865C235.553 47.1092 235.949 47.2206 236.387 47.2206C236.824 47.2206 237.207 47.1092 237.537 46.8865C237.875 46.6639 238.131 46.3669 238.304 45.9958L239.145 46.4535C239.005 46.7752 238.795 47.0639 238.514 47.3196C238.234 47.5752 237.912 47.7773 237.549 47.9258C237.187 48.0742 236.799 48.1485 236.387 48.1485ZM243.879 48.1485C243.252 48.1485 242.683 48 242.172 47.7031C241.66 47.3979 241.252 46.9855 240.947 46.4659C240.65 45.938 240.501 45.3401 240.501 44.672C240.501 44.0122 240.65 43.4225 240.947 42.9029C241.244 42.3832 241.644 41.975 242.147 41.6781C242.658 41.3729 243.236 41.2203 243.879 41.2203C244.522 41.2203 245.095 41.3688 245.599 41.6657C246.11 41.9626 246.51 42.3709 246.799 42.8905C247.096 43.4101 247.244 44.0039 247.244 44.672C247.244 45.3483 247.091 45.9504 246.786 46.4783C246.481 46.9979 246.073 47.4062 245.561 47.7031C245.058 48 244.498 48.1485 243.879 48.1485ZM243.879 47.2206C244.324 47.2206 244.724 47.1092 245.079 46.8865C245.442 46.6639 245.726 46.3587 245.933 45.971C246.147 45.5834 246.254 45.1504 246.254 44.672C246.254 44.1936 246.147 43.7648 245.933 43.3854C245.726 43.006 245.442 42.7049 245.079 42.4822C244.724 42.2595 244.324 42.1482 243.879 42.1482C243.434 42.1482 243.029 42.2595 242.667 42.4822C242.312 42.7049 242.027 43.006 241.813 43.3854C241.598 43.7648 241.491 44.1936 241.491 44.672C241.491 45.1504 241.598 45.5834 241.813 45.971C242.027 46.3587 242.312 46.6639 242.667 46.8865C243.029 47.1092 243.434 47.2206 243.879 47.2206ZM248.88 48V41.3688H249.808V42.6307L249.66 42.4451C249.841 42.0575 250.109 41.7564 250.464 41.542C250.827 41.3275 251.223 41.2203 251.652 41.2203C252.163 41.2203 252.625 41.3646 253.037 41.6533C253.45 41.942 253.743 42.3173 253.916 42.7791L253.656 42.7915C253.821 42.2801 254.105 41.8925 254.51 41.6286C254.922 41.3564 255.376 41.2203 255.87 41.2203C256.316 41.2203 256.724 41.3275 257.095 41.542C257.475 41.7564 257.776 42.0533 257.998 42.4327C258.229 42.8039 258.345 43.2245 258.345 43.6946V48H257.417V44.0534C257.417 43.6493 257.343 43.307 257.194 43.0266C257.054 42.7461 256.86 42.5317 256.613 42.3832C256.365 42.2265 256.081 42.1482 255.759 42.1482C255.446 42.1482 255.161 42.2265 254.905 42.3832C254.65 42.5317 254.448 42.7503 254.299 43.0389C254.151 43.3194 254.077 43.6575 254.077 44.0534V48H253.149V44.0534C253.149 43.6493 253.074 43.307 252.926 43.0266C252.786 42.7461 252.592 42.5317 252.345 42.3832C252.097 42.2265 251.813 42.1482 251.491 42.1482C251.169 42.1482 250.881 42.2265 250.625 42.3832C250.377 42.5317 250.18 42.7503 250.031 43.0389C249.883 43.3194 249.808 43.6575 249.808 44.0534V48H248.88Z" fill="#161616"/>
</g>
<defs>
<filter id="filter0_d_1600_15189" x="-20.8674" y="-15.2314" width="424.173" height="129.429" filterUnits="userSpaceOnUse" color-interpolation-filters="sRGB">
<feFlood flood-opacity="0" result="BackgroundImageFix"/>
<feColorMatrix in="SourceAlpha" type="matrix" values="0 0 0 0 0 0 0 0 0 0 0 0 0 0 0 0 0 0 127 0" result="hardAlpha"/>
<feOffset dx="-1.76739" dy="5.30216"/>
<feGaussianBlur stdDeviation="20.7668"/>
<feComposite in2="hardAlpha" operator="out"/>
<feColorMatrix type="matrix" values="0 0 0 0 0 0 0 0 0 0 0 0 0 0 0 0 0 0 0.03 0"/>
<feBlend mode="normal" in2="BackgroundImageFix" result="effect1_dropShadow_1600_15189"/>
<feBlend mode="normal" in="SourceGraphic" in2="effect1_dropShadow_1600_15189" result="shape"/>
</filter>
<clipPath id="clip0_1600_15189">
<rect width="243" height="132" rx="5" fill="white"/>
</clipPath>
<clipPath id="clip1_1600_15189">
<rect width="20" height="20" fill="white" transform="translate(37 34)"/>
</clipPath>
</defs>
</svg>
