<svg width="243" height="132" viewBox="0 0 243 132" fill="none" xmlns="http://www.w3.org/2000/svg">
<g clip-path="url(#clip0_1600_15750)">
<rect width="243" height="132" rx="5" fill="#F4F4F4"/>
<rect x="16" y="33" width="209.28" height="36.48" rx="5.12" fill="white"/>
<g clip-path="url(#clip1_1600_15750)">
<path d="M209.036 47.8326C209.542 47.8326 209.952 47.4222 209.952 46.9159C209.952 46.4097 209.542 45.9993 209.036 45.9993C208.53 45.9993 208.119 46.4097 208.119 46.9159C208.119 47.4222 208.53 47.8326 209.036 47.8326Z" fill="#374957"/>
<path d="M209.036 52.416C209.542 52.416 209.952 52.0056 209.952 51.4994C209.952 50.9931 209.542 50.5827 209.036 50.5827C208.53 50.5827 208.119 50.9931 208.119 51.4994C208.119 52.0056 208.53 52.416 209.036 52.416Z" fill="#374957"/>
<path d="M209.036 56.9992C209.542 56.9992 209.952 56.5888 209.952 56.0825C209.952 55.5762 209.542 55.1658 209.036 55.1658C208.53 55.1658 208.119 55.5762 208.119 56.0825C208.119 56.5888 208.53 56.9992 209.036 56.9992Z" fill="#374957"/>
</g>
<path d="M51.9678 59.2796L53.5102 54.6716H54.3038L55.8462 59.2796H55.2542L53.811 55.0044H53.9902L52.5598 59.2796H51.9678ZM52.7102 58.2012V57.6668H55.1038V58.2012H52.7102ZM57.7887 59.3756C57.4666 59.3756 57.1903 59.2956 56.9599 59.1356C56.7295 58.9735 56.5514 58.7548 56.4255 58.4796C56.3018 58.2044 56.2399 57.894 56.2399 57.5484C56.2399 57.2028 56.3018 56.8924 56.4255 56.6172C56.5514 56.342 56.7295 56.1255 56.9599 55.9676C57.1903 55.8076 57.4655 55.7276 57.7855 55.7276C58.1119 55.7276 58.386 55.8065 58.6079 55.9644C58.8298 56.1223 58.9972 56.3388 59.1103 56.614C59.2255 56.8892 59.2831 57.2007 59.2831 57.5484C59.2831 57.8919 59.2255 58.2023 59.1103 58.4796C58.9972 58.7548 58.8298 58.9735 58.6079 59.1356C58.386 59.2956 58.113 59.3756 57.7887 59.3756ZM57.8591 58.854C58.0916 58.854 58.2826 58.7985 58.4319 58.6876C58.5812 58.5745 58.6911 58.4199 58.7615 58.2236C58.834 58.0252 58.8703 57.8001 58.8703 57.5484C58.8703 57.2924 58.834 57.0673 58.7615 56.8732C58.6911 56.6769 58.5823 56.5244 58.4351 56.4156C58.2879 56.3047 58.1012 56.2492 57.8751 56.2492C57.6404 56.2492 57.4463 56.3068 57.2927 56.422C57.1412 56.5372 57.0282 56.6929 56.9535 56.8892C56.881 57.0855 56.8447 57.3052 56.8447 57.5484C56.8447 57.7937 56.882 58.0156 56.9567 58.214C57.0314 58.4103 57.1434 58.566 57.2927 58.6812C57.4442 58.7964 57.633 58.854 57.8591 58.854ZM58.8703 59.2796V56.7356H58.8063V54.6716H59.3791V59.2796H58.8703ZM64.4196 59.2796L64.4228 57.0684C64.4228 56.8103 64.3535 56.6087 64.2148 56.4636C64.0783 56.3164 63.9002 56.2428 63.6804 56.2428C63.5524 56.2428 63.4308 56.2727 63.3156 56.3324C63.2004 56.39 63.1066 56.4817 63.034 56.6076C62.9615 56.7313 62.9252 56.8903 62.9252 57.0844L62.6244 56.9628C62.6202 56.7175 62.6703 56.5031 62.7748 56.3196C62.8815 56.134 63.0266 55.99 63.21 55.8876C63.3935 55.7852 63.6004 55.734 63.8308 55.734C64.1914 55.734 64.4751 55.8439 64.682 56.0636C64.889 56.2812 64.9924 56.5745 64.9924 56.9436L64.9892 59.2796H64.4196ZM60.2852 59.2796V55.8236H60.794V56.7484H60.858V59.2796H60.2852ZM62.3556 59.2796L62.3588 57.0908C62.3588 56.8263 62.2906 56.6193 62.154 56.47C62.0175 56.3185 61.8362 56.2428 61.61 56.2428C61.386 56.2428 61.2047 56.3196 61.066 56.4732C60.9274 56.6268 60.858 56.8305 60.858 57.0844L60.5572 56.9052C60.5572 56.6812 60.6106 56.4807 60.7172 56.3036C60.8239 56.1265 60.969 55.9879 61.1524 55.8876C61.3359 55.7852 61.5439 55.734 61.7764 55.734C62.009 55.734 62.2116 55.7831 62.3844 55.8812C62.5572 55.9793 62.6906 56.1201 62.7844 56.3036C62.8783 56.4849 62.9252 56.7015 62.9252 56.9532L62.922 59.2796H62.3556ZM65.9027 55.2124V54.6236H66.4723V55.2124H65.9027ZM65.9027 59.2796V55.8236H66.4723V59.2796H65.9027ZM69.9061 59.2796V57.5484C69.9061 57.3841 69.8912 57.2263 69.8613 57.0748C69.8336 56.9233 69.7834 56.7879 69.7109 56.6684C69.6405 56.5468 69.5445 56.4508 69.4229 56.3804C69.3034 56.31 69.152 56.2748 68.9685 56.2748C68.8256 56.2748 68.6954 56.2993 68.5781 56.3484C68.4629 56.3953 68.3637 56.4679 68.2805 56.566C68.1973 56.6641 68.1322 56.7879 68.0853 56.9372C68.0405 57.0844 68.0181 57.2583 68.0181 57.4588L67.6437 57.3436C67.6437 57.0087 67.7034 56.7217 67.8229 56.4828C67.9445 56.2417 68.1141 56.0572 68.3317 55.9292C68.5514 55.7991 68.8096 55.734 69.1061 55.734C69.3301 55.734 69.521 55.7692 69.6789 55.8396C69.8368 55.91 69.968 56.0039 70.0725 56.1212C70.177 56.2364 70.2592 56.3665 70.3189 56.5116C70.3786 56.6545 70.4202 56.8007 70.4437 56.95C70.4693 57.0972 70.4821 57.2369 70.4821 57.3692V59.2796H69.9061ZM67.4421 59.2796V55.8236H67.9541V56.7484H68.0181V59.2796H67.4421ZM71.3908 55.2124V54.6236H71.9604V55.2124H71.3908ZM71.3908 59.2796V55.8236H71.9604V59.2796H71.3908ZM74.239 59.3724C73.8273 59.3724 73.4891 59.2828 73.2246 59.1036C72.9622 58.9223 72.8011 58.6695 72.7414 58.3452L73.3238 58.2524C73.3707 58.4401 73.4785 58.5895 73.647 58.7004C73.8155 58.8092 74.0246 58.8636 74.2742 58.8636C74.511 58.8636 74.6966 58.8145 74.831 58.7164C74.9654 58.6183 75.0326 58.4849 75.0326 58.3164C75.0326 58.2183 75.0102 58.1393 74.9654 58.0796C74.9206 58.0177 74.8278 57.9601 74.687 57.9068C74.5483 57.8535 74.3382 57.7895 74.0566 57.7148C73.7515 57.6337 73.5115 57.5495 73.3366 57.462C73.1617 57.3745 73.0369 57.2732 72.9622 57.158C72.8875 57.0428 72.8502 56.9031 72.8502 56.7388C72.8502 56.5361 72.9057 56.3591 73.0166 56.2076C73.1275 56.054 73.2822 55.9356 73.4806 55.8524C73.6811 55.7692 73.9137 55.7276 74.1782 55.7276C74.4406 55.7276 74.6753 55.7692 74.8822 55.8524C75.0891 55.9356 75.2555 56.054 75.3814 56.2076C75.5094 56.3591 75.5851 56.5361 75.6086 56.7388L75.0262 56.8444C74.9985 56.6588 74.9089 56.5127 74.7574 56.406C74.6081 56.2993 74.415 56.2428 74.1782 56.2364C73.9542 56.2279 73.7718 56.2673 73.631 56.3548C73.4923 56.4423 73.423 56.5607 73.423 56.71C73.423 56.7932 73.4486 56.8647 73.4998 56.9244C73.5531 56.9841 73.6502 57.0407 73.791 57.094C73.9339 57.1473 74.1409 57.2081 74.4118 57.2764C74.7169 57.3532 74.9569 57.4375 75.1318 57.5292C75.3089 57.6188 75.4347 57.7255 75.5094 57.8492C75.5841 57.9708 75.6214 58.1212 75.6214 58.3004C75.6214 58.6332 75.4987 58.8956 75.2534 59.0876C75.0081 59.2775 74.6699 59.3724 74.239 59.3724ZM78.2695 59.2796C78.0647 59.3201 77.8621 59.3361 77.6615 59.3276C77.4631 59.3212 77.2861 59.2817 77.1303 59.2092C76.9746 59.1345 76.8562 59.0193 76.7751 58.8636C76.7069 58.7271 76.6695 58.5895 76.6631 58.4508C76.6589 58.31 76.6567 58.1511 76.6567 57.974V54.8636H77.2263V57.9484C77.2263 58.0892 77.2274 58.2097 77.2295 58.31C77.2338 58.4103 77.2562 58.4967 77.2967 58.5692C77.3735 58.7057 77.4951 58.7857 77.6615 58.8092C77.8301 58.8327 78.0327 58.8263 78.2695 58.79V59.2796ZM75.9559 56.294V55.8236H78.2695V56.294H75.9559ZM78.984 59.2796V55.8236H79.4928V56.6588L79.4096 56.55C79.4501 56.4433 79.5024 56.3452 79.5664 56.2556C79.6325 56.166 79.7061 56.0924 79.7872 56.0348C79.8768 55.9623 79.9781 55.9068 80.0912 55.8684C80.2043 55.83 80.3195 55.8076 80.4368 55.8012C80.5541 55.7927 80.664 55.8001 80.7664 55.8236V56.358C80.6469 56.326 80.5157 56.3175 80.3728 56.3324C80.2299 56.3473 80.0976 56.3996 79.976 56.4892C79.8651 56.5681 79.7787 56.6641 79.7168 56.7772C79.6571 56.8903 79.6155 57.0129 79.592 57.1452C79.5685 57.2753 79.5568 57.4087 79.5568 57.5452V59.2796H78.984ZM82.2542 59.3756C81.9961 59.3756 81.7795 59.3287 81.6046 59.2348C81.4318 59.1388 81.3006 59.0129 81.211 58.8572C81.1235 58.7015 81.0798 58.5308 81.0798 58.3452C81.0798 58.1639 81.1139 58.0071 81.1822 57.8748C81.2526 57.7404 81.3507 57.6295 81.4766 57.542C81.6025 57.4524 81.7529 57.382 81.9278 57.3308C82.0921 57.286 82.2755 57.2476 82.4782 57.2156C82.683 57.1815 82.8899 57.1505 83.099 57.1228C83.3081 57.0951 83.5033 57.0684 83.6846 57.0428L83.4798 57.1612C83.4862 56.854 83.4243 56.6268 83.2942 56.4796C83.1662 56.3324 82.9443 56.2588 82.6286 56.2588C82.4195 56.2588 82.2361 56.3068 82.0782 56.4028C81.9225 56.4967 81.8126 56.6503 81.7486 56.8636L81.2078 56.7004C81.291 56.3975 81.4521 56.1596 81.691 55.9868C81.9299 55.814 82.2446 55.7276 82.635 55.7276C82.9486 55.7276 83.2174 55.7841 83.4414 55.8972C83.6675 56.0081 83.8297 56.1767 83.9278 56.4028C83.9769 56.5095 84.0078 56.6257 84.0206 56.7516C84.0334 56.8753 84.0398 57.0055 84.0398 57.142V59.2796H83.5342V58.4508L83.6526 58.5276C83.5225 58.8071 83.3401 59.0183 83.1054 59.1612C82.8729 59.3041 82.5891 59.3756 82.2542 59.3756ZM82.3406 58.8988C82.5454 58.8988 82.7225 58.8625 82.8718 58.79C83.0233 58.7153 83.1449 58.6183 83.2366 58.4988C83.3283 58.3772 83.3881 58.2449 83.4158 58.102C83.4478 57.9953 83.4649 57.8769 83.467 57.7468C83.4713 57.6145 83.4734 57.5132 83.4734 57.4428L83.6718 57.5292C83.4862 57.5548 83.3038 57.5793 83.1246 57.6028C82.9454 57.6263 82.7758 57.6519 82.6158 57.6796C82.4558 57.7052 82.3118 57.7361 82.1838 57.7724C82.0899 57.8023 82.0014 57.8407 81.9182 57.8876C81.8371 57.9345 81.771 57.9953 81.7198 58.07C81.6707 58.1425 81.6462 58.2332 81.6462 58.342C81.6462 58.4359 81.6697 58.5255 81.7166 58.6108C81.7657 58.6961 81.8403 58.7655 81.9406 58.8188C82.043 58.8721 82.1763 58.8988 82.3406 58.8988ZM86.2414 59.3756C85.9193 59.3756 85.643 59.2956 85.4126 59.1356C85.1822 58.9735 85.0041 58.7548 84.8782 58.4796C84.7545 58.2044 84.6926 57.894 84.6926 57.5484C84.6926 57.2028 84.7545 56.8924 84.8782 56.6172C85.0041 56.342 85.1822 56.1255 85.4126 55.9676C85.643 55.8076 85.9182 55.7276 86.2382 55.7276C86.5646 55.7276 86.8387 55.8065 87.0606 55.9644C87.2825 56.1223 87.4499 56.3388 87.563 56.614C87.6782 56.8892 87.7358 57.2007 87.7358 57.5484C87.7358 57.8919 87.6782 58.2023 87.563 58.4796C87.4499 58.7548 87.2825 58.9735 87.0606 59.1356C86.8387 59.2956 86.5657 59.3756 86.2414 59.3756ZM86.3118 58.854C86.5443 58.854 86.7353 58.7985 86.8846 58.6876C87.0339 58.5745 87.1438 58.4199 87.2142 58.2236C87.2867 58.0252 87.323 57.8001 87.323 57.5484C87.323 57.2924 87.2867 57.0673 87.2142 56.8732C87.1438 56.6769 87.035 56.5244 86.8878 56.4156C86.7406 56.3047 86.5539 56.2492 86.3278 56.2492C86.0931 56.2492 85.899 56.3068 85.7454 56.422C85.5939 56.5372 85.4809 56.6929 85.4062 56.8892C85.3337 57.0855 85.2974 57.3052 85.2974 57.5484C85.2974 57.7937 85.3347 58.0156 85.4094 58.214C85.4841 58.4103 85.5961 58.566 85.7454 58.6812C85.8969 58.7964 86.0857 58.854 86.3118 58.854ZM87.323 59.2796V56.7356H87.259V54.6716H87.8318V59.2796H87.323ZM90.2131 59.3756C89.8697 59.3756 89.5731 59.2977 89.3235 59.142C89.0761 58.9863 88.8851 58.7708 88.7507 58.4956C88.6163 58.2204 88.5491 57.9047 88.5491 57.5484C88.5491 57.1857 88.6174 56.8679 88.7539 56.5948C88.8905 56.3217 89.0835 56.1095 89.3331 55.958C89.5827 55.8044 89.8761 55.7276 90.2131 55.7276C90.5587 55.7276 90.8563 55.8055 91.1059 55.9612C91.3555 56.1148 91.5465 56.3292 91.6787 56.6044C91.8131 56.8775 91.8803 57.1921 91.8803 57.5484C91.8803 57.9089 91.8131 58.2268 91.6787 58.502C91.5443 58.7751 91.3523 58.9895 91.1027 59.1452C90.8531 59.2988 90.5566 59.3756 90.2131 59.3756ZM90.2131 58.8348C90.5715 58.8348 90.8382 58.7153 91.0131 58.4764C91.1881 58.2375 91.2755 57.9281 91.2755 57.5484C91.2755 57.158 91.187 56.8476 91.0099 56.6172C90.8329 56.3847 90.5673 56.2684 90.2131 56.2684C89.9721 56.2684 89.7737 56.3228 89.6179 56.4316C89.4622 56.5404 89.3459 56.6908 89.2691 56.8828C89.1923 57.0748 89.1539 57.2967 89.1539 57.5484C89.1539 57.9367 89.2435 58.2481 89.4227 58.4828C89.6019 58.7175 89.8654 58.8348 90.2131 58.8348ZM92.5977 59.2796V55.8236H93.1065V56.6588L93.0233 56.55C93.0638 56.4433 93.1161 56.3452 93.1801 56.2556C93.2462 56.166 93.3198 56.0924 93.4009 56.0348C93.4905 55.9623 93.5918 55.9068 93.7049 55.8684C93.818 55.83 93.9332 55.8076 94.0505 55.8012C94.1678 55.7927 94.2777 55.8001 94.3801 55.8236V56.358C94.2606 56.326 94.1294 56.3175 93.9865 56.3324C93.8436 56.3473 93.7113 56.3996 93.5897 56.4892C93.4788 56.5681 93.3924 56.6641 93.3305 56.7772C93.2708 56.8903 93.2292 57.0129 93.2057 57.1452C93.1822 57.2753 93.1705 57.4087 93.1705 57.5452V59.2796H92.5977Z" fill="#868686"/>
<path d="M52.5566 49.3996V42.9484H53.6363V48.3871H56.4856V49.3996H52.5566ZM59.0858 49.5385C58.7274 49.5385 58.4317 49.4787 58.1988 49.3593C57.9658 49.2398 57.7807 49.0875 57.6433 48.9023C57.5059 48.7171 57.4043 48.52 57.3386 48.311C57.2729 48.1019 57.2296 47.9048 57.2087 47.7196C57.1908 47.5314 57.1818 47.3791 57.1818 47.2626V44.5612H58.2749V46.8908C58.2749 47.0401 58.2854 47.2089 58.3063 47.397C58.3272 47.5822 58.375 47.7614 58.4497 47.9346C58.5273 48.1049 58.6408 48.2453 58.7901 48.3558C58.9425 48.4663 59.1471 48.5215 59.4039 48.5215C59.5413 48.5215 59.6772 48.4991 59.8116 48.4543C59.946 48.4095 60.0669 48.3334 60.1745 48.2258C60.285 48.1153 60.3731 47.9645 60.4388 47.7734C60.5045 47.5822 60.5373 47.3403 60.5373 47.0476L61.178 47.3209C61.178 47.733 61.0973 48.1064 60.9361 48.4409C60.7778 48.7754 60.5433 49.0427 60.2327 49.2428C59.9221 49.4399 59.5398 49.5385 59.0858 49.5385ZM60.6673 49.3996V47.8988H60.5373V44.5612H61.6215V49.3996H60.6673ZM62.9967 43.8265V42.8364H64.0763V43.8265H62.9967ZM62.9967 49.3996V44.5612H64.0763V49.3996H62.9967ZM67.3133 49.534C66.716 49.534 66.2307 49.3996 65.8573 49.1308C65.484 48.862 65.257 48.4842 65.1764 47.9974L66.2785 47.8271C66.3352 48.0661 66.4607 48.2542 66.6548 48.3916C66.8489 48.529 67.0938 48.5977 67.3895 48.5977C67.6493 48.5977 67.8495 48.5469 67.9898 48.4454C68.1332 48.3408 68.2049 48.199 68.2049 48.0198C68.2049 47.9093 68.178 47.8211 68.1242 47.7554C68.0735 47.6867 67.96 47.621 67.7837 47.5583C67.6075 47.4956 67.3372 47.4165 66.9729 47.3209C66.5667 47.2134 66.2441 47.0984 66.0052 46.9759C65.7663 46.8505 65.5945 46.7026 65.49 46.5324C65.3855 46.3622 65.3332 46.1561 65.3332 45.9142C65.3332 45.6125 65.4123 45.3497 65.5706 45.1257C65.7289 44.9017 65.9499 44.7299 66.2337 44.6105C66.5174 44.488 66.8519 44.4268 67.2372 44.4268C67.6135 44.4268 67.9465 44.485 68.2362 44.6015C68.5289 44.718 68.7649 44.8838 68.9441 45.0988C69.1233 45.3138 69.2338 45.5662 69.2756 45.8559L68.1735 46.053C68.1466 45.847 68.0525 45.6842 67.8913 45.5647C67.733 45.4453 67.5209 45.3781 67.2551 45.3631C67.0012 45.3482 66.7967 45.387 66.6413 45.4796C66.486 45.5692 66.4084 45.6961 66.4084 45.8604C66.4084 45.953 66.4397 46.0321 66.5025 46.0978C66.5652 46.1635 66.6906 46.2293 66.8788 46.295C67.0699 46.3607 67.3537 46.4413 67.73 46.5369C68.1153 46.6354 68.4229 46.7489 68.6529 46.8774C68.8858 47.0028 69.0531 47.1536 69.1546 47.3298C69.2592 47.5061 69.3114 47.7196 69.3114 47.9705C69.3114 48.4573 69.1337 48.8396 68.7783 49.1174C68.4259 49.3951 67.9376 49.534 67.3133 49.534ZM74.8013 49.534C74.3832 49.534 73.9904 49.4608 73.6231 49.3145C73.2587 49.1651 72.9376 48.9471 72.6599 48.6604C72.3851 48.3737 72.1701 48.0227 72.0148 47.6076C71.8594 47.1895 71.7818 46.7116 71.7818 46.174C71.7818 45.4691 71.9132 44.8673 72.176 44.3686C72.4389 43.8668 72.7988 43.483 73.2557 43.2172C73.7127 42.9484 74.2279 42.814 74.8013 42.814C75.5958 42.814 76.2245 42.9992 76.6874 43.3695C77.1533 43.7369 77.4684 44.2536 77.6327 44.9196L76.5306 45.0943C76.4081 44.712 76.208 44.4074 75.9303 44.1804C75.6525 43.9504 75.2986 43.8354 74.8685 43.8354C74.4354 43.8295 74.0756 43.9235 73.7888 44.1177C73.5021 44.3118 73.2856 44.5851 73.1392 44.9375C72.9959 45.2899 72.9242 45.7021 72.9242 46.174C72.9242 46.6459 72.9959 47.0566 73.1392 47.406C73.2826 47.7525 73.4976 48.0227 73.7844 48.2169C74.0741 48.411 74.4354 48.5111 74.8685 48.517C75.1941 48.52 75.4793 48.4618 75.7242 48.3423C75.9691 48.2199 76.1692 48.0362 76.3245 47.7913C76.4798 47.5434 76.5844 47.2343 76.6381 46.8639H75.5002V46.0172H77.785C77.791 46.065 77.7954 46.1352 77.7984 46.2278C77.8014 46.3203 77.8029 46.3756 77.8029 46.3935C77.8029 47.0028 77.682 47.5449 77.44 48.0198C77.2011 48.4917 76.8576 48.862 76.4096 49.1308C75.9616 49.3996 75.4255 49.534 74.8013 49.534ZM80.9293 49.534C80.4394 49.534 80.0094 49.428 79.639 49.2159C79.2687 49.0039 78.979 48.7097 78.7699 48.3334C78.5638 47.957 78.4608 47.524 78.4608 47.0342C78.4608 46.5055 78.5623 46.0471 78.7654 45.6588C78.9685 45.2675 79.2507 44.9644 79.6121 44.7494C79.9735 44.5343 80.3917 44.4268 80.8665 44.4268C81.3683 44.4268 81.7939 44.5448 82.1433 44.7807C82.4958 45.0137 82.7571 45.3437 82.9273 45.7708C83.0976 46.1979 83.1618 46.7011 83.12 47.2806H82.0493V46.8863C82.0463 46.3607 81.9537 45.9769 81.7715 45.735C81.5893 45.493 81.3026 45.3721 80.9113 45.3721C80.4693 45.3721 80.1408 45.5095 79.9257 45.7842C79.7107 46.056 79.6032 46.4547 79.6032 46.9804C79.6032 47.4702 79.7107 47.8495 79.9257 48.1183C80.1408 48.3871 80.4544 48.5215 80.8665 48.5215C81.1323 48.5215 81.3608 48.4633 81.552 48.3468C81.7461 48.2273 81.8954 48.0556 82 47.8316L83.0662 48.1542C82.881 48.5902 82.5943 48.9292 82.2061 49.1711C81.8208 49.413 81.3952 49.534 80.9293 49.534ZM79.2627 47.2806V46.4652H82.5913V47.2806H79.2627ZM84.1465 49.3996V44.5612H85.1007V45.7394L84.9842 45.5871C85.0439 45.4258 85.1231 45.2795 85.2217 45.1481C85.3232 45.0137 85.4442 44.9032 85.5845 44.8166C85.704 44.7359 85.8354 44.6732 85.9788 44.6284C86.1251 44.5806 86.2745 44.5522 86.4268 44.5433C86.5791 44.5313 86.7269 44.5373 86.8703 44.5612V45.5692C86.7269 45.5274 86.5612 45.5139 86.373 45.5289C86.1878 45.5438 86.0206 45.5961 85.8713 45.6857C85.7219 45.7663 85.5995 45.8694 85.5039 45.9948C85.4113 46.1202 85.3426 46.2636 85.2978 46.4249C85.253 46.5832 85.2306 46.7549 85.2306 46.9401V49.3996H84.1465ZM88.9913 49.534C88.6419 49.534 88.3462 49.4683 88.1043 49.3369C87.8623 49.2025 87.6787 49.0248 87.5532 48.8038C87.4308 48.5827 87.3695 48.3393 87.3695 48.0735C87.3695 47.8406 87.4084 47.6315 87.486 47.4463C87.5637 47.2582 87.6831 47.0969 87.8444 46.9625C88.0057 46.8251 88.2148 46.7131 88.4716 46.6265C88.6657 46.5638 88.8927 46.507 89.1526 46.4562C89.4154 46.4055 89.6991 46.3592 90.0038 46.3174C90.3114 46.2726 90.6325 46.2248 90.967 46.174L90.5817 46.3935C90.5847 46.059 90.51 45.8126 90.3577 45.6543C90.2054 45.496 89.9485 45.4169 89.5871 45.4169C89.3691 45.4169 89.1585 45.4677 88.9555 45.5692C88.7524 45.6707 88.6105 45.8455 88.5299 46.0934L87.5443 45.7842C87.6637 45.3751 87.8907 45.0465 88.2252 44.7986C88.5627 44.5507 89.0167 44.4268 89.5871 44.4268C90.0172 44.4268 90.395 44.497 90.7206 44.6374C91.0491 44.7777 91.2925 45.0077 91.4508 45.3273C91.5374 45.4975 91.5897 45.6722 91.6076 45.8514C91.6255 46.0277 91.6345 46.2203 91.6345 46.4294V49.3996H90.6892V48.3513L90.846 48.5215C90.628 48.871 90.3726 49.1278 90.0799 49.2921C89.7902 49.4534 89.4273 49.534 88.9913 49.534ZM89.2063 48.6738C89.4512 48.6738 89.6603 48.6305 89.8335 48.5439C90.0068 48.4573 90.1441 48.3513 90.2457 48.2258C90.3502 48.1004 90.4204 47.9824 90.4563 47.8719C90.513 47.7345 90.5444 47.5777 90.5503 47.4015C90.5593 47.2223 90.5638 47.0775 90.5638 46.967L90.8953 47.0655C90.5697 47.1163 90.2905 47.1611 90.0575 47.1999C89.8246 47.2387 89.6245 47.2761 89.4572 47.3119C89.29 47.3448 89.1421 47.3821 89.0137 47.4239C88.8883 47.4687 88.7822 47.521 88.6956 47.5807C88.609 47.6405 88.5418 47.7091 88.494 47.7868C88.4492 47.8645 88.4268 47.9555 88.4268 48.0601C88.4268 48.1795 88.4567 48.2856 88.5164 48.3782C88.5761 48.4678 88.6628 48.5394 88.7763 48.5932C88.8927 48.647 89.0361 48.6738 89.2063 48.6738ZM92.8277 49.3996V44.5612H93.782V45.7394L93.6655 45.5871C93.7252 45.4258 93.8044 45.2795 93.9029 45.1481C94.0045 45.0137 94.1254 44.9032 94.2658 44.8166C94.3853 44.7359 94.5167 44.6732 94.66 44.6284C94.8064 44.5806 94.9557 44.5522 95.108 44.5433C95.2604 44.5313 95.4082 44.5373 95.5516 44.5612V45.5692C95.4082 45.5274 95.2424 45.5139 95.0543 45.5289C94.8691 45.5438 94.7018 45.5961 94.5525 45.6857C94.4032 45.7663 94.2807 45.8694 94.1852 45.9948C94.0926 46.1202 94.0239 46.2636 93.9791 46.4249C93.9343 46.5832 93.9119 46.7549 93.9119 46.9401V49.3996H92.8277ZM98.2857 49.534C97.8407 49.534 97.4524 49.422 97.1209 49.198C96.7894 48.974 96.5325 48.6694 96.3503 48.2841C96.1681 47.8988 96.077 47.4642 96.077 46.9804C96.077 46.4906 96.1681 46.0545 96.3503 45.6722C96.5355 45.287 96.7968 44.9838 97.1343 44.7628C97.4718 44.5388 97.869 44.4268 98.326 44.4268C98.786 44.4268 99.1712 44.5388 99.4818 44.7628C99.7954 44.9838 100.033 45.287 100.194 45.6722C100.355 46.0575 100.436 46.4936 100.436 46.9804C100.436 47.4613 100.355 47.8958 100.194 48.2841C100.033 48.6694 99.7925 48.974 99.4729 49.198C99.1533 49.422 98.7576 49.534 98.2857 49.534ZM98.4514 48.5663C98.7411 48.5663 98.9741 48.5006 99.1503 48.3692C99.3295 48.2348 99.4594 48.0481 99.5401 47.8092C99.6237 47.5703 99.6655 47.294 99.6655 46.9804C99.6655 46.6638 99.6237 46.3875 99.5401 46.1516C99.4594 45.9127 99.3325 45.7275 99.1593 45.5961C98.9861 45.4617 98.7621 45.3945 98.4873 45.3945C98.1976 45.3945 97.9586 45.4662 97.7705 45.6095C97.5823 45.7499 97.4434 45.941 97.3538 46.183C97.2642 46.4219 97.2194 46.6877 97.2194 46.9804C97.2194 47.2761 97.2627 47.5449 97.3494 47.7868C97.439 48.0257 97.5749 48.2154 97.757 48.3558C97.9392 48.4961 98.1707 48.5663 98.4514 48.5663ZM99.6655 49.3996V46.0038H99.5311V42.9484H100.62V49.3996H99.6655ZM104.04 49.534C103.556 49.534 103.133 49.425 102.772 49.207C102.41 48.9889 102.13 48.6888 101.93 48.3065C101.732 47.9212 101.634 47.4792 101.634 46.9804C101.634 46.4727 101.735 46.0277 101.939 45.6454C102.142 45.2631 102.424 44.9644 102.785 44.7494C103.147 44.5343 103.565 44.4268 104.04 44.4268C104.527 44.4268 104.951 44.5358 105.312 44.7538C105.673 44.9719 105.954 45.2735 106.154 45.6588C106.354 46.0411 106.454 46.4816 106.454 46.9804C106.454 47.4822 106.353 47.9257 106.15 48.311C105.95 48.6933 105.669 48.9934 105.308 49.2114C104.946 49.4265 104.524 49.534 104.04 49.534ZM104.04 48.5215C104.47 48.5215 104.789 48.3782 104.998 48.0914C105.207 47.8047 105.312 47.4344 105.312 46.9804C105.312 46.5115 105.206 46.1382 104.994 45.8604C104.782 45.5797 104.464 45.4393 104.04 45.4393C103.75 45.4393 103.511 45.505 103.323 45.6364C103.138 45.7648 103 45.9455 102.911 46.1785C102.821 46.4085 102.776 46.6758 102.776 46.9804C102.776 47.4493 102.882 47.8241 103.094 48.1049C103.309 48.3826 103.625 48.5215 104.04 48.5215ZM109.379 49.3996V42.9484H110.458V48.3871H113.308V49.3996H109.379ZM116.656 43.8668H115.836L116.526 42.2092H117.346L116.656 43.8668ZM116.23 49.534C115.746 49.534 115.324 49.425 114.962 49.207C114.601 48.9889 114.32 48.6888 114.12 48.3065C113.923 47.9212 113.825 47.4792 113.825 46.9804C113.825 46.4727 113.926 46.0277 114.129 45.6454C114.332 45.2631 114.615 44.9644 114.976 44.7494C115.337 44.5343 115.755 44.4268 116.23 44.4268C116.717 44.4268 117.141 44.5358 117.503 44.7538C117.864 44.9719 118.145 45.2735 118.345 45.6588C118.545 46.0411 118.645 46.4816 118.645 46.9804C118.645 47.4822 118.543 47.9257 118.34 48.311C118.14 48.6933 117.86 48.9934 117.498 49.2114C117.137 49.4265 116.714 49.534 116.23 49.534ZM116.23 48.5215C116.66 48.5215 116.98 48.3782 117.189 48.0914C117.398 47.8047 117.503 47.4344 117.503 46.9804C117.503 46.5115 117.397 46.1382 117.185 45.8604C116.973 45.5797 116.654 45.4393 116.23 45.4393C115.941 45.4393 115.702 45.505 115.514 45.6364C115.328 45.7648 115.191 45.9455 115.101 46.1785C115.012 46.4085 114.967 46.6758 114.967 46.9804C114.967 47.4493 115.073 47.8241 115.285 48.1049C115.5 48.3826 115.815 48.5215 116.23 48.5215ZM121.984 49.534C121.512 49.534 121.116 49.422 120.797 49.198C120.477 48.974 120.237 48.6694 120.076 48.2841C119.914 47.8958 119.834 47.4613 119.834 46.9804C119.834 46.4936 119.914 46.0575 120.076 45.6722C120.237 45.287 120.473 44.9838 120.783 44.7628C121.097 44.5388 121.484 44.4268 121.944 44.4268C122.401 44.4268 122.796 44.5388 123.131 44.7628C123.468 44.9838 123.73 45.287 123.915 45.6722C124.1 46.0545 124.193 46.4906 124.193 46.9804C124.193 47.4642 124.102 47.8988 123.919 48.2841C123.737 48.6694 123.48 48.974 123.149 49.198C122.817 49.422 122.429 49.534 121.984 49.534ZM119.65 51.55V44.5612H120.604V47.957H120.739V51.55H119.65ZM121.818 48.5663C122.099 48.5663 122.331 48.4961 122.513 48.3558C122.695 48.2154 122.829 48.0257 122.916 47.7868C123.006 47.5449 123.05 47.2761 123.05 46.9804C123.05 46.6877 123.006 46.4219 122.916 46.183C122.826 45.941 122.687 45.7499 122.499 45.6095C122.311 45.4662 122.072 45.3945 121.783 45.3945C121.508 45.3945 121.284 45.4617 121.111 45.5961C120.937 45.7275 120.809 45.9127 120.725 46.1516C120.645 46.3875 120.604 46.6638 120.604 46.9804C120.604 47.294 120.645 47.5703 120.725 47.8092C120.809 48.0481 120.939 48.2348 121.115 48.3692C121.294 48.5006 121.529 48.5663 121.818 48.5663ZM127.407 49.534C126.917 49.534 126.487 49.428 126.117 49.2159C125.746 49.0039 125.457 48.7097 125.247 48.3334C125.041 47.957 124.938 47.524 124.938 47.0342C124.938 46.5055 125.04 46.0471 125.243 45.6588C125.446 45.2675 125.728 44.9644 126.09 44.7494C126.451 44.5343 126.869 44.4268 127.344 44.4268C127.846 44.4268 128.271 44.5448 128.621 44.7807C128.973 45.0137 129.235 45.3437 129.405 45.7708C129.575 46.1979 129.639 46.7011 129.598 47.2806H128.527V46.8863C128.524 46.3607 128.431 45.9769 128.249 45.735C128.067 45.493 127.78 45.3721 127.389 45.3721C126.947 45.3721 126.618 45.5095 126.403 45.7842C126.188 46.056 126.081 46.4547 126.081 46.9804C126.081 47.4702 126.188 47.8495 126.403 48.1183C126.618 48.3871 126.932 48.5215 127.344 48.5215C127.61 48.5215 127.838 48.4633 128.03 48.3468C128.224 48.2273 128.373 48.0556 128.478 47.8316L129.544 48.1542C129.359 48.5902 129.072 48.9292 128.684 49.1711C128.298 49.413 127.873 49.534 127.407 49.534ZM125.74 47.2806V46.4652H129.069V47.2806H125.74ZM130.176 49.3996V49.2518L132.739 45.5065H130.436V44.5612H134.419V44.7135L131.865 48.4543H134.311V49.3996H130.176Z" fill="black"/>
<rect x="26.6602" y="40.6584" width="20.48" height="20.4798" rx="10.2399" fill="#494CD4"/>
<path d="M33.512 52.9983V48.3903H34.2832V52.2751H36.3184V52.9983H33.512ZM38.6491 53.0943C38.3504 53.0943 38.0699 53.042 37.8075 52.9375C37.5472 52.8308 37.3179 52.6751 37.1195 52.4703C36.9232 52.2655 36.7696 52.0148 36.6587 51.7183C36.5478 51.4196 36.4923 51.0783 36.4923 50.6943C36.4923 50.1908 36.5862 49.761 36.7739 49.4047C36.9616 49.0463 37.2187 48.7722 37.5451 48.5823C37.8715 48.3903 38.2395 48.2943 38.6491 48.2943C39.2166 48.2943 39.6656 48.4266 39.9963 48.6911C40.3291 48.9535 40.5542 49.3226 40.6715 49.7983L39.8843 49.9231C39.7968 49.65 39.6539 49.4324 39.4555 49.2703C39.2571 49.106 39.0043 49.0239 38.6971 49.0239C38.3878 49.0196 38.1307 49.0868 37.9259 49.2255C37.7211 49.3642 37.5664 49.5594 37.4619 49.8111C37.3595 50.0628 37.3083 50.3572 37.3083 50.6943C37.3083 51.0314 37.3595 51.3247 37.4619 51.5743C37.5643 51.8218 37.7179 52.0148 37.9227 52.1535C38.1296 52.2922 38.3878 52.3636 38.6971 52.3679C38.9296 52.37 39.1334 52.3284 39.3083 52.2431C39.4832 52.1556 39.6262 52.0244 39.7371 51.8495C39.848 51.6724 39.9227 51.4516 39.9611 51.1871H39.1483V50.5823H40.7803C40.7846 50.6164 40.7878 50.6666 40.7899 50.7327C40.792 50.7988 40.7931 50.8383 40.7931 50.8511C40.7931 51.2863 40.7067 51.6735 40.5339 52.0127C40.3632 52.3498 40.1179 52.6143 39.7979 52.8063C39.4779 52.9983 39.095 53.0943 38.6491 53.0943Z" fill="white"/>
<path d="M16.6272 19.9992V13.548H19.2928C19.3555 13.548 19.4362 13.551 19.5347 13.557C19.6333 13.56 19.7244 13.5689 19.808 13.5838C20.1813 13.6406 20.489 13.7645 20.7309 13.9557C20.9758 14.1468 21.1565 14.3888 21.273 14.6814C21.3924 14.9712 21.4522 15.2937 21.4522 15.6491C21.4522 16.1748 21.3193 16.6273 21.0534 17.0066C20.7876 17.3829 20.3799 17.6158 19.8304 17.7054L19.369 17.7458H17.7069V19.9992H16.6272ZM20.3322 19.9992L19.0598 17.3739L20.1574 17.132L21.5552 19.9992H20.3322ZM17.7069 16.7378H19.248C19.3077 16.7378 19.3749 16.7348 19.4496 16.7288C19.5243 16.7228 19.593 16.7109 19.6557 16.693C19.8349 16.6482 19.9753 16.569 20.0768 16.4555C20.1813 16.342 20.2545 16.2136 20.2963 16.0702C20.3411 15.9269 20.3635 15.7865 20.3635 15.6491C20.3635 15.5117 20.3411 15.3714 20.2963 15.228C20.2545 15.0817 20.1813 14.9517 20.0768 14.8382C19.9753 14.7248 19.8349 14.6456 19.6557 14.6008C19.593 14.5829 19.5243 14.5724 19.4496 14.5694C19.3749 14.5635 19.3077 14.5605 19.248 14.5605H17.7069V16.7378ZM24.706 20.1336C24.2222 20.1336 23.7996 20.0246 23.4382 19.8066C23.0768 19.5885 22.7961 19.2884 22.596 18.9061C22.3988 18.5208 22.3003 18.0788 22.3003 17.58C22.3003 17.0723 22.4018 16.6273 22.6049 16.245C22.808 15.8627 23.0903 15.564 23.4516 15.349C23.813 15.1339 24.2312 15.0264 24.706 15.0264C25.1929 15.0264 25.617 15.1354 25.9784 15.3534C26.3397 15.5715 26.6205 15.8731 26.8206 16.2584C27.0207 16.6407 27.1208 17.0812 27.1208 17.58C27.1208 18.0818 27.0192 18.5253 26.8161 18.9106C26.616 19.2929 26.3353 19.593 25.9739 19.811C25.6125 20.0261 25.1899 20.1336 24.706 20.1336ZM24.706 19.1211C25.1361 19.1211 25.4557 18.9778 25.6648 18.691C25.8738 18.4043 25.9784 18.034 25.9784 17.58C25.9784 17.1111 25.8723 16.7378 25.6603 16.46C25.4482 16.1793 25.1301 16.0389 24.706 16.0389C24.4163 16.0389 24.1774 16.1046 23.9892 16.236C23.8041 16.3644 23.6667 16.5451 23.5771 16.7781C23.4875 17.0081 23.4427 17.2754 23.4427 17.58C23.4427 18.0489 23.5487 18.4237 23.7608 18.7045C23.9758 18.9822 24.2909 19.1211 24.706 19.1211ZM28.2243 19.9992V13.4136H29.304V19.9992H28.2243ZM32.8725 20.1336C32.3827 20.1336 31.9526 20.0276 31.5823 19.8155C31.2119 19.6035 30.9222 19.3093 30.7132 18.933C30.5071 18.5566 30.404 18.1236 30.404 17.6338C30.404 17.1051 30.5056 16.6467 30.7087 16.2584C30.9118 15.8672 31.194 15.564 31.5554 15.349C31.9168 15.1339 32.3349 15.0264 32.8098 15.0264C33.3116 15.0264 33.7372 15.1444 34.0866 15.3803C34.439 15.6133 34.7004 15.9433 34.8706 16.3704C35.0408 16.7975 35.1051 17.3008 35.0632 17.8802H33.9925V17.4859C33.9895 16.9603 33.8969 16.5765 33.7148 16.3346C33.5326 16.0926 33.2459 15.9717 32.8546 15.9717C32.4126 15.9717 32.084 16.1091 31.869 16.3838C31.654 16.6556 31.5464 17.0544 31.5464 17.58C31.5464 18.0698 31.654 18.4491 31.869 18.7179C32.084 18.9867 32.3976 19.1211 32.8098 19.1211C33.0756 19.1211 33.3041 19.0629 33.4952 18.9464C33.6894 18.8269 33.8387 18.6552 33.9432 18.4312L35.0095 18.7538C34.8243 19.1898 34.5376 19.5288 34.1493 19.7707C33.764 20.0126 33.3384 20.1336 32.8725 20.1336ZM31.206 17.8802V17.0648H34.5346V17.8802H31.206ZM37.9579 20.1336C37.3605 20.1336 36.8752 19.9992 36.5019 19.7304C36.1285 19.4616 35.9016 19.0838 35.8209 18.597L36.923 18.4267C36.9797 18.6657 37.1052 18.8538 37.2993 18.9912C37.4935 19.1286 37.7384 19.1973 38.034 19.1973C38.2939 19.1973 38.494 19.1465 38.6344 19.045C38.7777 18.9404 38.8494 18.7986 38.8494 18.6194C38.8494 18.5089 38.8225 18.4208 38.7688 18.355C38.718 18.2864 38.6045 18.2206 38.4283 18.1579C38.2521 18.0952 37.9818 18.0161 37.6174 17.9205C37.2112 17.813 36.8887 17.698 36.6497 17.5755C36.4108 17.4501 36.2391 17.3022 36.1345 17.132C36.03 16.9618 35.9777 16.7557 35.9777 16.5138C35.9777 16.2121 36.0569 15.9493 36.2152 15.7253C36.3735 15.5013 36.5945 15.3296 36.8782 15.2101C37.1619 15.0876 37.4964 15.0264 37.8817 15.0264C38.258 15.0264 38.5911 15.0846 38.8808 15.2011C39.1735 15.3176 39.4094 15.4834 39.5886 15.6984C39.7678 15.9134 39.8783 16.1658 39.9201 16.4555L38.818 16.6526C38.7912 16.4466 38.6971 16.2838 38.5358 16.1643C38.3775 16.0449 38.1655 15.9777 37.8996 15.9627C37.6458 15.9478 37.4412 15.9866 37.2859 16.0792C37.1306 16.1688 37.0529 16.2957 37.0529 16.46C37.0529 16.5526 37.0843 16.6317 37.147 16.6974C37.2097 16.7632 37.3352 16.8289 37.5233 16.8946C37.7145 16.9603 37.9982 17.0409 38.3745 17.1365C38.7598 17.235 39.0674 17.3485 39.2974 17.477C39.5304 17.6024 39.6976 17.7532 39.7992 17.9294C39.9037 18.1057 39.956 18.3192 39.956 18.5701C39.956 19.0569 39.7783 19.4392 39.4228 19.717C39.0704 19.9947 38.5821 20.1336 37.9579 20.1336Z" fill="black"/>
<rect x="16" y="76" width="209.28" height="36.48" rx="5.12" fill="white"/>
<path d="M54.1534 102.378C53.8377 102.378 53.5497 102.322 53.2894 102.211C53.0292 102.1 52.8052 101.941 52.6174 101.734C52.4297 101.525 52.2846 101.274 52.1822 100.979C52.082 100.683 52.0318 100.349 52.0318 99.9776C52.0318 99.4869 52.1193 99.0624 52.2942 98.704C52.4692 98.3456 52.7156 98.0693 53.0334 97.8752C53.3513 97.6789 53.7246 97.5808 54.1534 97.5808C54.6697 97.5808 55.0857 97.7013 55.4014 97.9424C55.7172 98.1813 55.9348 98.5088 56.0542 98.9248L55.4782 99.0432C55.3822 98.7637 55.2244 98.5408 55.0046 98.3744C54.7849 98.208 54.5108 98.1248 54.1822 98.1248C53.8388 98.1226 53.5529 98.1994 53.3246 98.3552C53.0985 98.5088 52.9278 98.7253 52.8126 99.0048C52.6974 99.2842 52.6388 99.6085 52.6366 99.9776C52.6345 100.344 52.691 100.667 52.8062 100.944C52.9214 101.221 53.0932 101.439 53.3214 101.597C53.5518 101.752 53.8388 101.831 54.1822 101.834C54.4788 101.836 54.7284 101.779 54.931 101.664C55.1337 101.549 55.2905 101.382 55.4014 101.165C55.5124 100.947 55.5796 100.686 55.603 100.381H54.6238V99.9104H56.2046C56.211 99.953 56.2142 100.004 56.2142 100.064C56.2164 100.122 56.2174 100.161 56.2174 100.182C56.2174 100.603 56.1385 100.979 55.9806 101.312C55.8249 101.643 55.5934 101.903 55.2862 102.093C54.9812 102.283 54.6036 102.378 54.1534 102.378ZM58.367 102.378C58.0278 102.378 57.7313 102.303 57.4774 102.154C57.2257 102.002 57.0294 101.792 56.8886 101.523C56.7478 101.252 56.6774 100.936 56.6774 100.576C56.6774 100.198 56.7467 99.872 56.8854 99.5968C57.0241 99.3194 57.2171 99.1061 57.4646 98.9568C57.7142 98.8053 58.0065 98.7296 58.3414 98.7296C58.6891 98.7296 58.9846 98.8096 59.2278 98.9696C59.4731 99.1296 59.6566 99.3578 59.7782 99.6544C59.9019 99.9509 59.9553 100.304 59.9382 100.714H59.3622V100.509C59.3558 100.084 59.2694 99.7674 59.103 99.5584C58.9366 99.3472 58.6891 99.2416 58.3606 99.2416C58.0086 99.2416 57.7409 99.3546 57.5574 99.5808C57.3739 99.8069 57.2822 100.131 57.2822 100.554C57.2822 100.961 57.3739 101.277 57.5574 101.501C57.7409 101.725 58.0022 101.837 58.3414 101.837C58.5697 101.837 58.7681 101.784 58.9366 101.68C59.1051 101.575 59.2374 101.425 59.3334 101.229L59.8806 101.418C59.7462 101.723 59.5435 101.959 59.2726 102.128C59.0038 102.294 58.7019 102.378 58.367 102.378ZM57.0902 100.714V100.256H59.6438V100.714H57.0902ZM60.6634 102.282V98.8256H61.1722V99.6608L61.089 99.552C61.1296 99.4453 61.1818 99.3472 61.2458 99.2576C61.312 99.168 61.3856 99.0944 61.4666 99.0368C61.5562 98.9642 61.6576 98.9088 61.7706 98.8704C61.8837 98.832 61.9989 98.8096 62.1162 98.8032C62.2336 98.7946 62.3434 98.8021 62.4458 98.8256V99.36C62.3264 99.328 62.1952 99.3194 62.0522 99.3344C61.9093 99.3493 61.777 99.4016 61.6554 99.4912C61.5445 99.5701 61.4581 99.6661 61.3962 99.7792C61.3365 99.8922 61.2949 100.015 61.2714 100.147C61.248 100.277 61.2362 100.411 61.2362 100.547V102.282H60.6634ZM64.4988 102.378C64.1596 102.378 63.8631 102.303 63.6092 102.154C63.3575 102.002 63.1612 101.792 63.0204 101.523C62.8796 101.252 62.8092 100.936 62.8092 100.576C62.8092 100.198 62.8786 99.872 63.0172 99.5968C63.1559 99.3194 63.349 99.1061 63.5964 98.9568C63.846 98.8053 64.1383 98.7296 64.4732 98.7296C64.821 98.7296 65.1164 98.8096 65.3596 98.9696C65.605 99.1296 65.7884 99.3578 65.91 99.6544C66.0338 99.9509 66.0871 100.304 66.07 100.714H65.494V100.509C65.4876 100.084 65.4012 99.7674 65.2348 99.5584C65.0684 99.3472 64.821 99.2416 64.4924 99.2416C64.1404 99.2416 63.8727 99.3546 63.6892 99.5808C63.5058 99.8069 63.414 100.131 63.414 100.554C63.414 100.961 63.5058 101.277 63.6892 101.501C63.8727 101.725 64.134 101.837 64.4732 101.837C64.7015 101.837 64.8999 101.784 65.0684 101.68C65.237 101.575 65.3692 101.425 65.4652 101.229L66.0124 101.418C65.878 101.723 65.6754 101.959 65.4044 102.128C65.1356 102.294 64.8338 102.378 64.4988 102.378ZM63.222 100.714V100.256H65.7756V100.714H63.222ZM69.1623 102.282V100.55C69.1623 100.386 69.1474 100.228 69.1175 100.077C69.0898 99.9253 69.0397 99.7898 68.9671 99.6704C68.8967 99.5488 68.8007 99.4528 68.6791 99.3824C68.5597 99.312 68.4082 99.2768 68.2247 99.2768C68.0818 99.2768 67.9517 99.3013 67.8343 99.3504C67.7191 99.3973 67.6199 99.4698 67.5367 99.568C67.4535 99.6661 67.3885 99.7898 67.3415 99.9392C67.2967 100.086 67.2743 100.26 67.2743 100.461L66.8999 100.346C66.8999 100.011 66.9597 99.7237 67.0791 99.4848C67.2007 99.2437 67.3703 99.0592 67.5879 98.9312C67.8077 98.801 68.0658 98.736 68.3623 98.736C68.5863 98.736 68.7773 98.7712 68.9351 98.8416C69.093 98.912 69.2242 99.0058 69.3287 99.1232C69.4333 99.2384 69.5154 99.3685 69.5751 99.5136C69.6349 99.6565 69.6765 99.8026 69.6999 99.952C69.7255 100.099 69.7383 100.239 69.7383 100.371V102.282H69.1623ZM66.6983 102.282V98.8256H67.2103V99.7504H67.2743V102.282H66.6983ZM72.5127 102.282C72.3079 102.322 72.1052 102.338 71.9047 102.33C71.7063 102.323 71.5292 102.284 71.3735 102.211C71.2178 102.136 71.0994 102.021 71.0183 101.866C70.95 101.729 70.9127 101.591 70.9063 101.453C70.902 101.312 70.8999 101.153 70.8999 100.976V97.8656H71.4695V100.95C71.4695 101.091 71.4706 101.212 71.4727 101.312C71.477 101.412 71.4994 101.499 71.5399 101.571C71.6167 101.708 71.7383 101.788 71.9047 101.811C72.0732 101.835 72.2759 101.828 72.5127 101.792V102.282ZM70.1991 99.296V98.8256H72.5127V99.296H70.1991ZM74.581 102.378C74.2418 102.378 73.9453 102.303 73.6914 102.154C73.4397 102.002 73.2434 101.792 73.1026 101.523C72.9618 101.252 72.8914 100.936 72.8914 100.576C72.8914 100.198 72.9607 99.872 73.0994 99.5968C73.2381 99.3194 73.4311 99.1061 73.6786 98.9568C73.9282 98.8053 74.2205 98.7296 74.5554 98.7296C74.9031 98.7296 75.1986 98.8096 75.4418 98.9696C75.6871 99.1296 75.8706 99.3578 75.9922 99.6544C76.1159 99.9509 76.1693 100.304 76.1522 100.714H75.5762V100.509C75.5698 100.084 75.4834 99.7674 75.317 99.5584C75.1506 99.3472 74.9031 99.2416 74.5746 99.2416C74.2226 99.2416 73.9549 99.3546 73.7714 99.5808C73.5879 99.8069 73.4962 100.131 73.4962 100.554C73.4962 100.961 73.5879 101.277 73.7714 101.501C73.9549 101.725 74.2162 101.837 74.5554 101.837C74.7837 101.837 74.9821 101.784 75.1506 101.68C75.3191 101.575 75.4514 101.425 75.5474 101.229L76.0946 101.418C75.9602 101.723 75.7575 101.959 75.4866 102.128C75.2178 102.294 74.9159 102.378 74.581 102.378ZM73.3042 100.714V100.256H75.8578V100.714H73.3042Z" fill="#868686"/>
<path d="M52.019 92.2796L54.053 85.8284H55.6344L57.6683 92.2796H56.5573L54.7115 86.4914H54.9534L53.1301 92.2796H52.019ZM53.1525 90.8818V89.8738H56.5394V90.8818H53.1525ZM58.5948 92.2796V85.694H59.6745V92.2796H58.5948ZM66.8539 92.2796V89.3407C66.8539 89.0092 66.7717 88.7509 66.6075 88.5657C66.4432 88.3775 66.2207 88.2834 65.9399 88.2834C65.7667 88.2834 65.6114 88.3238 65.474 88.4044C65.3366 88.4821 65.2276 88.5985 65.147 88.7538C65.0663 88.9062 65.026 89.0883 65.026 89.3004L64.5467 89.0182C64.5437 88.6837 64.6183 88.3895 64.7707 88.1356C64.926 87.8787 65.135 87.6786 65.3979 87.5353C65.6607 87.3919 65.9534 87.3202 66.2759 87.3202C66.8106 87.3202 67.2197 87.4815 67.5035 87.8041C67.7902 88.1237 67.9335 88.5448 67.9335 89.0674V92.2796H66.8539ZM61.0343 92.2796V87.4412H61.9886V88.942H62.123V92.2796H61.0343ZM63.9508 92.2796V89.3542C63.9508 89.0167 63.8687 88.7538 63.7044 88.5657C63.5402 88.3775 63.3162 88.2834 63.0324 88.2834C62.7577 88.2834 62.5366 88.3775 62.3694 88.5657C62.2051 88.7538 62.123 88.9987 62.123 89.3004L61.6391 88.9778C61.6391 88.6642 61.7168 88.382 61.8721 88.1311C62.0274 87.8802 62.2365 87.6831 62.4993 87.5398C62.7651 87.3934 63.0623 87.3202 63.3908 87.3202C63.7522 87.3202 64.0539 87.3979 64.2958 87.5532C64.5407 87.7055 64.7229 87.9146 64.8423 88.1804C64.9648 88.4432 65.026 88.7404 65.026 89.0719V92.2796H63.9508ZM70.4819 92.414C70.1325 92.414 69.8368 92.3483 69.5949 92.2169C69.3529 92.0825 69.1693 91.9048 69.0438 91.6838C68.9214 91.4627 68.8601 91.2193 68.8601 90.9535C68.8601 90.7206 68.899 90.5115 68.9766 90.3263C69.0543 90.1382 69.1737 89.9769 69.335 89.8425C69.4963 89.7051 69.7054 89.5931 69.9622 89.5065C70.1563 89.4438 70.3833 89.387 70.6432 89.3362C70.906 89.2855 71.1897 89.2392 71.4944 89.1974C71.802 89.1526 72.1231 89.1048 72.4576 89.054L72.0723 89.2735C72.0753 88.939 72.0006 88.6926 71.8483 88.5343C71.696 88.376 71.4391 88.2969 71.0777 88.2969C70.8597 88.2969 70.6491 88.3477 70.4461 88.4492C70.243 88.5507 70.1011 88.7255 70.0205 88.9734L69.0349 88.6642C69.1543 88.2551 69.3813 87.9265 69.7158 87.6786C70.0533 87.4307 70.5073 87.3068 71.0777 87.3068C71.5078 87.3068 71.8856 87.377 72.2112 87.5174C72.5397 87.6577 72.7831 87.8877 72.9414 88.2073C73.028 88.3775 73.0803 88.5522 73.0982 88.7314C73.1161 88.9077 73.1251 89.1003 73.1251 89.3094V92.2796H72.1798V91.2313L72.3366 91.4015C72.1186 91.751 71.8632 92.0078 71.5705 92.1721C71.2808 92.3334 70.9179 92.414 70.4819 92.414ZM70.6969 91.5538C70.9418 91.5538 71.1509 91.5105 71.3241 91.4239C71.4974 91.3373 71.6347 91.2313 71.7363 91.1058C71.8408 90.9804 71.911 90.8624 71.9469 90.7519C72.0036 90.6145 72.035 90.4577 72.0409 90.2815C72.0499 90.1023 72.0544 89.9575 72.0544 89.847L72.3859 89.9455C72.0603 89.9963 71.7811 90.0411 71.5481 90.0799C71.3152 90.1187 71.1151 90.1561 70.9478 90.1919C70.7806 90.2248 70.6327 90.2621 70.5043 90.3039C70.3789 90.3487 70.2728 90.401 70.1862 90.4607C70.0996 90.5205 70.0324 90.5891 69.9846 90.6668C69.9398 90.7445 69.9174 90.8355 69.9174 90.9401C69.9174 91.0595 69.9473 91.1656 70.007 91.2582C70.0667 91.3478 70.1534 91.4194 70.2669 91.4732C70.3833 91.527 70.5267 91.5538 70.6969 91.5538ZM74.3183 92.2796V87.4412H75.2726V88.6194L75.1561 88.4671C75.2158 88.3058 75.295 88.1595 75.3935 88.0281C75.4951 87.8937 75.616 87.7832 75.7564 87.6966C75.8759 87.6159 76.0073 87.5532 76.1506 87.5084C76.297 87.4606 76.4463 87.4322 76.5986 87.4233C76.751 87.4113 76.8988 87.4173 77.0422 87.4412V88.4492C76.8988 88.4074 76.733 88.3939 76.5449 88.4089C76.3597 88.4238 76.1924 88.4761 76.0431 88.5657C75.8938 88.6463 75.7713 88.7494 75.6758 88.8748C75.5832 89.0002 75.5145 89.1436 75.4697 89.3049C75.4249 89.4632 75.4025 89.6349 75.4025 89.8201V92.2796H74.3183ZM79.1632 92.414C78.8137 92.414 78.518 92.3483 78.2761 92.2169C78.0342 92.0825 77.8505 91.9048 77.7251 91.6838C77.6026 91.4627 77.5414 91.2193 77.5414 90.9535C77.5414 90.7206 77.5802 90.5115 77.6579 90.3263C77.7355 90.1382 77.855 89.9769 78.0163 89.8425C78.1776 89.7051 78.3866 89.5931 78.6435 89.5065C78.8376 89.4438 79.0646 89.387 79.3244 89.3362C79.5873 89.2855 79.871 89.2392 80.1756 89.1974C80.4833 89.1526 80.8043 89.1048 81.1388 89.054L80.7536 89.2735C80.7565 88.939 80.6819 88.6926 80.5296 88.5343C80.3772 88.376 80.1204 88.2969 79.759 88.2969C79.541 88.2969 79.3304 88.3477 79.1273 88.4492C78.9242 88.5507 78.7824 88.7255 78.7017 88.9734L77.7161 88.6642C77.8356 88.2551 78.0626 87.9265 78.3971 87.6786C78.7346 87.4307 79.1885 87.3068 79.759 87.3068C80.1891 87.3068 80.5669 87.377 80.8924 87.5174C81.221 87.6577 81.4644 87.8877 81.6227 88.2073C81.7093 88.3775 81.7616 88.5522 81.7795 88.7314C81.7974 88.9077 81.8064 89.1003 81.8064 89.3094V92.2796H80.8611V91.2313L81.0179 91.4015C80.7998 91.751 80.5445 92.0078 80.2518 92.1721C79.9621 92.3334 79.5992 92.414 79.1632 92.414ZM79.3782 91.5538C79.6231 91.5538 79.8322 91.5105 80.0054 91.4239C80.1786 91.3373 80.316 91.2313 80.4176 91.1058C80.5221 90.9804 80.5923 90.8624 80.6281 90.7519C80.6849 90.6145 80.7162 90.4577 80.7222 90.2815C80.7312 90.1023 80.7356 89.9575 80.7356 89.847L81.0672 89.9455C80.7416 89.9963 80.4624 90.0411 80.2294 90.0799C79.9964 90.1187 79.7963 90.1561 79.6291 90.1919C79.4618 90.2248 79.314 90.2621 79.1856 90.3039C79.0601 90.3487 78.9541 90.401 78.8675 90.4607C78.7809 90.5205 78.7137 90.5891 78.6659 90.6668C78.6211 90.7445 78.5987 90.8355 78.5987 90.9401C78.5987 91.0595 78.6285 91.1656 78.6883 91.2582C78.748 91.3478 78.8346 91.4194 78.9481 91.4732C79.0646 91.527 79.208 91.5538 79.3782 91.5538ZM86.1104 92.414C85.6176 92.414 85.207 92.2856 84.8784 92.0287C84.5529 91.7719 84.3244 91.4254 84.193 90.9894L85.2592 90.734C85.2921 90.9162 85.3877 91.073 85.546 91.2044C85.7043 91.3358 85.879 91.4015 86.0701 91.4015C86.1956 91.4015 86.3285 91.3687 86.4688 91.303C86.6092 91.2343 86.7138 91.1253 86.7824 90.9759C86.8243 90.8803 86.8482 90.7669 86.8541 90.6354C86.8631 90.501 86.8676 90.3457 86.8676 90.1695V85.8284H87.9607V90.1695C87.9607 90.3696 87.9592 90.5458 87.9562 90.6982C87.9562 90.8475 87.9413 90.9894 87.9114 91.1238C87.8845 91.2552 87.8293 91.3911 87.7456 91.5314C87.5694 91.8361 87.3395 92.0601 87.0557 92.2034C86.772 92.3438 86.4569 92.414 86.1104 92.414ZM89.4254 86.7065V85.7164H90.5051V86.7065H89.4254ZM89.4254 92.2796V87.4412H90.5051V92.2796H89.4254ZM97.6845 92.2796V89.3407C97.6845 89.0092 97.6024 88.7509 97.4381 88.5657C97.2739 88.3775 97.0514 88.2834 96.7706 88.2834C96.5974 88.2834 96.4421 88.3238 96.3047 88.4044C96.1673 88.4821 96.0583 88.5985 95.9776 88.7538C95.897 88.9062 95.8567 89.0883 95.8567 89.3004L95.3773 89.0182C95.3743 88.6837 95.449 88.3895 95.6013 88.1356C95.7566 87.8787 95.9657 87.6786 96.2285 87.5353C96.4914 87.3919 96.784 87.3202 97.1066 87.3202C97.6412 87.3202 98.0504 87.4815 98.3341 87.8041C98.6208 88.1237 98.7642 88.5448 98.7642 89.0674V92.2796H97.6845ZM91.865 92.2796V87.4412H92.8192V88.942H92.9536V92.2796H91.865ZM94.7815 92.2796V89.3542C94.7815 89.0167 94.6994 88.7538 94.5351 88.5657C94.3708 88.3775 94.1468 88.2834 93.8631 88.2834C93.5883 88.2834 93.3673 88.3775 93.2 88.5657C93.0358 88.7538 92.9536 88.9987 92.9536 89.3004L92.4698 88.9778C92.4698 88.6642 92.5475 88.382 92.7028 88.1311C92.8581 87.8802 93.0671 87.6831 93.33 87.5398C93.5958 87.3934 93.893 87.3202 94.2215 87.3202C94.5829 87.3202 94.8845 87.3979 95.1264 87.5532C95.3714 87.7055 95.5535 87.9146 95.673 88.1804C95.7955 88.4432 95.8567 88.7404 95.8567 89.0719V92.2796H94.7815ZM102.607 86.7468H101.787L102.477 85.0892H103.297L102.607 86.7468ZM102.159 92.414C101.669 92.414 101.239 92.308 100.869 92.0959C100.499 91.8839 100.209 91.5897 99.9999 91.2134C99.7938 90.837 99.6908 90.404 99.6908 89.9142C99.6908 89.3855 99.7923 88.9271 99.9954 88.5388C100.199 88.1475 100.481 87.8444 100.842 87.6294C101.204 87.4143 101.622 87.3068 102.097 87.3068C102.598 87.3068 103.024 87.4248 103.373 87.6607C103.726 87.8937 103.987 88.2237 104.157 88.6508C104.328 89.0779 104.392 89.5811 104.35 90.1606H103.279V89.7663C103.276 89.2407 103.184 88.8569 103.002 88.615C102.819 88.373 102.533 88.2521 102.141 88.2521C101.699 88.2521 101.371 88.3895 101.156 88.6642C100.941 88.936 100.833 89.3347 100.833 89.8604C100.833 90.3502 100.941 90.7295 101.156 90.9983C101.371 91.2671 101.684 91.4015 102.097 91.4015C102.362 91.4015 102.591 91.3433 102.782 91.2268C102.976 91.1073 103.125 90.9356 103.23 90.7116L104.296 91.0342C104.111 91.4702 103.824 91.8092 103.436 92.0511C103.051 92.293 102.625 92.414 102.159 92.414ZM100.493 90.1606V89.3452H103.821V90.1606H100.493ZM108.592 92.2796V89.95C108.592 89.7977 108.581 89.6289 108.56 89.4438C108.54 89.2586 108.49 89.0809 108.413 88.9106C108.338 88.7374 108.224 88.5955 108.072 88.485C107.923 88.3745 107.72 88.3193 107.463 88.3193C107.325 88.3193 107.19 88.3417 107.055 88.3865C106.921 88.4313 106.798 88.5089 106.688 88.6194C106.58 88.727 106.494 88.8763 106.428 89.0674C106.362 89.2556 106.329 89.4975 106.329 89.7932L105.689 89.5199C105.689 89.1078 105.768 88.7344 105.926 88.3999C106.087 88.0654 106.323 87.7996 106.634 87.6025C106.945 87.4024 107.327 87.3023 107.781 87.3023C108.139 87.3023 108.435 87.3621 108.668 87.4815C108.901 87.601 109.086 87.7533 109.223 87.9385C109.361 88.1237 109.462 88.3208 109.528 88.5298C109.594 88.7389 109.636 88.9375 109.654 89.1257C109.674 89.3109 109.685 89.4617 109.685 89.5782V92.2796H108.592ZM105.236 92.2796V87.4412H106.199V88.942H106.329V92.2796H105.236ZM113.002 92.414C112.512 92.414 112.082 92.308 111.712 92.0959C111.341 91.8839 111.051 91.5897 110.842 91.2134C110.636 90.837 110.533 90.404 110.533 89.9142C110.533 89.3855 110.635 88.9271 110.838 88.5388C111.041 88.1475 111.323 87.8444 111.685 87.6294C112.046 87.4143 112.464 87.3068 112.939 87.3068C113.441 87.3068 113.866 87.4248 114.216 87.6607C114.568 87.8937 114.83 88.2237 115 88.6508C115.17 89.0779 115.234 89.5811 115.193 90.1606H114.122V89.7663C114.119 89.2407 114.026 88.8569 113.844 88.615C113.662 88.373 113.375 88.2521 112.984 88.2521C112.542 88.2521 112.213 88.3895 111.998 88.6642C111.783 88.936 111.676 89.3347 111.676 89.8604C111.676 90.3502 111.783 90.7295 111.998 90.9983C112.213 91.2671 112.527 91.4015 112.939 91.4015C113.205 91.4015 113.433 91.3433 113.625 91.2268C113.819 91.1073 113.968 90.9356 114.073 90.7116L115.139 91.0342C114.954 91.4702 114.667 91.8092 114.279 92.0511C113.893 92.293 113.468 92.414 113.002 92.414ZM111.335 90.1606V89.3452H114.664V90.1606H111.335ZM115.771 92.2796V92.1318L118.334 88.3865H116.031V87.4412H120.014V87.5935L117.46 91.3343H119.906V92.2796H115.771Z" fill="black"/>
<rect x="25.9531" y="83.6606" width="20.48" height="20.4798" rx="10.2399" fill="#B82756"/>
<path d="M32.128 96.0005L33.5808 91.3925H34.7104L36.1632 96.0005H35.3696L34.0512 91.8661H34.224L32.9216 96.0005H32.128ZM32.9376 95.0021V94.2821H35.3568V95.0021H32.9376ZM37.6762 96.0965C37.3242 96.0965 37.0308 96.0048 36.7962 95.8213C36.5636 95.6378 36.4004 95.3904 36.3066 95.0789L37.0681 94.8965C37.0916 95.0266 37.1599 95.1386 37.273 95.2325C37.386 95.3264 37.5108 95.3733 37.6474 95.3733C37.737 95.3733 37.8319 95.3498 37.9321 95.3029C38.0324 95.2538 38.1071 95.176 38.1561 95.0693C38.186 95.001 38.2031 94.92 38.2074 94.8261C38.2137 94.7301 38.2169 94.6192 38.2169 94.4933V91.3925H38.9977V94.4933C38.9977 94.6362 38.9967 94.7621 38.9945 94.8709C38.9945 94.9776 38.9839 95.0789 38.9626 95.1749C38.9433 95.2688 38.9039 95.3658 38.8442 95.4661C38.7183 95.6837 38.554 95.8437 38.3514 95.9461C38.1487 96.0464 37.9236 96.0965 37.6762 96.0965Z" fill="white"/>
<path d="M209.036 90.8333C209.542 90.8333 209.952 90.4229 209.952 89.9167C209.952 89.4104 209.542 89 209.036 89C208.53 89 208.119 89.4104 208.119 89.9167C208.119 90.4229 208.53 90.8333 209.036 90.8333Z" fill="#374957"/>
<path d="M209.036 95.4168C209.542 95.4168 209.952 95.0064 209.952 94.5001C209.952 93.9938 209.542 93.5834 209.036 93.5834C208.53 93.5834 208.119 93.9938 208.119 94.5001C208.119 95.0064 208.53 95.4168 209.036 95.4168Z" fill="#374957"/>
<path d="M209.036 99.9999C209.542 99.9999 209.952 99.5895 209.952 99.0832C209.952 98.577 209.542 98.1666 209.036 98.1666C208.53 98.1666 208.119 98.577 208.119 99.0832C208.119 99.5895 208.53 99.9999 209.036 99.9999Z" fill="#374957"/>
<rect x="16" y="119" width="209.28" height="36.48" rx="5.12" fill="white"/>
<path d="M52.5566 135.16V128.709H53.6363V134.147H56.4856V135.16H52.5566ZM59.0858 135.299C58.7274 135.299 58.4317 135.239 58.1988 135.12C57.9658 135 57.7807 134.848 57.6433 134.663C57.5059 134.477 57.4043 134.28 57.3386 134.071C57.2729 133.862 57.2296 133.665 57.2087 133.48C57.1908 133.292 57.1818 133.139 57.1818 133.023V130.321H58.2749V132.651C58.2749 132.8 58.2854 132.969 58.3063 133.157C58.3272 133.342 58.375 133.522 58.4497 133.695C58.5273 133.865 58.6408 134.006 58.7901 134.116C58.9425 134.227 59.1471 134.282 59.4039 134.282C59.5413 134.282 59.6772 134.259 59.8116 134.215C59.946 134.17 60.0669 134.094 60.1745 133.986C60.285 133.876 60.3731 133.725 60.4388 133.534C60.5045 133.342 60.5373 133.101 60.5373 132.808L61.178 133.081C61.178 133.493 61.0973 133.867 60.9361 134.201C60.7778 134.536 60.5433 134.803 60.2327 135.003C59.9221 135.2 59.5398 135.299 59.0858 135.299ZM60.6673 135.16V133.659H60.5373V130.321H61.6215V135.16H60.6673ZM65.0082 135.294C64.5094 135.294 64.0838 135.184 63.7314 134.963C63.3789 134.739 63.1087 134.434 62.9205 134.049C62.7353 133.664 62.6412 133.227 62.6383 132.741C62.6412 132.245 62.7383 131.806 62.9295 131.424C63.1236 131.038 63.3984 130.737 63.7538 130.519C64.1092 130.298 64.5318 130.187 65.0216 130.187C65.5712 130.187 66.0356 130.326 66.4149 130.604C66.7972 130.878 67.0466 131.255 67.1631 131.733L66.0879 132.024C66.0042 131.764 65.8653 131.562 65.6712 131.419C65.4771 131.273 65.2561 131.2 65.0082 131.2C64.7274 131.2 64.496 131.267 64.3138 131.401C64.1316 131.533 63.9972 131.715 63.9106 131.948C63.824 132.181 63.7807 132.445 63.7807 132.741C63.7807 133.201 63.8837 133.572 64.0898 133.856C64.2959 134.14 64.602 134.282 65.0082 134.282C65.2949 134.282 65.5204 134.216 65.6847 134.085C65.8519 133.953 65.9773 133.764 66.061 133.516L67.1631 133.762C67.0137 134.255 66.7524 134.634 66.3791 134.9C66.0057 135.163 65.5488 135.294 65.0082 135.294ZM69.0092 129.627H68.1894L68.8838 127.969H69.7036L69.0092 129.627ZM68.046 135.16V130.321H69.1257V135.16H68.046ZM71.8475 135.294C71.4981 135.294 71.2024 135.229 70.9605 135.097C70.7186 134.963 70.5349 134.785 70.4094 134.564C70.287 134.343 70.2258 134.1 70.2258 133.834C70.2258 133.601 70.2646 133.392 70.3422 133.207C70.4199 133.018 70.5394 132.857 70.7006 132.723C70.8619 132.585 71.071 132.473 71.3278 132.387C71.522 132.324 71.749 132.267 72.0088 132.216C72.2716 132.166 72.5554 132.119 72.86 132.078C73.1676 132.033 73.4887 131.985 73.8232 131.934L73.4379 132.154C73.4409 131.819 73.3662 131.573 73.2139 131.415C73.0616 131.256 72.8047 131.177 72.4434 131.177C72.2253 131.177 72.0148 131.228 71.8117 131.329C71.6086 131.431 71.4667 131.606 71.3861 131.854L70.4005 131.544C70.5199 131.135 70.7469 130.807 71.0814 130.559C71.4189 130.311 71.8729 130.187 72.4434 130.187C72.8734 130.187 73.2513 130.257 73.5768 130.398C73.9053 130.538 74.1487 130.768 74.307 131.088C74.3937 131.258 74.4459 131.432 74.4638 131.612C74.4818 131.788 74.4907 131.981 74.4907 132.19V135.16H73.5454V134.112L73.7022 134.282C73.4842 134.631 73.2289 134.888 72.9362 135.052C72.6465 135.214 72.2836 135.294 71.8475 135.294ZM72.0626 134.434C72.3075 134.434 72.5165 134.391 72.6898 134.304C72.863 134.218 73.0004 134.112 73.1019 133.986C73.2065 133.861 73.2766 133.743 73.3125 133.632C73.3692 133.495 73.4006 133.338 73.4066 133.162C73.4155 132.983 73.42 132.838 73.42 132.727L73.7515 132.826C73.426 132.877 73.1467 132.921 72.9138 132.96C72.6808 132.999 72.4807 133.036 72.3134 133.072C72.1462 133.105 71.9983 133.142 71.8699 133.184C71.7445 133.229 71.6385 133.281 71.5518 133.341C71.4652 133.401 71.398 133.469 71.3502 133.547C71.3054 133.625 71.283 133.716 71.283 133.82C71.283 133.94 71.3129 134.046 71.3726 134.138C71.4324 134.228 71.519 134.3 71.6325 134.353C71.749 134.407 71.8923 134.434 72.0626 134.434ZM80.2329 135.294C79.5878 135.294 79.0352 135.154 78.5753 134.873C78.1153 134.589 77.7614 134.195 77.5135 133.69C77.2686 133.186 77.1462 132.6 77.1462 131.934C77.1462 131.268 77.2686 130.683 77.5135 130.178C77.7614 129.673 78.1153 129.281 78.5753 129C79.0352 128.716 79.5878 128.574 80.2329 128.574C80.878 128.574 81.4305 128.716 81.8905 129C82.3534 129.281 82.7073 129.673 82.9523 130.178C83.2001 130.683 83.3241 131.268 83.3241 131.934C83.3241 132.6 83.2001 133.186 82.9523 133.69C82.7073 134.195 82.3534 134.589 81.8905 134.873C81.4305 135.154 80.878 135.294 80.2329 135.294ZM80.2329 134.277C80.666 134.28 81.0259 134.185 81.3126 133.991C81.6023 133.796 81.8188 133.523 81.9622 133.171C82.1085 132.818 82.1817 132.406 82.1817 131.934C82.1817 131.462 82.1085 131.053 81.9622 130.707C81.8188 130.357 81.6023 130.086 81.3126 129.891C81.0259 129.697 80.666 129.597 80.2329 129.591C79.7998 129.588 79.4399 129.684 79.1532 129.878C78.8665 130.072 78.65 130.345 78.5036 130.698C78.3603 131.05 78.2886 131.462 78.2886 131.934C78.2886 132.406 78.3603 132.817 78.5036 133.166C78.647 133.513 78.862 133.783 79.1487 133.977C79.4384 134.171 79.7998 134.271 80.2329 134.277ZM84.2427 135.16V130.321H85.1969V131.5L85.0805 131.347C85.1402 131.186 85.2193 131.04 85.3179 130.908C85.4195 130.774 85.5404 130.663 85.6808 130.577C85.8003 130.496 85.9317 130.433 86.075 130.389C86.2214 130.341 86.3707 130.312 86.523 130.304C86.6753 130.292 86.8232 130.298 86.9665 130.321V131.329C86.8232 131.288 86.6574 131.274 86.4693 131.289C86.2841 131.304 86.1168 131.356 85.9675 131.446C85.8182 131.527 85.6957 131.63 85.6001 131.755C85.5076 131.88 85.4389 132.024 85.3941 132.185C85.3493 132.343 85.3269 132.515 85.3269 132.7V135.16H84.2427ZM90.6842 135.16C90.3646 135.22 90.051 135.245 89.7434 135.236C89.4387 135.23 89.1655 135.175 88.9235 135.07C88.6816 134.963 88.4979 134.794 88.3725 134.564C88.262 134.355 88.2037 134.141 88.1978 133.923C88.1918 133.705 88.1888 133.459 88.1888 133.184V128.977H89.264V133.121C89.264 133.316 89.2655 133.486 89.2685 133.632C89.2745 133.779 89.3058 133.898 89.3626 133.991C89.4701 134.17 89.6418 134.27 89.8778 134.291C90.1137 134.312 90.3825 134.3 90.6842 134.255V135.16ZM87.3107 131.168V130.321H90.6842V131.168H87.3107ZM91.8411 129.587V128.597H92.9207V129.587H91.8411ZM91.8411 135.16V130.321H92.9207V135.16H91.8411ZM93.8416 135.16V135.012L96.4042 131.267H94.1014V130.321H98.0842V130.474L95.5306 134.215H97.9766V135.16H93.8416Z" fill="black"/>
<rect x="25.9531" y="126.659" width="20.48" height="20.4798" rx="10.2399" fill="#FFCE15"/>
</g>
<defs>
<clipPath id="clip0_1600_15750">
<rect width="243" height="132" rx="5" fill="white"/>
</clipPath>
<clipPath id="clip1_1600_15750">
<rect width="11" height="11" fill="white" transform="translate(203.535 45.9993)"/>
</clipPath>
</defs>
</svg>
