<svg width="243" height="132" viewBox="0 0 243 132" fill="none" xmlns="http://www.w3.org/2000/svg">
<g clip-path="url(#clip0_1600_15803)">
<rect width="243" height="132" rx="5" fill="#F4F4F4"/>
<rect x="16" y="33" width="209.28" height="36.48" rx="5.12" fill="white"/>
<path d="M209.036 47.8333C209.542 47.8333 209.952 47.4229 209.952 46.9167C209.952 46.4104 209.542 46 209.036 46C208.53 46 208.119 46.4104 208.119 46.9167C208.119 47.4229 208.53 47.8333 209.036 47.8333Z" fill="#374957"/>
<path d="M209.036 52.4168C209.542 52.4168 209.952 52.0064 209.952 51.5001C209.952 50.9938 209.542 50.5834 209.036 50.5834C208.53 50.5834 208.119 50.9938 208.119 51.5001C208.119 52.0064 208.53 52.4168 209.036 52.4168Z" fill="#374957"/>
<path d="M209.036 56.9999C209.542 56.9999 209.952 56.5895 209.952 56.0832C209.952 55.577 209.542 55.1666 209.036 55.1666C208.53 55.1666 208.119 55.577 208.119 56.0832C208.119 56.5895 208.53 56.9999 209.036 56.9999Z" fill="#374957"/>
<path d="M52.2878 59.2796V54.6716H54.9758V55.2412H52.8574V56.6908H54.5918V57.2604H52.8574V59.2796H52.2878ZM55.6271 55.2124V54.6236H56.1967V55.2124H55.6271ZM55.6271 59.2796V55.8236H56.1967V59.2796H55.6271ZM59.6305 59.2796V57.5484C59.6305 57.3841 59.6156 57.2263 59.5857 57.0748C59.558 56.9233 59.5078 56.7879 59.4353 56.6684C59.3649 56.5468 59.2689 56.4508 59.1473 56.3804C59.0278 56.31 58.8764 56.2748 58.6929 56.2748C58.55 56.2748 58.4198 56.2993 58.3025 56.3484C58.1873 56.3953 58.0881 56.4679 58.0049 56.566C57.9217 56.6641 57.8566 56.7879 57.8097 56.9372C57.7649 57.0844 57.7425 57.2583 57.7425 57.4588L57.3681 57.3436C57.3681 57.0087 57.4278 56.7217 57.5473 56.4828C57.6689 56.2417 57.8385 56.0572 58.0561 55.9292C58.2758 55.7991 58.534 55.734 58.8305 55.734C59.0545 55.734 59.2454 55.7692 59.4033 55.8396C59.5612 55.91 59.6924 56.0039 59.7969 56.1212C59.9014 56.2364 59.9836 56.3665 60.0433 56.5116C60.103 56.6545 60.1446 56.8007 60.1681 56.95C60.1937 57.0972 60.2065 57.2369 60.2065 57.3692V59.2796H59.6305ZM57.1665 59.2796V55.8236H57.6785V56.7484H57.7425V59.2796H57.1665ZM62.0336 59.3756C61.7755 59.3756 61.559 59.3287 61.384 59.2348C61.2112 59.1388 61.08 59.0129 60.9904 58.8572C60.903 58.7015 60.8592 58.5308 60.8592 58.3452C60.8592 58.1639 60.8934 58.0071 60.9616 57.8748C61.032 57.7404 61.1302 57.6295 61.256 57.542C61.3819 57.4524 61.5323 57.382 61.7072 57.3308C61.8715 57.286 62.055 57.2476 62.2576 57.2156C62.4624 57.1815 62.6694 57.1505 62.8784 57.1228C63.0875 57.0951 63.2827 57.0684 63.464 57.0428L63.2592 57.1612C63.2656 56.854 63.2038 56.6268 63.0736 56.4796C62.9456 56.3324 62.7238 56.2588 62.408 56.2588C62.199 56.2588 62.0155 56.3068 61.8576 56.4028C61.7019 56.4967 61.592 56.6503 61.528 56.8636L60.9872 56.7004C61.0704 56.3975 61.2315 56.1596 61.4704 55.9868C61.7094 55.814 62.024 55.7276 62.4144 55.7276C62.728 55.7276 62.9968 55.7841 63.2208 55.8972C63.447 56.0081 63.6091 56.1767 63.7072 56.4028C63.7563 56.5095 63.7872 56.6257 63.8 56.7516C63.8128 56.8753 63.8192 57.0055 63.8192 57.142V59.2796H63.3136V58.4508L63.432 58.5276C63.3019 58.8071 63.1195 59.0183 62.8848 59.1612C62.6523 59.3041 62.3686 59.3756 62.0336 59.3756ZM62.12 58.8988C62.3248 58.8988 62.5019 58.8625 62.6512 58.79C62.8027 58.7153 62.9243 58.6183 63.016 58.4988C63.1078 58.3772 63.1675 58.2449 63.1952 58.102C63.2272 57.9953 63.2443 57.8769 63.2464 57.7468C63.2507 57.6145 63.2528 57.5132 63.2528 57.4428L63.4512 57.5292C63.2656 57.5548 63.0832 57.5793 62.904 57.6028C62.7248 57.6263 62.5552 57.6519 62.3952 57.6796C62.2352 57.7052 62.0912 57.7361 61.9632 57.7724C61.8694 57.8023 61.7808 57.8407 61.6976 57.8876C61.6166 57.9345 61.5504 57.9953 61.4992 58.07C61.4502 58.1425 61.4256 58.2332 61.4256 58.342C61.4256 58.4359 61.4491 58.5255 61.496 58.6108C61.5451 58.6961 61.6198 58.7655 61.72 58.8188C61.8224 58.8721 61.9558 58.8988 62.12 58.8988ZM67.1248 59.2796V57.5484C67.1248 57.3841 67.1099 57.2263 67.08 57.0748C67.0523 56.9233 67.0022 56.7879 66.9296 56.6684C66.8592 56.5468 66.7632 56.4508 66.6416 56.3804C66.5222 56.31 66.3707 56.2748 66.1872 56.2748C66.0443 56.2748 65.9142 56.2993 65.7968 56.3484C65.6816 56.3953 65.5824 56.4679 65.4992 56.566C65.416 56.6641 65.351 56.7879 65.304 56.9372C65.2592 57.0844 65.2368 57.2583 65.2368 57.4588L64.8624 57.3436C64.8624 57.0087 64.9222 56.7217 65.0416 56.4828C65.1632 56.2417 65.3328 56.0572 65.5504 55.9292C65.7702 55.7991 66.0283 55.734 66.3248 55.734C66.5488 55.734 66.7398 55.7692 66.8976 55.8396C67.0555 55.91 67.1867 56.0039 67.2912 56.1212C67.3958 56.2364 67.4779 56.3665 67.5376 56.5116C67.5974 56.6545 67.639 56.8007 67.6624 56.95C67.688 57.0972 67.7008 57.2369 67.7008 57.3692V59.2796H67.1248ZM64.6608 59.2796V55.8236H65.1728V56.7484H65.2368V59.2796H64.6608ZM68.2256 59.2796V59.1772L70.3216 56.342H68.3984V55.8236H71.24V55.9324L69.1472 58.7612H71.1312V59.2796H68.2256ZM72.747 59.3756C72.4889 59.3756 72.2724 59.3287 72.0974 59.2348C71.9246 59.1388 71.7934 59.0129 71.7038 58.8572C71.6164 58.7015 71.5726 58.5308 71.5726 58.3452C71.5726 58.1639 71.6068 58.0071 71.675 57.8748C71.7454 57.7404 71.8436 57.6295 71.9694 57.542C72.0953 57.4524 72.2457 57.382 72.4206 57.3308C72.5849 57.286 72.7684 57.2476 72.971 57.2156C73.1758 57.1815 73.3828 57.1505 73.5918 57.1228C73.8009 57.0951 73.9961 57.0684 74.1774 57.0428L73.9726 57.1612C73.979 56.854 73.9172 56.6268 73.787 56.4796C73.659 56.3324 73.4372 56.2588 73.1214 56.2588C72.9124 56.2588 72.7289 56.3068 72.571 56.4028C72.4153 56.4967 72.3054 56.6503 72.2414 56.8636L71.7006 56.7004C71.7838 56.3975 71.9449 56.1596 72.1838 55.9868C72.4228 55.814 72.7374 55.7276 73.1278 55.7276C73.4414 55.7276 73.7102 55.7841 73.9342 55.8972C74.1604 56.0081 74.3225 56.1767 74.4206 56.4028C74.4697 56.5095 74.5006 56.6257 74.5134 56.7516C74.5262 56.8753 74.5326 57.0055 74.5326 57.142V59.2796H74.027V58.4508L74.1454 58.5276C74.0153 58.8071 73.8329 59.0183 73.5982 59.1612C73.3657 59.3041 73.082 59.3756 72.747 59.3756ZM72.8334 58.8988C73.0382 58.8988 73.2153 58.8625 73.3646 58.79C73.5161 58.7153 73.6377 58.6183 73.7294 58.4988C73.8212 58.3772 73.8809 58.2449 73.9086 58.102C73.9406 57.9953 73.9577 57.8769 73.9598 57.7468C73.9641 57.6145 73.9662 57.5132 73.9662 57.4428L74.1646 57.5292C73.979 57.5548 73.7966 57.5793 73.6174 57.6028C73.4382 57.6263 73.2686 57.6519 73.1086 57.6796C72.9486 57.7052 72.8046 57.7361 72.6766 57.7724C72.5828 57.8023 72.4942 57.8407 72.411 57.8876C72.33 57.9345 72.2638 57.9953 72.2126 58.07C72.1636 58.1425 72.139 58.2332 72.139 58.342C72.139 58.4359 72.1625 58.5255 72.2094 58.6108C72.2585 58.6961 72.3332 58.7655 72.4334 58.8188C72.5358 58.8721 72.6692 58.8988 72.8334 58.8988ZM76.683 59.3724C76.2713 59.3724 75.9332 59.2828 75.6686 59.1036C75.4062 58.9223 75.2452 58.6695 75.1854 58.3452L75.7678 58.2524C75.8148 58.4401 75.9225 58.5895 76.091 58.7004C76.2596 58.8092 76.4686 58.8636 76.7182 58.8636C76.955 58.8636 77.1406 58.8145 77.275 58.7164C77.4094 58.6183 77.4766 58.4849 77.4766 58.3164C77.4766 58.2183 77.4542 58.1393 77.4094 58.0796C77.3646 58.0177 77.2718 57.9601 77.131 57.9068C76.9924 57.8535 76.7822 57.7895 76.5006 57.7148C76.1956 57.6337 75.9556 57.5495 75.7806 57.462C75.6057 57.3745 75.4809 57.2732 75.4062 57.158C75.3316 57.0428 75.2942 56.9031 75.2942 56.7388C75.2942 56.5361 75.3497 56.3591 75.4606 56.2076C75.5716 56.054 75.7262 55.9356 75.9246 55.8524C76.1252 55.7692 76.3577 55.7276 76.6222 55.7276C76.8846 55.7276 77.1193 55.7692 77.3262 55.8524C77.5332 55.9356 77.6996 56.054 77.8254 56.2076C77.9534 56.3591 78.0292 56.5361 78.0526 56.7388L77.4702 56.8444C77.4425 56.6588 77.3529 56.5127 77.2014 56.406C77.0521 56.2993 76.859 56.2428 76.6222 56.2364C76.3982 56.2279 76.2158 56.2673 76.075 56.3548C75.9364 56.4423 75.867 56.5607 75.867 56.71C75.867 56.7932 75.8926 56.8647 75.9438 56.9244C75.9972 56.9841 76.0942 57.0407 76.235 57.094C76.378 57.1473 76.5849 57.2081 76.8558 57.2764C77.1609 57.3532 77.4009 57.4375 77.5758 57.5292C77.7529 57.6188 77.8788 57.7255 77.9534 57.8492C78.0281 57.9708 78.0654 58.1212 78.0654 58.3004C78.0654 58.6332 77.9428 58.8956 77.6974 59.0876C77.4521 59.2775 77.114 59.3724 76.683 59.3724Z" fill="#868686"/>
<path d="M52.5566 49.3996V42.9484H53.6363V48.3871H56.4856V49.3996H52.5566ZM59.0858 49.5385C58.7274 49.5385 58.4317 49.4787 58.1988 49.3593C57.9658 49.2398 57.7807 49.0875 57.6433 48.9023C57.5059 48.7171 57.4043 48.52 57.3386 48.311C57.2729 48.1019 57.2296 47.9048 57.2087 47.7196C57.1908 47.5314 57.1818 47.3791 57.1818 47.2626V44.5612H58.2749V46.8908C58.2749 47.0401 58.2854 47.2089 58.3063 47.397C58.3272 47.5822 58.375 47.7614 58.4497 47.9346C58.5273 48.1049 58.6408 48.2453 58.7901 48.3558C58.9425 48.4663 59.1471 48.5215 59.4039 48.5215C59.5413 48.5215 59.6772 48.4991 59.8116 48.4543C59.946 48.4095 60.0669 48.3334 60.1745 48.2258C60.285 48.1153 60.3731 47.9645 60.4388 47.7734C60.5045 47.5822 60.5373 47.3403 60.5373 47.0476L61.178 47.3209C61.178 47.733 61.0973 48.1064 60.9361 48.4409C60.7778 48.7754 60.5433 49.0427 60.2327 49.2428C59.9221 49.4399 59.5398 49.5385 59.0858 49.5385ZM60.6673 49.3996V47.8988H60.5373V44.5612H61.6215V49.3996H60.6673ZM62.9967 43.8265V42.8364H64.0763V43.8265H62.9967ZM62.9967 49.3996V44.5612H64.0763V49.3996H62.9967ZM67.3133 49.534C66.716 49.534 66.2307 49.3996 65.8573 49.1308C65.484 48.862 65.257 48.4842 65.1764 47.9974L66.2785 47.8271C66.3352 48.0661 66.4607 48.2542 66.6548 48.3916C66.8489 48.529 67.0938 48.5977 67.3895 48.5977C67.6493 48.5977 67.8495 48.5469 67.9898 48.4454C68.1332 48.3408 68.2049 48.199 68.2049 48.0198C68.2049 47.9093 68.178 47.8211 68.1242 47.7554C68.0735 47.6867 67.96 47.621 67.7837 47.5583C67.6075 47.4956 67.3372 47.4165 66.9729 47.3209C66.5667 47.2134 66.2441 47.0984 66.0052 46.9759C65.7663 46.8505 65.5945 46.7026 65.49 46.5324C65.3855 46.3622 65.3332 46.1561 65.3332 45.9142C65.3332 45.6125 65.4123 45.3497 65.5706 45.1257C65.7289 44.9017 65.9499 44.7299 66.2337 44.6105C66.5174 44.488 66.8519 44.4268 67.2372 44.4268C67.6135 44.4268 67.9465 44.485 68.2362 44.6015C68.5289 44.718 68.7649 44.8838 68.9441 45.0988C69.1233 45.3138 69.2338 45.5662 69.2756 45.8559L68.1735 46.053C68.1466 45.847 68.0525 45.6842 67.8913 45.5647C67.733 45.4453 67.5209 45.3781 67.2551 45.3631C67.0012 45.3482 66.7967 45.387 66.6413 45.4796C66.486 45.5692 66.4084 45.6961 66.4084 45.8604C66.4084 45.953 66.4397 46.0321 66.5025 46.0978C66.5652 46.1635 66.6906 46.2293 66.8788 46.295C67.0699 46.3607 67.3537 46.4413 67.73 46.5369C68.1153 46.6354 68.4229 46.7489 68.6529 46.8774C68.8858 47.0028 69.0531 47.1536 69.1546 47.3298C69.2592 47.5061 69.3114 47.7196 69.3114 47.9705C69.3114 48.4573 69.1337 48.8396 68.7783 49.1174C68.4259 49.3951 67.9376 49.534 67.3133 49.534ZM74.8013 49.534C74.3832 49.534 73.9904 49.4608 73.6231 49.3145C73.2587 49.1651 72.9376 48.9471 72.6599 48.6604C72.3851 48.3737 72.1701 48.0227 72.0148 47.6076C71.8594 47.1895 71.7818 46.7116 71.7818 46.174C71.7818 45.4691 71.9132 44.8673 72.176 44.3686C72.4389 43.8668 72.7988 43.483 73.2557 43.2172C73.7127 42.9484 74.2279 42.814 74.8013 42.814C75.5958 42.814 76.2245 42.9992 76.6874 43.3695C77.1533 43.7369 77.4684 44.2536 77.6327 44.9196L76.5306 45.0943C76.4081 44.712 76.208 44.4074 75.9303 44.1804C75.6525 43.9504 75.2986 43.8354 74.8685 43.8354C74.4354 43.8295 74.0756 43.9235 73.7888 44.1177C73.5021 44.3118 73.2856 44.5851 73.1392 44.9375C72.9959 45.2899 72.9242 45.7021 72.9242 46.174C72.9242 46.6459 72.9959 47.0566 73.1392 47.406C73.2826 47.7525 73.4976 48.0227 73.7844 48.2169C74.0741 48.411 74.4354 48.5111 74.8685 48.517C75.1941 48.52 75.4793 48.4618 75.7242 48.3423C75.9691 48.2199 76.1692 48.0362 76.3245 47.7913C76.4798 47.5434 76.5844 47.2343 76.6381 46.8639H75.5002V46.0172H77.785C77.791 46.065 77.7954 46.1352 77.7984 46.2278C77.8014 46.3203 77.8029 46.3756 77.8029 46.3935C77.8029 47.0028 77.682 47.5449 77.44 48.0198C77.2011 48.4917 76.8576 48.862 76.4096 49.1308C75.9616 49.3996 75.4255 49.534 74.8013 49.534ZM80.9293 49.534C80.4394 49.534 80.0094 49.428 79.639 49.2159C79.2687 49.0039 78.979 48.7097 78.7699 48.3334C78.5638 47.957 78.4608 47.524 78.4608 47.0342C78.4608 46.5055 78.5623 46.0471 78.7654 45.6588C78.9685 45.2675 79.2507 44.9644 79.6121 44.7494C79.9735 44.5343 80.3917 44.4268 80.8665 44.4268C81.3683 44.4268 81.7939 44.5448 82.1433 44.7807C82.4958 45.0137 82.7571 45.3437 82.9273 45.7708C83.0976 46.1979 83.1618 46.7011 83.12 47.2806H82.0493V46.8863C82.0463 46.3607 81.9537 45.9769 81.7715 45.735C81.5893 45.493 81.3026 45.3721 80.9113 45.3721C80.4693 45.3721 80.1408 45.5095 79.9257 45.7842C79.7107 46.056 79.6032 46.4547 79.6032 46.9804C79.6032 47.4702 79.7107 47.8495 79.9257 48.1183C80.1408 48.3871 80.4544 48.5215 80.8665 48.5215C81.1323 48.5215 81.3608 48.4633 81.552 48.3468C81.7461 48.2273 81.8954 48.0556 82 47.8316L83.0662 48.1542C82.881 48.5902 82.5943 48.9292 82.2061 49.1711C81.8208 49.413 81.3952 49.534 80.9293 49.534ZM79.2627 47.2806V46.4652H82.5913V47.2806H79.2627ZM84.1465 49.3996V44.5612H85.1007V45.7394L84.9842 45.5871C85.0439 45.4258 85.1231 45.2795 85.2217 45.1481C85.3232 45.0137 85.4442 44.9032 85.5845 44.8166C85.704 44.7359 85.8354 44.6732 85.9788 44.6284C86.1251 44.5806 86.2745 44.5522 86.4268 44.5433C86.5791 44.5313 86.7269 44.5373 86.8703 44.5612V45.5692C86.7269 45.5274 86.5612 45.5139 86.373 45.5289C86.1878 45.5438 86.0206 45.5961 85.8713 45.6857C85.7219 45.7663 85.5995 45.8694 85.5039 45.9948C85.4113 46.1202 85.3426 46.2636 85.2978 46.4249C85.253 46.5832 85.2306 46.7549 85.2306 46.9401V49.3996H84.1465ZM88.9913 49.534C88.6419 49.534 88.3462 49.4683 88.1043 49.3369C87.8623 49.2025 87.6787 49.0248 87.5532 48.8038C87.4308 48.5827 87.3695 48.3393 87.3695 48.0735C87.3695 47.8406 87.4084 47.6315 87.486 47.4463C87.5637 47.2582 87.6831 47.0969 87.8444 46.9625C88.0057 46.8251 88.2148 46.7131 88.4716 46.6265C88.6657 46.5638 88.8927 46.507 89.1526 46.4562C89.4154 46.4055 89.6991 46.3592 90.0038 46.3174C90.3114 46.2726 90.6325 46.2248 90.967 46.174L90.5817 46.3935C90.5847 46.059 90.51 45.8126 90.3577 45.6543C90.2054 45.496 89.9485 45.4169 89.5871 45.4169C89.3691 45.4169 89.1585 45.4677 88.9555 45.5692C88.7524 45.6707 88.6105 45.8455 88.5299 46.0934L87.5443 45.7842C87.6637 45.3751 87.8907 45.0465 88.2252 44.7986C88.5627 44.5507 89.0167 44.4268 89.5871 44.4268C90.0172 44.4268 90.395 44.497 90.7206 44.6374C91.0491 44.7777 91.2925 45.0077 91.4508 45.3273C91.5374 45.4975 91.5897 45.6722 91.6076 45.8514C91.6255 46.0277 91.6345 46.2203 91.6345 46.4294V49.3996H90.6892V48.3513L90.846 48.5215C90.628 48.871 90.3726 49.1278 90.0799 49.2921C89.7902 49.4534 89.4273 49.534 88.9913 49.534ZM89.2063 48.6738C89.4512 48.6738 89.6603 48.6305 89.8335 48.5439C90.0068 48.4573 90.1441 48.3513 90.2457 48.2258C90.3502 48.1004 90.4204 47.9824 90.4563 47.8719C90.513 47.7345 90.5444 47.5777 90.5503 47.4015C90.5593 47.2223 90.5638 47.0775 90.5638 46.967L90.8953 47.0655C90.5697 47.1163 90.2905 47.1611 90.0575 47.1999C89.8246 47.2387 89.6245 47.2761 89.4572 47.3119C89.29 47.3448 89.1421 47.3821 89.0137 47.4239C88.8883 47.4687 88.7822 47.521 88.6956 47.5807C88.609 47.6405 88.5418 47.7091 88.494 47.7868C88.4492 47.8645 88.4268 47.9555 88.4268 48.0601C88.4268 48.1795 88.4567 48.2856 88.5164 48.3782C88.5761 48.4678 88.6628 48.5394 88.7763 48.5932C88.8927 48.647 89.0361 48.6738 89.2063 48.6738ZM92.8277 49.3996V44.5612H93.782V45.7394L93.6655 45.5871C93.7252 45.4258 93.8044 45.2795 93.9029 45.1481C94.0045 45.0137 94.1254 44.9032 94.2658 44.8166C94.3853 44.7359 94.5167 44.6732 94.66 44.6284C94.8064 44.5806 94.9557 44.5522 95.108 44.5433C95.2604 44.5313 95.4082 44.5373 95.5516 44.5612V45.5692C95.4082 45.5274 95.2424 45.5139 95.0543 45.5289C94.8691 45.5438 94.7018 45.5961 94.5525 45.6857C94.4032 45.7663 94.2807 45.8694 94.1852 45.9948C94.0926 46.1202 94.0239 46.2636 93.9791 46.4249C93.9343 46.5832 93.9119 46.7549 93.9119 46.9401V49.3996H92.8277ZM98.2857 49.534C97.8407 49.534 97.4524 49.422 97.1209 49.198C96.7894 48.974 96.5325 48.6694 96.3503 48.2841C96.1681 47.8988 96.077 47.4642 96.077 46.9804C96.077 46.4906 96.1681 46.0545 96.3503 45.6722C96.5355 45.287 96.7968 44.9838 97.1343 44.7628C97.4718 44.5388 97.869 44.4268 98.326 44.4268C98.786 44.4268 99.1712 44.5388 99.4818 44.7628C99.7954 44.9838 100.033 45.287 100.194 45.6722C100.355 46.0575 100.436 46.4936 100.436 46.9804C100.436 47.4613 100.355 47.8958 100.194 48.2841C100.033 48.6694 99.7925 48.974 99.4729 49.198C99.1533 49.422 98.7576 49.534 98.2857 49.534ZM98.4514 48.5663C98.7411 48.5663 98.9741 48.5006 99.1503 48.3692C99.3295 48.2348 99.4594 48.0481 99.5401 47.8092C99.6237 47.5703 99.6655 47.294 99.6655 46.9804C99.6655 46.6638 99.6237 46.3875 99.5401 46.1516C99.4594 45.9127 99.3325 45.7275 99.1593 45.5961C98.9861 45.4617 98.7621 45.3945 98.4873 45.3945C98.1976 45.3945 97.9586 45.4662 97.7705 45.6095C97.5823 45.7499 97.4434 45.941 97.3538 46.183C97.2642 46.4219 97.2194 46.6877 97.2194 46.9804C97.2194 47.2761 97.2627 47.5449 97.3494 47.7868C97.439 48.0257 97.5749 48.2154 97.757 48.3558C97.9392 48.4961 98.1707 48.5663 98.4514 48.5663ZM99.6655 49.3996V46.0038H99.5311V42.9484H100.62V49.3996H99.6655ZM104.04 49.534C103.556 49.534 103.133 49.425 102.772 49.207C102.41 48.9889 102.13 48.6888 101.93 48.3065C101.732 47.9212 101.634 47.4792 101.634 46.9804C101.634 46.4727 101.735 46.0277 101.939 45.6454C102.142 45.2631 102.424 44.9644 102.785 44.7494C103.147 44.5343 103.565 44.4268 104.04 44.4268C104.527 44.4268 104.951 44.5358 105.312 44.7538C105.673 44.9719 105.954 45.2735 106.154 45.6588C106.354 46.0411 106.454 46.4816 106.454 46.9804C106.454 47.4822 106.353 47.9257 106.15 48.311C105.95 48.6933 105.669 48.9934 105.308 49.2114C104.946 49.4265 104.524 49.534 104.04 49.534ZM104.04 48.5215C104.47 48.5215 104.789 48.3782 104.998 48.0914C105.207 47.8047 105.312 47.4344 105.312 46.9804C105.312 46.5115 105.206 46.1382 104.994 45.8604C104.782 45.5797 104.464 45.4393 104.04 45.4393C103.75 45.4393 103.511 45.505 103.323 45.6364C103.138 45.7648 103 45.9455 102.911 46.1785C102.821 46.4085 102.776 46.6758 102.776 46.9804C102.776 47.4493 102.882 47.8241 103.094 48.1049C103.309 48.3826 103.625 48.5215 104.04 48.5215ZM109.379 49.3996V42.9484H110.458V48.3871H113.308V49.3996H109.379ZM116.656 43.8668H115.836L116.526 42.2092H117.346L116.656 43.8668ZM116.23 49.534C115.746 49.534 115.324 49.425 114.962 49.207C114.601 48.9889 114.32 48.6888 114.12 48.3065C113.923 47.9212 113.825 47.4792 113.825 46.9804C113.825 46.4727 113.926 46.0277 114.129 45.6454C114.332 45.2631 114.615 44.9644 114.976 44.7494C115.337 44.5343 115.755 44.4268 116.23 44.4268C116.717 44.4268 117.141 44.5358 117.503 44.7538C117.864 44.9719 118.145 45.2735 118.345 45.6588C118.545 46.0411 118.645 46.4816 118.645 46.9804C118.645 47.4822 118.543 47.9257 118.34 48.311C118.14 48.6933 117.86 48.9934 117.498 49.2114C117.137 49.4265 116.714 49.534 116.23 49.534ZM116.23 48.5215C116.66 48.5215 116.98 48.3782 117.189 48.0914C117.398 47.8047 117.503 47.4344 117.503 46.9804C117.503 46.5115 117.397 46.1382 117.185 45.8604C116.973 45.5797 116.654 45.4393 116.23 45.4393C115.941 45.4393 115.702 45.505 115.514 45.6364C115.328 45.7648 115.191 45.9455 115.101 46.1785C115.012 46.4085 114.967 46.6758 114.967 46.9804C114.967 47.4493 115.073 47.8241 115.285 48.1049C115.5 48.3826 115.815 48.5215 116.23 48.5215ZM121.984 49.534C121.512 49.534 121.116 49.422 120.797 49.198C120.477 48.974 120.237 48.6694 120.076 48.2841C119.914 47.8958 119.834 47.4613 119.834 46.9804C119.834 46.4936 119.914 46.0575 120.076 45.6722C120.237 45.287 120.473 44.9838 120.783 44.7628C121.097 44.5388 121.484 44.4268 121.944 44.4268C122.401 44.4268 122.796 44.5388 123.131 44.7628C123.468 44.9838 123.73 45.287 123.915 45.6722C124.1 46.0545 124.193 46.4906 124.193 46.9804C124.193 47.4642 124.102 47.8988 123.919 48.2841C123.737 48.6694 123.48 48.974 123.149 49.198C122.817 49.422 122.429 49.534 121.984 49.534ZM119.65 51.55V44.5612H120.604V47.957H120.739V51.55H119.65ZM121.818 48.5663C122.099 48.5663 122.331 48.4961 122.513 48.3558C122.695 48.2154 122.829 48.0257 122.916 47.7868C123.006 47.5449 123.05 47.2761 123.05 46.9804C123.05 46.6877 123.006 46.4219 122.916 46.183C122.826 45.941 122.687 45.7499 122.499 45.6095C122.311 45.4662 122.072 45.3945 121.783 45.3945C121.508 45.3945 121.284 45.4617 121.111 45.5961C120.937 45.7275 120.809 45.9127 120.725 46.1516C120.645 46.3875 120.604 46.6638 120.604 46.9804C120.604 47.294 120.645 47.5703 120.725 47.8092C120.809 48.0481 120.939 48.2348 121.115 48.3692C121.294 48.5006 121.529 48.5663 121.818 48.5663ZM127.407 49.534C126.917 49.534 126.487 49.428 126.117 49.2159C125.746 49.0039 125.457 48.7097 125.247 48.3334C125.041 47.957 124.938 47.524 124.938 47.0342C124.938 46.5055 125.04 46.0471 125.243 45.6588C125.446 45.2675 125.728 44.9644 126.09 44.7494C126.451 44.5343 126.869 44.4268 127.344 44.4268C127.846 44.4268 128.271 44.5448 128.621 44.7807C128.973 45.0137 129.235 45.3437 129.405 45.7708C129.575 46.1979 129.639 46.7011 129.598 47.2806H128.527V46.8863C128.524 46.3607 128.431 45.9769 128.249 45.735C128.067 45.493 127.78 45.3721 127.389 45.3721C126.947 45.3721 126.618 45.5095 126.403 45.7842C126.188 46.056 126.081 46.4547 126.081 46.9804C126.081 47.4702 126.188 47.8495 126.403 48.1183C126.618 48.3871 126.932 48.5215 127.344 48.5215C127.61 48.5215 127.838 48.4633 128.03 48.3468C128.224 48.2273 128.373 48.0556 128.478 47.8316L129.544 48.1542C129.359 48.5902 129.072 48.9292 128.684 49.1711C128.298 49.413 127.873 49.534 127.407 49.534ZM125.74 47.2806V46.4652H129.069V47.2806H125.74ZM130.176 49.3996V49.2518L132.739 45.5065H130.436V44.5612H134.419V44.7135L131.865 48.4543H134.311V49.3996H130.176Z" fill="black"/>
<rect x="26.6602" y="40.6584" width="20.48" height="20.4798" rx="10.2399" fill="#34977D"/>
<g clip-path="url(#clip1_1600_15803)">
<path d="M37 50.9983C37.5439 50.9983 38.0756 50.837 38.5278 50.5348C38.9801 50.2327 39.3325 49.8032 39.5407 49.3007C39.7488 48.7982 39.8033 48.2452 39.6972 47.7118C39.5911 47.1783 39.3291 46.6883 38.9445 46.3037C38.5599 45.9192 38.0699 45.6572 37.5365 45.5511C37.0031 45.445 36.4501 45.4995 35.9476 45.7076C35.4451 45.9158 35.0156 46.2682 34.7135 46.7205C34.4113 47.1727 34.25 47.7044 34.25 48.2483C34.2507 48.9774 34.5407 49.6765 35.0563 50.192C35.5718 50.7076 36.2709 50.9976 37 50.9983ZM37 46.415C37.3626 46.415 37.7171 46.5225 38.0185 46.7239C38.32 46.9254 38.555 47.2117 38.6938 47.5467C38.8325 47.8817 38.8688 48.2503 38.7981 48.606C38.7274 48.9616 38.5528 49.2883 38.2964 49.5447C38.04 49.8011 37.7133 49.9757 37.3577 50.0464C37.002 50.1171 36.6334 50.0808 36.2984 49.9421C35.9634 49.8033 35.6771 49.5683 35.4756 49.2668C35.2742 48.9653 35.1667 48.6109 35.1667 48.2483C35.1667 47.7621 35.3598 47.2957 35.7036 46.9519C36.0475 46.6081 36.5138 46.415 37 46.415Z" fill="white"/>
<path d="M37 51.9153C35.9064 51.9165 34.8578 52.3515 34.0845 53.1248C33.3112 53.8981 32.8762 54.9466 32.875 56.0403C32.875 56.1618 32.9233 56.2784 33.0092 56.3644C33.0952 56.4503 33.2118 56.4986 33.3333 56.4986C33.4549 56.4986 33.5715 56.4503 33.6574 56.3644C33.7434 56.2784 33.7917 56.1618 33.7917 56.0403C33.7917 55.1894 34.1297 54.3733 34.7314 53.7716C35.333 53.17 36.1491 52.8319 37 52.8319C37.8509 52.8319 38.667 53.17 39.2686 53.7716C39.8703 54.3733 40.2083 55.1894 40.2083 56.0403C40.2083 56.1618 40.2566 56.2784 40.3426 56.3644C40.4285 56.4503 40.5451 56.4986 40.6667 56.4986C40.7882 56.4986 40.9048 56.4503 40.9908 56.3644C41.0767 56.2784 41.125 56.1618 41.125 56.0403C41.1238 54.9466 40.6888 53.8981 39.9155 53.1248C39.1422 52.3515 38.0936 51.9165 37 51.9153Z" fill="white"/>
</g>
<path d="M16.6272 19.9992V13.548H20.7936V14.5605H17.7069V16.1509H20.256V17.1634H17.7069V18.9867H20.7936V19.9992H16.6272ZM27.7059 19.9992V17.0603C27.7059 16.7288 27.6238 16.4705 27.4595 16.2853C27.2952 16.0971 27.0727 16.003 26.792 16.003C26.6187 16.003 26.4634 16.0434 26.3261 16.124C26.1887 16.2017 26.0797 16.3181 25.999 16.4734C25.9184 16.6258 25.8781 16.808 25.8781 17.02L25.3987 16.7378C25.3957 16.4033 25.4704 16.1091 25.6227 15.8552C25.778 15.5984 25.9871 15.3982 26.2499 15.2549C26.5127 15.1115 26.8054 15.0398 27.128 15.0398C27.6626 15.0398 28.0718 15.2011 28.3555 15.5237C28.6422 15.8433 28.7856 16.2644 28.7856 16.787V19.9992H27.7059ZM21.8864 19.9992V15.1608H22.8406V16.6616H22.975V19.9992H21.8864ZM24.8028 19.9992V17.0738C24.8028 16.7363 24.7207 16.4734 24.5564 16.2853C24.3922 16.0971 24.1682 16.003 23.8845 16.003C23.6097 16.003 23.3887 16.0971 23.2214 16.2853C23.0571 16.4734 22.975 16.7184 22.975 17.02L22.4912 16.6974C22.4912 16.3838 22.5688 16.1016 22.7241 15.8507C22.8794 15.5998 23.0885 15.4027 23.3513 15.2594C23.6171 15.113 23.9143 15.0398 24.2428 15.0398C24.6042 15.0398 24.9059 15.1175 25.1478 15.2728C25.3927 15.4251 25.5749 15.6342 25.6944 15.9C25.8168 16.1628 25.8781 16.46 25.8781 16.7915V19.9992H24.8028ZM32.3061 20.1336C31.8342 20.1336 31.4385 20.0216 31.1189 19.7976C30.7993 19.5736 30.5589 19.269 30.3976 18.8837C30.2363 18.4954 30.1557 18.0609 30.1557 17.58C30.1557 17.0932 30.2363 16.6571 30.3976 16.2718C30.5589 15.8866 30.7948 15.5834 31.1054 15.3624C31.419 15.1384 31.8058 15.0264 32.2658 15.0264C32.7227 15.0264 33.1185 15.1384 33.453 15.3624C33.7905 15.5834 34.0518 15.8866 34.237 16.2718C34.4221 16.6541 34.5147 17.0902 34.5147 17.58C34.5147 18.0638 34.4236 18.4984 34.2414 18.8837C34.0593 19.269 33.8024 19.5736 33.4709 19.7976C33.1394 20.0216 32.7511 20.1336 32.3061 20.1336ZM29.972 22.1496V15.1608H30.9262V18.5566H31.0606V22.1496H29.972ZM32.1403 19.1659C32.4211 19.1659 32.6525 19.0957 32.8347 18.9554C33.0169 18.815 33.1513 18.6253 33.2379 18.3864C33.3275 18.1445 33.3723 17.8757 33.3723 17.58C33.3723 17.2873 33.3275 17.0215 33.2379 16.7826C33.1483 16.5406 33.0094 16.3495 32.8213 16.2091C32.6331 16.0658 32.3942 15.9941 32.1045 15.9941C31.8297 15.9941 31.6057 16.0613 31.4325 16.1957C31.2593 16.3271 31.1308 16.5123 31.0472 16.7512C30.9666 16.9872 30.9262 17.2634 30.9262 17.58C30.9262 17.8936 30.9666 18.1699 31.0472 18.4088C31.1308 18.6477 31.2607 18.8344 31.437 18.9688C31.6162 19.1002 31.8506 19.1659 32.1403 19.1659ZM35.6187 19.9992V13.4136H36.6984V19.9992H35.6187ZM40.2669 20.1336C39.7771 20.1336 39.347 20.0276 38.9767 19.8155C38.6063 19.6035 38.3166 19.3093 38.1075 18.933C37.9015 18.5566 37.7984 18.1236 37.7984 17.6338C37.7984 17.1051 37.9 16.6467 38.1031 16.2584C38.3062 15.8672 38.5884 15.564 38.9498 15.349C39.3112 15.1339 39.7293 15.0264 40.2042 15.0264C40.7059 15.0264 41.1315 15.1444 41.481 15.3803C41.8334 15.6133 42.0947 15.9433 42.265 16.3704C42.4352 16.7975 42.4994 17.3008 42.4576 17.8802H41.3869V17.4859C41.3839 16.9603 41.2913 16.5765 41.1091 16.3346C40.927 16.0926 40.6402 15.9717 40.249 15.9717C39.807 15.9717 39.4784 16.1091 39.2634 16.3838C39.0483 16.6556 38.9408 17.0544 38.9408 17.58C38.9408 18.0698 39.0483 18.4491 39.2634 18.7179C39.4784 18.9867 39.792 19.1211 40.2042 19.1211C40.47 19.1211 40.6985 19.0629 40.8896 18.9464C41.0838 18.8269 41.2331 18.6552 41.3376 18.4312L42.4039 18.7538C42.2187 19.1898 41.932 19.5288 41.5437 19.7707C41.1584 20.0126 40.7328 20.1336 40.2669 20.1336ZM38.6003 17.8802V17.0648H41.929V17.8802H38.6003ZM44.7496 20.1336C44.4001 20.1336 44.1044 20.0679 43.8625 19.9365C43.6206 19.8021 43.4369 19.6244 43.3115 19.4034C43.189 19.1824 43.1278 18.9389 43.1278 18.6731C43.1278 18.4402 43.1666 18.2311 43.2443 18.0459C43.3219 17.8578 43.4414 17.6965 43.6027 17.5621C43.764 17.4247 43.973 17.3127 44.2299 17.2261C44.424 17.1634 44.651 17.1066 44.9108 17.0558C45.1737 17.0051 45.4574 16.9588 45.762 16.917C46.0697 16.8722 46.3907 16.8244 46.7252 16.7736L46.34 16.9931C46.3429 16.6586 46.2683 16.4122 46.116 16.2539C45.9636 16.0956 45.7068 16.0165 45.3454 16.0165C45.1274 16.0165 44.9168 16.0673 44.7137 16.1688C44.5106 16.2704 44.3688 16.4451 44.2881 16.693L43.3025 16.3838C43.422 15.9747 43.649 15.6461 43.9835 15.3982C44.321 15.1504 44.7749 15.0264 45.3454 15.0264C45.7755 15.0264 46.1533 15.0966 46.4788 15.237C46.8074 15.3773 47.0508 15.6073 47.2091 15.9269C47.2957 16.0971 47.348 16.2718 47.3659 16.451C47.3838 16.6273 47.3928 16.8199 47.3928 17.029V19.9992H46.4475V18.9509L46.6043 19.1211C46.3863 19.4706 46.1309 19.7274 45.8382 19.8917C45.5485 20.053 45.1856 20.1336 44.7496 20.1336ZM44.9646 19.2734C45.2095 19.2734 45.4186 19.2301 45.5918 19.1435C45.765 19.0569 45.9024 18.9509 46.004 18.8254C46.1085 18.7 46.1787 18.582 46.2145 18.4715C46.2713 18.3341 46.3026 18.1773 46.3086 18.0011C46.3176 17.8219 46.322 17.6771 46.322 17.5666L46.6536 17.6651C46.328 17.7159 46.0488 17.7607 45.8158 17.7995C45.5828 17.8384 45.3827 17.8757 45.2155 17.9115C45.0482 17.9444 44.9004 17.9817 44.772 18.0235C44.6465 18.0683 44.5405 18.1206 44.4539 18.1803C44.3673 18.2401 44.3001 18.3088 44.2523 18.3864C44.2075 18.4641 44.1851 18.5552 44.1851 18.6597C44.1851 18.7792 44.2149 18.8852 44.2747 18.9778C44.3344 19.0674 44.421 19.139 44.5345 19.1928C44.651 19.2466 44.7944 19.2734 44.9646 19.2734ZM50.5258 20.1336C50.0808 20.1336 49.6925 20.0216 49.361 19.7976C49.0295 19.5736 48.7726 19.269 48.5905 18.8837C48.4083 18.4984 48.3172 18.0638 48.3172 17.58C48.3172 17.0902 48.4083 16.6541 48.5905 16.2718C48.7756 15.8866 49.037 15.5834 49.3745 15.3624C49.712 15.1384 50.1092 15.0264 50.5661 15.0264C51.0261 15.0264 51.4114 15.1384 51.722 15.3624C52.0356 15.5834 52.273 15.8866 52.4343 16.2718C52.5956 16.6571 52.6762 17.0932 52.6762 17.58C52.6762 18.0609 52.5956 18.4954 52.4343 18.8837C52.273 19.269 52.0326 19.5736 51.713 19.7976C51.3934 20.0216 50.9977 20.1336 50.5258 20.1336ZM50.6916 19.1659C50.9813 19.1659 51.2142 19.1002 51.3905 18.9688C51.5697 18.8344 51.6996 18.6477 51.7802 18.4088C51.8638 18.1699 51.9057 17.8936 51.9057 17.58C51.9057 17.2634 51.8638 16.9872 51.7802 16.7512C51.6996 16.5123 51.5726 16.3271 51.3994 16.1957C51.2262 16.0613 51.0022 15.9941 50.7274 15.9941C50.4377 15.9941 50.1988 16.0658 50.0106 16.2091C49.8225 16.3495 49.6836 16.5406 49.594 16.7826C49.5044 17.0215 49.4596 17.2873 49.4596 17.58C49.4596 17.8757 49.5029 18.1445 49.5895 18.3864C49.6791 18.6253 49.815 18.815 49.9972 18.9554C50.1794 19.0957 50.4108 19.1659 50.6916 19.1659ZM51.9057 19.9992V16.6034H51.7713V13.548H52.8599V19.9992H51.9057ZM56.2798 20.1336C55.796 20.1336 55.3734 20.0246 55.012 19.8066C54.6506 19.5885 54.3698 19.2884 54.1697 18.9061C53.9726 18.5208 53.8741 18.0788 53.8741 17.58C53.8741 17.0723 53.9756 16.6273 54.1787 16.245C54.3818 15.8627 54.664 15.564 55.0254 15.349C55.3868 15.1339 55.8049 15.0264 56.2798 15.0264C56.7666 15.0264 57.1908 15.1354 57.5521 15.3534C57.9135 15.5715 58.1943 15.8731 58.3944 16.2584C58.5945 16.6407 58.6945 17.0812 58.6945 17.58C58.6945 18.0818 58.593 18.5253 58.3899 18.9106C58.1898 19.2929 57.909 19.593 57.5477 19.811C57.1863 20.0261 56.7637 20.1336 56.2798 20.1336ZM56.2798 19.1211C56.7099 19.1211 57.0295 18.9778 57.2385 18.691C57.4476 18.4043 57.5521 18.034 57.5521 17.58C57.5521 17.1111 57.4461 16.7378 57.2341 16.46C57.022 16.1793 56.7039 16.0389 56.2798 16.0389C55.9901 16.0389 55.7512 16.1046 55.563 16.236C55.3778 16.3644 55.2405 16.5451 55.1509 16.7781C55.0613 17.0081 55.0165 17.2754 55.0165 17.58C55.0165 18.0489 55.1225 18.4237 55.3345 18.7045C55.5496 18.9822 55.8647 19.1211 56.2798 19.1211ZM61.4629 20.1336C60.8656 20.1336 60.3802 19.9992 60.0069 19.7304C59.6336 19.4616 59.4066 19.0838 59.3259 18.597L60.428 18.4267C60.4848 18.6657 60.6102 18.8538 60.8043 18.9912C60.9985 19.1286 61.2434 19.1973 61.5391 19.1973C61.7989 19.1973 61.999 19.1465 62.1394 19.045C62.2827 18.9404 62.3544 18.7986 62.3544 18.6194C62.3544 18.5089 62.3275 18.4208 62.2738 18.355C62.223 18.2864 62.1095 18.2206 61.9333 18.1579C61.7571 18.0952 61.4868 18.0161 61.1224 17.9205C60.7162 17.813 60.3937 17.698 60.1547 17.5755C59.9158 17.4501 59.7441 17.3022 59.6395 17.132C59.535 16.9618 59.4827 16.7557 59.4827 16.5138C59.4827 16.2121 59.5619 15.9493 59.7202 15.7253C59.8785 15.5013 60.0995 15.3296 60.3832 15.2101C60.667 15.0876 61.0015 15.0264 61.3867 15.0264C61.7631 15.0264 62.0961 15.0846 62.3858 15.2011C62.6785 15.3176 62.9144 15.4834 63.0936 15.6984C63.2728 15.9134 63.3833 16.1658 63.4251 16.4555L62.3231 16.6526C62.2962 16.4466 62.2021 16.2838 62.0408 16.1643C61.8825 16.0449 61.6705 15.9777 61.4047 15.9627C61.1508 15.9478 60.9462 15.9866 60.7909 16.0792C60.6356 16.1688 60.5579 16.2957 60.5579 16.46C60.5579 16.5526 60.5893 16.6317 60.652 16.6974C60.7147 16.7632 60.8402 16.8289 61.0283 16.8946C61.2195 16.9603 61.5032 17.0409 61.8795 17.1365C62.2648 17.235 62.5724 17.3485 62.8024 17.477C63.0354 17.6024 63.2026 17.7532 63.3042 17.9294C63.4087 18.1057 63.461 18.3192 63.461 18.5701C63.461 19.0569 63.2833 19.4392 62.9279 19.717C62.5754 19.9947 62.0871 20.1336 61.4629 20.1336Z" fill="black"/>
<rect x="16" y="76" width="209.28" height="36.48" rx="5.12" fill="white"/>
<path d="M52.2878 102.282V97.6736H52.8062L54.547 101.344L56.2782 97.6736H56.803V102.278H56.2622V98.9248L54.6974 102.282H54.3934L52.8286 98.9248V102.282H52.2878ZM58.6955 102.378C58.4374 102.378 58.2209 102.331 58.0459 102.237C57.8731 102.141 57.7419 102.015 57.6523 101.859C57.5649 101.703 57.5211 101.533 57.5211 101.347C57.5211 101.166 57.5553 101.009 57.6235 100.877C57.6939 100.742 57.7921 100.631 57.9179 100.544C58.0438 100.454 58.1942 100.384 58.3691 100.333C58.5334 100.288 58.7169 100.25 58.9195 100.218C59.1243 100.183 59.3313 100.152 59.5403 100.125C59.7494 100.097 59.9446 100.07 60.1259 100.045L59.9211 100.163C59.9275 99.856 59.8657 99.6288 59.7355 99.4816C59.6075 99.3344 59.3857 99.2608 59.0699 99.2608C58.8609 99.2608 58.6774 99.3088 58.5195 99.4048C58.3638 99.4986 58.2539 99.6522 58.1899 99.8656L57.6491 99.7024C57.7323 99.3994 57.8934 99.1616 58.1323 98.9888C58.3713 98.816 58.6859 98.7296 59.0763 98.7296C59.3899 98.7296 59.6587 98.7861 59.8827 98.8992C60.1089 99.0101 60.271 99.1786 60.3691 99.4048C60.4182 99.5114 60.4491 99.6277 60.4619 99.7536C60.4747 99.8773 60.4811 100.007 60.4811 100.144V102.282H59.9755V101.453L60.0939 101.53C59.9638 101.809 59.7814 102.02 59.5467 102.163C59.3142 102.306 59.0305 102.378 58.6955 102.378ZM58.7819 101.901C58.9867 101.901 59.1638 101.864 59.3131 101.792C59.4646 101.717 59.5862 101.62 59.6779 101.501C59.7697 101.379 59.8294 101.247 59.8571 101.104C59.8891 100.997 59.9062 100.879 59.9083 100.749C59.9126 100.616 59.9147 100.515 59.9147 100.445L60.1131 100.531C59.9275 100.557 59.7451 100.581 59.5659 100.605C59.3867 100.628 59.2171 100.654 59.0571 100.682C58.8971 100.707 58.7531 100.738 58.6251 100.774C58.5313 100.804 58.4427 100.843 58.3595 100.89C58.2785 100.936 58.2123 100.997 58.1611 101.072C58.1121 101.144 58.0875 101.235 58.0875 101.344C58.0875 101.438 58.111 101.527 58.1579 101.613C58.207 101.698 58.2817 101.767 58.3819 101.821C58.4843 101.874 58.6177 101.901 58.7819 101.901ZM61.3259 102.282V98.8256H61.8347V99.6608L61.7515 99.552C61.7921 99.4453 61.8443 99.3472 61.9083 99.2576C61.9745 99.168 62.0481 99.0944 62.1291 99.0368C62.2187 98.9642 62.3201 98.9088 62.4331 98.8704C62.5462 98.832 62.6614 98.8096 62.7787 98.8032C62.8961 98.7946 63.0059 98.8021 63.1083 98.8256V99.36C62.9889 99.328 62.8577 99.3194 62.7147 99.3344C62.5718 99.3493 62.4395 99.4016 62.3179 99.4912C62.207 99.5701 62.1206 99.6661 62.0587 99.7792C61.999 99.8922 61.9574 100.015 61.9339 100.147C61.9105 100.277 61.8987 100.411 61.8987 100.547V102.282H61.3259ZM63.723 102.282L63.7262 97.6736H64.3022V100.49L65.7518 98.8256H66.491L64.9646 100.554L66.6702 102.282H65.8734L64.3022 100.618V102.282H63.723ZM68.4366 102.378C68.0974 102.378 67.8009 102.303 67.547 102.154C67.2953 102.002 67.099 101.792 66.9582 101.523C66.8174 101.252 66.747 100.936 66.747 100.576C66.747 100.198 66.8164 99.872 66.955 99.5968C67.0937 99.3194 67.2868 99.1061 67.5342 98.9568C67.7838 98.8053 68.0761 98.7296 68.411 98.7296C68.7588 98.7296 69.0542 98.8096 69.2974 98.9696C69.5428 99.1296 69.7262 99.3578 69.8478 99.6544C69.9716 99.9509 70.0249 100.304 70.0078 100.714H69.4318V100.509C69.4254 100.084 69.339 99.7674 69.1726 99.5584C69.0062 99.3472 68.7588 99.2416 68.4302 99.2416C68.0782 99.2416 67.8105 99.3546 67.627 99.5808C67.4436 99.8069 67.3518 100.131 67.3518 100.554C67.3518 100.961 67.4436 101.277 67.627 101.501C67.8105 101.725 68.0718 101.837 68.411 101.837C68.6393 101.837 68.8377 101.784 69.0062 101.68C69.1748 101.575 69.307 101.425 69.403 101.229L69.9502 101.418C69.8158 101.723 69.6132 101.959 69.3422 102.128C69.0734 102.294 68.7716 102.378 68.4366 102.378ZM67.1598 100.714V100.256H69.7134V100.714H67.1598ZM72.6627 102.282C72.4579 102.322 72.2552 102.338 72.0547 102.33C71.8563 102.323 71.6792 102.284 71.5235 102.211C71.3678 102.136 71.2494 102.021 71.1683 101.866C71.1 101.729 71.0627 101.591 71.0563 101.453C71.052 101.312 71.0499 101.153 71.0499 100.976V97.8656H71.6195V100.95C71.6195 101.091 71.6206 101.212 71.6227 101.312C71.627 101.412 71.6494 101.499 71.6899 101.571C71.7667 101.708 71.8883 101.788 72.0547 101.811C72.2232 101.835 72.4259 101.828 72.6627 101.792V102.282ZM70.3491 99.296V98.8256H72.6627V99.296H70.3491ZM73.4411 98.2144V97.6256H74.0107V98.2144H73.4411ZM73.4411 102.282V98.8256H74.0107V102.282H73.4411ZM77.4445 102.282V100.55C77.4445 100.386 77.4296 100.228 77.3997 100.077C77.372 99.9253 77.3218 99.7898 77.2493 99.6704C77.1789 99.5488 77.0829 99.4528 76.9613 99.3824C76.8418 99.312 76.6904 99.2768 76.5069 99.2768C76.364 99.2768 76.2338 99.3013 76.1165 99.3504C76.0013 99.3973 75.9021 99.4698 75.8189 99.568C75.7357 99.6661 75.6706 99.7898 75.6237 99.9392C75.5789 100.086 75.5565 100.26 75.5565 100.461L75.1821 100.346C75.1821 100.011 75.2418 99.7237 75.3613 99.4848C75.4829 99.2437 75.6525 99.0592 75.8701 98.9312C76.0898 98.801 76.348 98.736 76.6445 98.736C76.8685 98.736 77.0594 98.7712 77.2173 98.8416C77.3752 98.912 77.5064 99.0058 77.6109 99.1232C77.7154 99.2384 77.7976 99.3685 77.8573 99.5136C77.917 99.6565 77.9586 99.8026 77.9821 99.952C78.0077 100.099 78.0205 100.239 78.0205 100.371V102.282H77.4445ZM74.9805 102.282V98.8256H75.4925V99.7504H75.5565V102.282H74.9805ZM80.2636 103.914C80.0823 103.914 79.9052 103.886 79.7324 103.83C79.5596 103.775 79.4007 103.691 79.2556 103.578C79.1127 103.467 78.9932 103.326 78.8972 103.155L79.4188 102.88C79.5042 103.048 79.6247 103.171 79.7804 103.248C79.9383 103.325 80.1004 103.363 80.2668 103.363C80.4866 103.363 80.669 103.323 80.814 103.242C80.9591 103.163 81.0658 103.044 81.134 102.886C81.2044 102.728 81.2386 102.532 81.2364 102.298V101.354H81.3036V98.8256H81.8092V102.304C81.8092 102.398 81.806 102.488 81.7996 102.576C81.7954 102.663 81.7847 102.75 81.7676 102.835C81.7228 103.08 81.6343 103.282 81.502 103.44C81.3698 103.6 81.1991 103.718 80.99 103.795C80.781 103.874 80.5388 103.914 80.2636 103.914ZM80.222 102.378C79.8999 102.378 79.6236 102.298 79.3932 102.138C79.1628 101.975 78.9847 101.757 78.8588 101.482C78.7351 101.206 78.6732 100.896 78.6732 100.55C78.6732 100.205 78.7351 99.8944 78.8588 99.6192C78.9847 99.344 79.1628 99.1274 79.3932 98.9696C79.6236 98.8096 79.8988 98.7296 80.2188 98.7296C80.5452 98.7296 80.8194 98.8085 81.0412 98.9664C81.2631 99.1242 81.4306 99.3408 81.5436 99.616C81.6588 99.8912 81.7164 100.203 81.7164 100.55C81.7164 100.894 81.6588 101.204 81.5436 101.482C81.4306 101.757 81.2631 101.975 81.0412 102.138C80.8194 102.298 80.5463 102.378 80.222 102.378ZM80.2924 101.856C80.525 101.856 80.7159 101.8 80.8652 101.69C81.0146 101.576 81.1244 101.422 81.1948 101.226C81.2674 101.027 81.3036 100.802 81.3036 100.55C81.3036 100.294 81.2674 100.069 81.1948 99.8752C81.1244 99.6789 81.0156 99.5264 80.8684 99.4176C80.7212 99.3066 80.5346 99.2512 80.3084 99.2512C80.0738 99.2512 79.8796 99.3088 79.726 99.424C79.5746 99.5392 79.4615 99.6949 79.3868 99.8912C79.3143 100.087 79.278 100.307 79.278 100.55C79.278 100.796 79.3154 101.018 79.39 101.216C79.4647 101.412 79.5767 101.568 79.726 101.683C79.8775 101.798 80.0663 101.856 80.2924 101.856Z" fill="#868686"/>
<path d="M52.019 92.2796L54.053 85.8284H55.6344L57.6683 92.2796H56.5573L54.7115 86.4914H54.9534L53.1301 92.2796H52.019ZM53.1525 90.8818V89.8738H56.5394V90.8818H53.1525ZM58.5948 92.2796V85.694H59.6745V92.2796H58.5948ZM66.8539 92.2796V89.3407C66.8539 89.0092 66.7717 88.7509 66.6075 88.5657C66.4432 88.3775 66.2207 88.2834 65.9399 88.2834C65.7667 88.2834 65.6114 88.3238 65.474 88.4044C65.3366 88.4821 65.2276 88.5985 65.147 88.7538C65.0663 88.9062 65.026 89.0883 65.026 89.3004L64.5467 89.0182C64.5437 88.6837 64.6183 88.3895 64.7707 88.1356C64.926 87.8787 65.135 87.6786 65.3979 87.5353C65.6607 87.3919 65.9534 87.3202 66.2759 87.3202C66.8106 87.3202 67.2197 87.4815 67.5035 87.8041C67.7902 88.1237 67.9335 88.5448 67.9335 89.0674V92.2796H66.8539ZM61.0343 92.2796V87.4412H61.9886V88.942H62.123V92.2796H61.0343ZM63.9508 92.2796V89.3542C63.9508 89.0167 63.8687 88.7538 63.7044 88.5657C63.5402 88.3775 63.3162 88.2834 63.0324 88.2834C62.7577 88.2834 62.5366 88.3775 62.3694 88.5657C62.2051 88.7538 62.123 88.9987 62.123 89.3004L61.6391 88.9778C61.6391 88.6642 61.7168 88.382 61.8721 88.1311C62.0274 87.8802 62.2365 87.6831 62.4993 87.5398C62.7651 87.3934 63.0623 87.3202 63.3908 87.3202C63.7522 87.3202 64.0539 87.3979 64.2958 87.5532C64.5407 87.7055 64.7229 87.9146 64.8423 88.1804C64.9648 88.4432 65.026 88.7404 65.026 89.0719V92.2796H63.9508ZM70.4819 92.414C70.1325 92.414 69.8368 92.3483 69.5949 92.2169C69.3529 92.0825 69.1693 91.9048 69.0438 91.6838C68.9214 91.4627 68.8601 91.2193 68.8601 90.9535C68.8601 90.7206 68.899 90.5115 68.9766 90.3263C69.0543 90.1382 69.1737 89.9769 69.335 89.8425C69.4963 89.7051 69.7054 89.5931 69.9622 89.5065C70.1563 89.4438 70.3833 89.387 70.6432 89.3362C70.906 89.2855 71.1897 89.2392 71.4944 89.1974C71.802 89.1526 72.1231 89.1048 72.4576 89.054L72.0723 89.2735C72.0753 88.939 72.0006 88.6926 71.8483 88.5343C71.696 88.376 71.4391 88.2969 71.0777 88.2969C70.8597 88.2969 70.6491 88.3477 70.4461 88.4492C70.243 88.5507 70.1011 88.7255 70.0205 88.9734L69.0349 88.6642C69.1543 88.2551 69.3813 87.9265 69.7158 87.6786C70.0533 87.4307 70.5073 87.3068 71.0777 87.3068C71.5078 87.3068 71.8856 87.377 72.2112 87.5174C72.5397 87.6577 72.7831 87.8877 72.9414 88.2073C73.028 88.3775 73.0803 88.5522 73.0982 88.7314C73.1161 88.9077 73.1251 89.1003 73.1251 89.3094V92.2796H72.1798V91.2313L72.3366 91.4015C72.1186 91.751 71.8632 92.0078 71.5705 92.1721C71.2808 92.3334 70.9179 92.414 70.4819 92.414ZM70.6969 91.5538C70.9418 91.5538 71.1509 91.5105 71.3241 91.4239C71.4974 91.3373 71.6347 91.2313 71.7363 91.1058C71.8408 90.9804 71.911 90.8624 71.9469 90.7519C72.0036 90.6145 72.035 90.4577 72.0409 90.2815C72.0499 90.1023 72.0544 89.9575 72.0544 89.847L72.3859 89.9455C72.0603 89.9963 71.7811 90.0411 71.5481 90.0799C71.3152 90.1187 71.1151 90.1561 70.9478 90.1919C70.7806 90.2248 70.6327 90.2621 70.5043 90.3039C70.3789 90.3487 70.2728 90.401 70.1862 90.4607C70.0996 90.5205 70.0324 90.5891 69.9846 90.6668C69.9398 90.7445 69.9174 90.8355 69.9174 90.9401C69.9174 91.0595 69.9473 91.1656 70.007 91.2582C70.0667 91.3478 70.1534 91.4194 70.2669 91.4732C70.3833 91.527 70.5267 91.5538 70.6969 91.5538ZM74.3183 92.2796V87.4412H75.2726V88.6194L75.1561 88.4671C75.2158 88.3058 75.295 88.1595 75.3935 88.0281C75.4951 87.8937 75.616 87.7832 75.7564 87.6966C75.8759 87.6159 76.0073 87.5532 76.1506 87.5084C76.297 87.4606 76.4463 87.4322 76.5986 87.4233C76.751 87.4113 76.8988 87.4173 77.0422 87.4412V88.4492C76.8988 88.4074 76.733 88.3939 76.5449 88.4089C76.3597 88.4238 76.1924 88.4761 76.0431 88.5657C75.8938 88.6463 75.7713 88.7494 75.6758 88.8748C75.5832 89.0002 75.5145 89.1436 75.4697 89.3049C75.4249 89.4632 75.4025 89.6349 75.4025 89.8201V92.2796H74.3183ZM79.1632 92.414C78.8137 92.414 78.518 92.3483 78.2761 92.2169C78.0342 92.0825 77.8505 91.9048 77.7251 91.6838C77.6026 91.4627 77.5414 91.2193 77.5414 90.9535C77.5414 90.7206 77.5802 90.5115 77.6579 90.3263C77.7355 90.1382 77.855 89.9769 78.0163 89.8425C78.1776 89.7051 78.3866 89.5931 78.6435 89.5065C78.8376 89.4438 79.0646 89.387 79.3244 89.3362C79.5873 89.2855 79.871 89.2392 80.1756 89.1974C80.4833 89.1526 80.8043 89.1048 81.1388 89.054L80.7536 89.2735C80.7565 88.939 80.6819 88.6926 80.5296 88.5343C80.3772 88.376 80.1204 88.2969 79.759 88.2969C79.541 88.2969 79.3304 88.3477 79.1273 88.4492C78.9242 88.5507 78.7824 88.7255 78.7017 88.9734L77.7161 88.6642C77.8356 88.2551 78.0626 87.9265 78.3971 87.6786C78.7346 87.4307 79.1885 87.3068 79.759 87.3068C80.1891 87.3068 80.5669 87.377 80.8924 87.5174C81.221 87.6577 81.4644 87.8877 81.6227 88.2073C81.7093 88.3775 81.7616 88.5522 81.7795 88.7314C81.7974 88.9077 81.8064 89.1003 81.8064 89.3094V92.2796H80.8611V91.2313L81.0179 91.4015C80.7998 91.751 80.5445 92.0078 80.2518 92.1721C79.9621 92.3334 79.5992 92.414 79.1632 92.414ZM79.3782 91.5538C79.6231 91.5538 79.8322 91.5105 80.0054 91.4239C80.1786 91.3373 80.316 91.2313 80.4176 91.1058C80.5221 90.9804 80.5923 90.8624 80.6281 90.7519C80.6849 90.6145 80.7162 90.4577 80.7222 90.2815C80.7312 90.1023 80.7356 89.9575 80.7356 89.847L81.0672 89.9455C80.7416 89.9963 80.4624 90.0411 80.2294 90.0799C79.9964 90.1187 79.7963 90.1561 79.6291 90.1919C79.4618 90.2248 79.314 90.2621 79.1856 90.3039C79.0601 90.3487 78.9541 90.401 78.8675 90.4607C78.7809 90.5205 78.7137 90.5891 78.6659 90.6668C78.6211 90.7445 78.5987 90.8355 78.5987 90.9401C78.5987 91.0595 78.6285 91.1656 78.6883 91.2582C78.748 91.3478 78.8346 91.4194 78.9481 91.4732C79.0646 91.527 79.208 91.5538 79.3782 91.5538ZM86.1104 92.414C85.6176 92.414 85.207 92.2856 84.8784 92.0287C84.5529 91.7719 84.3244 91.4254 84.193 90.9894L85.2592 90.734C85.2921 90.9162 85.3877 91.073 85.546 91.2044C85.7043 91.3358 85.879 91.4015 86.0701 91.4015C86.1956 91.4015 86.3285 91.3687 86.4688 91.303C86.6092 91.2343 86.7138 91.1253 86.7824 90.9759C86.8243 90.8803 86.8482 90.7669 86.8541 90.6354C86.8631 90.501 86.8676 90.3457 86.8676 90.1695V85.8284H87.9607V90.1695C87.9607 90.3696 87.9592 90.5458 87.9562 90.6982C87.9562 90.8475 87.9413 90.9894 87.9114 91.1238C87.8845 91.2552 87.8293 91.3911 87.7456 91.5314C87.5694 91.8361 87.3395 92.0601 87.0557 92.2034C86.772 92.3438 86.4569 92.414 86.1104 92.414ZM89.4254 86.7065V85.7164H90.5051V86.7065H89.4254ZM89.4254 92.2796V87.4412H90.5051V92.2796H89.4254ZM97.6845 92.2796V89.3407C97.6845 89.0092 97.6024 88.7509 97.4381 88.5657C97.2739 88.3775 97.0514 88.2834 96.7706 88.2834C96.5974 88.2834 96.4421 88.3238 96.3047 88.4044C96.1673 88.4821 96.0583 88.5985 95.9776 88.7538C95.897 88.9062 95.8567 89.0883 95.8567 89.3004L95.3773 89.0182C95.3743 88.6837 95.449 88.3895 95.6013 88.1356C95.7566 87.8787 95.9657 87.6786 96.2285 87.5353C96.4914 87.3919 96.784 87.3202 97.1066 87.3202C97.6412 87.3202 98.0504 87.4815 98.3341 87.8041C98.6208 88.1237 98.7642 88.5448 98.7642 89.0674V92.2796H97.6845ZM91.865 92.2796V87.4412H92.8192V88.942H92.9536V92.2796H91.865ZM94.7815 92.2796V89.3542C94.7815 89.0167 94.6994 88.7538 94.5351 88.5657C94.3708 88.3775 94.1468 88.2834 93.8631 88.2834C93.5883 88.2834 93.3673 88.3775 93.2 88.5657C93.0358 88.7538 92.9536 88.9987 92.9536 89.3004L92.4698 88.9778C92.4698 88.6642 92.5475 88.382 92.7028 88.1311C92.8581 87.8802 93.0671 87.6831 93.33 87.5398C93.5958 87.3934 93.893 87.3202 94.2215 87.3202C94.5829 87.3202 94.8845 87.3979 95.1264 87.5532C95.3714 87.7055 95.5535 87.9146 95.673 88.1804C95.7955 88.4432 95.8567 88.7404 95.8567 89.0719V92.2796H94.7815ZM102.607 86.7468H101.787L102.477 85.0892H103.297L102.607 86.7468ZM102.159 92.414C101.669 92.414 101.239 92.308 100.869 92.0959C100.499 91.8839 100.209 91.5897 99.9999 91.2134C99.7938 90.837 99.6908 90.404 99.6908 89.9142C99.6908 89.3855 99.7923 88.9271 99.9954 88.5388C100.199 88.1475 100.481 87.8444 100.842 87.6294C101.204 87.4143 101.622 87.3068 102.097 87.3068C102.598 87.3068 103.024 87.4248 103.373 87.6607C103.726 87.8937 103.987 88.2237 104.157 88.6508C104.328 89.0779 104.392 89.5811 104.35 90.1606H103.279V89.7663C103.276 89.2407 103.184 88.8569 103.002 88.615C102.819 88.373 102.533 88.2521 102.141 88.2521C101.699 88.2521 101.371 88.3895 101.156 88.6642C100.941 88.936 100.833 89.3347 100.833 89.8604C100.833 90.3502 100.941 90.7295 101.156 90.9983C101.371 91.2671 101.684 91.4015 102.097 91.4015C102.362 91.4015 102.591 91.3433 102.782 91.2268C102.976 91.1073 103.125 90.9356 103.23 90.7116L104.296 91.0342C104.111 91.4702 103.824 91.8092 103.436 92.0511C103.051 92.293 102.625 92.414 102.159 92.414ZM100.493 90.1606V89.3452H103.821V90.1606H100.493ZM108.592 92.2796V89.95C108.592 89.7977 108.581 89.6289 108.56 89.4438C108.54 89.2586 108.49 89.0809 108.413 88.9106C108.338 88.7374 108.224 88.5955 108.072 88.485C107.923 88.3745 107.72 88.3193 107.463 88.3193C107.325 88.3193 107.19 88.3417 107.055 88.3865C106.921 88.4313 106.798 88.5089 106.688 88.6194C106.58 88.727 106.494 88.8763 106.428 89.0674C106.362 89.2556 106.329 89.4975 106.329 89.7932L105.689 89.5199C105.689 89.1078 105.768 88.7344 105.926 88.3999C106.087 88.0654 106.323 87.7996 106.634 87.6025C106.945 87.4024 107.327 87.3023 107.781 87.3023C108.139 87.3023 108.435 87.3621 108.668 87.4815C108.901 87.601 109.086 87.7533 109.223 87.9385C109.361 88.1237 109.462 88.3208 109.528 88.5298C109.594 88.7389 109.636 88.9375 109.654 89.1257C109.674 89.3109 109.685 89.4617 109.685 89.5782V92.2796H108.592ZM105.236 92.2796V87.4412H106.199V88.942H106.329V92.2796H105.236ZM113.002 92.414C112.512 92.414 112.082 92.308 111.712 92.0959C111.341 91.8839 111.051 91.5897 110.842 91.2134C110.636 90.837 110.533 90.404 110.533 89.9142C110.533 89.3855 110.635 88.9271 110.838 88.5388C111.041 88.1475 111.323 87.8444 111.685 87.6294C112.046 87.4143 112.464 87.3068 112.939 87.3068C113.441 87.3068 113.866 87.4248 114.216 87.6607C114.568 87.8937 114.83 88.2237 115 88.6508C115.17 89.0779 115.234 89.5811 115.193 90.1606H114.122V89.7663C114.119 89.2407 114.026 88.8569 113.844 88.615C113.662 88.373 113.375 88.2521 112.984 88.2521C112.542 88.2521 112.213 88.3895 111.998 88.6642C111.783 88.936 111.676 89.3347 111.676 89.8604C111.676 90.3502 111.783 90.7295 111.998 90.9983C112.213 91.2671 112.527 91.4015 112.939 91.4015C113.205 91.4015 113.433 91.3433 113.625 91.2268C113.819 91.1073 113.968 90.9356 114.073 90.7116L115.139 91.0342C114.954 91.4702 114.667 91.8092 114.279 92.0511C113.893 92.293 113.468 92.414 113.002 92.414ZM111.335 90.1606V89.3452H114.664V90.1606H111.335ZM115.771 92.2796V92.1318L118.334 88.3865H116.031V87.4412H120.014V87.5935L117.46 91.3343H119.906V92.2796H115.771Z" fill="black"/>
<rect x="25.9531" y="83.6606" width="20.48" height="20.4798" rx="10.2399" fill="#AEA1FF"/>
<g clip-path="url(#clip2_1600_15803)">
<path d="M36 94.0005C36.5439 94.0005 37.0756 93.8392 37.5278 93.537C37.9801 93.2349 38.3325 92.8054 38.5407 92.3029C38.7488 91.8004 38.8033 91.2474 38.6972 90.714C38.5911 90.1805 38.3291 89.6905 37.9445 89.3059C37.5599 88.9214 37.0699 88.6594 36.5365 88.5533C36.0031 88.4472 35.4501 88.5017 34.9476 88.7098C34.4451 88.918 34.0156 89.2704 33.7135 89.7227C33.4113 90.1749 33.25 90.7066 33.25 91.2505C33.2507 91.9796 33.5407 92.6787 34.0563 93.1942C34.5718 93.7098 35.2709 93.9998 36 94.0005ZM36 89.4172C36.3626 89.4172 36.7171 89.5247 37.0185 89.7261C37.32 89.9276 37.555 90.2139 37.6938 90.5489C37.8325 90.8839 37.8688 91.2525 37.7981 91.6082C37.7274 91.9638 37.5528 92.2905 37.2964 92.5469C37.04 92.8032 36.7133 92.9779 36.3577 93.0486C36.002 93.1193 35.6334 93.083 35.2984 92.9443C34.9634 92.8055 34.6771 92.5705 34.4756 92.269C34.2742 91.9675 34.1667 91.6131 34.1667 91.2505C34.1667 90.7643 34.3598 90.2979 34.7036 89.9541C35.0475 89.6103 35.5138 89.4172 36 89.4172Z" fill="white"/>
<path d="M36 94.9174C34.9064 94.9186 33.8578 95.3536 33.0845 96.1269C32.3112 96.9002 31.8762 97.9487 31.875 99.0424C31.875 99.1639 31.9233 99.2805 32.0092 99.3664C32.0952 99.4524 32.2118 99.5007 32.3333 99.5007C32.4549 99.5007 32.5715 99.4524 32.6574 99.3664C32.7434 99.2805 32.7917 99.1639 32.7917 99.0424C32.7917 98.1915 33.1297 97.3754 33.7314 96.7737C34.333 96.172 35.1491 95.834 36 95.834C36.8509 95.834 37.667 96.172 38.2686 96.7737C38.8703 97.3754 39.2083 98.1915 39.2083 99.0424C39.2083 99.1639 39.2566 99.2805 39.3426 99.3664C39.4285 99.4524 39.5451 99.5007 39.6667 99.5007C39.7882 99.5007 39.9048 99.4524 39.9908 99.3664C40.0767 99.2805 40.125 99.1639 40.125 99.0424C40.1238 97.9487 39.6888 96.9002 38.9155 96.1269C38.1422 95.3536 37.0936 94.9186 36 94.9174Z" fill="white"/>
</g>
<path d="M209.036 90.8333C209.542 90.8333 209.952 90.4229 209.952 89.9167C209.952 89.4104 209.542 89 209.036 89C208.53 89 208.119 89.4104 208.119 89.9167C208.119 90.4229 208.53 90.8333 209.036 90.8333Z" fill="#374957"/>
<path d="M209.036 95.4168C209.542 95.4168 209.952 95.0064 209.952 94.5001C209.952 93.9938 209.542 93.5834 209.036 93.5834C208.53 93.5834 208.119 93.9938 208.119 94.5001C208.119 95.0064 208.53 95.4168 209.036 95.4168Z" fill="#374957"/>
<path d="M209.036 99.9999C209.542 99.9999 209.952 99.5895 209.952 99.0832C209.952 98.577 209.542 98.1666 209.036 98.1666C208.53 98.1666 208.119 98.577 208.119 99.0832C208.119 99.5895 208.53 99.9999 209.036 99.9999Z" fill="#374957"/>
<rect x="16" y="119" width="209.28" height="36.48" rx="5.12" fill="white"/>
<path d="M52.5566 135.16V128.709H53.6363V134.147H56.4856V135.16H52.5566ZM59.0858 135.299C58.7274 135.299 58.4317 135.239 58.1988 135.12C57.9658 135 57.7807 134.848 57.6433 134.663C57.5059 134.477 57.4043 134.28 57.3386 134.071C57.2729 133.862 57.2296 133.665 57.2087 133.48C57.1908 133.292 57.1818 133.139 57.1818 133.023V130.321H58.2749V132.651C58.2749 132.8 58.2854 132.969 58.3063 133.157C58.3272 133.342 58.375 133.522 58.4497 133.695C58.5273 133.865 58.6408 134.006 58.7901 134.116C58.9425 134.227 59.1471 134.282 59.4039 134.282C59.5413 134.282 59.6772 134.259 59.8116 134.215C59.946 134.17 60.0669 134.094 60.1745 133.986C60.285 133.876 60.3731 133.725 60.4388 133.534C60.5045 133.342 60.5373 133.101 60.5373 132.808L61.178 133.081C61.178 133.493 61.0973 133.867 60.9361 134.201C60.7778 134.536 60.5433 134.803 60.2327 135.003C59.9221 135.2 59.5398 135.299 59.0858 135.299ZM60.6673 135.16V133.659H60.5373V130.321H61.6215V135.16H60.6673ZM65.0082 135.294C64.5094 135.294 64.0838 135.184 63.7314 134.963C63.3789 134.739 63.1087 134.434 62.9205 134.049C62.7353 133.664 62.6412 133.227 62.6383 132.741C62.6412 132.245 62.7383 131.806 62.9295 131.424C63.1236 131.038 63.3984 130.737 63.7538 130.519C64.1092 130.298 64.5318 130.187 65.0216 130.187C65.5712 130.187 66.0356 130.326 66.4149 130.604C66.7972 130.878 67.0466 131.255 67.1631 131.733L66.0879 132.024C66.0042 131.764 65.8653 131.562 65.6712 131.419C65.4771 131.273 65.2561 131.2 65.0082 131.2C64.7274 131.2 64.496 131.267 64.3138 131.401C64.1316 131.533 63.9972 131.715 63.9106 131.948C63.824 132.181 63.7807 132.445 63.7807 132.741C63.7807 133.201 63.8837 133.572 64.0898 133.856C64.2959 134.14 64.602 134.282 65.0082 134.282C65.2949 134.282 65.5204 134.216 65.6847 134.085C65.8519 133.953 65.9773 133.764 66.061 133.516L67.1631 133.762C67.0137 134.255 66.7524 134.634 66.3791 134.9C66.0057 135.163 65.5488 135.294 65.0082 135.294ZM69.0092 129.627H68.1894L68.8838 127.969H69.7036L69.0092 129.627ZM68.046 135.16V130.321H69.1257V135.16H68.046ZM71.8475 135.294C71.4981 135.294 71.2024 135.229 70.9605 135.097C70.7186 134.963 70.5349 134.785 70.4094 134.564C70.287 134.343 70.2258 134.1 70.2258 133.834C70.2258 133.601 70.2646 133.392 70.3422 133.207C70.4199 133.018 70.5394 132.857 70.7006 132.723C70.8619 132.585 71.071 132.473 71.3278 132.387C71.522 132.324 71.749 132.267 72.0088 132.216C72.2716 132.166 72.5554 132.119 72.86 132.078C73.1676 132.033 73.4887 131.985 73.8232 131.934L73.4379 132.154C73.4409 131.819 73.3662 131.573 73.2139 131.415C73.0616 131.256 72.8047 131.177 72.4434 131.177C72.2253 131.177 72.0148 131.228 71.8117 131.329C71.6086 131.431 71.4667 131.606 71.3861 131.854L70.4005 131.544C70.5199 131.135 70.7469 130.807 71.0814 130.559C71.4189 130.311 71.8729 130.187 72.4434 130.187C72.8734 130.187 73.2513 130.257 73.5768 130.398C73.9053 130.538 74.1487 130.768 74.307 131.088C74.3937 131.258 74.4459 131.432 74.4638 131.612C74.4818 131.788 74.4907 131.981 74.4907 132.19V135.16H73.5454V134.112L73.7022 134.282C73.4842 134.631 73.2289 134.888 72.9362 135.052C72.6465 135.214 72.2836 135.294 71.8475 135.294ZM72.0626 134.434C72.3075 134.434 72.5165 134.391 72.6898 134.304C72.863 134.218 73.0004 134.112 73.1019 133.986C73.2065 133.861 73.2766 133.743 73.3125 133.632C73.3692 133.495 73.4006 133.338 73.4066 133.162C73.4155 132.983 73.42 132.838 73.42 132.727L73.7515 132.826C73.426 132.877 73.1467 132.921 72.9138 132.96C72.6808 132.999 72.4807 133.036 72.3134 133.072C72.1462 133.105 71.9983 133.142 71.8699 133.184C71.7445 133.229 71.6385 133.281 71.5518 133.341C71.4652 133.401 71.398 133.469 71.3502 133.547C71.3054 133.625 71.283 133.716 71.283 133.82C71.283 133.94 71.3129 134.046 71.3726 134.138C71.4324 134.228 71.519 134.3 71.6325 134.353C71.749 134.407 71.8923 134.434 72.0626 134.434ZM80.2329 135.294C79.5878 135.294 79.0352 135.154 78.5753 134.873C78.1153 134.589 77.7614 134.195 77.5135 133.69C77.2686 133.186 77.1462 132.6 77.1462 131.934C77.1462 131.268 77.2686 130.683 77.5135 130.178C77.7614 129.673 78.1153 129.281 78.5753 129C79.0352 128.716 79.5878 128.574 80.2329 128.574C80.878 128.574 81.4305 128.716 81.8905 129C82.3534 129.281 82.7073 129.673 82.9523 130.178C83.2001 130.683 83.3241 131.268 83.3241 131.934C83.3241 132.6 83.2001 133.186 82.9523 133.69C82.7073 134.195 82.3534 134.589 81.8905 134.873C81.4305 135.154 80.878 135.294 80.2329 135.294ZM80.2329 134.277C80.666 134.28 81.0259 134.185 81.3126 133.991C81.6023 133.796 81.8188 133.523 81.9622 133.171C82.1085 132.818 82.1817 132.406 82.1817 131.934C82.1817 131.462 82.1085 131.053 81.9622 130.707C81.8188 130.357 81.6023 130.086 81.3126 129.891C81.0259 129.697 80.666 129.597 80.2329 129.591C79.7998 129.588 79.4399 129.684 79.1532 129.878C78.8665 130.072 78.65 130.345 78.5036 130.698C78.3603 131.05 78.2886 131.462 78.2886 131.934C78.2886 132.406 78.3603 132.817 78.5036 133.166C78.647 133.513 78.862 133.783 79.1487 133.977C79.4384 134.171 79.7998 134.271 80.2329 134.277ZM84.2427 135.16V130.321H85.1969V131.5L85.0805 131.347C85.1402 131.186 85.2193 131.04 85.3179 130.908C85.4195 130.774 85.5404 130.663 85.6808 130.577C85.8003 130.496 85.9317 130.433 86.075 130.389C86.2214 130.341 86.3707 130.312 86.523 130.304C86.6753 130.292 86.8232 130.298 86.9665 130.321V131.329C86.8232 131.288 86.6574 131.274 86.4693 131.289C86.2841 131.304 86.1168 131.356 85.9675 131.446C85.8182 131.527 85.6957 131.63 85.6001 131.755C85.5076 131.88 85.4389 132.024 85.3941 132.185C85.3493 132.343 85.3269 132.515 85.3269 132.7V135.16H84.2427ZM90.6842 135.16C90.3646 135.22 90.051 135.245 89.7434 135.236C89.4387 135.23 89.1655 135.175 88.9235 135.07C88.6816 134.963 88.4979 134.794 88.3725 134.564C88.262 134.355 88.2037 134.141 88.1978 133.923C88.1918 133.705 88.1888 133.459 88.1888 133.184V128.977H89.264V133.121C89.264 133.316 89.2655 133.486 89.2685 133.632C89.2745 133.779 89.3058 133.898 89.3626 133.991C89.4701 134.17 89.6418 134.27 89.8778 134.291C90.1137 134.312 90.3825 134.3 90.6842 134.255V135.16ZM87.3107 131.168V130.321H90.6842V131.168H87.3107ZM91.8411 129.587V128.597H92.9207V129.587H91.8411ZM91.8411 135.16V130.321H92.9207V135.16H91.8411ZM93.8416 135.16V135.012L96.4042 131.267H94.1014V130.321H98.0842V130.474L95.5306 134.215H97.9766V135.16H93.8416Z" fill="black"/>
<rect x="25.9531" y="126.659" width="20.48" height="20.4798" rx="10.2399" fill="#00B8EC"/>
</g>
<defs>
<clipPath id="clip0_1600_15803">
<rect width="243" height="132" rx="5" fill="white"/>
</clipPath>
<clipPath id="clip1_1600_15803">
<rect width="11" height="11" fill="white" transform="translate(31.5 45.4983)"/>
</clipPath>
<clipPath id="clip2_1600_15803">
<rect width="11" height="11" fill="white" transform="translate(30.5 88.5005)"/>
</clipPath>
</defs>
</svg>
