<svg width="243" height="132" viewBox="0 0 243 132" fill="none" xmlns="http://www.w3.org/2000/svg">
<rect width="243" height="132" rx="5" fill="#F4F4F4"/>
<circle cx="52" cy="98" r="22" fill="#6EB7FF"/>
<circle cx="41" cy="80" r="5" fill="#3D9DFE"/>
<circle cx="63" cy="80" r="5" fill="#3D9DFE"/>
<circle cx="31" cy="98" r="5" fill="#3D9DFE"/>
<circle cx="73" cy="98" r="5" fill="#3D9DFE"/>
<circle cx="40" cy="116" r="5" fill="#3D9DFE"/>
<circle cx="64" cy="115" r="5" fill="#3D9DFE"/>
<path d="M49.7756 102V100.858L52.8054 97.8878C53.0952 97.5952 53.3366 97.3352 53.5298 97.108C53.723 96.8807 53.8679 96.6605 53.9645 96.4474C54.0611 96.2344 54.1094 96.0071 54.1094 95.7656C54.1094 95.4901 54.0469 95.2543 53.9219 95.0582C53.7969 94.8594 53.625 94.706 53.4062 94.598C53.1875 94.4901 52.9389 94.4361 52.6605 94.4361C52.3736 94.4361 52.1222 94.4957 51.9062 94.6151C51.6903 94.7315 51.5227 94.8977 51.4034 95.1136C51.2869 95.3295 51.2287 95.5866 51.2287 95.8849H49.7244C49.7244 95.331 49.8509 94.8494 50.1037 94.4403C50.3565 94.0312 50.7045 93.7145 51.1477 93.4901C51.5938 93.2656 52.1051 93.1534 52.6818 93.1534C53.267 93.1534 53.7813 93.2628 54.2244 93.4815C54.6676 93.7003 55.0114 94 55.2557 94.3807C55.5028 94.7614 55.6264 95.196 55.6264 95.6847C55.6264 96.0114 55.5639 96.3324 55.4389 96.6477C55.3139 96.9631 55.0938 97.3125 54.7784 97.696C54.4659 98.0795 54.027 98.544 53.4616 99.0895L51.9574 100.619V100.679H55.7585V102H49.7756Z" fill="white"/>
<circle cx="125" cy="35" r="22" fill="#6EB7FF"/>
<circle cx="114" cy="17" r="5" fill="#3D9DFE"/>
<circle cx="136" cy="17" r="5" fill="#3D9DFE"/>
<circle cx="104" cy="35" r="5" fill="#3D9DFE"/>
<circle cx="146" cy="35" r="5" fill="#3D9DFE"/>
<circle cx="113" cy="53" r="5" fill="#3D9DFE"/>
<circle cx="137" cy="52" r="5" fill="#3D9DFE"/>
<path d="M125.908 39.1193C125.294 39.1193 124.749 39.0142 124.271 38.804C123.797 38.5937 123.422 38.3011 123.146 37.9261C122.871 37.5511 122.724 37.1179 122.707 36.6264H124.31C124.324 36.8622 124.402 37.0682 124.544 37.2443C124.686 37.4176 124.875 37.5526 125.111 37.6491C125.347 37.7457 125.611 37.794 125.903 37.794C126.216 37.794 126.493 37.7401 126.734 37.6321C126.976 37.5213 127.165 37.3679 127.301 37.1719C127.438 36.9759 127.504 36.75 127.501 36.4943C127.504 36.2301 127.436 35.9972 127.297 35.7955C127.158 35.5937 126.956 35.4361 126.692 35.3224C126.43 35.2088 126.115 35.152 125.746 35.152H124.974V33.9332H125.746C126.05 33.9332 126.315 33.8807 126.543 33.7756C126.773 33.6705 126.953 33.5227 127.084 33.3324C127.214 33.1392 127.278 32.9162 127.276 32.6634C127.278 32.4162 127.223 32.2017 127.109 32.0199C126.999 31.8352 126.841 31.6918 126.636 31.5895C126.435 31.4872 126.197 31.4361 125.925 31.4361C125.658 31.4361 125.411 31.4844 125.183 31.581C124.956 31.6776 124.773 31.8153 124.634 31.9943C124.494 32.1705 124.42 32.3807 124.412 32.625H122.891C122.902 32.1364 123.043 31.7074 123.312 31.3381C123.585 30.9659 123.949 30.6761 124.403 30.4688C124.858 30.2585 125.368 30.1534 125.933 30.1534C126.516 30.1534 127.021 30.2628 127.45 30.4815C127.882 30.6974 128.216 30.9886 128.452 31.3551C128.688 31.7216 128.805 32.1264 128.805 32.5696C128.808 33.0611 128.663 33.473 128.371 33.8054C128.081 34.1378 127.7 34.3551 127.229 34.4574V34.5256C127.842 34.6108 128.313 34.8381 128.639 35.2074C128.969 35.5739 129.132 36.0298 129.129 36.5753C129.129 37.0639 128.99 37.5014 128.712 37.8878C128.436 38.2713 128.055 38.5724 127.57 38.7912C127.087 39.0099 126.533 39.1193 125.908 39.1193Z" fill="white"/>
<circle cx="125" cy="98" r="22" fill="#6EB7FF"/>
<circle cx="114" cy="80" r="5" fill="#3D9DFE"/>
<circle cx="136" cy="80" r="5" fill="#3D9DFE"/>
<circle cx="104" cy="98" r="5" fill="#3D9DFE"/>
<circle cx="146" cy="98" r="5" fill="#3D9DFE"/>
<circle cx="113" cy="116" r="5" fill="#3D9DFE"/>
<circle cx="137" cy="115" r="5" fill="#3D9DFE"/>
<path d="M122.618 100.381V99.1236L126.321 93.2727H127.369V95.0625H126.73L124.237 99.0128V99.081H129.406V100.381H122.618ZM126.781 102V99.9972L126.798 99.4347V93.2727H128.29V102H126.781Z" fill="white"/>
<circle cx="194" cy="35" r="22" fill="#6EB7FF"/>
<circle cx="183" cy="17" r="5" fill="#3D9DFE"/>
<circle cx="205" cy="17" r="5" fill="#3D9DFE"/>
<circle cx="173" cy="35" r="5" fill="#3D9DFE"/>
<circle cx="215" cy="35" r="5" fill="#3D9DFE"/>
<circle cx="182" cy="53" r="5" fill="#3D9DFE"/>
<circle cx="206" cy="52" r="5" fill="#3D9DFE"/>
<path d="M194.81 39.1193C194.241 39.1193 193.733 39.0128 193.284 38.7997C192.835 38.5838 192.479 38.2884 192.214 37.9134C191.953 37.5384 191.814 37.1094 191.797 36.6264H193.331C193.359 36.9844 193.514 37.277 193.795 37.5043C194.077 37.7287 194.415 37.8409 194.81 37.8409C195.119 37.8409 195.395 37.7699 195.636 37.6278C195.878 37.4858 196.068 37.2884 196.207 37.0355C196.347 36.7827 196.415 36.4943 196.412 36.1705C196.415 35.8409 196.345 35.5483 196.203 35.2926C196.061 35.0369 195.866 34.8366 195.619 34.6918C195.372 34.544 195.088 34.4702 194.767 34.4702C194.506 34.4673 194.249 34.5156 193.996 34.6151C193.743 34.7145 193.543 34.8452 193.395 35.0071L191.967 34.7727L192.423 30.2727H197.486V31.5938H193.732L193.48 33.9077H193.531C193.693 33.7173 193.922 33.5597 194.217 33.4347C194.513 33.3068 194.837 33.2429 195.189 33.2429C195.717 33.2429 196.189 33.3679 196.604 33.6179C197.018 33.8651 197.345 34.206 197.584 34.6406C197.822 35.0753 197.942 35.5724 197.942 36.1321C197.942 36.7088 197.808 37.223 197.541 37.6747C197.277 38.1236 196.909 38.4773 196.438 38.7358C195.969 38.9915 195.426 39.1193 194.81 39.1193Z" fill="white"/>
<circle cx="194" cy="98" r="22" fill="#6EB7FF"/>
<path d="M194.972 102.119C194.554 102.116 194.146 102.044 193.749 101.902C193.351 101.757 192.993 101.523 192.675 101.199C192.357 100.872 192.104 100.439 191.916 99.8991C191.729 99.3565 191.636 98.6847 191.639 97.8835C191.639 97.1364 191.719 96.4702 191.878 95.8849C192.037 95.2997 192.266 94.8054 192.564 94.402C192.862 93.9957 193.222 93.6861 193.642 93.473C194.065 93.2599 194.538 93.1534 195.061 93.1534C195.609 93.1534 196.095 93.2614 196.518 93.4773C196.945 93.6932 197.288 93.9886 197.55 94.3636C197.811 94.7358 197.973 95.1562 198.036 95.625H196.48C196.401 95.2898 196.237 95.0227 195.99 94.8239C195.746 94.6222 195.436 94.5213 195.061 94.5213C194.456 94.5213 193.99 94.7841 193.663 95.3097C193.339 95.8352 193.176 96.5568 193.173 97.4744H193.233C193.372 97.2244 193.553 97.0099 193.774 96.831C193.996 96.652 194.246 96.5142 194.524 96.4176C194.805 96.3182 195.102 96.2685 195.415 96.2685C195.926 96.2685 196.385 96.3906 196.791 96.6349C197.2 96.8793 197.524 97.2159 197.763 97.6449C198.001 98.071 198.119 98.5597 198.116 99.1108C198.119 99.6847 197.989 100.2 197.724 100.658C197.46 101.112 197.092 101.47 196.621 101.732C196.149 101.993 195.599 102.122 194.972 102.119ZM194.963 100.841C195.273 100.841 195.55 100.766 195.794 100.615C196.038 100.464 196.232 100.261 196.374 100.006C196.516 99.75 196.585 99.4631 196.582 99.1449C196.585 98.8324 196.517 98.5497 196.378 98.2969C196.241 98.044 196.053 97.8437 195.811 97.696C195.57 97.5483 195.294 97.4744 194.984 97.4744C194.754 97.4744 194.54 97.5185 194.341 97.6065C194.142 97.6946 193.969 97.8168 193.821 97.973C193.673 98.1264 193.557 98.3054 193.472 98.5099C193.389 98.7116 193.347 98.9276 193.344 99.1577C193.347 99.4616 193.418 99.7415 193.557 99.9972C193.696 100.253 193.888 100.457 194.132 100.611C194.376 100.764 194.653 100.841 194.963 100.841Z" fill="white"/>
<circle cx="183" cy="80" r="5" fill="#3D9DFE"/>
<circle cx="205" cy="80" r="5" fill="#3D9DFE"/>
<circle cx="173" cy="98" r="5" fill="#3D9DFE"/>
<circle cx="215" cy="98" r="5" fill="#3D9DFE"/>
<circle cx="182" cy="116" r="5" fill="#3D9DFE"/>
<circle cx="206" cy="115" r="5" fill="#3D9DFE"/>
<circle cx="52" cy="35" r="22" fill="#6EB7FF"/>
<circle cx="41" cy="17" r="5" fill="#3D9DFE"/>
<circle cx="63" cy="17" r="5" fill="#3D9DFE"/>
<circle cx="31" cy="35" r="5" fill="#3D9DFE"/>
<circle cx="73" cy="35" r="5" fill="#3D9DFE"/>
<circle cx="40" cy="53" r="5" fill="#3D9DFE"/>
<circle cx="64" cy="52" r="5" fill="#3D9DFE"/>
<path d="M53.3253 30.2727V39H51.7443V31.8111H51.6932L49.652 33.1151V31.6662L51.821 30.2727H53.3253Z" fill="white"/>
</svg>
