<svg width="243" height="132" viewBox="0 0 243 132" fill="none" xmlns="http://www.w3.org/2000/svg">
<g clip-path="url(#clip0_1600_16126)">
<rect width="243" height="132" rx="5" fill="#F4F4F4"/>
<path d="M27.5489 51.9271C27.8483 51.0057 29.1517 51.0057 29.4511 51.9271L31.98 59.7102C32.1138 60.1223 32.4978 60.4012 32.931 60.4012H41.1147C42.0835 60.4012 42.4862 61.6408 41.7025 62.2102L35.0818 67.0205C34.7313 67.2752 34.5846 67.7265 34.7185 68.1385L37.2474 75.9217C37.5468 76.843 36.4923 77.6092 35.7086 77.0398L29.0878 72.2295C28.7373 71.9748 28.2627 71.9748 27.9122 72.2295L21.2914 77.0398C20.5077 77.6092 19.4532 76.843 19.7526 75.9217L22.2815 68.1385C22.4154 67.7265 22.2687 67.2752 21.9182 67.0205L15.2975 62.2102C14.5138 61.6408 14.9165 60.4012 15.8853 60.4012H24.069C24.5022 60.4012 24.8862 60.1223 25.02 59.7102L27.5489 51.9271Z" fill="#FFCE15"/>
<path d="M27.5489 122.927C27.8483 122.006 29.1517 122.006 29.4511 122.927L31.98 130.71C32.1138 131.122 32.4978 131.401 32.931 131.401H41.1147C42.0835 131.401 42.4862 132.641 41.7025 133.21L35.0818 138.021C34.7313 138.275 34.5846 138.727 34.7185 139.139L37.2474 146.922C37.5468 147.843 36.4923 148.609 35.7086 148.04L29.0878 143.229C28.7373 142.975 28.2627 142.975 27.9122 143.229L21.2914 148.04C20.5077 148.609 19.4532 147.843 19.7526 146.922L22.2815 139.139C22.4154 138.727 22.2687 138.275 21.9182 138.021L15.2975 133.21C14.5138 132.641 14.9165 131.401 15.8853 131.401H24.069C24.5022 131.401 24.8862 131.122 25.02 130.71L27.5489 122.927Z" fill="#FFCE15"/>
<path d="M95.5489 51.9271C95.8483 51.0057 97.1517 51.0057 97.4511 51.9271L99.98 59.7102C100.114 60.1223 100.498 60.4012 100.931 60.4012H109.115C110.083 60.4012 110.486 61.6408 109.703 62.2102L103.082 67.0205C102.731 67.2752 102.585 67.7265 102.718 68.1385L105.247 75.9217C105.547 76.843 104.492 77.6092 103.709 77.0398L97.0878 72.2295C96.7373 71.9748 96.2627 71.9748 95.9122 72.2295L89.2914 77.0398C88.5077 77.6092 87.4532 76.843 87.7526 75.9217L90.2815 68.1385C90.4154 67.7265 90.2687 67.2752 89.9182 67.0205L83.2975 62.2102C82.5138 61.6408 82.9165 60.4012 83.8853 60.4012H92.069C92.5022 60.4012 92.8862 60.1223 93.02 59.7102L95.5489 51.9271Z" fill="#FFCE15"/>
<path d="M95.5489 122.927C95.8483 122.006 97.1517 122.006 97.4511 122.927L99.98 130.71C100.114 131.122 100.498 131.401 100.931 131.401H109.115C110.083 131.401 110.486 132.641 109.703 133.21L103.082 138.021C102.731 138.275 102.585 138.727 102.718 139.139L105.247 146.922C105.547 147.843 104.492 148.609 103.709 148.04L97.0878 143.229C96.7373 142.975 96.2627 142.975 95.9122 143.229L89.2914 148.04C88.5077 148.609 87.4532 147.843 87.7526 146.922L90.2815 139.139C90.4154 138.727 90.2687 138.275 89.9182 138.021L83.2975 133.21C82.5138 132.641 82.9165 131.401 83.8853 131.401H92.069C92.5022 131.401 92.8862 131.122 93.02 130.71L95.5489 122.927Z" fill="#FFCE15"/>
<path d="M61.5489 51.9271C61.8483 51.0057 63.1517 51.0057 63.4511 51.9271L65.98 59.7102C66.1138 60.1223 66.4978 60.4012 66.931 60.4012H75.1147C76.0835 60.4012 76.4862 61.6408 75.7025 62.2102L69.0818 67.0205C68.7313 67.2752 68.5846 67.7265 68.7185 68.1385L71.2474 75.9217C71.5468 76.843 70.4923 77.6092 69.7086 77.0398L63.0878 72.2295C62.7373 71.9748 62.2627 71.9748 61.9122 72.2295L55.2914 77.0398C54.5077 77.6092 53.4532 76.843 53.7526 75.9217L56.2815 68.1385C56.4154 67.7265 56.2687 67.2752 55.9182 67.0205L49.2975 62.2102C48.5138 61.6408 48.9165 60.4012 49.8853 60.4012H58.069C58.5022 60.4012 58.8862 60.1223 59.02 59.7102L61.5489 51.9271Z" fill="#FFCE15"/>
<path d="M61.5489 122.927C61.8483 122.006 63.1517 122.006 63.4511 122.927L65.98 130.71C66.1138 131.122 66.4978 131.401 66.931 131.401H75.1147C76.0835 131.401 76.4862 132.641 75.7025 133.21L69.0818 138.021C68.7313 138.275 68.5846 138.727 68.7185 139.139L71.2474 146.922C71.5468 147.843 70.4923 148.609 69.7086 148.04L63.0878 143.229C62.7373 142.975 62.2627 142.975 61.9122 143.229L55.2914 148.04C54.5077 148.609 53.4532 147.843 53.7526 146.922L56.2815 139.139C56.4154 138.727 56.2687 138.275 55.9182 138.021L49.2975 133.21C48.5138 132.641 48.9165 131.401 49.8853 131.401H58.069C58.5022 131.401 58.8862 131.122 59.02 130.71L61.5489 122.927Z" fill="#FFCE15"/>
<path d="M128.549 51.9271C128.848 51.0057 130.152 51.0057 130.451 51.9271L132.98 59.7102C133.114 60.1223 133.498 60.4012 133.931 60.4012H142.115C143.083 60.4012 143.486 61.6408 142.703 62.2102L136.082 67.0205C135.731 67.2752 135.585 67.7265 135.718 68.1385L138.247 75.9217C138.547 76.843 137.492 77.6092 136.709 77.0398L130.088 72.2295C129.737 71.9748 129.263 71.9748 128.912 72.2295L122.291 77.0398C121.508 77.6092 120.453 76.843 120.753 75.9217L123.282 68.1385C123.415 67.7265 123.269 67.2752 122.918 67.0205L116.297 62.2102C115.514 61.6408 115.917 60.4012 116.885 60.4012H125.069C125.502 60.4012 125.886 60.1223 126.02 59.7102L128.549 51.9271Z" fill="#FFCE15"/>
<path d="M128.549 122.927C128.848 122.006 130.152 122.006 130.451 122.927L132.98 130.71C133.114 131.122 133.498 131.401 133.931 131.401H142.115C143.083 131.401 143.486 132.641 142.703 133.21L136.082 138.021C135.731 138.275 135.585 138.727 135.718 139.139L138.247 146.922C138.547 147.843 137.492 148.609 136.709 148.04L130.088 143.229C129.737 142.975 129.263 142.975 128.912 143.229L122.291 148.04C121.508 148.609 120.453 147.843 120.753 146.922L123.282 139.139C123.415 138.727 123.269 138.275 122.918 138.021L116.297 133.21C115.514 132.641 115.917 131.401 116.885 131.401H125.069C125.502 131.401 125.886 131.122 126.02 130.71L128.549 122.927Z" fill="#FFCE15"/>
<path d="M162.549 51.9271C162.848 51.0057 164.152 51.0057 164.451 51.9271L166.98 59.7102C167.114 60.1223 167.498 60.4012 167.931 60.4012H176.115C177.083 60.4012 177.486 61.6408 176.703 62.2102L170.082 67.0205C169.731 67.2752 169.585 67.7265 169.718 68.1385L172.247 75.9217C172.547 76.843 171.492 77.6092 170.709 77.0398L164.088 72.2295C163.737 71.9748 163.263 71.9748 162.912 72.2295L156.291 77.0398C155.508 77.6092 154.453 76.843 154.753 75.9217L157.282 68.1385C157.415 67.7265 157.269 67.2752 156.918 67.0205L150.297 62.2102C149.514 61.6408 149.917 60.4012 150.885 60.4012H159.069C159.502 60.4012 159.886 60.1223 160.02 59.7102L162.549 51.9271Z" fill="#D9D9D9"/>
<path d="M162.549 122.927C162.848 122.006 164.152 122.006 164.451 122.927L166.98 130.71C167.114 131.122 167.498 131.401 167.931 131.401H176.115C177.083 131.401 177.486 132.641 176.703 133.21L170.082 138.021C169.731 138.275 169.585 138.727 169.718 139.139L172.247 146.922C172.547 147.843 171.492 148.609 170.709 148.04L164.088 143.229C163.737 142.975 163.263 142.975 162.912 143.229L156.291 148.04C155.508 148.609 154.453 147.843 154.753 146.922L157.282 139.139C157.415 138.727 157.269 138.275 156.918 138.021L150.297 133.21C149.514 132.641 149.917 131.401 150.885 131.401H159.069C159.502 131.401 159.886 131.122 160.02 130.71L162.549 122.927Z" fill="#D9D9D9"/>
<path d="M18.8685 28.195C17.9325 28.195 17.1308 27.9913 16.4635 27.584C15.7962 27.1723 15.2827 26.6003 14.923 25.868C14.5677 25.1357 14.39 24.2863 14.39 23.32C14.39 22.3537 14.5677 21.5043 14.923 20.772C15.2827 20.0397 15.7962 19.4698 16.4635 19.0625C17.1308 18.6508 17.9325 18.445 18.8685 18.445C19.9475 18.445 20.8467 18.7158 21.566 19.2575C22.2853 19.7948 22.7902 20.5207 23.0805 21.435L21.501 21.8705C21.319 21.2595 21.0092 20.7828 20.5715 20.4405C20.1338 20.0938 19.5662 19.9205 18.8685 19.9205C18.2402 19.9205 17.7158 20.0613 17.2955 20.343C16.8795 20.6247 16.5653 21.0212 16.353 21.5325C16.145 22.0395 16.0388 22.6353 16.0345 23.32C16.0345 24.0047 16.1385 24.6027 16.3465 25.114C16.5588 25.621 16.8752 26.0153 17.2955 26.297C17.7158 26.5787 18.2402 26.7195 18.8685 26.7195C19.5662 26.7195 20.1338 26.5462 20.5715 26.1995C21.0092 25.8528 21.319 25.3762 21.501 24.7695L23.0805 25.205C22.7902 26.1193 22.2853 26.8473 21.566 27.389C20.8467 27.9263 19.9475 28.195 18.8685 28.195ZM26.5097 28.195C26.0027 28.195 25.5737 28.0997 25.2227 27.909C24.8717 27.714 24.6052 27.4562 24.4232 27.1355C24.2455 26.8148 24.1567 26.4617 24.1567 26.076C24.1567 25.738 24.213 25.4347 24.3257 25.166C24.4383 24.893 24.6117 24.659 24.8457 24.464C25.0797 24.2647 25.383 24.1022 25.7557 23.9765C26.0373 23.8855 26.3667 23.8032 26.7437 23.7295C27.125 23.6558 27.5367 23.5887 27.9787 23.528C28.425 23.463 28.8908 23.3937 29.3762 23.32L28.8172 23.6385C28.8215 23.1532 28.7132 22.7957 28.4922 22.566C28.2712 22.3363 27.8985 22.2215 27.3742 22.2215C27.0578 22.2215 26.7523 22.2952 26.4577 22.4425C26.163 22.5898 25.9572 22.8433 25.8402 23.203L24.4102 22.7545C24.5835 22.1608 24.9128 21.6842 25.3982 21.3245C25.8878 20.9648 26.5465 20.785 27.3742 20.785C27.9982 20.785 28.5463 20.8868 29.0187 21.0905C29.4953 21.2942 29.8485 21.6278 30.0782 22.0915C30.2038 22.3385 30.2797 22.592 30.3057 22.852C30.3317 23.1077 30.3447 23.3872 30.3447 23.6905V28H28.9732V26.479L29.2007 26.726C28.8843 27.233 28.5138 27.6057 28.0892 27.844C27.6688 28.078 27.1423 28.195 26.5097 28.195ZM26.8217 26.947C27.177 26.947 27.4803 26.8842 27.7317 26.7585C27.983 26.6328 28.1823 26.479 28.3297 26.297C28.4813 26.115 28.5832 25.9438 28.6352 25.7835C28.7175 25.5842 28.763 25.3567 28.7717 25.101C28.7847 24.841 28.7912 24.6308 28.7912 24.4705L29.2722 24.6135C28.7998 24.6872 28.3947 24.7522 28.0567 24.8085C27.7187 24.8648 27.4283 24.919 27.1857 24.971C26.943 25.0187 26.7285 25.0728 26.5422 25.1335C26.3602 25.1985 26.2063 25.2743 26.0807 25.361C25.955 25.4477 25.8575 25.5473 25.7882 25.66C25.7232 25.7727 25.6907 25.9048 25.6907 26.0565C25.6907 26.2298 25.734 26.3837 25.8207 26.518C25.9073 26.648 26.033 26.752 26.1977 26.83C26.3667 26.908 26.5747 26.947 26.8217 26.947ZM32.2059 28V18.445H33.7724V28H32.2059ZM35.8884 19.914V18.4775H37.4549V19.914H35.8884ZM35.8884 28V20.98H37.4549V28H35.8884ZM40.052 28V20.8695C40.052 20.6918 40.0585 20.4968 40.0715 20.2845C40.0845 20.0678 40.1213 19.8533 40.182 19.641C40.2427 19.4287 40.3532 19.2358 40.5135 19.0625C40.7128 18.8415 40.9273 18.6898 41.157 18.6075C41.391 18.5208 41.6207 18.4732 41.846 18.4645C42.0713 18.4515 42.2685 18.445 42.4375 18.445H43.315V19.719H42.5025C42.2035 19.719 41.9803 19.7948 41.833 19.9465C41.69 20.0938 41.6185 20.2888 41.6185 20.5315V28H40.052ZM38.921 22.2085V20.98H43.315V22.2085H38.921ZM44.68 19.914V18.4775H46.2465V19.914H44.68ZM44.68 28V20.98H46.2465V28H44.68ZM51.2883 28.195C50.5646 28.195 49.9471 28.0347 49.4358 27.714C48.9244 27.389 48.5323 26.947 48.2593 26.388C47.9906 25.829 47.8541 25.1963 47.8498 24.49C47.8541 23.7707 47.9949 23.1337 48.2723 22.579C48.5539 22.02 48.9526 21.5823 49.4683 21.266C49.9839 20.9453 50.5971 20.785 51.3078 20.785C52.1051 20.785 52.7789 20.9865 53.3293 21.3895C53.8839 21.7882 54.2458 22.3342 54.4148 23.0275L52.8548 23.45C52.7334 23.073 52.5319 22.7805 52.2503 22.5725C51.9686 22.3602 51.6479 22.254 51.2883 22.254C50.8809 22.254 50.5451 22.3515 50.2808 22.5465C50.0164 22.7372 49.8214 23.0015 49.6958 23.3395C49.5701 23.6775 49.5073 24.061 49.5073 24.49C49.5073 25.1573 49.6568 25.6968 49.9558 26.1085C50.2548 26.5202 50.6989 26.726 51.2883 26.726C51.7043 26.726 52.0314 26.6307 52.2698 26.44C52.5124 26.2493 52.6944 25.9742 52.8158 25.6145L54.4148 25.972C54.1981 26.687 53.8189 27.2373 53.2773 27.623C52.7356 28.0043 52.0726 28.195 51.2883 28.195ZM57.605 28.195C57.098 28.195 56.669 28.0997 56.318 27.909C55.967 27.714 55.7005 27.4562 55.5185 27.1355C55.3409 26.8148 55.252 26.4617 55.252 26.076C55.252 25.738 55.3084 25.4347 55.421 25.166C55.5337 24.893 55.707 24.659 55.941 24.464C56.175 24.2647 56.4784 24.1022 56.851 23.9765C57.1327 23.8855 57.462 23.8032 57.839 23.7295C58.2204 23.6558 58.632 23.5887 59.074 23.528C59.5204 23.463 59.9862 23.3937 60.4715 23.32L59.9125 23.6385C59.9169 23.1532 59.8085 22.7957 59.5875 22.566C59.3665 22.3363 58.9939 22.2215 58.4695 22.2215C58.1532 22.2215 57.8477 22.2952 57.553 22.4425C57.2584 22.5898 57.0525 22.8433 56.9355 23.203L55.5055 22.7545C55.6789 22.1608 56.0082 21.6842 56.4935 21.3245C56.9832 20.9648 57.6419 20.785 58.4695 20.785C59.0935 20.785 59.6417 20.8868 60.114 21.0905C60.5907 21.2942 60.9439 21.6278 61.1735 22.0915C61.2992 22.3385 61.375 22.592 61.401 22.852C61.427 23.1077 61.44 23.3872 61.44 23.6905V28H60.0685V26.479L60.296 26.726C59.9797 27.233 59.6092 27.6057 59.1845 27.844C58.7642 28.078 58.2377 28.195 57.605 28.195ZM57.917 26.947C58.2724 26.947 58.5757 26.8842 58.827 26.7585C59.0784 26.6328 59.2777 26.479 59.425 26.297C59.5767 26.115 59.6785 25.9438 59.7305 25.7835C59.8129 25.5842 59.8584 25.3567 59.867 25.101C59.88 24.841 59.8865 24.6308 59.8865 24.4705L60.3675 24.6135C59.8952 24.6872 59.49 24.7522 59.152 24.8085C58.814 24.8648 58.5237 24.919 58.281 24.971C58.0384 25.0187 57.8239 25.0728 57.6375 25.1335C57.4555 25.1985 57.3017 25.2743 57.176 25.361C57.0504 25.4477 56.9529 25.5473 56.8835 25.66C56.8185 25.7727 56.786 25.9048 56.786 26.0565C56.786 26.2298 56.8294 26.3837 56.916 26.518C57.0027 26.648 57.1284 26.752 57.293 26.83C57.462 26.908 57.67 26.947 57.917 26.947ZM69.0043 28.195C68.2937 28.195 67.6697 28.0412 67.1323 27.7335C66.595 27.4258 66.1747 26.999 65.8713 26.453C65.5723 25.907 65.4228 25.2787 65.4228 24.568C65.4228 23.801 65.5702 23.1358 65.8648 22.5725C66.1595 22.0048 66.569 21.565 67.0933 21.253C67.6177 20.941 68.2243 20.785 68.9133 20.785C69.6413 20.785 70.2588 20.9562 70.7658 21.2985C71.2772 21.6365 71.6563 22.1153 71.9033 22.735C72.1503 23.3547 72.2435 24.0848 72.1828 24.9255H70.6293V24.3535C70.625 23.5908 70.4907 23.034 70.2263 22.683C69.962 22.332 69.546 22.1565 68.9783 22.1565C68.337 22.1565 67.8603 22.3558 67.5483 22.7545C67.2363 23.1488 67.0803 23.7273 67.0803 24.49C67.0803 25.2007 67.2363 25.751 67.5483 26.141C67.8603 26.531 68.3153 26.726 68.9133 26.726C69.299 26.726 69.6305 26.6415 69.9078 26.4725C70.1895 26.2992 70.4062 26.05 70.5578 25.725L72.1048 26.193C71.8362 26.8257 71.4202 27.3175 70.8568 27.6685C70.2978 28.0195 69.6803 28.195 69.0043 28.195ZM66.5863 24.9255V23.7425H71.4158V24.9255H66.5863ZM73.8021 28V18.445H75.3686V28H73.8021ZM82.7067 28.195C81.8401 28.195 81.1359 28 80.5942 27.61C80.0526 27.22 79.7232 26.6718 79.6062 25.9655L81.2052 25.7185C81.2876 26.0652 81.4696 26.3382 81.7512 26.5375C82.0329 26.7368 82.3882 26.8365 82.8172 26.8365C83.1942 26.8365 83.4846 26.7628 83.6882 26.6155C83.8962 26.4638 84.0002 26.258 84.0002 25.998C84.0002 25.8377 83.9612 25.7098 83.8832 25.6145C83.8096 25.5148 83.6449 25.4195 83.3892 25.3285C83.1336 25.2375 82.7414 25.1227 82.2127 24.984C81.6234 24.828 81.1554 24.6612 80.8087 24.4835C80.4621 24.3015 80.2129 24.087 80.0612 23.84C79.9096 23.593 79.8337 23.294 79.8337 22.943C79.8337 22.5053 79.9486 22.124 80.1782 21.799C80.4079 21.474 80.7286 21.2248 81.1402 21.0515C81.5519 20.8738 82.0372 20.785 82.5962 20.785C83.1422 20.785 83.6254 20.8695 84.0457 21.0385C84.4704 21.2075 84.8127 21.448 85.0727 21.76C85.3327 22.072 85.4931 22.4382 85.5537 22.8585L83.9547 23.1445C83.9157 22.8455 83.7792 22.6093 83.5452 22.436C83.3156 22.2627 83.0079 22.1652 82.6222 22.1435C82.2539 22.1218 81.9571 22.1782 81.7317 22.3125C81.5064 22.4425 81.3937 22.6267 81.3937 22.865C81.3937 22.9993 81.4392 23.1142 81.5302 23.2095C81.6212 23.3048 81.8032 23.4002 82.0762 23.4955C82.3536 23.5908 82.7652 23.7078 83.3112 23.8465C83.8702 23.9895 84.3166 24.1542 84.6502 24.3405C84.9882 24.5225 85.2309 24.7413 85.3782 24.997C85.5299 25.2527 85.6057 25.5625 85.6057 25.9265C85.6057 26.6328 85.3479 27.1875 84.8322 27.5905C84.3209 27.9935 83.6124 28.195 82.7067 28.195ZM89.0314 28.195C88.5244 28.195 88.0954 28.0997 87.7444 27.909C87.3934 27.714 87.1269 27.4562 86.9449 27.1355C86.7673 26.8148 86.6784 26.4617 86.6784 26.076C86.6784 25.738 86.7348 25.4347 86.8474 25.166C86.9601 24.893 87.1334 24.659 87.3674 24.464C87.6014 24.2647 87.9048 24.1022 88.2774 23.9765C88.5591 23.8855 88.8884 23.8032 89.2654 23.7295C89.6468 23.6558 90.0584 23.5887 90.5004 23.528C90.9468 23.463 91.4126 23.3937 91.8979 23.32L91.3389 23.6385C91.3433 23.1532 91.2349 22.7957 91.0139 22.566C90.7929 22.3363 90.4203 22.2215 89.8959 22.2215C89.5796 22.2215 89.2741 22.2952 88.9794 22.4425C88.6848 22.5898 88.4789 22.8433 88.3619 23.203L86.9319 22.7545C87.1053 22.1608 87.4346 21.6842 87.9199 21.3245C88.4096 20.9648 89.0683 20.785 89.8959 20.785C90.5199 20.785 91.0681 20.8868 91.5404 21.0905C92.0171 21.2942 92.3703 21.6278 92.5999 22.0915C92.7256 22.3385 92.8014 22.592 92.8274 22.852C92.8534 23.1077 92.8664 23.3872 92.8664 23.6905V28H91.4949V26.479L91.7224 26.726C91.4061 27.233 91.0356 27.6057 90.6109 27.844C90.1906 28.078 89.6641 28.195 89.0314 28.195ZM89.3434 26.947C89.6988 26.947 90.0021 26.8842 90.2534 26.7585C90.5048 26.6328 90.7041 26.479 90.8514 26.297C91.0031 26.115 91.1049 25.9438 91.1569 25.7835C91.2393 25.5842 91.2848 25.3567 91.2934 25.101C91.3064 24.841 91.3129 24.6308 91.3129 24.4705L91.7939 24.6135C91.3216 24.6872 90.9164 24.7522 90.5784 24.8085C90.2404 24.8648 89.9501 24.919 89.7074 24.971C89.4648 25.0187 89.2503 25.0728 89.0639 25.1335C88.8819 25.1985 88.7281 25.2743 88.6024 25.361C88.4768 25.4477 88.3793 25.5473 88.3099 25.66C88.2449 25.7727 88.2124 25.9048 88.2124 26.0565C88.2124 26.2298 88.2558 26.3837 88.3424 26.518C88.4291 26.648 88.5548 26.752 88.7194 26.83C88.8884 26.908 89.0964 26.947 89.3434 26.947ZM97.9712 28.195C97.2865 28.195 96.7123 28.0325 96.2487 27.7075C95.785 27.3825 95.4362 26.9405 95.2022 26.3815C94.9682 25.8182 94.8512 25.1877 94.8512 24.49C94.8512 23.7837 94.9682 23.151 95.2022 22.592C95.4362 22.033 95.7785 21.5932 96.2292 21.2725C96.6842 20.9475 97.2453 20.785 97.9127 20.785C98.5757 20.785 99.1498 20.9475 99.6352 21.2725C100.125 21.5932 100.504 22.033 100.773 22.592C101.041 23.1467 101.176 23.7793 101.176 24.49C101.176 25.192 101.044 25.8225 100.779 26.3815C100.515 26.9405 100.142 27.3825 99.6612 27.7075C99.1802 28.0325 98.6168 28.195 97.9712 28.195ZM94.5847 28V18.64H96.1642V23.073H95.9692V28H94.5847ZM97.7307 26.791C98.138 26.791 98.4738 26.6892 98.7382 26.4855C99.0025 26.2818 99.1975 26.0067 99.3232 25.66C99.4532 25.309 99.5182 24.919 99.5182 24.49C99.5182 24.0653 99.4532 23.6797 99.3232 23.333C99.1932 22.982 98.9917 22.7047 98.7187 22.501C98.4457 22.293 98.099 22.189 97.6787 22.189C97.28 22.189 96.955 22.2865 96.7037 22.4815C96.4523 22.6722 96.266 22.9408 96.1447 23.2875C96.0277 23.6298 95.9692 24.0307 95.9692 24.49C95.9692 24.945 96.0277 25.3458 96.1447 25.6925C96.266 26.0392 96.4545 26.31 96.7102 26.505C96.9702 26.6957 97.3103 26.791 97.7307 26.791ZM105.748 28.195C105.046 28.195 104.433 28.0368 103.908 27.7205C103.384 27.4042 102.977 26.9687 102.686 26.414C102.4 25.855 102.257 25.2137 102.257 24.49C102.257 23.7533 102.405 23.1077 102.699 22.553C102.994 21.9983 103.404 21.565 103.928 21.253C104.452 20.941 105.059 20.785 105.748 20.785C106.454 20.785 107.07 20.9432 107.594 21.2595C108.118 21.5758 108.526 22.0135 108.816 22.5725C109.106 23.1272 109.251 23.7663 109.251 24.49C109.251 25.218 109.104 25.8615 108.809 26.4205C108.519 26.9752 108.112 27.4107 107.587 27.727C107.063 28.039 106.45 28.195 105.748 28.195ZM105.748 26.726C106.372 26.726 106.836 26.518 107.139 26.102C107.442 25.686 107.594 25.1487 107.594 24.49C107.594 23.8097 107.44 23.268 107.132 22.865C106.825 22.4577 106.363 22.254 105.748 22.254C105.328 22.254 104.981 22.3493 104.708 22.54C104.439 22.7263 104.24 22.9885 104.11 23.3265C103.98 23.6602 103.915 24.048 103.915 24.49C103.915 25.1703 104.069 25.7142 104.376 26.1215C104.688 26.5245 105.146 26.726 105.748 26.726ZM110.723 28V20.98H112.107V22.6895L111.938 22.4685C112.025 22.2345 112.14 22.0222 112.283 21.8315C112.43 21.6365 112.605 21.4762 112.809 21.3505C112.982 21.2335 113.173 21.1425 113.381 21.0775C113.593 21.0082 113.81 20.967 114.031 20.954C114.252 20.9367 114.467 20.9453 114.675 20.98V22.4425C114.467 22.3818 114.226 22.3623 113.953 22.384C113.684 22.4057 113.442 22.4815 113.225 22.6115C113.008 22.7285 112.831 22.878 112.692 23.06C112.558 23.242 112.458 23.45 112.393 23.684C112.328 23.9137 112.296 24.1628 112.296 24.4315V28H110.723ZM121.41 28.195C120.764 28.195 120.201 28.0325 119.72 27.7075C119.239 27.3825 118.866 26.9405 118.602 26.3815C118.338 25.8225 118.205 25.192 118.205 24.49C118.205 23.7793 118.338 23.1467 118.602 22.592C118.871 22.033 119.25 21.5932 119.739 21.2725C120.229 20.9475 120.805 20.785 121.468 20.785C122.136 20.785 122.695 20.9475 123.145 21.2725C123.6 21.5932 123.945 22.033 124.179 22.592C124.413 23.151 124.53 23.7837 124.53 24.49C124.53 25.1877 124.413 25.8182 124.179 26.3815C123.945 26.9405 123.596 27.3825 123.132 27.7075C122.669 28.0325 122.095 28.195 121.41 28.195ZM121.65 26.791C122.071 26.791 122.409 26.6957 122.664 26.505C122.924 26.31 123.113 26.0392 123.23 25.6925C123.351 25.3458 123.412 24.945 123.412 24.49C123.412 24.0307 123.351 23.6298 123.23 23.2875C123.113 22.9408 122.929 22.6722 122.677 22.4815C122.426 22.2865 122.101 22.189 121.702 22.189C121.282 22.189 120.935 22.293 120.662 22.501C120.389 22.7047 120.188 22.982 120.058 23.333C119.928 23.6797 119.863 24.0653 119.863 24.49C119.863 24.919 119.926 25.309 120.051 25.66C120.181 26.0067 120.379 26.2818 120.643 26.4855C120.907 26.6892 121.243 26.791 121.65 26.791ZM123.412 28V23.073H123.217V18.64H124.796V28H123.412ZM129.849 28.195C129.139 28.195 128.515 28.0412 127.977 27.7335C127.44 27.4258 127.02 26.999 126.716 26.453C126.417 25.907 126.268 25.2787 126.268 24.568C126.268 23.801 126.415 23.1358 126.71 22.5725C127.005 22.0048 127.414 21.565 127.938 21.253C128.463 20.941 129.069 20.785 129.758 20.785C130.486 20.785 131.104 20.9562 131.611 21.2985C132.122 21.6365 132.501 22.1153 132.748 22.735C132.995 23.3547 133.089 24.0848 133.028 24.9255H131.474V24.3535C131.47 23.5908 131.336 23.034 131.071 22.683C130.807 22.332 130.391 22.1565 129.823 22.1565C129.182 22.1565 128.705 22.3558 128.393 22.7545C128.081 23.1488 127.925 23.7273 127.925 24.49C127.925 25.2007 128.081 25.751 128.393 26.141C128.705 26.531 129.16 26.726 129.758 26.726C130.144 26.726 130.476 26.6415 130.753 26.4725C131.035 26.2992 131.251 26.05 131.403 25.725L132.95 26.193C132.681 26.8257 132.265 27.3175 131.702 27.6685C131.143 28.0195 130.525 28.195 129.849 28.195ZM127.431 24.9255V23.7425H132.261V24.9255H127.431ZM137.289 28V18.445H138.855V28H137.289ZM143.942 28.195C143.24 28.195 142.627 28.0368 142.102 27.7205C141.578 27.4042 141.171 26.9687 140.88 26.414C140.594 25.855 140.451 25.2137 140.451 24.49C140.451 23.7533 140.599 23.1077 140.893 22.553C141.188 21.9983 141.597 21.565 142.122 21.253C142.646 20.941 143.253 20.785 143.942 20.785C144.648 20.785 145.263 20.9432 145.788 21.2595C146.312 21.5758 146.719 22.0135 147.01 22.5725C147.3 23.1272 147.445 23.7663 147.445 24.49C147.445 25.218 147.298 25.8615 147.003 26.4205C146.713 26.9752 146.306 27.4107 145.781 27.727C145.257 28.039 144.644 28.195 143.942 28.195ZM143.942 26.726C144.566 26.726 145.029 26.518 145.333 26.102C145.636 25.686 145.788 25.1487 145.788 24.49C145.788 23.8097 145.634 23.268 145.326 22.865C145.019 22.4577 144.557 22.254 143.942 22.254C143.521 22.254 143.175 22.3493 142.902 22.54C142.633 22.7263 142.434 22.9885 142.304 23.3265C142.174 23.6602 142.109 24.048 142.109 24.49C142.109 25.1703 142.263 25.7142 142.57 26.1215C142.882 26.5245 143.339 26.726 143.942 26.726ZM151.462 28.195C150.595 28.195 149.891 28 149.349 27.61C148.808 27.22 148.478 26.6718 148.361 25.9655L149.96 25.7185C150.043 26.0652 150.225 26.3382 150.506 26.5375C150.788 26.7368 151.143 26.8365 151.572 26.8365C151.949 26.8365 152.24 26.7628 152.443 26.6155C152.651 26.4638 152.755 26.258 152.755 25.998C152.755 25.8377 152.716 25.7098 152.638 25.6145C152.565 25.5148 152.4 25.4195 152.144 25.3285C151.889 25.2375 151.497 25.1227 150.968 24.984C150.379 24.828 149.911 24.6612 149.564 24.4835C149.217 24.3015 148.968 24.087 148.816 23.84C148.665 23.593 148.589 23.294 148.589 22.943C148.589 22.5053 148.704 22.124 148.933 21.799C149.163 21.474 149.484 21.2248 149.895 21.0515C150.307 20.8738 150.792 20.785 151.351 20.785C151.897 20.785 152.381 20.8695 152.801 21.0385C153.226 21.2075 153.568 21.448 153.828 21.76C154.088 22.072 154.248 22.4382 154.309 22.8585L152.71 23.1445C152.671 22.8455 152.534 22.6093 152.3 22.436C152.071 22.2627 151.763 22.1652 151.377 22.1435C151.009 22.1218 150.712 22.1782 150.487 22.3125C150.262 22.4425 150.149 22.6267 150.149 22.865C150.149 22.9993 150.194 23.1142 150.285 23.2095C150.376 23.3048 150.558 23.4002 150.831 23.4955C151.109 23.5908 151.52 23.7078 152.066 23.8465C152.625 23.9895 153.072 24.1542 153.405 24.3405C153.743 24.5225 153.986 24.7413 154.133 24.997C154.285 25.2527 154.361 25.5625 154.361 25.9265C154.361 26.6328 154.103 27.1875 153.587 27.5905C153.076 27.9935 152.368 28.195 151.462 28.195ZM160.428 28.195C159.921 28.195 159.492 28.0997 159.141 27.909C158.79 27.714 158.524 27.4562 158.342 27.1355C158.164 26.8148 158.075 26.4617 158.075 26.076C158.075 25.738 158.131 25.4347 158.244 25.166C158.357 24.893 158.53 24.659 158.764 24.464C158.998 24.2647 159.301 24.1022 159.674 23.9765C159.956 23.8855 160.285 23.8032 160.662 23.7295C161.043 23.6558 161.455 23.5887 161.897 23.528C162.343 23.463 162.809 23.3937 163.295 23.32L162.736 23.6385C162.74 23.1532 162.632 22.7957 162.411 22.566C162.19 22.3363 161.817 22.2215 161.293 22.2215C160.976 22.2215 160.671 22.2952 160.376 22.4425C160.081 22.5898 159.876 22.8433 159.759 23.203L158.329 22.7545C158.502 22.1608 158.831 21.6842 159.317 21.3245C159.806 20.9648 160.465 20.785 161.293 20.785C161.917 20.785 162.465 20.8868 162.937 21.0905C163.414 21.2942 163.767 21.6278 163.997 22.0915C164.122 22.3385 164.198 22.592 164.224 22.852C164.25 23.1077 164.263 23.3872 164.263 23.6905V28H162.892V26.479L163.119 26.726C162.803 27.233 162.432 27.6057 162.008 27.844C161.587 28.078 161.061 28.195 160.428 28.195ZM160.74 26.947C161.095 26.947 161.399 26.8842 161.65 26.7585C161.901 26.6328 162.101 26.479 162.248 26.297C162.4 26.115 162.502 25.9438 162.554 25.7835C162.636 25.5842 162.681 25.3567 162.69 25.101C162.703 24.841 162.71 24.6308 162.71 24.4705L163.191 24.6135C162.718 24.6872 162.313 24.7522 161.975 24.8085C161.637 24.8648 161.347 24.919 161.104 24.971C160.861 25.0187 160.647 25.0728 160.461 25.1335C160.279 25.1985 160.125 25.2743 159.999 25.361C159.873 25.4477 159.776 25.5473 159.707 25.66C159.642 25.7727 159.609 25.9048 159.609 26.0565C159.609 26.2298 159.652 26.3837 159.739 26.518C159.826 26.648 159.951 26.752 160.116 26.83C160.285 26.908 160.493 26.947 160.74 26.947ZM166.124 28V18.445H167.691V28H166.124ZM169.807 19.914V18.4775H171.373V19.914H169.807ZM169.807 28V20.98H171.373V28H169.807ZM181.79 28V23.736C181.79 23.255 181.671 22.8802 181.432 22.6115C181.194 22.3385 180.871 22.202 180.464 22.202C180.213 22.202 179.987 22.2605 179.788 22.3775C179.589 22.4902 179.43 22.6592 179.313 22.8845C179.196 23.1055 179.138 23.3698 179.138 23.6775L178.442 23.268C178.438 22.7827 178.546 22.3558 178.767 21.9875C178.993 21.6148 179.296 21.3245 179.677 21.1165C180.059 20.9085 180.483 20.8045 180.951 20.8045C181.727 20.8045 182.321 21.0385 182.732 21.5065C183.148 21.9702 183.356 22.5812 183.356 23.3395V28H181.79ZM173.346 28V20.98H174.731V23.1575H174.926V28H173.346ZM177.578 28V23.7555C177.578 23.2658 177.459 22.8845 177.22 22.6115C176.982 22.3385 176.657 22.202 176.245 22.202C175.847 22.202 175.526 22.3385 175.283 22.6115C175.045 22.8845 174.926 23.2398 174.926 23.6775L174.224 23.2095C174.224 22.7545 174.337 22.345 174.562 21.981C174.787 21.617 175.091 21.331 175.472 21.123C175.858 20.9107 176.289 20.8045 176.765 20.8045C177.29 20.8045 177.727 20.9172 178.078 21.1425C178.434 21.3635 178.698 21.6668 178.871 22.0525C179.049 22.4338 179.138 22.865 179.138 23.346V28H177.578ZM188.168 28.195C187.457 28.195 186.833 28.0412 186.296 27.7335C185.759 27.4258 185.338 26.999 185.035 26.453C184.736 25.907 184.587 25.2787 184.587 24.568C184.587 23.801 184.734 23.1358 185.029 22.5725C185.323 22.0048 185.733 21.565 186.257 21.253C186.781 20.941 187.388 20.785 188.077 20.785C188.805 20.785 189.423 20.9562 189.93 21.2985C190.441 21.6365 190.82 22.1153 191.067 22.735C191.314 23.3547 191.407 24.0848 191.347 24.9255H189.793V24.3535C189.789 23.5908 189.654 23.034 189.39 22.683C189.126 22.332 188.71 22.1565 188.142 22.1565C187.501 22.1565 187.024 22.3558 186.712 22.7545C186.4 23.1488 186.244 23.7273 186.244 24.49C186.244 25.2007 186.4 25.751 186.712 26.141C187.024 26.531 187.479 26.726 188.077 26.726C188.463 26.726 188.794 26.6415 189.072 26.4725C189.353 26.2992 189.57 26.05 189.722 25.725L191.269 26.193C191 26.8257 190.584 27.3175 190.021 27.6685C189.462 28.0195 188.844 28.195 188.168 28.195ZM185.75 24.9255V23.7425H190.58V24.9255H185.75ZM197.501 28V24.62C197.501 24.399 197.486 24.1542 197.455 23.8855C197.425 23.6168 197.354 23.359 197.241 23.112C197.133 22.8607 196.968 22.6548 196.747 22.4945C196.53 22.3342 196.236 22.254 195.863 22.254C195.664 22.254 195.466 22.2865 195.271 22.3515C195.076 22.4165 194.899 22.5292 194.738 22.6895C194.582 22.8455 194.457 23.0622 194.361 23.3395C194.266 23.6125 194.218 23.9635 194.218 24.3925L193.289 23.996C193.289 23.398 193.404 22.8563 193.633 22.371C193.867 21.8857 194.21 21.5 194.66 21.214C195.111 20.9237 195.666 20.7785 196.324 20.7785C196.844 20.7785 197.273 20.8652 197.611 21.0385C197.949 21.2118 198.218 21.4328 198.417 21.7015C198.617 21.9702 198.764 22.2562 198.859 22.5595C198.955 22.8628 199.015 23.151 199.041 23.424C199.072 23.6927 199.087 23.9115 199.087 24.0805V28H197.501ZM192.632 28V20.98H194.03V23.1575H194.218V28H192.632ZM204.937 28C204.473 28.0867 204.018 28.1235 203.572 28.1105C203.13 28.1018 202.733 28.0217 202.382 27.87C202.031 27.714 201.765 27.4692 201.583 27.1355C201.422 26.8322 201.338 26.5223 201.329 26.206C201.321 25.8897 201.316 25.5322 201.316 25.1335V19.03H202.876V25.0425C202.876 25.3242 202.878 25.5712 202.883 25.7835C202.891 25.9958 202.937 26.1692 203.019 26.3035C203.175 26.5635 203.424 26.7087 203.767 26.739C204.109 26.7693 204.499 26.752 204.937 26.687V28ZM200.042 22.2085V20.98H204.937V22.2085H200.042ZM209.23 28.195C208.528 28.195 207.915 28.0368 207.391 27.7205C206.866 27.4042 206.459 26.9687 206.169 26.414C205.883 25.855 205.74 25.2137 205.74 24.49C205.74 23.7533 205.887 23.1077 206.182 22.553C206.476 21.9983 206.886 21.565 207.41 21.253C207.935 20.941 208.541 20.785 209.23 20.785C209.937 20.785 210.552 20.9432 211.076 21.2595C211.601 21.5758 212.008 22.0135 212.298 22.5725C212.589 23.1272 212.734 23.7663 212.734 24.49C212.734 25.218 212.586 25.8615 212.292 26.4205C212.001 26.9752 211.594 27.4107 211.07 27.727C210.545 28.039 209.932 28.195 209.23 28.195ZM209.23 26.726C209.854 26.726 210.318 26.518 210.621 26.102C210.925 25.686 211.076 25.1487 211.076 24.49C211.076 23.8097 210.922 23.268 210.615 22.865C210.307 22.4577 209.846 22.254 209.23 22.254C208.81 22.254 208.463 22.3493 208.19 22.54C207.922 22.7263 207.722 22.9885 207.592 23.3265C207.462 23.6602 207.397 24.048 207.397 24.49C207.397 25.1703 207.551 25.7142 207.859 26.1215C208.171 26.5245 208.628 26.726 209.23 26.726ZM216.75 28.195C215.884 28.195 215.18 28 214.638 27.61C214.096 27.22 213.767 26.6718 213.65 25.9655L215.249 25.7185C215.331 26.0652 215.513 26.3382 215.795 26.5375C216.077 26.7368 216.432 26.8365 216.861 26.8365C217.238 26.8365 217.528 26.7628 217.732 26.6155C217.94 26.4638 218.044 26.258 218.044 25.998C218.044 25.8377 218.005 25.7098 217.927 25.6145C217.853 25.5148 217.689 25.4195 217.433 25.3285C217.177 25.2375 216.785 25.1227 216.256 24.984C215.667 24.828 215.199 24.6612 214.852 24.4835C214.506 24.3015 214.257 24.087 214.105 23.84C213.953 23.593 213.877 23.294 213.877 22.943C213.877 22.5053 213.992 22.124 214.222 21.799C214.452 21.474 214.772 21.2248 215.184 21.0515C215.596 20.8738 216.081 20.785 216.64 20.785C217.186 20.785 217.669 20.8695 218.089 21.0385C218.514 21.2075 218.856 21.448 219.116 21.76C219.376 22.072 219.537 22.4382 219.597 22.8585L217.998 23.1445C217.959 22.8455 217.823 22.6093 217.589 22.436C217.359 22.2627 217.052 22.1652 216.666 22.1435C216.298 22.1218 216.001 22.1782 215.775 22.3125C215.55 22.4425 215.437 22.6267 215.437 22.865C215.437 22.9993 215.483 23.1142 215.574 23.2095C215.665 23.3048 215.847 23.4002 216.12 23.4955C216.397 23.5908 216.809 23.7078 217.355 23.8465C217.914 23.9895 218.36 24.1542 218.694 24.3405C219.032 24.5225 219.275 24.7413 219.422 24.997C219.574 25.2527 219.649 25.5625 219.649 25.9265C219.649 26.6328 219.392 27.1875 218.876 27.5905C218.365 27.9935 217.656 28.195 216.75 28.195Z" fill="black"/>
<path d="M18.5825 105.521C18.5825 105.82 18.5543 106.111 18.498 106.392C18.4417 106.67 18.3442 106.928 18.2055 107.166C18.0928 107.396 17.965 107.58 17.822 107.718C17.679 107.853 17.5187 107.989 17.341 108.128C17.1633 108.262 16.964 108.444 16.743 108.674C16.574 108.869 16.4592 109.062 16.3985 109.252C16.3378 109.443 16.3075 109.651 16.3075 109.876C16.3075 110.019 16.3227 110.152 16.353 110.273C16.3877 110.399 16.4418 110.509 16.5155 110.605C16.6368 110.765 16.7928 110.878 16.9835 110.943C17.1785 111.012 17.3822 111.047 17.5945 111.047C17.7765 111.047 17.9498 111.023 18.1145 110.975C18.2792 110.932 18.4157 110.862 18.524 110.767C18.654 110.663 18.7493 110.533 18.81 110.377C18.8707 110.225 18.8967 110.061 18.888 109.883H20.539C20.4957 110.312 20.3787 110.713 20.188 111.086C19.9973 111.458 19.7417 111.755 19.421 111.976C19.174 112.154 18.8945 112.288 18.5825 112.379C18.2748 112.474 17.965 112.522 17.653 112.522C17.1763 112.522 16.7257 112.448 16.301 112.301C15.8807 112.154 15.5297 111.911 15.248 111.573C15.0573 111.352 14.91 111.094 14.806 110.8C14.702 110.509 14.65 110.217 14.65 109.922C14.65 109.476 14.7453 109.068 14.936 108.7C15.131 108.327 15.3758 107.987 15.6705 107.679C15.8092 107.532 15.9413 107.402 16.067 107.289C16.1927 107.177 16.3075 107.068 16.4115 106.964C16.5198 106.856 16.6108 106.743 16.6845 106.626C16.8058 106.423 16.8752 106.249 16.8925 106.106C16.9142 105.963 16.925 105.768 16.925 105.521H18.5825ZM18.576 102.98V104.702H16.925V102.98H18.576ZM29.46 110.195L26.7885 107.536L27.77 106.555L30.4285 109.213L29.46 110.195ZM26.093 110.195C25.157 110.195 24.3554 109.991 23.688 109.584C23.0207 109.172 22.5072 108.6 22.1475 107.868C21.7922 107.136 21.6145 106.286 21.6145 105.32C21.6145 104.354 21.7922 103.504 22.1475 102.772C22.5072 102.04 23.0207 101.47 23.688 101.062C24.3554 100.651 25.157 100.445 26.093 100.445C27.029 100.445 27.8307 100.651 28.498 101.062C29.1697 101.47 29.6832 102.04 30.0385 102.772C30.3982 103.504 30.578 104.354 30.578 105.32C30.578 106.286 30.3982 107.136 30.0385 107.868C29.6832 108.6 29.1697 109.172 28.498 109.584C27.8307 109.991 27.029 110.195 26.093 110.195ZM26.093 108.719C26.7214 108.724 27.2435 108.585 27.6595 108.303C28.0799 108.022 28.394 107.625 28.602 107.114C28.8144 106.603 28.9205 106.005 28.9205 105.32C28.9205 104.635 28.8144 104.042 28.602 103.539C28.394 103.032 28.0799 102.638 27.6595 102.356C27.2435 102.074 26.7214 101.929 26.093 101.92C25.4647 101.916 24.9425 102.055 24.5265 102.336C24.1105 102.618 23.7964 103.015 23.584 103.526C23.376 104.037 23.272 104.635 23.272 105.32C23.272 106.005 23.376 106.6 23.584 107.107C23.792 107.61 24.104 108.002 24.52 108.284C24.9404 108.566 25.4647 108.711 26.093 108.719ZM34.5434 110.202C34.0234 110.202 33.5944 110.115 33.2564 109.941C32.9184 109.768 32.6497 109.547 32.4504 109.278C32.251 109.01 32.1037 108.724 32.0084 108.42C31.913 108.117 31.8502 107.831 31.8199 107.562C31.7939 107.289 31.7809 107.068 31.7809 106.899V102.98H33.3669V106.36C33.3669 106.577 33.382 106.821 33.4124 107.094C33.4427 107.363 33.512 107.623 33.6204 107.874C33.733 108.121 33.8977 108.325 34.1144 108.485C34.3354 108.646 34.6322 108.726 35.0049 108.726C35.2042 108.726 35.4014 108.693 35.5964 108.628C35.7914 108.563 35.9669 108.453 36.1229 108.297C36.2832 108.137 36.411 107.918 36.5064 107.64C36.6017 107.363 36.6494 107.012 36.6494 106.587L37.5789 106.984C37.5789 107.582 37.4619 108.124 37.2279 108.609C36.9982 109.094 36.658 109.482 36.2074 109.772C35.7567 110.059 35.202 110.202 34.5434 110.202ZM36.8379 110V107.822H36.6494V102.98H38.2224V110H36.8379ZM43.279 110.195C42.5684 110.195 41.9444 110.041 41.407 109.733C40.8697 109.426 40.4494 108.999 40.146 108.453C39.847 107.907 39.6975 107.279 39.6975 106.568C39.6975 105.801 39.8449 105.136 40.1395 104.572C40.4342 104.005 40.8437 103.565 41.368 103.253C41.8924 102.941 42.499 102.785 43.188 102.785C43.916 102.785 44.5335 102.956 45.0405 103.298C45.5519 103.636 45.931 104.115 46.178 104.735C46.425 105.355 46.5182 106.085 46.4575 106.925H44.904V106.353C44.8997 105.591 44.7654 105.034 44.501 104.683C44.2367 104.332 43.8207 104.156 43.253 104.156C42.6117 104.156 42.135 104.356 41.823 104.754C41.511 105.149 41.355 105.727 41.355 106.49C41.355 107.201 41.511 107.751 41.823 108.141C42.135 108.531 42.59 108.726 43.188 108.726C43.5737 108.726 43.9052 108.641 44.1825 108.472C44.4642 108.299 44.6809 108.05 44.8325 107.725L46.3795 108.193C46.1109 108.826 45.6949 109.317 45.1315 109.668C44.5725 110.019 43.955 110.195 43.279 110.195ZM40.861 106.925V105.742H45.6905V106.925H40.861ZM54.7029 110C54.2392 110.087 53.7842 110.124 53.3379 110.111C52.8959 110.102 52.4994 110.022 52.1484 109.87C51.7974 109.714 51.5309 109.469 51.3489 109.135C51.1886 108.832 51.1041 108.522 51.0954 108.206C51.0867 107.89 51.0824 107.532 51.0824 107.133V101.03H52.6424V107.042C52.6424 107.324 52.6446 107.571 52.6489 107.783C52.6576 107.996 52.7031 108.169 52.7854 108.303C52.9414 108.563 53.1906 108.709 53.5329 108.739C53.8752 108.769 54.2652 108.752 54.7029 108.687V110ZM49.8084 104.208V102.98H54.7029V104.208H49.8084ZM59.0875 110.195C58.3768 110.195 57.7528 110.041 57.2155 109.733C56.6781 109.426 56.2578 108.999 55.9545 108.453C55.6555 107.907 55.506 107.279 55.506 106.568C55.506 105.801 55.6533 105.136 55.948 104.572C56.2426 104.005 56.6521 103.565 57.1765 103.253C57.7008 102.941 58.3075 102.785 58.9965 102.785C59.7245 102.785 60.342 102.956 60.849 103.298C61.3603 103.636 61.7395 104.115 61.9865 104.735C62.2335 105.355 62.3266 106.085 62.266 106.925H60.7125V106.353C60.7081 105.591 60.5738 105.034 60.3095 104.683C60.0451 104.332 59.6291 104.156 59.0615 104.156C58.4201 104.156 57.9435 104.356 57.6315 104.754C57.3195 105.149 57.1635 105.727 57.1635 106.49C57.1635 107.201 57.3195 107.751 57.6315 108.141C57.9435 108.531 58.3985 108.726 58.9965 108.726C59.3821 108.726 59.7136 108.641 59.991 108.472C60.2726 108.299 60.4893 108.05 60.641 107.725L62.188 108.193C61.9193 108.826 61.5033 109.317 60.94 109.668C60.381 110.019 59.7635 110.195 59.0875 110.195ZM56.6695 106.925V105.742H61.499V106.925H56.6695ZM69.7703 110.195C69.0856 110.195 68.5115 110.033 68.0478 109.707C67.5841 109.382 67.2353 108.94 67.0013 108.381C66.7673 107.818 66.6503 107.188 66.6503 106.49C66.6503 105.784 66.7673 105.151 67.0013 104.592C67.2353 104.033 67.5776 103.593 68.0283 103.272C68.4833 102.947 69.0445 102.785 69.7118 102.785C70.3748 102.785 70.949 102.947 71.4343 103.272C71.924 103.593 72.3031 104.033 72.5718 104.592C72.8405 105.147 72.9748 105.779 72.9748 106.49C72.9748 107.192 72.8426 107.822 72.5783 108.381C72.314 108.94 71.9413 109.382 71.4603 109.707C70.9793 110.033 70.416 110.195 69.7703 110.195ZM66.3838 113.12V102.98H67.7683V107.907H67.9633V113.12H66.3838ZM69.5298 108.791C69.9371 108.791 70.273 108.689 70.5373 108.485C70.8016 108.282 70.9966 108.007 71.1223 107.66C71.2523 107.309 71.3173 106.919 71.3173 106.49C71.3173 106.065 71.2523 105.68 71.1223 105.333C70.9923 104.982 70.7908 104.705 70.5178 104.501C70.2448 104.293 69.8981 104.189 69.4778 104.189C69.0791 104.189 68.7541 104.286 68.5028 104.481C68.2515 104.672 68.0651 104.941 67.9438 105.287C67.8268 105.63 67.7683 106.031 67.7683 106.49C67.7683 106.945 67.8268 107.346 67.9438 107.692C68.0651 108.039 68.2536 108.31 68.5093 108.505C68.7693 108.696 69.1095 108.791 69.5298 108.791ZM76.4095 110.195C75.9025 110.195 75.4735 110.1 75.1225 109.909C74.7715 109.714 74.505 109.456 74.323 109.135C74.1454 108.815 74.0565 108.462 74.0565 108.076C74.0565 107.738 74.1129 107.435 74.2255 107.166C74.3382 106.893 74.5115 106.659 74.7455 106.464C74.9795 106.265 75.2829 106.102 75.6555 105.976C75.9372 105.885 76.2665 105.803 76.6435 105.729C77.0249 105.656 77.4365 105.589 77.8785 105.528C78.3249 105.463 78.7907 105.394 79.276 105.32L78.717 105.638C78.7214 105.153 78.613 104.796 78.392 104.566C78.171 104.336 77.7984 104.221 77.274 104.221C76.9577 104.221 76.6522 104.295 76.3575 104.442C76.0629 104.59 75.857 104.843 75.74 105.203L74.31 104.754C74.4834 104.161 74.8127 103.684 75.298 103.324C75.7877 102.965 76.4464 102.785 77.274 102.785C77.898 102.785 78.4462 102.887 78.9185 103.09C79.3952 103.294 79.7484 103.628 79.978 104.091C80.1037 104.338 80.1795 104.592 80.2055 104.852C80.2315 105.108 80.2445 105.387 80.2445 105.69V110H78.873V108.479L79.1005 108.726C78.7842 109.233 78.4137 109.606 77.989 109.844C77.5687 110.078 77.0422 110.195 76.4095 110.195ZM76.7215 108.947C77.0769 108.947 77.3802 108.884 77.6315 108.758C77.8829 108.633 78.0822 108.479 78.2295 108.297C78.3812 108.115 78.483 107.944 78.535 107.783C78.6174 107.584 78.6629 107.357 78.6715 107.101C78.6845 106.841 78.691 106.631 78.691 106.47L79.172 106.613C78.6997 106.687 78.2945 106.752 77.9565 106.808C77.6185 106.865 77.3282 106.919 77.0855 106.971C76.8429 107.019 76.6284 107.073 76.442 107.133C76.26 107.198 76.1062 107.274 75.9805 107.361C75.8549 107.448 75.7574 107.547 75.688 107.66C75.623 107.773 75.5905 107.905 75.5905 108.056C75.5905 108.23 75.6339 108.384 75.7205 108.518C75.8072 108.648 75.9329 108.752 76.0975 108.83C76.2665 108.908 76.4745 108.947 76.7215 108.947ZM81.9758 110V102.98H83.3603V104.689L83.1913 104.468C83.2779 104.234 83.3928 104.022 83.5358 103.831C83.6831 103.636 83.8586 103.476 84.0623 103.35C84.2356 103.233 84.4263 103.142 84.6343 103.077C84.8466 103.008 85.0633 102.967 85.2843 102.954C85.5053 102.937 85.7198 102.945 85.9278 102.98V104.442C85.7198 104.382 85.4793 104.362 85.2063 104.384C84.9376 104.406 84.6949 104.481 84.4783 104.611C84.2616 104.728 84.0839 104.878 83.9453 105.06C83.8109 105.242 83.7113 105.45 83.6463 105.684C83.5813 105.914 83.5488 106.163 83.5488 106.431V110H81.9758ZM90.2717 110.195C89.561 110.195 88.937 110.041 88.3997 109.733C87.8624 109.426 87.442 108.999 87.1387 108.453C86.8397 107.907 86.6902 107.279 86.6902 106.568C86.6902 105.801 86.8375 105.136 87.1322 104.572C87.4269 104.005 87.8364 103.565 88.3607 103.253C88.885 102.941 89.4917 102.785 90.1807 102.785C90.9087 102.785 91.5262 102.956 92.0332 103.298C92.5445 103.636 92.9237 104.115 93.1707 104.735C93.4177 105.355 93.5109 106.085 93.4502 106.925H91.8967V106.353C91.8924 105.591 91.758 105.034 91.4937 104.683C91.2294 104.332 90.8134 104.156 90.2457 104.156C89.6044 104.156 89.1277 104.356 88.8157 104.754C88.5037 105.149 88.3477 105.727 88.3477 106.49C88.3477 107.201 88.5037 107.751 88.8157 108.141C89.1277 108.531 89.5827 108.726 90.1807 108.726C90.5664 108.726 90.8979 108.641 91.1752 108.472C91.4569 108.299 91.6735 108.05 91.8252 107.725L93.3722 108.193C93.1035 108.826 92.6875 109.317 92.1242 109.668C91.5652 110.019 90.9477 110.195 90.2717 110.195ZM87.8537 106.925V105.742H92.6832V106.925H87.8537ZM97.988 110.195C97.2644 110.195 96.6469 110.035 96.1355 109.714C95.6242 109.389 95.232 108.947 94.959 108.388C94.6904 107.829 94.5539 107.196 94.5495 106.49C94.5539 105.771 94.6947 105.134 94.972 104.579C95.2537 104.02 95.6524 103.582 96.168 103.266C96.6837 102.945 97.2969 102.785 98.0075 102.785C98.8049 102.785 99.4787 102.986 100.029 103.389C100.584 103.788 100.946 104.334 101.115 105.027L99.5545 105.45C99.4332 105.073 99.2317 104.78 98.95 104.572C98.6684 104.36 98.3477 104.254 97.988 104.254C97.5807 104.254 97.2449 104.351 96.9805 104.546C96.7162 104.737 96.5212 105.001 96.3955 105.339C96.2699 105.677 96.207 106.061 96.207 106.49C96.207 107.157 96.3565 107.697 96.6555 108.108C96.9545 108.52 97.3987 108.726 97.988 108.726C98.404 108.726 98.7312 108.631 98.9695 108.44C99.2122 108.249 99.3942 107.974 99.5155 107.614L101.115 107.972C100.898 108.687 100.519 109.237 99.977 109.623C99.4354 110.004 98.7724 110.195 97.988 110.195ZM102.396 101.914V100.477H103.962V101.914H102.396ZM102.396 110V102.98H103.962V110H102.396ZM109.666 101.972H108.477L109.478 99.5675H110.667L109.666 101.972ZM109.049 110.195C108.347 110.195 107.734 110.037 107.209 109.72C106.685 109.404 106.278 108.969 105.987 108.414C105.701 107.855 105.558 107.214 105.558 106.49C105.558 105.753 105.706 105.108 106 104.553C106.295 103.998 106.704 103.565 107.229 103.253C107.753 102.941 108.36 102.785 109.049 102.785C109.755 102.785 110.37 102.943 110.895 103.259C111.419 103.576 111.826 104.013 112.117 104.572C112.407 105.127 112.552 105.766 112.552 106.49C112.552 107.218 112.405 107.861 112.11 108.42C111.82 108.975 111.413 109.411 110.888 109.727C110.364 110.039 109.751 110.195 109.049 110.195ZM109.049 108.726C109.673 108.726 110.136 108.518 110.44 108.102C110.743 107.686 110.895 107.149 110.895 106.49C110.895 105.81 110.741 105.268 110.433 104.865C110.126 104.458 109.664 104.254 109.049 104.254C108.628 104.254 108.282 104.349 108.009 104.54C107.74 104.726 107.541 104.988 107.411 105.326C107.281 105.66 107.216 106.048 107.216 106.49C107.216 107.17 107.37 107.714 107.677 108.121C107.989 108.524 108.446 108.726 109.049 108.726ZM119.856 110.195C119.146 110.195 118.522 110.041 117.984 109.733C117.447 109.426 117.027 108.999 116.723 108.453C116.424 107.907 116.275 107.279 116.275 106.568C116.275 105.801 116.422 105.136 116.717 104.572C117.012 104.005 117.421 103.565 117.945 103.253C118.47 102.941 119.076 102.785 119.765 102.785C120.493 102.785 121.111 102.956 121.618 103.298C122.129 103.636 122.508 104.115 122.755 104.735C123.002 105.355 123.096 106.085 123.035 106.925H121.481V106.353C121.477 105.591 121.343 105.034 121.078 104.683C120.814 104.332 120.398 104.156 119.83 104.156C119.189 104.156 118.712 104.356 118.4 104.754C118.088 105.149 117.932 105.727 117.932 106.49C117.932 107.201 118.088 107.751 118.4 108.141C118.712 108.531 119.167 108.726 119.765 108.726C120.151 108.726 120.483 108.641 120.76 108.472C121.042 108.299 121.258 108.05 121.41 107.725L122.957 108.193C122.688 108.826 122.272 109.317 121.709 109.668C121.15 110.019 120.532 110.195 119.856 110.195ZM117.438 106.925V105.742H122.268V106.925H117.438ZM124.654 110V100.445H126.221V110H124.654ZM133.559 110.195C132.692 110.195 131.988 110 131.446 109.61C130.905 109.22 130.575 108.672 130.458 107.965L132.057 107.718C132.14 108.065 132.322 108.338 132.603 108.537C132.885 108.737 133.24 108.836 133.669 108.836C134.046 108.836 134.337 108.763 134.54 108.615C134.748 108.464 134.852 108.258 134.852 107.998C134.852 107.838 134.813 107.71 134.735 107.614C134.662 107.515 134.497 107.419 134.241 107.328C133.986 107.237 133.593 107.123 133.065 106.984C132.475 106.828 132.007 106.661 131.661 106.483C131.314 106.301 131.065 106.087 130.913 105.84C130.762 105.593 130.686 105.294 130.686 104.943C130.686 104.505 130.801 104.124 131.03 103.799C131.26 103.474 131.581 103.225 131.992 103.051C132.404 102.874 132.889 102.785 133.448 102.785C133.994 102.785 134.477 102.869 134.898 103.038C135.322 103.207 135.665 103.448 135.925 103.76C136.185 104.072 136.345 104.438 136.406 104.858L134.807 105.144C134.768 104.845 134.631 104.609 134.397 104.436C134.168 104.263 133.86 104.165 133.474 104.143C133.106 104.122 132.809 104.178 132.584 104.312C132.358 104.442 132.246 104.627 132.246 104.865C132.246 104.999 132.291 105.114 132.382 105.209C132.473 105.305 132.655 105.4 132.928 105.495C133.206 105.591 133.617 105.708 134.163 105.846C134.722 105.989 135.169 106.154 135.502 106.34C135.84 106.522 136.083 106.741 136.23 106.997C136.382 107.253 136.458 107.562 136.458 107.926C136.458 108.633 136.2 109.187 135.684 109.59C135.173 109.994 134.464 110.195 133.559 110.195ZM141.112 110.195C140.401 110.195 139.777 110.041 139.24 109.733C138.703 109.426 138.282 108.999 137.979 108.453C137.68 107.907 137.53 107.279 137.53 106.568C137.53 105.801 137.678 105.136 137.972 104.572C138.267 104.005 138.677 103.565 139.201 103.253C139.725 102.941 140.332 102.785 141.021 102.785C141.749 102.785 142.366 102.956 142.873 103.298C143.385 103.636 143.764 104.115 144.011 104.735C144.258 105.355 144.351 106.085 144.29 106.925H142.737V106.353C142.733 105.591 142.598 105.034 142.334 104.683C142.07 104.332 141.654 104.156 141.086 104.156C140.445 104.156 139.968 104.356 139.656 104.754C139.344 105.149 139.188 105.727 139.188 106.49C139.188 107.201 139.344 107.751 139.656 108.141C139.968 108.531 140.423 108.726 141.021 108.726C141.407 108.726 141.738 108.641 142.015 108.472C142.297 108.299 142.514 108.05 142.665 107.725L144.212 108.193C143.944 108.826 143.528 109.317 142.964 109.668C142.405 110.019 141.788 110.195 141.112 110.195ZM138.694 106.925V105.742H143.523V106.925H138.694ZM145.78 110V102.98H147.164V104.689L146.995 104.468C147.082 104.234 147.197 104.022 147.34 103.831C147.487 103.636 147.663 103.476 147.866 103.35C148.04 103.233 148.23 103.142 148.438 103.077C148.651 103.008 148.867 102.967 149.088 102.954C149.309 102.937 149.524 102.945 149.732 102.98V104.442C149.524 104.382 149.283 104.362 149.01 104.384C148.742 104.406 148.499 104.481 148.282 104.611C148.066 104.728 147.888 104.878 147.749 105.06C147.615 105.242 147.515 105.45 147.45 105.684C147.385 105.914 147.353 106.163 147.353 106.431V110H145.78ZM152.909 110L150.361 102.98H151.928L153.696 108.069L155.457 102.98H157.03L154.482 110H152.909ZM158.366 101.914V100.477H159.932V101.914H158.366ZM158.366 110V102.98H159.932V110H158.366ZM164.967 110.195C164.243 110.195 163.626 110.035 163.114 109.714C162.603 109.389 162.211 108.947 161.938 108.388C161.669 107.829 161.533 107.196 161.528 106.49C161.533 105.771 161.673 105.134 161.951 104.579C162.232 104.02 162.631 103.582 163.147 103.266C163.662 102.945 164.276 102.785 164.986 102.785C165.784 102.785 166.457 102.986 167.008 103.389C167.562 103.788 167.924 104.334 168.093 105.027L166.533 105.45C166.412 105.073 166.21 104.78 165.929 104.572C165.647 104.36 165.326 104.254 164.967 104.254C164.559 104.254 164.224 104.351 163.959 104.546C163.695 104.737 163.5 105.001 163.374 105.339C163.249 105.677 163.186 106.061 163.186 106.49C163.186 107.157 163.335 107.697 163.634 108.108C163.933 108.52 164.377 108.726 164.967 108.726C165.383 108.726 165.71 108.631 165.948 108.44C166.191 108.249 166.373 107.974 166.494 107.614L168.093 107.972C167.877 108.687 167.497 109.237 166.956 109.623C166.414 110.004 165.751 110.195 164.967 110.195ZM169.374 101.914V100.477H170.941V101.914H169.374ZM169.374 110V102.98H170.941V110H169.374ZM176.027 110.195C175.325 110.195 174.712 110.037 174.188 109.72C173.664 109.404 173.256 108.969 172.966 108.414C172.68 107.855 172.537 107.214 172.537 106.49C172.537 105.753 172.684 105.108 172.979 104.553C173.274 103.998 173.683 103.565 174.207 103.253C174.732 102.941 175.338 102.785 176.027 102.785C176.734 102.785 177.349 102.943 177.873 103.259C178.398 103.576 178.805 104.013 179.095 104.572C179.386 105.127 179.531 105.766 179.531 106.49C179.531 107.218 179.384 107.861 179.089 108.42C178.799 108.975 178.391 109.411 177.867 109.727C177.343 110.039 176.729 110.195 176.027 110.195ZM176.027 108.726C176.651 108.726 177.115 108.518 177.418 108.102C177.722 107.686 177.873 107.149 177.873 106.49C177.873 105.81 177.72 105.268 177.412 104.865C177.104 104.458 176.643 104.254 176.027 104.254C175.607 104.254 175.26 104.349 174.987 104.54C174.719 104.726 174.519 104.988 174.389 105.326C174.259 105.66 174.194 106.048 174.194 106.49C174.194 107.17 174.348 107.714 174.656 108.121C174.968 108.524 175.425 108.726 176.027 108.726ZM182.699 107.458C182.699 107.159 182.727 106.871 182.783 106.594C182.844 106.312 182.941 106.052 183.076 105.814C183.193 105.584 183.323 105.402 183.466 105.268C183.609 105.129 183.769 104.993 183.947 104.858C184.124 104.72 184.321 104.536 184.538 104.306C184.716 104.111 184.833 103.918 184.889 103.727C184.945 103.532 184.974 103.324 184.974 103.103C184.974 102.96 184.958 102.826 184.928 102.7C184.898 102.575 184.844 102.466 184.766 102.375C184.644 102.215 184.488 102.102 184.298 102.037C184.107 101.968 183.903 101.933 183.687 101.933C183.509 101.933 183.338 101.957 183.173 102.005C183.013 102.048 182.876 102.118 182.764 102.213C182.634 102.317 182.538 102.445 182.478 102.596C182.417 102.748 182.389 102.915 182.393 103.097H180.742C180.785 102.664 180.902 102.263 181.093 101.894C181.288 101.522 181.544 101.225 181.86 101.004C182.107 100.822 182.384 100.685 182.692 100.594C183.004 100.503 183.316 100.458 183.628 100.458C184.105 100.458 184.553 100.532 184.974 100.679C185.398 100.826 185.751 101.069 186.033 101.407C186.228 101.628 186.375 101.884 186.475 102.174C186.579 102.464 186.631 102.759 186.631 103.058C186.631 103.504 186.534 103.912 186.339 104.28C186.148 104.648 185.905 104.988 185.611 105.3C185.472 105.448 185.34 105.578 185.214 105.69C185.088 105.803 184.971 105.914 184.863 106.022C184.759 106.126 184.672 106.236 184.603 106.353C184.482 106.557 184.41 106.73 184.389 106.873C184.367 107.012 184.356 107.207 184.356 107.458H182.699ZM182.712 110V108.277H184.356V110H182.712Z" fill="black"/>
<path d="M206.171 72V70.096H200.85V67.937L204.709 59.76H207.361L203.502 67.937H206.171V64.877H208.517V67.937H209.605V70.096H208.517V72H206.171ZM211.742 72V69.688H214.054V72H211.742ZM221.403 72.255C220.497 72.255 219.703 72.0652 219.023 71.6855C218.343 71.3058 217.813 70.776 217.434 70.096C217.054 69.416 216.864 68.6227 216.864 67.716V64.044C216.864 63.1373 217.054 62.344 217.434 61.664C217.813 60.984 218.343 60.4542 219.023 60.0745C219.703 59.6948 220.497 59.505 221.403 59.505C222.31 59.505 223.103 59.6948 223.783 60.0745C224.463 60.4542 224.993 60.984 225.373 61.664C225.752 62.344 225.942 63.1373 225.942 64.044V67.716C225.942 68.6227 225.752 69.416 225.373 70.096C224.993 70.776 224.463 71.3058 223.783 71.6855C223.103 72.0652 222.31 72.255 221.403 72.255ZM221.403 70.062C221.811 70.062 222.18 69.9657 222.508 69.773C222.837 69.5803 223.098 69.3197 223.29 68.991C223.483 68.6623 223.579 68.294 223.579 67.886V63.857C223.579 63.449 223.483 63.0807 223.29 62.752C223.098 62.4233 222.837 62.1627 222.508 61.97C222.18 61.7773 221.811 61.681 221.403 61.681C220.995 61.681 220.627 61.7773 220.298 61.97C219.97 62.1627 219.709 62.4233 219.516 62.752C219.324 63.0807 219.227 63.449 219.227 63.857V67.886C219.227 68.294 219.324 68.6623 219.516 68.991C219.709 69.3197 219.97 69.5803 220.298 69.773C220.627 69.9657 220.995 70.062 221.403 70.062Z" fill="black"/>
<path d="M206.171 143V141.096H200.85V138.937L204.709 130.76H207.361L203.502 138.937H206.171V135.877H208.517V138.937H209.605V141.096H208.517V143H206.171ZM211.742 143V140.688H214.054V143H211.742ZM221.403 143.255C220.497 143.255 219.703 143.065 219.023 142.685C218.343 142.306 217.813 141.776 217.434 141.096C217.054 140.416 216.864 139.623 216.864 138.716V135.044C216.864 134.137 217.054 133.344 217.434 132.664C217.813 131.984 218.343 131.454 219.023 131.074C219.703 130.695 220.497 130.505 221.403 130.505C222.31 130.505 223.103 130.695 223.783 131.074C224.463 131.454 224.993 131.984 225.373 132.664C225.752 133.344 225.942 134.137 225.942 135.044V138.716C225.942 139.623 225.752 140.416 225.373 141.096C224.993 141.776 224.463 142.306 223.783 142.685C223.103 143.065 222.31 143.255 221.403 143.255ZM221.403 141.062C221.811 141.062 222.18 140.966 222.508 140.773C222.837 140.58 223.098 140.32 223.29 139.991C223.483 139.662 223.579 139.294 223.579 138.886V134.857C223.579 134.449 223.483 134.081 223.29 133.752C223.098 133.423 222.837 133.163 222.508 132.97C222.18 132.777 221.811 132.681 221.403 132.681C220.995 132.681 220.627 132.777 220.298 132.97C219.97 133.163 219.709 133.423 219.516 133.752C219.324 134.081 219.227 134.449 219.227 134.857V138.886C219.227 139.294 219.324 139.662 219.516 139.991C219.709 140.32 219.97 140.58 220.298 140.773C220.627 140.966 220.995 141.062 221.403 141.062Z" fill="black"/>
</g>
<defs>
<clipPath id="clip0_1600_16126">
<rect width="243" height="132" rx="5" fill="white"/>
</clipPath>
</defs>
</svg>
