<svg width="243" height="132" viewBox="0 0 243 132" fill="none" xmlns="http://www.w3.org/2000/svg">
<rect width="243" height="132" rx="5" fill="#F4F4F4"/>
<path d="M12.2504 19.9501H11.5619C11.5354 19.803 11.4861 19.6735 11.414 19.5617C11.3419 19.4499 11.2536 19.355 11.1492 19.277C11.0447 19.1991 10.9278 19.1402 10.7983 19.1005C10.6703 19.0608 10.5342 19.0409 10.39 19.0409C10.1296 19.0409 9.89642 19.1064 9.69045 19.2373C9.48595 19.3683 9.32411 19.5602 9.20494 19.8133C9.08724 20.0664 9.02839 20.3753 9.02839 20.7402C9.02839 21.108 9.08724 21.4184 9.20494 21.6715C9.32411 21.9245 9.48668 22.1158 9.69266 22.2453C9.89863 22.3747 10.1304 22.4395 10.3878 22.4395C10.5305 22.4395 10.6659 22.4203 10.7939 22.3821C10.9233 22.3424 11.0403 22.2842 11.1448 22.2077C11.2492 22.1312 11.3375 22.0378 11.4096 21.9275C11.4832 21.8157 11.5339 21.6877 11.5619 21.5435L12.2504 21.5457C12.2136 21.7678 12.1423 21.9723 12.0363 22.1592C11.9319 22.3446 11.7973 22.5049 11.6325 22.6403C11.4692 22.7742 11.2823 22.8779 11.0719 22.9514C10.8616 23.025 10.632 23.0618 10.3834 23.0618C9.99205 23.0618 9.64337 22.9691 9.33735 22.7837C9.03134 22.5969 8.79005 22.3299 8.61351 21.9826C8.43843 21.6354 8.35089 21.2213 8.35089 20.7402C8.35089 20.2576 8.43916 19.8435 8.61571 19.4977C8.79226 19.1505 9.03354 18.8842 9.33956 18.6988C9.64558 18.512 9.99353 18.4186 10.3834 18.4186C10.6232 18.4186 10.8468 18.4531 11.0543 18.5223C11.2632 18.59 11.4508 18.69 11.617 18.8224C11.7833 18.9534 11.9208 19.1137 12.0297 19.3035C12.1386 19.4918 12.2121 19.7074 12.2504 19.9501ZM14.4413 23.0684C14.1235 23.0684 13.8461 22.9956 13.6093 22.8499C13.3724 22.7043 13.1885 22.5005 13.0576 22.2386C12.9266 21.9768 12.8611 21.6707 12.8611 21.3206C12.8611 20.969 12.9266 20.6615 13.0576 20.3981C13.1885 20.1348 13.3724 19.9303 13.6093 19.7846C13.8461 19.639 14.1235 19.5661 14.4413 19.5661C14.759 19.5661 15.0364 19.639 15.2732 19.7846C15.5101 19.9303 15.694 20.1348 15.825 20.3981C15.9559 20.6615 16.0214 20.969 16.0214 21.3206C16.0214 21.6707 15.9559 21.9768 15.825 22.2386C15.694 22.5005 15.5101 22.7043 15.2732 22.8499C15.0364 22.9956 14.759 23.0684 14.4413 23.0684ZM14.4435 22.5145C14.6494 22.5145 14.8201 22.4601 14.9555 22.3512C15.0908 22.2423 15.1909 22.0974 15.2556 21.9164C15.3218 21.7355 15.3549 21.5361 15.3549 21.3184C15.3549 21.1021 15.3218 20.9035 15.2556 20.7225C15.1909 20.5401 15.0908 20.3937 14.9555 20.2834C14.8201 20.173 14.6494 20.1178 14.4435 20.1178C14.236 20.1178 14.0639 20.173 13.9271 20.2834C13.7917 20.3937 13.6909 20.5401 13.6247 20.7225C13.56 20.9035 13.5276 21.1021 13.5276 21.3184C13.5276 21.5361 13.56 21.7355 13.6247 21.9164C13.6909 22.0974 13.7917 22.2423 13.9271 22.3512C14.0639 22.4601 14.236 22.5145 14.4435 22.5145ZM17.4178 20.9873V23H16.7579V19.6103H17.3913V20.162H17.4332C17.5112 19.9825 17.6333 19.8383 17.7995 19.7294C17.9673 19.6206 18.1784 19.5661 18.4329 19.5661C18.6639 19.5661 18.8662 19.6147 19.0398 19.7118C19.2134 19.8074 19.348 19.9501 19.4436 20.1399C19.5393 20.3297 19.5871 20.5644 19.5871 20.8439V23H18.9272V20.9234C18.9272 20.6777 18.8632 20.4857 18.7352 20.3474C18.6072 20.2076 18.4314 20.1377 18.2078 20.1377C18.0548 20.1377 17.9187 20.1708 17.7995 20.237C17.6818 20.3032 17.5884 20.4003 17.5193 20.5283C17.4516 20.6548 17.4178 20.8079 17.4178 20.9873ZM23.0121 20.4378L22.4141 20.5438C22.3891 20.4673 22.3493 20.3944 22.2949 20.3253C22.2419 20.2561 22.1698 20.1995 22.0786 20.1554C21.9874 20.1112 21.8734 20.0892 21.7366 20.0892C21.5497 20.0892 21.3938 20.1311 21.2687 20.2149C21.1437 20.2973 21.0811 20.404 21.0811 20.5349C21.0811 20.6482 21.1231 20.7394 21.2069 20.8086C21.2908 20.8777 21.4261 20.9344 21.613 20.9785L22.1515 21.1021C22.4634 21.1742 22.6958 21.2853 22.8488 21.4353C23.0018 21.5854 23.0783 21.7803 23.0783 22.0202C23.0783 22.2232 23.0195 22.4041 22.9018 22.563C22.7856 22.7205 22.623 22.844 22.4141 22.9338C22.2066 23.0235 21.9661 23.0684 21.6924 23.0684C21.3128 23.0684 21.0032 22.9875 20.7633 22.8257C20.5235 22.6624 20.3764 22.4306 20.322 22.1305L20.9598 22.0334C20.9995 22.1996 21.0811 22.3254 21.2047 22.4108C21.3283 22.4946 21.4894 22.5366 21.688 22.5366C21.9043 22.5366 22.0772 22.4917 22.2066 22.4019C22.3361 22.3107 22.4008 22.1996 22.4008 22.0687C22.4008 21.9628 22.3611 21.8738 22.2817 21.8017C22.2037 21.7296 22.0838 21.6752 21.9219 21.6384L21.3482 21.5126C21.0318 21.4405 20.7979 21.3257 20.6464 21.1683C20.4963 21.0109 20.4213 20.8115 20.4213 20.5703C20.4213 20.3702 20.4772 20.1951 20.589 20.045C20.7008 19.895 20.8553 19.778 21.0524 19.6941C21.2496 19.6088 21.4754 19.5661 21.7299 19.5661C22.0963 19.5661 22.3846 19.6456 22.595 19.8045C22.8054 19.9619 22.9444 20.173 23.0121 20.4378ZM25.9511 21.5942V19.6103H26.6132V23H25.9643V22.413H25.929C25.8511 22.5939 25.726 22.7447 25.5539 22.8654C25.3832 22.9846 25.1706 23.0441 24.9161 23.0441C24.6983 23.0441 24.5056 22.9963 24.3379 22.9007C24.1716 22.8036 24.0407 22.6601 23.9451 22.4704C23.8509 22.2806 23.8038 22.0459 23.8038 21.7664V19.6103H24.4637V21.6869C24.4637 21.9179 24.5277 22.1018 24.6557 22.2386C24.7837 22.3755 24.9499 22.4439 25.1544 22.4439C25.278 22.4439 25.4009 22.413 25.523 22.3512C25.6466 22.2894 25.7488 22.196 25.8297 22.0709C25.9121 21.9459 25.9526 21.787 25.9511 21.5942ZM27.4998 23V19.6103H28.1331V20.162H28.1751C28.2457 19.9751 28.3612 19.8295 28.5215 19.725C28.6819 19.6191 28.8739 19.5661 29.0975 19.5661C29.3241 19.5661 29.5139 19.6191 29.6669 19.725C29.8214 19.831 29.9354 19.9766 30.009 20.162H30.0443C30.1252 19.981 30.2539 19.8368 30.4305 19.7294C30.607 19.6206 30.8174 19.5661 31.0616 19.5661C31.3691 19.5661 31.62 19.6625 31.8142 19.8552C32.0098 20.048 32.1077 20.3385 32.1077 20.7269V23H31.4478V20.7887C31.4478 20.5592 31.3853 20.393 31.2602 20.29C31.1352 20.187 30.9859 20.1355 30.8123 20.1355C30.5975 20.1355 30.4305 20.2017 30.3113 20.3341C30.1921 20.4651 30.1325 20.6335 30.1325 20.8395V23H29.4749V20.7468C29.4749 20.5629 29.4175 20.415 29.3028 20.3032C29.188 20.1914 29.0387 20.1355 28.8548 20.1355C28.7297 20.1355 28.6142 20.1686 28.5083 20.2348C28.4038 20.2995 28.3192 20.39 28.2545 20.5063C28.1912 20.6225 28.1596 20.7571 28.1596 20.9101V23H27.4998ZM34.4199 23.0684C34.1021 23.0684 33.8248 22.9956 33.5879 22.8499C33.3511 22.7043 33.1672 22.5005 33.0362 22.2386C32.9053 21.9768 32.8398 21.6707 32.8398 21.3206C32.8398 20.969 32.9053 20.6615 33.0362 20.3981C33.1672 20.1348 33.3511 19.9303 33.5879 19.7846C33.8248 19.639 34.1021 19.5661 34.4199 19.5661C34.7377 19.5661 35.015 19.639 35.2519 19.7846C35.4888 19.9303 35.6727 20.1348 35.8036 20.3981C35.9345 20.6615 36 20.969 36 21.3206C36 21.6707 35.9345 21.9768 35.8036 22.2386C35.6727 22.5005 35.4888 22.7043 35.2519 22.8499C35.015 22.9956 34.7377 23.0684 34.4199 23.0684ZM34.4221 22.5145C34.6281 22.5145 34.7988 22.4601 34.9341 22.3512C35.0695 22.2423 35.1695 22.0974 35.2342 21.9164C35.3004 21.7355 35.3335 21.5361 35.3335 21.3184C35.3335 21.1021 35.3004 20.9035 35.2342 20.7225C35.1695 20.5401 35.0695 20.3937 34.9341 20.2834C34.7988 20.173 34.6281 20.1178 34.4221 20.1178C34.2147 20.1178 34.0425 20.173 33.9057 20.2834C33.7704 20.3937 33.6696 20.5401 33.6034 20.7225C33.5386 20.9035 33.5063 21.1021 33.5063 21.3184C33.5063 21.5361 33.5386 21.7355 33.6034 21.9164C33.6696 22.0974 33.7704 22.2423 33.9057 22.3512C34.0425 22.4601 34.2147 22.5145 34.4221 22.5145Z" fill="#232F4E"/>
<path d="M9.86097 101.111V104.275H9.47786V101.513H9.45933L8.68693 102.026V101.637L9.47786 101.111H9.86097ZM11.8028 104.318C11.57 104.318 11.3718 104.255 11.208 104.128C11.0443 104.001 10.9192 103.816 10.8327 103.574C10.7461 103.331 10.7029 103.037 10.7029 102.693C10.7029 102.351 10.7461 102.059 10.8327 101.817C10.9202 101.574 11.0458 101.389 11.2096 101.261C11.3744 101.133 11.5721 101.068 11.8028 101.068C12.0335 101.068 12.2307 101.133 12.3944 101.261C12.5592 101.389 12.6849 101.574 12.7714 101.817C12.8589 102.059 12.9027 102.351 12.9027 102.693C12.9027 103.037 12.8594 103.331 12.7729 103.574C12.6864 103.816 12.5613 104.001 12.3975 104.128C12.2338 104.255 12.0355 104.318 11.8028 104.318ZM11.8028 103.979C12.0335 103.979 12.2127 103.867 12.3404 103.645C12.4681 103.422 12.5319 103.105 12.5319 102.693C12.5319 102.419 12.5026 102.186 12.4439 101.993C12.3862 101.801 12.3028 101.654 12.1936 101.553C12.0855 101.452 11.9552 101.402 11.8028 101.402C11.5742 101.402 11.3955 101.515 11.2667 101.74C11.138 101.965 11.0736 102.282 11.0736 102.693C11.0736 102.967 11.1025 103.2 11.1601 103.392C11.2178 103.583 11.3007 103.729 11.4089 103.829C11.518 103.929 11.6493 103.979 11.8028 103.979ZM13.5453 104.275V101.111H13.9284V102.681H13.9655L15.3867 101.111H15.8872L14.5587 102.539L15.8872 104.275H15.4238L14.3239 102.804L13.9284 103.249V104.275H13.5453Z" fill="#9AA2AC"/>
<path d="M9.13698 87.1849V86.9069L10.1813 85.7637C10.3038 85.6298 10.4047 85.5135 10.484 85.4146C10.5633 85.3147 10.622 85.221 10.6601 85.1334C10.6993 85.0449 10.7189 84.9522 10.7189 84.8554C10.7189 84.7442 10.6921 84.6479 10.6385 84.5665C10.586 84.4851 10.5139 84.4223 10.4222 84.378C10.3306 84.3338 10.2276 84.3116 10.1133 84.3116C9.99177 84.3116 9.88569 84.3368 9.79506 84.3873C9.70546 84.4367 9.63595 84.5063 9.58651 84.5959C9.53811 84.6855 9.51391 84.7905 9.51391 84.911H9.14934C9.14934 84.7256 9.19208 84.5629 9.27755 84.4228C9.36303 84.2828 9.47941 84.1736 9.62668 84.0953C9.77498 84.0171 9.9413 83.9779 10.1256 83.9779C10.311 83.9779 10.4753 84.0171 10.6184 84.0953C10.7616 84.1736 10.8738 84.2792 10.9552 84.412C11.0366 84.5449 11.0772 84.6927 11.0772 84.8554C11.0772 84.9718 11.0561 85.0856 11.0139 85.1968C10.9727 85.307 10.9006 85.43 10.7976 85.566C10.6957 85.7009 10.5541 85.8657 10.3728 86.0603L9.66221 86.8204V86.8451H11.1329V87.1849H9.13698ZM12.8028 87.2282C12.57 87.2282 12.3718 87.1649 12.208 87.0382C12.0443 86.9105 11.9192 86.7256 11.8327 86.4836C11.7461 86.2405 11.7029 85.947 11.7029 85.6031C11.7029 85.2611 11.7461 84.9692 11.8327 84.7272C11.9202 84.4841 12.0458 84.2987 12.2096 84.171C12.3744 84.0423 12.5721 83.9779 12.8028 83.9779C13.0335 83.9779 13.2307 84.0423 13.3944 84.171C13.5592 84.2987 13.6849 84.4841 13.7714 84.7272C13.8589 84.9692 13.9027 85.2611 13.9027 85.6031C13.9027 85.947 13.8594 86.2405 13.7729 86.4836C13.6864 86.7256 13.5613 86.9105 13.3975 87.0382C13.2338 87.1649 13.0355 87.2282 12.8028 87.2282ZM12.8028 86.8883C13.0335 86.8883 13.2127 86.7771 13.3404 86.5547C13.4681 86.3322 13.5319 86.015 13.5319 85.6031C13.5319 85.3291 13.5026 85.0959 13.4439 84.9033C13.3862 84.7107 13.3028 84.5639 13.1936 84.463C13.0855 84.3621 12.9552 84.3116 12.8028 84.3116C12.5742 84.3116 12.3955 84.4244 12.2667 84.6499C12.138 84.8744 12.0736 85.1921 12.0736 85.6031C12.0736 85.877 12.1025 86.1098 12.1601 86.3013C12.2178 86.4929 12.3007 86.6386 12.4089 86.7385C12.518 86.8384 12.6493 86.8883 12.8028 86.8883ZM14.5453 87.1849V84.0212H14.9284V85.5907H14.9655L16.3867 84.0212H16.8872L15.5587 85.4486L16.8872 87.1849H16.4238L15.3239 85.7143L14.9284 86.1592V87.1849H14.5453Z" fill="#9AA2AC"/>
<path d="M10.07 70.1379C9.86612 70.1379 9.68435 70.1028 9.52472 70.0328C9.36612 69.9628 9.23997 69.8655 9.14625 69.7408C9.05356 69.6152 9.0031 69.4695 8.99486 69.3037H9.38415C9.39239 69.4056 9.4274 69.4937 9.48919 69.5678C9.55098 69.6409 9.63183 69.6976 9.73173 69.7378C9.83162 69.7779 9.94233 69.798 10.0639 69.798C10.1998 69.798 10.3203 69.7743 10.4253 69.7269C10.5304 69.6796 10.6128 69.6137 10.6725 69.5292C10.7322 69.4448 10.7621 69.3469 10.7621 69.2357C10.7621 69.1193 10.7333 69.0169 10.6756 68.9283C10.6179 68.8387 10.5335 68.7687 10.4223 68.7182C10.311 68.6677 10.1751 68.6425 10.0144 68.6425H9.76108V68.3026H10.0144C10.1401 68.3026 10.2503 68.28 10.345 68.2347C10.4408 68.1894 10.5155 68.1255 10.569 68.0431C10.6236 67.9607 10.6509 67.8639 10.6509 67.7527C10.6509 67.6456 10.6272 67.5524 10.5798 67.4731C10.5324 67.3938 10.4655 67.332 10.379 67.2877C10.2935 67.2434 10.1926 67.2213 10.0762 67.2213C9.96705 67.2213 9.86406 67.2414 9.76726 67.2815C9.67148 67.3207 9.59321 67.3778 9.53245 67.453C9.47168 67.5272 9.43873 67.6167 9.43358 67.7218H9.06283C9.06901 67.556 9.11896 67.4108 9.21267 67.2862C9.30639 67.1605 9.42895 67.0627 9.58034 66.9927C9.73276 66.9226 9.90011 66.8876 10.0824 66.8876C10.2781 66.8876 10.4459 66.9273 10.586 67.0066C10.7261 67.0848 10.8337 67.1883 10.9089 67.3171C10.984 67.4458 11.0216 67.5848 11.0216 67.7342C11.0216 67.9123 10.9748 68.0642 10.8811 68.1899C10.7884 68.3155 10.6622 68.4025 10.5026 68.4509V68.4757C10.7024 68.5086 10.8584 68.5936 10.9707 68.7305C11.0829 68.8665 11.139 69.0349 11.139 69.2357C11.139 69.4077 11.0922 69.5622 10.9985 69.6991C10.9058 69.8351 10.7791 69.9422 10.6184 70.0205C10.4578 70.0987 10.275 70.1379 10.07 70.1379ZM12.8028 70.1379C12.57 70.1379 12.3718 70.0745 12.208 69.9478C12.0443 69.8201 11.9192 69.6353 11.8327 69.3933C11.7461 69.1502 11.7029 68.8567 11.7029 68.5127C11.7029 68.1708 11.7461 67.8788 11.8327 67.6368C11.9202 67.3938 12.0458 67.2084 12.2096 67.0807C12.3744 66.952 12.5721 66.8876 12.8028 66.8876C13.0335 66.8876 13.2307 66.952 13.3944 67.0807C13.5592 67.2084 13.6849 67.3938 13.7714 67.6368C13.8589 67.8788 13.9027 68.1708 13.9027 68.5127C13.9027 68.8567 13.8594 69.1502 13.7729 69.3933C13.6864 69.6353 13.5613 69.8201 13.3975 69.9478C13.2338 70.0745 13.0355 70.1379 12.8028 70.1379ZM12.8028 69.798C13.0335 69.798 13.2127 69.6868 13.3404 69.4643C13.4681 69.2419 13.5319 68.9247 13.5319 68.5127C13.5319 68.2388 13.5026 68.0055 13.4439 67.8129C13.3862 67.6204 13.3028 67.4736 13.1936 67.3727C13.0855 67.2717 12.9552 67.2213 12.8028 67.2213C12.5742 67.2213 12.3955 67.3341 12.2667 67.5596C12.138 67.7841 12.0736 68.1018 12.0736 68.5127C12.0736 68.7867 12.1025 69.0194 12.1601 69.211C12.2178 69.4025 12.3007 69.5483 12.4089 69.6482C12.518 69.7481 12.6493 69.798 12.8028 69.798ZM14.5453 70.0946V66.9309H14.9284V68.5004H14.9655L16.3867 66.9309H16.8872L15.5587 68.3583L16.8872 70.0946H16.4238L15.3239 68.624L14.9284 69.0689V70.0946H14.5453Z" fill="#9AA2AC"/>
<path d="M8.90564 52.357V52.0419L10.296 49.8421H10.5246V50.3303H10.3701L9.31965 51.9925V52.0172H11.1919V52.357H8.90564ZM10.3948 53.0059V52.2613V52.1145V49.8421H10.7594V53.0059H10.3948ZM12.8028 53.0491C12.57 53.0491 12.3718 52.9858 12.208 52.8591C12.0443 52.7314 11.9192 52.5465 11.8327 52.3045C11.7461 52.0615 11.7029 51.768 11.7029 51.424C11.7029 51.0821 11.7461 50.7901 11.8327 50.5481C11.9202 50.305 12.0458 50.1197 12.2096 49.992C12.3744 49.8632 12.5721 49.7989 12.8028 49.7989C13.0335 49.7989 13.2307 49.8632 13.3944 49.992C13.5592 50.1197 13.6849 50.305 13.7714 50.5481C13.8589 50.7901 13.9027 51.0821 13.9027 51.424C13.9027 51.768 13.8594 52.0615 13.7729 52.3045C13.6864 52.5465 13.5613 52.7314 13.3975 52.8591C13.2338 52.9858 13.0355 53.0491 12.8028 53.0491ZM12.8028 52.7093C13.0335 52.7093 13.2127 52.598 13.3404 52.3756C13.4681 52.1531 13.5319 51.8359 13.5319 51.424C13.5319 51.15 13.5026 50.9168 13.4439 50.7242C13.3862 50.5316 13.3028 50.3849 13.1936 50.2839C13.0855 50.183 12.9552 50.1325 12.8028 50.1325C12.5742 50.1325 12.3955 50.2453 12.2667 50.4708C12.138 50.6954 12.0736 51.0131 12.0736 51.424C12.0736 51.6979 12.1025 51.9307 12.1601 52.1222C12.2178 52.3138 12.3007 52.4595 12.4089 52.5594C12.518 52.6593 12.6493 52.7093 12.8028 52.7093ZM14.5453 53.0059V49.8421H14.9284V51.4116H14.9655L16.3867 49.8421H16.8872L15.5587 51.2695L16.8872 53.0059H16.4238L15.3239 51.5352L14.9284 51.9801V53.0059H14.5453Z" fill="#9AA2AC"/>
<path d="M10.1129 35.9589C9.93165 35.9589 9.76841 35.9229 9.6232 35.8508C9.47799 35.7787 9.36162 35.6798 9.27408 35.5542C9.18654 35.4285 9.13865 35.2854 9.13041 35.1247H9.50116C9.51558 35.2679 9.58046 35.3863 9.69581 35.48C9.81218 35.5727 9.95122 35.619 10.1129 35.619C10.2427 35.619 10.358 35.5887 10.4589 35.5279C10.5609 35.4671 10.6407 35.3837 10.6984 35.2776C10.7571 35.1705 10.7864 35.0495 10.7864 34.9146C10.7864 34.7766 10.7561 34.6535 10.6953 34.5454C10.6356 34.4362 10.5532 34.3503 10.4481 34.2874C10.3431 34.2246 10.2231 34.1927 10.0882 34.1917C9.99138 34.1906 9.892 34.2056 9.79004 34.2365C9.68809 34.2663 9.60415 34.3049 9.53824 34.3523L9.17985 34.3091L9.3714 32.7519H11.0151V33.0918H9.69272L9.58149 34.0248H9.60003C9.66491 33.9733 9.74627 33.9306 9.84411 33.8966C9.94195 33.8626 10.0439 33.8456 10.15 33.8456C10.3436 33.8456 10.5161 33.892 10.6675 33.9847C10.8199 34.0763 10.9394 34.202 11.0259 34.3616C11.1134 34.5212 11.1572 34.7035 11.1572 34.9084C11.1572 35.1103 11.1119 35.2905 11.0212 35.4491C10.9316 35.6067 10.8081 35.7313 10.6505 35.823C10.4929 35.9136 10.3137 35.9589 10.1129 35.9589ZM12.8028 35.9589C12.57 35.9589 12.3718 35.8956 12.208 35.7689C12.0443 35.6412 11.9192 35.4563 11.8327 35.2143C11.7461 34.9713 11.7029 34.6778 11.7029 34.3338C11.7029 33.9919 11.7461 33.6999 11.8327 33.4579C11.9202 33.2148 12.0458 33.0295 12.2096 32.9017C12.3744 32.773 12.5721 32.7086 12.8028 32.7086C13.0335 32.7086 13.2307 32.773 13.3944 32.9017C13.5592 33.0295 13.6849 33.2148 13.7714 33.4579C13.8589 33.6999 13.9027 33.9919 13.9027 34.3338C13.9027 34.6778 13.8594 34.9713 13.7729 35.2143C13.6864 35.4563 13.5613 35.6412 13.3975 35.7689C13.2338 35.8956 13.0355 35.9589 12.8028 35.9589ZM12.8028 35.619C13.0335 35.619 13.2127 35.5078 13.3404 35.2854C13.4681 35.0629 13.5319 34.7457 13.5319 34.3338C13.5319 34.0598 13.5026 33.8266 13.4439 33.634C13.3862 33.4414 13.3028 33.2946 13.1936 33.1937C13.0855 33.0928 12.9552 33.0423 12.8028 33.0423C12.5742 33.0423 12.3955 33.1551 12.2667 33.3806C12.138 33.6051 12.0736 33.9229 12.0736 34.3338C12.0736 34.6077 12.1025 34.8405 12.1601 35.032C12.2178 35.2236 12.3007 35.3693 12.4089 35.4692C12.518 35.5691 12.6493 35.619 12.8028 35.619ZM14.5453 35.9156V32.7519H14.9284V34.3214H14.9655L16.3867 32.7519H16.8872L15.5587 34.1793L16.8872 35.9156H16.4238L15.3239 34.445L14.9284 34.8899V35.9156H14.5453Z" fill="#9AA2AC"/>
<path d="M8 43.1011H231.411" stroke="#EBEBEB" stroke-width="0.466088" stroke-dasharray="3.73 3.73"/>
<path d="M8 60.1913H231.411" stroke="#EBEBEB" stroke-width="0.466088" stroke-dasharray="3.73 3.73"/>
<path d="M8 77.2815H231.411" stroke="#EBEBEB" stroke-width="0.466088" stroke-dasharray="3.73 3.73"/>
<path d="M8 94.3718H231.411" stroke="#EBEBEB" stroke-width="0.466088" stroke-dasharray="3.73 3.73"/>
<path d="M33.8441 114.528H32.8678V111.364H33.8874C34.1943 111.364 34.4569 111.427 34.6752 111.554C34.8936 111.68 35.0609 111.86 35.1773 112.096C35.2937 112.331 35.3519 112.612 35.3519 112.94C35.3519 113.269 35.2932 113.553 35.1758 113.791C35.0584 114.028 34.8874 114.21 34.6629 114.338C34.4384 114.464 34.1655 114.528 33.8441 114.528ZM33.2509 114.188H33.8194C34.081 114.188 34.2978 114.138 34.4698 114.037C34.6418 113.936 34.77 113.792 34.8544 113.606C34.9389 113.419 34.9811 113.197 34.9811 112.94C34.9811 112.684 34.9394 112.464 34.856 112.28C34.7726 112.095 34.648 111.953 34.4821 111.854C34.3163 111.754 34.1099 111.704 33.8627 111.704H33.2509V114.188ZM36.909 114.577C36.6948 114.577 36.5069 114.526 36.3452 114.424C36.1845 114.322 36.0589 114.18 35.9682 113.996C35.8786 113.813 35.8338 113.599 35.8338 113.354C35.8338 113.107 35.8786 112.891 35.9682 112.707C36.0589 112.522 36.1845 112.379 36.3452 112.277C36.5069 112.175 36.6948 112.124 36.909 112.124C37.1232 112.124 37.3107 112.175 37.4713 112.277C37.633 112.379 37.7587 112.522 37.8483 112.707C37.9389 112.891 37.9842 113.107 37.9842 113.354C37.9842 113.599 37.9389 113.813 37.8483 113.996C37.7587 114.18 37.633 114.322 37.4713 114.424C37.3107 114.526 37.1232 114.577 36.909 114.577ZM36.909 114.25C37.0717 114.25 37.2056 114.208 37.3107 114.125C37.4157 114.041 37.4935 113.932 37.5439 113.796C37.5944 113.66 37.6196 113.512 37.6196 113.354C37.6196 113.195 37.5944 113.047 37.5439 112.91C37.4935 112.773 37.4157 112.663 37.3107 112.578C37.2056 112.494 37.0717 112.452 36.909 112.452C36.7463 112.452 36.6124 112.494 36.5074 112.578C36.4023 112.663 36.3246 112.773 36.2741 112.91C36.2236 113.047 36.1984 113.195 36.1984 113.354C36.1984 113.512 36.2236 113.66 36.2741 113.796C36.3246 113.932 36.4023 114.041 36.5074 114.125C36.6124 114.208 36.7463 114.25 36.909 114.25ZM38.5407 114.528V112.155H38.8929V112.526H38.9238C38.9733 112.399 39.0531 112.301 39.1633 112.231C39.2735 112.16 39.4058 112.124 39.5603 112.124C39.7168 112.124 39.8471 112.16 39.9511 112.231C40.0562 112.301 40.138 112.399 40.1967 112.526H40.2215C40.2822 112.403 40.3734 112.306 40.4949 112.234C40.6164 112.161 40.7621 112.124 40.9321 112.124C41.1442 112.124 41.3177 112.191 41.4527 112.323C41.5876 112.455 41.655 112.661 41.655 112.94V114.528H41.2905V112.94C41.2905 112.765 41.2426 112.64 41.1468 112.564C41.051 112.489 40.9382 112.452 40.8085 112.452C40.6416 112.452 40.5124 112.502 40.4207 112.603C40.3291 112.703 40.2832 112.83 40.2832 112.983V114.528H39.9125V112.903C39.9125 112.768 39.8687 112.659 39.7812 112.577C39.6937 112.493 39.5809 112.452 39.4429 112.452C39.3481 112.452 39.2596 112.477 39.1772 112.527C39.0958 112.578 39.0299 112.648 38.9794 112.737C38.93 112.826 38.9053 112.928 38.9053 113.045V114.528H38.5407Z" fill="#9AA2AC"/>
<rect x="28.8184" y="78.8333" width="7.4574" height="26.1009" rx="0.932175" fill="#60D2F9"/>
<rect x="37.5195" y="64.8512" width="7.4574" height="40.0835" rx="0.932175" fill="#3C5CC5"/>
<path d="M65.5696 114.529V111.365H65.9527V114.189H67.4234V114.529H65.5696ZM69.4625 113.559V112.156H69.8271V114.529H69.4625V114.128H69.4378C69.3822 114.248 69.2957 114.35 69.1783 114.435C69.0609 114.518 68.9126 114.56 68.7334 114.56C68.5851 114.56 68.4532 114.528 68.3379 114.463C68.2226 114.397 68.1319 114.298 68.066 114.166C68.0001 114.033 67.9671 113.866 67.9671 113.664V112.156H68.3317V113.639C68.3317 113.812 68.3801 113.95 68.4769 114.053C68.5748 114.156 68.6994 114.208 68.8508 114.208C68.9414 114.208 69.0336 114.185 69.1273 114.138C69.222 114.092 69.3013 114.021 69.3652 113.925C69.4301 113.829 69.4625 113.707 69.4625 113.559Z" fill="#9AA2AC"/>
<rect x="59.8906" y="71.3787" width="7.4574" height="33.5583" rx="0.932175" fill="#60D2F9"/>
<rect x="68.5918" y="58.9491" width="7.4574" height="45.9873" rx="0.932175" fill="#3C5CC5"/>
<path d="M95.1046 111.365H95.5618L96.637 113.991H96.6741L97.7493 111.365H98.2065V114.528H97.8481V112.125H97.8172L96.8286 114.528H96.4825L95.4939 112.125H95.463V114.528H95.1046V111.365ZM99.6235 114.584C99.4731 114.584 99.3367 114.556 99.2141 114.499C99.0916 114.441 98.9943 114.358 98.9222 114.25C98.8501 114.141 98.814 114.009 98.814 113.855C98.814 113.719 98.8408 113.609 98.8944 113.524C98.9479 113.439 99.0195 113.372 99.1091 113.323C99.1987 113.275 99.2975 113.239 99.4057 113.215C99.5148 113.191 99.6245 113.171 99.7347 113.157C99.8789 113.138 99.9958 113.124 100.085 113.115C100.176 113.105 100.242 113.088 100.283 113.064C100.325 113.04 100.346 112.999 100.346 112.94V112.928C100.346 112.775 100.305 112.657 100.221 112.573C100.139 112.488 100.014 112.446 99.8459 112.446C99.6719 112.446 99.5354 112.484 99.4366 112.56C99.3377 112.636 99.2682 112.718 99.228 112.804L98.882 112.681C98.9438 112.537 99.0262 112.424 99.1292 112.344C99.2332 112.263 99.3465 112.206 99.469 112.174C99.5926 112.141 99.7141 112.125 99.8336 112.125C99.9098 112.125 99.9973 112.134 100.096 112.152C100.196 112.17 100.292 112.206 100.385 112.262C100.479 112.318 100.557 112.402 100.618 112.514C100.68 112.626 100.711 112.777 100.711 112.965V114.528H100.346V114.207H100.328C100.303 114.258 100.262 114.314 100.204 114.372C100.147 114.431 100.07 114.481 99.9742 114.522C99.8784 114.563 99.7615 114.584 99.6235 114.584ZM99.6791 114.256C99.8233 114.256 99.9448 114.228 100.044 114.171C100.144 114.115 100.219 114.042 100.269 113.952C100.321 113.863 100.346 113.768 100.346 113.669V113.336C100.331 113.354 100.297 113.371 100.245 113.387C100.193 113.401 100.133 113.414 100.065 113.425C99.9984 113.436 99.933 113.445 99.8691 113.453C99.8063 113.46 99.7553 113.467 99.7162 113.472C99.6214 113.484 99.5329 113.504 99.4505 113.532C99.3691 113.559 99.3032 113.599 99.2527 113.654C99.2033 113.708 99.1786 113.781 99.1786 113.873C99.1786 114 99.2255 114.096 99.3192 114.161C99.4139 114.225 99.5339 114.256 99.6791 114.256ZM101.376 114.528V112.156H101.729V112.514H101.753C101.797 112.396 101.875 112.301 101.988 112.228C102.101 112.155 102.229 112.118 102.371 112.118C102.398 112.118 102.432 112.119 102.472 112.12C102.512 112.121 102.542 112.123 102.563 112.125V112.495C102.551 112.492 102.522 112.488 102.478 112.481C102.435 112.474 102.389 112.471 102.34 112.471C102.225 112.471 102.122 112.495 102.031 112.543C101.942 112.591 101.871 112.657 101.818 112.741C101.767 112.824 101.741 112.92 101.741 113.027V114.528H101.376Z" fill="#9AA2AC"/>
<rect x="90.9629" y="67.3379" width="7.4574" height="37.5977" rx="0.932175" fill="#60D2F9"/>
<rect x="99.6641" y="53.6656" width="7.4574" height="51.2696" rx="0.932175" fill="#3C5CC5"/>
<path d="M126.31 111.364H126.767L127.842 113.99H127.879L128.954 111.364H129.412V114.528H129.053V112.124H129.022L128.034 114.528H127.688L126.699 112.124H126.668V114.528H126.31V111.364ZM130.13 114.528V112.155H130.495V114.528H130.13ZM130.316 111.76C130.245 111.76 130.183 111.736 130.132 111.687C130.082 111.639 130.056 111.581 130.056 111.513C130.056 111.445 130.082 111.386 130.132 111.338C130.183 111.29 130.245 111.265 130.316 111.265C130.387 111.265 130.448 111.29 130.498 111.338C130.55 111.386 130.575 111.445 130.575 111.513C130.575 111.581 130.55 111.639 130.498 111.687C130.448 111.736 130.387 111.76 130.316 111.76ZM132.158 114.578C131.929 114.578 131.732 114.527 131.566 114.426C131.401 114.324 131.274 114.182 131.184 114C131.096 113.816 131.052 113.603 131.052 113.36C131.052 113.117 131.096 112.903 131.184 112.718C131.274 112.531 131.399 112.386 131.558 112.282C131.719 112.177 131.906 112.124 132.121 112.124C132.244 112.124 132.366 112.145 132.487 112.186C132.607 112.227 132.717 112.294 132.816 112.387C132.915 112.479 132.993 112.6 133.052 112.752C133.111 112.903 133.14 113.089 133.14 113.311V113.465H131.311V113.15H132.769C132.769 113.016 132.743 112.897 132.689 112.792C132.637 112.687 132.561 112.604 132.463 112.543C132.367 112.482 132.252 112.452 132.121 112.452C131.975 112.452 131.85 112.488 131.744 112.56C131.639 112.631 131.558 112.724 131.501 112.838C131.444 112.952 131.416 113.075 131.416 113.206V113.416C131.416 113.595 131.447 113.747 131.509 113.872C131.572 113.995 131.659 114.089 131.77 114.154C131.881 114.218 132.01 114.25 132.158 114.25C132.253 114.25 132.34 114.237 132.417 114.21C132.495 114.182 132.563 114.141 132.62 114.086C132.676 114.031 132.72 113.962 132.751 113.879L133.103 113.978C133.066 114.098 133.004 114.203 132.916 114.293C132.829 114.383 132.72 114.453 132.592 114.503C132.463 114.553 132.318 114.578 132.158 114.578ZM133.695 114.528V112.155H134.047V112.514H134.072C134.115 112.396 134.193 112.301 134.306 112.228C134.42 112.155 134.547 112.118 134.69 112.118C134.716 112.118 134.75 112.119 134.79 112.12C134.83 112.121 134.86 112.122 134.881 112.124V112.495C134.869 112.492 134.84 112.487 134.796 112.481C134.753 112.474 134.707 112.47 134.659 112.47C134.543 112.47 134.44 112.495 134.35 112.543C134.26 112.59 134.189 112.656 134.137 112.741C134.085 112.824 134.059 112.919 134.059 113.027V114.528H133.695Z" fill="#9AA2AC"/>
<rect x="122.035" y="55.2188" width="7.4574" height="49.716" rx="0.932175" fill="#60D2F9"/>
<rect x="130.736" y="36.5745" width="7.4574" height="68.3595" rx="0.932175" fill="#3C5CC5"/>
<path d="M159.34 111.365H159.724V113.626C159.724 113.828 159.686 113.999 159.612 114.141C159.538 114.282 159.434 114.389 159.299 114.462C159.164 114.535 159.005 114.572 158.821 114.572C158.648 114.572 158.494 114.54 158.36 114.477C158.225 114.413 158.119 114.323 158.041 114.205C157.964 114.088 157.925 113.949 157.925 113.787H158.302C158.302 113.876 158.325 113.955 158.369 114.022C158.414 114.088 158.476 114.139 158.554 114.176C158.632 114.213 158.722 114.232 158.821 114.232C158.932 114.232 159.025 114.209 159.103 114.162C159.18 114.116 159.239 114.048 159.279 113.958C159.32 113.868 159.34 113.757 159.34 113.626V111.365ZM161.937 113.558V112.156H162.302V114.528H161.937V114.127H161.913C161.857 114.247 161.77 114.35 161.653 114.434C161.536 114.518 161.387 114.559 161.208 114.559C161.06 114.559 160.928 114.527 160.813 114.462C160.697 114.396 160.607 114.297 160.541 114.165C160.475 114.032 160.442 113.865 160.442 113.663V112.156H160.806V113.639C160.806 113.812 160.855 113.95 160.952 114.053C161.05 114.156 161.174 114.207 161.326 114.207C161.416 114.207 161.508 114.184 161.602 114.137C161.697 114.091 161.776 114.02 161.84 113.924C161.905 113.829 161.937 113.706 161.937 113.558ZM163.964 114.578C163.736 114.578 163.539 114.527 163.373 114.426C163.208 114.324 163.081 114.182 162.991 114C162.903 113.817 162.858 113.604 162.858 113.36C162.858 113.117 162.903 112.903 162.991 112.718C163.081 112.531 163.205 112.386 163.365 112.282C163.526 112.177 163.713 112.125 163.927 112.125C164.051 112.125 164.173 112.145 164.293 112.186C164.414 112.228 164.524 112.295 164.623 112.387C164.721 112.479 164.8 112.6 164.859 112.752C164.918 112.903 164.947 113.09 164.947 113.311V113.465H163.118V113.15H164.576C164.576 113.016 164.549 112.897 164.496 112.792C164.443 112.687 164.368 112.604 164.27 112.543C164.173 112.482 164.059 112.452 163.927 112.452C163.782 112.452 163.657 112.488 163.55 112.56C163.445 112.631 163.365 112.724 163.308 112.838C163.251 112.953 163.223 113.075 163.223 113.206V113.416C163.223 113.595 163.254 113.747 163.316 113.872C163.378 113.995 163.465 114.09 163.577 114.154C163.688 114.218 163.817 114.25 163.964 114.25C164.06 114.25 164.147 114.237 164.224 114.21C164.302 114.182 164.37 114.141 164.426 114.087C164.483 114.031 164.527 113.962 164.558 113.88L164.91 113.978C164.873 114.098 164.81 114.203 164.723 114.294C164.635 114.383 164.527 114.453 164.399 114.504C164.27 114.553 164.125 114.578 163.964 114.578Z" fill="#9AA2AC"/>
<rect x="153.107" y="53.6659" width="7.4574" height="51.2696" rx="0.932175" fill="#60D2F9"/>
<rect x="161.809" y="69.2019" width="7.4574" height="35.7334" rx="0.932175" fill="#3C5CC5"/>
<path d="M189.913 111.364L190.852 114.027H190.89L191.829 111.364H192.23L191.069 114.528H190.673L189.512 111.364H189.913ZM192.674 114.528V112.155H193.038V114.528H192.674ZM192.859 111.76C192.788 111.76 192.727 111.735 192.675 111.687C192.625 111.639 192.6 111.58 192.6 111.512C192.6 111.444 192.625 111.386 192.675 111.338C192.727 111.289 192.788 111.265 192.859 111.265C192.93 111.265 192.991 111.289 193.041 111.338C193.093 111.386 193.119 111.444 193.119 111.512C193.119 111.58 193.093 111.639 193.041 111.687C192.991 111.735 192.93 111.76 192.859 111.76ZM194.701 114.577C194.472 114.577 194.275 114.527 194.109 114.426C193.945 114.324 193.817 114.182 193.728 114C193.639 113.816 193.595 113.603 193.595 113.36C193.595 113.117 193.639 112.903 193.728 112.717C193.817 112.531 193.942 112.386 194.102 112.282C194.262 112.177 194.45 112.124 194.664 112.124C194.787 112.124 194.909 112.145 195.03 112.186C195.15 112.227 195.26 112.294 195.359 112.387C195.458 112.478 195.537 112.6 195.595 112.751C195.654 112.903 195.683 113.089 195.683 113.311V113.465H193.854V113.15H195.313C195.313 113.016 195.286 112.897 195.232 112.791C195.18 112.686 195.105 112.604 195.007 112.543C194.91 112.482 194.796 112.452 194.664 112.452C194.519 112.452 194.393 112.488 194.287 112.56C194.182 112.631 194.101 112.724 194.044 112.838C193.988 112.952 193.959 113.075 193.959 113.205V113.416C193.959 113.595 193.99 113.747 194.052 113.871C194.115 113.995 194.202 114.089 194.313 114.154C194.424 114.218 194.554 114.25 194.701 114.25C194.797 114.25 194.883 114.236 194.96 114.21C195.039 114.182 195.106 114.141 195.163 114.086C195.219 114.03 195.263 113.961 195.294 113.879L195.646 113.978C195.609 114.097 195.547 114.202 195.459 114.293C195.372 114.383 195.264 114.453 195.135 114.503C195.006 114.553 194.862 114.577 194.701 114.577Z" fill="#9AA2AC"/>
<rect x="184.18" y="85.9808" width="7.4574" height="18.9542" rx="0.932175" fill="#60D2F9"/>
<rect x="192.881" y="64.8512" width="7.4574" height="40.0835" rx="0.932175" fill="#3C5CC5"/>
<path d="M221.443 112.156C221.424 111.999 221.349 111.877 221.217 111.791C221.085 111.704 220.924 111.661 220.732 111.661C220.592 111.661 220.469 111.684 220.364 111.729C220.26 111.774 220.179 111.837 220.12 111.916C220.063 111.995 220.034 112.085 220.034 112.186C220.034 112.271 220.054 112.343 220.094 112.404C220.135 112.464 220.188 112.514 220.252 112.554C220.315 112.593 220.382 112.626 220.452 112.651C220.523 112.676 220.587 112.696 220.646 112.712L220.967 112.798C221.049 112.82 221.141 112.85 221.242 112.888C221.344 112.926 221.441 112.978 221.534 113.044C221.628 113.109 221.705 113.192 221.766 113.294C221.826 113.396 221.857 113.521 221.857 113.669C221.857 113.84 221.812 113.995 221.722 114.133C221.634 114.271 221.504 114.381 221.333 114.462C221.163 114.543 220.957 114.584 220.714 114.584C220.487 114.584 220.291 114.547 220.125 114.474C219.96 114.401 219.83 114.299 219.736 114.168C219.642 114.038 219.589 113.886 219.577 113.713H219.972C219.982 113.832 220.023 113.931 220.093 114.009C220.164 114.087 220.253 114.144 220.361 114.182C220.47 114.219 220.588 114.238 220.714 114.238C220.86 114.238 220.991 114.214 221.107 114.167C221.224 114.118 221.316 114.051 221.384 113.966C221.452 113.88 221.486 113.779 221.486 113.663C221.486 113.558 221.457 113.473 221.398 113.407C221.339 113.341 221.262 113.287 221.166 113.246C221.07 113.205 220.967 113.169 220.856 113.138L220.466 113.027C220.219 112.956 220.024 112.854 219.879 112.722C219.735 112.591 219.663 112.418 219.663 112.205C219.663 112.028 219.711 111.873 219.807 111.742C219.904 111.609 220.033 111.506 220.196 111.433C220.36 111.358 220.543 111.321 220.744 111.321C220.948 111.321 221.13 111.358 221.288 111.431C221.447 111.503 221.572 111.602 221.665 111.728C221.759 111.853 221.808 111.996 221.813 112.156H221.443ZM223.135 114.584C222.985 114.584 222.849 114.556 222.726 114.499C222.603 114.441 222.506 114.358 222.434 114.25C222.362 114.141 222.326 114.009 222.326 113.855C222.326 113.719 222.353 113.609 222.406 113.524C222.46 113.439 222.531 113.372 222.621 113.323C222.711 113.275 222.809 113.239 222.918 113.215C223.027 113.191 223.136 113.171 223.247 113.157C223.391 113.138 223.508 113.124 223.597 113.115C223.688 113.105 223.754 113.088 223.795 113.064C223.837 113.04 223.858 112.999 223.858 112.94V112.928C223.858 112.775 223.817 112.657 223.733 112.573C223.651 112.488 223.526 112.446 223.358 112.446C223.184 112.446 223.047 112.484 222.948 112.56C222.85 112.636 222.78 112.718 222.74 112.804L222.394 112.681C222.456 112.537 222.538 112.424 222.641 112.344C222.745 112.263 222.858 112.206 222.981 112.174C223.105 112.141 223.226 112.125 223.345 112.125C223.422 112.125 223.509 112.134 223.608 112.152C223.708 112.17 223.804 112.206 223.897 112.262C223.991 112.318 224.068 112.402 224.13 112.514C224.192 112.626 224.223 112.777 224.223 112.965V114.528H223.858V114.207H223.84C223.815 114.258 223.774 114.314 223.716 114.372C223.659 114.431 223.582 114.481 223.486 114.522C223.39 114.563 223.273 114.584 223.135 114.584ZM223.191 114.256C223.335 114.256 223.457 114.228 223.556 114.171C223.655 114.115 223.731 114.042 223.781 113.952C223.833 113.863 223.858 113.768 223.858 113.669V113.336C223.843 113.354 223.809 113.371 223.756 113.387C223.705 113.401 223.645 113.414 223.577 113.425C223.51 113.436 223.445 113.445 223.381 113.453C223.318 113.46 223.267 113.467 223.228 113.472C223.133 113.484 223.045 113.504 222.962 113.532C222.881 113.559 222.815 113.599 222.765 113.654C222.715 113.708 222.69 113.781 222.69 113.873C222.69 114 222.737 114.096 222.831 114.161C222.926 114.225 223.046 114.256 223.191 114.256ZM224.938 114.528V111.365H225.302V112.532H225.333C225.36 112.491 225.397 112.439 225.444 112.375C225.493 112.31 225.562 112.252 225.651 112.202C225.742 112.15 225.865 112.125 226.019 112.125C226.219 112.125 226.395 112.175 226.547 112.274C226.7 112.374 226.819 112.516 226.904 112.699C226.99 112.883 227.033 113.099 227.033 113.348C227.033 113.599 226.99 113.817 226.904 114.002C226.819 114.185 226.7 114.327 226.549 114.428C226.398 114.528 226.223 114.578 226.025 114.578C225.873 114.578 225.751 114.553 225.659 114.502C225.568 114.451 225.497 114.392 225.448 114.327C225.398 114.262 225.36 114.207 225.333 114.164H225.29V114.528H224.938ZM225.296 113.342C225.296 113.521 225.322 113.679 225.375 113.816C225.427 113.952 225.504 114.059 225.605 114.136C225.706 114.212 225.83 114.25 225.976 114.25C226.128 114.25 226.256 114.21 226.357 114.13C226.46 114.048 226.538 113.939 226.589 113.802C226.642 113.664 226.668 113.511 226.668 113.342C226.668 113.175 226.642 113.025 226.591 112.891C226.54 112.756 226.464 112.649 226.361 112.571C226.259 112.492 226.13 112.452 225.976 112.452C225.828 112.452 225.703 112.49 225.602 112.565C225.501 112.639 225.425 112.743 225.373 112.877C225.322 113.01 225.296 113.165 225.296 113.342Z" fill="#9AA2AC"/>
<rect x="215.254" y="53.6659" width="7.4574" height="51.2696" rx="0.932175" fill="#60D2F9"/>
<rect x="223.955" y="73.8625" width="7.4574" height="31.0725" rx="0.932175" fill="#3C5CC5"/>
<g filter="url(#filter0_b_1600_16339)">
<rect x="139.436" y="36.5751" width="36.3548" height="19.8864" rx="2.4858" fill="#232F4E" fill-opacity="0.32"/>
</g>
<path d="M143.884 44.3579C143.705 44.3579 143.551 44.3082 143.423 44.2088C143.295 44.1093 143.209 43.9763 143.164 43.8098L143.438 43.7445C143.46 43.8427 143.512 43.926 143.593 43.9944C143.675 44.0615 143.771 44.095 143.882 44.095C143.951 44.095 144.022 44.0782 144.093 44.0447C144.165 44.0111 144.221 43.9558 144.262 43.8788C144.29 43.8253 144.305 43.7675 144.309 43.7054C144.314 43.642 144.316 43.5662 144.316 43.4779V41.6192H144.592V43.4779C144.592 43.5525 144.592 43.6202 144.59 43.6811C144.589 43.7408 144.582 43.7986 144.57 43.8545C144.559 43.9092 144.537 43.9645 144.505 44.0205C144.44 44.1336 144.353 44.2181 144.244 44.274C144.135 44.3299 144.015 44.3579 143.884 44.3579ZM145.925 44.3542C145.804 44.3542 145.698 44.3355 145.608 44.2982C145.518 44.261 145.442 44.2106 145.378 44.1472C145.316 44.0838 145.266 44.0118 145.227 43.931C145.189 43.8489 145.161 43.7625 145.144 43.6718C145.126 43.5798 145.117 43.4885 145.117 43.3978V42.2903H145.393V43.3176C145.393 43.4282 145.404 43.5307 145.425 43.6252C145.446 43.7197 145.48 43.8023 145.526 43.8732C145.573 43.9428 145.633 43.9968 145.707 44.0354C145.781 44.0739 145.871 44.0932 145.977 44.0932C146.074 44.0932 146.159 44.0764 146.232 44.0428C146.307 44.0093 146.369 43.9614 146.419 43.8993C146.47 43.8359 146.508 43.7594 146.534 43.67C146.56 43.5792 146.573 43.4773 146.573 43.3642L146.767 43.4071C146.767 43.6134 146.731 43.7868 146.659 43.9272C146.587 44.0677 146.488 44.1739 146.361 44.246C146.234 44.3181 146.089 44.3542 145.925 44.3542ZM146.601 44.3038V43.8079H146.573V42.2903H146.848V44.3038H146.601ZM148.221 44.3598C148.024 44.3598 147.854 44.3163 147.71 44.2293C147.567 44.1423 147.456 44.0198 147.376 43.862C147.297 43.7041 147.257 43.5189 147.257 43.3064C147.257 43.0864 147.296 42.8962 147.374 42.7359C147.453 42.5756 147.563 42.4519 147.704 42.3649C147.847 42.2779 148.016 42.2344 148.209 42.2344C148.408 42.2344 148.578 42.2804 148.718 42.3724C148.859 42.4631 148.965 42.5936 149.037 42.7639C149.109 42.9342 149.142 43.1374 149.136 43.3735H148.856V43.2766C148.851 43.0156 148.795 42.8186 148.687 42.6856C148.58 42.5526 148.423 42.4861 148.217 42.4861C148.001 42.4861 147.835 42.5563 147.719 42.6968C147.605 42.8372 147.548 43.0373 147.548 43.2971C147.548 43.5506 147.605 43.7476 147.719 43.8881C147.835 44.0273 147.998 44.0969 148.209 44.0969C148.354 44.0969 148.479 44.064 148.586 43.9981C148.694 43.931 148.779 43.8346 148.841 43.7091L149.097 43.8079C149.017 43.9832 148.9 44.1193 148.745 44.2162C148.59 44.3119 148.416 44.3598 148.221 44.3598ZM147.451 43.3735V43.1442H148.989V43.3735H147.451ZM150.021 44.3038L149.29 42.2903H149.568L150.163 43.9459L150.754 42.2903H151.036L150.305 44.3038H150.021ZM152.15 44.3598C151.953 44.3598 151.783 44.3163 151.639 44.2293C151.496 44.1423 151.385 44.0198 151.305 43.862C151.225 43.7041 151.186 43.5189 151.186 43.3064C151.186 43.0864 151.225 42.8962 151.303 42.7359C151.381 42.5756 151.491 42.4519 151.633 42.3649C151.776 42.2779 151.945 42.2344 152.138 42.2344C152.337 42.2344 152.507 42.2804 152.647 42.3724C152.788 42.4631 152.894 42.5936 152.966 42.7639C153.038 42.9342 153.071 43.1374 153.065 43.3735H152.785V43.2766C152.78 43.0156 152.724 42.8186 152.616 42.6856C152.509 42.5526 152.352 42.4861 152.146 42.4861C151.93 42.4861 151.764 42.5563 151.648 42.6968C151.534 42.8372 151.477 43.0373 151.477 43.2971C151.477 43.5506 151.534 43.7476 151.648 43.8881C151.764 44.0273 151.927 44.0969 152.138 44.0969C152.283 44.0969 152.408 44.064 152.515 43.9981C152.623 43.931 152.708 43.8346 152.77 43.7091L153.026 43.8079C152.946 43.9832 152.829 44.1193 152.673 44.2162C152.519 44.3119 152.345 44.3598 152.15 44.3598ZM151.38 43.3735V43.1442H152.918V43.3735H151.38ZM154.23 44.3579C153.994 44.3579 153.799 44.3069 153.647 44.205C153.495 44.1031 153.402 43.9614 153.367 43.78L153.647 43.7333C153.676 43.8477 153.744 43.939 153.85 44.0074C153.957 44.0745 154.088 44.1081 154.245 44.1081C154.398 44.1081 154.518 44.0764 154.607 44.013C154.695 43.9484 154.739 43.8607 154.739 43.7501C154.739 43.688 154.725 43.6376 154.696 43.5991C154.669 43.5593 154.612 43.5227 154.526 43.4891C154.441 43.4556 154.313 43.4158 154.142 43.3698C153.96 43.3201 153.817 43.2704 153.714 43.2206C153.61 43.1709 153.537 43.1138 153.494 43.0491C153.45 42.9833 153.428 42.9031 153.428 42.8086C153.428 42.6943 153.461 42.5942 153.525 42.5085C153.59 42.4215 153.679 42.3543 153.794 42.3071C153.908 42.2586 154.041 42.2344 154.193 42.2344C154.344 42.2344 154.48 42.2593 154.599 42.309C154.72 42.3575 154.817 42.4258 154.89 42.5141C154.963 42.6023 155.007 42.7048 155.021 42.8217L154.741 42.872C154.722 42.7539 154.663 42.6607 154.564 42.5924C154.466 42.5228 154.341 42.4867 154.189 42.4842C154.046 42.4805 153.93 42.5078 153.84 42.5663C153.751 42.6234 153.706 42.6999 153.706 42.7956C153.706 42.849 153.722 42.895 153.755 42.9335C153.787 42.9708 153.845 43.0062 153.93 43.0398C154.016 43.0734 154.137 43.11 154.295 43.1498C154.481 43.197 154.626 43.2467 154.732 43.2989C154.837 43.3511 154.912 43.4127 154.957 43.4835C155.002 43.5544 155.024 43.642 155.024 43.7464C155.024 43.9366 154.953 44.0863 154.812 44.1957C154.671 44.3038 154.477 44.3579 154.23 44.3579Z" fill="#232F4E"/>
<path d="M144.452 51.3924V50.8107H144.971V51.3924H144.452ZM144.452 47.4076V46.8235H144.971V47.4076H144.452ZM144.738 50.9723C144.489 50.9723 144.267 50.9275 144.071 50.838C143.876 50.7486 143.715 50.6218 143.589 50.4577C143.465 50.292 143.384 50.0964 143.346 49.8711L143.86 49.789C143.91 50.0012 144.016 50.1702 144.178 50.2961C144.341 50.4204 144.535 50.4826 144.762 50.4826C144.988 50.4826 145.171 50.4287 145.312 50.321C145.454 50.2133 145.526 50.0757 145.526 49.9084C145.526 49.789 145.489 49.6921 145.416 49.6175C145.345 49.5429 145.228 49.48 145.066 49.4286L144.225 49.1701C143.728 49.016 143.48 48.7177 143.48 48.2752C143.48 48.0664 143.529 47.8849 143.629 47.7308C143.73 47.5767 143.872 47.4574 144.054 47.3728C144.236 47.2883 144.449 47.2461 144.693 47.2461C144.926 47.2494 145.134 47.2925 145.314 47.3753C145.497 47.4582 145.647 47.5775 145.767 47.7333C145.888 47.8891 145.971 48.0763 146.018 48.2951L145.488 48.3895C145.465 48.2619 145.416 48.1492 145.342 48.0515C145.269 47.9537 145.176 47.8775 145.063 47.8228C144.952 47.7681 144.827 47.7399 144.688 47.7383C144.557 47.7349 144.439 47.7557 144.335 47.8004C144.232 47.8435 144.15 47.9048 144.089 47.9843C144.029 48.0622 143.999 48.1509 143.999 48.2503C143.999 48.3597 144.042 48.4525 144.126 48.5287C144.211 48.605 144.344 48.6704 144.526 48.7251L145.185 48.9165C145.487 49.006 145.705 49.1262 145.839 49.277C145.973 49.4278 146.04 49.6283 146.04 49.8785C146.04 50.0973 145.985 50.2887 145.876 50.4527C145.768 50.6152 145.617 50.7428 145.421 50.8356C145.226 50.9267 144.998 50.9723 144.738 50.9723ZM147.195 50.8977V47.8899L146.521 48.3V47.7209L147.195 47.3182H147.724V50.8977H147.195ZM148.569 50.8952L148.571 50.4329L150.13 49.0358C150.256 48.9248 150.341 48.8187 150.386 48.7177C150.432 48.6166 150.455 48.5155 150.455 48.4144C150.455 48.2868 150.427 48.1724 150.371 48.0713C150.315 47.9686 150.237 47.8874 150.137 47.8277C150.038 47.7681 149.923 47.7383 149.794 47.7383C149.662 47.7383 149.543 47.7697 149.439 47.8327C149.336 47.894 149.256 47.9761 149.198 48.0788C149.14 48.1816 149.111 48.2926 149.113 48.4119H148.581C148.581 48.1799 148.633 47.9769 148.738 47.8029C148.844 47.6272 148.989 47.4905 149.173 47.3927C149.357 47.2933 149.567 47.2436 149.804 47.2436C150.03 47.2436 150.232 47.295 150.411 47.3977C150.59 47.4988 150.731 47.638 150.833 47.8153C150.938 47.9926 150.99 48.1948 150.99 48.4218C150.99 48.5859 150.968 48.7251 150.925 48.8395C150.882 48.9538 150.818 49.0599 150.731 49.1576C150.645 49.2554 150.537 49.3615 150.408 49.4758L149.205 50.5497L149.148 50.4005H150.99V50.8952H148.569ZM151.536 51.4918L151.569 51.2606C151.64 51.2656 151.695 51.2523 151.735 51.2209C151.775 51.1894 151.802 51.1455 151.815 51.0891C151.828 51.0328 151.831 50.969 151.822 50.8977H151.536V50.2986H152.086V50.9474C152.086 51.143 152.038 51.2905 151.944 51.3899C151.851 51.4893 151.715 51.5233 151.536 51.4918ZM154.544 50.8977V50.2738H152.929V49.7816L154.092 47.3182H154.686L153.523 49.7816H154.544V48.8121H155.071V49.7816H155.427V50.2738H155.071V50.8977H154.544ZM157.025 50.9648C156.848 50.9648 156.682 50.9317 156.526 50.8654C156.37 50.7974 156.235 50.7013 156.121 50.577C156.008 50.4527 155.926 50.3061 155.874 50.1371L156.377 49.9978C156.425 50.152 156.508 50.2705 156.628 50.3533C156.747 50.4345 156.88 50.4743 157.025 50.4726C157.156 50.471 157.271 50.4403 157.371 50.3807C157.47 50.321 157.548 50.2406 157.605 50.1395C157.661 50.0368 157.689 49.9191 157.689 49.7866C157.689 49.5877 157.627 49.4236 157.503 49.2944C157.38 49.1651 157.219 49.1005 157.02 49.1005C156.964 49.1005 156.906 49.1088 156.846 49.1253C156.788 49.1419 156.734 49.1634 156.682 49.19L156.439 48.7798L157.702 47.6637L157.756 47.8128H156.016V47.3182H158.169V47.8128L157.12 48.8221L157.115 48.653C157.34 48.653 157.536 48.7036 157.702 48.8047C157.867 48.9041 157.995 49.04 158.084 49.2123C158.175 49.383 158.221 49.5744 158.221 49.7866C158.221 50.0152 158.167 50.2183 158.059 50.3956C157.953 50.5729 157.81 50.7121 157.629 50.8132C157.45 50.9143 157.249 50.9648 157.025 50.9648ZM159.493 50.8977V47.8899L158.819 48.3V47.7209L159.493 47.3182H160.022V50.8977H159.493ZM160.857 50.8977V50.3483H161.406V50.8977H160.857ZM163.437 50.9723C163.194 50.9723 162.978 50.9192 162.791 50.8132C162.604 50.7055 162.456 50.558 162.349 50.3707C162.243 50.1835 162.19 49.968 162.19 49.7244V48.4915C162.19 48.2478 162.243 48.0324 162.349 47.8451C162.456 47.6579 162.604 47.5112 162.791 47.4052C162.978 47.2974 163.194 47.2436 163.437 47.2436C163.681 47.2436 163.896 47.2974 164.084 47.4052C164.271 47.5112 164.418 47.6579 164.524 47.8451C164.631 48.0324 164.685 48.2478 164.685 48.4915V49.7244C164.685 49.968 164.631 50.1835 164.524 50.3707C164.418 50.558 164.271 50.7055 164.084 50.8132C163.896 50.9192 163.681 50.9723 163.437 50.9723ZM163.437 50.4751C163.57 50.4751 163.69 50.4436 163.798 50.3807C163.907 50.316 163.994 50.2299 164.059 50.1221C164.124 50.0128 164.156 49.891 164.156 49.7567V48.4542C164.156 48.3216 164.124 48.2014 164.059 48.0937C163.994 47.9843 163.907 47.8982 163.798 47.8352C163.69 47.7706 163.57 47.7383 163.437 47.7383C163.305 47.7383 163.184 47.7706 163.075 47.8352C162.967 47.8982 162.881 47.9843 162.816 48.0937C162.751 48.2014 162.719 48.3216 162.719 48.4542V49.7567C162.719 49.891 162.751 50.0128 162.816 50.1221C162.881 50.2299 162.967 50.316 163.075 50.3807C163.184 50.4436 163.305 50.4751 163.437 50.4751ZM166.543 47.2461C166.773 47.2461 166.981 47.3016 167.167 47.4126C167.352 47.522 167.5 47.6728 167.609 47.865C167.718 48.0573 167.773 48.2768 167.773 48.5238V49.6623C167.773 49.9241 167.718 50.1536 167.609 50.3508C167.501 50.5464 167.351 50.6988 167.157 50.8082C166.964 50.9176 166.742 50.9723 166.491 50.9723C166.302 50.9723 166.124 50.9366 165.959 50.8654C165.793 50.7941 165.649 50.6881 165.526 50.5472L165.909 50.1917C165.977 50.2796 166.062 50.35 166.165 50.403C166.268 50.4561 166.376 50.4826 166.491 50.4826C166.638 50.4826 166.768 50.4469 166.881 50.3757C166.995 50.3044 167.084 50.2116 167.147 50.0973C167.21 49.9829 167.241 49.8603 167.241 49.7294V49.0731L167.346 49.1875C167.243 49.3217 167.115 49.4278 166.963 49.5057C166.81 49.5835 166.647 49.6225 166.473 49.6225C166.249 49.6225 166.051 49.5711 165.877 49.4684C165.703 49.3656 165.565 49.2256 165.464 49.0483C165.363 48.8709 165.312 48.6704 165.312 48.4467C165.312 48.223 165.369 48.0208 165.481 47.8402C165.594 47.6595 165.743 47.5154 165.929 47.4076C166.114 47.2999 166.319 47.2461 166.543 47.2461ZM166.543 47.7482C166.413 47.7482 166.295 47.7797 166.187 47.8427C166.081 47.904 165.997 47.9877 165.934 48.0937C165.871 48.1998 165.839 48.3174 165.839 48.4467C165.839 48.576 165.871 48.6945 165.934 48.8022C165.997 48.9082 166.081 48.9928 166.187 49.0557C166.293 49.1187 166.411 49.1502 166.54 49.1502C166.669 49.1502 166.787 49.1187 166.893 49.0557C166.999 48.9928 167.084 48.9082 167.147 48.8022C167.21 48.6945 167.241 48.576 167.241 48.4467C167.241 48.3191 167.21 48.2023 167.147 48.0962C167.085 47.9901 167.002 47.9056 166.896 47.8427C166.79 47.7797 166.672 47.7482 166.543 47.7482Z" fill="#232F4E"/>
<g clip-path="url(#clip0_1600_16339)">
<path d="M133.619 44.5101C133.415 44.351 133.117 44.4964 133.117 44.755V48.2784C133.117 48.5729 133.489 48.7022 133.672 48.471L134.54 47.3731C134.572 47.3327 134.612 47.3 134.659 47.2775C134.705 47.2551 134.756 47.2434 134.808 47.2434H136.227C136.523 47.2434 136.652 46.8689 136.418 46.6875L133.619 44.5099V44.5101Z" fill="white"/>
</g>
<rect x="160.256" y="18.5676" width="4.35015" height="4.35015" rx="0.932175" fill="#3C5CC5"/>
<path d="M168.044 22.2427V19.8731H167.129V19.558H169.292V19.8731H168.376V22.2427H168.044ZM170.148 22.2986C169.947 22.2986 169.775 22.2532 169.629 22.1625C169.485 22.0718 169.374 21.9462 169.296 21.7859C169.217 21.6256 169.178 21.4416 169.178 21.2341C169.178 21.0228 169.218 20.8376 169.297 20.6785C169.377 20.5194 169.489 20.3957 169.635 20.3075C169.78 20.218 169.951 20.1732 170.148 20.1732C170.349 20.1732 170.522 20.2186 170.668 20.3093C170.813 20.3988 170.924 20.5237 171.001 20.6841C171.08 20.8432 171.119 21.0265 171.119 21.2341C171.119 21.4441 171.08 21.6293 171.001 21.7896C170.923 21.9487 170.811 22.0736 170.666 22.1644C170.52 22.2539 170.348 22.2986 170.148 22.2986ZM170.148 21.9835C170.356 21.9835 170.512 21.9139 170.614 21.7747C170.716 21.6355 170.767 21.4553 170.767 21.2341C170.767 21.0066 170.715 20.8258 170.612 20.6915C170.509 20.5561 170.354 20.4883 170.148 20.4883C170.007 20.4883 169.892 20.52 169.801 20.5834C169.71 20.6468 169.642 20.7344 169.598 20.8463C169.553 20.9581 169.53 21.0874 169.53 21.2341C169.53 21.4603 169.583 21.6417 169.687 21.7785C169.791 21.9152 169.945 21.9835 170.148 21.9835ZM172.654 22.2427C172.534 22.2663 172.416 22.2756 172.299 22.2706C172.184 22.2669 172.081 22.2439 171.99 22.2017C171.899 22.1582 171.83 22.091 171.783 22.0003C171.743 21.9208 171.721 21.8406 171.718 21.7598C171.715 21.6778 171.714 21.5852 171.714 21.482V19.6699H172.046V21.4671C172.046 21.5491 172.046 21.6194 172.048 21.6778C172.05 21.7362 172.063 21.7865 172.087 21.8288C172.132 21.9083 172.202 21.9549 172.299 21.9686C172.398 21.9823 172.516 21.9786 172.654 21.9574V22.2427ZM171.306 20.5032V20.2292H172.654V20.5032H171.306ZM173.635 22.2986C173.484 22.2986 173.358 22.2713 173.256 22.2166C173.156 22.1606 173.079 22.0873 173.027 21.9966C172.976 21.9058 172.951 21.8064 172.951 21.6983C172.951 21.5926 172.97 21.5013 173.01 21.4242C173.051 21.3459 173.108 21.2813 173.182 21.2303C173.255 21.1781 173.343 21.1371 173.445 21.1073C173.54 21.0812 173.647 21.0588 173.765 21.0402C173.885 21.0203 174.005 21.0023 174.127 20.9861C174.249 20.9699 174.362 20.9544 174.468 20.9395L174.349 21.0085C174.353 20.8295 174.316 20.6971 174.241 20.6114C174.166 20.5256 174.037 20.4827 173.853 20.4827C173.731 20.4827 173.624 20.5107 173.532 20.5666C173.441 20.6213 173.377 20.7108 173.34 20.8351L173.025 20.74C173.074 20.5635 173.167 20.4249 173.307 20.3243C173.446 20.2236 173.629 20.1732 173.857 20.1732C174.039 20.1732 174.196 20.2062 174.326 20.2721C174.458 20.3367 174.553 20.4349 174.61 20.5666C174.638 20.6288 174.656 20.6965 174.664 20.7698C174.671 20.8419 174.675 20.9177 174.675 20.9973V22.2427H174.38V21.7598L174.449 21.8046C174.374 21.9674 174.267 22.0904 174.131 22.1737C173.995 22.257 173.83 22.2986 173.635 22.2986ZM173.685 22.0208C173.804 22.0208 173.908 21.9997 173.995 21.9574C174.083 21.9139 174.154 21.8574 174.207 21.7878C174.261 21.7169 174.295 21.6399 174.311 21.5566C174.33 21.4944 174.34 21.4255 174.341 21.3497C174.344 21.2726 174.345 21.2136 174.345 21.1725L174.461 21.2229C174.353 21.2378 174.246 21.2521 174.142 21.2658C174.037 21.2794 173.939 21.2943 173.845 21.3105C173.752 21.3254 173.668 21.3434 173.594 21.3646C173.539 21.382 173.487 21.4043 173.439 21.4317C173.392 21.459 173.353 21.4944 173.323 21.538C173.295 21.5802 173.281 21.633 173.281 21.6964C173.281 21.7511 173.294 21.8033 173.322 21.853C173.35 21.9027 173.394 21.9431 173.452 21.9742C173.512 22.0053 173.589 22.0208 173.685 22.0208ZM175.197 22.2427V19.5021H175.529V22.2427H175.197ZM177.683 22.2986C177.479 22.2986 177.306 22.2532 177.163 22.1625C177.021 22.0705 176.913 21.9444 176.839 21.784C176.764 21.6237 176.725 21.441 176.723 21.2359C176.725 21.0259 176.765 20.8413 176.84 20.6822C176.917 20.5219 177.027 20.397 177.17 20.3075C177.313 20.218 177.485 20.1732 177.687 20.1732C177.899 20.1732 178.082 20.2254 178.235 20.3299C178.389 20.4343 178.492 20.5772 178.544 20.7587L178.216 20.8575C178.174 20.7406 178.105 20.6499 178.009 20.5853C177.915 20.5206 177.806 20.4883 177.683 20.4883C177.545 20.4883 177.431 20.5206 177.342 20.5853C177.252 20.6487 177.186 20.7369 177.142 20.85C177.099 20.9619 177.077 21.0905 177.075 21.2359C177.078 21.4596 177.129 21.6405 177.23 21.7785C177.332 21.9152 177.483 21.9835 177.683 21.9835C177.815 21.9835 177.924 21.9537 178.011 21.894C178.098 21.8331 178.164 21.7455 178.209 21.6312L178.544 21.7188C178.475 21.9065 178.366 22.05 178.218 22.1495C178.07 22.2489 177.892 22.2986 177.683 22.2986ZM179.728 22.2986C179.528 22.2986 179.355 22.2532 179.21 22.1625C179.065 22.0718 178.954 21.9462 178.876 21.7859C178.798 21.6256 178.758 21.4416 178.758 21.2341C178.758 21.0228 178.798 20.8376 178.878 20.6785C178.957 20.5194 179.07 20.3957 179.215 20.3075C179.361 20.218 179.531 20.1732 179.728 20.1732C179.929 20.1732 180.103 20.2186 180.248 20.3093C180.393 20.3988 180.505 20.5237 180.582 20.6841C180.66 20.8432 180.699 21.0265 180.699 21.2341C180.699 21.4441 180.66 21.6293 180.582 21.7896C180.503 21.9487 180.392 22.0736 180.246 22.1644C180.101 22.2539 179.928 22.2986 179.728 22.2986ZM179.728 21.9835C179.937 21.9835 180.092 21.9139 180.194 21.7747C180.296 21.6355 180.347 21.4553 180.347 21.2341C180.347 21.0066 180.295 20.8258 180.192 20.6915C180.089 20.5561 179.934 20.4883 179.728 20.4883C179.587 20.4883 179.472 20.52 179.381 20.5834C179.29 20.6468 179.223 20.7344 179.178 20.8463C179.133 20.9581 179.111 21.0874 179.111 21.2341C179.111 21.4603 179.163 21.6417 179.267 21.7785C179.372 21.9152 179.525 21.9835 179.728 21.9835ZM182.543 22.2427V21.2341C182.543 21.1384 182.535 21.0464 182.517 20.9581C182.501 20.8699 182.472 20.791 182.43 20.7214C182.389 20.6505 182.333 20.5946 182.262 20.5536C182.192 20.5126 182.104 20.4921 181.997 20.4921C181.914 20.4921 181.838 20.5063 181.77 20.5349C181.703 20.5623 181.645 20.6045 181.596 20.6617C181.548 20.7189 181.51 20.791 181.483 20.878C181.456 20.9637 181.443 21.065 181.443 21.1819L181.225 21.1147C181.225 20.9196 181.26 20.7524 181.33 20.6132C181.401 20.4728 181.499 20.3653 181.626 20.2907C181.754 20.2149 181.905 20.177 182.077 20.177C182.208 20.177 182.319 20.1975 182.411 20.2385C182.503 20.2795 182.579 20.3342 182.64 20.4026C182.701 20.4697 182.749 20.5455 182.784 20.63C182.819 20.7133 182.843 20.7984 182.857 20.8854C182.871 20.9712 182.879 21.0526 182.879 21.1297V22.2427H182.543ZM181.108 22.2427V20.2292H181.406V20.768H181.443V22.2427H181.108ZM184.124 22.2967C183.884 22.2967 183.687 22.2445 183.533 22.1401C183.38 22.0345 183.287 21.8872 183.252 21.6983L183.591 21.6442C183.618 21.7536 183.681 21.8406 183.779 21.9052C183.878 21.9686 183.999 22.0003 184.145 22.0003C184.283 22.0003 184.391 21.9717 184.469 21.9146C184.548 21.8574 184.587 21.7797 184.587 21.6815C184.587 21.6243 184.574 21.5783 184.548 21.5435C184.521 21.5075 184.467 21.4739 184.385 21.4429C184.305 21.4118 184.182 21.3745 184.018 21.331C183.84 21.2838 183.7 21.2347 183.599 21.1837C183.497 21.1328 183.424 21.0737 183.38 21.0066C183.337 20.9395 183.315 20.8581 183.315 20.7624C183.315 20.6443 183.347 20.5411 183.412 20.4529C183.477 20.3634 183.567 20.2944 183.682 20.246C183.799 20.1975 183.935 20.1732 184.089 20.1732C184.242 20.1732 184.378 20.1975 184.499 20.246C184.62 20.2944 184.717 20.3634 184.79 20.4529C184.864 20.5411 184.909 20.6443 184.922 20.7624L184.583 20.8239C184.567 20.7158 184.515 20.6306 184.426 20.5685C184.339 20.5063 184.227 20.4734 184.089 20.4697C183.958 20.4647 183.852 20.4877 183.77 20.5387C183.689 20.5896 183.649 20.6586 183.649 20.7456C183.649 20.7941 183.664 20.8357 183.694 20.8705C183.725 20.9053 183.781 20.9383 183.863 20.9693C183.947 21.0004 184.067 21.0358 184.225 21.0756C184.403 21.1203 184.543 21.1694 184.644 21.2229C184.748 21.2751 184.821 21.3372 184.864 21.4093C184.908 21.4802 184.93 21.5678 184.93 21.6722C184.93 21.8661 184.858 22.019 184.715 22.1308C184.572 22.2414 184.375 22.2967 184.124 22.2967ZM186.105 22.2949C185.976 22.2949 185.865 22.2744 185.772 22.2334C185.68 22.1923 185.603 22.1377 185.542 22.0693C185.481 22.0009 185.433 21.9251 185.399 21.8418C185.364 21.7586 185.339 21.6734 185.324 21.5864C185.31 21.4994 185.304 21.418 185.304 21.3422V20.2292H185.639V21.2378C185.639 21.3323 185.648 21.4236 185.665 21.5119C185.683 21.6001 185.712 21.6796 185.753 21.7505C185.795 21.8213 185.851 21.8773 185.921 21.9183C185.992 21.9593 186.08 21.9798 186.185 21.9798C186.269 21.9798 186.345 21.9655 186.413 21.9369C186.481 21.9083 186.54 21.8661 186.588 21.8101C186.637 21.753 186.674 21.6809 186.7 21.5939C186.726 21.5069 186.739 21.4056 186.739 21.29L186.957 21.3571C186.957 21.551 186.922 21.7182 186.851 21.8586C186.781 21.9991 186.683 22.1072 186.555 22.183C186.428 22.2576 186.278 22.2949 186.105 22.2949ZM186.776 22.2427V21.7039H186.739V20.2292H187.073V22.2427H186.776ZM190.002 22.2427L190.004 20.9544C190.004 20.804 189.963 20.6866 189.882 20.602C189.803 20.5163 189.699 20.4734 189.571 20.4734C189.496 20.4734 189.426 20.4908 189.359 20.5256C189.291 20.5592 189.237 20.6126 189.194 20.6859C189.152 20.758 189.131 20.8506 189.131 20.9637L188.956 20.8929C188.953 20.75 188.983 20.625 189.043 20.5182C189.106 20.41 189.19 20.3261 189.297 20.2665C189.404 20.2068 189.524 20.177 189.659 20.177C189.869 20.177 190.034 20.241 190.155 20.369C190.275 20.4958 190.335 20.6667 190.335 20.8817L190.334 22.2427H190.002ZM187.593 22.2427V20.2292H187.889V20.768H187.927V22.2427H187.593ZM188.799 22.2427L188.801 20.9675C188.801 20.8133 188.761 20.6928 188.682 20.6058C188.602 20.5175 188.497 20.4734 188.365 20.4734C188.234 20.4734 188.129 20.5182 188.048 20.6076C187.967 20.6971 187.927 20.8158 187.927 20.9637L187.751 20.8593C187.751 20.7288 187.783 20.612 187.845 20.5088C187.907 20.4057 187.991 20.3249 188.098 20.2665C188.205 20.2068 188.326 20.177 188.462 20.177C188.597 20.177 188.715 20.2056 188.816 20.2627C188.917 20.3199 188.994 20.4019 189.049 20.5088C189.104 20.6145 189.131 20.7406 189.131 20.8873L189.129 22.2427H188.799ZM190.858 19.8731V19.53H191.19V19.8731H190.858ZM190.858 22.2427V20.2292H191.19V22.2427H190.858ZM192.54 22.2986C192.352 22.2986 192.191 22.252 192.057 22.1588C191.923 22.0643 191.819 21.9369 191.746 21.7766C191.674 21.6163 191.638 21.4354 191.638 21.2341C191.638 21.0327 191.674 20.8519 191.746 20.6915C191.819 20.5312 191.923 20.405 192.057 20.3131C192.191 20.2199 192.352 20.1732 192.538 20.1732C192.728 20.1732 192.888 20.2192 193.017 20.3112C193.147 20.4032 193.244 20.5293 193.31 20.6897C193.377 20.85 193.411 21.0315 193.411 21.2341C193.411 21.4342 193.377 21.615 193.31 21.7766C193.244 21.9369 193.147 22.0643 193.017 22.1588C192.888 22.252 192.729 22.2986 192.54 22.2986ZM192.581 21.9947C192.717 21.9947 192.828 21.9624 192.915 21.8978C193.002 21.8319 193.066 21.7418 193.107 21.6274C193.149 21.5119 193.17 21.3807 193.17 21.2341C193.17 21.0849 193.149 20.9538 193.107 20.8407C193.066 20.7263 193.002 20.6375 192.917 20.5741C192.831 20.5095 192.722 20.4771 192.59 20.4771C192.454 20.4771 192.341 20.5107 192.251 20.5778C192.163 20.6449 192.097 20.7357 192.053 20.85C192.011 20.9644 191.99 21.0924 191.99 21.2341C191.99 21.377 192.012 21.5063 192.055 21.6218C192.099 21.7362 192.164 21.8269 192.251 21.894C192.339 21.9612 192.449 21.9947 192.581 21.9947ZM193.17 22.2427V20.7605H193.133V19.558H193.467V22.2427H193.17ZM194.847 22.2986C194.646 22.2986 194.474 22.2532 194.328 22.1625C194.184 22.0718 194.073 21.9462 193.995 21.7859C193.916 21.6256 193.877 21.4416 193.877 21.2341C193.877 21.0228 193.917 20.8376 193.996 20.6785C194.076 20.5194 194.188 20.3957 194.334 20.3075C194.479 20.218 194.65 20.1732 194.847 20.1732C195.048 20.1732 195.221 20.2186 195.367 20.3093C195.512 20.3988 195.623 20.5237 195.7 20.6841C195.779 20.8432 195.818 21.0265 195.818 21.2341C195.818 21.4441 195.779 21.6293 195.7 21.7896C195.622 21.9487 195.51 22.0736 195.365 22.1644C195.219 22.2539 195.047 22.2986 194.847 22.2986ZM194.847 21.9835C195.055 21.9835 195.211 21.9139 195.313 21.7747C195.415 21.6355 195.466 21.4553 195.466 21.2341C195.466 21.0066 195.414 20.8258 195.311 20.6915C195.208 20.5561 195.053 20.4883 194.847 20.4883C194.706 20.4883 194.591 20.52 194.5 20.5834C194.409 20.6468 194.341 20.7344 194.297 20.8463C194.252 20.9581 194.229 21.0874 194.229 21.2341C194.229 21.4603 194.282 21.6417 194.386 21.7785C194.49 21.9152 194.644 21.9835 194.847 21.9835Z" fill="#758EA8"/>
<rect x="204.793" y="18.5676" width="4.35015" height="4.35015" rx="0.932175" fill="#60D2F9"/>
<path d="M212.582 22.2427V19.8731H211.666V19.558H213.829V19.8731H212.913V22.2427H212.582ZM214.685 22.2986C214.485 22.2986 214.312 22.2532 214.166 22.1625C214.022 22.0718 213.911 21.9462 213.833 21.7859C213.754 21.6256 213.715 21.4416 213.715 21.2341C213.715 21.0228 213.755 20.8376 213.835 20.6785C213.914 20.5194 214.027 20.3957 214.172 20.3075C214.317 20.218 214.488 20.1732 214.685 20.1732C214.886 20.1732 215.059 20.2186 215.205 20.3093C215.35 20.3988 215.462 20.5237 215.539 20.6841C215.617 20.8432 215.656 21.0265 215.656 21.2341C215.656 21.4441 215.617 21.6293 215.539 21.7896C215.46 21.9487 215.348 22.0736 215.203 22.1644C215.058 22.2539 214.885 22.2986 214.685 22.2986ZM214.685 21.9835C214.894 21.9835 215.049 21.9139 215.151 21.7747C215.253 21.6355 215.304 21.4553 215.304 21.2341C215.304 21.0066 215.252 20.8258 215.149 20.6915C215.046 20.5561 214.891 20.4883 214.685 20.4883C214.544 20.4883 214.429 20.52 214.338 20.5834C214.247 20.6468 214.179 20.7344 214.135 20.8463C214.09 20.9581 214.068 21.0874 214.068 21.2341C214.068 21.4603 214.12 21.6417 214.224 21.7785C214.329 21.9152 214.482 21.9835 214.685 21.9835ZM217.191 22.2427C217.071 22.2663 216.953 22.2756 216.836 22.2706C216.721 22.2669 216.618 22.2439 216.527 22.2017C216.436 22.1582 216.367 22.091 216.32 22.0003C216.28 21.9208 216.259 21.8406 216.255 21.7598C216.252 21.6778 216.251 21.5852 216.251 21.482V19.6699H216.583V21.4671C216.583 21.5491 216.584 21.6194 216.585 21.6778C216.587 21.7362 216.6 21.7865 216.624 21.8288C216.669 21.9083 216.74 21.9549 216.836 21.9686C216.935 21.9823 217.053 21.9786 217.191 21.9574V22.2427ZM215.843 20.5032V20.2292H217.191V20.5032H215.843ZM218.172 22.2986C218.021 22.2986 217.895 22.2713 217.793 22.2166C217.693 22.1606 217.616 22.0873 217.564 21.9966C217.513 21.9058 217.488 21.8064 217.488 21.6983C217.488 21.5926 217.508 21.5013 217.547 21.4242C217.588 21.3459 217.645 21.2813 217.719 21.2303C217.792 21.1781 217.88 21.1371 217.982 21.1073C218.077 21.0812 218.184 21.0588 218.302 21.0402C218.422 21.0203 218.542 21.0023 218.664 20.9861C218.786 20.9699 218.9 20.9544 219.005 20.9395L218.886 21.0085C218.89 20.8295 218.854 20.6971 218.778 20.6114C218.703 20.5256 218.574 20.4827 218.39 20.4827C218.268 20.4827 218.161 20.5107 218.069 20.5666C217.979 20.6213 217.915 20.7108 217.877 20.8351L217.562 20.74C217.611 20.5635 217.705 20.4249 217.844 20.3243C217.983 20.2236 218.166 20.1732 218.394 20.1732C218.576 20.1732 218.733 20.2062 218.864 20.2721C218.995 20.3367 219.09 20.4349 219.147 20.5666C219.175 20.6288 219.194 20.6965 219.201 20.7698C219.208 20.8419 219.212 20.9177 219.212 20.9973V22.2427H218.918V21.7598L218.987 21.8046C218.911 21.9674 218.804 22.0904 218.668 22.1737C218.532 22.257 218.367 22.2986 218.172 22.2986ZM218.222 22.0208C218.341 22.0208 218.445 21.9997 218.532 21.9574C218.62 21.9139 218.691 21.8574 218.744 21.7878C218.798 21.7169 218.832 21.6399 218.849 21.5566C218.867 21.4944 218.877 21.4255 218.878 21.3497C218.881 21.2726 218.882 21.2136 218.882 21.1725L218.998 21.2229C218.89 21.2378 218.783 21.2521 218.679 21.2658C218.575 21.2794 218.476 21.2943 218.383 21.3105C218.289 21.3254 218.205 21.3434 218.131 21.3646C218.076 21.382 218.025 21.4043 217.976 21.4317C217.929 21.459 217.89 21.4944 217.86 21.538C217.832 21.5802 217.818 21.633 217.818 21.6964C217.818 21.7511 217.831 21.8033 217.859 21.853C217.887 21.9027 217.931 21.9431 217.989 21.9742C218.049 22.0053 218.126 22.0208 218.222 22.0208ZM219.734 22.2427V19.5021H220.066V22.2427H219.734ZM222.187 23.1935C222.081 23.1935 221.978 23.1773 221.877 23.145C221.776 23.1127 221.684 23.0636 221.599 22.9977C221.516 22.9331 221.446 22.8511 221.391 22.7516L221.694 22.5913C221.744 22.6895 221.814 22.761 221.905 22.8057C221.997 22.8505 222.092 22.8728 222.188 22.8728C222.316 22.8728 222.423 22.8492 222.507 22.802C222.592 22.756 222.654 22.687 222.694 22.595C222.735 22.5031 222.755 22.3887 222.753 22.252V21.702H222.793V20.2292H223.087V22.2557C223.087 22.3104 223.085 22.3632 223.081 22.4142C223.079 22.4652 223.073 22.5155 223.063 22.5652C223.037 22.7081 222.985 22.8256 222.908 22.9176C222.831 23.0108 222.732 23.0798 222.61 23.1245C222.488 23.1705 222.347 23.1935 222.187 23.1935ZM222.162 22.2986C221.975 22.2986 221.814 22.252 221.68 22.1588C221.545 22.0643 221.441 21.9369 221.368 21.7766C221.296 21.6163 221.26 21.4354 221.26 21.2341C221.26 21.0327 221.296 20.8519 221.368 20.6915C221.441 20.5312 221.545 20.405 221.68 20.3131C221.814 20.2199 221.974 20.1732 222.161 20.1732C222.351 20.1732 222.51 20.2192 222.64 20.3112C222.769 20.4032 222.866 20.5293 222.932 20.6897C222.999 20.85 223.033 21.0315 223.033 21.2341C223.033 21.4342 222.999 21.615 222.932 21.7766C222.866 21.9369 222.769 22.0643 222.64 22.1588C222.51 22.252 222.351 22.2986 222.162 22.2986ZM222.203 21.9947C222.339 21.9947 222.45 21.9624 222.537 21.8978C222.624 21.8319 222.688 21.7418 222.729 21.6274C222.771 21.5119 222.793 21.3807 222.793 21.2341C222.793 21.0849 222.771 20.9538 222.729 20.8407C222.688 20.7263 222.625 20.6375 222.539 20.5741C222.453 20.5095 222.344 20.4771 222.213 20.4771C222.076 20.4771 221.963 20.5107 221.873 20.5778C221.785 20.6449 221.719 20.7357 221.676 20.85C221.634 20.9644 221.612 21.0924 221.612 21.2341C221.612 21.377 221.634 21.5063 221.678 21.6218C221.721 21.7362 221.786 21.8269 221.873 21.894C221.962 21.9612 222.072 21.9947 222.203 21.9947ZM224.18 22.2986C224.03 22.2986 223.903 22.2713 223.802 22.2166C223.701 22.1606 223.624 22.0873 223.572 21.9966C223.521 21.9058 223.496 21.8064 223.496 21.6983C223.496 21.5926 223.516 21.5013 223.555 21.4242C223.596 21.3459 223.654 21.2813 223.727 21.2303C223.8 21.1781 223.888 21.1371 223.99 21.1073C224.086 21.0812 224.192 21.0588 224.311 21.0402C224.43 21.0203 224.55 21.0023 224.672 20.9861C224.794 20.9699 224.908 20.9544 225.013 20.9395L224.894 21.0085C224.898 20.8295 224.862 20.6971 224.786 20.6114C224.711 20.5256 224.582 20.4827 224.398 20.4827C224.276 20.4827 224.169 20.5107 224.077 20.5666C223.987 20.6213 223.923 20.7108 223.885 20.8351L223.57 20.74C223.619 20.5635 223.713 20.4249 223.852 20.3243C223.991 20.2236 224.174 20.1732 224.402 20.1732C224.585 20.1732 224.741 20.2062 224.872 20.2721C225.003 20.3367 225.098 20.4349 225.155 20.5666C225.184 20.6288 225.202 20.6965 225.209 20.7698C225.217 20.8419 225.22 20.9177 225.22 20.9973V22.2427H224.926V21.7598L224.995 21.8046C224.919 21.9674 224.813 22.0904 224.676 22.1737C224.54 22.257 224.375 22.2986 224.18 22.2986ZM224.23 22.0208C224.35 22.0208 224.453 21.9997 224.54 21.9574C224.628 21.9139 224.699 21.8574 224.752 21.7878C224.806 21.7169 224.841 21.6399 224.857 21.5566C224.875 21.4944 224.885 21.4255 224.887 21.3497C224.889 21.2726 224.89 21.2136 224.89 21.1725L225.006 21.2229C224.898 21.2378 224.792 21.2521 224.687 21.2658C224.583 21.2794 224.484 21.2943 224.391 21.3105C224.297 21.3254 224.214 21.3434 224.139 21.3646C224.084 21.382 224.033 21.4043 223.984 21.4317C223.937 21.459 223.898 21.4944 223.869 21.538C223.84 21.5802 223.826 21.633 223.826 21.6964C223.826 21.7511 223.839 21.8033 223.867 21.853C223.895 21.9027 223.939 21.9431 223.997 21.9742C224.057 22.0053 224.135 22.0208 224.23 22.0208ZM226.466 22.2967C226.226 22.2967 226.029 22.2445 225.875 22.1401C225.722 22.0345 225.628 21.8872 225.593 21.6983L225.932 21.6442C225.96 21.7536 226.023 21.8406 226.121 21.9052C226.219 21.9686 226.341 22.0003 226.486 22.0003C226.624 22.0003 226.732 21.9717 226.811 21.9146C226.889 21.8574 226.928 21.7797 226.928 21.6815C226.928 21.6243 226.915 21.5783 226.889 21.5435C226.863 21.5075 226.809 21.4739 226.727 21.4429C226.646 21.4118 226.523 21.3745 226.359 21.331C226.182 21.2838 226.042 21.2347 225.94 21.1837C225.838 21.1328 225.765 21.0737 225.722 21.0066C225.678 20.9395 225.657 20.8581 225.657 20.7624C225.657 20.6443 225.689 20.5411 225.754 20.4529C225.818 20.3634 225.908 20.2944 226.024 20.246C226.141 20.1975 226.276 20.1732 226.43 20.1732C226.583 20.1732 226.72 20.1975 226.84 20.246C226.961 20.2944 227.058 20.3634 227.131 20.4529C227.206 20.5411 227.25 20.6443 227.264 20.7624L226.924 20.8239C226.908 20.7158 226.856 20.6306 226.768 20.5685C226.681 20.5063 226.568 20.4734 226.43 20.4697C226.3 20.4647 226.194 20.4877 226.111 20.5387C226.031 20.5896 225.99 20.6586 225.99 20.7456C225.99 20.7941 226.005 20.8357 226.035 20.8705C226.066 20.9053 226.123 20.9383 226.205 20.9693C226.288 21.0004 226.409 21.0358 226.566 21.0756C226.744 21.1203 226.884 21.1694 226.986 21.2229C227.089 21.2751 227.162 21.3372 227.206 21.4093C227.249 21.4802 227.271 21.5678 227.271 21.6722C227.271 21.8661 227.2 22.019 227.057 22.1308C226.914 22.2414 226.717 22.2967 226.466 22.2967ZM228.806 22.2427C228.687 22.2663 228.569 22.2756 228.452 22.2706C228.337 22.2669 228.233 22.2439 228.143 22.2017C228.052 22.1582 227.983 22.091 227.936 22.0003C227.896 21.9208 227.874 21.8406 227.871 21.7598C227.868 21.6778 227.867 21.5852 227.867 21.482V19.6699H228.199V21.4671C228.199 21.5491 228.199 21.6194 228.201 21.6778C228.203 21.7362 228.216 21.7865 228.24 21.8288C228.284 21.9083 228.355 21.9549 228.452 21.9686C228.55 21.9823 228.669 21.9786 228.806 21.9574V22.2427ZM227.459 20.5032V20.2292H228.806V20.5032H227.459ZM229.788 22.2986C229.637 22.2986 229.511 22.2713 229.409 22.2166C229.308 22.1606 229.232 22.0873 229.18 21.9966C229.129 21.9058 229.103 21.8064 229.103 21.6983C229.103 21.5926 229.123 21.5013 229.163 21.4242C229.204 21.3459 229.261 21.2813 229.335 21.2303C229.408 21.1781 229.496 21.1371 229.597 21.1073C229.693 21.0812 229.8 21.0588 229.918 21.0402C230.037 21.0203 230.158 21.0023 230.28 20.9861C230.402 20.9699 230.515 20.9544 230.621 20.9395L230.502 21.0085C230.505 20.8295 230.469 20.6971 230.394 20.6114C230.319 20.5256 230.19 20.4827 230.006 20.4827C229.884 20.4827 229.777 20.5107 229.685 20.5666C229.594 20.6213 229.53 20.7108 229.493 20.8351L229.178 20.74C229.226 20.5635 229.32 20.4249 229.459 20.3243C229.599 20.2236 229.782 20.1732 230.009 20.1732C230.192 20.1732 230.349 20.2062 230.479 20.2721C230.611 20.3367 230.706 20.4349 230.763 20.5666C230.791 20.6288 230.809 20.6965 230.817 20.7698C230.824 20.8419 230.828 20.9177 230.828 20.9973V22.2427H230.533V21.7598L230.602 21.8046C230.527 21.9674 230.42 22.0904 230.284 22.1737C230.148 22.257 229.983 22.2986 229.788 22.2986ZM229.838 22.0208C229.957 22.0208 230.06 21.9997 230.147 21.9574C230.236 21.9139 230.307 21.8574 230.36 21.7878C230.413 21.7169 230.448 21.6399 230.464 21.5566C230.483 21.4944 230.493 21.4255 230.494 21.3497C230.497 21.2726 230.498 21.2136 230.498 21.1725L230.614 21.2229C230.505 21.2378 230.399 21.2521 230.295 21.2658C230.19 21.2794 230.092 21.2943 229.998 21.3105C229.905 21.3254 229.821 21.3434 229.747 21.3646C229.692 21.382 229.64 21.4043 229.592 21.4317C229.545 21.459 229.506 21.4944 229.476 21.538C229.448 21.5802 229.433 21.633 229.433 21.6964C229.433 21.7511 229.447 21.8033 229.474 21.853C229.503 21.9027 229.546 21.9431 229.605 21.9742C229.665 22.0053 229.742 22.0208 229.838 22.0208ZM232.103 22.2986C231.915 22.2986 231.755 22.252 231.62 22.1588C231.486 22.0643 231.382 21.9369 231.309 21.7766C231.237 21.6163 231.201 21.4354 231.201 21.2341C231.201 21.0327 231.237 20.8519 231.309 20.6915C231.382 20.5312 231.486 20.405 231.62 20.3131C231.755 20.2199 231.915 20.1732 232.101 20.1732C232.291 20.1732 232.451 20.2192 232.58 20.3112C232.71 20.4032 232.807 20.5293 232.873 20.6897C232.94 20.85 232.974 21.0315 232.974 21.2341C232.974 21.4342 232.94 21.615 232.873 21.7766C232.807 21.9369 232.71 22.0643 232.58 22.1588C232.451 22.252 232.292 22.2986 232.103 22.2986ZM232.144 21.9947C232.28 21.9947 232.391 21.9624 232.478 21.8978C232.565 21.8319 232.629 21.7418 232.67 21.6274C232.712 21.5119 232.733 21.3807 232.733 21.2341C232.733 21.0849 232.712 20.9538 232.67 20.8407C232.629 20.7263 232.566 20.6375 232.48 20.5741C232.394 20.5095 232.285 20.4771 232.153 20.4771C232.017 20.4771 231.904 20.5107 231.814 20.5778C231.726 20.6449 231.66 20.7357 231.617 20.85C231.574 20.9644 231.553 21.0924 231.553 21.2341C231.553 21.377 231.575 21.5063 231.618 21.6218C231.662 21.7362 231.727 21.8269 231.814 21.894C231.902 21.9612 232.012 21.9947 232.144 21.9947ZM232.733 22.2427V20.7605H232.696V19.558H233.03V22.2427H232.733ZM234.41 22.2986C234.21 22.2986 234.037 22.2532 233.891 22.1625C233.747 22.0718 233.636 21.9462 233.558 21.7859C233.479 21.6256 233.44 21.4416 233.44 21.2341C233.44 21.0228 233.48 20.8376 233.56 20.6785C233.639 20.5194 233.752 20.3957 233.897 20.3075C234.042 20.218 234.213 20.1732 234.41 20.1732C234.611 20.1732 234.784 20.2186 234.93 20.3093C235.075 20.3988 235.186 20.5237 235.264 20.6841C235.342 20.8432 235.381 21.0265 235.381 21.2341C235.381 21.4441 235.342 21.6293 235.264 21.7896C235.185 21.9487 235.073 22.0736 234.928 22.1644C234.783 22.2539 234.61 22.2986 234.41 22.2986ZM234.41 21.9835C234.618 21.9835 234.774 21.9139 234.876 21.7747C234.978 21.6355 235.029 21.4553 235.029 21.2341C235.029 21.0066 234.977 20.8258 234.874 20.6915C234.771 20.5561 234.616 20.4883 234.41 20.4883C234.269 20.4883 234.154 20.52 234.063 20.5834C233.972 20.6468 233.904 20.7344 233.86 20.8463C233.815 20.9581 233.793 21.0874 233.793 21.2341C233.793 21.4603 233.845 21.6417 233.949 21.7785C234.054 21.9152 234.207 21.9835 234.41 21.9835Z" fill="#758EA8"/>
<defs>
<filter id="filter0_b_1600_16339" x="130.735" y="27.8748" width="53.7561" height="37.287" filterUnits="userSpaceOnUse" color-interpolation-filters="sRGB">
<feFlood flood-opacity="0" result="BackgroundImageFix"/>
<feGaussianBlur in="BackgroundImageFix" stdDeviation="4.35015"/>
<feComposite in2="SourceAlpha" operator="in" result="effect1_backgroundBlur_1600_16339"/>
<feBlend mode="normal" in="SourceGraphic" in2="effect1_backgroundBlur_1600_16339" result="shape"/>
</filter>
<clipPath id="clip0_1600_16339">
<rect width="4.9716" height="4.9716" fill="white" transform="translate(131.979 44.0331)"/>
</clipPath>
</defs>
</svg>
