<svg width="243" height="132" viewBox="0 0 243 132" fill="none" xmlns="http://www.w3.org/2000/svg">
<g clip-path="url(#clip0_1610_29868)">
<rect width="243" height="132" rx="5" fill="#F4F4F4"/>
<g filter="url(#filter0_d_1610_29868)">
<rect x="184.373" y="47.0198" width="46.6271" height="44.371" rx="3.76025" fill="#AEA1FF"/>
<mask id="mask0_1610_29868" style="mask-type:alpha" maskUnits="userSpaceOnUse" x="184" y="47" width="47" height="45">
<rect x="184.373" y="47.0188" width="46.6271" height="44.371" rx="3.76025" fill="#9ECCFA"/>
</mask>
<g mask="url(#mask0_1610_29868)">
<path d="M218.729 62.5392C218.664 62.5392 218.601 62.5132 218.554 62.4667C218.508 62.4203 218.482 62.3573 218.482 62.2916V60.7068C218.44 57.9909 217.331 55.4004 215.396 53.4947C213.46 51.5889 210.853 50.5208 208.137 50.5208C205.421 50.5208 202.813 51.5889 200.878 53.4947C198.943 55.4004 197.834 57.9909 197.792 60.7068V62.2916C197.792 62.3573 197.766 62.4203 197.72 62.4667C197.673 62.5132 197.61 62.5392 197.545 62.5392C197.479 62.5392 197.416 62.5132 197.369 62.4667C197.323 62.4203 197.297 62.3573 197.297 62.2916V60.7068C197.34 57.8602 198.501 55.1447 200.529 53.1469C202.557 51.1491 205.29 50.0293 208.137 50.0293C210.984 50.0293 213.717 51.1491 215.745 53.1469C217.773 55.1447 218.934 57.8602 218.977 60.7068V62.2916C218.977 62.3241 218.971 62.3563 218.958 62.3864C218.946 62.4164 218.928 62.4437 218.905 62.4667C218.882 62.4897 218.854 62.508 218.824 62.5204C218.794 62.5328 218.762 62.5392 218.729 62.5392Z" fill="#161616"/>
<path d="M217.787 92.1825C217.787 92.1825 219.043 92.601 219.32 93.1111C219.597 93.6213 219.833 95.7608 220.528 95.5751C221.224 95.3893 220.622 93.2523 221.18 93.2969C221.737 93.3414 225.573 95.2036 225.479 94.228C225.384 93.2523 223.644 91.717 222.155 90.9741C220.667 90.2312 218.131 89.9043 218.131 89.9043L217.787 92.1825Z" fill="#FFC9B0"/>
<path d="M220.442 95.8348C220.342 95.8339 220.244 95.8065 220.157 95.7555C219.766 95.5277 219.571 94.8789 219.335 93.9874C219.28 93.7284 219.201 93.4748 219.1 93.2297C218.932 92.9201 218.157 92.5685 217.706 92.4174C217.651 92.3989 217.604 92.3613 217.573 92.3115C217.543 92.2617 217.531 92.2027 217.54 92.145L217.887 89.8668C217.896 89.8032 217.931 89.746 217.982 89.7072C218.033 89.6683 218.098 89.651 218.162 89.6588C218.268 89.6588 220.757 89.9981 222.265 90.7509C223.642 91.4418 225.61 93.0241 225.732 94.2029C225.743 94.2838 225.733 94.3663 225.702 94.442C225.671 94.5177 225.621 94.5838 225.556 94.6337C225.113 94.973 223.914 94.5545 222.27 93.9255C221.856 93.7695 221.393 93.5912 221.212 93.5516C221.171 93.7853 221.154 94.0227 221.163 94.2598C221.163 94.921 221.163 95.6688 220.601 95.815C220.549 95.8285 220.496 95.8351 220.442 95.8348ZM218.06 92.0188C218.454 92.1673 219.283 92.5289 219.546 92.9944C219.668 93.2733 219.761 93.5636 219.826 93.8611C219.954 94.3564 220.172 95.186 220.417 95.3271C220.426 95.3317 220.435 95.3341 220.445 95.3341C220.454 95.3341 220.464 95.3317 220.472 95.3271C220.658 95.2776 220.665 94.6065 220.668 94.2474C220.668 93.7522 220.668 93.3436 220.893 93.1455C220.935 93.1063 220.984 93.0768 221.039 93.0588C221.093 93.0408 221.151 93.0349 221.207 93.0415C221.633 93.1368 222.048 93.2754 222.446 93.455C223.188 93.7373 224.902 94.3911 225.239 94.24C225.145 93.4327 223.607 91.9618 222.054 91.1842C220.883 90.5998 219.008 90.2754 218.34 90.1739L218.06 92.0188Z" fill="#161616"/>
<path d="M209.746 61.9544C206.202 61.5186 201.663 62.4324 199.07 64.9953C198.655 65.3529 198.344 65.8157 198.169 66.335C197.726 68.0437 198.129 69.7127 196.621 70.9979C196.238 71.3273 195.797 71.5923 195.445 71.9588C194.306 73.1474 194.541 75.3563 195.908 76.2775C195.138 77.0204 195.019 78.2387 195.254 79.2837C195.678 81.1756 197.087 82.7506 198.766 83.7089C200.445 84.6672 202.379 85.1154 204.3 85.373C207.096 85.7469 209.974 85.7642 212.7 85.0461C215.427 84.328 218.004 82.8298 219.696 80.5714C220.271 79.8665 220.653 79.0243 220.805 78.1273C220.978 76.738 220.31 75.4033 219.668 74.1652C220.609 73.0582 220.84 71.4635 220.505 70.052C220.171 68.6405 219.327 67.3899 218.336 66.3375C216.069 63.9224 213.032 62.3726 209.746 61.9544Z" fill="#725858"/>
<path d="M207.924 85.8776C206.701 85.8755 205.479 85.7928 204.266 85.6299C201.845 85.3055 200.111 84.783 198.643 83.9361C196.743 82.8391 195.424 81.1676 195.012 79.35C194.748 78.1663 194.946 77.0594 195.542 76.3239C194.938 75.7961 194.561 75.0553 194.49 74.2562C194.433 73.8148 194.473 73.3663 194.607 72.9421C194.742 72.5178 194.967 72.1279 195.268 71.7997C195.497 71.57 195.746 71.3596 196.01 71.1707C196.166 71.0543 196.315 70.9429 196.459 70.8215C197.449 69.987 197.546 68.994 197.675 67.85C197.719 67.3254 197.802 66.8049 197.922 66.2924C198.107 65.7294 198.44 65.227 198.888 64.8388C201.651 62.1148 206.344 61.3075 209.769 61.726C213.11 62.1577 216.199 63.7327 218.51 66.1834C219.682 67.4364 220.432 68.7266 220.739 70.0167C221.108 71.5644 220.813 73.1196 219.956 74.2265C220.543 75.3606 221.224 76.7474 221.046 78.201C220.944 79.0182 220.566 79.8576 219.887 80.7615C218.27 82.9208 215.737 84.5428 212.758 85.3278C211.177 85.7182 209.552 85.903 207.924 85.8776ZM207.892 62.09C204.091 62.09 200.894 63.5436 199.245 65.1731C198.861 65.5039 198.573 65.9314 198.41 66.4112C198.292 66.9 198.209 67.3965 198.162 67.897C198.034 69.0485 197.915 70.2371 196.773 71.1979C196.62 71.3292 196.459 71.4456 196.3 71.5694C196.057 71.7415 195.827 71.9328 195.614 72.1414C195.373 72.4235 195.191 72.752 195.081 73.1066C194.972 73.4613 194.935 73.8348 194.975 74.204C195.015 74.5732 195.129 74.9304 195.312 75.2537C195.495 75.5769 195.742 75.8594 196.038 76.0837C196.068 76.1045 196.093 76.1317 196.112 76.1634C196.13 76.1951 196.141 76.2304 196.144 76.267C196.148 76.3038 196.143 76.341 196.13 76.3757C196.117 76.4104 196.096 76.4418 196.07 76.4675C195.451 77.0718 195.233 78.1069 195.485 79.241C195.864 80.9249 197.102 82.48 198.88 83.5077C200.29 84.32 201.968 84.8226 204.328 85.1396C207.491 85.5631 210.207 85.4566 212.634 84.8177C215.506 84.0748 217.941 82.5048 219.493 80.4346C220.117 79.6001 220.467 78.8399 220.556 78.1093C220.712 76.8489 220.145 75.633 219.444 74.281C219.421 74.2371 219.412 74.1876 219.418 74.1386C219.424 74.0896 219.444 74.0435 219.476 74.0061C220.301 73.0378 220.6 71.5446 220.261 70.1108C219.974 68.9049 219.27 67.6915 218.151 66.5004C215.917 64.14 212.936 62.6248 209.712 62.2114C209.108 62.1337 208.5 62.0932 207.892 62.09Z" fill="#161616"/>
<path d="M208.025 52.2004H208.414C210.812 52.2004 213.111 53.153 214.807 54.8485C216.502 56.544 217.455 58.8436 217.455 61.2415V63.9134H198.986V61.2415C198.986 58.8436 199.939 56.544 201.634 54.8485C203.33 53.153 205.63 52.2004 208.027 52.2004H208.025Z" fill="#725858"/>
<path d="M217.469 64.1639H198.986C198.92 64.1639 198.857 64.1378 198.811 64.0913C198.764 64.0449 198.738 63.9819 198.738 63.9162V61.2418C198.741 58.7795 199.72 56.4188 201.461 54.6775C203.202 52.9362 205.562 51.9564 208.024 51.9531H208.416C210.88 51.9531 213.244 52.9314 214.988 54.673C216.732 56.4146 217.714 58.7771 217.717 61.2418V63.9162C217.717 63.9819 217.691 64.0449 217.644 64.0913C217.598 64.1378 217.535 64.1639 217.469 64.1639ZM199.246 63.6686H217.222V61.2418C217.219 58.9104 216.292 56.6753 214.643 55.0268C212.995 53.3783 210.759 52.451 208.428 52.4484H208.037C205.706 52.451 203.471 53.3784 201.823 55.027C200.175 56.6756 199.248 58.9107 199.246 61.2418V63.6686Z" fill="#161616"/>
<path d="M206.434 77.5378V75.5667H209.861V77.5378" fill="#FFC9B0"/>
<path d="M209.86 77.7871C209.795 77.7871 209.732 77.761 209.685 77.7146C209.639 77.6681 209.613 77.6052 209.613 77.5395V75.8061H206.681V77.5395C206.681 77.6052 206.655 77.6681 206.608 77.7146C206.562 77.761 206.499 77.7871 206.433 77.7871C206.368 77.7871 206.305 77.761 206.258 77.7146C206.212 77.6681 206.186 77.6052 206.186 77.5395V75.5584C206.186 75.4927 206.212 75.4298 206.258 75.3833C206.305 75.3369 206.368 75.3108 206.433 75.3108H209.86C209.926 75.3108 209.989 75.3369 210.036 75.3833C210.082 75.4298 210.108 75.4927 210.108 75.5584V77.5395C210.108 77.6052 210.082 77.6681 210.036 77.7146C209.989 77.761 209.926 77.7871 209.86 77.7871Z" fill="#161616"/>
<path d="M208.139 76.015C203.082 76.015 198.977 73.0062 198.977 67.4593V63.5764C204.372 64.5892 205.195 58.9878 205.195 58.9878C210.09 67.5014 217.279 61.8702 217.279 61.8702V67.4593C217.289 73.0062 213.193 76.015 208.139 76.015Z" fill="#FFC9B0"/>
<path d="M208.139 76.2631C202.515 76.2631 198.729 72.7269 198.729 67.4598V63.5769C198.728 63.5403 198.735 63.504 198.751 63.4706C198.766 63.4372 198.788 63.4076 198.816 63.384C198.844 63.3603 198.877 63.3431 198.912 63.3336C198.948 63.3242 198.985 63.3227 199.021 63.3293C200.507 63.6091 201.782 63.3887 202.785 62.6706C204.57 61.3978 204.947 58.971 204.949 58.9561C204.957 58.9056 204.98 58.8587 205.016 58.8219C205.051 58.7851 205.097 58.7602 205.147 58.7506C205.198 58.7405 205.25 58.7466 205.297 58.7679C205.345 58.7892 205.384 58.8247 205.41 58.8694C206.876 61.4225 208.693 62.9257 210.813 63.3268C214.134 63.9731 217.098 61.6924 217.128 61.6702C217.164 61.6412 217.208 61.6233 217.255 61.6182C217.301 61.6132 217.348 61.6214 217.39 61.6419C217.432 61.6623 217.467 61.6942 217.491 61.7338C217.516 61.7734 217.529 61.8192 217.529 61.8658V67.4548C217.539 72.7269 213.755 76.2631 208.139 76.2631ZM199.224 63.8815V67.4697C199.224 73.2098 203.696 75.7777 208.139 75.7777C212.581 75.7777 217.053 73.2098 217.053 67.4697V62.3462C216.1 62.9752 213.586 64.3718 210.739 63.832C208.626 63.4209 206.806 62.0168 205.321 59.6594C205.073 60.5261 204.481 62.101 203.092 63.0916C202.032 63.8295 200.737 64.0945 199.234 63.8716L199.224 63.8815Z" fill="#161616"/>
<path d="M197.603 60.7207H198.987V69.7692H197.603C197.116 69.7692 196.649 69.5758 196.305 69.2317C195.961 68.8876 195.768 68.4209 195.768 67.9342V62.5557C195.768 62.069 195.961 61.6023 196.305 61.2581C196.649 60.914 197.116 60.7207 197.603 60.7207Z" fill="#292626"/>
<path d="M198.986 70.0164H197.602C197.05 70.0164 196.521 69.7973 196.13 69.4073C195.74 69.0172 195.52 68.4882 195.52 67.9362V62.5577C195.52 62.0055 195.74 61.4762 196.13 61.0858C196.521 60.6954 197.05 60.4758 197.602 60.4751H198.986C199.052 60.4751 199.115 60.5012 199.161 60.5476C199.208 60.5941 199.234 60.6571 199.234 60.7227V69.7687C199.234 69.8344 199.208 69.8974 199.161 69.9438C199.115 69.9903 199.052 70.0164 198.986 70.0164ZM197.602 60.9704C197.181 60.9704 196.777 61.1376 196.48 61.4353C196.182 61.733 196.015 62.1367 196.015 62.5577V67.9362C196.015 68.3568 196.183 68.7599 196.481 69.0571C196.778 69.3542 197.182 69.5211 197.602 69.5211H198.739V60.9704H197.602Z" fill="#161616"/>
<path d="M218.675 69.7668H217.291V60.7184H218.675C219.161 60.7184 219.628 60.9117 219.972 61.2558C220.316 61.5999 220.51 62.0667 220.51 62.5533V67.9319C220.51 68.4186 220.316 68.8853 219.972 69.2294C219.628 69.5735 219.161 69.7668 218.675 69.7668Z" fill="#292626"/>
<path d="M218.672 70.0164H217.291C217.225 70.0164 217.162 69.9903 217.115 69.9438C217.069 69.8974 217.043 69.8344 217.043 69.7687V60.7227C217.043 60.6571 217.069 60.5941 217.115 60.5476C217.162 60.5012 217.225 60.4751 217.291 60.4751H218.672C219.225 60.4758 219.754 60.6954 220.144 61.0858C220.535 61.4762 220.754 62.0055 220.755 62.5577V67.9362C220.754 68.4882 220.535 69.0172 220.144 69.4073C219.754 69.7973 219.224 70.0164 218.672 70.0164ZM217.538 69.5211H218.672C219.093 69.5211 219.496 69.3542 219.794 69.0571C220.092 68.7599 220.259 68.3568 220.26 67.9362V62.5577C220.26 62.1367 220.092 61.733 219.795 61.4353C219.497 61.1376 219.093 60.9704 218.672 60.9704H217.538V69.5211Z" fill="#161616"/>
<path d="M202.132 74.4646C200.933 74.4646 199.314 74.326 198.494 73.6648C197.112 72.5455 197.164 69.9033 197.167 69.7918C197.167 69.7261 197.193 69.6632 197.239 69.6167C197.286 69.5703 197.349 69.5442 197.414 69.5442C197.48 69.5442 197.543 69.5703 197.59 69.6167C197.636 69.6632 197.662 69.7261 197.662 69.7918C197.662 69.8166 197.615 72.3028 198.804 73.2587C199.992 74.2145 203.509 73.8877 203.548 73.8852C203.613 73.8789 203.678 73.8986 203.729 73.9399C203.779 73.9811 203.811 74.0407 203.818 74.1056C203.822 74.1379 203.819 74.1706 203.809 74.2019C203.8 74.2331 203.785 74.2621 203.764 74.2874C203.744 74.3127 203.719 74.3338 203.69 74.3493C203.662 74.3648 203.63 74.3746 203.598 74.378C203.538 74.4027 202.927 74.4646 202.132 74.4646Z" fill="#161616"/>
<path d="M204.164 73.1921H201.791C201.321 73.1921 200.939 73.5735 200.939 74.044C200.939 74.5145 201.321 74.8958 201.791 74.8958H204.164C204.634 74.8958 205.015 74.5145 205.015 74.044C205.015 73.5735 204.634 73.1921 204.164 73.1921Z" fill="#292626"/>
<path d="M204.165 75.1438H201.793C201.501 75.1438 201.222 75.028 201.015 74.8218C200.809 74.6156 200.693 74.3359 200.693 74.0443C200.693 73.7527 200.809 73.473 201.015 73.2669C201.222 73.0607 201.501 72.9448 201.793 72.9448H204.165C204.457 72.9448 204.736 73.0607 204.943 73.2669C205.149 73.473 205.265 73.7527 205.265 74.0443C205.265 74.3359 205.149 74.6156 204.943 74.8218C204.736 75.028 204.457 75.1438 204.165 75.1438ZM201.793 73.4351C201.633 73.4351 201.479 73.4988 201.366 73.6121C201.252 73.7254 201.189 73.8791 201.189 74.0394C201.189 74.1996 201.252 74.3533 201.366 74.4666C201.479 74.5799 201.633 74.6436 201.793 74.6436H204.165C204.325 74.6436 204.479 74.5799 204.592 74.4666C204.706 74.3533 204.769 74.1996 204.769 74.0394C204.769 73.8791 204.706 73.7254 204.592 73.6121C204.479 73.4988 204.325 73.4351 204.165 73.4351H201.793Z" fill="#161616"/>
<path d="M203.984 77.5381H212.307C213.733 77.5381 215.1 78.1045 216.108 79.1127C217.116 80.1209 217.683 81.4883 217.683 82.9142V94.6371H198.615V82.9166C198.615 81.4917 199.18 80.1247 200.186 79.1162C201.193 78.1077 202.559 77.5401 203.984 77.5381Z" fill="#AEA1FF"/>
<path d="M217.684 94.8875H198.617C198.551 94.8875 198.488 94.8614 198.442 94.815C198.395 94.7685 198.369 94.7055 198.369 94.6399V82.917C198.37 81.4256 198.963 79.9957 200.018 78.941C201.072 77.8862 202.502 77.2927 203.993 77.2908H212.316C213.808 77.2921 215.238 77.8853 216.293 78.9401C217.347 79.9949 217.941 81.4252 217.942 82.917V94.6399C217.942 94.6732 217.935 94.7063 217.922 94.737C217.909 94.7677 217.89 94.7954 217.866 94.8186C217.842 94.8417 217.813 94.8597 217.782 94.8716C217.751 94.8834 217.718 94.8888 217.684 94.8875ZM198.864 94.3922H217.437V82.917C217.435 81.5568 216.894 80.2528 215.932 79.291C214.97 78.3292 213.666 77.788 212.306 77.786H203.983C202.623 77.788 201.319 78.3293 200.358 79.2912C199.396 80.253 198.856 81.557 198.855 82.917L198.864 94.3922Z" fill="#161616"/>
<path d="M208.146 81.9955C206.068 81.9955 203.074 77.5381 203.074 77.5381H213.215C213.215 77.5381 210.221 81.9955 208.146 81.9955Z" fill="white"/>
<path d="M208.146 82.2431C205.962 82.2431 202.995 77.8625 202.869 77.6767C202.847 77.6391 202.836 77.5964 202.836 77.5529C202.836 77.5095 202.847 77.4667 202.869 77.4291C202.89 77.3896 202.922 77.3565 202.96 77.3334C202.998 77.3102 203.042 77.298 203.087 77.2979H213.228C213.273 77.2975 213.317 77.3096 213.356 77.3327C213.395 77.3559 213.427 77.3892 213.448 77.4291C213.467 77.468 213.476 77.5114 213.474 77.5549C213.471 77.5984 213.457 77.6404 213.433 77.6767C213.297 77.8625 210.328 82.2431 208.146 82.2431ZM203.55 77.7857C204.541 79.17 206.7 81.7478 208.146 81.7478C209.592 81.7478 211.744 79.17 212.742 77.7857H203.55Z" fill="#161616"/>
<path d="M204.461 77.5381C204.461 77.5381 205.924 79.0239 206.598 78.8357C207.272 78.6475 208.118 77.5381 208.118 77.5381H204.461Z" fill="white"/>
<path d="M206.481 79.0985C205.693 79.0985 204.524 77.9594 204.284 77.7142C204.249 77.6796 204.225 77.6353 204.216 77.5871C204.206 77.5389 204.211 77.4889 204.23 77.4434C204.249 77.398 204.281 77.3592 204.322 77.332C204.363 77.3049 204.411 77.2905 204.46 77.2908H208.118C208.164 77.2907 208.209 77.3036 208.249 77.3282C208.288 77.3527 208.32 77.3878 208.34 77.4294C208.361 77.4708 208.369 77.517 208.365 77.563C208.361 77.6089 208.344 77.6527 208.316 77.6895C208.224 77.8108 207.397 78.8731 206.664 79.0737C206.604 79.0908 206.543 79.0991 206.481 79.0985ZM205.087 77.786C205.659 78.2813 206.273 78.6676 206.533 78.5983C206.86 78.5066 207.276 78.1179 207.585 77.786H205.087Z" fill="#161616"/>
<path d="M211.83 77.5381C211.83 77.5381 210.364 79.0239 209.69 78.8357C209.017 78.6475 208.17 77.5381 208.17 77.5381H211.83Z" fill="white"/>
<path d="M209.808 79.0985C209.747 79.0991 209.686 79.0908 209.627 79.0737C208.884 78.8731 208.067 77.8108 207.975 77.6895C207.947 77.6528 207.93 77.6091 207.925 77.5631C207.92 77.5171 207.929 77.4708 207.949 77.4293C207.97 77.3878 208.001 77.3529 208.04 77.3284C208.079 77.3039 208.125 77.2909 208.171 77.2908H211.831C211.88 77.291 211.927 77.3057 211.968 77.333C212.009 77.3604 212.04 77.3991 212.059 77.4443C212.078 77.4894 212.083 77.5391 212.074 77.5871C212.064 77.6352 212.041 77.6794 212.007 77.7142C211.774 77.9569 210.595 79.0985 209.808 79.0985ZM208.706 77.786C209.01 78.1179 209.429 78.5066 209.758 78.5983C210.006 78.6676 210.632 78.2788 211.202 77.786H208.706Z" fill="#161616"/>
<path d="M208.171 82.2434C208.106 82.2434 208.043 82.2173 207.996 82.1709C207.95 82.1244 207.924 82.0615 207.924 81.9958V77.5384C207.924 77.4727 207.95 77.4097 207.996 77.3633C208.043 77.3169 208.106 77.2908 208.171 77.2908C208.237 77.2908 208.3 77.3169 208.347 77.3633C208.393 77.4097 208.419 77.4727 208.419 77.5384V81.9958C208.419 82.0615 208.393 82.1244 208.347 82.1709C208.3 82.2173 208.237 82.2434 208.171 82.2434Z" fill="#161616"/>
<path d="M196.588 76.5471C196.588 76.5471 190.335 88.3864 192.626 90.885C194.916 93.3836 197.784 91.7096 198.621 89.8945C199.458 88.0793 199.842 77.8918 199.842 77.8918L196.588 76.5471Z" fill="#AEA1FF"/>
<path d="M195.237 92.398C194.44 92.398 193.429 92.1157 192.451 91.0533C190.059 88.4532 196.109 76.921 196.366 76.4307C196.395 76.3762 196.444 76.3346 196.502 76.314C196.56 76.2934 196.624 76.2953 196.681 76.3192L199.935 77.6663C199.983 77.6861 200.024 77.7207 200.052 77.7652C200.079 77.8097 200.092 77.8618 200.088 77.914C200.071 78.3325 199.702 88.1734 198.85 90.0108C198.557 90.6183 198.125 91.1481 197.589 91.5573C197.053 91.9665 196.428 92.2435 195.764 92.3658C195.59 92.3896 195.413 92.4004 195.237 92.398ZM196.701 76.8615C194.93 80.2615 191.062 88.8122 192.815 90.7165C193.657 91.6328 194.653 92.029 195.693 91.8655C196.274 91.7546 196.822 91.5095 197.292 91.1497C197.763 90.7899 198.143 90.3253 198.402 89.7929C199.145 88.1734 199.528 79.3923 199.583 78.0576L196.701 76.8615Z" fill="#161616"/>
<path d="M198.537 71.9906C198.537 71.9906 202.675 71.5746 203.047 72.5032C203.418 73.4318 202.116 73.6646 200.583 73.4789C200.583 73.4789 201.838 74.1772 201.838 75.3856C201.838 76.5941 199.84 77.8917 199.84 77.8917L196.586 76.5446C196.586 76.5446 196.631 73.0604 198.537 71.9906Z" fill="#FFC9B0"/>
<path d="M199.841 78.1402C199.808 78.1405 199.776 78.1346 199.745 78.1229L196.491 76.7733C196.446 76.7541 196.407 76.722 196.38 76.681C196.354 76.64 196.339 76.592 196.34 76.543C196.34 76.3944 196.412 72.9003 198.417 71.7736C198.447 71.7563 198.48 71.7461 198.514 71.7439C199.529 71.6423 202.87 71.3873 203.278 72.41C203.346 72.5457 203.374 72.6972 203.36 72.848C203.347 72.9987 203.292 73.1428 203.202 73.2643C202.867 73.7026 202.08 73.7967 201.369 73.7843C201.588 73.9908 201.764 74.2383 201.887 74.5128C202.011 74.7872 202.079 75.0833 202.087 75.384C202.087 76.7114 200.062 78.0436 199.975 78.108C199.934 78.1311 199.888 78.1423 199.841 78.1402ZM196.843 76.382L199.814 77.6202C200.396 77.2165 201.595 76.2161 201.595 75.3915C201.595 74.339 200.478 73.7076 200.465 73.7026C200.415 73.675 200.375 73.6304 200.353 73.5766C200.332 73.5228 200.33 73.4632 200.348 73.4082C200.366 73.3531 200.403 73.3061 200.452 73.2753C200.501 73.2445 200.559 73.2319 200.616 73.2396C201.959 73.403 202.64 73.1975 202.813 72.9696C202.855 72.9127 202.905 72.8136 202.813 72.6007C202.627 72.1376 200.5 72.0534 198.603 72.2391C197.125 73.1182 196.88 75.7035 196.843 76.3845V76.382Z" fill="#161616"/>
<path d="M217.469 98.2498H198.085C197.634 98.2505 197.199 98.0807 196.868 97.7744C196.537 97.468 196.334 97.0479 196.299 96.5981L195.435 85.4547C195.416 85.2086 195.448 84.9612 195.529 84.7281C195.61 84.4949 195.738 84.281 195.906 84.0999C196.074 83.9187 196.277 83.7742 196.503 83.6754C196.729 83.5766 196.974 83.5256 197.22 83.5256H218.331C218.578 83.5256 218.822 83.5766 219.048 83.6754C219.275 83.7742 219.478 83.9187 219.645 84.0999C219.813 84.281 219.942 84.4949 220.023 84.7281C220.104 84.9612 220.136 85.2086 220.117 85.4547L219.252 96.5981C219.218 97.0475 219.015 97.4673 218.685 97.7735C218.354 98.0798 217.92 98.2499 217.469 98.2498Z" fill="white"/>
<path d="M217.47 98.4978H198.085C197.572 98.4958 197.079 98.3016 196.703 97.9536C196.326 97.6056 196.094 97.1291 196.052 96.6182L195.188 85.4748C195.166 85.1947 195.203 84.9131 195.295 84.6477C195.388 84.3824 195.534 84.139 195.725 83.9328C195.916 83.7265 196.147 83.562 196.404 83.4494C196.662 83.3368 196.94 83.2785 197.221 83.2783H218.331C218.612 83.2785 218.89 83.3368 219.148 83.4494C219.405 83.562 219.636 83.7265 219.827 83.9328C220.018 84.139 220.164 84.3824 220.257 84.6477C220.349 84.9131 220.386 85.1947 220.364 85.4748L219.5 96.6182C219.458 97.1287 219.226 97.6049 218.85 97.9528C218.474 98.3007 217.982 98.4952 217.47 98.4978ZM197.223 83.7662C197.01 83.7662 196.8 83.8102 196.605 83.8955C196.41 83.9808 196.235 84.1056 196.09 84.2619C195.946 84.4181 195.835 84.6026 195.766 84.8037C195.696 85.0048 195.669 85.2181 195.685 85.4302L196.547 96.5737C196.579 96.9608 196.755 97.322 197.04 97.5857C197.325 97.8494 197.699 97.9964 198.087 97.9976H217.47C217.858 97.9964 218.232 97.8494 218.517 97.5857C218.802 97.322 218.978 96.9608 219.01 96.5737L219.872 85.4302C219.888 85.2181 219.861 85.0048 219.791 84.8037C219.722 84.6026 219.611 84.4181 219.467 84.2619C219.322 84.1056 219.147 83.9808 218.952 83.8955C218.757 83.8102 218.547 83.7662 218.334 83.7662H197.223Z" fill="#161616"/>
<path d="M207.774 92.9121C207.373 92.9121 206.981 92.7933 206.648 92.5707C206.315 92.3481 206.056 92.0318 205.902 91.6616C205.749 91.2915 205.709 90.8842 205.787 90.4913C205.865 90.0984 206.058 89.7374 206.341 89.4541C206.625 89.1708 206.986 88.9779 207.378 88.8998C207.771 88.8216 208.179 88.8617 208.549 89.015C208.919 89.1683 209.235 89.428 209.458 89.7611C209.681 90.0942 209.799 90.4858 209.799 90.8865C209.799 91.4235 209.585 91.9383 209.205 92.3181C208.826 92.6978 208.311 92.9114 207.774 92.9121ZM207.774 89.3561C207.471 89.3561 207.175 89.4459 206.923 89.614C206.672 89.7822 206.476 90.0212 206.36 90.3008C206.244 90.5805 206.214 90.8882 206.273 91.185C206.332 91.4819 206.478 91.7546 206.692 91.9686C206.906 92.1826 207.178 92.3284 207.475 92.3874C207.772 92.4465 208.08 92.4162 208.359 92.3003C208.639 92.1845 208.878 91.9884 209.046 91.7367C209.214 91.485 209.304 91.1891 209.304 90.8865C209.303 90.4808 209.142 90.0919 208.855 89.8051C208.568 89.5182 208.179 89.3568 207.774 89.3561Z" fill="#DFEAEF"/>
</g>
</g>
<path fill-rule="evenodd" clip-rule="evenodd" d="M14.9107 40C12.7509 40 11 41.7509 11 43.9107V86.928C11 89.0878 12.7509 90.8386 14.9107 90.8386H176.551C178.711 90.8386 180.462 89.0878 180.462 86.928V84.1541L185.703 79.4327L180.462 74.8015V43.9107C180.462 41.7509 178.711 40 176.551 40H14.9107Z" fill="#161616"/>
<path d="M24.9224 57.1729V55.7337H26.3563V57.1729H24.9224ZM28.0509 61.2817C27.8319 61.7961 27.4982 62.1959 27.0498 62.4809C26.6048 62.766 26.0799 62.9085 25.4751 62.9085C24.9537 62.9085 24.5139 62.8286 24.1559 62.6687C23.8013 62.5122 23.5319 62.2984 23.3477 62.0273C23.1635 61.7562 23.0713 61.4503 23.0713 61.1096C23.0713 60.8246 23.12 60.583 23.2173 60.3848C23.3182 60.1832 23.445 60.0059 23.598 59.853C23.7509 59.6965 23.9143 59.5523 24.0881 59.4202C24.2654 59.2881 24.4305 59.1508 24.5835 59.0083C24.7364 58.8623 24.8616 58.6972 24.9589 58.5129C25.0597 58.3252 25.1101 58.1045 25.1101 57.8507H26.1582C26.1582 58.1531 26.1147 58.4173 26.0278 58.6433C25.9409 58.8657 25.8279 59.0622 25.6889 59.2325C25.5533 59.4028 25.4073 59.5575 25.2509 59.6965C25.0979 59.8321 24.9519 59.9677 24.8129 60.1033C24.6738 60.2354 24.5609 60.3779 24.474 60.5308C24.3871 60.6803 24.3436 60.8524 24.3436 61.047C24.3436 61.3251 24.4496 61.5493 24.6617 61.7197C24.8772 61.89 25.1518 61.9752 25.4855 61.9752C25.6906 61.9752 25.8905 61.9334 26.0852 61.85C26.2833 61.7666 26.4588 61.6501 26.6118 61.5007C26.7648 61.3547 26.8795 61.1861 26.9559 60.9949L28.0509 61.2817ZM28.5017 54.7274V53.5855H34.3833V54.7274H32.1204V61.1252H30.8481V54.7274H28.5017ZM36.6353 55.7337V61.1252H35.4152V55.7337H36.6353ZM36.651 53.5907V54.79H35.3943V53.5907H36.651ZM39.1638 58.7215C39.1603 59.0274 39.209 59.2985 39.3098 59.5349C39.4106 59.7713 39.5601 59.9573 39.7582 60.0928C39.9564 60.2249 40.2014 60.291 40.4934 60.291C40.7924 60.291 41.0514 60.2249 41.2703 60.0928C41.4928 59.9573 41.6406 59.7522 41.7136 59.4776H42.8763C42.8138 59.853 42.6643 60.171 42.4279 60.4318C42.1915 60.6925 41.9047 60.8906 41.5676 61.0262C41.2338 61.1617 40.8862 61.2295 40.5247 61.2295C40.0033 61.2295 39.5444 61.12 39.1482 60.901C38.7554 60.6786 38.4477 60.3622 38.2252 59.952C38.0062 59.5419 37.8968 59.0535 37.8968 58.4869C37.8968 57.9341 37.9976 57.444 38.1992 57.0164C38.4008 56.5854 38.691 56.2465 39.0699 55.9997C39.4523 55.7529 39.9112 55.6295 40.4465 55.6295C40.9784 55.6295 41.425 55.7424 41.7866 55.9684C42.1516 56.1943 42.4262 56.5107 42.6104 56.9174C42.7981 57.3206 42.892 57.7934 42.892 58.3356V58.7215H39.1638ZM39.1638 57.9341H41.6927C41.6927 57.6734 41.6475 57.4388 41.5571 57.2302C41.4668 57.0182 41.3277 56.8513 41.14 56.7297C40.9558 56.6045 40.7229 56.5419 40.4413 56.5419C40.1632 56.5419 39.9286 56.6097 39.7374 56.7453C39.5462 56.8809 39.4019 57.0564 39.3046 57.2719C39.2073 57.484 39.1603 57.7047 39.1638 57.9341ZM44.0746 61.1252V55.7337H45.3156V56.5054C45.399 56.3664 45.512 56.2326 45.6545 56.104C45.8005 55.9753 45.9795 55.8711 46.1916 55.7911C46.4036 55.7111 46.6522 55.6712 46.9372 55.6712C47.2709 55.6712 47.5803 55.7372 47.8654 55.8693C48.1539 56.0014 48.385 56.2082 48.5588 56.4898C48.7361 56.7714 48.8248 57.1346 48.8248 57.5796V61.1252H47.5525V57.7308C47.5525 57.3762 47.4552 57.1138 47.2605 56.9434C47.0658 56.7696 46.8208 56.6827 46.5253 56.6827C46.3237 56.6827 46.1325 56.7175 45.9517 56.787C45.771 56.8531 45.6232 56.9556 45.5085 57.0947C45.3973 57.2302 45.3417 57.4006 45.3417 57.6056V61.1252H44.0746ZM51.1809 58.7215C51.1775 59.0274 51.2261 59.2985 51.3269 59.5349C51.4278 59.7713 51.5772 59.9573 51.7754 60.0928C51.9735 60.2249 52.2186 60.291 52.5106 60.291C52.8095 60.291 53.0685 60.2249 53.2875 60.0928C53.51 59.9573 53.6577 59.7522 53.7307 59.4776H54.8935C54.8309 59.853 54.6814 60.171 54.445 60.4318C54.2087 60.6925 53.9219 60.8906 53.5847 61.0262C53.251 61.1617 52.9034 61.2295 52.5419 61.2295C52.0204 61.2295 51.5616 61.12 51.1653 60.901C50.7725 60.6786 50.4649 60.3622 50.2424 59.952C50.0234 59.5419 49.9139 59.0535 49.9139 58.4869C49.9139 57.9341 50.0147 57.444 50.2163 57.0164C50.4179 56.5854 50.7082 56.2465 51.0871 55.9997C51.4695 55.7529 51.9283 55.6295 52.4636 55.6295C52.9955 55.6295 53.4422 55.7424 53.8037 55.9684C54.1687 56.1943 54.4433 56.5107 54.6275 56.9174C54.8153 57.3206 54.9091 57.7934 54.9091 58.3356V58.7215H51.1809ZM51.1809 57.9341H53.7098C53.7098 57.6734 53.6647 57.4388 53.5743 57.2302C53.4839 57.0182 53.3448 56.8513 53.1571 56.7297C52.9729 56.6045 52.74 56.5419 52.4584 56.5419C52.1803 56.5419 51.9457 56.6097 51.7545 56.7453C51.5633 56.8809 51.4191 57.0564 51.3217 57.2719C51.2244 57.484 51.1775 57.7047 51.1809 57.9341ZM58.0997 61.2295C57.7243 61.2295 57.368 61.1704 57.0308 61.0522C56.6971 60.9306 56.4155 60.7411 56.1861 60.4839C55.9602 60.2267 55.8176 59.8947 55.7585 59.488H56.8744C56.923 59.6861 57.0082 59.8478 57.1299 59.9729C57.255 60.098 57.4028 60.1902 57.5731 60.2493C57.7434 60.3049 57.9172 60.3327 58.0945 60.3327C58.4178 60.3327 58.6785 60.2771 58.8766 60.1658C59.0783 60.0546 59.1791 59.8825 59.1791 59.6496C59.1791 59.4793 59.1234 59.3437 59.0122 59.2429C58.901 59.1421 58.7237 59.0656 58.4804 59.0135L57.4532 58.7788C56.9978 58.678 56.6311 58.5112 56.353 58.2783C56.0783 58.0454 55.9393 57.7169 55.9358 57.2928C55.9323 56.973 56.0123 56.6879 56.1757 56.4377C56.3391 56.1874 56.5824 55.991 56.9057 55.8485C57.2289 55.7025 57.6287 55.6295 58.1049 55.6295C58.7341 55.6295 59.2382 55.7702 59.6171 56.0518C59.996 56.3299 60.1906 56.7279 60.2011 57.2459H59.1217C59.0835 57.013 58.974 56.8322 58.7932 56.7036C58.6125 56.5715 58.3778 56.5054 58.0893 56.5054C57.7903 56.5054 57.5453 56.5628 57.3541 56.6775C57.1629 56.7922 57.0673 56.9678 57.0673 57.2042C57.0673 57.3675 57.1403 57.4961 57.2863 57.59C57.4323 57.6839 57.6513 57.7638 57.9433 57.8299L58.9131 58.0645C59.1912 58.134 59.4189 58.2279 59.5962 58.3461C59.7735 58.4643 59.9125 58.5946 60.0133 58.7371C60.1141 58.8762 60.1837 59.0204 60.2219 59.1699C60.2636 59.3159 60.2845 59.4515 60.2845 59.5766C60.2845 59.9242 60.1941 60.2214 60.0133 60.4683C59.8361 60.7116 59.584 60.8993 59.2573 61.0314C58.9305 61.1635 58.5447 61.2295 58.0997 61.2295ZM65.6143 61.2295C64.9017 61.2295 64.342 60.9845 63.9353 60.4943C63.5286 60.0042 63.3253 59.3072 63.3253 58.4034C63.3253 57.8403 63.407 57.3519 63.5703 56.9382C63.7372 56.5211 63.9805 56.1995 64.3003 55.9736C64.6236 55.7442 65.0234 55.6295 65.4996 55.6295C65.7221 55.6295 65.9237 55.6573 66.1044 55.7129C66.2887 55.765 66.4521 55.8346 66.5946 55.9215C66.7371 56.0084 66.857 56.104 66.9544 56.2082C67.0552 56.3125 67.1334 56.4168 67.189 56.5211V53.3769H68.4613V61.1252H67.5227L67.3819 60.0198C67.3402 60.1484 67.2776 60.284 67.1942 60.4265C67.1143 60.5656 67.0048 60.6959 66.8657 60.8176C66.7301 60.9393 66.5598 61.0383 66.3547 61.1148C66.1496 61.1913 65.9028 61.2295 65.6143 61.2295ZM65.875 60.2962C66.3304 60.2962 66.6624 60.1484 66.8709 59.853C67.083 59.554 67.189 59.0604 67.189 58.3721C67.1855 57.9793 67.1369 57.6491 67.043 57.3814C66.9526 57.1138 66.8118 56.9122 66.6207 56.7766C66.4329 56.641 66.1896 56.5732 65.8907 56.5732C65.5083 56.5732 65.1937 56.714 64.9469 56.9956C64.7001 57.2772 64.5767 57.736 64.5767 58.3721C64.5767 59.0048 64.6897 59.4845 64.9156 59.8113C65.1416 60.1345 65.4614 60.2962 65.875 60.2962ZM71.8827 61.2295C71.6185 61.2295 71.363 61.1913 71.1162 61.1148C70.8729 61.0349 70.6539 60.9202 70.4592 60.7707C70.2645 60.6177 70.1099 60.43 69.9951 60.2075C69.8804 59.9851 69.8231 59.7261 69.8231 59.4306V55.7337H71.0953V59.2846C71.0953 59.5766 71.1875 59.8165 71.3717 60.0042C71.5594 60.1919 71.841 60.2858 72.2164 60.2858C72.5571 60.2858 72.8299 60.1971 73.035 60.0198C73.2401 59.8391 73.3427 59.5801 73.3427 59.2429V55.7337H74.6045V61.1252H73.6295L73.4887 60.072C73.4226 60.3674 73.3062 60.6003 73.1393 60.7707C72.9759 60.9375 72.783 61.0557 72.5605 61.1252C72.3415 61.1948 72.1156 61.2295 71.8827 61.2295ZM77.937 61.2295C77.2244 61.2295 76.6647 60.9845 76.258 60.4943C75.8513 60.0042 75.6479 59.3072 75.6479 58.4034C75.6479 57.8403 75.7296 57.3519 75.893 56.9382C76.0599 56.5211 76.3032 56.1995 76.623 55.9736C76.9463 55.7442 77.346 55.6295 77.8223 55.6295C78.0447 55.6295 78.2463 55.6573 78.4271 55.7129C78.6113 55.765 78.7747 55.8346 78.9172 55.9215C79.0598 56.0084 79.1797 56.104 79.277 56.2082C79.3778 56.3125 79.456 56.4168 79.5117 56.5211V53.3769H80.7839V61.1252H79.8454L79.7046 60.0198C79.6629 60.1484 79.6003 60.284 79.5169 60.4265C79.4369 60.5656 79.3274 60.6959 79.1884 60.8176C79.0528 60.9393 78.8825 61.0383 78.6774 61.1148C78.4723 61.1913 78.2255 61.2295 77.937 61.2295ZM78.1977 60.2962C78.6531 60.2962 78.985 60.1484 79.1936 59.853C79.4056 59.554 79.5117 59.0604 79.5117 58.3721C79.5082 57.9793 79.4595 57.6491 79.3657 57.3814C79.2753 57.1138 79.1345 56.9122 78.9433 56.7766C78.7556 56.641 78.5123 56.5732 78.2133 56.5732C77.8309 56.5732 77.5164 56.714 77.2695 56.9956C77.0227 57.2772 76.8993 57.736 76.8993 58.3721C76.8993 59.0048 77.0123 59.4845 77.2383 59.8113C77.4642 60.1345 77.784 60.2962 78.1977 60.2962ZM83.7517 61.2295C83.4076 61.2295 83.0982 61.167 82.8236 61.0418C82.5524 60.9132 82.3387 60.7307 82.1822 60.4943C82.0293 60.2545 81.9528 59.9642 81.9528 59.6235C81.9528 59.0291 82.1666 58.5807 82.5942 58.2783C83.0252 57.9759 83.7117 57.8177 84.6538 57.8038L85.4568 57.7829V57.4179C85.4568 57.1329 85.3716 56.9104 85.2013 56.7505C85.0344 56.5871 84.7737 56.5072 84.4191 56.5107C84.1584 56.5141 83.9186 56.5767 83.6996 56.6984C83.4841 56.8166 83.3415 57.0164 83.272 57.298H82.1927C82.2135 56.9295 82.3195 56.6219 82.5107 56.3751C82.7054 56.1248 82.9713 55.9388 83.3085 55.8172C83.6457 55.692 84.035 55.6295 84.4765 55.6295C84.991 55.6295 85.4098 55.6972 85.7331 55.8328C86.0564 55.9684 86.2945 56.1648 86.4475 56.422C86.6004 56.6758 86.6769 56.9834 86.6769 57.3449V61.1252H85.608L85.5089 60.1554C85.3142 60.5621 85.0674 60.8437 84.7685 61.0001C84.473 61.1531 84.1341 61.2295 83.7517 61.2295ZM84.1636 60.3692C84.3201 60.3692 84.4748 60.3414 84.6277 60.2858C84.7807 60.2267 84.9197 60.1484 85.0448 60.0511C85.17 59.9503 85.2691 59.8391 85.3421 59.7174C85.4185 59.5957 85.4568 59.4689 85.4568 59.3368V58.4869L84.7946 58.4973C84.4678 58.5008 84.1828 58.5355 83.9394 58.6016C83.6961 58.6676 83.5049 58.7736 83.3659 58.9196C83.2303 59.0622 83.1625 59.2533 83.1625 59.4932C83.1625 59.7678 83.2581 59.9833 83.4493 60.1398C83.6405 60.2927 83.8786 60.3692 84.1636 60.3692ZM90.1183 61.2295C89.7429 61.2295 89.3865 61.1704 89.0494 61.0522C88.7157 60.9306 88.4341 60.7411 88.2047 60.4839C87.9787 60.2267 87.8362 59.8947 87.7771 59.488H88.8929C88.9416 59.6861 89.0268 59.8478 89.1484 59.9729C89.2736 60.098 89.4213 60.1902 89.5916 60.2493C89.762 60.3049 89.9358 60.3327 90.1131 60.3327C90.4363 60.3327 90.6971 60.2771 90.8952 60.1658C91.0968 60.0546 91.1976 59.8825 91.1976 59.6496C91.1976 59.4793 91.142 59.3437 91.0308 59.2429C90.9195 59.1421 90.7422 59.0656 90.4989 59.0135L89.4717 58.7788C89.0163 58.678 88.6496 58.5112 88.3715 58.2783C88.0969 58.0454 87.9579 57.7169 87.9544 57.2928C87.9509 56.973 88.0309 56.6879 88.1942 56.4377C88.3576 56.1874 88.6009 55.991 88.9242 55.8485C89.2475 55.7025 89.6473 55.6295 90.1235 55.6295C90.7527 55.6295 91.2567 55.7702 91.6356 56.0518C92.0145 56.3299 92.2092 56.7279 92.2196 57.2459H91.1403C91.102 57.013 90.9925 56.8322 90.8118 56.7036C90.631 56.5715 90.3964 56.5054 90.1078 56.5054C89.8089 56.5054 89.5638 56.5628 89.3726 56.6775C89.1815 56.7922 89.0859 56.9678 89.0859 57.2042C89.0859 57.3675 89.1589 57.4961 89.3049 57.59C89.4509 57.6839 89.6699 57.7638 89.9619 57.8299L90.9317 58.0645C91.2098 58.134 91.4375 58.2279 91.6148 58.3461C91.792 58.4643 91.9311 58.5946 92.0319 58.7371C92.1327 58.8762 92.2022 59.0204 92.2405 59.1699C92.2822 59.3159 92.303 59.4515 92.303 59.5766C92.303 59.9242 92.2127 60.2214 92.0319 60.4683C91.8546 60.7116 91.6026 60.8993 91.2758 61.0314C90.9491 61.1635 90.5632 61.2295 90.1183 61.2295ZM95.9667 59.6861V61.1252H94.538V59.6861H95.9667ZM92.8381 55.1028C93.0606 54.5849 93.3943 54.1851 93.8393 53.9036C94.2877 53.622 94.8126 53.4812 95.414 53.4812C95.8972 53.4812 96.3178 53.5612 96.6758 53.7211C97.0373 53.8775 97.3172 54.0913 97.5153 54.3624C97.7169 54.6301 97.8177 54.9325 97.8177 55.2697C97.8177 55.6173 97.7482 55.9162 97.6092 56.1665C97.4701 56.4133 97.2998 56.6375 97.0982 56.8392C96.8965 57.0408 96.6932 57.2407 96.4881 57.4388C96.2865 57.6369 96.1162 57.8577 95.9771 58.101C95.8415 58.3409 95.7738 58.6276 95.7738 58.9613H94.7309C94.7309 58.572 94.7917 58.2348 94.9134 57.9498C95.0351 57.6647 95.1863 57.4127 95.367 57.1937C95.5478 56.9713 95.7268 56.7662 95.9041 56.5784C96.0849 56.3873 96.2361 56.1926 96.3577 55.9945C96.4829 55.7963 96.5455 55.5756 96.5455 55.3322C96.5455 55.0403 96.4377 54.8091 96.2222 54.6388C96.0101 54.4684 95.7373 54.3833 95.4035 54.3833C95.1984 54.3833 94.9968 54.4267 94.7987 54.5136C94.604 54.597 94.4302 54.7152 94.2773 54.8682C94.1243 55.0177 94.0096 55.1915 93.9331 55.3896L92.8381 55.1028ZM26.5336 77.2295C25.8731 77.2295 25.3013 77.0801 24.8181 76.7811C24.3384 76.4787 23.9665 76.0407 23.7023 75.4671C23.4416 74.8936 23.3112 74.1949 23.3112 73.371C23.3112 72.5402 23.4416 71.8363 23.7023 71.2592C23.9665 70.6787 24.3401 70.2373 24.8233 69.9348C25.3065 69.6324 25.8766 69.4812 26.5336 69.4812C27.1906 69.4812 27.7572 69.6324 28.2334 69.9348C28.7131 70.2373 29.0816 70.677 29.3388 71.254C29.5995 71.8311 29.7299 72.5367 29.7299 73.371C29.7299 74.1949 29.6013 74.8936 29.344 75.4671C29.0868 76.0407 28.7183 76.4787 28.2386 76.7811C27.7624 77.0801 27.1941 77.2295 26.5336 77.2295ZM26.5336 76.4995C27.0272 76.4995 27.4443 76.3883 27.785 76.1658C28.1291 75.9434 28.3898 75.601 28.5671 75.1386C28.7444 74.6763 28.8331 74.0888 28.8331 73.3762C28.8331 72.6532 28.7427 72.0588 28.5619 71.593C28.3812 71.1237 28.1187 70.7761 27.7746 70.5501C27.4339 70.3207 27.0202 70.206 26.5336 70.206C26.0469 70.206 25.6298 70.3207 25.2822 70.5501C24.938 70.7795 24.6738 71.1289 24.4896 71.5982C24.3054 72.0675 24.2133 72.6601 24.2133 73.3762C24.2133 74.0923 24.3054 74.6815 24.4896 75.1438C24.6738 75.6027 24.938 75.9434 25.2822 76.1658C25.6298 76.3883 26.0469 76.4995 26.5336 76.4995ZM33.6685 77.2295C33.3383 77.2295 33.0602 77.1861 32.8342 77.0992C32.6118 77.0088 32.431 76.8976 32.292 76.7655C32.1529 76.6334 32.0469 76.4995 31.9739 76.364C31.9009 76.2284 31.8487 76.1137 31.8175 76.0198L31.734 77.1252H31.0927V69.3769H31.9165V72.6202C31.9548 72.5402 32.0191 72.4446 32.1095 72.3334C32.1998 72.2221 32.318 72.1126 32.464 72.0049C32.61 71.8971 32.7873 71.8085 32.9959 71.739C33.2044 71.666 33.446 71.6295 33.7207 71.6295C34.395 71.6295 34.9338 71.8624 35.3371 72.3282C35.7403 72.794 35.9419 73.4875 35.9419 74.4086C35.9419 74.9752 35.8567 75.4706 35.6864 75.8947C35.5196 76.3153 35.2675 76.6438 34.9303 76.8802C34.5966 77.1131 34.176 77.2295 33.6685 77.2295ZM33.5382 76.583C34.0074 76.583 34.3863 76.4039 34.6749 76.0459C34.9668 75.6879 35.1128 75.1247 35.1128 74.3565C35.1128 73.7099 34.979 73.2024 34.7114 72.8339C34.4437 72.4655 34.0457 72.2812 33.5173 72.2812C33.1314 72.2812 32.8221 72.3647 32.5892 72.5315C32.3563 72.6949 32.1859 72.9313 32.0782 73.2407C31.9739 73.55 31.92 73.922 31.9165 74.3565C31.9165 75.1421 32.0399 75.7105 32.2867 76.0615C32.5335 76.4092 32.9507 76.583 33.5382 76.583ZM39.6949 72.3438H38.4748V75.8217C38.4748 76.0303 38.4939 76.1832 38.5322 76.2805C38.5739 76.3744 38.6451 76.4352 38.7459 76.463C38.8502 76.4874 38.9945 76.4995 39.1787 76.4995H39.7314V77.0627C39.6654 77.087 39.5663 77.1079 39.4342 77.1252C39.3056 77.1391 39.1509 77.1461 38.9701 77.1461C38.626 77.1461 38.3583 77.0974 38.1672 77.0001C37.9794 76.9028 37.8474 76.7585 37.7709 76.5673C37.6944 76.3761 37.6562 76.1363 37.6562 75.8478V72.3438H36.7802V71.7337H37.677L37.8699 70.1799H38.4748V71.7285H39.6949V72.3438ZM41.5644 74.6172C41.5644 74.9787 41.6235 75.3072 41.7417 75.6027C41.8599 75.8982 42.0424 76.1345 42.2892 76.3118C42.536 76.4891 42.8488 76.5778 43.2277 76.5778C43.5927 76.5778 43.9073 76.4926 44.1715 76.3223C44.4357 76.1484 44.6008 75.9034 44.6668 75.587H45.449C45.3829 75.9486 45.2387 76.251 45.0162 76.4943C44.7972 76.7377 44.5313 76.9219 44.2184 77.047C43.909 77.1687 43.5823 77.2295 43.2381 77.2295C42.7445 77.2295 42.3083 77.1218 41.9294 76.9062C41.554 76.6872 41.2602 76.3727 41.0482 75.9625C40.8396 75.5523 40.7353 75.0587 40.7353 74.4816C40.7353 73.9081 40.8309 73.4075 41.0221 72.9799C41.2133 72.5489 41.4896 72.2169 41.8512 71.984C42.2162 71.7476 42.6559 71.6295 43.1704 71.6295C43.6674 71.6295 44.0881 71.7372 44.4322 71.9527C44.7763 72.1648 45.0388 72.4689 45.2195 72.8652C45.4003 73.2615 45.4907 73.7343 45.4907 74.2835V74.6172H41.5644ZM41.5696 74.0384H44.6981C44.6981 73.7047 44.6425 73.404 44.5313 73.1364C44.42 72.8687 44.2514 72.6567 44.0255 72.5002C43.7995 72.3438 43.5128 72.2656 43.1651 72.2656C42.7967 72.2656 42.4943 72.3542 42.2579 72.5315C42.025 72.7053 41.8512 72.9278 41.7365 73.1989C41.6217 73.4701 41.5661 73.7499 41.5696 74.0384ZM43.9056 69.5855H44.8754L43.478 71.1028H42.8314L43.9056 69.5855ZM46.8779 77.1252V71.7337H47.66V72.5211C47.7504 72.3647 47.8738 72.2204 48.0303 72.0883C48.1902 71.9562 48.3831 71.8502 48.609 71.7702C48.8385 71.6903 49.0957 71.6503 49.3807 71.6503C49.7284 71.6503 50.0447 71.7198 50.3297 71.8589C50.6182 71.9945 50.8477 72.2065 51.018 72.495C51.1883 72.7835 51.2735 73.1537 51.2735 73.6056V77.1252H50.4601V73.6786C50.4601 73.2198 50.3436 72.8809 50.1107 72.6619C49.8778 72.4429 49.5702 72.3334 49.1878 72.3334C48.9271 72.3334 48.682 72.3751 48.4526 72.4585C48.2232 72.5419 48.0389 72.6688 47.8999 72.8392C47.7609 73.0095 47.6913 73.2233 47.6913 73.4805V77.1252H46.8779ZM56.7757 77.2295C56.4246 77.2295 56.117 77.1687 55.8528 77.047C55.5886 76.9219 55.3818 76.7446 55.2323 76.5152C55.0863 76.2858 55.0133 76.0094 55.0133 75.6861C55.0133 75.0882 55.2167 74.645 55.6234 74.3565C56.0336 74.068 56.6958 73.9115 57.61 73.8872L58.6528 73.8559V73.4075C58.6528 73.0564 58.5451 72.7766 58.3296 72.568C58.1175 72.356 57.789 72.2517 57.3441 72.2552C57.0104 72.2552 56.7201 72.3334 56.4733 72.4898C56.23 72.6428 56.0753 72.8896 56.0092 73.2302H55.2688C55.2897 72.893 55.3853 72.6063 55.5556 72.3699C55.7259 72.13 55.9658 71.9475 56.2752 71.8224C56.5845 71.6938 56.9547 71.6295 57.3858 71.6295C57.8307 71.6295 58.2044 71.6955 58.5068 71.8276C58.8127 71.9562 59.0439 72.1509 59.2003 72.4116C59.3568 72.6688 59.435 72.9886 59.435 73.371V77.1252H58.7363L58.6789 76.0876C58.4634 76.5152 58.1888 76.8124 57.8551 76.9792C57.5248 77.1461 57.165 77.2295 56.7757 77.2295ZM57.0051 76.6195C57.1998 76.6195 57.3927 76.5847 57.5839 76.5152C57.7786 76.4457 57.9559 76.3501 58.1158 76.2284C58.2757 76.1067 58.4043 75.9712 58.5016 75.8217C58.599 75.6722 58.6494 75.5193 58.6528 75.3628V74.4034L57.7821 74.4191C57.3267 74.426 56.953 74.4712 56.661 74.5546C56.3725 74.6381 56.157 74.7667 56.0144 74.9405C55.8754 75.1108 55.8059 75.335 55.8059 75.6131C55.8059 75.9295 55.9171 76.1763 56.1396 76.3535C56.3621 76.5308 56.6506 76.6195 57.0051 76.6195ZM63.4848 72.3438H62.2647V75.8217C62.2647 76.0303 62.2838 76.1832 62.322 76.2805C62.3637 76.3744 62.435 76.4352 62.5358 76.463C62.6401 76.4874 62.7843 76.4995 62.9686 76.4995H63.5213V77.0627C63.4552 77.087 63.3562 77.1079 63.2241 77.1252C63.0955 77.1391 62.9408 77.1461 62.76 77.1461C62.4159 77.1461 62.1482 77.0974 61.957 77.0001C61.7693 76.9028 61.6372 76.7585 61.5607 76.5673C61.4843 76.3761 61.446 76.1363 61.446 75.8478V72.3438H60.57V71.7337H61.4669L61.6598 70.1799H62.2647V71.7285H63.4848V72.3438ZM65.3542 74.6172C65.3542 74.9787 65.4133 75.3072 65.5315 75.6027C65.6497 75.8982 65.8322 76.1345 66.079 76.3118C66.3258 76.4891 66.6387 76.5778 67.0176 76.5778C67.3826 76.5778 67.6972 76.4926 67.9614 76.3223C68.2255 76.1484 68.3907 75.9034 68.4567 75.587H69.2388C69.1728 75.9486 69.0285 76.251 68.8061 76.4943C68.5871 76.7377 68.3211 76.9219 68.0083 77.047C67.6989 77.1687 67.3722 77.2295 67.028 77.2295C66.5344 77.2295 66.0981 77.1218 65.7192 76.9062C65.3438 76.6872 65.0501 76.3727 64.838 75.9625C64.6295 75.5523 64.5252 75.0587 64.5252 74.4816C64.5252 73.9081 64.6208 73.4075 64.812 72.9799C65.0032 72.5489 65.2795 72.2169 65.641 71.984C66.006 71.7476 66.4458 71.6295 66.9602 71.6295C67.4573 71.6295 67.8779 71.7372 68.2221 71.9527C68.5662 72.1648 68.8287 72.4689 69.0094 72.8652C69.1902 73.2615 69.2806 73.7343 69.2806 74.2835V74.6172H65.3542ZM65.3595 74.0384H68.488C68.488 73.7047 68.4324 73.404 68.3211 73.1364C68.2099 72.8687 68.0413 72.6567 67.8154 72.5002C67.5894 72.3438 67.3026 72.2656 66.955 72.2656C66.5865 72.2656 66.2841 72.3542 66.0477 72.5315C65.8148 72.7053 65.641 72.9278 65.5263 73.1989C65.4116 73.4701 65.356 73.7499 65.3595 74.0384ZM70.6678 77.1252V71.7337H71.4499V72.5211C71.5403 72.3647 71.6637 72.2204 71.8201 72.0883C71.98 71.9562 72.1729 71.8502 72.3989 71.7702C72.6283 71.6903 72.8856 71.6503 73.1706 71.6503C73.5182 71.6503 73.8345 71.7198 74.1196 71.8589C74.4081 71.9945 74.6375 72.2065 74.8079 72.495C74.9782 72.7835 75.0634 73.1537 75.0634 73.6056V77.1252H74.2499V73.6786C74.2499 73.2198 74.1335 72.8809 73.9006 72.6619C73.6677 72.4429 73.3601 72.3334 72.9777 72.3334C72.717 72.3334 72.4719 72.3751 72.2425 72.4585C72.013 72.5419 71.8288 72.6688 71.6898 72.8392C71.5507 73.0095 71.4812 73.2233 71.4812 73.4805V77.1252H70.6678ZM78.7422 71.6295C79.1141 71.6295 79.4513 71.699 79.7537 71.838C80.0561 71.9771 80.3064 72.177 80.5046 72.4377C80.7027 72.6949 80.8296 73.006 80.8852 73.371H80.1396C80.1048 73.1694 80.0266 72.9886 79.9049 72.8287C79.7833 72.6654 79.6234 72.5367 79.4252 72.4429C79.2306 72.349 79.0046 72.3021 78.7474 72.3021C78.2572 72.3021 77.8575 72.4776 77.5481 72.8287C77.2422 73.1763 77.0892 73.7134 77.0892 74.4399C77.0892 75.09 77.2283 75.6114 77.5064 76.0042C77.788 76.3935 78.2051 76.5882 78.7578 76.5882C79.015 76.5882 79.241 76.5413 79.4356 76.4474C79.6338 76.3501 79.7937 76.2214 79.9154 76.0615C80.037 75.8982 80.1135 75.7191 80.1448 75.5245H80.88C80.8278 75.879 80.701 76.1849 80.4993 76.4422C80.2977 76.6959 80.0457 76.8906 79.7433 77.0262C79.4443 77.1617 79.1106 77.2295 78.7422 77.2295C78.2624 77.2295 77.8384 77.1252 77.4699 76.9167C77.1014 76.7081 76.8129 76.397 76.6043 75.9833C76.3992 75.5697 76.2967 75.0569 76.2967 74.4451C76.2967 73.8855 76.3905 73.3953 76.5783 72.9747C76.766 72.5506 77.0406 72.2204 77.4021 71.984C77.7671 71.7476 78.2138 71.6295 78.7422 71.6295ZM83.1697 71.7337V77.1252H82.3771V71.7337H83.1697ZM83.1958 69.5907V70.4875H82.3406V69.5907H83.1958ZM87.0419 77.2295C86.5552 77.2295 86.1277 77.1252 85.7592 76.9167C85.3942 76.7046 85.1109 76.3918 84.9093 75.9781C84.7077 75.5645 84.6068 75.0552 84.6068 74.4504C84.6068 73.8872 84.699 73.3936 84.8832 72.9695C85.0709 72.5454 85.3455 72.2169 85.707 71.984C86.0686 71.7476 86.5153 71.6295 87.0471 71.6295C87.5338 71.6295 87.9561 71.7372 88.3142 71.9527C88.6757 72.1648 88.9555 72.4811 89.1536 72.9017C89.3553 73.3189 89.4561 73.8351 89.4561 74.4504C89.4561 74.9996 89.3657 75.4828 89.1849 75.8999C89.0042 76.317 88.7348 76.6438 88.3767 76.8802C88.0222 77.1131 87.5772 77.2295 87.0419 77.2295ZM87.0471 76.5725C87.3843 76.5725 87.6711 76.4891 87.9074 76.3223C88.1473 76.1554 88.3298 75.9121 88.4549 75.5923C88.5836 75.2725 88.6479 74.8849 88.6479 74.4295C88.6479 74.0193 88.5922 73.6526 88.481 73.3293C88.3698 73.006 88.196 72.7523 87.9596 72.568C87.7232 72.3803 87.419 72.2865 87.0471 72.2865C86.703 72.2865 86.4092 72.3699 86.1659 72.5367C85.926 72.7001 85.7418 72.9417 85.6132 73.2615C85.4846 73.5813 85.4203 73.9706 85.4203 74.4295C85.4203 74.8397 85.4759 75.2064 85.5871 75.5297C85.7018 75.8495 85.8791 76.1033 86.119 76.291C86.3588 76.4787 86.6682 76.5725 87.0471 76.5725ZM87.7667 69.5855H88.7365L87.3391 71.1028H86.6925L87.7667 69.5855ZM90.7812 77.1252V71.7337H91.5633V72.5211C91.6537 72.3647 91.7771 72.2204 91.9336 72.0883C92.0935 71.9562 92.2864 71.8502 92.5123 71.7702C92.7418 71.6903 92.999 71.6503 93.284 71.6503C93.6317 71.6503 93.948 71.7198 94.233 71.8589C94.5215 71.9945 94.751 72.2065 94.9213 72.495C95.0916 72.7835 95.1768 73.1537 95.1768 73.6056V77.1252H94.3634V73.6786C94.3634 73.2198 94.2469 72.8809 94.014 72.6619C93.7811 72.4429 93.4735 72.3334 93.0911 72.3334C92.8304 72.3334 92.5853 72.3751 92.3559 72.4585C92.1265 72.5419 91.9422 72.6688 91.8032 72.8392C91.6642 73.0095 91.5946 73.2233 91.5946 73.4805V77.1252H90.7812ZM99.2034 78.8042V71.7337H100.012L100.027 72.7192C100.079 72.6115 100.152 72.495 100.246 72.3699C100.344 72.2447 100.465 72.1265 100.611 72.0153C100.757 71.9006 100.929 71.8085 101.127 71.739C101.329 71.666 101.56 71.6295 101.821 71.6295C102.259 71.6295 102.645 71.7268 102.978 71.9215C103.312 72.1161 103.571 72.4151 103.755 72.8183C103.943 73.2215 104.037 73.7325 104.037 74.3513C104.037 74.9561 103.948 75.4741 103.771 75.9051C103.597 76.3327 103.342 76.6612 103.005 76.8906C102.667 77.1166 102.255 77.2295 101.769 77.2295C101.508 77.2295 101.28 77.193 101.086 77.12C100.891 77.047 100.724 76.9514 100.585 76.8332C100.446 76.7151 100.331 76.5934 100.241 76.4683C100.151 76.3396 100.078 76.218 100.022 76.1033V78.8042H99.2034ZM101.633 76.5778C102.109 76.5778 102.495 76.3987 102.791 76.0407C103.09 75.6826 103.239 75.1299 103.239 74.3826C103.239 73.743 103.104 73.2337 102.832 72.8548C102.565 72.4724 102.165 72.2812 101.633 72.2812C101.105 72.2812 100.702 72.4742 100.424 72.86C100.149 73.2459 100.012 73.7534 100.012 74.3826C100.012 74.7928 100.072 75.1647 100.194 75.4984C100.319 75.8286 100.502 76.0911 100.742 76.2858C100.981 76.4804 101.279 76.5778 101.633 76.5778ZM105.907 74.6172C105.907 74.9787 105.966 75.3072 106.084 75.6027C106.202 75.8982 106.385 76.1345 106.632 76.3118C106.879 76.4891 107.191 76.5778 107.57 76.5778C107.935 76.5778 108.25 76.4926 108.514 76.3223C108.778 76.1484 108.943 75.9034 109.009 75.587H109.792C109.726 75.9486 109.581 76.251 109.359 76.4943C109.14 76.7377 108.874 76.9219 108.561 77.047C108.252 77.1687 107.925 77.2295 107.581 77.2295C107.087 77.2295 106.651 77.1218 106.272 76.9062C105.897 76.6872 105.603 76.3727 105.391 75.9625C105.182 75.5523 105.078 75.0587 105.078 74.4816C105.078 73.9081 105.174 73.4075 105.365 72.9799C105.556 72.5489 105.832 72.2169 106.194 71.984C106.559 71.7476 106.999 71.6295 107.513 71.6295C108.01 71.6295 108.431 71.7372 108.775 71.9527C109.119 72.1648 109.381 72.4689 109.562 72.8652C109.743 73.2615 109.833 73.7343 109.833 74.2835V74.6172H105.907ZM105.912 74.0384H109.041C109.041 73.7047 108.985 73.404 108.874 73.1364C108.763 72.8687 108.594 72.6567 108.368 72.5002C108.142 72.3438 107.855 72.2656 107.508 72.2656C107.139 72.2656 106.837 72.3542 106.601 72.5315C106.368 72.7053 106.194 72.9278 106.079 73.1989C105.964 73.4701 105.909 73.7499 105.912 74.0384ZM111.221 77.1252V71.7337H111.992V72.7088C112.083 72.455 112.209 72.25 112.373 72.0935C112.54 71.9336 112.726 71.8172 112.931 71.7442C113.139 71.6677 113.35 71.6295 113.562 71.6295C113.649 71.6295 113.734 71.6364 113.817 71.6503C113.901 71.6607 113.967 71.6799 114.015 71.7077V72.5002C113.96 72.4724 113.885 72.4533 113.791 72.4429C113.701 72.4324 113.624 72.4272 113.562 72.4272C113.371 72.4168 113.185 72.4307 113.004 72.4689C112.823 72.5072 112.658 72.575 112.508 72.6723C112.362 72.7696 112.246 72.9 112.159 73.0634C112.076 73.2267 112.034 73.4266 112.034 73.663V77.1252H111.221ZM117.028 77.2295C116.653 77.2295 116.307 77.1722 115.991 77.0575C115.678 76.9393 115.419 76.7602 115.214 76.5204C115.012 76.2771 114.885 75.9677 114.833 75.5923H115.589C115.638 75.8078 115.726 75.9903 115.855 76.1398C115.984 76.2892 116.147 76.4039 116.345 76.4839C116.547 76.5604 116.774 76.5986 117.028 76.5986C117.411 76.5986 117.718 76.5256 117.951 76.3796C118.184 76.2301 118.3 76.0024 118.3 75.6965C118.3 75.4845 118.24 75.3142 118.118 75.1856C118 75.0569 117.819 74.9631 117.576 74.904L116.413 74.6068C115.989 74.499 115.652 74.3374 115.401 74.1219C115.151 73.9029 115.024 73.5987 115.021 73.2094C115.021 72.9 115.094 72.6271 115.24 72.3907C115.389 72.1544 115.612 71.9684 115.907 71.8328C116.203 71.6972 116.573 71.6295 117.018 71.6295C117.584 71.6295 118.041 71.7563 118.389 72.0101C118.737 72.2639 118.921 72.6428 118.942 73.1468H118.201C118.167 72.8722 118.048 72.6549 117.847 72.495C117.645 72.3316 117.367 72.25 117.013 72.25C116.648 72.25 116.35 72.3247 116.121 72.4742C115.895 72.6236 115.782 72.8548 115.782 73.1677C115.782 73.3762 115.86 73.5396 116.017 73.6578C116.173 73.7725 116.401 73.8681 116.7 73.9446L117.836 74.2418C118.073 74.3044 118.267 74.3878 118.42 74.4921C118.577 74.5929 118.7 74.7076 118.791 74.8362C118.884 74.9613 118.951 75.0952 118.989 75.2377C119.03 75.3802 119.051 75.5175 119.051 75.6496C119.051 75.9729 118.973 76.2527 118.817 76.4891C118.66 76.7255 118.431 76.908 118.128 77.0366C117.829 77.1652 117.463 77.2295 117.028 77.2295ZM122.564 77.2295C122.077 77.2295 121.65 77.1252 121.281 76.9167C120.916 76.7046 120.633 76.3918 120.431 75.9781C120.23 75.5645 120.129 75.0552 120.129 74.4504C120.129 73.8872 120.221 73.3936 120.405 72.9695C120.593 72.5454 120.867 72.2169 121.229 71.984C121.59 71.7476 122.037 71.6295 122.569 71.6295C123.056 71.6295 123.478 71.7372 123.836 71.9527C124.198 72.1648 124.477 72.4811 124.676 72.9017C124.877 73.3189 124.978 73.8351 124.978 74.4504C124.978 74.9996 124.888 75.4828 124.707 75.8999C124.526 76.317 124.257 76.6438 123.899 76.8802C123.544 77.1131 123.099 77.2295 122.564 77.2295ZM122.569 76.5725C122.906 76.5725 123.193 76.4891 123.429 76.3223C123.669 76.1554 123.852 75.9121 123.977 75.5923C124.105 75.2725 124.17 74.8849 124.17 74.4295C124.17 74.0193 124.114 73.6526 124.003 73.3293C123.892 73.006 123.718 72.7523 123.481 72.568C123.245 72.3803 122.941 72.2865 122.569 72.2865C122.225 72.2865 121.931 72.3699 121.688 72.5367C121.448 72.7001 121.264 72.9417 121.135 73.2615C121.006 73.5813 120.942 73.9706 120.942 74.4295C120.942 74.8397 120.998 75.2064 121.109 75.5297C121.224 75.8495 121.401 76.1033 121.641 76.291C121.881 76.4787 122.19 76.5725 122.569 76.5725ZM126.303 77.1252V71.7337H127.085V72.5211C127.176 72.3647 127.299 72.2204 127.455 72.0883C127.615 71.9562 127.808 71.8502 128.034 71.7702C128.264 71.6903 128.521 71.6503 128.806 71.6503C129.154 71.6503 129.47 71.7198 129.755 71.8589C130.043 71.9945 130.273 72.2065 130.443 72.495C130.613 72.7835 130.699 73.1537 130.699 73.6056V77.1252H129.885V73.6786C129.885 73.2198 129.769 72.8809 129.536 72.6619C129.303 72.4429 128.995 72.3334 128.613 72.3334C128.352 72.3334 128.107 72.3751 127.878 72.4585C127.648 72.5419 127.464 72.6688 127.325 72.8392C127.186 73.0095 127.116 73.2233 127.116 73.4805V77.1252H126.303ZM133.736 77.2295C133.385 77.2295 133.078 77.1687 132.813 77.047C132.549 76.9219 132.342 76.7446 132.193 76.5152C132.047 76.2858 131.974 76.0094 131.974 75.6861C131.974 75.0882 132.177 74.645 132.584 74.3565C132.994 74.068 133.656 73.9115 134.571 73.8872L135.613 73.8559V73.4075C135.613 73.0564 135.506 72.7766 135.29 72.568C135.078 72.356 134.75 72.2517 134.305 72.2552C133.971 72.2552 133.681 72.3334 133.434 72.4898C133.191 72.6428 133.036 72.8896 132.97 73.2302H132.229C132.25 72.893 132.346 72.6063 132.516 72.3699C132.687 72.13 132.926 71.9475 133.236 71.8224C133.545 71.6938 133.915 71.6295 134.346 71.6295C134.791 71.6295 135.165 71.6955 135.467 71.8276C135.773 71.9562 136.005 72.1509 136.161 72.4116C136.317 72.6688 136.396 72.9886 136.396 73.371V77.1252H135.697L135.64 76.0876C135.424 76.5152 135.149 76.8124 134.816 76.9792C134.485 77.1461 134.126 77.2295 133.736 77.2295ZM133.966 76.6195C134.16 76.6195 134.353 76.5847 134.545 76.5152C134.739 76.4457 134.916 76.3501 135.076 76.2284C135.236 76.1067 135.365 75.9712 135.462 75.8217C135.56 75.6722 135.61 75.5193 135.613 75.3628V74.4034L134.743 74.4191C134.287 74.426 133.914 74.4712 133.622 74.5546C133.333 74.6381 133.118 74.7667 132.975 74.9405C132.836 75.1108 132.766 75.335 132.766 75.6131C132.766 75.9295 132.878 76.1763 133.1 76.3535C133.323 76.5308 133.611 76.6195 133.966 76.6195ZM139.378 77.1826C139.121 77.1826 138.909 77.1461 138.742 77.0731C138.579 76.9966 138.45 76.8923 138.356 76.7602C138.266 76.6282 138.203 76.4769 138.169 76.3066C138.134 76.1363 138.117 75.9573 138.117 75.7695V69.3769H138.92V75.7018C138.92 75.9972 138.975 76.2145 139.086 76.3535C139.198 76.4891 139.344 76.5621 139.524 76.5725L139.827 76.5778V77.1096C139.75 77.1339 139.672 77.1513 139.592 77.1617C139.512 77.1756 139.441 77.1826 139.378 77.1826ZM142.043 71.7337V77.1252H141.251V71.7337H142.043ZM142.07 69.5907V70.4875H141.214V69.5907H142.07ZM143.402 77.1252V76.5882L146.552 72.3438H143.533V71.7337H147.506V72.2656L144.367 76.51H147.537V77.1252H143.402ZM150.255 77.2295C149.904 77.2295 149.596 77.1687 149.332 77.047C149.068 76.9219 148.861 76.7446 148.711 76.5152C148.565 76.2858 148.492 76.0094 148.492 75.6861C148.492 75.0882 148.696 74.645 149.102 74.3565C149.513 74.068 150.175 73.9115 151.089 73.8872L152.132 73.8559V73.4075C152.132 73.0564 152.024 72.7766 151.809 72.568C151.597 72.356 151.268 72.2517 150.823 72.2552C150.489 72.2552 150.199 72.3334 149.952 72.4898C149.709 72.6428 149.554 72.8896 149.488 73.2302H148.748C148.769 72.893 148.864 72.6063 149.035 72.3699C149.205 72.13 149.445 71.9475 149.754 71.8224C150.064 71.6938 150.434 71.6295 150.865 71.6295C151.31 71.6295 151.684 71.6955 151.986 71.8276C152.292 71.9562 152.523 72.1509 152.679 72.4116C152.836 72.6688 152.914 72.9886 152.914 73.371V77.1252H152.215L152.158 76.0876C151.942 76.5152 151.668 76.8124 151.334 76.9792C151.004 77.1461 150.644 77.2295 150.255 77.2295ZM150.484 76.6195C150.679 76.6195 150.872 76.5847 151.063 76.5152C151.258 76.4457 151.435 76.3501 151.595 76.2284C151.755 76.1067 151.883 75.9712 151.981 75.8217C152.078 75.6722 152.128 75.5193 152.132 75.3628V74.4034L151.261 74.4191C150.806 74.426 150.432 74.4712 150.14 74.5546C149.852 74.6381 149.636 74.7667 149.494 74.9405C149.355 75.1108 149.285 75.335 149.285 75.6131C149.285 75.9295 149.396 76.1763 149.619 76.3535C149.841 76.5308 150.13 76.6195 150.484 76.6195ZM156.569 77.2295C155.874 77.2295 155.322 76.9932 154.911 76.5204C154.501 76.0442 154.296 75.3402 154.296 74.4086C154.296 73.849 154.378 73.3623 154.541 72.9487C154.705 72.5315 154.95 72.2082 155.276 71.9788C155.607 71.7459 156.019 71.6295 156.512 71.6295C156.79 71.6295 157.034 71.666 157.242 71.739C157.451 71.8085 157.628 71.8971 157.774 72.0049C157.92 72.1126 158.038 72.2221 158.129 72.3334C158.219 72.4446 158.283 72.5402 158.321 72.6202V69.3769H159.145V77.1252H158.504L158.421 76.0198C158.389 76.1137 158.337 76.2284 158.264 76.364C158.191 76.4995 158.085 76.6334 157.946 76.7655C157.807 76.8976 157.624 77.0088 157.399 77.0992C157.173 77.1861 156.896 77.2295 156.569 77.2295ZM156.695 76.583C157.286 76.583 157.704 76.4092 157.951 76.0615C158.198 75.7105 158.321 75.1421 158.321 74.3565C158.318 73.922 158.262 73.55 158.155 73.2407C158.047 72.9313 157.877 72.6949 157.644 72.5315C157.414 72.3647 157.107 72.2812 156.721 72.2812C156.244 72.2812 155.859 72.4481 155.563 72.7818C155.271 73.1155 155.125 73.6404 155.125 74.3565C155.125 75.0517 155.256 75.5975 155.516 75.9938C155.78 76.3866 156.173 76.583 156.695 76.583ZM162.292 77.2295C161.941 77.2295 161.634 77.1687 161.369 77.047C161.105 76.9219 160.898 76.7446 160.749 76.5152C160.603 76.2858 160.53 76.0094 160.53 75.6861C160.53 75.0882 160.733 74.645 161.14 74.3565C161.55 74.068 162.212 73.9115 163.127 73.8872L164.169 73.8559V73.4075C164.169 73.0564 164.062 72.7766 163.846 72.568C163.634 72.356 163.306 72.2517 162.861 72.2552C162.527 72.2552 162.237 72.3334 161.99 72.4898C161.747 72.6428 161.592 72.8896 161.526 73.2302H160.785C160.806 72.893 160.902 72.6063 161.072 72.3699C161.243 72.13 161.482 71.9475 161.792 71.8224C162.101 71.6938 162.471 71.6295 162.902 71.6295C163.347 71.6295 163.721 71.6955 164.023 71.8276C164.329 71.9562 164.561 72.1509 164.717 72.4116C164.873 72.6688 164.952 72.9886 164.952 73.371V77.1252H164.253L164.196 76.0876C163.98 76.5152 163.705 76.8124 163.372 76.9792C163.041 77.1461 162.682 77.2295 162.292 77.2295ZM162.522 76.6195C162.716 76.6195 162.909 76.5847 163.101 76.5152C163.295 76.4457 163.472 76.3501 163.632 76.2284C163.792 76.1067 163.921 75.9712 164.018 75.8217C164.116 75.6722 164.166 75.5193 164.169 75.3628V74.4034L163.299 74.4191C162.843 74.426 162.47 74.4712 162.178 74.5546C161.889 74.6381 161.674 74.7667 161.531 74.9405C161.392 75.1108 161.322 75.335 161.322 75.6131C161.322 75.9295 161.434 76.1763 161.656 76.3535C161.879 76.5308 162.167 76.6195 162.522 76.6195Z" fill="white"/>
</g>
<defs>
<filter id="filter0_d_1610_29868" x="169.332" y="31.9788" width="76.709" height="74.4531" filterUnits="userSpaceOnUse" color-interpolation-filters="sRGB">
<feFlood flood-opacity="0" result="BackgroundImageFix"/>
<feColorMatrix in="SourceAlpha" type="matrix" values="0 0 0 0 0 0 0 0 0 0 0 0 0 0 0 0 0 0 127 0" result="hardAlpha"/>
<feOffset/>
<feGaussianBlur stdDeviation="7.52051"/>
<feComposite in2="hardAlpha" operator="out"/>
<feColorMatrix type="matrix" values="0 0 0 0 0 0 0 0 0 0 0 0 0 0 0 0 0 0 0.3 0"/>
<feBlend mode="normal" in2="BackgroundImageFix" result="effect1_dropShadow_1610_29868"/>
<feBlend mode="normal" in="SourceGraphic" in2="effect1_dropShadow_1610_29868" result="shape"/>
</filter>
<clipPath id="clip0_1610_29868">
<rect width="243" height="132" rx="5" fill="white"/>
</clipPath>
</defs>
</svg>
