<svg width="243" height="132" viewBox="0 0 243 132" fill="none" xmlns="http://www.w3.org/2000/svg">
<rect width="243" height="132" rx="5" fill="#F4F4F4"/>
<rect x="181.373" y="57.0195" width="45" height="45" rx="22.5" fill="#FFCE15"/>
<path d="M212 85H196V73H206.1C206.02 72.61 205.92 71.89 206.1 71H196C194.9 71 194 71.9 194 73V91L198 87H212C213.1 87 214 86.1 214 85V75.98C213.42 76.42 212.74 76.75 212 76.9V85Z" fill="#705904"/>
<path d="M211 75C212.657 75 214 73.6569 214 72C214 70.3431 212.657 69 211 69C209.343 69 208 70.3431 208 72C208 73.6569 209.343 75 211 75Z" fill="#705904"/>
<path d="M206 81H198V83H206V81Z" fill="#705904"/>
<path d="M210 78H198V80H210V78Z" fill="#705904"/>
<path d="M198 77H210V76.9C208.79 76.65 207.75 75.95 207.03 75H198V77Z" fill="#705904"/>
<path fill-rule="evenodd" clip-rule="evenodd" d="M14.9107 25C12.7509 25 11 26.7509 11 28.9107V87.0893C11 89.2491 12.7509 91 14.9107 91H176.089C178.249 91 180 89.2491 180 87.0893V83.6694L184.703 79.4326L180 75.2767V28.9107C180 26.7509 178.249 25 176.089 25H14.9107Z" fill="#161616"/>
<path d="M28.31 43.831V42.313H29.8225V43.831H28.31ZM31.61 48.165C31.379 48.7077 31.027 49.1293 30.554 49.43C30.0847 49.7307 29.531 49.881 28.893 49.881C28.343 49.881 27.8792 49.7967 27.5015 49.628C27.1275 49.463 26.8433 49.2375 26.649 48.9515C26.4547 48.6655 26.3575 48.3428 26.3575 47.9835C26.3575 47.6828 26.4088 47.428 26.5115 47.219C26.6178 47.0063 26.7517 46.8193 26.913 46.658C27.0743 46.493 27.2467 46.3408 27.43 46.2015C27.617 46.0622 27.7912 45.9173 27.9525 45.767C28.1138 45.613 28.2458 45.4388 28.3485 45.2445C28.4548 45.0465 28.508 44.8137 28.508 44.546H29.6135C29.6135 44.865 29.5677 45.1437 29.476 45.382C29.3843 45.6167 29.2652 45.8238 29.1185 46.0035C28.9755 46.1832 28.8215 46.3463 28.6565 46.493C28.4952 46.636 28.3412 46.779 28.1945 46.922C28.0478 47.0613 27.9287 47.2117 27.837 47.373C27.7453 47.5307 27.6995 47.7122 27.6995 47.9175C27.6995 48.2108 27.8113 48.4473 28.035 48.627C28.2623 48.8067 28.552 48.8965 28.904 48.8965C29.1203 48.8965 29.3312 48.8525 29.5365 48.7645C29.7455 48.6765 29.9307 48.5537 30.092 48.396C30.2533 48.242 30.3743 48.0642 30.455 47.8625L31.61 48.165ZM32.0855 41.2515V40.047H38.2895V41.2515H35.9025V48H34.5605V41.2515H32.0855ZM40.6649 42.313V48H39.3779V42.313H40.6649ZM40.6814 40.0525V41.3175H39.3559V40.0525H40.6814ZM43.332 45.4645C43.3283 45.7872 43.3796 46.0732 43.486 46.3225C43.5923 46.5718 43.75 46.768 43.959 46.911C44.168 47.0503 44.4265 47.12 44.7345 47.12C45.0498 47.12 45.323 47.0503 45.554 46.911C45.7886 46.768 45.9445 46.5517 46.0215 46.262H47.248C47.182 46.658 47.0243 46.9935 46.775 47.2685C46.5256 47.5435 46.2231 47.7525 45.8675 47.8955C45.5155 48.0385 45.1488 48.11 44.7675 48.11C44.2175 48.11 43.7335 47.9945 43.3155 47.7635C42.9011 47.5288 42.5766 47.1952 42.342 46.7625C42.111 46.3298 41.9955 45.8147 41.9955 45.217C41.9955 44.634 42.1018 44.117 42.3145 43.666C42.5271 43.2113 42.8333 42.8538 43.233 42.5935C43.6363 42.3332 44.1203 42.203 44.685 42.203C45.246 42.203 45.7171 42.3222 46.0985 42.5605C46.4835 42.7988 46.7731 43.1325 46.9675 43.5615C47.1655 43.9868 47.2645 44.4855 47.2645 45.0575V45.4645H43.332ZM43.332 44.634H45.9995C45.9995 44.359 45.9518 44.1115 45.8565 43.8915C45.7611 43.6678 45.6145 43.4918 45.4165 43.3635C45.2221 43.2315 44.9765 43.1655 44.6795 43.1655C44.3861 43.1655 44.1386 43.237 43.937 43.38C43.7353 43.523 43.5831 43.7082 43.4805 43.9355C43.3778 44.1592 43.3283 44.392 43.332 44.634ZM48.5119 48V42.313H49.8209V43.127C49.9089 42.9803 50.0281 42.8392 50.1784 42.7035C50.3324 42.5678 50.5213 42.4578 50.7449 42.3735C50.9686 42.2892 51.2308 42.247 51.5314 42.247C51.8834 42.247 52.2098 42.3167 52.5104 42.456C52.8148 42.5953 53.0586 42.8135 53.2419 43.1105C53.4289 43.4075 53.5224 43.7907 53.5224 44.26V48H52.1804V44.4195C52.1804 44.0455 52.0778 43.7687 51.8724 43.589C51.6671 43.4057 51.4086 43.314 51.0969 43.314C50.8843 43.314 50.6826 43.3507 50.4919 43.424C50.3013 43.4937 50.1454 43.6018 50.0244 43.7485C49.9071 43.8915 49.8484 44.0712 49.8484 44.2875V48H48.5119ZM56.0077 45.4645C56.0041 45.7872 56.0554 46.0732 56.1617 46.3225C56.2681 46.5718 56.4257 46.768 56.6347 46.911C56.8437 47.0503 57.1022 47.12 57.4102 47.12C57.7256 47.12 57.9987 47.0503 58.2297 46.911C58.4644 46.768 58.6202 46.5517 58.6972 46.262H59.9237C59.8577 46.658 59.7001 46.9935 59.4507 47.2685C59.2014 47.5435 58.8989 47.7525 58.5432 47.8955C58.1912 48.0385 57.8246 48.11 57.4432 48.11C56.8932 48.11 56.4092 47.9945 55.9912 47.7635C55.5769 47.5288 55.2524 47.1952 55.0177 46.7625C54.7867 46.3298 54.6712 45.8147 54.6712 45.217C54.6712 44.634 54.7776 44.117 54.9902 43.666C55.2029 43.2113 55.5091 42.8538 55.9087 42.5935C56.3121 42.3332 56.7961 42.203 57.3607 42.203C57.9217 42.203 58.3929 42.3222 58.7742 42.5605C59.1592 42.7988 59.4489 43.1325 59.6432 43.5615C59.8412 43.9868 59.9402 44.4855 59.9402 45.0575V45.4645H56.0077ZM56.0077 44.634H58.6752C58.6752 44.359 58.6276 44.1115 58.5322 43.8915C58.4369 43.6678 58.2902 43.4918 58.0922 43.3635C57.8979 43.2315 57.6522 43.1655 57.3552 43.1655C57.0619 43.1655 56.8144 43.237 56.6127 43.38C56.4111 43.523 56.2589 43.7082 56.1562 43.9355C56.0536 44.1592 56.0041 44.392 56.0077 44.634ZM63.3057 48.11C62.9097 48.11 62.5339 48.0477 62.1782 47.923C61.8262 47.7947 61.5292 47.5948 61.2872 47.3235C61.0489 47.0522 60.8986 46.702 60.8362 46.273H62.0132C62.0646 46.482 62.1544 46.6525 62.2827 46.7845C62.4147 46.9165 62.5706 47.0137 62.7502 47.076C62.9299 47.1347 63.1132 47.164 63.3002 47.164C63.6412 47.164 63.9162 47.1053 64.1252 46.988C64.3379 46.8707 64.4442 46.6892 64.4442 46.4435C64.4442 46.2638 64.3856 46.1208 64.2682 46.0145C64.1509 45.9082 63.9639 45.8275 63.7072 45.7725L62.6237 45.525C62.1434 45.4187 61.7566 45.2427 61.4632 44.997C61.1736 44.7513 61.0269 44.4048 61.0232 43.9575C61.0196 43.6202 61.1039 43.3195 61.2762 43.0555C61.4486 42.7915 61.7052 42.5843 62.0462 42.434C62.3872 42.28 62.8089 42.203 63.3112 42.203C63.9749 42.203 64.5066 42.3515 64.9062 42.6485C65.3059 42.9418 65.5112 43.3617 65.5222 43.908H64.3837C64.3434 43.6623 64.2279 43.4717 64.0372 43.336C63.8466 43.1967 63.5991 43.127 63.2947 43.127C62.9794 43.127 62.7209 43.1875 62.5192 43.3085C62.3176 43.4295 62.2167 43.6147 62.2167 43.864C62.2167 44.0363 62.2937 44.172 62.4477 44.271C62.6017 44.37 62.8327 44.4543 63.1407 44.524L64.1637 44.7715C64.4571 44.8448 64.6972 44.9438 64.8842 45.0685C65.0712 45.1932 65.2179 45.3307 65.3242 45.481C65.4306 45.6277 65.5039 45.7798 65.5442 45.9375C65.5882 46.0915 65.6102 46.2345 65.6102 46.3665C65.6102 46.7332 65.5149 47.0467 65.3242 47.307C65.1372 47.5637 64.8714 47.7617 64.5267 47.901C64.1821 48.0403 63.7751 48.11 63.3057 48.11ZM70.8559 48.11C70.4929 48.11 70.1665 48.044 69.8769 47.912C69.5909 47.7763 69.3654 47.5838 69.2004 47.3345C69.039 47.0815 68.9584 46.7753 68.9584 46.416C68.9584 45.789 69.1839 45.316 69.6349 44.997C70.0895 44.678 70.8137 44.5112 71.8074 44.4965L72.6544 44.4745V44.0895C72.6544 43.7888 72.5645 43.5542 72.3849 43.3855C72.2089 43.2132 71.9339 43.1288 71.5599 43.1325C71.2849 43.1362 71.0319 43.2022 70.8009 43.3305C70.5735 43.4552 70.4232 43.666 70.3499 43.963H69.2114C69.2334 43.5743 69.3452 43.2498 69.5469 42.9895C69.7522 42.7255 70.0327 42.5293 70.3884 42.401C70.744 42.269 71.1547 42.203 71.6204 42.203C72.163 42.203 72.6049 42.2745 72.9459 42.4175C73.2869 42.5605 73.538 42.7677 73.6994 43.039C73.8607 43.3067 73.9414 43.6312 73.9414 44.0125V48H72.8139L72.7094 46.977C72.504 47.406 72.2437 47.703 71.9284 47.868C71.6167 48.0293 71.2592 48.11 70.8559 48.11ZM71.2904 47.2025C71.4554 47.2025 71.6185 47.1732 71.7799 47.1145C71.9412 47.0522 72.0879 46.9697 72.2199 46.867C72.3519 46.7607 72.4564 46.6433 72.5334 46.515C72.614 46.3867 72.6544 46.2528 72.6544 46.1135V45.217L71.9559 45.228C71.6112 45.2317 71.3105 45.2683 71.0539 45.338C70.7972 45.4077 70.5955 45.5195 70.4489 45.6735C70.3059 45.8238 70.2344 46.0255 70.2344 46.2785C70.2344 46.5682 70.3352 46.7955 70.5369 46.9605C70.7385 47.1218 70.9897 47.2025 71.2904 47.2025ZM77.146 48.0825C76.7794 48.0825 76.486 48.0367 76.266 47.945C76.046 47.8533 75.881 47.7305 75.771 47.5765C75.661 47.4225 75.5895 47.2502 75.5565 47.0595C75.5235 46.8652 75.507 46.6672 75.507 46.4655V39.827H76.816V46.3115C76.816 46.5572 76.8655 46.7478 76.9645 46.8835C77.0672 47.0192 77.2322 47.098 77.4595 47.12L77.7455 47.131V47.9725C77.6465 48.0018 77.5457 48.0275 77.443 48.0495C77.3404 48.0715 77.2414 48.0825 77.146 48.0825ZM81.5765 49.881C80.6195 49.881 79.8843 49.7527 79.371 49.496C78.8576 49.2393 78.601 48.8873 78.601 48.44C78.601 48.2383 78.6505 48.0697 78.7495 47.934C78.8485 47.7983 78.9658 47.6865 79.1015 47.5985C79.2371 47.5105 79.3618 47.4427 79.4755 47.395C79.5891 47.3473 79.6625 47.3125 79.6955 47.2905C79.6331 47.2538 79.5506 47.2062 79.448 47.1475C79.3453 47.0888 79.2518 47.0082 79.1675 46.9055C79.0868 46.8028 79.0465 46.669 79.0465 46.504C79.0465 46.3133 79.1363 46.1373 79.316 45.976C79.4993 45.8147 79.7725 45.6992 80.1355 45.6295C79.7798 45.4572 79.5066 45.2243 79.316 44.931C79.1253 44.6377 79.03 44.3333 79.03 44.018C79.03 43.644 79.1381 43.3232 79.3545 43.0555C79.5745 42.7878 79.8788 42.5825 80.2675 42.4395C80.6598 42.2965 81.1126 42.225 81.626 42.225C82.0073 42.225 82.3226 42.2672 82.572 42.3515C82.8213 42.4358 83.0541 42.5495 83.2705 42.6925C83.3438 42.6632 83.4465 42.6228 83.5785 42.5715C83.7141 42.5165 83.8608 42.4578 84.0185 42.3955C84.1761 42.3295 84.3265 42.2672 84.4695 42.2085C84.6161 42.1462 84.7408 42.0948 84.8435 42.0545L84.8325 43.16L83.848 43.336C83.8956 43.4423 83.9323 43.5578 83.958 43.6825C83.9873 43.8072 84.002 43.9172 84.002 44.0125C84.002 44.3425 83.9085 44.6487 83.7215 44.931C83.5381 45.2097 83.2613 45.4333 82.891 45.602C82.5243 45.7707 82.066 45.855 81.516 45.855C81.461 45.855 81.3858 45.8532 81.2905 45.8495C81.1951 45.8458 81.1181 45.8422 81.0595 45.8385C80.7625 45.8495 80.559 45.8843 80.449 45.943C80.339 46.0017 80.284 46.0658 80.284 46.1355C80.284 46.2345 80.3665 46.3005 80.5315 46.3335C80.6965 46.3665 80.9605 46.3958 81.3235 46.4215C81.4518 46.4288 81.6205 46.438 81.8295 46.449C82.0385 46.46 82.2713 46.4747 82.528 46.493C83.177 46.5333 83.6683 46.6965 84.002 46.9825C84.3356 47.2648 84.5025 47.6315 84.5025 48.0825C84.5025 48.6068 84.2605 49.0377 83.7765 49.375C83.2925 49.7123 82.5591 49.881 81.5765 49.881ZM81.802 49.0945C82.2823 49.0945 82.638 49.0285 82.869 48.8965C83.1 48.7645 83.2155 48.5702 83.2155 48.3135C83.2155 48.1155 83.1366 47.9542 82.979 47.8295C82.8213 47.7048 82.5866 47.6315 82.275 47.6095L80.8395 47.5215C80.6818 47.5105 80.5315 47.5398 80.3885 47.6095C80.2491 47.6755 80.1355 47.769 80.0475 47.89C79.9595 48.0073 79.9155 48.1375 79.9155 48.2805C79.9155 48.5482 80.0695 48.7498 80.3775 48.8855C80.6855 49.0248 81.1603 49.0945 81.802 49.0945ZM81.56 45.0685C81.9083 45.0685 82.1906 44.9805 82.407 44.8045C82.6233 44.6248 82.7315 44.3718 82.7315 44.0455C82.7315 43.7082 82.6233 43.446 82.407 43.259C82.1906 43.0683 81.9083 42.973 81.56 42.973C81.2043 42.973 80.9165 43.0683 80.6965 43.259C80.4801 43.4497 80.372 43.7118 80.372 44.0455C80.372 44.3608 80.4765 44.6102 80.6855 44.7935C80.8945 44.9768 81.186 45.0685 81.56 45.0685ZM87.8773 48.11C87.5987 48.11 87.3292 48.0697 87.0688 47.989C86.8122 47.9047 86.5812 47.7837 86.3758 47.626C86.1705 47.4647 86.0073 47.2667 85.8863 47.032C85.7653 46.7973 85.7048 46.5242 85.7048 46.2125V42.313H87.0468V46.0585C87.0468 46.3665 87.144 46.6195 87.3383 46.8175C87.5363 47.0155 87.8333 47.1145 88.2293 47.1145C88.5887 47.1145 88.8765 47.021 89.0928 46.834C89.3092 46.6433 89.4173 46.3702 89.4173 46.0145V42.313H90.7483V48H89.7198L89.5713 46.889C89.5017 47.2007 89.3788 47.4463 89.2028 47.626C89.0305 47.802 88.827 47.9267 88.5923 48C88.3613 48.0733 88.123 48.11 87.8773 48.11ZM92.2326 48V42.313H93.5416V43.127C93.6296 42.9803 93.7488 42.8392 93.8991 42.7035C94.0531 42.5678 94.242 42.4578 94.4656 42.3735C94.6893 42.2892 94.9515 42.247 95.2521 42.247C95.6041 42.247 95.9305 42.3167 96.2311 42.456C96.5355 42.5953 96.7793 42.8135 96.9626 43.1105C97.1496 43.4075 97.2431 43.7907 97.2431 44.26V48H95.9011V44.4195C95.9011 44.0455 95.7985 43.7687 95.5931 43.589C95.3878 43.4057 95.1293 43.314 94.8176 43.314C94.605 43.314 94.4033 43.3507 94.2126 43.424C94.022 43.4937 93.8661 43.6018 93.7451 43.7485C93.6278 43.8915 93.5691 44.0712 93.5691 44.2875V48H92.2326ZM100.257 48.11C99.8942 48.11 99.5679 48.044 99.2782 47.912C98.9922 47.7763 98.7667 47.5838 98.6017 47.3345C98.4404 47.0815 98.3597 46.7753 98.3597 46.416C98.3597 45.789 98.5852 45.316 99.0362 44.997C99.4909 44.678 100.215 44.5112 101.209 44.4965L102.056 44.4745V44.0895C102.056 43.7888 101.966 43.5542 101.786 43.3855C101.61 43.2132 101.335 43.1288 100.961 43.1325C100.686 43.1362 100.433 43.2022 100.202 43.3305C99.9749 43.4552 99.8246 43.666 99.7512 43.963H98.6127C98.6347 43.5743 98.7466 43.2498 98.9482 42.9895C99.1536 42.7255 99.4341 42.5293 99.7897 42.401C100.145 42.269 100.556 42.203 101.022 42.203C101.564 42.203 102.006 42.2745 102.347 42.4175C102.688 42.5605 102.939 42.7677 103.101 43.039C103.262 43.3067 103.343 43.6312 103.343 44.0125V48H102.215L102.111 46.977C101.905 47.406 101.645 47.703 101.33 47.868C101.018 48.0293 100.661 48.11 100.257 48.11ZM100.692 47.2025C100.857 47.2025 101.02 47.1732 101.181 47.1145C101.343 47.0522 101.489 46.9697 101.621 46.867C101.753 46.7607 101.858 46.6433 101.935 46.515C102.015 46.3867 102.056 46.2528 102.056 46.1135V45.217L101.357 45.228C101.013 45.2317 100.712 45.2683 100.455 45.338C100.199 45.4077 99.9969 45.5195 99.8502 45.6735C99.7072 45.8238 99.6357 46.0255 99.6357 46.2785C99.6357 46.5682 99.7366 46.7955 99.9382 46.9605C100.14 47.1218 100.391 47.2025 100.692 47.2025ZM108.948 48.11C108.585 48.11 108.258 48.044 107.969 47.912C107.683 47.7763 107.457 47.5838 107.292 47.3345C107.131 47.0815 107.05 46.7753 107.05 46.416C107.05 45.789 107.276 45.316 107.727 44.997C108.181 44.678 108.905 44.5112 109.899 44.4965L110.746 44.4745V44.0895C110.746 43.7888 110.656 43.5542 110.477 43.3855C110.301 43.2132 110.026 43.1288 109.652 43.1325C109.377 43.1362 109.124 43.2022 108.893 43.3305C108.665 43.4552 108.515 43.666 108.442 43.963H107.303C107.325 43.5743 107.437 43.2498 107.639 42.9895C107.844 42.7255 108.124 42.5293 108.48 42.401C108.836 42.269 109.246 42.203 109.712 42.203C110.255 42.203 110.697 42.2745 111.038 42.4175C111.379 42.5605 111.63 42.7677 111.791 43.039C111.952 43.3067 112.033 43.6312 112.033 44.0125V48H110.906L110.801 46.977C110.596 47.406 110.335 47.703 110.02 47.868C109.708 48.0293 109.351 48.11 108.948 48.11ZM109.382 47.2025C109.547 47.2025 109.71 47.1732 109.872 47.1145C110.033 47.0522 110.18 46.9697 110.312 46.867C110.444 46.7607 110.548 46.6433 110.625 46.515C110.706 46.3867 110.746 46.2528 110.746 46.1135V45.217L110.048 45.228C109.703 45.2317 109.402 45.2683 109.146 45.338C108.889 45.4077 108.687 45.5195 108.541 45.6735C108.398 45.8238 108.326 46.0255 108.326 46.2785C108.326 46.5682 108.427 46.7955 108.629 46.9605C108.83 47.1218 109.081 47.2025 109.382 47.2025ZM115.958 42.203C116.402 42.203 116.793 42.291 117.13 42.467C117.467 42.643 117.737 42.8868 117.938 43.1985C118.144 43.5102 118.267 43.864 118.307 44.26H117.163C117.137 44.0877 117.075 43.9245 116.976 43.7705C116.877 43.6128 116.743 43.4863 116.574 43.391C116.406 43.292 116.202 43.2425 115.964 43.2425C115.539 43.2425 115.192 43.4002 114.924 43.7155C114.66 44.0308 114.528 44.5148 114.528 45.1675C114.528 45.7688 114.655 46.2473 114.908 46.603C115.161 46.9587 115.522 47.1365 115.991 47.1365C116.226 47.1365 116.426 47.0852 116.591 46.9825C116.76 46.8762 116.892 46.746 116.987 46.592C117.086 46.4343 117.15 46.2767 117.179 46.119H118.29C118.257 46.504 118.136 46.8468 117.927 47.1475C117.722 47.4482 117.451 47.6847 117.113 47.857C116.78 48.0257 116.395 48.11 115.958 48.11C115.438 48.11 114.974 47.9963 114.567 47.769C114.164 47.538 113.846 47.2043 113.615 46.768C113.384 46.328 113.269 45.7982 113.269 45.1785C113.269 44.5882 113.377 44.0712 113.593 43.6275C113.81 43.1802 114.12 42.8318 114.523 42.5825C114.926 42.3295 115.405 42.203 115.958 42.203ZM121.178 48.0825C120.812 48.0825 120.518 48.0367 120.298 47.945C120.078 47.8533 119.913 47.7305 119.803 47.5765C119.693 47.4225 119.622 47.2502 119.589 47.0595C119.556 46.8652 119.539 46.6672 119.539 46.4655V39.827H120.848V46.3115C120.848 46.5572 120.898 46.7478 120.997 46.8835C121.099 47.0192 121.264 47.098 121.492 47.12L121.778 47.131V47.9725C121.679 48.0018 121.578 48.0275 121.475 48.0495C121.373 48.0715 121.274 48.0825 121.178 48.0825ZM124.535 48.11C124.172 48.11 123.845 48.044 123.556 47.912C123.27 47.7763 123.044 47.5838 122.879 47.3345C122.718 47.0815 122.637 46.7753 122.637 46.416C122.637 45.789 122.863 45.316 123.314 44.997C123.768 44.678 124.492 44.5112 125.486 44.4965L126.333 44.4745V44.0895C126.333 43.7888 126.243 43.5542 126.064 43.3855C125.888 43.2132 125.613 43.1288 125.239 43.1325C124.964 43.1362 124.711 43.2022 124.48 43.3305C124.252 43.4552 124.102 43.666 124.029 43.963H122.89C122.912 43.5743 123.024 43.2498 123.226 42.9895C123.431 42.7255 123.711 42.5293 124.067 42.401C124.423 42.269 124.833 42.203 125.299 42.203C125.842 42.203 126.284 42.2745 126.625 42.4175C126.966 42.5605 127.217 42.7677 127.378 43.039C127.539 43.3067 127.62 43.6312 127.62 44.0125V48H126.493L126.388 46.977C126.183 47.406 125.922 47.703 125.607 47.868C125.295 48.0293 124.938 48.11 124.535 48.11ZM124.969 47.2025C125.134 47.2025 125.297 47.1732 125.459 47.1145C125.62 47.0522 125.767 46.9697 125.899 46.867C126.031 46.7607 126.135 46.6433 126.212 46.515C126.293 46.3867 126.333 46.2528 126.333 46.1135V45.217L125.635 45.228C125.29 45.2317 124.989 45.2683 124.733 45.338C124.476 45.4077 124.274 45.5195 124.128 45.6735C123.985 45.8238 123.913 46.0255 123.913 46.2785C123.913 46.5682 124.014 46.7955 124.216 46.9605C124.417 47.1218 124.668 47.2025 124.969 47.2025ZM129.186 48V42.313H130.467V43.545C130.559 43.2627 130.689 43.0225 130.858 42.8245C131.03 42.6228 131.232 42.4688 131.463 42.3625C131.694 42.2562 131.945 42.203 132.216 42.203C132.282 42.203 132.346 42.2067 132.409 42.214C132.471 42.2213 132.517 42.2342 132.546 42.2525V43.534C132.506 43.5157 132.453 43.5028 132.387 43.4955C132.324 43.4882 132.269 43.4845 132.222 43.4845C131.947 43.4625 131.703 43.4735 131.49 43.5175C131.281 43.5615 131.103 43.6367 130.957 43.743C130.814 43.8457 130.706 43.9777 130.632 44.139C130.559 44.2967 130.522 44.4818 130.522 44.6945V48H129.186ZM135.083 48.11C134.72 48.11 134.394 48.044 134.104 47.912C133.818 47.7763 133.593 47.5838 133.428 47.3345C133.267 47.0815 133.186 46.7753 133.186 46.416C133.186 45.789 133.411 45.316 133.862 44.997C134.317 44.678 135.041 44.5112 136.035 44.4965L136.882 44.4745V44.0895C136.882 43.7888 136.792 43.5542 136.612 43.3855C136.436 43.2132 136.161 43.1288 135.787 43.1325C135.512 43.1362 135.259 43.2022 135.028 43.3305C134.801 43.4552 134.651 43.666 134.577 43.963H133.439C133.461 43.5743 133.573 43.2498 133.774 42.9895C133.98 42.7255 134.26 42.5293 134.616 42.401C134.972 42.269 135.382 42.203 135.848 42.203C136.391 42.203 136.832 42.2745 137.173 42.4175C137.514 42.5605 137.766 42.7677 137.927 43.039C138.088 43.3067 138.169 43.6312 138.169 44.0125V48H137.041L136.937 46.977C136.732 47.406 136.471 47.703 136.156 47.868C135.844 48.0293 135.487 48.11 135.083 48.11ZM135.518 47.2025C135.683 47.2025 135.846 47.1732 136.007 47.1145C136.169 47.0522 136.315 46.9697 136.447 46.867C136.579 46.7607 136.684 46.6433 136.761 46.515C136.842 46.3867 136.882 46.2528 136.882 46.1135V45.217L136.183 45.228C135.839 45.2317 135.538 45.2683 135.281 45.338C135.025 45.4077 134.823 45.5195 134.676 45.6735C134.533 45.8238 134.462 46.0255 134.462 46.2785C134.462 46.5682 134.563 46.7955 134.764 46.9605C134.966 47.1218 135.217 47.2025 135.518 47.2025ZM142.094 42.203C142.538 42.203 142.928 42.291 143.266 42.467C143.603 42.643 143.872 42.8868 144.074 43.1985C144.279 43.5102 144.402 43.864 144.443 44.26H143.299C143.273 44.0877 143.211 43.9245 143.112 43.7705C143.013 43.6128 142.879 43.4863 142.71 43.391C142.541 43.292 142.338 43.2425 142.1 43.2425C141.674 43.2425 141.328 43.4002 141.06 43.7155C140.796 44.0308 140.664 44.5148 140.664 45.1675C140.664 45.7688 140.791 46.2473 141.044 46.603C141.297 46.9587 141.658 47.1365 142.127 47.1365C142.362 47.1365 142.562 47.0852 142.727 46.9825C142.895 46.8762 143.027 46.746 143.123 46.592C143.222 46.4343 143.286 46.2767 143.315 46.119H144.426C144.393 46.504 144.272 46.8468 144.063 47.1475C143.858 47.4482 143.586 47.6847 143.249 47.857C142.915 48.0257 142.53 48.11 142.094 48.11C141.573 48.11 141.11 47.9963 140.703 47.769C140.299 47.538 139.982 47.2043 139.751 46.768C139.52 46.328 139.405 45.7982 139.405 45.1785C139.405 44.5882 139.513 44.0712 139.729 43.6275C139.945 43.1802 140.255 42.8318 140.659 42.5825C141.062 42.3295 141.54 42.203 142.094 42.203ZM147.056 42.313V48H145.769V42.313H147.056ZM147.072 40.0525V41.3175H145.747V40.0525H147.072ZM151.032 48.11C150.489 48.11 150.016 47.9945 149.613 47.7635C149.209 47.5288 148.896 47.1933 148.672 46.757C148.452 46.3207 148.342 45.7963 148.342 45.184C148.342 44.59 148.448 44.0693 148.661 43.622C148.877 43.1747 149.187 42.8263 149.591 42.577C149.994 42.3277 150.476 42.203 151.037 42.203C151.58 42.203 152.051 42.3222 152.451 42.5605C152.85 42.7988 153.158 43.1398 153.375 43.5835C153.595 44.0272 153.705 44.5607 153.705 45.184C153.705 45.7597 153.6 46.2675 153.391 46.7075C153.186 47.1438 152.883 47.4867 152.484 47.736C152.088 47.9853 151.604 48.11 151.032 48.11ZM151.037 47.0925C151.345 47.0925 151.598 47.0082 151.796 46.8395C151.998 46.6708 152.146 46.4398 152.242 46.1465C152.341 45.8532 152.39 45.5195 152.39 45.1455C152.39 44.7972 152.346 44.4763 152.258 44.183C152.174 43.8897 152.031 43.655 151.829 43.479C151.631 43.2993 151.367 43.2095 151.037 43.2095C150.725 43.2095 150.467 43.292 150.262 43.457C150.06 43.6183 149.908 43.8457 149.805 44.139C149.706 44.4287 149.657 44.7642 149.657 45.1455C149.657 45.4902 149.701 45.811 149.789 46.108C149.88 46.4013 150.027 46.6397 150.229 46.823C150.43 47.0027 150.7 47.0925 151.037 47.0925ZM151.659 40.047H153.089L151.516 41.6475H150.526L151.659 40.047ZM154.892 48V42.313H156.201V43.127C156.289 42.9803 156.408 42.8392 156.558 42.7035C156.712 42.5678 156.901 42.4578 157.125 42.3735C157.348 42.2892 157.611 42.247 157.911 42.247C158.263 42.247 158.59 42.3167 158.89 42.456C159.195 42.5953 159.438 42.8135 159.622 43.1105C159.809 43.4075 159.902 43.7907 159.902 44.26V48H158.56V44.4195C158.56 44.0455 158.458 43.7687 158.252 43.589C158.047 43.4057 157.788 43.314 157.477 43.314C157.264 43.314 157.062 43.3507 156.872 43.424C156.681 43.4937 156.525 43.6018 156.404 43.7485C156.287 43.8915 156.228 44.0712 156.228 44.2875V48H154.892ZM26.759 63.771V56.313H28.0955L28.1065 57.2095C28.1798 57.0848 28.2733 56.962 28.387 56.841C28.5043 56.72 28.6382 56.6118 28.7885 56.5165C28.9425 56.4212 29.113 56.346 29.3 56.291C29.487 56.2323 29.6923 56.203 29.916 56.203C30.3523 56.203 30.7392 56.3075 31.0765 56.5165C31.4138 56.7218 31.6778 57.039 31.8685 57.468C32.0628 57.897 32.16 58.4397 32.16 59.096C32.16 59.767 32.061 60.3262 31.863 60.7735C31.665 61.2208 31.3882 61.5563 31.0325 61.78C30.6768 62 30.2643 62.11 29.795 62.11C29.5787 62.11 29.3807 62.0807 29.201 62.022C29.025 61.9633 28.8673 61.8827 28.728 61.78C28.5887 61.6773 28.4658 61.5655 28.3595 61.4445C28.2568 61.3235 28.1707 61.197 28.101 61.065V63.771H26.759ZM29.498 61.109C29.9013 61.109 30.235 60.9495 30.499 60.6305C30.763 60.3078 30.895 59.8037 30.895 59.118C30.895 58.524 30.7703 58.0565 30.521 57.7155C30.2753 57.3708 29.9343 57.1985 29.498 57.1985C29.0287 57.1985 28.6767 57.38 28.442 57.743C28.2073 58.1023 28.09 58.5607 28.09 59.118C28.09 59.4773 28.1413 59.8092 28.244 60.1135C28.3503 60.4142 28.5062 60.6562 28.7115 60.8395C28.9205 61.0192 29.1827 61.109 29.498 61.109ZM34.3945 59.4645C34.3908 59.7872 34.4421 60.0732 34.5485 60.3225C34.6548 60.5718 34.8125 60.768 35.0215 60.911C35.2305 61.0503 35.489 61.12 35.797 61.12C36.1123 61.12 36.3855 61.0503 36.6165 60.911C36.8511 60.768 37.007 60.5517 37.084 60.262H38.3105C38.2445 60.658 38.0868 60.9935 37.8375 61.2685C37.5881 61.5435 37.2856 61.7525 36.93 61.8955C36.578 62.0385 36.2113 62.11 35.83 62.11C35.28 62.11 34.796 61.9945 34.378 61.7635C33.9636 61.5288 33.6391 61.1952 33.4045 60.7625C33.1735 60.3298 33.058 59.8147 33.058 59.217C33.058 58.634 33.1643 58.117 33.377 57.666C33.5896 57.2113 33.8958 56.8538 34.2955 56.5935C34.6988 56.3332 35.1828 56.203 35.7475 56.203C36.3085 56.203 36.7796 56.3222 37.161 56.5605C37.546 56.7988 37.8356 57.1325 38.03 57.5615C38.228 57.9868 38.327 58.4855 38.327 59.0575V59.4645H34.3945ZM34.3945 58.634H37.062C37.062 58.359 37.0143 58.1115 36.919 57.8915C36.8236 57.6678 36.677 57.4918 36.479 57.3635C36.2846 57.2315 36.039 57.1655 35.742 57.1655C35.4486 57.1655 35.2011 57.237 34.9995 57.38C34.7978 57.523 34.6456 57.7082 34.543 57.9355C34.4403 58.1592 34.3908 58.392 34.3945 58.634ZM39.5744 62V56.313H40.8834V57.127C40.9714 56.9803 41.0906 56.8392 41.2409 56.7035C41.3949 56.5678 41.5838 56.4578 41.8074 56.3735C42.0311 56.2892 42.2933 56.247 42.5939 56.247C42.9459 56.247 43.2723 56.3167 43.5729 56.456C43.8773 56.5953 44.1211 56.8135 44.3044 57.1105C44.4914 57.4075 44.5849 57.7907 44.5849 58.26V62H43.2429V58.4195C43.2429 58.0455 43.1403 57.7687 42.9349 57.589C42.7296 57.4057 42.4711 57.314 42.1594 57.314C41.9468 57.314 41.7451 57.3507 41.5544 57.424C41.3638 57.4937 41.2079 57.6018 41.0869 57.7485C40.9696 57.8915 40.9109 58.0712 40.9109 58.2875V62H39.5744ZM48.1042 62.11C47.3526 62.11 46.7622 61.8515 46.3332 61.3345C45.9042 60.8175 45.6897 60.0823 45.6897 59.129C45.6897 58.535 45.7759 58.0198 45.9482 57.5835C46.1242 57.1435 46.3809 56.8043 46.7182 56.566C47.0592 56.324 47.4809 56.203 47.9832 56.203C48.2179 56.203 48.4306 56.2323 48.6212 56.291C48.8156 56.346 48.9879 56.4193 49.1382 56.511C49.2886 56.6027 49.4151 56.7035 49.5177 56.8135C49.6241 56.9235 49.7066 57.0335 49.7652 57.1435V53.827H51.1072V62H50.1172L49.9687 60.834C49.9247 60.9697 49.8587 61.1127 49.7707 61.263C49.6864 61.4097 49.5709 61.5472 49.4242 61.6755C49.2812 61.8038 49.1016 61.9083 48.8852 61.989C48.6689 62.0697 48.4086 62.11 48.1042 62.11ZM48.3792 61.1255C48.8596 61.1255 49.2097 60.9697 49.4297 60.658C49.6534 60.3427 49.7652 59.822 49.7652 59.096C49.7616 58.6817 49.7102 58.3333 49.6112 58.051C49.5159 57.7687 49.3674 57.556 49.1657 57.413C48.9677 57.27 48.7111 57.1985 48.3957 57.1985C47.9924 57.1985 47.6606 57.347 47.4002 57.644C47.1399 57.941 47.0097 58.425 47.0097 59.096C47.0097 59.7633 47.1289 60.2693 47.3672 60.614C47.6056 60.955 47.9429 61.1255 48.3792 61.1255ZM54.0604 56.313V62H52.7734V56.313H54.0604ZM54.0769 54.0525V55.3175H52.7514V54.0525H54.0769ZM56.7275 59.4645C56.7238 59.7872 56.7751 60.0732 56.8815 60.3225C56.9878 60.5718 57.1455 60.768 57.3545 60.911C57.5635 61.0503 57.822 61.12 58.13 61.12C58.4453 61.12 58.7185 61.0503 58.9495 60.911C59.1841 60.768 59.34 60.5517 59.417 60.262H60.6435C60.5775 60.658 60.4198 60.9935 60.1705 61.2685C59.9211 61.5435 59.6186 61.7525 59.263 61.8955C58.911 62.0385 58.5443 62.11 58.163 62.11C57.613 62.11 57.129 61.9945 56.711 61.7635C56.2966 61.5288 55.9721 61.1952 55.7375 60.7625C55.5065 60.3298 55.391 59.8147 55.391 59.217C55.391 58.634 55.4973 58.117 55.71 57.666C55.9226 57.2113 56.2288 56.8538 56.6285 56.5935C57.0318 56.3332 57.5158 56.203 58.0805 56.203C58.6415 56.203 59.1126 56.3222 59.494 56.5605C59.879 56.7988 60.1686 57.1325 60.363 57.5615C60.561 57.9868 60.66 58.4855 60.66 59.0575V59.4645H56.7275ZM56.7275 58.634H59.395C59.395 58.359 59.3473 58.1115 59.252 57.8915C59.1566 57.6678 59.01 57.4918 58.812 57.3635C58.6176 57.2315 58.372 57.1655 58.075 57.1655C57.7816 57.1655 57.5341 57.237 57.3325 57.38C57.1308 57.523 56.9786 57.7082 56.876 57.9355C56.7733 58.1592 56.7238 58.392 56.7275 58.634ZM61.9074 62V56.313H63.2164V57.127C63.3044 56.9803 63.4236 56.8392 63.5739 56.7035C63.7279 56.5678 63.9168 56.4578 64.1404 56.3735C64.3641 56.2892 64.6263 56.247 64.9269 56.247C65.2789 56.247 65.6053 56.3167 65.9059 56.456C66.2103 56.5953 66.4541 56.8135 66.6374 57.1105C66.8244 57.4075 66.9179 57.7907 66.9179 58.26V62H65.5759V58.4195C65.5759 58.0455 65.4733 57.7687 65.2679 57.589C65.0626 57.4057 64.8041 57.314 64.4924 57.314C64.2798 57.314 64.0781 57.3507 63.8874 57.424C63.6968 57.4937 63.5409 57.6018 63.4199 57.7485C63.3026 57.8915 63.2439 58.0712 63.2439 58.2875V62H61.9074ZM71.2967 57.259H70.0262L70.0317 60.5205C70.0317 60.6892 70.05 60.8138 70.0867 60.8945C70.127 60.9715 70.1894 61.0228 70.2737 61.0485C70.3617 61.0705 70.479 61.0815 70.6257 61.0815H71.3242V61.9285C71.2509 61.9578 71.139 61.9835 70.9887 62.0055C70.842 62.0312 70.644 62.044 70.3947 62.044C69.9437 62.044 69.5935 61.9853 69.3442 61.868C69.0985 61.747 68.928 61.5765 68.8327 61.3565C68.7374 61.1365 68.6897 60.8743 68.6897 60.57V57.259H67.7657V56.313H68.7282L69.0637 54.6245H70.0262V56.3075H71.2967V57.259ZM73.496 59.4645C73.4924 59.7872 73.5437 60.0732 73.65 60.3225C73.7564 60.5718 73.914 60.768 74.123 60.911C74.332 61.0503 74.5905 61.12 74.8985 61.12C75.2139 61.12 75.487 61.0503 75.718 60.911C75.9527 60.768 76.1085 60.5517 76.1855 60.262H77.412C77.346 60.658 77.1884 60.9935 76.939 61.2685C76.6897 61.5435 76.3872 61.7525 76.0315 61.8955C75.6795 62.0385 75.3129 62.11 74.9315 62.11C74.3815 62.11 73.8975 61.9945 73.4795 61.7635C73.0652 61.5288 72.7407 61.1952 72.506 60.7625C72.275 60.3298 72.1595 59.8147 72.1595 59.217C72.1595 58.634 72.2659 58.117 72.4785 57.666C72.6912 57.2113 72.9974 56.8538 73.397 56.5935C73.8004 56.3332 74.2844 56.203 74.849 56.203C75.41 56.203 75.8812 56.3222 76.2625 56.5605C76.6475 56.7988 76.9372 57.1325 77.1315 57.5615C77.3295 57.9868 77.4285 58.4855 77.4285 59.0575V59.4645H73.496ZM73.496 58.634H76.1635C76.1635 58.359 76.1159 58.1115 76.0205 57.8915C75.9252 57.6678 75.7785 57.4918 75.5805 57.3635C75.3862 57.2315 75.1405 57.1655 74.8435 57.1655C74.5502 57.1655 74.3027 57.237 74.101 57.38C73.8994 57.523 73.7472 57.7082 73.6445 57.9355C73.5419 58.1592 73.4924 58.392 73.496 58.634ZM81.2911 60.482V62H79.7841V60.482H81.2911ZM77.9911 55.6475C78.2257 55.1012 78.5777 54.6795 79.0471 54.3825C79.5201 54.0855 80.0737 53.937 80.7081 53.937C81.2177 53.937 81.6614 54.0213 82.0391 54.19C82.4204 54.355 82.7156 54.5805 82.9246 54.8665C83.1372 55.1488 83.2436 55.4678 83.2436 55.8235C83.2436 56.1902 83.1702 56.5055 83.0236 56.7695C82.8769 57.0298 82.6972 57.2663 82.4846 57.479C82.2719 57.6917 82.0574 57.9025 81.8411 58.1115C81.6284 58.3205 81.4487 58.5533 81.3021 58.81C81.1591 59.063 81.0876 59.3655 81.0876 59.7175H79.9876C79.9876 59.3068 80.0517 58.9512 80.1801 58.6505C80.3084 58.3498 80.4679 58.084 80.6586 57.853C80.8492 57.6183 81.0381 57.402 81.2251 57.204C81.4157 57.0023 81.5752 56.797 81.7036 56.588C81.8356 56.379 81.9016 56.1462 81.9016 55.8895C81.9016 55.5815 81.7879 55.3377 81.5606 55.158C81.3369 54.9783 81.0491 54.8885 80.6971 54.8885C80.4807 54.8885 80.2681 54.9343 80.0591 55.026C79.8537 55.114 79.6704 55.2387 79.5091 55.4C79.3477 55.5577 79.2267 55.741 79.1461 55.95L77.9911 55.6475ZM87.0564 62V54.047H88.4644L90.8624 60.614L93.2934 54.047H94.6959V62H93.6454V55.5705L91.3409 62H90.3894L88.1014 55.631V62H87.0564ZM98.1313 62.11C97.7646 62.11 97.4401 62.0458 97.1578 61.9175C96.8755 61.7855 96.6536 61.5967 96.4923 61.351C96.3346 61.1053 96.2558 60.8083 96.2558 60.46C96.2558 59.8293 96.4758 59.36 96.9158 59.052C97.3558 58.744 98.0616 58.579 99.0333 58.557L100.051 58.5295V58.084C100.051 57.7357 99.9463 57.4607 99.7373 57.259C99.5283 57.0537 99.2038 56.951 98.7638 56.951C98.4375 56.9547 98.1496 57.0317 97.9003 57.182C97.6546 57.3323 97.4951 57.578 97.4218 57.919H96.5253C96.5473 57.5487 96.6518 57.237 96.8388 56.984C97.0258 56.7273 97.2861 56.533 97.6198 56.401C97.9571 56.269 98.355 56.203 98.8133 56.203C99.3083 56.203 99.719 56.2727 100.045 56.412C100.375 56.5513 100.621 56.7567 100.782 57.028C100.947 57.2993 101.03 57.633 101.03 58.029V62H100.161L100.089 60.933C99.8693 61.3767 99.5888 61.6847 99.2478 61.857C98.9105 62.0257 98.5383 62.11 98.1313 62.11ZM98.4393 61.3785C98.63 61.3785 98.8188 61.3437 99.0058 61.274C99.1965 61.2043 99.3706 61.1108 99.5283 60.9935C99.686 60.8725 99.8106 60.7387 99.9023 60.592C99.9976 60.4417 100.047 60.2877 100.051 60.13V59.1565L99.2038 59.173C98.7711 59.1803 98.4081 59.2243 98.1148 59.305C97.8251 59.3857 97.607 59.5122 97.4603 59.6845C97.3173 59.8568 97.2458 60.0823 97.2458 60.361C97.2458 60.68 97.3558 60.9293 97.5758 61.109C97.7995 61.2887 98.0873 61.3785 98.4393 61.3785ZM99.5448 54.047H100.7L99.1983 55.6475H98.4118L99.5448 54.047ZM102.767 62V56.313H103.752V57.138C103.843 56.9803 103.97 56.8318 104.131 56.6925C104.296 56.5532 104.494 56.4413 104.725 56.357C104.96 56.2727 105.229 56.2305 105.534 56.2305C105.893 56.2305 106.223 56.302 106.524 56.445C106.828 56.588 107.07 56.8117 107.25 57.116C107.433 57.4167 107.525 57.8053 107.525 58.282V62H106.507V58.381C106.507 57.9373 106.39 57.6092 106.155 57.3965C105.924 57.1802 105.624 57.072 105.253 57.072C104.997 57.072 104.756 57.1142 104.533 57.1985C104.309 57.2792 104.128 57.4038 103.988 57.5725C103.849 57.7375 103.779 57.9465 103.779 58.1995V62H102.767ZM111.167 62.11C110.43 62.11 109.846 61.857 109.413 61.351C108.98 60.845 108.764 60.1062 108.764 59.1345C108.764 58.5442 108.85 58.029 109.022 57.589C109.198 57.149 109.459 56.808 109.803 56.566C110.148 56.324 110.577 56.203 111.09 56.203C111.362 56.203 111.602 56.2378 111.811 56.3075C112.024 56.3772 112.207 56.4652 112.361 56.5715C112.515 56.6778 112.64 56.7878 112.735 56.9015C112.834 57.0152 112.907 57.1197 112.955 57.215V53.827H113.978V62H113.202L113.092 60.834C113.056 60.944 112.997 61.0723 112.916 61.219C112.836 61.362 112.722 61.5032 112.575 61.6425C112.429 61.7782 112.24 61.89 112.009 61.978C111.782 62.066 111.501 62.11 111.167 62.11ZM111.349 61.329C111.925 61.329 112.335 61.1548 112.581 60.8065C112.83 60.4545 112.955 59.8807 112.955 59.085C112.951 58.6413 112.894 58.2637 112.784 57.952C112.678 57.6403 112.509 57.4038 112.278 57.2425C112.051 57.0775 111.749 56.995 111.371 56.995C110.902 56.995 110.52 57.1618 110.227 57.4955C109.934 57.8292 109.787 58.359 109.787 59.085C109.787 59.7963 109.919 60.3482 110.183 60.7405C110.451 61.1328 110.839 61.329 111.349 61.329ZM117.231 62.11C116.864 62.11 116.54 62.0458 116.257 61.9175C115.975 61.7855 115.753 61.5967 115.592 61.351C115.434 61.1053 115.355 60.8083 115.355 60.46C115.355 59.8293 115.575 59.36 116.015 59.052C116.455 58.744 117.161 58.579 118.133 58.557L119.15 58.5295V58.084C119.15 57.7357 119.046 57.4607 118.837 57.259C118.628 57.0537 118.303 56.951 117.863 56.951C117.537 56.9547 117.249 57.0317 117 57.182C116.754 57.3323 116.595 57.578 116.521 57.919H115.625C115.647 57.5487 115.751 57.237 115.938 56.984C116.125 56.7273 116.386 56.533 116.719 56.401C117.057 56.269 117.455 56.203 117.913 56.203C118.408 56.203 118.819 56.2727 119.145 56.412C119.475 56.5513 119.721 56.7567 119.882 57.028C120.047 57.2993 120.129 57.633 120.129 58.029V62H119.26L119.189 60.933C118.969 61.3767 118.688 61.6847 118.347 61.857C118.01 62.0257 117.638 62.11 117.231 62.11ZM117.539 61.3785C117.73 61.3785 117.918 61.3437 118.105 61.274C118.296 61.2043 118.47 61.1108 118.628 60.9935C118.786 60.8725 118.91 60.7387 119.002 60.592C119.097 60.4417 119.147 60.2877 119.15 60.13V59.1565L118.303 59.173C117.871 59.1803 117.508 59.2243 117.214 59.305C116.925 59.3857 116.707 59.5122 116.56 59.6845C116.417 59.8568 116.345 60.0823 116.345 60.361C116.345 60.68 116.455 60.9293 116.675 61.109C116.899 61.2887 117.187 61.3785 117.539 61.3785ZM121.867 62V56.313H122.851V57.138C122.943 56.9803 123.07 56.8318 123.231 56.6925C123.396 56.5532 123.594 56.4413 123.825 56.357C124.06 56.2727 124.329 56.2305 124.633 56.2305C124.993 56.2305 125.323 56.302 125.623 56.445C125.928 56.588 126.17 56.8117 126.349 57.116C126.533 57.4167 126.624 57.8053 126.624 58.282V62H125.607V58.381C125.607 57.9373 125.49 57.6092 125.255 57.3965C125.024 57.1802 124.723 57.072 124.353 57.072C124.096 57.072 123.856 57.1142 123.632 57.1985C123.409 57.2792 123.227 57.4038 123.088 57.5725C122.949 57.7375 122.879 57.9465 122.879 58.1995V62H121.867ZM130.476 62.11C129.952 62.11 129.493 61.9982 129.101 61.7745C128.709 61.5472 128.404 61.2153 128.188 60.779C127.972 60.3427 127.864 59.8092 127.864 59.1785C127.864 58.5845 127.964 58.0638 128.166 57.6165C128.368 57.1692 128.663 56.8227 129.052 56.577C129.444 56.3277 129.919 56.203 130.476 56.203C131 56.203 131.455 56.3185 131.84 56.5495C132.229 56.7768 132.529 57.1123 132.742 57.556C132.955 57.9997 133.061 58.5405 133.061 59.1785C133.061 59.7578 132.962 60.2675 132.764 60.7075C132.57 61.1475 132.28 61.4922 131.895 61.7415C131.514 61.9872 131.041 62.11 130.476 62.11ZM130.476 61.307C130.817 61.307 131.105 61.2208 131.34 61.0485C131.574 60.8762 131.752 60.6287 131.873 60.306C131.994 59.9833 132.055 59.6002 132.055 59.1565C132.055 58.7495 132.001 58.3847 131.895 58.062C131.789 57.7357 131.618 57.4772 131.384 57.2865C131.153 57.0958 130.85 57.0005 130.476 57.0005C130.131 57.0005 129.84 57.0867 129.602 57.259C129.363 57.4277 129.182 57.6733 129.057 57.996C128.936 58.3187 128.876 58.7055 128.876 59.1565C128.876 59.5562 128.931 59.9192 129.041 60.2455C129.151 60.5718 129.323 60.8303 129.558 61.021C129.792 61.2117 130.098 61.307 130.476 61.307ZM136.379 62.11C135.983 62.11 135.614 62.0495 135.273 61.9285C134.936 61.8038 134.655 61.6113 134.432 61.351C134.208 61.087 134.067 60.7515 134.008 60.3445H134.932C134.983 60.5682 135.075 60.7552 135.207 60.9055C135.343 61.0522 135.511 61.164 135.713 61.241C135.915 61.3143 136.135 61.351 136.373 61.351C136.754 61.351 137.062 61.2795 137.297 61.1365C137.532 60.9935 137.649 60.7735 137.649 60.4765C137.649 60.2675 137.587 60.1007 137.462 59.976C137.341 59.8477 137.152 59.7542 136.896 59.6955L135.719 59.404C135.26 59.294 134.894 59.1217 134.619 58.887C134.344 58.6523 134.206 58.3242 134.206 57.9025C134.202 57.5688 134.281 57.2755 134.443 57.0225C134.604 56.7695 134.846 56.5697 135.169 56.423C135.491 56.2763 135.893 56.203 136.373 56.203C136.989 56.203 137.486 56.3423 137.864 56.621C138.245 56.896 138.443 57.3012 138.458 57.8365H137.561C137.524 57.5652 137.402 57.3507 137.193 57.193C136.987 57.0317 136.71 56.951 136.362 56.951C135.999 56.951 135.704 57.0243 135.477 57.171C135.249 57.314 135.136 57.5377 135.136 57.842C135.136 58.0437 135.216 58.2032 135.378 58.3205C135.539 58.4342 135.777 58.5295 136.093 58.6065L137.231 58.8925C137.495 58.9622 137.711 59.0538 137.88 59.1675C138.052 59.2812 138.188 59.4077 138.287 59.547C138.39 59.6863 138.461 59.833 138.502 59.987C138.546 60.1373 138.568 60.2822 138.568 60.4215C138.568 60.7698 138.48 61.0705 138.304 61.3235C138.131 61.5728 137.882 61.7672 137.556 61.9065C137.233 62.0422 136.841 62.11 136.379 62.11ZM144.571 62.11C144.274 62.1063 143.994 62.0642 143.73 61.9835C143.469 61.8992 143.238 61.7763 143.037 61.615C142.835 61.4537 142.675 61.2538 142.558 61.0155C142.444 60.7735 142.388 60.493 142.388 60.174V56.313H143.405V60.0695C143.405 60.4398 143.519 60.7405 143.746 60.9715C143.977 61.2025 144.324 61.318 144.786 61.318C145.204 61.318 145.539 61.2098 145.792 60.9935C146.049 60.7735 146.177 60.4472 146.177 60.0145V56.313H147.189V62H146.381L146.276 60.911C146.206 61.197 146.087 61.428 145.919 61.604C145.754 61.78 145.554 61.9102 145.319 61.9945C145.088 62.0752 144.839 62.1137 144.571 62.11ZM148.841 62V56.313H149.825V57.138C149.917 56.9803 150.043 56.8318 150.205 56.6925C150.37 56.5532 150.568 56.4413 150.799 56.357C151.033 56.2727 151.303 56.2305 151.607 56.2305C151.966 56.2305 152.296 56.302 152.597 56.445C152.901 56.588 153.143 56.8117 153.323 57.116C153.506 57.4167 153.598 57.8053 153.598 58.282V62H152.581V58.381C152.581 57.9373 152.463 57.6092 152.229 57.3965C151.998 57.1802 151.697 57.072 151.327 57.072C151.07 57.072 150.83 57.1142 150.606 57.1985C150.382 57.2792 150.201 57.4038 150.062 57.5725C149.922 57.7375 149.853 57.9465 149.853 58.1995V62H148.841ZM26.8415 76V70.313H27.8205V71.138C27.9782 70.8887 28.1945 70.6705 28.4695 70.4835C28.7445 70.2965 29.102 70.203 29.542 70.203C29.7473 70.203 29.9563 70.2378 30.169 70.3075C30.3853 70.3772 30.5833 70.4817 30.763 70.621C30.9427 70.7603 31.082 70.9308 31.181 71.1325C31.357 70.8538 31.5953 70.6302 31.896 70.4615C32.1967 70.2892 32.5358 70.203 32.9135 70.203C33.1115 70.203 33.3187 70.2342 33.535 70.2965C33.7513 70.3552 33.9512 70.4615 34.1345 70.6155C34.3215 70.7658 34.4737 70.9767 34.591 71.248C34.7083 71.5157 34.767 71.8603 34.767 72.282V76H33.744V72.381C33.744 72.0363 33.689 71.7705 33.579 71.5835C33.469 71.3928 33.3242 71.259 33.1445 71.182C32.9685 71.105 32.7797 71.0665 32.578 71.0665C32.402 71.0665 32.215 71.1013 32.017 71.171C31.819 71.2407 31.6503 71.358 31.511 71.523C31.3717 71.688 31.302 71.9135 31.302 72.1995V76H30.29V72.084C30.29 71.8603 30.2295 71.6733 30.1085 71.523C29.9912 71.3727 29.8427 71.259 29.663 71.182C29.487 71.105 29.311 71.0665 29.135 71.0665C28.9407 71.0665 28.7445 71.105 28.5465 71.182C28.3522 71.259 28.1872 71.3818 28.0515 71.5505C27.9195 71.7155 27.8535 71.9318 27.8535 72.1995V76H26.8415ZM37.0851 73.393C37.0851 73.7523 37.1437 74.0787 37.2611 74.372C37.3821 74.6617 37.5636 74.8927 37.8056 75.065C38.0512 75.2373 38.3574 75.3235 38.7241 75.3235C39.0871 75.3235 39.3987 75.2392 39.6591 75.0705C39.9231 74.9018 40.0917 74.658 40.1651 74.339H41.1276C41.0579 74.724 40.9039 75.0485 40.6656 75.3125C40.4272 75.5765 40.1394 75.7763 39.8021 75.912C39.4647 76.044 39.1127 76.11 38.7461 76.11C38.2144 76.11 37.7469 75.9945 37.3436 75.7635C36.9402 75.5325 36.6249 75.2007 36.3976 74.768C36.1702 74.3353 36.0566 73.8165 36.0566 73.2115C36.0566 72.6138 36.1592 72.0895 36.3646 71.6385C36.5699 71.1875 36.8669 70.8355 37.2556 70.5825C37.6479 70.3295 38.1191 70.203 38.6691 70.203C39.2044 70.203 39.6572 70.3185 40.0276 70.5495C40.3979 70.7805 40.6784 71.1068 40.8691 71.5285C41.0634 71.9465 41.1606 72.4433 41.1606 73.019V73.393H37.0851ZM37.0906 72.7055H40.1816C40.1816 72.3792 40.1266 72.0858 40.0166 71.8255C39.9066 71.5615 39.7379 71.3543 39.5106 71.204C39.2869 71.05 39.0046 70.973 38.6636 70.973C38.3079 70.973 38.0127 71.0592 37.7781 71.2315C37.5471 71.4002 37.3729 71.6183 37.2556 71.886C37.1419 72.15 37.0869 72.4232 37.0906 72.7055ZM42.5573 76V70.313H43.5418V71.138C43.6335 70.9803 43.76 70.8318 43.9213 70.6925C44.0863 70.5532 44.2843 70.4413 44.5153 70.357C44.75 70.2727 45.0195 70.2305 45.3238 70.2305C45.6832 70.2305 46.0132 70.302 46.3138 70.445C46.6182 70.588 46.8602 70.8117 47.0398 71.116C47.2232 71.4167 47.3148 71.8053 47.3148 72.282V76H46.2973V72.381C46.2973 71.9373 46.18 71.6092 45.9453 71.3965C45.7143 71.1802 45.4137 71.072 45.0433 71.072C44.7867 71.072 44.5465 71.1142 44.3228 71.1985C44.0992 71.2792 43.9177 71.4038 43.7783 71.5725C43.639 71.7375 43.5693 71.9465 43.5693 72.1995V76H42.5573ZM50.8385 76.11C50.4425 76.11 50.074 76.0495 49.733 75.9285C49.3957 75.8038 49.1152 75.6113 48.8915 75.351C48.6678 75.087 48.5267 74.7515 48.468 74.3445H49.392C49.4433 74.5682 49.535 74.7552 49.667 74.9055C49.8027 75.0522 49.9713 75.164 50.173 75.241C50.3747 75.3143 50.5947 75.351 50.833 75.351C51.2143 75.351 51.5223 75.2795 51.757 75.1365C51.9917 74.9935 52.109 74.7735 52.109 74.4765C52.109 74.2675 52.0467 74.1007 51.922 73.976C51.801 73.8477 51.6122 73.7542 51.3555 73.6955L50.1785 73.404C49.7202 73.294 49.3535 73.1217 49.0785 72.887C48.8035 72.6523 48.666 72.3242 48.666 71.9025C48.6623 71.5688 48.7412 71.2755 48.9025 71.0225C49.0638 70.7695 49.3058 70.5697 49.6285 70.423C49.9512 70.2763 50.3527 70.203 50.833 70.203C51.449 70.203 51.9458 70.3423 52.3235 70.621C52.7048 70.896 52.9028 71.3012 52.9175 71.8365H52.021C51.9843 71.5652 51.8615 71.3507 51.6525 71.193C51.4472 71.0317 51.1703 70.951 50.822 70.951C50.459 70.951 50.1638 71.0243 49.9365 71.171C49.7092 71.314 49.5955 71.5377 49.5955 71.842C49.5955 72.0437 49.6762 72.2032 49.8375 72.3205C49.9988 72.4342 50.2372 72.5295 50.5525 72.6065L51.691 72.8925C51.955 72.9622 52.1713 73.0538 52.34 73.1675C52.5123 73.2812 52.648 73.4077 52.747 73.547C52.8497 73.6863 52.9212 73.833 52.9615 73.987C53.0055 74.1373 53.0275 74.2822 53.0275 74.4215C53.0275 74.7698 52.9395 75.0705 52.7635 75.3235C52.5912 75.5728 52.3418 75.7672 52.0155 75.9065C51.6928 76.0422 51.3005 76.11 50.8385 76.11ZM56.0434 76.11C55.6767 76.11 55.3522 76.0458 55.0699 75.9175C54.7876 75.7855 54.5657 75.5967 54.4044 75.351C54.2467 75.1053 54.1679 74.8083 54.1679 74.46C54.1679 73.8293 54.3879 73.36 54.8279 73.052C55.2679 72.744 55.9737 72.579 56.9454 72.557L57.9629 72.5295V72.084C57.9629 71.7357 57.8584 71.4607 57.6494 71.259C57.4404 71.0537 57.1159 70.951 56.6759 70.951C56.3496 70.9547 56.0617 71.0317 55.8124 71.182C55.5667 71.3323 55.4072 71.578 55.3339 71.919H54.4374C54.4594 71.5487 54.5639 71.237 54.7509 70.984C54.9379 70.7273 55.1982 70.533 55.5319 70.401C55.8692 70.269 56.2671 70.203 56.7254 70.203C57.2204 70.203 57.6311 70.2727 57.9574 70.412C58.2874 70.5513 58.5331 70.7567 58.6944 71.028C58.8594 71.2993 58.9419 71.633 58.9419 72.029V76H58.0729L58.0014 74.933C57.7814 75.3767 57.5009 75.6847 57.1599 75.857C56.8226 76.0257 56.4504 76.11 56.0434 76.11ZM56.3514 75.3785C56.5421 75.3785 56.7309 75.3437 56.9179 75.274C57.1086 75.2043 57.2827 75.1108 57.4404 74.9935C57.5981 74.8725 57.7227 74.7387 57.8144 74.592C57.9097 74.4417 57.9592 74.2877 57.9629 74.13V73.1565L57.1159 73.173C56.6832 73.1803 56.3202 73.2243 56.0269 73.305C55.7372 73.3857 55.5191 73.5122 55.3724 73.6845C55.2294 73.8568 55.1579 74.0823 55.1579 74.361C55.1579 74.68 55.2679 74.9293 55.4879 75.109C55.7116 75.2887 55.9994 75.3785 56.3514 75.3785ZM61.8564 76.253C61.8564 76.7847 61.7409 77.1788 61.5099 77.4355C61.2826 77.6958 60.8792 77.826 60.2999 77.826C59.9882 77.826 59.7921 77.804 59.7114 77.76C59.6271 77.716 59.5849 77.694 59.5849 77.694V77.0175L60.1459 76.99C60.4026 76.9717 60.5822 76.9038 60.6849 76.7865C60.7876 76.6692 60.8389 76.4803 60.8389 76.22V70.313H61.8564V76.253ZM61.8839 68.0525V69.1085H60.8059V68.0525H61.8839ZM64.295 73.393C64.295 73.7523 64.3537 74.0787 64.471 74.372C64.592 74.6617 64.7735 74.8927 65.0155 75.065C65.2612 75.2373 65.5674 75.3235 65.934 75.3235C66.297 75.3235 66.6087 75.2392 66.869 75.0705C67.133 74.9018 67.3017 74.658 67.375 74.339H68.3375C68.2679 74.724 68.1139 75.0485 67.8755 75.3125C67.6372 75.5765 67.3494 75.7763 67.012 75.912C66.6747 76.044 66.3227 76.11 65.956 76.11C65.4244 76.11 64.9569 75.9945 64.5535 75.7635C64.1502 75.5325 63.8349 75.2007 63.6075 74.768C63.3802 74.3353 63.2665 73.8165 63.2665 73.2115C63.2665 72.6138 63.3692 72.0895 63.5745 71.6385C63.7799 71.1875 64.0769 70.8355 64.4655 70.5825C64.8579 70.3295 65.329 70.203 65.879 70.203C66.4144 70.203 66.8672 70.3185 67.2375 70.5495C67.6079 70.7805 67.8884 71.1068 68.079 71.5285C68.2734 71.9465 68.3705 72.4433 68.3705 73.019V73.393H64.295ZM64.3005 72.7055H67.3915C67.3915 72.3792 67.3365 72.0858 67.2265 71.8255C67.1165 71.5615 66.9479 71.3543 66.7205 71.204C66.4969 71.05 66.2145 70.973 65.8735 70.973C65.5179 70.973 65.2227 71.0592 64.988 71.2315C64.757 71.4002 64.5829 71.6183 64.4655 71.886C64.3519 72.15 64.2969 72.4232 64.3005 72.7055Z" fill="white"/>
</svg>
