<svg width="243" height="132" viewBox="0 0 243 132" fill="none" xmlns="http://www.w3.org/2000/svg">
<rect width="243" height="132" rx="5" fill="#F4F4F4"/>
<rect x="21.2341" y="7.23406" width="23.8744" height="23.8744" rx="11.9372" stroke="#DADDDD" stroke-width="0.468125"/>
<path d="M35.5825 16.2347L32.4642 19.1745L35.5825 22.1144C35.657 22.1846 35.716 22.2679 35.7562 22.3595C35.7965 22.4512 35.8172 22.5494 35.8172 22.6486C35.8172 22.7478 35.7965 22.846 35.7562 22.9377C35.716 23.0294 35.657 23.1126 35.5825 23.1828C35.5081 23.2529 35.4198 23.3086 35.3226 23.3465C35.2254 23.3845 35.1212 23.4041 35.0159 23.4041C34.9107 23.4041 34.8065 23.3845 34.7093 23.3465C34.6121 23.3086 34.5238 23.2529 34.4493 23.1828L30.7604 19.7049C30.6859 19.6348 30.6268 19.5516 30.5865 19.4599C30.5462 19.3683 30.5254 19.27 30.5254 19.1708C30.5254 19.0715 30.5462 18.9733 30.5865 18.8816C30.6268 18.7899 30.6859 18.7067 30.7604 18.6366L34.4493 15.1587C34.7628 14.8632 35.2691 14.8632 35.5825 15.1587C35.8879 15.4542 35.896 15.9392 35.5825 16.2347Z" fill="#0D263B"/>
<path d="M86.7925 17.45C86.7557 17.1226 86.6035 16.8691 86.3361 16.6892C86.0687 16.5071 85.7322 16.4161 85.3265 16.4161C85.036 16.4161 84.7847 16.4622 84.5727 16.5544C84.3606 16.6443 84.1958 16.7688 84.0782 16.9278C83.963 17.0846 83.9053 17.2632 83.9053 17.4638C83.9053 17.6321 83.9445 17.7773 84.0229 17.8995C84.1036 18.0216 84.2085 18.1242 84.3375 18.2072C84.4689 18.2879 84.6096 18.3559 84.7594 18.4112C84.9092 18.4642 85.0533 18.508 85.1916 18.5426L85.8832 18.7224C86.1091 18.7777 86.3407 18.8526 86.5782 18.9472C86.8156 19.0417 87.0357 19.1661 87.2386 19.3206C87.4414 19.475 87.6051 19.6664 87.7296 19.8946C87.8564 20.1228 87.9198 20.3959 87.9198 20.7141C87.9198 21.1152 87.816 21.4713 87.6086 21.7825C87.4034 22.0937 87.1049 22.3392 86.713 22.519C86.3234 22.6988 85.852 22.7887 85.2988 22.7887C84.7686 22.7887 84.3099 22.7046 83.9226 22.5363C83.5353 22.368 83.2322 22.1294 83.0132 21.8205C82.7942 21.5093 82.6732 21.1405 82.6502 20.7141H83.7221C83.7428 20.9699 83.8258 21.1832 83.971 21.3537C84.1186 21.522 84.3064 21.6477 84.5346 21.7306C84.7651 21.8113 85.0176 21.8517 85.2919 21.8517C85.5939 21.8517 85.8624 21.8044 86.0975 21.7099C86.335 21.6131 86.5217 21.4794 86.6577 21.3088C86.7937 21.1359 86.8617 20.9342 86.8617 20.7037C86.8617 20.4939 86.8018 20.3222 86.6819 20.1885C86.5643 20.0548 86.4041 19.9441 86.2013 19.8565C86.0007 19.7689 85.7737 19.6917 85.5201 19.6249L84.6833 19.3967C84.1162 19.2422 83.6667 19.0152 83.3348 18.7155C83.0052 18.4158 82.8403 18.0193 82.8403 17.526C82.8403 17.118 82.951 16.7619 83.1723 16.4576C83.3936 16.1533 83.6932 15.917 84.0713 15.7487C84.4493 15.5782 84.8758 15.4929 85.3507 15.4929C85.8301 15.4929 86.2531 15.577 86.6197 15.7453C86.9885 15.9136 87.2789 16.1452 87.491 16.4403C87.7031 16.733 87.8137 17.0696 87.8229 17.45H86.7925ZM91.3507 22.7783C90.8528 22.7783 90.4183 22.6642 90.0471 22.436C89.676 22.2078 89.3879 21.8885 89.1827 21.4782C88.9775 21.0679 88.875 20.5884 88.875 20.0398C88.875 19.4889 88.9775 19.0071 89.1827 18.5945C89.3879 18.1818 89.676 17.8614 90.0471 17.6332C90.4183 17.405 90.8528 17.2909 91.3507 17.2909C91.8486 17.2909 92.2831 17.405 92.6543 17.6332C93.0254 17.8614 93.3136 18.1818 93.5187 18.5945C93.7239 19.0071 93.8265 19.4889 93.8265 20.0398C93.8265 20.5884 93.7239 21.0679 93.5187 21.4782C93.3136 21.8885 93.0254 22.2078 92.6543 22.436C92.2831 22.6642 91.8486 22.7783 91.3507 22.7783ZM91.3542 21.9104C91.6769 21.9104 91.9443 21.8251 92.1564 21.6546C92.3684 21.484 92.5252 21.2569 92.6266 20.9734C92.7303 20.6899 92.7822 20.3775 92.7822 20.0363C92.7822 19.6975 92.7303 19.3863 92.6266 19.1028C92.5252 18.8169 92.3684 18.5875 92.1564 18.4147C91.9443 18.2418 91.6769 18.1553 91.3542 18.1553C91.0291 18.1553 90.7594 18.2418 90.5451 18.4147C90.333 18.5875 90.1751 18.8169 90.0713 19.1028C89.9699 19.3863 89.9192 19.6975 89.9192 20.0363C89.9192 20.3775 89.9699 20.6899 90.0713 20.9734C90.1751 21.2569 90.333 21.484 90.5451 21.6546C90.7594 21.8251 91.0291 21.9104 91.3542 21.9104ZM96.0143 15.5897V22.6711H94.9805V15.5897H96.0143ZM97.4052 22.6711V17.36H98.4391V22.6711H97.4052ZM97.9273 16.5406C97.7475 16.5406 97.5931 16.4806 97.464 16.3608C97.3372 16.2386 97.2738 16.0934 97.2738 15.9251C97.2738 15.7545 97.3372 15.6093 97.464 15.4894C97.5931 15.3672 97.7475 15.3062 97.9273 15.3062C98.1071 15.3062 98.2604 15.3672 98.3872 15.4894C98.5163 15.6093 98.5808 15.7545 98.5808 15.9251C98.5808 16.0934 98.5163 16.2386 98.3872 16.3608C98.2604 16.4806 98.1071 16.5406 97.9273 16.5406ZM102.067 22.7783C101.553 22.7783 101.11 22.6619 100.739 22.4291C100.371 22.194 100.087 21.8701 99.8887 21.4575C99.6905 21.0449 99.5914 20.5723 99.5914 20.0398C99.5914 19.5004 99.6928 19.0244 99.8957 18.6118C100.099 18.1968 100.384 17.8729 100.753 17.6401C101.122 17.4073 101.557 17.2909 102.057 17.2909C102.46 17.2909 102.82 17.3658 103.136 17.5156C103.451 17.6632 103.706 17.8706 103.9 18.138C104.096 18.4054 104.212 18.7178 104.249 19.0751H103.243C103.187 18.8261 103.061 18.6118 102.862 18.4319C102.666 18.2521 102.404 18.1622 102.074 18.1622C101.786 18.1622 101.533 18.2383 101.317 18.3905C101.102 18.5403 100.935 18.7547 100.815 19.0336C100.696 19.3102 100.636 19.6375 100.636 20.0156C100.636 20.4029 100.694 20.7371 100.812 21.0183C100.93 21.2996 101.095 21.5174 101.31 21.6719C101.527 21.8263 101.781 21.9035 102.074 21.9035C102.27 21.9035 102.447 21.8678 102.607 21.7963C102.768 21.7226 102.903 21.6177 103.011 21.4817C103.122 21.3457 103.199 21.182 103.243 20.9907H104.249C104.212 21.3341 104.1 21.6407 103.914 21.9104C103.727 22.1801 103.477 22.3922 103.163 22.5467C102.852 22.7011 102.487 22.7783 102.067 22.7783ZM105.355 22.6711V17.36H106.388V22.6711H105.355ZM105.877 16.5406C105.697 16.5406 105.542 16.4806 105.413 16.3608C105.287 16.2386 105.223 16.0934 105.223 15.9251C105.223 15.7545 105.287 15.6093 105.413 15.4894C105.542 15.3672 105.697 15.3062 105.877 15.3062C106.056 15.3062 106.21 15.3672 106.337 15.4894C106.466 15.6093 106.53 15.7545 106.53 15.9251C106.53 16.0934 106.466 16.2386 106.337 16.3608C106.21 16.4806 106.056 16.5406 105.877 16.5406ZM110.259 17.36V18.1899H107.357V17.36H110.259ZM108.135 16.0876H109.169V21.1117C109.169 21.3122 109.199 21.4632 109.259 21.5647C109.319 21.6638 109.396 21.7318 109.491 21.7687C109.588 21.8032 109.693 21.8205 109.806 21.8205C109.889 21.8205 109.961 21.8148 110.023 21.8032C110.086 21.7917 110.134 21.7825 110.169 21.7756L110.355 22.6296C110.295 22.6527 110.21 22.6758 110.099 22.6988C109.989 22.7242 109.85 22.738 109.685 22.7403C109.413 22.7449 109.159 22.6965 108.924 22.5951C108.689 22.4936 108.499 22.3369 108.353 22.1248C108.208 21.9127 108.135 21.6465 108.135 21.3261V16.0876ZM114.767 20.4686V17.36H115.804V22.6711H114.787V21.7514H114.732C114.61 22.0349 114.414 22.2712 114.144 22.4602C113.877 22.6469 113.544 22.7403 113.145 22.7403C112.804 22.7403 112.502 22.6654 112.239 22.5155C111.978 22.3634 111.773 22.1387 111.623 21.8413C111.476 21.5439 111.402 21.1762 111.402 20.7383V17.36H112.436V20.6138C112.436 20.9757 112.536 21.2638 112.737 21.4782C112.937 21.6926 113.198 21.7998 113.518 21.7998C113.712 21.7998 113.904 21.7514 114.096 21.6546C114.289 21.5577 114.45 21.4114 114.576 21.2154C114.705 21.0195 114.769 20.7705 114.767 20.4686ZM119.181 22.7749C118.752 22.7749 118.37 22.6654 118.033 22.4464C117.699 22.2251 117.436 21.9104 117.245 21.5024C117.056 21.0921 116.961 20.6 116.961 20.026C116.961 19.452 117.057 18.961 117.248 18.553C117.442 18.145 117.707 17.8326 118.044 17.6159C118.38 17.3992 118.762 17.2909 119.188 17.2909C119.518 17.2909 119.783 17.3462 119.983 17.4569C120.186 17.5652 120.343 17.692 120.454 17.8372C120.567 17.9824 120.654 18.1104 120.716 18.221H120.779V15.5897H121.813V22.6711H120.803V21.8447H120.716C120.654 21.9577 120.564 22.0868 120.447 22.232C120.331 22.3772 120.172 22.504 119.97 22.6124C119.767 22.7207 119.504 22.7749 119.181 22.7749ZM119.409 21.8932C119.707 21.8932 119.958 21.8148 120.163 21.658C120.371 21.499 120.527 21.2788 120.633 20.9976C120.742 20.7164 120.796 20.389 120.796 20.0156C120.796 19.6468 120.743 19.324 120.637 19.0474C120.531 18.7708 120.375 18.5553 120.17 18.4008C119.965 18.2464 119.711 18.1692 119.409 18.1692C119.098 18.1692 118.839 18.2498 118.631 18.4112C118.424 18.5726 118.267 18.7927 118.161 19.0716C118.057 19.3506 118.006 19.6652 118.006 20.0156C118.006 20.3706 118.059 20.6899 118.165 20.9734C118.271 21.2569 118.427 21.4817 118.635 21.6477C118.845 21.8113 119.103 21.8932 119.409 21.8932ZM127.853 22.7749C127.424 22.7749 127.042 22.6654 126.705 22.4464C126.371 22.2251 126.108 21.9104 125.917 21.5024C125.728 21.0921 125.633 20.6 125.633 20.026C125.633 19.452 125.729 18.961 125.92 18.553C126.114 18.145 126.379 17.8326 126.716 17.6159C127.052 17.3992 127.434 17.2909 127.86 17.2909C128.19 17.2909 128.455 17.3462 128.655 17.4569C128.858 17.5652 129.015 17.692 129.126 17.8372C129.239 17.9824 129.326 18.1104 129.388 18.221H129.451V15.5897H130.485V22.6711H129.475V21.8447H129.388C129.326 21.9577 129.236 22.0868 129.119 22.232C129.004 22.3772 128.844 22.504 128.642 22.6124C128.439 22.7207 128.176 22.7749 127.853 22.7749ZM128.081 21.8932C128.379 21.8932 128.63 21.8148 128.835 21.658C129.043 21.499 129.199 21.2788 129.305 20.9976C129.414 20.7164 129.468 20.389 129.468 20.0156C129.468 19.6468 129.415 19.324 129.309 19.0474C129.203 18.7708 129.047 18.5553 128.842 18.4008C128.637 18.2464 128.383 18.1692 128.081 18.1692C127.77 18.1692 127.511 18.2498 127.303 18.4112C127.096 18.5726 126.939 18.7927 126.833 19.0716C126.729 19.3506 126.678 19.6652 126.678 20.0156C126.678 20.3706 126.731 20.6899 126.837 20.9734C126.943 21.2569 127.099 21.4817 127.307 21.6477C127.517 21.8113 127.775 21.8932 128.081 21.8932ZM134.249 22.7783C133.726 22.7783 133.275 22.6665 132.897 22.4429C132.521 22.217 132.231 21.9001 132.026 21.4921C131.823 21.0817 131.722 20.6011 131.722 20.0502C131.722 19.5062 131.823 19.0267 132.026 18.6118C132.231 18.1968 132.517 17.8729 132.883 17.6401C133.252 17.4073 133.683 17.2909 134.177 17.2909C134.476 17.2909 134.767 17.3405 135.048 17.4396C135.329 17.5387 135.582 17.6943 135.805 17.9064C136.029 18.1184 136.205 18.3939 136.334 18.7328C136.463 19.0693 136.528 19.4785 136.528 19.9603V20.3268H132.306V19.5523H135.515C135.515 19.2802 135.459 19.0394 135.349 18.8296C135.238 18.6175 135.083 18.4504 134.882 18.3282C134.684 18.206 134.451 18.145 134.183 18.145C133.893 18.145 133.639 18.2164 133.423 18.3593C133.208 18.5 133.042 18.6844 132.925 18.9126C132.81 19.1385 132.752 19.384 132.752 19.6491V20.2542C132.752 20.6092 132.814 20.9112 132.939 21.1601C133.065 21.4091 133.242 21.5992 133.468 21.7306C133.694 21.8597 133.958 21.9243 134.26 21.9243C134.456 21.9243 134.634 21.8966 134.796 21.8413C134.957 21.7837 135.096 21.6984 135.214 21.5854C135.331 21.4725 135.421 21.333 135.484 21.167L136.462 21.3434C136.384 21.6315 136.243 21.8839 136.04 22.1006C135.84 22.315 135.587 22.4821 135.283 22.602C134.981 22.7196 134.636 22.7783 134.249 22.7783ZM140.252 22.6711V17.36H141.251V18.2037H141.306C141.403 17.9179 141.574 17.6931 141.818 17.5295C142.065 17.3635 142.344 17.2805 142.655 17.2805C142.72 17.2805 142.796 17.2828 142.883 17.2874C142.973 17.292 143.043 17.2978 143.094 17.3047V18.2936C143.053 18.2821 142.979 18.2694 142.873 18.2556C142.767 18.2395 142.661 18.2314 142.555 18.2314C142.31 18.2314 142.093 18.2833 141.901 18.387C141.712 18.4884 141.562 18.6302 141.452 18.8123C141.341 18.9921 141.286 19.1973 141.286 19.4278V22.6711H140.252ZM146.088 22.7783C145.564 22.7783 145.114 22.6665 144.736 22.4429C144.36 22.217 144.069 21.9001 143.864 21.4921C143.661 21.0817 143.56 20.6011 143.56 20.0502C143.56 19.5062 143.661 19.0267 143.864 18.6118C144.069 18.1968 144.355 17.8729 144.722 17.6401C145.091 17.4073 145.522 17.2909 146.015 17.2909C146.315 17.2909 146.605 17.3405 146.886 17.4396C147.168 17.5387 147.42 17.6943 147.644 17.9064C147.867 18.1184 148.044 18.3939 148.173 18.7328C148.302 19.0693 148.366 19.4785 148.366 19.9603V20.3268H144.144V19.5523H147.353C147.353 19.2802 147.298 19.0394 147.187 18.8296C147.077 18.6175 146.921 18.4504 146.72 18.3282C146.522 18.206 146.289 18.145 146.022 18.145C145.731 18.145 145.478 18.2164 145.261 18.3593C145.047 18.5 144.881 18.6844 144.763 18.9126C144.648 19.1385 144.59 19.384 144.59 19.6491V20.2542C144.59 20.6092 144.653 20.9112 144.777 21.1601C144.904 21.4091 145.08 21.5992 145.306 21.7306C145.532 21.8597 145.796 21.9243 146.098 21.9243C146.294 21.9243 146.473 21.8966 146.634 21.8413C146.795 21.7837 146.935 21.6984 147.052 21.5854C147.17 21.4725 147.26 21.333 147.322 21.167L148.301 21.3434C148.222 21.6315 148.082 21.8839 147.879 22.1006C147.678 22.315 147.426 22.4821 147.122 22.602C146.82 22.7196 146.475 22.7783 146.088 22.7783ZM153.493 18.6567L152.556 18.8227C152.517 18.7028 152.455 18.5887 152.369 18.4804C152.287 18.372 152.174 18.2833 152.031 18.2141C151.888 18.145 151.709 18.1104 151.495 18.1104C151.202 18.1104 150.958 18.1761 150.762 18.3075C150.566 18.4366 150.468 18.6037 150.468 18.8088C150.468 18.9863 150.533 19.1293 150.665 19.2376C150.796 19.3459 151.008 19.4347 151.301 19.5039L152.145 19.6975C152.633 19.8104 152.998 19.9845 153.237 20.2196C153.477 20.4547 153.597 20.7602 153.597 21.1359C153.597 21.454 153.505 21.7376 153.32 21.9865C153.138 22.2332 152.884 22.4268 152.556 22.5674C152.231 22.708 151.854 22.7783 151.426 22.7783C150.831 22.7783 150.346 22.6515 149.97 22.398C149.594 22.1421 149.364 21.779 149.278 21.3088L150.278 21.1567C150.34 21.4171 150.468 21.6142 150.661 21.7479C150.855 21.8793 151.107 21.945 151.419 21.945C151.757 21.945 152.028 21.8747 152.231 21.7341C152.434 21.5912 152.535 21.4171 152.535 21.212C152.535 21.046 152.473 20.9065 152.349 20.7936C152.227 20.6806 152.039 20.5953 151.785 20.5377L150.886 20.3406C150.391 20.2277 150.024 20.0479 149.787 19.8012C149.551 19.5546 149.434 19.2422 149.434 18.8642C149.434 18.5507 149.521 18.2764 149.697 18.0412C149.872 17.8061 150.114 17.6228 150.423 17.4914C150.732 17.3577 151.086 17.2909 151.484 17.2909C152.058 17.2909 152.51 17.4154 152.84 17.6643C153.169 17.911 153.387 18.2418 153.493 18.6567ZM157.023 22.7783C156.499 22.7783 156.049 22.6665 155.671 22.4429C155.295 22.217 155.005 21.9001 154.799 21.4921C154.597 21.0817 154.495 20.6011 154.495 20.0502C154.495 19.5062 154.597 19.0267 154.799 18.6118C155.005 18.1968 155.29 17.8729 155.657 17.6401C156.026 17.4073 156.457 17.2909 156.95 17.2909C157.25 17.2909 157.54 17.3405 157.821 17.4396C158.103 17.5387 158.355 17.6943 158.579 17.9064C158.802 18.1184 158.979 18.3939 159.108 18.7328C159.237 19.0693 159.301 19.4785 159.301 19.9603V20.3268H155.079V19.5523H158.288C158.288 19.2802 158.233 19.0394 158.122 18.8296C158.012 18.6175 157.856 18.4504 157.656 18.3282C157.457 18.206 157.224 18.145 156.957 18.145C156.667 18.145 156.413 18.2164 156.196 18.3593C155.982 18.5 155.816 18.6844 155.698 18.9126C155.583 19.1385 155.526 19.384 155.526 19.6491V20.2542C155.526 20.6092 155.588 20.9112 155.712 21.1601C155.839 21.4091 156.015 21.5992 156.241 21.7306C156.467 21.8597 156.731 21.9243 157.033 21.9243C157.229 21.9243 157.408 21.8966 157.569 21.8413C157.73 21.7837 157.87 21.6984 157.987 21.5854C158.105 21.4725 158.195 21.333 158.257 21.167L159.236 21.3434C159.157 21.6315 159.017 21.8839 158.814 22.1006C158.613 22.315 158.361 22.4821 158.057 22.602C157.755 22.7196 157.41 22.7783 157.023 22.7783ZM160.449 22.6711V17.36H161.448V18.2037H161.503C161.6 17.9179 161.771 17.6931 162.015 17.5295C162.262 17.3635 162.54 17.2805 162.852 17.2805C162.916 17.2805 162.992 17.2828 163.08 17.2874C163.17 17.292 163.24 17.2978 163.291 17.3047V18.2936C163.249 18.2821 163.176 18.2694 163.069 18.2556C162.963 18.2395 162.857 18.2314 162.751 18.2314C162.507 18.2314 162.289 18.2833 162.098 18.387C161.909 18.4884 161.759 18.6302 161.648 18.8123C161.538 18.9921 161.482 19.1973 161.482 19.4278V22.6711H160.449ZM168.891 17.36L166.965 22.6711H165.858L163.929 17.36H165.039L166.384 21.4471H166.439L167.781 17.36H168.891ZM171.256 22.7887C170.919 22.7887 170.615 22.7265 170.343 22.602C170.071 22.4752 169.855 22.2919 169.696 22.0522C169.539 21.8125 169.461 21.5186 169.461 21.1705C169.461 20.8708 169.519 20.6242 169.634 20.4305C169.749 20.2369 169.905 20.0836 170.101 19.9706C170.297 19.8577 170.516 19.7724 170.758 19.7148C171 19.6571 171.246 19.6133 171.498 19.5834C171.816 19.5465 172.074 19.5165 172.272 19.4935C172.47 19.4681 172.615 19.4278 172.704 19.3725C172.794 19.3171 172.839 19.2272 172.839 19.1028V19.0785C172.839 18.7766 172.754 18.5426 172.583 18.3766C172.415 18.2107 172.164 18.1277 171.83 18.1277C171.482 18.1277 171.207 18.2049 171.007 18.3593C170.808 18.5115 170.671 18.6809 170.595 18.8676L169.624 18.6463C169.739 18.3236 169.907 18.0631 170.128 17.8649C170.352 17.6643 170.609 17.5191 170.9 17.4292C171.19 17.337 171.495 17.2909 171.816 17.2909C172.028 17.2909 172.253 17.3163 172.49 17.367C172.73 17.4154 172.953 17.5053 173.161 17.6367C173.371 17.7681 173.542 17.9559 173.676 18.2003C173.81 18.4423 173.877 18.757 173.877 19.1442V22.6711H172.867V21.945H172.825C172.759 22.0787 172.658 22.2101 172.525 22.3392C172.391 22.4683 172.219 22.5755 172.009 22.6608C171.8 22.7461 171.548 22.7887 171.256 22.7887ZM171.48 21.9588C171.766 21.9588 172.011 21.9024 172.213 21.7894C172.419 21.6765 172.574 21.5289 172.68 21.3468C172.789 21.1624 172.843 20.9653 172.843 20.7556V20.0709C172.806 20.1078 172.734 20.1424 172.628 20.1747C172.525 20.2046 172.406 20.2311 172.272 20.2542C172.139 20.2749 172.008 20.2945 171.882 20.313C171.755 20.3291 171.649 20.3429 171.563 20.3545C171.363 20.3798 171.18 20.4225 171.014 20.4824C170.85 20.5423 170.719 20.6288 170.619 20.7417C170.523 20.8524 170.474 20.9999 170.474 21.1843C170.474 21.4402 170.569 21.6338 170.758 21.7652C170.947 21.8943 171.188 21.9588 171.48 21.9588Z" fill="#1F2116"/>
<path d="M21.6985 53.5137V46.4322H26.235V47.5076H22.9813V49.4301H25.9238V50.5054H22.9813V53.5137H21.6985ZM29.3098 53.6174C28.7773 53.6174 28.3174 53.5068 27.9302 53.2855C27.5452 53.0619 27.249 52.7461 27.0415 52.338C26.8341 51.9277 26.7303 51.4448 26.7303 50.8892C26.7303 50.3429 26.8341 49.8634 27.0415 49.4508C27.2513 49.0359 27.5441 48.7132 27.9198 48.4827C28.2955 48.2498 28.737 48.1334 29.2441 48.1334C29.5715 48.1334 29.8803 48.1864 30.1708 48.2925C30.4636 48.3962 30.7217 48.5576 30.9453 48.7766C31.1712 48.9956 31.3487 49.2745 31.4778 49.6133C31.6069 49.9499 31.6715 50.351 31.6715 50.8166V51.2004H27.3182V50.3568H30.4716C30.4693 50.117 30.4175 49.9038 30.316 49.7171C30.2146 49.528 30.0728 49.3794 29.8907 49.271C29.7109 49.1627 29.5011 49.1085 29.2614 49.1085C29.0055 49.1085 28.7808 49.1707 28.5872 49.2952C28.3935 49.4174 28.2425 49.5788 28.1342 49.7793C28.0282 49.9776 27.974 50.1954 27.9717 50.4328V51.1693C27.9717 51.4782 28.0282 51.7433 28.1411 51.9646C28.2541 52.1836 28.412 52.3519 28.6148 52.4694C28.8177 52.5847 29.0551 52.6423 29.3271 52.6423C29.5092 52.6423 29.674 52.617 29.8216 52.5663C29.9691 52.5132 30.097 52.436 30.2054 52.3346C30.3137 52.2332 30.3956 52.1075 30.4509 51.9577L31.6196 52.0891C31.5458 52.398 31.4052 52.6677 31.1977 52.8982C30.9926 53.1264 30.7298 53.3039 30.4094 53.4307C30.089 53.5552 29.7224 53.6174 29.3098 53.6174ZM35.0471 53.6174C34.5169 53.6174 34.0616 53.501 33.6813 53.2682C33.3032 53.0354 33.0116 52.7138 32.8065 52.3035C32.6036 51.8908 32.5022 51.416 32.5022 50.8789C32.5022 50.3395 32.6059 49.8634 32.8134 49.4508C33.0208 49.0359 33.3136 48.7132 33.6916 48.4827C34.072 48.2498 34.5215 48.1334 35.0402 48.1334C35.4712 48.1334 35.8527 48.213 36.1847 48.372C36.5189 48.5288 36.7852 48.7512 36.9834 49.0394C37.1817 49.3252 37.2946 49.6594 37.3223 50.0421H36.1259C36.0775 49.7862 35.9622 49.573 35.7801 49.4024C35.6003 49.2295 35.3594 49.1431 35.0575 49.1431C34.8016 49.1431 34.5768 49.2122 34.3832 49.3505C34.1896 49.4866 34.0386 49.6825 33.9302 49.9384C33.8242 50.1942 33.7712 50.5008 33.7712 50.8581C33.7712 51.22 33.8242 51.5312 33.9302 51.7917C34.0363 52.0499 34.1849 52.2493 34.3763 52.3899C34.5699 52.5282 34.797 52.5974 35.0575 52.5974C35.2419 52.5974 35.4067 52.5628 35.5519 52.4936C35.6994 52.4222 35.8228 52.3196 35.9219 52.1859C36.021 52.0522 36.089 51.8897 36.1259 51.6984H37.3223C37.2923 52.0741 37.1817 52.4072 36.9903 52.6976C36.799 52.9858 36.5385 53.2117 36.2089 53.3754C35.8792 53.5367 35.492 53.6174 35.0471 53.6174ZM39.6018 50.4017V53.5137H38.3501V46.4322H39.5741V49.105H39.6364C39.7608 48.8054 39.9533 48.5691 40.2138 48.3962C40.4766 48.221 40.8108 48.1334 41.2166 48.1334C41.5854 48.1334 41.907 48.2106 42.1813 48.3651C42.4556 48.5195 42.6677 48.7454 42.8175 49.0428C42.9696 49.3402 43.0457 49.7032 43.0457 50.132V53.5137H41.794V50.3256C41.794 49.9683 41.7018 49.6906 41.5174 49.4923C41.3353 49.2918 41.0794 49.1915 40.7498 49.1915C40.5285 49.1915 40.3302 49.2399 40.155 49.3367C39.9821 49.4312 39.8461 49.5684 39.747 49.7482C39.6502 49.928 39.6018 50.1458 39.6018 50.4017ZM45.8499 53.6209C45.5134 53.6209 45.2102 53.5609 44.9405 53.4411C44.6731 53.3189 44.4611 53.1391 44.3043 52.9017C44.1499 52.6642 44.0727 52.3715 44.0727 52.0234C44.0727 51.7237 44.128 51.4759 44.2386 51.28C44.3493 51.084 44.5003 50.9273 44.6916 50.8097C44.8829 50.6922 45.0984 50.6034 45.3382 50.5435C45.5802 50.4812 45.8303 50.4363 46.0885 50.4086C46.3997 50.3763 46.6521 50.3475 46.8458 50.3222C47.0394 50.2945 47.18 50.253 47.2676 50.1977C47.3575 50.1401 47.4025 50.0513 47.4025 49.9315V49.9107C47.4025 49.6502 47.3252 49.4485 47.1708 49.3056C47.0163 49.1627 46.7939 49.0912 46.5034 49.0912C46.1969 49.0912 45.9537 49.1581 45.7739 49.2918C45.5964 49.4255 45.4765 49.5834 45.4143 49.7655L44.2455 49.5995C44.3377 49.2768 44.4899 49.0071 44.702 48.7904C44.914 48.5714 45.1734 48.4077 45.48 48.2994C45.7865 48.1887 46.1254 48.1334 46.4965 48.1334C46.7524 48.1334 47.0071 48.1634 47.2607 48.2233C47.5143 48.2833 47.7459 48.3824 47.9557 48.5207C48.1655 48.6567 48.3337 48.8423 48.4605 49.0774C48.5896 49.3125 48.6542 49.6064 48.6542 49.9591V53.5137H47.4509V52.7841H47.4094C47.3333 52.9316 47.2261 53.0699 47.0878 53.199C46.9518 53.3258 46.7801 53.4284 46.5726 53.5068C46.3674 53.5828 46.1266 53.6209 45.8499 53.6209ZM46.175 52.7011C46.4262 52.7011 46.6441 52.6515 46.8285 52.5524C47.0129 52.451 47.1547 52.3173 47.2538 52.1513C47.3552 51.9853 47.4059 51.8044 47.4059 51.6085V50.9826C47.3667 51.0149 47.2999 51.0448 47.2054 51.0725C47.1132 51.1002 47.0094 51.1244 46.8942 51.1451C46.7789 51.1659 46.6648 51.1843 46.5519 51.2004C46.4389 51.2166 46.3409 51.2304 46.2579 51.2419C46.0712 51.2673 45.9041 51.3088 45.7566 51.3664C45.609 51.424 45.4926 51.5047 45.4073 51.6085C45.322 51.7099 45.2794 51.8413 45.2794 52.0026C45.2794 52.2332 45.3635 52.4072 45.5318 52.5248C45.7001 52.6423 45.9145 52.7011 46.175 52.7011Z" fill="#171621"/>
<rect x="21.5" y="67.7507" width="95.1529" height="56.9939" rx="9.237" fill="#F7F7F7" fill-opacity="0.968627"/>
<rect x="21.5" y="67.7507" width="95.1529" height="56.9939" rx="9.237" stroke="#D6D6D6"/>
<path d="M34.7935 79.4155V80.9369M38.8506 79.4155V80.9369M32.5114 83.0111H41.1327M41.3863 82.7119V87.0226C41.3863 88.544 40.6255 89.5582 38.8506 89.5582H34.7935C33.0185 89.5582 32.2578 88.544 32.2578 87.0226V82.7119C32.2578 81.1905 33.0185 80.1762 34.7935 80.1762H38.8506C40.6255 80.1762 41.3863 81.1905 41.3863 82.7119Z" stroke="#262626" stroke-width="0.760703" stroke-miterlimit="10" stroke-linecap="round" stroke-linejoin="round"/>
<path d="M38.6967 85.3489H38.7012M38.6967 86.8703H38.7012M36.8203 85.3489H36.8253M36.8203 86.8703H36.8253M34.9434 85.3489H34.9484M34.9434 86.8703H34.9484" stroke="#262626" stroke-width="1.01427" stroke-linecap="round" stroke-linejoin="round"/>
<path d="M55.6538 83.2092H54.5749C54.5334 82.9787 54.4562 82.7758 54.3433 82.6006C54.2303 82.4254 54.092 82.2768 53.9283 82.1546C53.7647 82.0324 53.5814 81.9402 53.3786 81.878C53.178 81.8157 52.9648 81.7846 52.7389 81.7846C52.3309 81.7846 51.9655 81.8872 51.6428 82.0923C51.3224 82.2975 51.0688 82.5983 50.8821 82.9948C50.6977 83.3913 50.6054 83.8754 50.6054 84.4471C50.6054 85.0234 50.6977 85.5097 50.8821 85.9062C51.0688 86.3027 51.3235 86.6024 51.6462 86.8052C51.969 87.0081 52.332 87.1095 52.7354 87.1095C52.959 87.1095 53.1711 87.0796 53.3716 87.0196C53.5745 86.9574 53.7578 86.8663 53.9214 86.7465C54.0851 86.6266 54.2234 86.4802 54.3364 86.3073C54.4516 86.1321 54.5311 85.9316 54.5749 85.7057L55.6538 85.7091C55.5961 86.0572 55.4843 86.3776 55.3184 86.6704C55.1547 86.9608 54.9438 87.2121 54.6856 87.4242C54.4297 87.634 54.137 87.7965 53.8073 87.9117C53.4777 88.027 53.1181 88.0846 52.7285 88.0846C52.1153 88.0846 51.569 87.9394 51.0895 87.6489C50.6101 87.3562 50.232 86.9378 49.9554 86.3938C49.6811 85.8498 49.5439 85.2009 49.5439 84.4471C49.5439 83.691 49.6822 83.0421 49.9589 82.5004C50.2355 81.9563 50.6135 81.5391 51.093 81.2487C51.5725 80.9559 52.1176 80.8095 52.7285 80.8095C53.1042 80.8095 53.4546 80.8637 53.7797 80.972C54.107 81.0781 54.4009 81.2348 54.6614 81.4423C54.9219 81.6474 55.1374 81.8987 55.308 82.1961C55.4786 82.4911 55.5938 82.8288 55.6538 83.2092ZM57.8831 84.8343V87.9878H56.8493V80.9063H57.8693V83.5411H57.935C58.0595 83.2553 58.2497 83.0282 58.5055 82.86C58.7614 82.6917 59.0956 82.6075 59.5083 82.6075C59.8725 82.6075 60.1906 82.6825 60.4626 82.8323C60.7369 82.9821 60.949 83.2057 61.0988 83.5031C61.251 83.7982 61.327 84.167 61.327 84.6096V87.9878H60.2932V84.7341C60.2932 84.3445 60.1929 84.0425 59.9924 83.8281C59.7918 83.6114 59.5129 83.5031 59.1556 83.5031C58.9112 83.5031 58.6922 83.555 58.4986 83.6587C58.3073 83.7624 58.1563 83.9146 58.0456 84.1151C57.9373 84.3134 57.8831 84.5531 57.8831 84.8343ZM64.9957 88.095C64.4724 88.095 64.0218 87.9832 63.6437 87.7596C63.268 87.5337 62.9775 87.2167 62.7724 86.8087C62.5695 86.3984 62.4681 85.9178 62.4681 85.3668C62.4681 84.8228 62.5695 84.3433 62.7724 83.9284C62.9775 83.5135 63.2634 83.1896 63.6299 82.9568C63.9987 82.724 64.4298 82.6075 64.9231 82.6075C65.2228 82.6075 65.5132 82.6571 65.7944 82.7562C66.0757 82.8554 66.3281 83.0109 66.5517 83.223C66.7753 83.4351 66.9516 83.7106 67.0807 84.0494C67.2098 84.386 67.2744 84.7951 67.2744 85.2769V85.6434H63.0525V84.8689H66.2612C66.2612 84.5969 66.2059 84.356 66.0953 84.1462C65.9846 83.9342 65.829 83.767 65.6285 83.6449C65.4302 83.5227 65.1974 83.4616 64.93 83.4616C64.6396 83.4616 64.386 83.5331 64.1693 83.676C63.9549 83.8166 63.789 84.001 63.6714 84.2292C63.5561 84.4551 63.4985 84.7006 63.4985 84.9657V85.5708C63.4985 85.9258 63.5607 86.2278 63.6852 86.4768C63.812 86.7257 63.9884 86.9159 64.2143 87.0473C64.4402 87.1764 64.7041 87.2409 65.0061 87.2409C65.202 87.2409 65.3807 87.2133 65.542 87.1579C65.7034 87.1003 65.8429 87.015 65.9604 86.9021C66.078 86.7891 66.1679 86.6496 66.2301 86.4837L67.2087 86.66C67.1303 86.9482 66.9897 87.2006 66.7868 87.4173C66.5863 87.6316 66.3339 87.7988 66.0296 87.9186C65.7276 88.0362 65.383 88.095 64.9957 88.095ZM70.6586 88.095C70.1446 88.095 69.702 87.9786 69.3309 87.7458C68.962 87.5106 68.6785 87.1867 68.4802 86.7741C68.282 86.3615 68.1829 85.8889 68.1829 85.3565C68.1829 84.817 68.2843 84.341 68.4872 83.9284C68.69 83.5135 68.9759 83.1896 69.3447 82.9568C69.7135 82.724 70.148 82.6075 70.6483 82.6075C71.0517 82.6075 71.4113 82.6825 71.7271 82.8323C72.0429 82.9798 72.2976 83.1873 72.4912 83.4547C72.6872 83.7221 72.8036 84.0344 72.8405 84.3917H71.8343C71.7789 84.1428 71.6522 83.9284 71.4539 83.7486C71.258 83.5688 70.9952 83.4789 70.6655 83.4789C70.3774 83.4789 70.125 83.555 69.9083 83.7071C69.6939 83.8569 69.5268 84.0713 69.4069 84.3502C69.2871 84.6269 69.2271 84.9542 69.2271 85.3322C69.2271 85.7195 69.2859 86.0538 69.4035 86.335C69.521 86.6162 69.687 86.8341 69.9014 86.9885C70.1181 87.143 70.3728 87.2202 70.6655 87.2202C70.8615 87.2202 71.039 87.1844 71.198 87.113C71.3594 87.0392 71.4942 86.9343 71.6026 86.7983C71.7132 86.6623 71.7905 86.4987 71.8343 86.3073H72.8405C72.8036 86.6508 72.6918 86.9574 72.5051 87.2271C72.3183 87.4968 72.0682 87.7089 71.7547 87.8633C71.4435 88.0178 71.0782 88.095 70.6586 88.095ZM74.897 86.1863L74.89 84.9242H75.0698L77.186 82.6767H78.4239L76.0103 85.2354H75.8478L74.897 86.1863ZM73.9461 87.9878V80.9063H74.9799V87.9878H73.9461ZM77.3001 87.9878L75.3983 85.4636L76.1106 84.741L78.5691 87.9878H77.3001ZM85.0722 83.9976V84.8966H81.9326V83.9976H85.0722ZM90.1784 80.9063V87.9878H89.11V80.9063H90.1784ZM92.6853 84.8343V87.9878H91.6514V82.6767H92.6438V83.5411H92.7095C92.8317 83.2599 93.023 83.034 93.2835 82.8634C93.5463 82.6928 93.8771 82.6075 94.2759 82.6075C94.6378 82.6075 94.9547 82.6836 95.2268 82.8358C95.4988 82.9856 95.7097 83.2092 95.8595 83.5066C96.0094 83.8039 96.0843 84.1716 96.0843 84.6096V87.9878H95.0504V84.7341C95.0504 84.3491 94.9501 84.0483 94.7496 83.8316C94.549 83.6126 94.2736 83.5031 93.9232 83.5031C93.6834 83.5031 93.4702 83.555 93.2835 83.6587C93.0991 83.7624 92.9527 83.9146 92.8444 84.1151C92.7383 84.3134 92.6853 84.5531 92.6853 84.8343Z" fill="#262626"/>
<path d="M37.2092 104.426V111.508H36.3794L32.5205 105.948H32.4514V111.508H31.5938V104.426H32.4237L36.2964 110H36.3655V104.426H37.2092ZM40.9721 111.618C40.4926 111.618 40.0719 111.504 39.71 111.276C39.3504 111.048 39.0692 110.728 38.8663 110.318C38.6658 109.908 38.5655 109.428 38.5655 108.88C38.5655 108.326 38.6658 107.844 38.8663 107.431C39.0692 107.018 39.3504 106.698 39.71 106.47C40.0719 106.241 40.4926 106.127 40.9721 106.127C41.4516 106.127 41.8711 106.241 42.2307 106.47C42.5926 106.698 42.8739 107.018 43.0744 107.431C43.2773 107.844 43.3787 108.326 43.3787 108.88C43.3787 109.428 43.2773 109.908 43.0744 110.318C42.8739 110.728 42.5926 111.048 42.2307 111.276C41.8711 111.504 41.4516 111.618 40.9721 111.618ZM40.9721 110.885C41.3363 110.885 41.636 110.792 41.8711 110.605C42.1063 110.418 42.2803 110.173 42.3932 109.869C42.5062 109.564 42.5627 109.235 42.5627 108.88C42.5627 108.525 42.5062 108.194 42.3932 107.887C42.2803 107.581 42.1063 107.333 41.8711 107.144C41.636 106.955 41.3363 106.86 40.9721 106.86C40.6079 106.86 40.3082 106.955 40.0731 107.144C39.838 107.333 39.6639 107.581 39.551 107.887C39.438 108.194 39.3815 108.525 39.3815 108.88C39.3815 109.235 39.438 109.564 39.551 109.869C39.6639 110.173 39.838 110.418 40.0731 110.605C40.3082 110.792 40.6079 110.885 40.9721 110.885ZM48.7771 106.196L46.8131 111.508H45.9832L44.0192 106.196H44.9044L46.3705 110.429H46.4258L47.8919 106.196H48.7771ZM55.0685 104.426V111.508H54.2109V105.325H54.1694L52.4406 106.473V105.602L54.2109 104.426H55.0685ZM57.1051 111.508V110.885L59.4425 108.326C59.7168 108.027 59.9427 107.766 60.1202 107.545C60.2977 107.321 60.4291 107.112 60.5144 106.916C60.602 106.717 60.6458 106.51 60.6458 106.293C60.6458 106.044 60.5859 105.829 60.466 105.647C60.3484 105.465 60.1871 105.324 59.9819 105.225C59.7768 105.126 59.5462 105.076 59.2904 105.076C59.0184 105.076 58.7809 105.133 58.5781 105.246C58.3775 105.356 58.2219 105.512 58.1113 105.712C58.0029 105.913 57.9488 106.148 57.9488 106.418H57.1327C57.1327 106.003 57.2284 105.639 57.4197 105.325C57.6111 105.012 57.8715 104.767 58.2012 104.592C58.5331 104.417 58.9054 104.329 59.318 104.329C59.733 104.329 60.1006 104.417 60.421 104.592C60.7415 104.767 60.9927 105.004 61.1748 105.301C61.3569 105.598 61.448 105.929 61.448 106.293C61.448 106.554 61.4007 106.808 61.3062 107.057C61.214 107.304 61.0527 107.58 60.8221 107.884C60.5939 108.186 60.277 108.555 59.8713 108.99L58.2807 110.692V110.747H61.5725V111.508H57.1051ZM64.2315 110.539L64.1762 110.913C64.137 111.176 64.077 111.457 63.9964 111.757C63.918 112.056 63.8361 112.339 63.7509 112.604C63.6656 112.869 63.5953 113.08 63.5399 113.236H62.9175C62.9475 113.089 62.9867 112.894 63.0351 112.652C63.0835 112.41 63.1319 112.139 63.1803 111.84C63.231 111.542 63.2725 111.238 63.3048 110.927L63.3463 110.539H64.2315ZM68.4681 111.508V110.885L70.8055 108.326C71.0798 108.027 71.3057 107.766 71.4832 107.545C71.6607 107.321 71.7921 107.112 71.8774 106.916C71.965 106.717 72.0088 106.51 72.0088 106.293C72.0088 106.044 71.9489 105.829 71.829 105.647C71.7114 105.465 71.5501 105.324 71.3449 105.225C71.1398 105.126 70.9092 105.076 70.6534 105.076C70.3814 105.076 70.1439 105.133 69.9411 105.246C69.7405 105.356 69.5849 105.512 69.4743 105.712C69.3659 105.913 69.3118 106.148 69.3118 106.418H68.4957C68.4957 106.003 68.5914 105.639 68.7827 105.325C68.9741 105.012 69.2345 104.767 69.5642 104.592C69.8961 104.417 70.2684 104.329 70.681 104.329C71.096 104.329 71.4636 104.417 71.7841 104.592C72.1045 104.767 72.3557 105.004 72.5378 105.301C72.72 105.598 72.811 105.929 72.811 106.293C72.811 106.554 72.7637 106.808 72.6692 107.057C72.577 107.304 72.4157 107.58 72.1852 107.884C71.9569 108.186 71.64 108.555 71.2343 108.99L69.6437 110.692V110.747H72.9355V111.508H68.4681ZM76.6733 111.604C76.1523 111.604 75.7086 111.463 75.3421 111.179C74.9756 110.893 74.6955 110.479 74.5018 109.938C74.3082 109.394 74.2114 108.737 74.2114 107.967C74.2114 107.202 74.3082 106.548 74.5018 106.006C74.6978 105.462 74.979 105.047 75.3455 104.762C75.7144 104.473 76.1569 104.329 76.6733 104.329C77.1897 104.329 77.6311 104.473 77.9976 104.762C78.3664 105.047 78.6477 105.462 78.8413 106.006C79.0372 106.548 79.1352 107.202 79.1352 107.967C79.1352 108.737 79.0384 109.394 78.8448 109.938C78.6511 110.479 78.3711 110.893 78.0045 111.179C77.638 111.463 77.1943 111.604 76.6733 111.604ZM76.6733 110.844C77.1897 110.844 77.5908 110.595 77.8766 110.097C78.1624 109.599 78.3054 108.889 78.3054 107.967C78.3054 107.354 78.2397 106.832 78.1083 106.4C77.9792 105.969 77.7925 105.641 77.5481 105.415C77.3061 105.189 77.0145 105.076 76.6733 105.076C76.1616 105.076 75.7616 105.329 75.4735 105.833C75.1853 106.336 75.0412 107.047 75.0412 107.967C75.0412 108.58 75.1058 109.101 75.2349 109.53C75.364 109.958 75.5495 110.285 75.7916 110.508C76.0359 110.732 76.3298 110.844 76.6733 110.844ZM80.4492 111.508V110.885L82.7866 108.326C83.0609 108.027 83.2868 107.766 83.4643 107.545C83.6418 107.321 83.7732 107.112 83.8585 106.916C83.9461 106.717 83.9899 106.51 83.9899 106.293C83.9899 106.044 83.93 105.829 83.8101 105.647C83.6925 105.465 83.5312 105.324 83.326 105.225C83.1208 105.126 82.8903 105.076 82.6345 105.076C82.3624 105.076 82.125 105.133 81.9222 105.246C81.7216 105.356 81.566 105.512 81.4554 105.712C81.347 105.913 81.2928 106.148 81.2928 106.418H80.4768C80.4768 106.003 80.5725 105.639 80.7638 105.325C80.9551 105.012 81.2156 104.767 81.5453 104.592C81.8772 104.417 82.2495 104.329 82.6621 104.329C83.077 104.329 83.4447 104.417 83.7651 104.592C84.0856 104.767 84.3368 105.004 84.5189 105.301C84.701 105.598 84.7921 105.929 84.7921 106.293C84.7921 106.554 84.7448 106.808 84.6503 107.057C84.5581 107.304 84.3967 107.58 84.1662 107.884C83.938 108.186 83.6211 108.555 83.2154 108.99L81.6248 110.692V110.747H84.9166V111.508H80.4492ZM88.7374 111.604C88.2809 111.604 87.8741 111.526 87.5168 111.369C87.1618 111.213 86.8794 110.995 86.6696 110.716C86.4622 110.435 86.3492 110.108 86.3308 109.737H87.2021C87.2206 109.965 87.2989 110.163 87.4373 110.328C87.5756 110.492 87.7565 110.619 87.9801 110.709C88.2037 110.799 88.4515 110.844 88.7235 110.844C89.0278 110.844 89.2975 110.791 89.5326 110.685C89.7678 110.579 89.9522 110.431 90.0859 110.242C90.2196 110.053 90.2864 109.834 90.2864 109.585C90.2864 109.325 90.2219 109.095 90.0928 108.897C89.9637 108.696 89.7747 108.54 89.5257 108.427C89.2768 108.314 88.9725 108.257 88.6129 108.257H88.0458V107.497H88.6129C88.8941 107.497 89.1408 107.446 89.3528 107.344C89.5672 107.243 89.7344 107.1 89.8542 106.916C89.9764 106.731 90.0375 106.515 90.0375 106.266C90.0375 106.026 89.9845 105.817 89.8784 105.64C89.7724 105.462 89.6225 105.324 89.4289 105.225C89.2376 105.126 89.0117 105.076 88.7512 105.076C88.5069 105.076 88.2763 105.121 88.0597 105.211C87.8453 105.299 87.6701 105.427 87.5341 105.595C87.3981 105.761 87.3243 105.961 87.3128 106.196H86.4829C86.4968 105.825 86.6086 105.5 86.8183 105.221C87.0281 104.94 87.3024 104.721 87.6413 104.564C87.9824 104.408 88.357 104.329 88.765 104.329C89.203 104.329 89.5788 104.418 89.8923 104.596C90.2058 104.771 90.4466 105.002 90.6149 105.291C90.7832 105.579 90.8673 105.89 90.8673 106.224C90.8673 106.623 90.7625 106.963 90.5527 107.244C90.3452 107.525 90.0628 107.72 89.7055 107.829V107.884C90.1527 107.958 90.502 108.148 90.7532 108.454C91.0045 108.759 91.1301 109.136 91.1301 109.585C91.1301 109.97 91.0252 110.316 90.8155 110.622C90.608 110.927 90.3245 111.166 89.9649 111.342C89.6053 111.517 89.1961 111.604 88.7374 111.604Z" fill="#737373"/>
<rect x="124.348" y="67.7507" width="95.1529" height="56.9939" rx="9.237" fill="#F7F7F7" fill-opacity="0.968627"/>
<rect x="124.348" y="67.7507" width="95.1529" height="56.9939" rx="9.237" stroke="#D6D6D6"/>
<path d="M137.641 79.4155V80.9369M141.698 79.4155V80.9369M135.359 83.0111H143.98M144.234 82.7119V87.0226C144.234 88.544 143.473 89.5582 141.698 89.5582H137.641C135.866 89.5582 135.105 88.544 135.105 87.0226V82.7119C135.105 81.1905 135.866 80.1762 137.641 80.1762H141.698C143.473 80.1762 144.234 81.1905 144.234 82.7119Z" stroke="#262626" stroke-width="0.760703" stroke-miterlimit="10" stroke-linecap="round" stroke-linejoin="round"/>
<path d="M141.544 85.3489H141.549M141.544 86.8703H141.549M139.668 85.3489H139.673M139.668 86.8703H139.673M137.791 85.3489H137.796M137.791 86.8703H137.796" stroke="#262626" stroke-width="1.01427" stroke-linecap="round" stroke-linejoin="round"/>
<path d="M158.501 83.2092H157.423C157.381 82.9787 157.304 82.7758 157.191 82.6006C157.078 82.4254 156.94 82.2768 156.776 82.1546C156.612 82.0324 156.429 81.9402 156.226 81.878C156.026 81.8157 155.812 81.7846 155.587 81.7846C155.179 81.7846 154.813 81.8872 154.49 82.0923C154.17 82.2975 153.916 82.5983 153.73 82.9948C153.545 83.3913 153.453 83.8754 153.453 84.4471C153.453 85.0234 153.545 85.5097 153.73 85.9062C153.916 86.3027 154.171 86.6024 154.494 86.8052C154.817 87.0081 155.18 87.1095 155.583 87.1095C155.807 87.1095 156.019 87.0796 156.219 87.0196C156.422 86.9574 156.605 86.8663 156.769 86.7465C156.933 86.6266 157.071 86.4802 157.184 86.3073C157.299 86.1321 157.379 85.9316 157.423 85.7057L158.501 85.7091C158.444 86.0572 158.332 86.3776 158.166 86.6704C158.002 86.9608 157.791 87.2121 157.533 87.4242C157.277 87.634 156.985 87.7965 156.655 87.9117C156.325 88.027 155.966 88.0846 155.576 88.0846C154.963 88.0846 154.417 87.9394 153.937 87.6489C153.458 87.3562 153.08 86.9378 152.803 86.3938C152.529 85.8498 152.392 85.2009 152.392 84.4471C152.392 83.691 152.53 83.0421 152.807 82.5004C153.083 81.9563 153.461 81.5391 153.941 81.2487C154.42 80.9559 154.965 80.8095 155.576 80.8095C155.952 80.8095 156.302 80.8637 156.627 80.972C156.955 81.0781 157.249 81.2348 157.509 81.4423C157.77 81.6474 157.985 81.8987 158.156 82.1961C158.326 82.4911 158.441 82.8288 158.501 83.2092ZM160.731 84.8343V87.9878H159.697V80.9063H160.717V83.5411H160.783C160.907 83.2553 161.097 83.0282 161.353 82.86C161.609 82.6917 161.943 82.6075 162.356 82.6075C162.72 82.6075 163.038 82.6825 163.31 82.8323C163.585 82.9821 163.797 83.2057 163.946 83.5031C164.099 83.7982 164.175 84.167 164.175 84.6096V87.9878H163.141V84.7341C163.141 84.3445 163.041 84.0425 162.84 83.8281C162.639 83.6114 162.361 83.5031 162.003 83.5031C161.759 83.5031 161.54 83.555 161.346 83.6587C161.155 83.7624 161.004 83.9146 160.893 84.1151C160.785 84.3134 160.731 84.5531 160.731 84.8343ZM167.843 88.095C167.32 88.095 166.869 87.9832 166.491 87.7596C166.116 87.5337 165.825 87.2167 165.62 86.8087C165.417 86.3984 165.316 85.9178 165.316 85.3668C165.316 84.8228 165.417 84.3433 165.62 83.9284C165.825 83.5135 166.111 83.1896 166.478 82.9568C166.846 82.724 167.277 82.6075 167.771 82.6075C168.07 82.6075 168.361 82.6571 168.642 82.7562C168.923 82.8554 169.176 83.0109 169.399 83.223C169.623 83.4351 169.799 83.7106 169.928 84.0494C170.057 84.386 170.122 84.7951 170.122 85.2769V85.6434H165.9V84.8689H169.109C169.109 84.5969 169.054 84.356 168.943 84.1462C168.832 83.9342 168.677 83.767 168.476 83.6449C168.278 83.5227 168.045 83.4616 167.778 83.4616C167.487 83.4616 167.234 83.5331 167.017 83.676C166.803 83.8166 166.637 84.001 166.519 84.2292C166.404 84.4551 166.346 84.7006 166.346 84.9657V85.5708C166.346 85.9258 166.408 86.2278 166.533 86.4768C166.66 86.7257 166.836 86.9159 167.062 87.0473C167.288 87.1764 167.552 87.2409 167.854 87.2409C168.05 87.2409 168.228 87.2133 168.39 87.1579C168.551 87.1003 168.691 87.015 168.808 86.9021C168.926 86.7891 169.016 86.6496 169.078 86.4837L170.056 86.66C169.978 86.9482 169.837 87.2006 169.634 87.4173C169.434 87.6316 169.182 87.7988 168.877 87.9186C168.575 88.0362 168.231 88.095 167.843 88.095ZM173.506 88.095C172.992 88.095 172.55 87.9786 172.179 87.7458C171.81 87.5106 171.526 87.1867 171.328 86.7741C171.13 86.3615 171.031 85.8889 171.031 85.3565C171.031 84.817 171.132 84.341 171.335 83.9284C171.538 83.5135 171.824 83.1896 172.192 82.9568C172.561 82.724 172.996 82.6075 173.496 82.6075C173.899 82.6075 174.259 82.6825 174.575 82.8323C174.891 82.9798 175.145 83.1873 175.339 83.4547C175.535 83.7221 175.651 84.0344 175.688 84.3917H174.682C174.627 84.1428 174.5 83.9284 174.302 83.7486C174.106 83.5688 173.843 83.4789 173.513 83.4789C173.225 83.4789 172.973 83.555 172.756 83.7071C172.542 83.8569 172.374 84.0713 172.255 84.3502C172.135 84.6269 172.075 84.9542 172.075 85.3322C172.075 85.7195 172.134 86.0538 172.251 86.335C172.369 86.6162 172.535 86.8341 172.749 86.9885C172.966 87.143 173.22 87.2202 173.513 87.2202C173.709 87.2202 173.887 87.1844 174.046 87.113C174.207 87.0392 174.342 86.9343 174.45 86.7983C174.561 86.6623 174.638 86.4987 174.682 86.3073H175.688C175.651 86.6508 175.539 86.9574 175.353 87.2271C175.166 87.4968 174.916 87.7089 174.602 87.8633C174.291 88.0178 173.926 88.095 173.506 88.095ZM177.745 86.1863L177.738 84.9242H177.917L180.034 82.6767H181.272L178.858 85.2354H178.695L177.745 86.1863ZM176.794 87.9878V80.9063H177.828V87.9878H176.794ZM180.148 87.9878L178.246 85.4636L178.958 84.741L181.417 87.9878H180.148ZM187.92 83.9976V84.8966H184.78V83.9976H187.92ZM198.109 84.4471C198.109 85.2032 197.971 85.8532 197.694 86.3972C197.417 86.9389 197.038 87.3562 196.556 87.6489C196.077 87.9394 195.532 88.0846 194.921 88.0846C194.308 88.0846 193.76 87.9394 193.279 87.6489C192.799 87.3562 192.421 86.9378 192.144 86.3938C191.868 85.8498 191.729 85.2009 191.729 84.4471C191.729 83.691 191.868 83.0421 192.144 82.5004C192.421 81.9563 192.799 81.5391 193.279 81.2487C193.76 80.9559 194.308 80.8095 194.921 80.8095C195.532 80.8095 196.077 80.9559 196.556 81.2487C197.038 81.5391 197.417 81.9563 197.694 82.5004C197.971 83.0421 198.109 83.691 198.109 84.4471ZM197.051 84.4471C197.051 83.8708 196.958 83.3855 196.771 82.9914C196.586 82.5949 196.333 82.2952 196.01 82.0923C195.69 81.8872 195.327 81.7846 194.921 81.7846C194.513 81.7846 194.149 81.8872 193.828 82.0923C193.508 82.2952 193.254 82.5949 193.068 82.9914C192.883 83.3855 192.791 83.8708 192.791 84.4471C192.791 85.0234 192.883 85.5097 193.068 85.9062C193.254 86.3004 193.508 86.6001 193.828 86.8052C194.149 87.0081 194.513 87.1095 194.921 87.1095C195.327 87.1095 195.69 87.0081 196.01 86.8052C196.333 86.6001 196.586 86.3004 196.771 85.9062C196.958 85.5097 197.051 85.0234 197.051 84.4471ZM202.722 85.7852V82.6767H203.76V87.9878H202.743V87.068H202.688C202.566 87.3516 202.37 87.5878 202.1 87.7769C201.833 87.9636 201.5 88.0569 201.101 88.0569C200.76 88.0569 200.458 87.982 200.195 87.8322C199.934 87.6801 199.729 87.4553 199.579 87.1579C199.432 86.8606 199.358 86.4929 199.358 86.0549V82.6767H200.392V85.9304C200.392 86.2923 200.492 86.5805 200.693 86.7949C200.893 87.0093 201.154 87.1164 201.474 87.1164C201.668 87.1164 201.86 87.068 202.052 86.9712C202.245 86.8744 202.406 86.728 202.532 86.5321C202.661 86.3361 202.725 86.0872 202.722 85.7852ZM207.628 82.6767V83.5066H204.727V82.6767H207.628ZM205.505 81.4043H206.539V86.4284C206.539 86.6289 206.569 86.7799 206.629 86.8813C206.689 86.9804 206.766 87.0484 206.861 87.0853C206.957 87.1199 207.062 87.1372 207.175 87.1372C207.258 87.1372 207.331 87.1314 207.393 87.1199C207.455 87.1084 207.504 87.0992 207.538 87.0922L207.725 87.9463C207.665 87.9694 207.58 87.9924 207.469 88.0155C207.358 88.0408 207.22 88.0546 207.054 88.0569C206.782 88.0616 206.529 88.0131 206.293 87.9117C206.058 87.8103 205.868 87.6535 205.723 87.4415C205.578 87.2294 205.505 86.9631 205.505 86.6427V81.4043Z" fill="#262626"/>
<path d="M140.057 104.426V111.508H139.227L135.368 105.948H135.299V111.508H134.442V104.426H135.271L139.144 110H139.213V104.426H140.057ZM143.82 111.618C143.34 111.618 142.92 111.504 142.558 111.276C142.198 111.048 141.917 110.728 141.714 110.318C141.513 109.908 141.413 109.428 141.413 108.88C141.413 108.326 141.513 107.844 141.714 107.431C141.917 107.018 142.198 106.698 142.558 106.47C142.92 106.241 143.34 106.127 143.82 106.127C144.299 106.127 144.719 106.241 145.078 106.47C145.44 106.698 145.722 107.018 145.922 107.431C146.125 107.844 146.226 108.326 146.226 108.88C146.226 109.428 146.125 109.908 145.922 110.318C145.722 110.728 145.44 111.048 145.078 111.276C144.719 111.504 144.299 111.618 143.82 111.618ZM143.82 110.885C144.184 110.885 144.484 110.792 144.719 110.605C144.954 110.418 145.128 110.173 145.241 109.869C145.354 109.564 145.41 109.235 145.41 108.88C145.41 108.525 145.354 108.194 145.241 107.887C145.128 107.581 144.954 107.333 144.719 107.144C144.484 106.955 144.184 106.86 143.82 106.86C143.456 106.86 143.156 106.955 142.921 107.144C142.686 107.333 142.512 107.581 142.399 107.887C142.286 108.194 142.229 108.525 142.229 108.88C142.229 109.235 142.286 109.564 142.399 109.869C142.512 110.173 142.686 110.418 142.921 110.605C143.156 110.792 143.456 110.885 143.82 110.885ZM151.625 106.196L149.661 111.508H148.831L146.867 106.196H147.752L149.218 110.429H149.273L150.74 106.196H151.625ZM157.916 104.426V111.508H157.059V105.325H157.017L155.288 106.473V105.602L157.059 104.426H157.916ZM159.787 110.055V109.35L162.899 104.426H163.41V105.519H163.065L160.713 109.239V109.295H164.904V110.055H159.787ZM163.12 111.508V109.841V109.512V104.426H163.936V111.508H163.12ZM167.098 110.539L167.043 110.913C167.004 111.176 166.944 111.457 166.863 111.757C166.785 112.056 166.703 112.339 166.618 112.604C166.532 112.869 166.462 113.08 166.407 113.236H165.784C165.814 113.089 165.853 112.894 165.902 112.652C165.95 112.41 165.999 112.139 166.047 111.84C166.098 111.542 166.139 111.238 166.171 110.927L166.213 110.539H167.098ZM171.335 111.508V110.885L173.672 108.326C173.947 108.027 174.172 107.766 174.35 107.545C174.527 107.321 174.659 107.112 174.744 106.916C174.832 106.717 174.875 106.51 174.875 106.293C174.875 106.044 174.816 105.829 174.696 105.647C174.578 105.465 174.417 105.324 174.212 105.225C174.006 105.126 173.776 105.076 173.52 105.076C173.248 105.076 173.011 105.133 172.808 105.246C172.607 105.356 172.452 105.512 172.341 105.712C172.233 105.913 172.178 106.148 172.178 106.418H171.362C171.362 106.003 171.458 105.639 171.649 105.325C171.841 105.012 172.101 104.767 172.431 104.592C172.763 104.417 173.135 104.329 173.548 104.329C173.963 104.329 174.33 104.417 174.651 104.592C174.971 104.767 175.222 105.004 175.405 105.301C175.587 105.598 175.678 105.929 175.678 106.293C175.678 106.554 175.63 106.808 175.536 107.057C175.444 107.304 175.282 107.58 175.052 107.884C174.824 108.186 174.507 108.555 174.101 108.99L172.51 110.692V110.747H175.802V111.508H171.335ZM179.54 111.604C179.019 111.604 178.575 111.463 178.209 111.179C177.842 110.893 177.562 110.479 177.369 109.938C177.175 109.394 177.078 108.737 177.078 107.967C177.078 107.202 177.175 106.548 177.369 106.006C177.564 105.462 177.846 105.047 178.212 104.762C178.581 104.473 179.024 104.329 179.54 104.329C180.056 104.329 180.498 104.473 180.864 104.762C181.233 105.047 181.514 105.462 181.708 106.006C181.904 106.548 182.002 107.202 182.002 107.967C182.002 108.737 181.905 109.394 181.711 109.938C181.518 110.479 181.238 110.893 180.871 111.179C180.505 111.463 180.061 111.604 179.54 111.604ZM179.54 110.844C180.056 110.844 180.457 110.595 180.743 110.097C181.029 109.599 181.172 108.889 181.172 107.967C181.172 107.354 181.106 106.832 180.975 106.4C180.846 105.969 180.659 105.641 180.415 105.415C180.173 105.189 179.881 105.076 179.54 105.076C179.028 105.076 178.628 105.329 178.34 105.833C178.052 106.336 177.908 107.047 177.908 107.967C177.908 108.58 177.972 109.101 178.102 109.53C178.231 109.958 178.416 110.285 178.658 110.508C178.903 110.732 179.197 110.844 179.54 110.844ZM183.316 111.508V110.885L185.653 108.326C185.928 108.027 186.153 107.766 186.331 107.545C186.508 107.321 186.64 107.112 186.725 106.916C186.813 106.717 186.857 106.51 186.857 106.293C186.857 106.044 186.797 105.829 186.677 105.647C186.559 105.465 186.398 105.324 186.193 105.225C185.988 105.126 185.757 105.076 185.501 105.076C185.229 105.076 184.992 105.133 184.789 105.246C184.588 105.356 184.433 105.512 184.322 105.712C184.214 105.913 184.16 106.148 184.16 106.418H183.343C183.343 106.003 183.439 105.639 183.63 105.325C183.822 105.012 184.082 104.767 184.412 104.592C184.744 104.417 185.116 104.329 185.529 104.329C185.944 104.329 186.311 104.417 186.632 104.592C186.952 104.767 187.203 105.004 187.386 105.301C187.568 105.598 187.659 105.929 187.659 106.293C187.659 106.554 187.612 106.808 187.517 107.057C187.425 107.304 187.263 107.58 187.033 107.884C186.805 108.186 186.488 108.555 186.082 108.99L184.491 110.692V110.747H187.783V111.508H183.316ZM191.604 111.604C191.148 111.604 190.741 111.526 190.383 111.369C190.028 111.213 189.746 110.995 189.536 110.716C189.329 110.435 189.216 110.108 189.197 109.737H190.069C190.087 109.965 190.166 110.163 190.304 110.328C190.442 110.492 190.623 110.619 190.847 110.709C191.07 110.799 191.318 110.844 191.59 110.844C191.894 110.844 192.164 110.791 192.399 110.685C192.634 110.579 192.819 110.431 192.953 110.242C193.086 110.053 193.153 109.834 193.153 109.585C193.153 109.325 193.089 109.095 192.959 108.897C192.83 108.696 192.641 108.54 192.392 108.427C192.143 108.314 191.839 108.257 191.48 108.257H190.912V107.497H191.48C191.761 107.497 192.007 107.446 192.22 107.344C192.434 107.243 192.601 107.1 192.721 106.916C192.843 106.731 192.904 106.515 192.904 106.266C192.904 106.026 192.851 105.817 192.745 105.64C192.639 105.462 192.489 105.324 192.296 105.225C192.104 105.126 191.878 105.076 191.618 105.076C191.374 105.076 191.143 105.121 190.926 105.211C190.712 105.299 190.537 105.427 190.401 105.595C190.265 105.761 190.191 105.961 190.179 106.196H189.35C189.363 105.825 189.475 105.5 189.685 105.221C189.895 104.94 190.169 104.721 190.508 104.564C190.849 104.408 191.224 104.329 191.632 104.329C192.07 104.329 192.445 104.418 192.759 104.596C193.072 104.771 193.313 105.002 193.482 105.291C193.65 105.579 193.734 105.89 193.734 106.224C193.734 106.623 193.629 106.963 193.419 107.244C193.212 107.525 192.93 107.72 192.572 107.829V107.884C193.019 107.958 193.369 108.148 193.62 108.454C193.871 108.759 193.997 109.136 193.997 109.585C193.997 109.97 193.892 110.316 193.682 110.622C193.475 110.927 193.191 111.166 192.832 111.342C192.472 111.517 192.063 111.604 191.604 111.604Z" fill="#737373"/>
</svg>
