<svg width="243" height="132" viewBox="0 0 243 132" fill="none" xmlns="http://www.w3.org/2000/svg">
<g clip-path="url(#clip0_1610_34291)">
<rect y="-0.00012207" width="243" height="132" rx="5" fill="#F4F4F4"/>
<rect width="243" height="490" transform="translate(0 -41.0001)" fill="#FAFAFA"/>
<path d="M7.27365 19.0673V18.4802H10.7715V19.0673H9.36133V22.9999H8.68162V19.0673H7.27365ZM12.4609 23.0683C12.1269 23.0683 11.8393 22.9969 11.598 22.8542C11.3582 22.71 11.1728 22.5077 11.0419 22.2473C10.9124 21.9855 10.8477 21.6787 10.8477 21.3271C10.8477 20.9799 10.9124 20.6739 11.0419 20.409C11.1728 20.1442 11.3552 19.9375 11.5892 19.7889C11.8246 19.6403 12.0997 19.566 12.4145 19.566C12.6058 19.566 12.7912 19.5976 12.9706 19.6609C13.1501 19.7242 13.3112 19.8235 13.4539 19.9588C13.5967 20.0942 13.7092 20.27 13.7916 20.4863C13.874 20.7011 13.9152 20.9622 13.9152 21.2697V21.5036H11.2206V21.0093H13.2686C13.2686 20.8357 13.2333 20.6819 13.1626 20.5481C13.092 20.4127 12.9927 20.306 12.8647 20.2281C12.7382 20.1501 12.5896 20.1111 12.4189 20.1111C12.2336 20.1111 12.0717 20.1567 11.9334 20.2479C11.7966 20.3377 11.6907 20.4554 11.6156 20.601C11.5421 20.7452 11.5053 20.9019 11.5053 21.0711V21.4573C11.5053 21.6839 11.545 21.8766 11.6245 22.0355C11.7054 22.1944 11.8179 22.3158 11.9621 22.3996C12.1063 22.482 12.2747 22.5232 12.4675 22.5232C12.5925 22.5232 12.7066 22.5055 12.8095 22.4702C12.9125 22.4335 13.0015 22.379 13.0766 22.3069C13.1516 22.2348 13.209 22.1458 13.2487 22.0399L13.8732 22.1524C13.8232 22.3364 13.7335 22.4975 13.604 22.6357C13.476 22.7726 13.3149 22.8792 13.1207 22.9557C12.928 23.0308 12.708 23.0683 12.4609 23.0683ZM15.3072 20.9872V22.9999H14.6473V19.6101H15.2807V20.1619H15.3226C15.4006 19.9824 15.5227 19.8382 15.6889 19.7293C15.8567 19.6204 16.0678 19.566 16.3223 19.566C16.5533 19.566 16.7556 19.6146 16.9292 19.7117C17.1028 19.8073 17.2374 19.95 17.333 20.1398C17.4287 20.3296 17.4765 20.5642 17.4765 20.8438V22.9999H16.8166V20.9232C16.8166 20.6775 16.7526 20.4855 16.6246 20.3472C16.4966 20.2075 16.3208 20.1376 16.0972 20.1376C15.9442 20.1376 15.8081 20.1707 15.6889 20.2369C15.5712 20.3031 15.4778 20.4002 15.4087 20.5282C15.341 20.6547 15.3072 20.8077 15.3072 20.9872ZM19.6304 23.0661C19.3567 23.0661 19.1125 22.9962 18.8977 22.8564C18.6844 22.7152 18.5167 22.5144 18.3945 22.254C18.2739 21.9921 18.2136 21.678 18.2136 21.3116C18.2136 20.9453 18.2746 20.6319 18.3967 20.3715C18.5203 20.1111 18.6895 19.9118 18.9043 19.7735C19.1191 19.6352 19.3626 19.566 19.6348 19.566C19.8452 19.566 20.0144 19.6013 20.1424 19.6719C20.2718 19.7411 20.3719 19.822 20.4425 19.9147C20.5146 20.0074 20.5705 20.089 20.6102 20.1597H20.6499V18.4802H21.3098V22.9999H20.6654V22.4724H20.6102C20.5705 22.5445 20.5131 22.6269 20.4381 22.7196C20.3645 22.8123 20.263 22.8932 20.1335 22.9624C20.0041 23.0315 19.8364 23.0661 19.6304 23.0661ZM19.776 22.5033C19.9658 22.5033 20.1262 22.4533 20.2571 22.3533C20.3895 22.2518 20.4896 22.1113 20.5573 21.9318C20.6264 21.7523 20.661 21.5434 20.661 21.305C20.661 21.0696 20.6271 20.8636 20.5595 20.6871C20.4918 20.5105 20.3925 20.373 20.2615 20.2744C20.1306 20.1758 19.9688 20.1266 19.776 20.1266C19.5774 20.1266 19.4119 20.178 19.2795 20.281C19.1471 20.384 19.047 20.5245 18.9794 20.7025C18.9132 20.8806 18.88 21.0814 18.88 21.305C18.88 21.5316 18.9139 21.7354 18.9816 21.9163C19.0492 22.0973 19.1493 22.2407 19.2817 22.3466C19.4156 22.4511 19.5804 22.5033 19.776 22.5033ZM23.7125 23.0683C23.3785 23.0683 23.0909 22.9969 22.8496 22.8542C22.6098 22.71 22.4244 22.5077 22.2935 22.2473C22.164 21.9855 22.0993 21.6787 22.0993 21.3271C22.0993 20.9799 22.164 20.6739 22.2935 20.409C22.4244 20.1442 22.6069 19.9375 22.8408 19.7889C23.0762 19.6403 23.3513 19.566 23.6662 19.566C23.8574 19.566 24.0428 19.5976 24.2223 19.6609C24.4018 19.7242 24.5629 19.8235 24.7056 19.9588C24.8483 20.0942 24.9609 20.27 25.0432 20.4863C25.1256 20.7011 25.1668 20.9622 25.1668 21.2697V21.5036H22.4723V21.0093H24.5202C24.5202 20.8357 24.4849 20.6819 24.4143 20.5481C24.3437 20.4127 24.2444 20.306 24.1164 20.2281C23.9898 20.1501 23.8412 20.1111 23.6706 20.1111C23.4852 20.1111 23.3234 20.1567 23.1851 20.2479C23.0482 20.3377 22.9423 20.4554 22.8673 20.601C22.7937 20.7452 22.7569 20.9019 22.7569 21.0711V21.4573C22.7569 21.6839 22.7967 21.8766 22.8761 22.0355C22.957 22.1944 23.0696 22.3158 23.2138 22.3996C23.3579 22.482 23.5264 22.5232 23.7191 22.5232C23.8442 22.5232 23.9582 22.5055 24.0612 22.4702C24.1642 22.4335 24.2532 22.379 24.3282 22.3069C24.4033 22.2348 24.4606 22.1458 24.5004 22.0399L25.1249 22.1524C25.0749 22.3364 24.9851 22.4975 24.8557 22.6357C24.7277 22.7726 24.5666 22.8792 24.3724 22.9557C24.1796 23.0308 23.9597 23.0683 23.7125 23.0683ZM26.5588 20.9872V22.9999H25.8989V19.6101H26.5323V20.1619H26.5742C26.6522 19.9824 26.7743 19.8382 26.9406 19.7293C27.1083 19.6204 27.3194 19.566 27.574 19.566C27.8049 19.566 28.0072 19.6146 28.1808 19.7117C28.3544 19.8073 28.4891 19.95 28.5847 20.1398C28.6803 20.3296 28.7281 20.5642 28.7281 20.8438V22.9999H28.0683V20.9232C28.0683 20.6775 28.0043 20.4855 27.8763 20.3472C27.7483 20.2075 27.5725 20.1376 27.3489 20.1376C27.1958 20.1376 27.0598 20.1707 26.9406 20.2369C26.8229 20.3031 26.7295 20.4002 26.6603 20.5282C26.5926 20.6547 26.5588 20.8077 26.5588 20.9872ZM31.0409 23.0683C30.7128 23.0683 30.4304 22.994 30.1935 22.8454C29.9581 22.6953 29.7771 22.4886 29.6506 22.2253C29.5241 21.9619 29.4608 21.6603 29.4608 21.3205C29.4608 20.9762 29.5255 20.6724 29.655 20.409C29.7845 20.1442 29.9669 19.9375 30.2023 19.7889C30.4377 19.6403 30.715 19.566 31.0343 19.566C31.2918 19.566 31.5213 19.6138 31.7228 19.7095C31.9244 19.8036 32.087 19.936 32.2106 20.1067C32.3356 20.2774 32.4099 20.4767 32.4334 20.7047H31.7912C31.7559 20.5459 31.675 20.409 31.5485 20.2943C31.4234 20.1795 31.2557 20.1221 31.0453 20.1221C30.8614 20.1221 30.7003 20.1707 30.562 20.2678C30.4252 20.3634 30.3185 20.5002 30.242 20.6783C30.1655 20.8548 30.1273 21.0637 30.1273 21.305C30.1273 21.5522 30.1648 21.7655 30.2398 21.945C30.3149 22.1245 30.4208 22.2635 30.5576 22.3621C30.6959 22.4607 30.8585 22.51 31.0453 22.51C31.1704 22.51 31.2837 22.4872 31.3852 22.4415C31.4882 22.3945 31.5742 22.3275 31.6434 22.2407C31.714 22.1539 31.7633 22.0495 31.7912 21.9273H32.4334C32.4099 22.1466 32.3385 22.3422 32.2194 22.5144C32.1002 22.6865 31.9406 22.8219 31.7405 22.9204C31.5419 23.019 31.3087 23.0683 31.0409 23.0683ZM33.1391 22.9999V19.6101H33.7989V22.9999H33.1391ZM33.4723 19.0871C33.3576 19.0871 33.259 19.0489 33.1766 18.9724C33.0957 18.8944 33.0552 18.8017 33.0552 18.6943C33.0552 18.5854 33.0957 18.4927 33.1766 18.4162C33.259 18.3383 33.3576 18.2993 33.4723 18.2993C33.5871 18.2993 33.6849 18.3383 33.7658 18.4162C33.8482 18.4927 33.8894 18.5854 33.8894 18.6943C33.8894 18.8017 33.8482 18.8944 33.7658 18.9724C33.6849 19.0489 33.5871 19.0871 33.4723 19.0871ZM35.6731 23.0749C35.4583 23.0749 35.2641 23.0352 35.0905 22.9557C34.9169 22.8748 34.7793 22.7579 34.6778 22.6049C34.5778 22.4518 34.5277 22.2643 34.5277 22.0421C34.5277 21.8508 34.5645 21.6934 34.6381 21.5698C34.7117 21.4463 34.811 21.3484 34.936 21.2763C35.0611 21.2042 35.2008 21.1498 35.3553 21.113C35.5098 21.0762 35.6672 21.0483 35.8276 21.0292C36.0306 21.0056 36.1954 20.9865 36.3219 20.9718C36.4484 20.9556 36.5404 20.9298 36.5978 20.8945C36.6552 20.8592 36.6838 20.8019 36.6838 20.7224V20.707C36.6838 20.5142 36.6294 20.3649 36.5205 20.259C36.4131 20.153 36.2528 20.1001 36.0394 20.1001C35.8173 20.1001 35.6422 20.1494 35.5142 20.2479C35.3877 20.345 35.3001 20.4532 35.2516 20.5723L34.6315 20.4311C34.705 20.2251 34.8124 20.0589 34.9537 19.9324C35.0964 19.8044 35.2604 19.7117 35.4458 19.6543C35.6312 19.5954 35.8261 19.566 36.0306 19.566C36.166 19.566 36.3094 19.5822 36.461 19.6146C36.614 19.6455 36.7567 19.7028 36.8891 19.7867C37.023 19.8706 37.1326 19.9905 37.2179 20.1464C37.3032 20.3009 37.3459 20.5017 37.3459 20.7489V22.9999H36.7015V22.5364H36.675C36.6324 22.6218 36.5684 22.7056 36.483 22.788C36.3977 22.8704 36.2881 22.9388 36.1542 22.9933C36.0203 23.0477 35.86 23.0749 35.6731 23.0749ZM35.8166 22.5453C35.999 22.5453 36.1549 22.5092 36.2844 22.4371C36.4153 22.365 36.5147 22.2709 36.5823 22.1547C36.6515 22.037 36.6861 21.9112 36.6861 21.7773V21.3403C36.6625 21.3639 36.6169 21.3859 36.5492 21.4065C36.483 21.4257 36.4073 21.4426 36.3219 21.4573C36.2366 21.4705 36.1535 21.483 36.0725 21.4948C35.9916 21.5051 35.924 21.5139 35.8695 21.5213C35.7415 21.5375 35.6246 21.5647 35.5186 21.6029C35.4142 21.6412 35.3303 21.6964 35.267 21.7685C35.2053 21.8391 35.1744 21.9332 35.1744 22.0509C35.1744 22.2142 35.2347 22.3378 35.3553 22.4217C35.476 22.5041 35.6297 22.5453 35.8166 22.5453ZM40.7649 20.4377L40.1668 20.5436C40.1418 20.4671 40.1021 20.3943 40.0476 20.3252C39.9947 20.256 39.9226 20.1994 39.8314 20.1552C39.7402 20.1111 39.6261 20.089 39.4893 20.089C39.3025 20.089 39.1465 20.131 39.0215 20.2148C38.8964 20.2972 38.8339 20.4039 38.8339 20.5348C38.8339 20.6481 38.8758 20.7393 38.9597 20.8085C39.0435 20.8776 39.1789 20.9343 39.3657 20.9784L39.9042 21.102C40.2161 21.1741 40.4486 21.2852 40.6016 21.4352C40.7546 21.5853 40.8311 21.7802 40.8311 22.02C40.8311 22.2231 40.7722 22.404 40.6545 22.5629C40.5383 22.7203 40.3757 22.8439 40.1668 22.9337C39.9594 23.0234 39.7188 23.0683 39.4452 23.0683C39.0656 23.0683 38.7559 22.9874 38.5161 22.8255C38.2763 22.6622 38.1292 22.4305 38.0747 22.1304L38.7125 22.0333C38.7522 22.1995 38.8339 22.3253 38.9575 22.4106C39.081 22.4945 39.2421 22.5364 39.4408 22.5364C39.657 22.5364 39.8299 22.4916 39.9594 22.4018C40.0888 22.3106 40.1536 22.1995 40.1536 22.0686C40.1536 21.9627 40.1138 21.8736 40.0344 21.8016C39.9564 21.7295 39.8365 21.675 39.6747 21.6382L39.1009 21.5125C38.7846 21.4404 38.5507 21.3256 38.3991 21.1682C38.2491 21.0108 38.174 20.8114 38.174 20.5701C38.174 20.37 38.2299 20.195 38.3417 20.0449C38.4536 19.8948 38.608 19.7779 38.8052 19.694C39.0023 19.6087 39.2282 19.566 39.4827 19.566C39.849 19.566 40.1374 19.6455 40.3478 19.8044C40.5582 19.9618 40.6972 20.1729 40.7649 20.4377ZM43.1924 22.9999V22.5055L44.7218 20.921C44.8851 20.7489 45.0197 20.5981 45.1256 20.4686C45.233 20.3377 45.3132 20.2134 45.3662 20.0957C45.4191 19.978 45.4456 19.8529 45.4456 19.7205C45.4456 19.5704 45.4103 19.441 45.3397 19.3321C45.2691 19.2217 45.1727 19.1371 45.0506 19.0783C44.9285 19.018 44.7909 18.9878 44.6379 18.9878C44.4761 18.9878 44.3348 19.0209 44.2142 19.0871C44.0935 19.1533 44.0009 19.2468 43.9361 19.3674C43.8714 19.488 43.839 19.6293 43.839 19.7911H43.188C43.188 19.516 43.2513 19.2754 43.3778 19.0695C43.5043 18.8635 43.6779 18.7039 43.8986 18.5906C44.1193 18.4758 44.3701 18.4184 44.6511 18.4184C44.9351 18.4184 45.1852 18.4751 45.4015 18.5884C45.6192 18.7002 45.7891 18.8532 45.9113 19.0474C46.0334 19.2401 46.0944 19.4579 46.0944 19.7006C46.0944 19.8684 46.0628 20.0324 45.9995 20.1928C45.9377 20.3531 45.8296 20.5319 45.6751 20.729C45.5206 20.9247 45.3058 21.1623 45.0307 21.4418L44.1325 22.382V22.4151H46.1672V22.9999H43.1924ZM48.5771 23.0749C48.2285 23.0734 47.9305 22.9815 47.6834 22.7991C47.4362 22.6166 47.2471 22.3511 47.1162 22.0024C46.9853 21.6537 46.9198 21.2337 46.9198 20.7423C46.9198 20.2523 46.9853 19.8338 47.1162 19.4866C47.2486 19.1394 47.4384 18.8745 47.6856 18.6921C47.9342 18.5097 48.2314 18.4184 48.5771 18.4184C48.9229 18.4184 49.2193 18.5104 49.4665 18.6943C49.7137 18.8767 49.9027 19.1416 50.0337 19.4888C50.1661 19.8345 50.2323 20.2523 50.2323 20.7423C50.2323 21.2351 50.1668 21.6559 50.0359 22.0046C49.9049 22.3518 49.7159 22.6174 49.4687 22.8013C49.2215 22.9837 48.9243 23.0749 48.5771 23.0749ZM48.5771 22.4857C48.8832 22.4857 49.1222 22.3364 49.2944 22.0377C49.468 21.739 49.5548 21.3072 49.5548 20.7423C49.5548 20.3671 49.515 20.05 49.4356 19.7911C49.3576 19.5307 49.2451 19.3336 49.098 19.1997C48.9523 19.0643 48.7787 18.9966 48.5771 18.9966C48.2726 18.9966 48.0335 19.1467 47.8599 19.4468C47.6863 19.747 47.5988 20.1788 47.5973 20.7423C47.5973 21.1189 47.6363 21.4374 47.7143 21.6978C47.7937 21.9568 47.9063 22.1532 48.0519 22.2871C48.1976 22.4195 48.3726 22.4857 48.5771 22.4857ZM51.0152 22.9999V22.5055L52.5445 20.921C52.7078 20.7489 52.8424 20.5981 52.9484 20.4686C53.0558 20.3377 53.1359 20.2134 53.1889 20.0957C53.2419 19.978 53.2684 19.8529 53.2684 19.7205C53.2684 19.5704 53.233 19.441 53.1624 19.3321C53.0918 19.2217 52.9954 19.1371 52.8733 19.0783C52.7512 19.018 52.6137 18.9878 52.4606 18.9878C52.2988 18.9878 52.1576 19.0209 52.0369 19.0871C51.9163 19.1533 51.8236 19.2468 51.7589 19.3674C51.6941 19.488 51.6618 19.6293 51.6618 19.7911H51.0107C51.0107 19.516 51.074 19.2754 51.2005 19.0695C51.3271 18.8635 51.5007 18.7039 51.7213 18.5906C51.942 18.4758 52.1929 18.4184 52.4739 18.4184C52.7578 18.4184 53.0079 18.4751 53.2242 18.5884C53.442 18.7002 53.6119 18.8532 53.734 19.0474C53.8561 19.2401 53.9172 19.4579 53.9172 19.7006C53.9172 19.8684 53.8855 20.0324 53.8223 20.1928C53.7605 20.3531 53.6523 20.5319 53.4979 20.729C53.3434 20.9247 53.1286 21.1623 52.8535 21.4418L51.9553 22.382V22.4151H53.99V22.9999H51.0152ZM56.3999 23.0617C56.0968 23.0617 55.8261 23.0094 55.5878 22.905C55.3509 22.8005 55.1633 22.6556 55.025 22.4702C54.8882 22.2834 54.8146 22.0671 54.8043 21.8214H55.4973C55.5061 21.9553 55.551 22.0715 55.6319 22.1701C55.7143 22.2672 55.8217 22.3422 55.9541 22.3952C56.0865 22.4482 56.2336 22.4746 56.3955 22.4746C56.5735 22.4746 56.7309 22.4438 56.8677 22.382C57.006 22.3202 57.1142 22.2341 57.1921 22.1238C57.2701 22.0119 57.3091 21.8832 57.3091 21.7376C57.3091 21.586 57.2701 21.4529 57.1921 21.3381C57.1156 21.2219 57.0031 21.1307 56.8545 21.0645C56.7074 20.9983 56.5293 20.9652 56.3204 20.9652H55.9386V20.409H56.3204C56.4882 20.409 56.6353 20.3789 56.7618 20.3185C56.8898 20.2582 56.9898 20.1744 57.0619 20.067C57.134 19.9581 57.1701 19.8308 57.1701 19.6852C57.1701 19.5454 57.1384 19.424 57.0752 19.3211C57.0134 19.2166 56.9251 19.1349 56.8104 19.0761C56.6971 19.0172 56.5632 18.9878 56.4087 18.9878C56.2616 18.9878 56.124 19.015 55.996 19.0695C55.8695 19.1224 55.7665 19.1989 55.6871 19.299C55.6076 19.3976 55.565 19.516 55.5591 19.6543H54.8992C54.9066 19.4101 54.9787 19.1953 55.1155 19.0099C55.2538 18.8245 55.4362 18.6796 55.6628 18.5751C55.8894 18.4707 56.1409 18.4184 56.4175 18.4184C56.7074 18.4184 56.9575 18.4751 57.1679 18.5884C57.3797 18.7002 57.543 18.8495 57.6578 19.0364C57.774 19.2232 57.8314 19.4277 57.8299 19.6499C57.8314 19.9029 57.7608 20.1177 57.6181 20.2943C57.4768 20.4708 57.2885 20.5893 57.0531 20.6496V20.6849C57.3532 20.7305 57.5857 20.8497 57.7505 21.0424C57.9167 21.2351 57.9991 21.4742 57.9976 21.7596C57.9991 22.0083 57.93 22.2312 57.7902 22.4283C57.6519 22.6254 57.4628 22.7807 57.223 22.8939C56.9832 23.0058 56.7088 23.0617 56.3999 23.0617Z" fill="#232F4E"/>
<path d="M8.86097 101.111V104.275H8.47786V101.513H8.45933L7.68693 102.026V101.637L8.47786 101.111H8.86097ZM10.8028 104.318C10.57 104.318 10.3718 104.255 10.208 104.128C10.0443 104.001 9.91916 103.816 9.83265 103.574C9.74614 103.331 9.70289 103.037 9.70289 102.693C9.70289 102.351 9.74614 102.059 9.83265 101.817C9.92019 101.574 10.0458 101.389 10.2096 101.261C10.3744 101.132 10.5721 101.068 10.8028 101.068C11.0335 101.068 11.2307 101.132 11.3944 101.261C11.5592 101.389 11.6849 101.574 11.7714 101.817C11.8589 102.059 11.9027 102.351 11.9027 102.693C11.9027 103.037 11.8594 103.331 11.7729 103.574C11.6864 103.816 11.5613 104.001 11.3975 104.128C11.2338 104.255 11.0355 104.318 10.8028 104.318ZM10.8028 103.978C11.0335 103.978 11.2127 103.867 11.3404 103.645C11.4681 103.422 11.5319 103.105 11.5319 102.693C11.5319 102.419 11.5026 102.186 11.4439 101.993C11.3862 101.801 11.3028 101.654 11.1936 101.553C11.0855 101.452 10.9552 101.402 10.8028 101.402C10.5742 101.402 10.3955 101.514 10.2667 101.74C10.138 101.965 10.0736 102.282 10.0736 102.693C10.0736 102.967 10.1025 103.2 10.1601 103.391C10.2178 103.583 10.3007 103.729 10.4089 103.829C10.518 103.928 10.6493 103.978 10.8028 103.978ZM12.5453 104.275V101.111H12.9284V102.681H12.9655L14.3867 101.111H14.8872L13.5587 102.539L14.8872 104.275H14.4238L13.3239 102.804L12.9284 103.249V104.275H12.5453Z" fill="#9AA2AC"/>
<path d="M8.13698 87.1848V86.9067L9.18126 85.7635C9.30382 85.6297 9.40474 85.5133 9.48404 85.4144C9.56334 85.3145 9.62204 85.2208 9.66015 85.1333C9.69928 85.0447 9.71885 84.952 9.71885 84.8552C9.71885 84.744 9.69207 84.6477 9.63852 84.5663C9.586 84.485 9.51391 84.4221 9.42225 84.3779C9.33059 84.3336 9.22761 84.3114 9.11329 84.3114C8.99177 84.3114 8.88569 84.3367 8.79506 84.3871C8.70546 84.4366 8.63595 84.5061 8.58651 84.5957C8.53811 84.6853 8.51391 84.7903 8.51391 84.9108H8.14934C8.14934 84.7254 8.19208 84.5627 8.27755 84.4227C8.36303 84.2826 8.47941 84.1734 8.62668 84.0952C8.77498 84.0169 8.9413 83.9778 9.12565 83.9778C9.31102 83.9778 9.47529 84.0169 9.61844 84.0952C9.76159 84.1734 9.87385 84.279 9.95521 84.4118C10.0366 84.5447 10.0772 84.6925 10.0772 84.8552C10.0772 84.9716 10.0561 85.0854 10.0139 85.1966C9.97271 85.3068 9.90062 85.4299 9.79764 85.5658C9.69568 85.7007 9.55407 85.8655 9.37282 86.0601L8.66221 86.8202V86.8449H10.1329V87.1848H8.13698ZM11.8028 87.228C11.57 87.228 11.3718 87.1647 11.208 87.038C11.0443 86.9103 10.9192 86.7254 10.8327 86.4834C10.7461 86.2404 10.7029 85.9469 10.7029 85.6029C10.7029 85.261 10.7461 84.969 10.8327 84.727C10.9202 84.4839 11.0458 84.2986 11.2096 84.1709C11.3744 84.0421 11.5721 83.9778 11.8028 83.9778C12.0335 83.9778 12.2307 84.0421 12.3944 84.1709C12.5592 84.2986 12.6849 84.4839 12.7714 84.727C12.8589 84.969 12.9027 85.261 12.9027 85.6029C12.9027 85.9469 12.8594 86.2404 12.7729 86.4834C12.6864 86.7254 12.5613 86.9103 12.3975 87.038C12.2338 87.1647 12.0355 87.228 11.8028 87.228ZM11.8028 86.8882C12.0335 86.8882 12.2127 86.7769 12.3404 86.5545C12.4681 86.332 12.5319 86.0148 12.5319 85.6029C12.5319 85.3289 12.5026 85.0957 12.4439 84.9031C12.3862 84.7105 12.3028 84.5637 12.1936 84.4628C12.0855 84.3619 11.9552 84.3114 11.8028 84.3114C11.5742 84.3114 11.3955 84.4242 11.2667 84.6497C11.138 84.8743 11.0736 85.192 11.0736 85.6029C11.0736 85.8768 11.1025 86.1096 11.1601 86.3011C11.2178 86.4927 11.3007 86.6384 11.4089 86.7383C11.518 86.8382 11.6493 86.8882 11.8028 86.8882ZM13.5453 87.1848V84.021H13.9284V85.5905H13.9655L15.3867 84.021H15.8872L14.5587 85.4484L15.8872 87.1848H15.4238L14.3239 85.7141L13.9284 86.159V87.1848H13.5453Z" fill="#9AA2AC"/>
<path d="M9.07004 70.1378C8.86612 70.1378 8.68435 70.1028 8.52472 70.0327C8.36612 69.9627 8.23997 69.8654 8.14625 69.7408C8.05356 69.6151 8.0031 69.4694 7.99486 69.3036H8.38415C8.39239 69.4055 8.4274 69.4936 8.48919 69.5677C8.55098 69.6409 8.63183 69.6975 8.73173 69.7377C8.83162 69.7778 8.94233 69.7979 9.06386 69.7979C9.1998 69.7979 9.32029 69.7742 9.42534 69.7269C9.53039 69.6795 9.61278 69.6136 9.67251 69.5291C9.73224 69.4447 9.76211 69.3468 9.76211 69.2356C9.76211 69.1192 9.73327 69.0168 9.6756 68.9282C9.61792 68.8386 9.53348 68.7686 9.42225 68.7181C9.31103 68.6676 9.17508 68.6424 9.01442 68.6424H8.76108V68.3025H9.01442C9.14007 68.3025 9.25026 68.2799 9.34501 68.2346C9.44079 68.1893 9.51545 68.1254 9.56901 68.043C9.62359 67.9606 9.65088 67.8638 9.65088 67.7526C9.65088 67.6455 9.62719 67.5523 9.57982 67.473C9.53245 67.3937 9.4655 67.3319 9.379 67.2876C9.29352 67.2433 9.19259 67.2212 9.07622 67.2212C8.96705 67.2212 8.86406 67.2413 8.76726 67.2814C8.67148 67.3206 8.59321 67.3777 8.53245 67.4529C8.47168 67.5271 8.43873 67.6167 8.43358 67.7217H8.06283C8.06901 67.5559 8.11896 67.4107 8.21267 67.2861C8.30639 67.1604 8.42895 67.0626 8.58034 66.9926C8.73276 66.9225 8.90011 66.8875 9.08239 66.8875C9.27807 66.8875 9.44594 66.9272 9.586 67.0065C9.72606 67.0847 9.83368 67.1882 9.90886 67.317C9.98404 67.4457 10.0216 67.5847 10.0216 67.7341C10.0216 67.9122 9.97477 68.0641 9.88106 68.1898C9.78837 68.3154 9.66221 68.4024 9.50258 68.4508V68.4756C9.70237 68.5085 9.8584 68.5935 9.97065 68.7305C10.0829 68.8664 10.139 69.0348 10.139 69.2356C10.139 69.4076 10.0922 69.5621 9.99846 69.699C9.90577 69.835 9.7791 69.9421 9.61844 70.0204C9.45778 70.0986 9.27498 70.1378 9.07004 70.1378ZM11.8028 70.1378C11.57 70.1378 11.3718 70.0744 11.208 69.9478C11.0443 69.8201 10.9192 69.6352 10.8327 69.3932C10.7461 69.1501 10.7029 68.8566 10.7029 68.5126C10.7029 68.1707 10.7461 67.8788 10.8327 67.6367C10.9202 67.3937 11.0458 67.2083 11.2096 67.0806C11.3744 66.9519 11.5721 66.8875 11.8028 66.8875C12.0335 66.8875 12.2307 66.9519 12.3944 67.0806C12.5592 67.2083 12.6849 67.3937 12.7714 67.6367C12.8589 67.8788 12.9027 68.1707 12.9027 68.5126C12.9027 68.8566 12.8594 69.1501 12.7729 69.3932C12.6864 69.6352 12.5613 69.8201 12.3975 69.9478C12.2338 70.0744 12.0355 70.1378 11.8028 70.1378ZM11.8028 69.7979C12.0335 69.7979 12.2127 69.6867 12.3404 69.4642C12.4681 69.2418 12.5319 68.9246 12.5319 68.5126C12.5319 68.2387 12.5026 68.0054 12.4439 67.8128C12.3862 67.6203 12.3028 67.4735 12.1936 67.3726C12.0855 67.2717 11.9552 67.2212 11.8028 67.2212C11.5742 67.2212 11.3955 67.334 11.2667 67.5595C11.138 67.784 11.0736 68.1017 11.0736 68.5126C11.0736 68.7866 11.1025 69.0193 11.1601 69.2109C11.2178 69.4024 11.3007 69.5482 11.4089 69.6481C11.518 69.748 11.6493 69.7979 11.8028 69.7979ZM13.5453 70.0945V66.9308H13.9284V68.5003H13.9655L15.3867 66.9308H15.8872L14.5587 68.3582L15.8872 70.0945H15.4238L14.3239 68.6239L13.9284 69.0688V70.0945H13.5453Z" fill="#9AA2AC"/>
<path d="M7.90564 52.357V52.0418L9.29596 49.842H9.52459V50.3302H9.37011L8.31965 51.9924V52.0171H10.1919V52.357H7.90564ZM9.39483 53.0058V52.2612V52.1144V49.842H9.7594V53.0058H9.39483ZM11.8028 53.049C11.57 53.049 11.3718 52.9857 11.208 52.859C11.0443 52.7313 10.9192 52.5464 10.8327 52.3044C10.7461 52.0614 10.7029 51.7679 10.7029 51.4239C10.7029 51.082 10.7461 50.79 10.8327 50.548C10.9202 50.3049 11.0458 50.1196 11.2096 49.9919C11.3744 49.8631 11.5721 49.7988 11.8028 49.7988C12.0335 49.7988 12.2307 49.8631 12.3944 49.9919C12.5592 50.1196 12.6849 50.3049 12.7714 50.548C12.8589 50.79 12.9027 51.082 12.9027 51.4239C12.9027 51.7679 12.8594 52.0614 12.7729 52.3044C12.6864 52.5464 12.5613 52.7313 12.3975 52.859C12.2338 52.9857 12.0355 53.049 11.8028 53.049ZM11.8028 52.7092C12.0335 52.7092 12.2127 52.5979 12.3404 52.3755C12.4681 52.153 12.5319 51.8358 12.5319 51.4239C12.5319 51.15 12.5026 50.9167 12.4439 50.7241C12.3862 50.5315 12.3028 50.3848 12.1936 50.2838C12.0855 50.1829 11.9552 50.1324 11.8028 50.1324C11.5742 50.1324 11.3955 50.2452 11.2667 50.4708C11.138 50.6953 11.0736 51.013 11.0736 51.4239C11.0736 51.6978 11.1025 51.9306 11.1601 52.1221C11.2178 52.3137 11.3007 52.4594 11.4089 52.5593C11.518 52.6592 11.6493 52.7092 11.8028 52.7092ZM13.5453 53.0058V49.842H13.9284V51.4115H13.9655L15.3867 49.842H15.8872L14.5587 51.2694L15.8872 53.0058H15.4238L14.3239 51.5351L13.9284 51.98V53.0058H13.5453Z" fill="#9AA2AC"/>
<path d="M9.1129 35.9588C8.93165 35.9588 8.76841 35.9227 8.6232 35.8506C8.47799 35.7786 8.36162 35.6797 8.27408 35.554C8.18654 35.4284 8.13865 35.2852 8.13041 35.1246H8.50116C8.51558 35.2677 8.58046 35.3862 8.69581 35.4799C8.81218 35.5726 8.95122 35.6189 9.1129 35.6189C9.24267 35.6189 9.35801 35.5885 9.45894 35.5278C9.5609 35.467 9.64071 35.3836 9.69838 35.2775C9.75709 35.1704 9.78644 35.0494 9.78644 34.9145C9.78644 34.7765 9.75606 34.6534 9.69529 34.5453C9.63556 34.4361 9.55317 34.3501 9.44813 34.2873C9.34308 34.2245 9.2231 34.1926 9.08819 34.1915C8.99138 34.1905 8.892 34.2054 8.79004 34.2363C8.68809 34.2662 8.60415 34.3048 8.53824 34.3522L8.17985 34.3089L8.3714 32.7518H10.0151V33.0916H8.69272L8.58149 34.0247H8.60003C8.66491 33.9732 8.74627 33.9305 8.84411 33.8965C8.94195 33.8625 9.0439 33.8455 9.14998 33.8455C9.34359 33.8455 9.5161 33.8918 9.66749 33.9845C9.81991 34.0762 9.93937 34.2018 10.0259 34.3615C10.1134 34.5211 10.1572 34.7034 10.1572 34.9083C10.1572 35.1102 10.1119 35.2904 10.0212 35.449C9.93165 35.6066 9.80806 35.7312 9.65049 35.8228C9.49292 35.9135 9.31373 35.9588 9.1129 35.9588ZM11.8028 35.9588C11.57 35.9588 11.3718 35.8954 11.208 35.7688C11.0443 35.6411 10.9192 35.4562 10.8327 35.2142C10.7461 34.9711 10.7029 34.6776 10.7029 34.3337C10.7029 33.9917 10.7461 33.6998 10.8327 33.4578C10.9202 33.2147 11.0458 33.0293 11.2096 32.9016C11.3744 32.7729 11.5721 32.7085 11.8028 32.7085C12.0335 32.7085 12.2307 32.7729 12.3944 32.9016C12.5592 33.0293 12.6849 33.2147 12.7714 33.4578C12.8589 33.6998 12.9027 33.9917 12.9027 34.3337C12.9027 34.6776 12.8594 34.9711 12.7729 35.2142C12.6864 35.4562 12.5613 35.6411 12.3975 35.7688C12.2338 35.8954 12.0355 35.9588 11.8028 35.9588ZM11.8028 35.6189C12.0335 35.6189 12.2127 35.5077 12.3404 35.2852C12.4681 35.0628 12.5319 34.7456 12.5319 34.3337C12.5319 34.0597 12.5026 33.8264 12.4439 33.6339C12.3862 33.4413 12.3028 33.2945 12.1936 33.1936C12.0855 33.0927 11.9552 33.0422 11.8028 33.0422C11.5742 33.0422 11.3955 33.155 11.2667 33.3805C11.138 33.605 11.0736 33.9227 11.0736 34.3337C11.0736 34.6076 11.1025 34.8403 11.1601 35.0319C11.2178 35.2235 11.3007 35.3692 11.4089 35.4691C11.518 35.569 11.6493 35.6189 11.8028 35.6189ZM13.5453 35.9155V32.7518H13.9284V34.3213H13.9655L15.3867 32.7518H15.8872L14.5587 34.1792L15.8872 35.9155H15.4238L14.3239 34.4449L13.9284 34.8898V35.9155H13.5453Z" fill="#9AA2AC"/>
<path d="M7 43.1009H230.411" stroke="#EBEBEB" stroke-width="0.466088" stroke-dasharray="3.73 3.73"/>
<path d="M7 60.1912H230.411" stroke="#EBEBEB" stroke-width="0.466088" stroke-dasharray="3.73 3.73"/>
<path d="M7 77.2814H230.411" stroke="#EBEBEB" stroke-width="0.466088" stroke-dasharray="3.73 3.73"/>
<path d="M7 94.3717H230.411" stroke="#EBEBEB" stroke-width="0.466088" stroke-dasharray="3.73 3.73"/>
<path d="M32.7812 114.528V111.364H34.6906V111.704H33.1643V112.773H34.5917V113.113H33.1643V114.188H34.7153V114.528H32.7812ZM35.6962 113.1V114.528H35.3317V112.155H35.6839V112.526H35.7148C35.7704 112.405 35.8548 112.308 35.9681 112.235C36.0814 112.161 36.2276 112.124 36.4068 112.124C36.5675 112.124 36.7081 112.157 36.8286 112.223C36.9491 112.288 37.0428 112.387 37.1097 112.52C37.1767 112.651 37.2101 112.818 37.2101 113.02V114.528H36.8456V113.045C36.8456 112.858 36.7972 112.713 36.7003 112.609C36.6035 112.504 36.4707 112.452 36.3018 112.452C36.1854 112.452 36.0814 112.477 35.9897 112.527C35.8991 112.578 35.8275 112.651 35.775 112.748C35.7225 112.845 35.6962 112.962 35.6962 113.1ZM38.8712 114.577C38.6425 114.577 38.4453 114.527 38.2795 114.426C38.1147 114.324 37.9876 114.182 37.898 113.999C37.8094 113.816 37.7651 113.603 37.7651 113.36C37.7651 113.117 37.8094 112.903 37.898 112.717C37.9876 112.531 38.1122 112.386 38.2718 112.282C38.4325 112.177 38.6199 112.124 38.8341 112.124C38.9577 112.124 39.0797 112.145 39.2002 112.186C39.3207 112.227 39.4304 112.294 39.5293 112.387C39.6281 112.478 39.7069 112.6 39.7656 112.751C39.8243 112.903 39.8537 113.089 39.8537 113.31V113.465H38.0246V113.15H39.4829C39.4829 113.016 39.4561 112.896 39.4026 112.791C39.3501 112.686 39.2749 112.603 39.177 112.543C39.0802 112.482 38.9659 112.452 38.8341 112.452C38.6889 112.452 38.5632 112.488 38.4572 112.56C38.3521 112.631 38.2713 112.723 38.2146 112.838C38.158 112.952 38.1297 113.075 38.1297 113.205V113.415C38.1297 113.595 38.1606 113.747 38.2224 113.871C38.2852 113.995 38.3722 114.089 38.4834 114.154C38.5947 114.218 38.7239 114.25 38.8712 114.25C38.967 114.25 39.0535 114.236 39.1307 114.21C39.209 114.182 39.2764 114.141 39.3331 114.086C39.3897 114.03 39.4335 113.961 39.4644 113.879L39.8166 113.978C39.7795 114.097 39.7172 114.202 39.6297 114.293C39.5421 114.383 39.434 114.453 39.3053 114.503C39.1765 114.552 39.0318 114.577 38.8712 114.577Z" fill="#9AA2AC"/>
<rect x="27.8184" y="78.8333" width="7.4574" height="26.1009" rx="0.932175" fill="#AEA1FF"/>
<rect x="36.5195" y="64.8512" width="7.4574" height="40.0835" rx="0.932175" fill="#494CD4"/>
<path d="M62.7506 114.529V111.365H64.6476V111.705H63.1337V112.774H64.5054V113.114H63.1337V114.529H62.7506ZM66.075 114.579C65.8463 114.579 65.6491 114.528 65.4833 114.427C65.3185 114.325 65.1913 114.183 65.1017 114.001C65.0132 113.817 64.9689 113.604 64.9689 113.361C64.9689 113.118 65.0132 112.904 65.1017 112.719C65.1913 112.532 65.316 112.387 65.4756 112.283C65.6362 112.178 65.8237 112.125 66.0379 112.125C66.1615 112.125 66.2835 112.146 66.404 112.187C66.5245 112.228 66.6342 112.295 66.733 112.388C66.8319 112.48 66.9107 112.601 66.9694 112.753C67.0281 112.904 67.0575 113.09 67.0575 113.312V113.466H65.2284V113.151H66.6867C66.6867 113.017 66.6599 112.898 66.6064 112.793C66.5538 112.688 66.4787 112.605 66.3808 112.544C66.284 112.483 66.1697 112.453 66.0379 112.453C65.8927 112.453 65.767 112.489 65.661 112.561C65.5559 112.632 65.4751 112.725 65.4184 112.839C65.3618 112.953 65.3335 113.076 65.3335 113.207V113.417C65.3335 113.596 65.3644 113.748 65.4261 113.873C65.489 113.996 65.576 114.09 65.6872 114.155C65.7984 114.219 65.9277 114.251 66.075 114.251C66.1707 114.251 66.2572 114.238 66.3345 114.211C66.4128 114.183 66.4802 114.142 66.5369 114.087C66.5935 114.032 66.6373 113.963 66.6682 113.88L67.0204 113.979C66.9833 114.099 66.921 114.204 66.8335 114.294C66.7459 114.384 66.6378 114.454 66.509 114.504C66.3803 114.554 66.2356 114.579 66.075 114.579ZM67.6615 114.529V111.365H68.026V112.533H68.0569C68.0837 112.492 68.1208 112.44 68.1682 112.376C68.2166 112.311 68.2856 112.253 68.3752 112.203C68.4658 112.151 68.5883 112.125 68.7428 112.125C68.9426 112.125 69.1187 112.175 69.2711 112.275C69.4236 112.375 69.5425 112.517 69.628 112.7C69.7135 112.883 69.7562 113.1 69.7562 113.349C69.7562 113.6 69.7135 113.818 69.628 114.002C69.5425 114.186 69.4241 114.328 69.2727 114.429C69.1213 114.529 68.9467 114.579 68.749 114.579C68.5966 114.579 68.4745 114.553 68.3829 114.503C68.2912 114.451 68.2207 114.393 68.1713 114.328C68.1218 114.262 68.0837 114.208 68.0569 114.165H68.0137V114.529H67.6615ZM68.0199 113.343C68.0199 113.522 68.0461 113.68 68.0986 113.817C68.1512 113.953 68.2279 114.059 68.3288 114.137C68.4297 114.213 68.5533 114.251 68.6996 114.251C68.852 114.251 68.9792 114.211 69.0811 114.131C69.1841 114.049 69.2614 113.94 69.3129 113.803C69.3654 113.665 69.3916 113.512 69.3916 113.343C69.3916 113.176 69.3659 113.026 69.3144 112.892C69.2639 112.757 69.1872 112.65 69.0842 112.572C68.9823 112.493 68.8541 112.453 68.6996 112.453C68.5513 112.453 68.4267 112.49 68.3257 112.566C68.2248 112.64 68.1486 112.744 68.0971 112.878C68.0456 113.011 68.0199 113.166 68.0199 113.343Z" fill="#9AA2AC"/>
<rect x="58.8906" y="71.3786" width="7.4574" height="33.5583" rx="0.932175" fill="#AEA1FF"/>
<rect x="67.5918" y="58.949" width="7.4574" height="45.9873" rx="0.932175" fill="#494CD4"/>
<path d="M94.1046 111.365H94.5618L95.637 113.991H95.6741L96.7493 111.365H97.2065V114.528H96.8481V112.125H96.8172L95.8286 114.528H95.4825L94.4939 112.125H94.463V114.528H94.1046V111.365ZM98.6235 114.584C98.4731 114.584 98.3367 114.556 98.2141 114.499C98.0916 114.441 97.9943 114.358 97.9222 114.25C97.8501 114.141 97.814 114.009 97.814 113.855C97.814 113.719 97.8408 113.609 97.8944 113.524C97.9479 113.439 98.0195 113.372 98.1091 113.323C98.1987 113.275 98.2975 113.239 98.4057 113.215C98.5148 113.191 98.6245 113.171 98.7347 113.157C98.8789 113.138 98.9958 113.124 99.0854 113.115C99.176 113.105 99.2419 113.088 99.2831 113.064C99.3254 113.04 99.3465 112.999 99.3465 112.94V112.928C99.3465 112.776 99.3048 112.657 99.2213 112.573C99.1389 112.488 99.0138 112.446 98.8459 112.446C98.6719 112.446 98.5354 112.484 98.4366 112.56C98.3377 112.636 98.2682 112.718 98.228 112.804L97.882 112.681C97.9438 112.537 98.0262 112.424 98.1292 112.344C98.2332 112.263 98.3465 112.206 98.469 112.174C98.5926 112.141 98.7141 112.125 98.8336 112.125C98.9098 112.125 98.9973 112.134 99.0962 112.152C99.1961 112.17 99.2924 112.207 99.3851 112.262C99.4788 112.318 99.5566 112.402 99.6183 112.514C99.6801 112.626 99.711 112.777 99.711 112.965V114.528H99.3465V114.207H99.3279C99.3032 114.259 99.262 114.314 99.2043 114.372C99.1467 114.431 99.0699 114.481 98.9742 114.522C98.8784 114.563 98.7615 114.584 98.6235 114.584ZM98.6791 114.256C98.8233 114.256 98.9448 114.228 99.0437 114.172C99.1436 114.115 99.2188 114.042 99.2692 113.952C99.3207 113.863 99.3465 113.768 99.3465 113.669V113.336C99.331 113.354 99.297 113.371 99.2445 113.387C99.193 113.401 99.1333 113.414 99.0653 113.425C98.9984 113.436 98.933 113.445 98.8691 113.453C98.8063 113.46 98.7553 113.467 98.7162 113.472C98.6214 113.484 98.5329 113.504 98.4505 113.532C98.3691 113.559 98.3032 113.599 98.2527 113.654C98.2033 113.708 98.1786 113.781 98.1786 113.873C98.1786 114 98.2255 114.096 98.3192 114.161C98.4139 114.225 98.5339 114.256 98.6791 114.256ZM100.376 114.528V112.156H100.729V112.514H100.753C100.797 112.397 100.875 112.301 100.988 112.228C101.101 112.155 101.229 112.118 101.371 112.118C101.398 112.118 101.432 112.119 101.472 112.12C101.512 112.121 101.542 112.123 101.563 112.125V112.495C101.551 112.492 101.522 112.488 101.478 112.481C101.435 112.474 101.389 112.471 101.34 112.471C101.225 112.471 101.122 112.495 101.031 112.543C100.942 112.591 100.871 112.657 100.818 112.741C100.767 112.824 100.741 112.92 100.741 113.027V114.528H100.376Z" fill="#9AA2AC"/>
<rect x="89.9629" y="67.3379" width="7.4574" height="37.5977" rx="0.932175" fill="#AEA1FF"/>
<rect x="98.6641" y="53.6656" width="7.4574" height="51.2696" rx="0.932175" fill="#494CD4"/>
<path d="M126.336 114.528H125.934L127.096 111.364H127.491L128.653 114.528H128.251L127.306 111.865H127.281L126.336 114.528ZM126.484 113.292H128.103V113.632H126.484V113.292ZM129.146 114.528V111.364H129.51V112.532H129.541C129.568 112.491 129.605 112.438 129.653 112.374C129.701 112.31 129.77 112.252 129.86 112.201C129.95 112.15 130.073 112.124 130.227 112.124C130.427 112.124 130.603 112.174 130.756 112.274C130.908 112.374 131.027 112.516 131.112 112.699C131.198 112.882 131.241 113.098 131.241 113.348C131.241 113.599 131.198 113.817 131.112 114.001C131.027 114.184 130.909 114.327 130.757 114.428C130.606 114.527 130.431 114.577 130.233 114.577C130.081 114.577 129.959 114.552 129.867 114.502C129.776 114.45 129.705 114.392 129.656 114.327C129.606 114.261 129.568 114.207 129.541 114.163H129.498V114.528H129.146ZM129.504 113.342C129.504 113.521 129.531 113.679 129.583 113.816C129.636 113.952 129.712 114.058 129.813 114.136C129.914 114.212 130.038 114.25 130.184 114.25C130.336 114.25 130.464 114.21 130.566 114.129C130.669 114.048 130.746 113.939 130.797 113.802C130.85 113.664 130.876 113.51 130.876 113.342C130.876 113.175 130.85 113.024 130.799 112.89C130.748 112.756 130.672 112.649 130.569 112.571C130.467 112.491 130.338 112.452 130.184 112.452C130.036 112.452 129.911 112.489 129.81 112.564C129.709 112.639 129.633 112.743 129.582 112.877C129.53 113.009 129.504 113.164 129.504 113.342ZM131.798 114.528V112.155H132.151V112.514H132.175C132.219 112.396 132.297 112.301 132.41 112.228C132.523 112.155 132.651 112.118 132.793 112.118C132.82 112.118 132.853 112.119 132.894 112.12C132.934 112.121 132.964 112.122 132.985 112.124V112.495C132.972 112.492 132.944 112.487 132.9 112.481C132.857 112.474 132.811 112.47 132.762 112.47C132.647 112.47 132.544 112.494 132.453 112.543C132.364 112.59 132.293 112.656 132.24 112.741C132.189 112.824 132.163 112.919 132.163 113.026V114.528H131.798Z" fill="#9AA2AC"/>
<rect x="121.035" y="55.2187" width="7.4574" height="49.716" rx="0.932175" fill="#AEA1FF"/>
<rect x="129.736" y="36.5744" width="7.4574" height="68.3595" rx="0.932175" fill="#494CD4"/>
<path d="M157.011 111.365H157.468L158.544 113.991H158.581L159.656 111.365H160.113V114.528H159.755V112.125H159.724L158.735 114.528H158.389L157.401 112.125H157.37V114.528H157.011V111.365ZM161.53 114.584C161.38 114.584 161.243 114.556 161.121 114.499C160.998 114.441 160.901 114.358 160.829 114.25C160.757 114.141 160.721 114.009 160.721 113.855C160.721 113.719 160.747 113.609 160.801 113.524C160.855 113.439 160.926 113.372 161.016 113.323C161.105 113.275 161.204 113.239 161.312 113.215C161.422 113.191 161.531 113.171 161.641 113.157C161.786 113.138 161.902 113.124 161.992 113.115C162.083 113.105 162.149 113.088 162.19 113.064C162.232 113.04 162.253 112.999 162.253 112.94V112.928C162.253 112.776 162.211 112.657 162.128 112.573C162.046 112.488 161.92 112.446 161.753 112.446C161.579 112.446 161.442 112.484 161.343 112.56C161.244 112.636 161.175 112.718 161.135 112.804L160.789 112.681C160.85 112.537 160.933 112.424 161.036 112.344C161.14 112.263 161.253 112.206 161.376 112.174C161.499 112.141 161.621 112.125 161.74 112.125C161.816 112.125 161.904 112.134 162.003 112.152C162.103 112.17 162.199 112.207 162.292 112.262C162.385 112.318 162.463 112.402 162.525 112.514C162.587 112.626 162.618 112.777 162.618 112.965V114.528H162.253V114.207H162.235C162.21 114.259 162.169 114.314 162.111 114.372C162.053 114.431 161.977 114.481 161.881 114.522C161.785 114.563 161.668 114.584 161.53 114.584ZM161.586 114.256C161.73 114.256 161.851 114.228 161.95 114.172C162.05 114.115 162.125 114.042 162.176 113.952C162.227 113.863 162.253 113.768 162.253 113.669V113.336C162.238 113.354 162.204 113.371 162.151 113.387C162.1 113.401 162.04 113.414 161.972 113.425C161.905 113.436 161.84 113.445 161.776 113.453C161.713 113.46 161.662 113.467 161.623 113.472C161.528 113.484 161.44 113.504 161.357 113.532C161.276 113.559 161.21 113.599 161.159 113.654C161.11 113.708 161.085 113.781 161.085 113.873C161.085 114 161.132 114.096 161.226 114.161C161.321 114.225 161.441 114.256 161.586 114.256ZM163.433 115.418C163.371 115.418 163.316 115.413 163.268 115.403C163.219 115.393 163.186 115.384 163.167 115.375L163.26 115.054C163.349 115.076 163.427 115.084 163.495 115.078C163.563 115.072 163.623 115.042 163.675 114.987C163.729 114.934 163.778 114.847 163.822 114.726L163.89 114.541L163.013 112.156H163.408L164.063 114.046H164.088L164.743 112.156H165.138L164.131 114.874C164.086 114.997 164.03 115.098 163.963 115.179C163.896 115.26 163.818 115.32 163.73 115.359C163.642 115.399 163.543 115.418 163.433 115.418Z" fill="#9AA2AC"/>
<rect x="152.107" y="53.6659" width="7.4574" height="51.2696" rx="0.932175" fill="#AEA1FF"/>
<rect x="160.809" y="69.2018" width="7.4574" height="35.7334" rx="0.932175" fill="#494CD4"/>
<path d="M189.029 111.364H189.413V113.626C189.413 113.827 189.375 113.999 189.301 114.14C189.227 114.281 189.123 114.388 188.988 114.461C188.853 114.534 188.694 114.571 188.51 114.571C188.337 114.571 188.183 114.54 188.048 114.477C187.914 114.413 187.807 114.322 187.73 114.205C187.653 114.087 187.614 113.948 187.614 113.786H187.991C187.991 113.876 188.013 113.954 188.058 114.021C188.103 114.087 188.165 114.138 188.243 114.176C188.321 114.213 188.41 114.231 188.51 114.231C188.621 114.231 188.714 114.208 188.792 114.162C188.869 114.115 188.927 114.047 188.968 113.958C189.009 113.867 189.029 113.756 189.029 113.626V111.364ZM191.626 113.558V112.155H191.991V114.528H191.626V114.126H191.601C191.546 114.247 191.459 114.349 191.342 114.434C191.225 114.517 191.076 114.559 190.897 114.559C190.749 114.559 190.617 114.526 190.502 114.461C190.386 114.395 190.296 114.297 190.23 114.165C190.164 114.032 190.131 113.865 190.131 113.663V112.155H190.495V113.638C190.495 113.811 190.544 113.949 190.641 114.052C190.738 114.155 190.863 114.206 191.014 114.206C191.105 114.206 191.197 114.183 191.291 114.137C191.386 114.091 191.465 114.02 191.529 113.924C191.594 113.828 191.626 113.706 191.626 113.558ZM193.023 113.1V114.528H192.659V112.155H193.011V112.526H193.042C193.097 112.405 193.182 112.308 193.295 112.235C193.408 112.161 193.555 112.124 193.734 112.124C193.894 112.124 194.035 112.157 194.155 112.223C194.276 112.288 194.37 112.387 194.437 112.52C194.504 112.651 194.537 112.818 194.537 113.02V114.528H194.172V113.045C194.172 112.858 194.124 112.713 194.027 112.609C193.93 112.504 193.798 112.452 193.629 112.452C193.512 112.452 193.408 112.477 193.317 112.527C193.226 112.578 193.154 112.651 193.102 112.748C193.049 112.845 193.023 112.962 193.023 113.1Z" fill="#9AA2AC"/>
<rect x="183.18" y="85.9808" width="7.4574" height="18.9542" rx="0.932175" fill="#AEA1FF"/>
<rect x="191.881" y="64.8512" width="7.4574" height="40.0835" rx="0.932175" fill="#494CD4"/>
<path d="M220.926 111.365H221.309V113.626C221.309 113.828 221.272 114 221.198 114.141C221.124 114.282 221.019 114.389 220.884 114.462C220.75 114.535 220.59 114.572 220.407 114.572C220.234 114.572 220.08 114.54 219.945 114.477C219.81 114.414 219.704 114.323 219.627 114.205C219.55 114.088 219.511 113.949 219.511 113.787H219.888C219.888 113.876 219.91 113.955 219.955 114.022C220 114.088 220.062 114.139 220.14 114.176C220.218 114.213 220.307 114.232 220.407 114.232C220.517 114.232 220.611 114.209 220.688 114.162C220.766 114.116 220.824 114.048 220.864 113.958C220.906 113.868 220.926 113.757 220.926 113.626V111.365ZM223.523 113.558V112.156H223.888V114.528H223.523V114.127H223.498C223.443 114.247 223.356 114.35 223.239 114.434C223.121 114.518 222.973 114.559 222.794 114.559C222.646 114.559 222.514 114.527 222.398 114.462C222.283 114.396 222.192 114.297 222.127 114.165C222.061 114.032 222.028 113.865 222.028 113.663V112.156H222.392V113.639C222.392 113.812 222.441 113.95 222.537 114.053C222.635 114.156 222.76 114.207 222.911 114.207C223.002 114.207 223.094 114.184 223.188 114.138C223.283 114.091 223.362 114.02 223.426 113.924C223.491 113.829 223.523 113.707 223.523 113.558ZM224.92 111.365V114.528H224.555V111.365H224.92Z" fill="#9AA2AC"/>
<rect x="214.254" y="53.6659" width="7.4574" height="51.2696" rx="0.932175" fill="#AEA1FF"/>
<rect x="222.955" y="73.8625" width="7.4574" height="31.0725" rx="0.932175" fill="#494CD4"/>
<g filter="url(#filter0_b_1610_34291)">
<rect x="138.436" y="36.575" width="36.3548" height="19.8864" rx="2.4858" fill="#232F4E" fill-opacity="0.32"/>
</g>
<path d="M143.107 44.3037L142.183 41.619H142.468L143.286 43.9924L144.11 41.619H144.396L143.471 44.3037H143.107ZM145.332 44.354C145.212 44.354 145.106 44.3354 145.016 44.2981C144.926 44.2608 144.85 44.2105 144.786 44.1471C144.724 44.0837 144.674 44.0116 144.635 43.9308C144.597 43.8488 144.569 43.7624 144.551 43.6717C144.534 43.5797 144.525 43.4884 144.525 43.3976V42.2902H144.801V43.3175C144.801 43.4281 144.812 43.5306 144.833 43.6251C144.854 43.7195 144.888 43.8022 144.934 43.873C144.981 43.9426 145.041 43.9967 145.114 44.0352C145.189 44.0738 145.279 44.093 145.385 44.093C145.482 44.093 145.567 44.0763 145.64 44.0427C145.715 44.0091 145.777 43.9613 145.827 43.8991C145.878 43.8358 145.916 43.7593 145.942 43.6698C145.968 43.5791 145.981 43.4772 145.981 43.3641L146.175 43.407C146.175 43.6133 146.139 43.7867 146.067 43.9271C145.995 44.0676 145.896 44.1738 145.769 44.2459C145.642 44.318 145.497 44.354 145.332 44.354ZM146.009 44.3037V43.8078H145.981V42.2902H146.255V44.3037H146.009ZM147.628 44.3596C147.432 44.3596 147.262 44.3161 147.118 44.2291C146.975 44.1421 146.863 44.0197 146.784 43.8619C146.704 43.704 146.665 43.5188 146.665 43.3063C146.665 43.0863 146.704 42.8961 146.782 42.7358C146.86 42.5755 146.97 42.4518 147.112 42.3648C147.255 42.2778 147.423 42.2343 147.617 42.2343C147.816 42.2343 147.986 42.2803 148.126 42.3722C148.267 42.463 148.373 42.5935 148.445 42.7638C148.517 42.934 148.55 43.1372 148.544 43.3734H148.264V43.2765C148.259 43.0154 148.203 42.8184 148.095 42.6855C147.988 42.5525 147.831 42.486 147.625 42.486C147.408 42.486 147.243 42.5562 147.127 42.6966C147.013 42.8371 146.955 43.0372 146.955 43.297C146.955 43.5505 147.013 43.7475 147.127 43.888C147.243 44.0272 147.406 44.0968 147.617 44.0968C147.761 44.0968 147.887 44.0638 147.994 43.998C148.102 43.9308 148.187 43.8345 148.249 43.709L148.505 43.8078C148.425 43.983 148.308 44.1191 148.152 44.2161C147.998 44.3118 147.824 44.3596 147.628 44.3596ZM146.858 43.3734V43.1441H148.397V43.3734H146.858ZM148.995 44.3037V41.5631H149.269V44.3037H148.995ZM150.669 44.3596C150.469 44.3596 150.298 44.3143 150.156 44.2235C150.014 44.1328 149.906 44.0073 149.83 43.8469C149.754 43.6866 149.716 43.5027 149.716 43.2951C149.716 43.0838 149.755 42.8986 149.832 42.7395C149.909 42.5804 150.018 42.4568 150.16 42.3685C150.303 42.279 150.472 42.2343 150.669 42.2343C150.87 42.2343 151.042 42.2796 151.183 42.3704C151.326 42.4599 151.435 42.5848 151.509 42.7451C151.585 42.9042 151.623 43.0875 151.623 43.2951C151.623 43.5064 151.585 43.6922 151.509 43.8525C151.434 44.0116 151.324 44.1359 151.181 44.2254C151.038 44.3149 150.868 44.3596 150.669 44.3596ZM150.669 44.0968C150.892 44.0968 151.059 44.0228 151.168 43.8749C151.278 43.7258 151.332 43.5325 151.332 43.2951C151.332 43.0515 151.277 42.8576 151.166 42.7134C151.057 42.5692 150.891 42.4972 150.669 42.4972C150.518 42.4972 150.394 42.5313 150.296 42.5997C150.199 42.6668 150.126 42.7607 150.078 42.8812C150.03 43.0005 150.007 43.1385 150.007 43.2951C150.007 43.5375 150.063 43.732 150.175 43.8786C150.286 44.0241 150.451 44.0968 150.669 44.0968ZM152.768 44.3578C152.531 44.3578 152.337 44.3068 152.184 44.2049C152.032 44.103 151.939 43.9613 151.904 43.7798L152.184 43.7332C152.214 43.8476 152.282 43.9389 152.387 44.0073C152.494 44.0744 152.626 44.108 152.783 44.108C152.935 44.108 153.056 44.0763 153.144 44.0129C153.232 43.9482 153.277 43.8606 153.277 43.75C153.277 43.6879 153.262 43.6375 153.234 43.599C153.206 43.5592 153.15 43.5225 153.064 43.489C152.978 43.4554 152.85 43.4157 152.68 43.3697C152.497 43.32 152.354 43.2702 152.251 43.2205C152.148 43.1708 152.075 43.1136 152.031 43.049C151.988 42.9831 151.966 42.903 151.966 42.8085C151.966 42.6942 151.998 42.5941 152.063 42.5083C152.128 42.4213 152.217 42.3542 152.331 42.307C152.446 42.2585 152.579 42.2343 152.73 42.2343C152.882 42.2343 153.017 42.2591 153.137 42.3089C153.257 42.3573 153.354 42.4257 153.428 42.5139C153.501 42.6022 153.544 42.7047 153.558 42.8216L153.278 42.8719C153.26 42.7538 153.201 42.6606 153.101 42.5922C153.003 42.5226 152.878 42.4866 152.727 42.4841C152.584 42.4804 152.467 42.5077 152.378 42.5661C152.288 42.6233 152.244 42.6997 152.244 42.7955C152.244 42.8489 152.26 42.8949 152.292 42.9334C152.325 42.9707 152.383 43.0061 152.467 43.0397C152.553 43.0732 152.675 43.1099 152.833 43.1497C153.018 43.1969 153.163 43.2466 153.269 43.2988C153.375 43.351 153.45 43.4126 153.495 43.4834C153.539 43.5542 153.562 43.6419 153.562 43.7463C153.562 43.9364 153.491 44.0862 153.349 44.1956C153.209 44.3037 153.015 44.3578 152.768 44.3578Z" fill="#232F4E"/>
<path d="M143.514 50.9648C143.337 50.9648 143.17 50.9316 143.014 50.8653C142.858 50.7974 142.723 50.7013 142.609 50.577C142.496 50.4527 142.414 50.306 142.363 50.137L142.865 49.9978C142.913 50.1519 142.997 50.2704 143.116 50.3533C143.235 50.4345 143.368 50.4742 143.514 50.4726C143.645 50.4709 143.76 50.4403 143.859 50.3806C143.959 50.3209 144.037 50.2406 144.093 50.1395C144.149 50.0367 144.178 49.9191 144.178 49.7865C144.178 49.5876 144.115 49.4236 143.991 49.2943C143.868 49.165 143.708 49.1004 143.509 49.1004C143.453 49.1004 143.395 49.1087 143.335 49.1253C143.277 49.1418 143.222 49.1634 143.171 49.1899L142.927 48.7797L144.19 47.6636L144.245 47.8128H142.505V47.3181H144.657V47.8128L143.608 48.822L143.603 48.653C143.829 48.653 144.024 48.7035 144.19 48.8046C144.356 48.904 144.483 49.0399 144.573 49.2123C144.664 49.383 144.71 49.5744 144.71 49.7865C144.71 50.0152 144.656 50.2182 144.548 50.3955C144.442 50.5728 144.299 50.712 144.118 50.8131C143.939 50.9142 143.738 50.9648 143.514 50.9648ZM145.307 51.4918L145.34 51.2606C145.411 51.2655 145.467 51.2523 145.506 51.2208C145.546 51.1893 145.573 51.1454 145.586 51.0891C145.599 51.0327 145.602 50.9689 145.593 50.8976H145.307V50.2986H145.857V50.9474C145.857 51.1429 145.81 51.2904 145.715 51.3898C145.622 51.4893 145.486 51.5232 145.307 51.4918ZM148.315 50.8976V50.2737H146.7V49.7815L147.863 47.3181H148.457L147.294 49.7815H148.315V48.8121H148.842V49.7815H149.198V50.2737H148.842V50.8976H148.315ZM150.856 50.9722C150.672 50.9722 150.501 50.9349 150.342 50.8604C150.184 50.7841 150.049 50.6797 149.936 50.5471C149.824 50.4129 149.743 50.2588 149.695 50.0848L150.195 49.9506C150.223 50.0566 150.271 50.1486 150.339 50.2265C150.409 50.3044 150.49 50.3649 150.583 50.4079C150.675 50.4494 150.772 50.4701 150.871 50.4701C151.002 50.4701 151.12 50.4386 151.227 50.3756C151.334 50.3127 151.419 50.2281 151.48 50.1221C151.543 50.016 151.575 49.8992 151.575 49.7716C151.575 49.6407 151.542 49.5222 151.478 49.4161C151.415 49.31 151.329 49.2264 151.222 49.165C151.115 49.1021 150.999 49.0706 150.871 49.0706C150.725 49.0706 150.602 49.0996 150.501 49.1576C150.4 49.2156 150.321 49.2827 150.265 49.3589L149.812 49.1998L149.921 47.3181H151.853V47.8078H150.187L150.399 47.6114L150.312 49.0209L150.21 48.8891C150.304 48.7947 150.417 48.7226 150.548 48.6729C150.679 48.6231 150.809 48.5983 150.938 48.5983C151.16 48.5983 151.358 48.6497 151.532 48.7524C151.708 48.8551 151.846 48.9952 151.947 49.1725C152.048 49.3482 152.099 49.5479 152.099 49.7716C152.099 49.9936 152.042 50.1958 151.928 50.3781C151.813 50.5587 151.662 50.7029 151.473 50.8106C151.284 50.9184 151.078 50.9722 150.856 50.9722ZM153.924 50.9722C153.692 50.9722 153.483 50.9175 153.297 50.8082C153.112 50.6971 152.964 50.5455 152.855 50.3533C152.747 50.161 152.693 49.9423 152.693 49.697V48.556C152.693 48.2958 152.747 48.0671 152.855 47.8699C152.964 47.6727 153.115 47.5194 153.307 47.4101C153.501 47.3007 153.724 47.246 153.976 47.246C154.165 47.246 154.342 47.2816 154.508 47.3529C154.674 47.4242 154.817 47.5302 154.938 47.6711L154.558 48.0265C154.49 47.9387 154.404 47.8691 154.301 47.8177C154.2 47.7647 154.092 47.7382 153.976 47.7382C153.827 47.7382 153.696 47.7738 153.583 47.8451C153.47 47.9147 153.382 48.0067 153.317 48.121C153.254 48.2354 153.223 48.358 153.223 48.4889V49.1452L153.121 49.0308C153.223 48.8966 153.351 48.7905 153.504 48.7126C153.656 48.6347 153.819 48.5958 153.993 48.5958C154.215 48.5958 154.413 48.648 154.587 48.7524C154.763 48.8551 154.901 48.9952 155 49.1725C155.101 49.3498 155.152 49.5495 155.152 49.7716C155.152 49.9953 155.095 50.1983 154.983 50.3806C154.872 50.5612 154.722 50.7054 154.535 50.8131C154.35 50.9192 154.146 50.9722 153.924 50.9722ZM153.924 50.4726C154.053 50.4726 154.171 50.4411 154.277 50.3781C154.383 50.3151 154.467 50.2306 154.53 50.1246C154.593 50.0185 154.625 49.9008 154.625 49.7716C154.625 49.6423 154.593 49.5247 154.53 49.4186C154.469 49.3125 154.385 49.228 154.279 49.165C154.173 49.1021 154.055 49.0706 153.926 49.0706C153.797 49.0706 153.678 49.1021 153.571 49.165C153.465 49.228 153.38 49.3125 153.317 49.4186C153.254 49.5247 153.223 49.6423 153.223 49.7716C153.223 49.8992 153.254 50.016 153.317 50.1221C153.38 50.2281 153.465 50.3135 153.571 50.3781C153.677 50.4411 153.794 50.4726 153.924 50.4726Z" fill="#232F4E"/>
<g clip-path="url(#clip1_1610_34291)">
<path d="M132.619 44.51C132.415 44.3509 132.117 44.4963 132.117 44.7548V48.2782C132.117 48.5728 132.489 48.7021 132.672 48.4709L133.54 47.373C133.572 47.3325 133.612 47.2999 133.659 47.2774C133.705 47.2549 133.756 47.2433 133.808 47.2433H135.227C135.523 47.2433 135.652 46.8688 135.418 46.6873L132.619 44.5098V44.51Z" fill="white"/>
</g>
<rect x="137" y="18.567" width="4.35015" height="4.35015" rx="0.932175" fill="#494CD4"/>
<path d="M144.753 22.2421L143.855 19.5574H144.199L144.981 21.8897L145.769 19.5574H146.114L145.216 22.2421H144.753ZM146.359 19.8725V19.5294H146.691V19.8725H146.359ZM146.359 22.2421V20.2286H146.691V22.2421H146.359ZM147.823 22.298C147.672 22.298 147.546 22.2707 147.444 22.216C147.344 22.16 147.267 22.0867 147.215 21.996C147.164 21.9052 147.138 21.8058 147.138 21.6977C147.138 21.592 147.158 21.5007 147.198 21.4236C147.239 21.3453 147.296 21.2807 147.37 21.2297C147.443 21.1775 147.531 21.1365 147.633 21.1067C147.728 21.0806 147.835 21.0582 147.953 21.0396C148.072 21.0197 148.193 21.0017 148.315 20.9855C148.437 20.9693 148.55 20.9538 148.656 20.9389L148.537 21.0079C148.54 20.8289 148.504 20.6965 148.429 20.6108C148.354 20.525 148.225 20.4821 148.041 20.4821C147.919 20.4821 147.812 20.5101 147.72 20.566C147.629 20.6207 147.565 20.7102 147.528 20.8345L147.213 20.7394C147.262 20.5629 147.355 20.4243 147.495 20.3236C147.634 20.223 147.817 20.1726 148.045 20.1726C148.227 20.1726 148.384 20.2056 148.514 20.2714C148.646 20.3361 148.741 20.4343 148.798 20.566C148.826 20.6282 148.844 20.6959 148.852 20.7692C148.859 20.8413 148.863 20.9171 148.863 20.9967V22.2421H148.568V21.7592L148.637 21.8039C148.562 21.9668 148.455 22.0898 148.319 22.1731C148.183 22.2564 148.018 22.298 147.823 22.298ZM147.873 22.0202C147.992 22.0202 148.095 21.9991 148.182 21.9568C148.271 21.9133 148.342 21.8568 148.395 21.7872C148.448 21.7163 148.483 21.6393 148.499 21.556C148.518 21.4938 148.528 21.4249 148.529 21.349C148.532 21.272 148.533 21.2129 148.533 21.1719L148.649 21.2223C148.54 21.2372 148.434 21.2515 148.33 21.2651C148.225 21.2788 148.127 21.2937 148.033 21.3099C147.94 21.3248 147.856 21.3428 147.782 21.364C147.727 21.3814 147.675 21.4037 147.627 21.4311C147.58 21.4584 147.541 21.4938 147.511 21.5373C147.483 21.5796 147.468 21.6324 147.468 21.6958C147.468 21.7505 147.482 21.8027 147.509 21.8524C147.538 21.9021 147.582 21.9425 147.64 21.9736C147.7 22.0047 147.777 22.0202 147.873 22.0202ZM149.049 23.137V22.82H149.158C149.254 22.82 149.328 22.7958 149.379 22.7473C149.43 22.6988 149.456 22.6218 149.456 22.5161V20.2286H149.788V22.6299C149.788 22.7952 149.745 22.9207 149.659 23.0064C149.575 23.0935 149.449 23.137 149.282 23.137H149.049ZM149.456 19.8725V19.5294H149.788V19.8725H149.456ZM151.2 22.298C151.002 22.298 150.829 22.2545 150.681 22.1675C150.535 22.0792 150.42 21.9568 150.338 21.8002C150.256 21.6424 150.215 21.4584 150.215 21.2484C150.215 21.0284 150.256 20.8382 150.337 20.6779C150.417 20.5163 150.53 20.392 150.674 20.305C150.819 20.2168 150.99 20.1726 151.185 20.1726C151.387 20.1726 151.56 20.2192 151.701 20.3125C151.844 20.4057 151.951 20.5387 152.022 20.7114C152.094 20.8842 152.125 21.0899 152.115 21.3285H151.78V21.2092C151.776 20.9619 151.725 20.7773 151.629 20.6555C151.532 20.5325 151.387 20.4709 151.196 20.4709C150.991 20.4709 150.835 20.5368 150.728 20.6686C150.621 20.8003 150.568 20.9892 150.568 21.2353C150.568 21.4727 150.621 21.6567 150.728 21.7872C150.835 21.9177 150.987 21.9829 151.185 21.9829C151.318 21.9829 151.433 21.9525 151.532 21.8916C151.63 21.8307 151.707 21.743 151.763 21.6287L152.082 21.7387C152.003 21.9164 151.885 22.0544 151.727 22.1526C151.571 22.2495 151.395 22.298 151.2 22.298ZM150.456 21.3285V21.0619H151.944V21.3285H150.456ZM153.291 22.2961C153.051 22.2961 152.854 22.2439 152.7 22.1395C152.547 22.0339 152.453 21.8866 152.418 21.6977L152.758 21.6436C152.785 21.753 152.848 21.84 152.946 21.9046C153.044 21.968 153.166 21.9997 153.311 21.9997C153.449 21.9997 153.557 21.9711 153.636 21.9139C153.714 21.8568 153.753 21.7791 153.753 21.6809C153.753 21.6237 153.74 21.5777 153.714 21.5429C153.688 21.5069 153.634 21.4733 153.552 21.4423C153.471 21.4112 153.349 21.3739 153.185 21.3304C153.007 21.2832 152.867 21.2341 152.765 21.1831C152.663 21.1322 152.59 21.0731 152.547 21.006C152.503 20.9389 152.482 20.8575 152.482 20.7618C152.482 20.6437 152.514 20.5405 152.579 20.4523C152.643 20.3628 152.733 20.2938 152.849 20.2453C152.966 20.1969 153.101 20.1726 153.255 20.1726C153.408 20.1726 153.545 20.1969 153.666 20.2453C153.786 20.2938 153.883 20.3628 153.956 20.4523C154.031 20.5405 154.075 20.6437 154.089 20.7618L153.75 20.8233C153.733 20.7152 153.681 20.63 153.593 20.5679C153.506 20.5057 153.393 20.4728 153.255 20.4691C153.125 20.4641 153.019 20.4871 152.937 20.538C152.856 20.589 152.815 20.658 152.815 20.745C152.815 20.7935 152.83 20.8351 152.86 20.8699C152.891 20.9047 152.948 20.9376 153.03 20.9687C153.113 20.9998 153.234 21.0352 153.392 21.075C153.569 21.1197 153.709 21.1688 153.811 21.2223C153.914 21.2745 153.988 21.3366 154.031 21.4087C154.075 21.4795 154.096 21.5672 154.096 21.6716C154.096 21.8655 154.025 22.0183 153.882 22.1302C153.739 22.2408 153.542 22.2961 153.291 22.2961ZM155.254 22.2421V19.5574H155.59L156.99 21.6548V19.5574H157.325V22.2421H156.99L155.59 20.1428V22.2421H155.254ZM158.419 22.298C158.268 22.298 158.142 22.2707 158.04 22.216C157.94 22.16 157.863 22.0867 157.811 21.996C157.76 21.9052 157.735 21.8058 157.735 21.6977C157.735 21.592 157.755 21.5007 157.794 21.4236C157.835 21.3453 157.893 21.2807 157.966 21.2297C158.039 21.1775 158.127 21.1365 158.229 21.1067C158.324 21.0806 158.431 21.0582 158.549 21.0396C158.669 21.0197 158.789 21.0017 158.911 20.9855C159.033 20.9693 159.147 20.9538 159.252 20.9389L159.133 21.0079C159.137 20.8289 159.101 20.6965 159.025 20.6108C158.95 20.525 158.821 20.4821 158.637 20.4821C158.515 20.4821 158.408 20.5101 158.316 20.566C158.226 20.6207 158.162 20.7102 158.124 20.8345L157.809 20.7394C157.858 20.5629 157.952 20.4243 158.091 20.3236C158.23 20.223 158.413 20.1726 158.641 20.1726C158.823 20.1726 158.98 20.2056 159.111 20.2714C159.242 20.3361 159.337 20.4343 159.394 20.566C159.423 20.6282 159.441 20.6959 159.448 20.7692C159.455 20.8413 159.459 20.9171 159.459 20.9967V22.2421H159.165V21.7592L159.234 21.8039C159.158 21.9668 159.052 22.0898 158.915 22.1731C158.779 22.2564 158.614 22.298 158.419 22.298ZM158.469 22.0202C158.589 22.0202 158.692 21.9991 158.779 21.9568C158.867 21.9133 158.938 21.8568 158.991 21.7872C159.045 21.7163 159.079 21.6393 159.096 21.556C159.114 21.4938 159.124 21.4249 159.125 21.349C159.128 21.272 159.129 21.2129 159.129 21.1719L159.245 21.2223C159.137 21.2372 159.03 21.2515 158.926 21.2651C158.822 21.2788 158.723 21.2937 158.63 21.3099C158.536 21.3248 158.452 21.3428 158.378 21.364C158.323 21.3814 158.272 21.4037 158.223 21.4311C158.176 21.4584 158.137 21.4938 158.108 21.5373C158.079 21.5796 158.065 21.6324 158.065 21.6958C158.065 21.7505 158.078 21.8027 158.106 21.8524C158.134 21.9021 158.178 21.9425 158.236 21.9736C158.296 22.0047 158.374 22.0202 158.469 22.0202ZM160.792 22.298C160.588 22.298 160.415 22.2526 160.272 22.1619C160.13 22.0699 160.022 21.9438 159.948 21.7834C159.873 21.6231 159.835 21.4404 159.832 21.2353C159.835 21.0253 159.874 20.8407 159.95 20.6816C160.027 20.5213 160.137 20.3964 160.28 20.3069C160.422 20.2174 160.595 20.1726 160.796 20.1726C161.008 20.1726 161.191 20.2248 161.344 20.3292C161.498 20.4336 161.601 20.5766 161.654 20.758L161.325 20.8569C161.283 20.74 161.214 20.6493 161.118 20.5847C161.024 20.52 160.915 20.4877 160.792 20.4877C160.654 20.4877 160.541 20.52 160.451 20.5847C160.362 20.648 160.295 20.7363 160.252 20.8494C160.208 20.9613 160.186 21.0899 160.184 21.2353C160.187 21.459 160.238 21.6399 160.339 21.7778C160.441 21.9146 160.592 21.9829 160.792 21.9829C160.924 21.9829 161.033 21.9531 161.12 21.8934C161.207 21.8325 161.273 21.7449 161.318 21.6306L161.654 21.7182C161.584 21.9059 161.475 22.0494 161.327 22.1488C161.179 22.2483 161.001 22.298 160.792 22.298ZM162.017 19.8725V19.5294H162.349V19.8725H162.017ZM162.017 22.2421V20.2286H162.349V22.2421H162.017ZM163.766 22.298C163.565 22.298 163.393 22.2526 163.247 22.1619C163.103 22.0712 162.992 21.9456 162.914 21.7853C162.835 21.625 162.796 21.441 162.796 21.2335C162.796 21.0222 162.836 20.837 162.915 20.6779C162.995 20.5188 163.107 20.3951 163.253 20.3069C163.398 20.2174 163.569 20.1726 163.766 20.1726C163.967 20.1726 164.14 20.218 164.286 20.3087C164.431 20.3982 164.542 20.5231 164.619 20.6835C164.698 20.8426 164.737 21.0259 164.737 21.2335C164.737 21.4435 164.698 21.6287 164.619 21.789C164.541 21.9481 164.429 22.073 164.284 22.1638C164.138 22.2533 163.966 22.298 163.766 22.298ZM163.766 21.9829C163.974 21.9829 164.13 21.9133 164.232 21.7741C164.334 21.6349 164.385 21.4547 164.385 21.2335C164.385 21.006 164.333 20.8252 164.23 20.6909C164.127 20.5554 163.972 20.4877 163.766 20.4877C163.625 20.4877 163.51 20.5194 163.419 20.5828C163.328 20.6462 163.26 20.7338 163.216 20.8457C163.171 20.9575 163.148 21.0868 163.148 21.2335C163.148 21.4597 163.201 21.6411 163.305 21.7778C163.409 21.9146 163.563 21.9829 163.766 21.9829ZM166.581 22.2421V21.2335C166.581 21.1377 166.572 21.0458 166.555 20.9575C166.539 20.8693 166.51 20.7904 166.467 20.7208C166.426 20.6499 166.37 20.594 166.3 20.553C166.23 20.5119 166.142 20.4914 166.035 20.4914C165.952 20.4914 165.876 20.5057 165.807 20.5343C165.74 20.5617 165.682 20.6039 165.634 20.6611C165.585 20.7183 165.548 20.7904 165.52 20.8774C165.494 20.9631 165.481 21.0644 165.481 21.1813L165.263 21.1141C165.263 20.919 165.298 20.7518 165.367 20.6126C165.438 20.4722 165.537 20.3647 165.664 20.2901C165.792 20.2143 165.942 20.1764 166.115 20.1764C166.245 20.1764 166.357 20.1969 166.449 20.2379C166.541 20.2789 166.617 20.3336 166.678 20.402C166.739 20.4691 166.787 20.5449 166.822 20.6294C166.856 20.7127 166.881 20.7978 166.894 20.8848C166.909 20.9706 166.917 21.052 166.917 21.129V22.2421H166.581ZM165.145 22.2421V20.2286H165.444V20.7674H165.481V22.2421H165.145ZM167.974 22.298C167.823 22.298 167.697 22.2707 167.595 22.216C167.495 22.16 167.418 22.0867 167.366 21.996C167.315 21.9052 167.289 21.8058 167.289 21.6977C167.289 21.592 167.309 21.5007 167.349 21.4236C167.39 21.3453 167.447 21.2807 167.521 21.2297C167.594 21.1775 167.682 21.1365 167.784 21.1067C167.879 21.0806 167.986 21.0582 168.104 21.0396C168.224 21.0197 168.344 21.0017 168.466 20.9855C168.588 20.9693 168.701 20.9538 168.807 20.9389L168.688 21.0079C168.691 20.8289 168.655 20.6965 168.58 20.6108C168.505 20.525 168.376 20.4821 168.192 20.4821C168.07 20.4821 167.963 20.5101 167.871 20.566C167.78 20.6207 167.716 20.7102 167.679 20.8345L167.364 20.7394C167.413 20.5629 167.506 20.4243 167.646 20.3236C167.785 20.223 167.968 20.1726 168.196 20.1726C168.378 20.1726 168.535 20.2056 168.665 20.2714C168.797 20.3361 168.892 20.4343 168.949 20.566C168.977 20.6282 168.995 20.6959 169.003 20.7692C169.01 20.8413 169.014 20.9171 169.014 20.9967V22.2421H168.719V21.7592L168.788 21.8039C168.713 21.9668 168.606 22.0898 168.47 22.1731C168.334 22.2564 168.169 22.298 167.974 22.298ZM168.024 22.0202C168.143 22.0202 168.246 21.9991 168.334 21.9568C168.422 21.9133 168.493 21.8568 168.546 21.7872C168.599 21.7163 168.634 21.6393 168.65 21.556C168.669 21.4938 168.679 21.4249 168.68 21.349C168.683 21.272 168.684 21.2129 168.684 21.1719L168.8 21.2223C168.691 21.2372 168.585 21.2515 168.481 21.2651C168.376 21.2788 168.278 21.2937 168.184 21.3099C168.091 21.3248 168.007 21.3428 167.933 21.364C167.878 21.3814 167.826 21.4037 167.778 21.4311C167.731 21.4584 167.692 21.4938 167.662 21.5373C167.634 21.5796 167.619 21.6324 167.619 21.6958C167.619 21.7505 167.633 21.8027 167.66 21.8524C167.689 21.9021 167.733 21.9425 167.791 21.9736C167.851 22.0047 167.928 22.0202 168.024 22.0202ZM169.536 22.2421V19.5015H169.868V22.2421H169.536ZM171.3 22.298C171.102 22.298 170.929 22.2545 170.781 22.1675C170.635 22.0792 170.52 21.9568 170.438 21.8002C170.356 21.6424 170.315 21.4584 170.315 21.2484C170.315 21.0284 170.356 20.8382 170.437 20.6779C170.517 20.5163 170.63 20.392 170.774 20.305C170.919 20.2168 171.09 20.1726 171.285 20.1726C171.487 20.1726 171.66 20.2192 171.801 20.3125C171.944 20.4057 172.051 20.5387 172.122 20.7114C172.194 20.8842 172.225 21.0899 172.215 21.3285H171.88V21.2092C171.876 20.9619 171.826 20.7773 171.729 20.6555C171.632 20.5325 171.487 20.4709 171.296 20.4709C171.091 20.4709 170.935 20.5368 170.828 20.6686C170.721 20.8003 170.668 20.9892 170.668 21.2353C170.668 21.4727 170.721 21.6567 170.828 21.7872C170.935 21.9177 171.087 21.9829 171.285 21.9829C171.418 21.9829 171.533 21.9525 171.632 21.8916C171.73 21.8307 171.807 21.743 171.863 21.6287L172.182 21.7387C172.103 21.9164 171.985 22.0544 171.827 22.1526C171.671 22.2495 171.495 22.298 171.3 22.298ZM170.556 21.3285V21.0619H172.044V21.3285H170.556ZM173.391 22.2961C173.151 22.2961 172.954 22.2439 172.8 22.1395C172.647 22.0339 172.553 21.8866 172.518 21.6977L172.858 21.6436C172.885 21.753 172.948 21.84 173.046 21.9046C173.144 21.968 173.266 21.9997 173.411 21.9997C173.549 21.9997 173.658 21.9711 173.736 21.9139C173.814 21.8568 173.853 21.7791 173.853 21.6809C173.853 21.6237 173.84 21.5777 173.814 21.5429C173.788 21.5069 173.734 21.4733 173.652 21.4423C173.571 21.4112 173.449 21.3739 173.285 21.3304C173.107 21.2832 172.967 21.2341 172.865 21.1831C172.763 21.1322 172.691 21.0731 172.647 21.006C172.604 20.9389 172.582 20.8575 172.582 20.7618C172.582 20.6437 172.614 20.5405 172.679 20.4523C172.743 20.3628 172.833 20.2938 172.949 20.2453C173.066 20.1969 173.201 20.1726 173.355 20.1726C173.508 20.1726 173.645 20.1969 173.766 20.2453C173.886 20.2938 173.983 20.3628 174.056 20.4523C174.131 20.5405 174.175 20.6437 174.189 20.7618L173.85 20.8233C173.833 20.7152 173.781 20.63 173.693 20.5679C173.606 20.5057 173.493 20.4728 173.355 20.4691C173.225 20.4641 173.119 20.4871 173.037 20.538C172.956 20.589 172.915 20.658 172.915 20.745C172.915 20.7935 172.93 20.8351 172.96 20.8699C172.991 20.9047 173.048 20.9376 173.13 20.9687C173.213 20.9998 173.334 21.0352 173.492 21.075C173.669 21.1197 173.809 21.1688 173.911 21.2223C174.014 21.2745 174.088 21.3366 174.131 21.4087C174.175 21.4795 174.196 21.5672 174.196 21.6716C174.196 21.8655 174.125 22.0183 173.982 22.1302C173.839 22.2408 173.642 22.2961 173.391 22.2961Z" fill="#758EA8"/>
<rect x="183.537" y="18.567" width="4.35015" height="4.35015" rx="0.932175" fill="#AEA1FF"/>
<path d="M191.29 22.2421L190.392 19.5574H190.737L191.518 21.8897L192.306 19.5574H192.651L191.753 22.2421H191.29ZM192.896 19.8725V19.5294H193.228V19.8725H192.896ZM192.896 22.2421V20.2286H193.228V22.2421H192.896ZM194.36 22.298C194.209 22.298 194.083 22.2707 193.981 22.216C193.881 22.16 193.804 22.0867 193.752 21.996C193.701 21.9052 193.676 21.8058 193.676 21.6977C193.676 21.592 193.695 21.5007 193.735 21.4236C193.776 21.3453 193.833 21.2807 193.907 21.2297C193.98 21.1775 194.068 21.1365 194.17 21.1067C194.265 21.0806 194.372 21.0582 194.49 21.0396C194.61 21.0197 194.73 21.0017 194.852 20.9855C194.974 20.9693 195.088 20.9538 195.193 20.9389L195.074 21.0079C195.078 20.8289 195.042 20.6965 194.966 20.6108C194.891 20.525 194.762 20.4821 194.578 20.4821C194.456 20.4821 194.349 20.5101 194.257 20.566C194.167 20.6207 194.103 20.7102 194.065 20.8345L193.75 20.7394C193.799 20.5629 193.892 20.4243 194.032 20.3236C194.171 20.223 194.354 20.1726 194.582 20.1726C194.764 20.1726 194.921 20.2056 195.051 20.2714C195.183 20.3361 195.278 20.4343 195.335 20.566C195.363 20.6282 195.381 20.6959 195.389 20.7692C195.396 20.8413 195.4 20.9171 195.4 20.9967V22.2421H195.106V21.7592L195.175 21.8039C195.099 21.9668 194.992 22.0898 194.856 22.1731C194.72 22.2564 194.555 22.298 194.36 22.298ZM194.41 22.0202C194.529 22.0202 194.633 21.9991 194.72 21.9568C194.808 21.9133 194.879 21.8568 194.932 21.7872C194.986 21.7163 195.02 21.6393 195.037 21.556C195.055 21.4938 195.065 21.4249 195.066 21.349C195.069 21.272 195.07 21.2129 195.07 21.1719L195.186 21.2223C195.078 21.2372 194.971 21.2515 194.867 21.2651C194.762 21.2788 194.664 21.2937 194.57 21.3099C194.477 21.3248 194.393 21.3428 194.319 21.364C194.264 21.3814 194.213 21.4037 194.164 21.4311C194.117 21.4584 194.078 21.4938 194.048 21.5373C194.02 21.5796 194.006 21.6324 194.006 21.6958C194.006 21.7505 194.019 21.8027 194.047 21.8524C194.075 21.9021 194.119 21.9425 194.177 21.9736C194.237 22.0047 194.314 22.0202 194.41 22.0202ZM195.587 23.137V22.82H195.695C195.792 22.82 195.866 22.7958 195.917 22.7473C195.967 22.6988 195.993 22.6218 195.993 22.5161V20.2286H196.325V22.6299C196.325 22.7952 196.282 22.9207 196.196 23.0064C196.112 23.0935 195.986 23.137 195.82 23.137H195.587ZM195.993 19.8725V19.5294H196.325V19.8725H195.993ZM197.737 22.298C197.539 22.298 197.366 22.2545 197.219 22.1675C197.072 22.0792 196.958 21.9568 196.876 21.8002C196.793 21.6424 196.752 21.4584 196.752 21.2484C196.752 21.0284 196.793 20.8382 196.874 20.6779C196.954 20.5163 197.067 20.392 197.211 20.305C197.357 20.2168 197.527 20.1726 197.722 20.1726C197.925 20.1726 198.097 20.2192 198.238 20.3125C198.381 20.4057 198.488 20.5387 198.559 20.7114C198.631 20.8842 198.662 21.0899 198.652 21.3285H198.317V21.2092C198.313 20.9619 198.263 20.7773 198.166 20.6555C198.069 20.5325 197.925 20.4709 197.733 20.4709C197.528 20.4709 197.372 20.5368 197.265 20.6686C197.158 20.8003 197.105 20.9892 197.105 21.2353C197.105 21.4727 197.158 21.6567 197.265 21.7872C197.372 21.9177 197.524 21.9829 197.722 21.9829C197.855 21.9829 197.971 21.9525 198.069 21.8916C198.167 21.8307 198.244 21.743 198.3 21.6287L198.619 21.7387C198.54 21.9164 198.422 22.0544 198.264 22.1526C198.108 22.2495 197.932 22.298 197.737 22.298ZM196.993 21.3285V21.0619H198.481V21.3285H196.993ZM199.828 22.2961C199.588 22.2961 199.391 22.2439 199.237 22.1395C199.084 22.0339 198.99 21.8866 198.955 21.6977L199.295 21.6436C199.322 21.753 199.385 21.84 199.483 21.9046C199.581 21.968 199.703 21.9997 199.848 21.9997C199.986 21.9997 200.095 21.9711 200.173 21.9139C200.251 21.8568 200.29 21.7791 200.29 21.6809C200.29 21.6237 200.277 21.5777 200.251 21.5429C200.225 21.5069 200.171 21.4733 200.089 21.4423C200.008 21.4112 199.886 21.3739 199.722 21.3304C199.544 21.2832 199.404 21.2341 199.302 21.1831C199.2 21.1322 199.128 21.0731 199.084 21.006C199.041 20.9389 199.019 20.8575 199.019 20.7618C199.019 20.6437 199.051 20.5405 199.116 20.4523C199.18 20.3628 199.271 20.2938 199.386 20.2453C199.503 20.1969 199.638 20.1726 199.793 20.1726C199.945 20.1726 200.082 20.1969 200.203 20.2453C200.323 20.2938 200.42 20.3628 200.494 20.4523C200.568 20.5405 200.612 20.6437 200.626 20.7618L200.287 20.8233C200.27 20.7152 200.218 20.63 200.13 20.5679C200.043 20.5057 199.931 20.4728 199.793 20.4691C199.662 20.4641 199.556 20.4871 199.474 20.538C199.393 20.589 199.353 20.658 199.353 20.745C199.353 20.7935 199.367 20.8351 199.397 20.8699C199.428 20.9047 199.485 20.9376 199.567 20.9687C199.65 20.9998 199.771 21.0352 199.929 21.075C200.106 21.1197 200.246 21.1688 200.348 21.2223C200.451 21.2745 200.525 21.3366 200.568 21.4087C200.612 21.4795 200.633 21.5672 200.633 21.6716C200.633 21.8655 200.562 22.0183 200.419 22.1302C200.276 22.2408 200.079 22.2961 199.828 22.2961ZM201.828 22.2421V19.5574H202.16V22.2421H201.828ZM204.153 22.2421V21.2335C204.153 21.1377 204.145 21.0458 204.127 20.9575C204.111 20.8693 204.082 20.7904 204.04 20.7208C203.999 20.6499 203.943 20.594 203.872 20.553C203.802 20.5119 203.714 20.4914 203.607 20.4914C203.524 20.4914 203.448 20.5057 203.38 20.5343C203.312 20.5617 203.255 20.6039 203.206 20.6611C203.158 20.7183 203.12 20.7904 203.092 20.8774C203.066 20.9631 203.053 21.0644 203.053 21.1813L202.835 21.1141C202.835 20.919 202.87 20.7518 202.94 20.6126C203.01 20.4722 203.109 20.3647 203.236 20.2901C203.364 20.2143 203.514 20.1764 203.687 20.1764C203.818 20.1764 203.929 20.1969 204.021 20.2379C204.113 20.2789 204.189 20.3336 204.25 20.402C204.311 20.4691 204.359 20.5449 204.394 20.6294C204.429 20.7127 204.453 20.7978 204.466 20.8848C204.481 20.9706 204.489 21.052 204.489 21.129V22.2421H204.153ZM202.718 22.2421V20.2286H203.016V20.7674H203.053V22.2421H202.718ZM206.098 22.2421C205.978 22.2657 205.86 22.275 205.744 22.27C205.628 22.2663 205.525 22.2433 205.434 22.201C205.343 22.1575 205.274 22.0904 205.227 21.9997C205.187 21.9202 205.166 21.84 205.162 21.7592C205.159 21.6772 205.158 21.5846 205.158 21.4814V19.6693H205.49V21.4665C205.49 21.5485 205.491 21.6188 205.492 21.6772C205.494 21.7356 205.507 21.7859 205.531 21.8282C205.576 21.9077 205.647 21.9543 205.744 21.968C205.842 21.9817 205.96 21.9779 206.098 21.9568V22.2421ZM204.75 20.5026V20.2286H206.098V20.5026H204.75ZM207.295 22.298C207.098 22.298 206.925 22.2545 206.777 22.1675C206.63 22.0792 206.516 21.9568 206.434 21.8002C206.352 21.6424 206.311 21.4584 206.311 21.2484C206.311 21.0284 206.351 20.8382 206.432 20.6779C206.513 20.5163 206.625 20.392 206.77 20.305C206.915 20.2168 207.085 20.1726 207.28 20.1726C207.483 20.1726 207.655 20.2192 207.797 20.3125C207.94 20.4057 208.047 20.5387 208.117 20.7114C208.19 20.8842 208.221 21.0899 208.211 21.3285H207.875V21.2092C207.871 20.9619 207.821 20.7773 207.724 20.6555C207.627 20.5325 207.483 20.4709 207.292 20.4709C207.086 20.4709 206.93 20.5368 206.824 20.6686C206.717 20.8003 206.663 20.9892 206.663 21.2353C206.663 21.4727 206.717 21.6567 206.824 21.7872C206.93 21.9177 207.083 21.9829 207.28 21.9829C207.413 21.9829 207.529 21.9525 207.627 21.8916C207.725 21.8307 207.802 21.743 207.858 21.6287L208.177 21.7387C208.099 21.9164 207.981 22.0544 207.823 22.1526C207.666 22.2495 207.49 22.298 207.295 22.298ZM206.551 21.3285V21.0619H208.039V21.3285H206.551ZM208.626 22.2421V20.2286H208.922V20.7152L208.874 20.6518C208.897 20.5896 208.928 20.5325 208.965 20.4803C209.004 20.4281 209.046 20.3852 209.094 20.3516C209.146 20.3094 209.205 20.277 209.271 20.2547C209.337 20.2323 209.404 20.2192 209.472 20.2155C209.541 20.2105 209.605 20.2149 209.664 20.2286V20.5399C209.595 20.5213 209.518 20.5163 209.435 20.525C209.352 20.5337 209.275 20.5642 209.204 20.6164C209.139 20.6623 209.089 20.7183 209.053 20.7841C209.018 20.85 208.994 20.9215 208.98 20.9985C208.966 21.0744 208.959 21.152 208.959 21.2316V22.2421H208.626ZM211.45 22.2421V21.2335C211.45 21.1377 211.442 21.0458 211.424 20.9575C211.408 20.8693 211.379 20.7904 211.337 20.7208C211.296 20.6499 211.24 20.594 211.169 20.553C211.099 20.5119 211.011 20.4914 210.904 20.4914C210.821 20.4914 210.745 20.5057 210.677 20.5343C210.61 20.5617 210.552 20.6039 210.503 20.6611C210.455 20.7183 210.417 20.7904 210.39 20.8774C210.364 20.9631 210.35 21.0644 210.35 21.1813L210.132 21.1141C210.132 20.919 210.167 20.7518 210.237 20.6126C210.308 20.4722 210.406 20.3647 210.533 20.2901C210.661 20.2143 210.812 20.1764 210.984 20.1764C211.115 20.1764 211.226 20.1969 211.318 20.2379C211.41 20.2789 211.486 20.3336 211.547 20.402C211.608 20.4691 211.656 20.5449 211.691 20.6294C211.726 20.7127 211.75 20.7978 211.764 20.8848C211.779 20.9706 211.786 21.052 211.786 21.129V22.2421H211.45ZM210.015 22.2421V20.2286H210.313V20.7674H210.35V22.2421H210.015ZM212.843 22.298C212.693 22.298 212.567 22.2707 212.465 22.216C212.364 22.16 212.287 22.0867 212.235 21.996C212.184 21.9052 212.159 21.8058 212.159 21.6977C212.159 21.592 212.179 21.5007 212.219 21.4236C212.26 21.3453 212.317 21.2807 212.39 21.2297C212.463 21.1775 212.551 21.1365 212.653 21.1067C212.749 21.0806 212.856 21.0582 212.974 21.0396C213.093 21.0197 213.213 21.0017 213.335 20.9855C213.457 20.9693 213.571 20.9538 213.676 20.9389L213.557 21.0079C213.561 20.8289 213.525 20.6965 213.449 20.6108C213.374 20.525 213.245 20.4821 213.061 20.4821C212.939 20.4821 212.833 20.5101 212.741 20.566C212.65 20.6207 212.586 20.7102 212.549 20.8345L212.233 20.7394C212.282 20.5629 212.376 20.4243 212.515 20.3236C212.654 20.223 212.837 20.1726 213.065 20.1726C213.248 20.1726 213.404 20.2056 213.535 20.2714C213.666 20.3361 213.761 20.4343 213.818 20.566C213.847 20.6282 213.865 20.6959 213.872 20.7692C213.88 20.8413 213.883 20.9171 213.883 20.9967V22.2421H213.589V21.7592L213.658 21.8039C213.582 21.9668 213.476 22.0898 213.339 22.1731C213.204 22.2564 213.038 22.298 212.843 22.298ZM212.893 22.0202C213.013 22.0202 213.116 21.9991 213.203 21.9568C213.291 21.9133 213.362 21.8568 213.415 21.7872C213.469 21.7163 213.504 21.6393 213.52 21.556C213.538 21.4938 213.548 21.4249 213.55 21.349C213.552 21.272 213.553 21.2129 213.553 21.1719L213.669 21.2223C213.561 21.2372 213.455 21.2515 213.35 21.2651C213.246 21.2788 213.147 21.2937 213.054 21.3099C212.961 21.3248 212.877 21.3428 212.802 21.364C212.747 21.3814 212.696 21.4037 212.647 21.4311C212.6 21.4584 212.562 21.4938 212.532 21.5373C212.503 21.5796 212.489 21.6324 212.489 21.6958C212.489 21.7505 212.503 21.8027 212.53 21.8524C212.558 21.9021 212.602 21.9425 212.66 21.9736C212.72 22.0047 212.798 22.0202 212.893 22.0202ZM215.216 22.298C215.013 22.298 214.839 22.2526 214.696 22.1619C214.555 22.0699 214.446 21.9438 214.372 21.7834C214.297 21.6231 214.259 21.4404 214.256 21.2353C214.259 21.0253 214.298 20.8407 214.374 20.6816C214.451 20.5213 214.561 20.3964 214.704 20.3069C214.847 20.2174 215.019 20.1726 215.22 20.1726C215.433 20.1726 215.615 20.2248 215.768 20.3292C215.922 20.4336 216.026 20.5766 216.078 20.758L215.75 20.8569C215.707 20.74 215.638 20.6493 215.543 20.5847C215.448 20.52 215.339 20.4877 215.216 20.4877C215.078 20.4877 214.965 20.52 214.875 20.5847C214.786 20.648 214.719 20.7363 214.676 20.8494C214.632 20.9613 214.61 21.0899 214.609 21.2353C214.611 21.459 214.663 21.6399 214.763 21.7778C214.865 21.9146 215.016 21.9829 215.216 21.9829C215.348 21.9829 215.458 21.9531 215.545 21.8934C215.632 21.8325 215.697 21.7449 215.742 21.6306L216.078 21.7182C216.008 21.9059 215.899 22.0494 215.751 22.1488C215.604 22.2483 215.425 22.298 215.216 22.298ZM216.441 19.8725V19.5294H216.773V19.8725H216.441ZM216.441 22.2421V20.2286H216.773V22.2421H216.441ZM218.19 22.298C217.99 22.298 217.817 22.2526 217.671 22.1619C217.527 22.0712 217.416 21.9456 217.338 21.7853C217.259 21.625 217.22 21.441 217.22 21.2335C217.22 21.0222 217.26 20.837 217.34 20.6779C217.419 20.5188 217.532 20.3951 217.677 20.3069C217.822 20.2174 217.993 20.1726 218.19 20.1726C218.391 20.1726 218.564 20.218 218.71 20.3087C218.855 20.3982 218.967 20.5231 219.044 20.6835C219.122 20.8426 219.161 21.0259 219.161 21.2335C219.161 21.4435 219.122 21.6287 219.044 21.789C218.965 21.9481 218.853 22.073 218.708 22.1638C218.563 22.2533 218.39 22.298 218.19 22.298ZM218.19 21.9829C218.399 21.9829 218.554 21.9133 218.656 21.7741C218.758 21.6349 218.809 21.4547 218.809 21.2335C218.809 21.006 218.757 20.8252 218.654 20.6909C218.551 20.5554 218.396 20.4877 218.19 20.4877C218.049 20.4877 217.934 20.5194 217.843 20.5828C217.752 20.6462 217.684 20.7338 217.64 20.8457C217.595 20.9575 217.573 21.0868 217.573 21.2335C217.573 21.4597 217.625 21.6411 217.729 21.7778C217.834 21.9146 217.987 21.9829 218.19 21.9829ZM221.005 22.2421V21.2335C221.005 21.1377 220.997 21.0458 220.979 20.9575C220.963 20.8693 220.934 20.7904 220.892 20.7208C220.85 20.6499 220.795 20.594 220.724 20.553C220.654 20.5119 220.566 20.4914 220.459 20.4914C220.376 20.4914 220.3 20.5057 220.232 20.5343C220.164 20.5617 220.107 20.6039 220.058 20.6611C220.01 20.7183 219.972 20.7904 219.944 20.8774C219.918 20.9631 219.905 21.0644 219.905 21.1813L219.687 21.1141C219.687 20.919 219.722 20.7518 219.792 20.6126C219.862 20.4722 219.961 20.3647 220.088 20.2901C220.216 20.2143 220.366 20.1764 220.539 20.1764C220.67 20.1764 220.781 20.1969 220.873 20.2379C220.965 20.2789 221.041 20.3336 221.102 20.402C221.163 20.4691 221.211 20.5449 221.246 20.6294C221.281 20.7127 221.305 20.7978 221.318 20.8848C221.333 20.9706 221.341 21.052 221.341 21.129V22.2421H221.005ZM219.57 22.2421V20.2286H219.868V20.7674H219.905V22.2421H219.57ZM222.398 22.298C222.247 22.298 222.121 22.2707 222.019 22.216C221.919 22.16 221.842 22.0867 221.79 21.996C221.739 21.9052 221.714 21.8058 221.714 21.6977C221.714 21.592 221.734 21.5007 221.773 21.4236C221.814 21.3453 221.871 21.2807 221.945 21.2297C222.018 21.1775 222.106 21.1365 222.208 21.1067C222.303 21.0806 222.41 21.0582 222.528 21.0396C222.648 21.0197 222.768 21.0017 222.89 20.9855C223.012 20.9693 223.126 20.9538 223.231 20.9389L223.112 21.0079C223.116 20.8289 223.08 20.6965 223.004 20.6108C222.929 20.525 222.8 20.4821 222.616 20.4821C222.494 20.4821 222.387 20.5101 222.295 20.566C222.205 20.6207 222.141 20.7102 222.103 20.8345L221.788 20.7394C221.837 20.5629 221.931 20.4243 222.07 20.3236C222.209 20.223 222.392 20.1726 222.62 20.1726C222.802 20.1726 222.959 20.2056 223.09 20.2714C223.221 20.3361 223.316 20.4343 223.373 20.566C223.402 20.6282 223.42 20.6959 223.427 20.7692C223.434 20.8413 223.438 20.9171 223.438 20.9967V22.2421H223.144V21.7592L223.213 21.8039C223.137 21.9668 223.031 22.0898 222.894 22.1731C222.758 22.2564 222.593 22.298 222.398 22.298ZM222.448 22.0202C222.568 22.0202 222.671 21.9991 222.758 21.9568C222.846 21.9133 222.917 21.8568 222.97 21.7872C223.024 21.7163 223.058 21.6393 223.075 21.556C223.093 21.4938 223.103 21.4249 223.104 21.349C223.107 21.272 223.108 21.2129 223.108 21.1719L223.224 21.2223C223.116 21.2372 223.009 21.2515 222.905 21.2651C222.801 21.2788 222.702 21.2937 222.609 21.3099C222.515 21.3248 222.431 21.3428 222.357 21.364C222.302 21.3814 222.251 21.4037 222.202 21.4311C222.155 21.4584 222.116 21.4938 222.087 21.5373C222.058 21.5796 222.044 21.6324 222.044 21.6958C222.044 21.7505 222.057 21.8027 222.085 21.8524C222.113 21.9021 222.157 21.9425 222.215 21.9736C222.275 22.0047 222.352 22.0202 222.448 22.0202ZM223.96 22.2421V19.5015H224.292V22.2421H223.96ZM225.724 22.298C225.526 22.298 225.354 22.2545 225.206 22.1675C225.059 22.0792 224.945 21.9568 224.863 21.8002C224.781 21.6424 224.74 21.4584 224.74 21.2484C224.74 21.0284 224.78 20.8382 224.861 20.6779C224.942 20.5163 225.054 20.392 225.198 20.305C225.344 20.2168 225.514 20.1726 225.709 20.1726C225.912 20.1726 226.084 20.2192 226.225 20.3125C226.368 20.4057 226.475 20.5387 226.546 20.7114C226.618 20.8842 226.649 21.0899 226.639 21.3285H226.304V21.2092C226.3 20.9619 226.25 20.7773 226.153 20.6555C226.056 20.5325 225.912 20.4709 225.72 20.4709C225.515 20.4709 225.359 20.5368 225.252 20.6686C225.145 20.8003 225.092 20.9892 225.092 21.2353C225.092 21.4727 225.145 21.6567 225.252 21.7872C225.359 21.9177 225.511 21.9829 225.709 21.9829C225.842 21.9829 225.958 21.9525 226.056 21.8916C226.154 21.8307 226.231 21.743 226.287 21.6287L226.606 21.7387C226.527 21.9164 226.409 22.0544 226.252 22.1526C226.095 22.2495 225.919 22.298 225.724 22.298ZM224.98 21.3285V21.0619H226.468V21.3285H224.98ZM227.815 22.2961C227.575 22.2961 227.378 22.2439 227.224 22.1395C227.071 22.0339 226.977 21.8866 226.943 21.6977L227.282 21.6436C227.309 21.753 227.372 21.84 227.47 21.9046C227.568 21.968 227.69 21.9997 227.836 21.9997C227.974 21.9997 228.082 21.9711 228.16 21.9139C228.238 21.8568 228.277 21.7791 228.277 21.6809C228.277 21.6237 228.264 21.5777 228.238 21.5429C228.212 21.5069 228.158 21.4733 228.076 21.4423C227.995 21.4112 227.873 21.3739 227.709 21.3304C227.531 21.2832 227.391 21.2341 227.289 21.1831C227.187 21.1322 227.115 21.0731 227.071 21.006C227.028 20.9389 227.006 20.8575 227.006 20.7618C227.006 20.6437 227.038 20.5405 227.103 20.4523C227.168 20.3628 227.258 20.2938 227.373 20.2453C227.49 20.1969 227.626 20.1726 227.78 20.1726C227.933 20.1726 228.069 20.1969 228.19 20.2453C228.31 20.2938 228.407 20.3628 228.481 20.4523C228.555 20.5405 228.599 20.6437 228.613 20.7618L228.274 20.8233C228.258 20.7152 228.205 20.63 228.117 20.5679C228.03 20.5057 227.918 20.4728 227.78 20.4691C227.649 20.4641 227.543 20.4871 227.461 20.538C227.38 20.589 227.34 20.658 227.34 20.745C227.34 20.7935 227.355 20.8351 227.384 20.8699C227.415 20.9047 227.472 20.9376 227.554 20.9687C227.637 20.9998 227.758 21.0352 227.916 21.075C228.093 21.1197 228.233 21.1688 228.335 21.2223C228.438 21.2745 228.512 21.3366 228.555 21.4087C228.599 21.4795 228.62 21.5672 228.62 21.6716C228.62 21.8655 228.549 22.0183 228.406 22.1302C228.263 22.2408 228.066 22.2961 227.815 22.2961Z" fill="#758EA8"/>
</g>
<defs>
<filter id="filter0_b_1610_34291" x="129.735" y="27.8747" width="53.7561" height="37.287" filterUnits="userSpaceOnUse" color-interpolation-filters="sRGB">
<feFlood flood-opacity="0" result="BackgroundImageFix"/>
<feGaussianBlur in="BackgroundImageFix" stdDeviation="4.35015"/>
<feComposite in2="SourceAlpha" operator="in" result="effect1_backgroundBlur_1610_34291"/>
<feBlend mode="normal" in="SourceGraphic" in2="effect1_backgroundBlur_1610_34291" result="shape"/>
</filter>
<clipPath id="clip0_1610_34291">
<rect y="-0.00012207" width="243" height="132" rx="5" fill="white"/>
</clipPath>
<clipPath id="clip1_1610_34291">
<rect width="4.9716" height="4.9716" fill="white" transform="translate(130.979 44.033)"/>
</clipPath>
</defs>
</svg>
