<svg width="243" height="132" viewBox="0 0 243 132" fill="none" xmlns="http://www.w3.org/2000/svg">
<g clip-path="url(#clip0_1600_15393)">
<rect width="243" height="132" rx="5" fill="#F4F4F4"/>
<rect x="34.2419" y="7.17699" width="50.7419" height="25" rx="2.17742" fill="#CF2F2F"/>
<rect x="34.2419" y="7.17699" width="50.7419" height="25" rx="2.17742" stroke="#CF2F2F" stroke-width="0.483871"/>
<path d="M45.9573 22.677L47.9856 16.9093H49.116L51.1444 22.677H50.1689L49.7276 21.3841H47.3818L46.9327 22.677H45.9573ZM47.645 20.5712H49.4489L48.4269 17.5518H48.6824L47.645 20.5712ZM53.5819 22.7699C53.1639 22.7699 52.7922 22.6744 52.4671 22.4835C52.1471 22.2873 51.8916 22.0241 51.7006 21.6938C51.5148 21.3635 51.4219 20.9893 51.4219 20.5712C51.4219 20.1583 51.5148 19.7867 51.7006 19.4564C51.8864 19.126 52.1419 18.868 52.4671 18.6822C52.7922 18.4912 53.1639 18.3957 53.5819 18.3957C53.8658 18.3957 54.1316 18.4473 54.3793 18.5505C54.6271 18.6486 54.8413 18.7854 55.0219 18.9609C55.2077 19.1364 55.3445 19.3402 55.4322 19.5725L54.6658 19.9286C54.578 19.7118 54.4361 19.5389 54.24 19.4099C54.049 19.2757 53.8297 19.2086 53.5819 19.2086C53.3445 19.2086 53.1303 19.268 52.9393 19.3867C52.7535 19.5002 52.6064 19.6628 52.498 19.8744C52.3897 20.0809 52.3355 20.3157 52.3355 20.5789C52.3355 20.8422 52.3897 21.0796 52.498 21.2912C52.6064 21.4976 52.7535 21.6602 52.9393 21.7789C53.1303 21.8976 53.3445 21.957 53.5819 21.957C53.8348 21.957 54.0542 21.8925 54.24 21.7635C54.431 21.6293 54.5729 21.4512 54.6658 21.2293L55.4322 21.5931C55.3497 21.8151 55.2155 22.0164 55.0297 22.197C54.849 22.3725 54.6348 22.5118 54.3871 22.6151C54.1393 22.7183 53.871 22.7699 53.5819 22.7699ZM58.0989 22.7235C57.6602 22.7235 57.3196 22.5996 57.077 22.3518C56.8344 22.1041 56.7131 21.7557 56.7131 21.3067V19.2783H55.9776V18.4886H56.0938C56.2899 18.4886 56.4421 18.4318 56.5505 18.3183C56.6589 18.2047 56.7131 18.0499 56.7131 17.8538V17.5286H57.5879V18.4886H58.5402V19.2783H57.5879V21.268C57.5879 21.4125 57.6112 21.5364 57.6576 21.6396C57.7041 21.7376 57.7789 21.8151 57.8821 21.8718C57.9854 21.9235 58.1196 21.9493 58.2847 21.9493C58.326 21.9493 58.3725 21.9467 58.4241 21.9415C58.4757 21.9364 58.5247 21.9312 58.5712 21.926V22.677C58.4989 22.6873 58.4189 22.6976 58.3312 22.708C58.2434 22.7183 58.166 22.7235 58.0989 22.7235ZM59.4249 22.677V18.4886H60.2997V22.677H59.4249ZM59.4249 17.9157V16.9093H60.2997V17.9157H59.4249ZM62.5381 22.677L60.8968 18.4886H61.849L63.111 21.9028H62.7626L64.0245 18.4886H64.9845L63.3355 22.677H62.5381ZM66.6821 22.7699C66.3983 22.7699 66.1479 22.7209 65.9312 22.6228C65.7195 22.5196 65.5544 22.3802 65.4357 22.2047C65.317 22.0241 65.2576 21.8125 65.2576 21.5699C65.2576 21.3428 65.3066 21.1389 65.4047 20.9583C65.5079 20.7776 65.6653 20.6254 65.877 20.5015C66.0886 20.3776 66.3544 20.2899 66.6744 20.2383L68.1299 19.9983V20.6873L66.8447 20.9118C66.6124 20.9531 66.4421 21.028 66.3337 21.1364C66.2253 21.2396 66.1712 21.3738 66.1712 21.5389C66.1712 21.6989 66.2305 21.8306 66.3492 21.9338C66.4731 22.0318 66.6305 22.0809 66.8215 22.0809C67.0589 22.0809 67.2653 22.0293 67.4408 21.926C67.6215 21.8228 67.7608 21.686 67.8589 21.5157C67.957 21.3402 68.006 21.1467 68.006 20.9351V19.8589C68.006 19.6525 67.9286 19.4847 67.7737 19.3557C67.6241 19.2215 67.4228 19.1544 67.1699 19.1544C66.9376 19.1544 66.7337 19.2164 66.5583 19.3402C66.3879 19.4589 66.2615 19.6138 66.1789 19.8047L65.4512 19.4409C65.5286 19.2344 65.655 19.0538 65.8305 18.8989C66.006 18.7389 66.2099 18.6151 66.4421 18.5273C66.6795 18.4396 66.9299 18.3957 67.1931 18.3957C67.5234 18.3957 67.815 18.4576 68.0679 18.5815C68.326 18.7054 68.5247 18.8783 68.6641 19.1002C68.8086 19.317 68.8808 19.5699 68.8808 19.8589V22.677H68.0447V21.9183L68.2228 21.9415C68.1247 22.1118 67.9983 22.2589 67.8434 22.3828C67.6937 22.5067 67.5208 22.6022 67.3247 22.6693C67.1337 22.7364 66.9195 22.7699 66.6821 22.7699ZM71.4521 22.7699C71.0237 22.7699 70.647 22.6641 70.3218 22.4525C70.0018 22.2409 69.7773 21.957 69.6483 21.6009L70.3218 21.2835C70.4353 21.5209 70.5902 21.7093 70.7863 21.8486C70.9876 21.988 71.2095 22.0576 71.4521 22.0576C71.6586 22.0576 71.8263 22.0112 71.9553 21.9183C72.0844 21.8254 72.1489 21.6989 72.1489 21.5389C72.1489 21.4357 72.1205 21.3531 72.0637 21.2912C72.007 21.2241 71.9347 21.1699 71.847 21.1286C71.7644 21.0873 71.6792 21.0564 71.5915 21.0357L70.9334 20.8499C70.5721 20.7467 70.3012 20.5918 70.1205 20.3854C69.945 20.1738 69.8573 19.9286 69.8573 19.6499C69.8573 19.397 69.9218 19.1776 70.0508 18.9918C70.1799 18.8009 70.3579 18.6538 70.585 18.5505C70.8121 18.4473 71.0676 18.3957 71.3515 18.3957C71.7334 18.3957 72.0741 18.4912 72.3734 18.6822C72.6728 18.868 72.8844 19.1286 73.0083 19.4641L72.3347 19.7815C72.2521 19.5802 72.1205 19.4202 71.9399 19.3015C71.7644 19.1828 71.5657 19.1235 71.3437 19.1235C71.1528 19.1235 71.0005 19.1699 70.887 19.2628C70.7734 19.3506 70.7166 19.4667 70.7166 19.6112C70.7166 19.7093 70.7424 19.7918 70.7941 19.8589C70.8457 19.9209 70.9128 19.9725 70.9953 20.0138C71.0779 20.0499 71.1631 20.0809 71.2508 20.1067L71.9321 20.308C72.2779 20.406 72.5437 20.5609 72.7295 20.7725C72.9153 20.9789 73.0083 21.2267 73.0083 21.5157C73.0083 21.7635 72.9412 21.9828 72.807 22.1738C72.6779 22.3596 72.4973 22.5067 72.265 22.6151C72.0328 22.7183 71.7618 22.7699 71.4521 22.7699Z" fill="white"/>
<rect x="90.3064" y="7.17699" width="55.7419" height="25" rx="2.17742" stroke="#D9D9D9" stroke-width="0.483871"/>
<path d="M102.619 22.677V16.9093H103.238V22.677H102.619ZM104.515 22.677V18.5273H105.095V19.3325L104.964 19.3015C105.067 19.0331 105.235 18.8215 105.467 18.6667C105.704 18.5118 105.978 18.4344 106.288 18.4344C106.582 18.4344 106.845 18.5015 107.077 18.6357C107.315 18.7699 107.501 18.9557 107.635 19.1931C107.774 19.4254 107.844 19.6886 107.844 19.9828V22.677H107.263V20.2073C107.263 19.9544 107.217 19.7402 107.124 19.5647C107.036 19.3893 106.91 19.2551 106.744 19.1622C106.584 19.0641 106.399 19.0151 106.187 19.0151C105.975 19.0151 105.787 19.0641 105.622 19.1622C105.457 19.2551 105.328 19.3918 105.235 19.5725C105.142 19.748 105.095 19.9596 105.095 20.2073V22.677H104.515ZM110.153 22.7699C109.89 22.7699 109.655 22.7209 109.448 22.6228C109.242 22.5196 109.079 22.3802 108.961 22.2047C108.842 22.0293 108.782 21.828 108.782 21.6009C108.782 21.3841 108.829 21.188 108.922 21.0125C109.015 20.8318 109.159 20.6796 109.355 20.5557C109.552 20.4318 109.802 20.3441 110.106 20.2925L111.732 20.0215V20.548L110.246 20.7957C109.946 20.8473 109.73 20.9428 109.595 21.0822C109.466 21.2215 109.402 21.3867 109.402 21.5776C109.402 21.7635 109.474 21.9209 109.619 22.0499C109.768 22.1789 109.959 22.2435 110.192 22.2435C110.475 22.2435 110.723 22.1841 110.935 22.0654C111.146 21.9415 111.312 21.7764 111.43 21.5699C111.549 21.3635 111.608 21.1338 111.608 20.8809V19.828C111.608 19.5802 111.518 19.3789 111.337 19.2241C111.157 19.0693 110.922 18.9918 110.633 18.9918C110.38 18.9918 110.158 19.0564 109.967 19.1854C109.776 19.3093 109.634 19.4718 109.541 19.6731L109.015 19.3867C109.092 19.2112 109.213 19.0512 109.379 18.9067C109.549 18.7622 109.742 18.6486 109.959 18.566C110.176 18.4783 110.401 18.4344 110.633 18.4344C110.937 18.4344 111.206 18.4938 111.438 18.6125C111.675 18.7312 111.859 18.8964 111.988 19.108C112.122 19.3144 112.189 19.5544 112.189 19.828V22.677H111.608V21.8486L111.693 21.9338C111.621 22.0886 111.508 22.2306 111.353 22.3596C111.203 22.4835 111.025 22.5841 110.819 22.6615C110.617 22.7338 110.395 22.7699 110.153 22.7699ZM115.28 22.7699C114.872 22.7699 114.514 22.6744 114.204 22.4835C113.894 22.2925 113.652 22.0344 113.476 21.7093C113.301 21.3789 113.213 21.0073 113.213 20.5944C113.213 20.1815 113.301 19.8125 113.476 19.4873C113.652 19.1622 113.894 18.9067 114.204 18.7209C114.514 18.5299 114.872 18.4344 115.28 18.4344C115.538 18.4344 115.781 18.4809 116.008 18.5738C116.235 18.6667 116.436 18.7931 116.612 18.9531C116.787 19.108 116.919 19.2886 117.006 19.4951L116.48 19.766C116.377 19.5441 116.219 19.3635 116.008 19.2241C115.796 19.0847 115.554 19.0151 115.28 19.0151C115.006 19.0151 114.759 19.0847 114.537 19.2241C114.32 19.3583 114.147 19.5467 114.018 19.7893C113.894 20.0267 113.832 20.2976 113.832 20.6022C113.832 20.9015 113.894 21.1725 114.018 21.4151C114.147 21.6525 114.32 21.8409 114.537 21.9802C114.759 22.1196 115.006 22.1893 115.28 22.1893C115.554 22.1893 115.794 22.1196 116 21.9802C116.212 21.8409 116.372 21.6551 116.48 21.4228L117.006 21.7093C116.919 21.9106 116.787 22.0912 116.612 22.2512C116.436 22.4112 116.235 22.5376 116.008 22.6306C115.781 22.7235 115.538 22.7699 115.28 22.7699ZM119.612 22.7235C119.241 22.7235 118.954 22.6151 118.753 22.3983C118.552 22.1815 118.451 21.8718 118.451 21.4693V19.108H117.685V18.5273H117.878C118.054 18.5273 118.193 18.4706 118.296 18.357C118.4 18.2383 118.451 18.0912 118.451 17.9157V17.5673H119.032V18.5273H119.945V19.108H119.032V21.4693C119.032 21.6086 119.052 21.7325 119.094 21.8409C119.135 21.9441 119.205 22.0267 119.303 22.0886C119.406 22.1506 119.543 22.1815 119.713 22.1815C119.754 22.1815 119.803 22.1789 119.86 22.1738C119.917 22.1686 119.966 22.1635 120.007 22.1583V22.677C119.945 22.6925 119.876 22.7028 119.798 22.708C119.721 22.7183 119.659 22.7235 119.612 22.7235ZM121.027 22.677V18.5273H121.608V22.677H121.027ZM121.027 17.7609V16.9093H121.608V17.7609H121.027ZM123.903 22.677L122.285 18.5273H122.935L124.298 22.166H124.089L125.459 18.5273H126.117L124.484 22.677H123.903ZM127.844 22.7699C127.581 22.7699 127.346 22.7209 127.14 22.6228C126.933 22.5196 126.771 22.3802 126.652 22.2047C126.533 22.0293 126.474 21.828 126.474 21.6009C126.474 21.3841 126.52 21.188 126.613 21.0125C126.706 20.8318 126.851 20.6796 127.047 20.5557C127.243 20.4318 127.493 20.3441 127.798 20.2925L129.424 20.0215V20.548L127.937 20.7957C127.638 20.8473 127.421 20.9428 127.287 21.0822C127.158 21.2215 127.093 21.3867 127.093 21.5776C127.093 21.7635 127.166 21.9209 127.31 22.0499C127.46 22.1789 127.651 22.2435 127.883 22.2435C128.167 22.2435 128.415 22.1841 128.626 22.0654C128.838 21.9415 129.003 21.7764 129.122 21.5699C129.24 21.3635 129.3 21.1338 129.3 20.8809V19.828C129.3 19.5802 129.209 19.3789 129.029 19.2241C128.848 19.0693 128.613 18.9918 128.324 18.9918C128.071 18.9918 127.849 19.0564 127.659 19.1854C127.468 19.3093 127.326 19.4718 127.233 19.6731L126.706 19.3867C126.784 19.2112 126.905 19.0512 127.07 18.9067C127.24 18.7622 127.434 18.6486 127.651 18.566C127.868 18.4783 128.092 18.4344 128.324 18.4344C128.629 18.4344 128.897 18.4938 129.129 18.6125C129.367 18.7312 129.55 18.8964 129.679 19.108C129.813 19.3144 129.88 19.5544 129.88 19.828V22.677H129.3V21.8486L129.385 21.9338C129.313 22.0886 129.199 22.2306 129.044 22.3596C128.895 22.4835 128.717 22.5841 128.51 22.6615C128.309 22.7338 128.087 22.7699 127.844 22.7699ZM132.515 22.7699C132.117 22.7699 131.769 22.6693 131.47 22.468C131.17 22.2667 130.953 21.9931 130.819 21.6473L131.307 21.4151C131.426 21.668 131.591 21.8693 131.803 22.0189C132.019 22.1686 132.257 22.2435 132.515 22.2435C132.763 22.2435 132.972 22.1841 133.142 22.0654C133.312 21.9415 133.397 21.7815 133.397 21.5854C133.397 21.4409 133.356 21.3273 133.273 21.2447C133.191 21.157 133.095 21.0899 132.987 21.0435C132.879 20.997 132.783 20.9635 132.701 20.9428L132.104 20.7725C131.723 20.6641 131.446 20.5118 131.276 20.3157C131.106 20.1196 131.021 19.8925 131.021 19.6344C131.021 19.3918 131.083 19.1802 131.206 18.9996C131.33 18.8189 131.498 18.6796 131.71 18.5815C131.921 18.4835 132.156 18.4344 132.414 18.4344C132.765 18.4344 133.083 18.5273 133.366 18.7131C133.655 18.8938 133.859 19.1467 133.978 19.4718L133.483 19.7041C133.379 19.4718 133.23 19.2912 133.033 19.1622C132.843 19.028 132.628 18.9609 132.391 18.9609C132.159 18.9609 131.973 19.0202 131.833 19.1389C131.694 19.2576 131.624 19.4073 131.624 19.588C131.624 19.7273 131.661 19.8383 131.733 19.9209C131.805 20.0035 131.888 20.0654 131.981 20.1067C132.079 20.148 132.164 20.1789 132.236 20.1996L132.925 20.4009C133.261 20.4989 133.521 20.6512 133.707 20.8576C133.898 21.0641 133.993 21.3067 133.993 21.5854C133.993 21.8125 133.929 22.0164 133.8 22.197C133.676 22.3776 133.503 22.5196 133.281 22.6228C133.059 22.7209 132.804 22.7699 132.515 22.7699Z" fill="#292626"/>
<rect x="34.2419" y="40.0483" width="179.516" height="34.8387" rx="1.69355" fill="white"/>
<rect x="34.2419" y="40.0483" width="179.516" height="34.8387" rx="1.69355" stroke="#D6D6D6" stroke-width="0.483871"/>
<path d="M43.2054 53.7057C42.7821 53.7057 42.3873 53.6309 42.0208 53.4812C41.6544 53.3315 41.3344 53.1225 41.0608 52.8541C40.7873 52.5857 40.5731 52.2709 40.4183 51.9096C40.2686 51.5431 40.1937 51.1483 40.1937 50.7251C40.1937 50.2967 40.2686 49.9018 40.4183 49.5405C40.5679 49.1792 40.7795 48.8644 41.0531 48.596C41.3266 48.3276 41.6466 48.1212 42.0131 47.9767C42.3795 47.827 42.777 47.7521 43.2054 47.7521C43.6337 47.7521 44.0312 47.827 44.3976 47.9767C44.7641 48.1263 45.0841 48.3354 45.3576 48.6038C45.6312 48.867 45.8428 49.1792 45.9924 49.5405C46.1473 49.9018 46.2247 50.2967 46.2247 50.7251C46.2247 51.1483 46.1473 51.5431 45.9924 51.9096C45.8376 52.2709 45.6234 52.5857 45.3499 52.8541C45.0763 53.1225 44.7563 53.3315 44.3899 53.4812C44.0286 53.6309 43.6337 53.7057 43.2054 53.7057ZM43.2054 52.7457C43.4892 52.7457 43.7499 52.6967 43.9873 52.5986C44.2247 52.4954 44.4312 52.3534 44.6066 52.1728C44.7873 51.9921 44.9241 51.778 45.017 51.5302C45.115 51.2825 45.1641 51.0141 45.1641 50.7251C45.1641 50.436 45.115 50.1702 45.017 49.9276C44.9241 49.6799 44.7873 49.4657 44.6066 49.2851C44.4312 49.0992 44.2247 48.9573 43.9873 48.8592C43.7499 48.7612 43.4892 48.7121 43.2054 48.7121C42.9266 48.7121 42.6686 48.7612 42.4312 48.8592C42.1937 48.9573 41.9847 49.0992 41.8041 49.2851C41.6286 49.4657 41.4918 49.6799 41.3937 49.9276C41.2957 50.1702 41.2466 50.436 41.2466 50.7251C41.2466 51.0141 41.2957 51.2825 41.3937 51.5302C41.4918 51.778 41.6286 51.9921 41.8041 52.1728C41.9847 52.3534 42.1937 52.4954 42.4312 52.5986C42.6686 52.6967 42.9266 52.7457 43.2054 52.7457ZM47.0758 53.6128V49.4012H48.028V50.338L47.9506 50.1986C48.0487 49.8838 48.2009 49.6644 48.4074 49.5405C48.619 49.4167 48.8719 49.3547 49.1661 49.3547H49.4138V50.2528H49.05C48.7609 50.2528 48.5287 50.3431 48.3532 50.5238C48.1777 50.6992 48.09 50.947 48.09 51.267V53.6128H47.0758ZM51.9301 53.7057C51.5224 53.7057 51.1585 53.6102 50.8385 53.4192C50.5185 53.2231 50.2656 52.9573 50.0798 52.6218C49.894 52.2863 49.8011 51.9147 49.8011 51.507C49.8011 51.0941 49.894 50.7225 50.0798 50.3921C50.2656 50.0618 50.5185 49.7986 50.8385 49.6025C51.1637 49.4063 51.525 49.3083 51.9224 49.3083C52.2424 49.3083 52.5263 49.3728 52.774 49.5018C53.0269 49.6257 53.2256 49.8012 53.3701 50.0283L53.2153 50.2373V47.7521H54.2295V53.6128H53.2695V52.7999L53.3779 53.0012C53.2334 53.2283 53.0321 53.4038 52.774 53.5276C52.516 53.6463 52.2347 53.7057 51.9301 53.7057ZM52.0385 52.7767C52.2708 52.7767 52.4747 52.7225 52.6501 52.6141C52.8256 52.5057 52.9624 52.356 53.0605 52.1651C53.1637 51.9741 53.2153 51.7547 53.2153 51.507C53.2153 51.2644 53.1637 51.0476 53.0605 50.8567C52.9624 50.6605 52.8256 50.5083 52.6501 50.3999C52.4747 50.2915 52.2708 50.2373 52.0385 50.2373C51.8114 50.2373 51.6076 50.2941 51.4269 50.4076C51.2463 50.516 51.1043 50.6657 51.0011 50.8567C50.9031 51.0425 50.854 51.2592 50.854 51.507C50.854 51.7547 50.9031 51.9741 51.0011 52.1651C51.1043 52.356 51.2463 52.5057 51.4269 52.6141C51.6076 52.7225 51.8114 52.7767 52.0385 52.7767ZM57.1705 53.7057C56.7369 53.7057 56.3576 53.6076 56.0324 53.4115C55.7072 53.2154 55.4543 52.9496 55.2737 52.6141C55.0931 52.2786 55.0027 51.907 55.0027 51.4992C55.0027 51.076 55.0931 50.7018 55.2737 50.3767C55.4595 50.0463 55.7098 49.7857 56.0247 49.5947C56.3447 49.4038 56.7008 49.3083 57.0931 49.3083C57.4234 49.3083 57.7124 49.3625 57.9601 49.4709C58.2131 49.5792 58.4272 49.7289 58.6027 49.9199C58.7782 50.1109 58.9124 50.3302 59.0053 50.578C59.0982 50.8205 59.1447 51.0838 59.1447 51.3676C59.1447 51.4399 59.1395 51.5147 59.1292 51.5921C59.124 51.6696 59.1111 51.7367 59.0905 51.7934H55.8389V51.0192H58.5176L58.0376 51.3831C58.084 51.1457 58.0711 50.9341 57.9989 50.7483C57.9318 50.5625 57.8182 50.4154 57.6582 50.307C57.5034 50.1986 57.315 50.1444 57.0931 50.1444C56.8814 50.1444 56.6931 50.1986 56.5279 50.307C56.3627 50.4102 56.2363 50.5651 56.1485 50.7715C56.066 50.9728 56.035 51.218 56.0556 51.507C56.035 51.7651 56.0685 51.9947 56.1563 52.196C56.2492 52.3921 56.3834 52.5444 56.5589 52.6528C56.7395 52.7612 56.946 52.8154 57.1782 52.8154C57.4105 52.8154 57.6066 52.7663 57.7666 52.6683C57.9318 52.5702 58.0608 52.4386 58.1537 52.2734L58.9743 52.676C58.8918 52.8773 58.7627 53.0554 58.5872 53.2102C58.4118 53.3651 58.2027 53.4863 57.9601 53.5741C57.7227 53.6618 57.4595 53.7057 57.1705 53.7057ZM59.9135 53.6128V49.4012H60.8657V50.2296L60.7883 50.0825C60.8864 49.8296 61.0464 49.6386 61.2683 49.5096C61.4954 49.3754 61.7586 49.3083 62.058 49.3083C62.3677 49.3083 62.6412 49.3754 62.8786 49.5096C63.1212 49.6438 63.3096 49.8321 63.4438 50.0747C63.578 50.3121 63.6451 50.5883 63.6451 50.9031V53.6128H62.6309V51.1431C62.6309 50.9573 62.5948 50.7973 62.5225 50.6631C62.4502 50.5289 62.3496 50.4257 62.2206 50.3534C62.0967 50.276 61.9496 50.2373 61.7793 50.2373C61.6141 50.2373 61.467 50.276 61.338 50.3534C61.209 50.4257 61.1083 50.5289 61.0361 50.6631C60.9638 50.7973 60.9277 50.9573 60.9277 51.1431V53.6128H59.9135ZM66.4516 53.6128L66.8155 52.3431H65.8864V51.4528H67.071L67.4968 49.9973H66.5677V49.107H67.7445L68.1084 47.8451H69.1381L68.7742 49.107H70.0516L70.4077 47.8451H71.4374L71.0735 49.107H72.0026V49.9973H70.8181L70.4 51.4528H71.329V52.3431H70.1445L69.7806 53.6128H68.7587L69.1148 52.3431H67.8451L67.4813 53.6128H66.4516ZM68.1006 51.4528H69.3781L69.7884 49.9973H68.5187L68.1006 51.4528ZM73.83 53.6128V48.7431H72.7151V47.8451H74.8829V53.6128H73.83ZM75.9692 53.6128V52.8154L77.5331 51.1818C77.8428 50.8567 78.0802 50.5986 78.2454 50.4076C78.4157 50.2115 78.5344 50.0438 78.6015 49.9044C78.6686 49.7651 78.7021 49.6231 78.7021 49.4786C78.7021 49.236 78.6247 49.0451 78.4699 48.9057C78.3202 48.7663 78.1266 48.6967 77.8892 48.6967C77.6415 48.6967 77.4273 48.7689 77.2466 48.9134C77.066 49.0528 76.9344 49.2592 76.8518 49.5328L75.9305 49.2463C75.9924 48.9418 76.1189 48.6786 76.3099 48.4567C76.5008 48.2296 76.7331 48.0567 77.0066 47.938C77.2854 47.8141 77.5795 47.7521 77.8892 47.7521C78.2608 47.7521 78.586 47.8192 78.8647 47.9534C79.1486 48.0876 79.3679 48.276 79.5228 48.5186C79.6828 48.7612 79.7628 49.0451 79.7628 49.3702C79.7628 49.5767 79.7241 49.7805 79.6466 49.9818C79.5692 50.1831 79.4531 50.3896 79.2983 50.6012C79.1434 50.8076 78.9421 51.0399 78.6944 51.298L77.3395 52.7225H79.8402V53.6128H75.9692ZM82.5009 53.7057C82.1861 53.7057 81.8867 53.6489 81.6029 53.5354C81.3242 53.4167 81.0842 53.2515 80.8829 53.0399C80.6867 52.8231 80.5525 52.5676 80.4803 52.2734L81.4016 51.9483C81.4945 52.2115 81.6364 52.4128 81.8274 52.5521C82.0184 52.6863 82.2429 52.7534 82.5009 52.7534C82.7074 52.7534 82.8855 52.7147 83.0351 52.6373C83.19 52.5599 83.3113 52.4489 83.399 52.3044C83.4867 52.1547 83.5306 51.9792 83.5306 51.778C83.5306 51.5767 83.4867 51.4063 83.399 51.267C83.3164 51.1225 83.1977 51.0115 83.0429 50.9341C82.888 50.8567 82.7048 50.818 82.4932 50.818C82.3951 50.818 82.2919 50.8283 82.1835 50.8489C82.0803 50.8696 81.9874 50.9005 81.9048 50.9418L81.6648 50.4386L83.159 48.7354H80.8055V47.8451H84.3435V48.6734L82.8416 50.4309L82.8571 50.036C83.2029 50.0412 83.5048 50.116 83.7629 50.2605C84.0209 50.4051 84.2222 50.6038 84.3667 50.8567C84.5113 51.1096 84.5835 51.4063 84.5835 51.747C84.5835 52.1186 84.4932 52.4541 84.3125 52.7534C84.1319 53.0476 83.8842 53.2799 83.5693 53.4502C83.2545 53.6205 82.8984 53.7057 82.5009 53.7057Z" fill="#292626"/>
<path d="M41.0328 67.6128V63.0402H40.0844V62.566H41.5747V67.6128H41.0328ZM44.4476 67.6941C44.1224 67.6941 43.8311 67.6286 43.5737 67.4976C43.3208 67.3621 43.1199 67.1792 42.9708 66.9489C42.8263 66.7141 42.754 66.4499 42.754 66.1563C42.754 65.8357 42.8444 65.5489 43.025 65.296C43.2102 65.0431 43.4586 64.867 43.7702 64.7676V64.9099C43.5308 64.806 43.3457 64.6525 43.2147 64.4492C43.0837 64.2415 43.0182 64.0202 43.0182 63.7854C43.0182 63.537 43.0815 63.3157 43.2079 63.1215C43.3344 62.9273 43.5037 62.7738 43.716 62.6609C43.9328 62.5434 44.1766 62.4847 44.4476 62.4847C44.7231 62.4847 44.967 62.5412 45.1792 62.6541C45.3915 62.7625 45.5586 62.916 45.6805 63.1147C45.807 63.3089 45.8702 63.5325 45.8702 63.7854C45.8702 64.0383 45.8024 64.2641 45.667 64.4628C45.5315 64.657 45.3531 64.806 45.1318 64.9099L45.125 64.7676C45.4366 64.867 45.6828 65.0431 45.8634 65.296C46.0486 65.5489 46.1411 65.8357 46.1411 66.1563C46.1411 66.4499 46.0666 66.7141 45.9176 66.9489C45.7731 67.1792 45.5721 67.3621 45.3147 67.4976C45.0618 67.6286 44.7728 67.6941 44.4476 67.6941ZM44.4476 67.2199C44.6779 67.2199 44.8789 67.177 45.0505 67.0912C45.2221 67.0009 45.3553 66.8767 45.4502 66.7186C45.5495 66.556 45.5992 66.3686 45.5992 66.1563C45.5992 65.9441 45.5495 65.7589 45.4502 65.6009C45.3553 65.4383 45.2221 65.3141 45.0505 65.2283C44.8789 65.138 44.6779 65.0928 44.4476 65.0928C44.2173 65.0928 44.014 65.138 43.8379 65.2283C43.6663 65.3141 43.5331 65.4383 43.4382 65.6009C43.3434 65.7589 43.296 65.9441 43.296 66.1563C43.296 66.3686 43.3434 66.556 43.4382 66.7186C43.5331 66.8767 43.6663 67.0009 43.8379 67.0912C44.014 67.177 44.2173 67.2199 44.4476 67.2199ZM44.4476 64.6186C44.6147 64.6186 44.7637 64.5847 44.8947 64.517C45.0257 64.4447 45.1295 64.3476 45.2063 64.2257C45.2876 64.0992 45.3282 63.9525 45.3282 63.7854C45.3282 63.6183 45.2876 63.4738 45.2063 63.3518C45.1295 63.2299 45.0257 63.1351 44.8947 63.0673C44.7637 62.9951 44.6147 62.9589 44.4476 62.9589C44.2805 62.9589 44.1292 62.9951 43.9937 63.0673C43.8628 63.1351 43.7566 63.2299 43.6753 63.3518C43.5986 63.4738 43.5602 63.6183 43.5602 63.7854C43.5602 63.9525 43.5986 64.0992 43.6753 64.2257C43.7566 64.3476 43.8628 64.4447 43.9937 64.517C44.1292 64.5847 44.2805 64.6186 44.4476 64.6186ZM49.8863 67.6941C49.5476 67.6941 49.2427 67.6128 48.9718 67.4502C48.7008 67.2831 48.4863 67.0573 48.3282 66.7728C48.1747 66.4838 48.0979 66.1586 48.0979 65.7973C48.0979 65.4315 48.1747 65.1063 48.3282 64.8218C48.4863 64.5373 48.6985 64.3138 48.965 64.1512C49.2359 63.9841 49.543 63.9005 49.8863 63.9005C50.1979 63.9005 50.4756 63.9683 50.7195 64.1038C50.9634 64.2392 51.1553 64.4221 51.2953 64.6525L51.214 64.7947V62.4847H51.7221V67.6128H51.214V66.7999L51.2953 66.8744C51.1689 67.1363 50.9792 67.3396 50.7263 67.4841C50.4779 67.6241 50.1979 67.6941 49.8863 67.6941ZM49.9134 67.186C50.1572 67.186 50.3763 67.1251 50.5705 67.0031C50.7692 66.8812 50.925 66.7163 51.0379 66.5086C51.1553 66.2963 51.214 66.0592 51.214 65.7973C51.214 65.5354 51.1553 65.3005 51.0379 65.0928C50.925 64.8805 50.7692 64.7134 50.5705 64.5915C50.3763 64.4696 50.1572 64.4086 49.9134 64.4086C49.674 64.4086 49.4572 64.4696 49.263 64.5915C49.0689 64.7134 48.9153 64.8783 48.8024 65.086C48.694 65.2938 48.6398 65.5309 48.6398 65.7973C48.6398 66.0592 48.694 66.2963 48.8024 66.5086C48.9153 66.7163 49.0666 66.8812 49.2563 67.0031C49.4505 67.1251 49.6695 67.186 49.9134 67.186ZM54.4182 67.6941C54.0794 67.6941 53.7723 67.6128 53.4969 67.4502C53.2259 67.2831 53.0114 67.0551 52.8533 66.766C52.6952 66.477 52.6162 66.1496 52.6162 65.7838C52.6162 65.418 52.693 65.0951 52.8465 64.8151C53.0001 64.5305 53.2078 64.307 53.4698 64.1444C53.7362 63.9818 54.0343 63.9005 54.364 63.9005C54.6259 63.9005 54.8585 63.9502 55.0617 64.0496C55.2694 64.1444 55.4456 64.2754 55.5901 64.4425C55.7346 64.6051 55.8452 64.7902 55.922 64.998C55.9988 65.2012 56.0372 65.4112 56.0372 65.628C56.0372 65.6731 56.0349 65.7251 56.0304 65.7838C56.0259 65.838 56.0191 65.8944 56.0101 65.9531H52.9414V65.4789H55.7188L55.4749 65.6821C55.5156 65.4338 55.4862 65.2125 55.3869 65.0183C55.292 64.8196 55.1543 64.6638 54.9736 64.5509C54.793 64.4334 54.5898 64.3747 54.364 64.3747C54.1382 64.3747 53.9282 64.4334 53.734 64.5509C53.5443 64.6683 53.3952 64.8331 53.2869 65.0454C53.1785 65.2531 53.1356 65.5015 53.1582 65.7905C53.1356 66.0796 53.1807 66.3325 53.2936 66.5492C53.4111 66.7615 53.5691 66.9263 53.7678 67.0438C53.9711 67.1612 54.1878 67.2199 54.4182 67.2199C54.6846 67.2199 54.9082 67.1567 55.0888 67.0302C55.2694 66.9038 55.4162 66.7457 55.5291 66.556L55.9627 66.7863C55.8904 66.9489 55.7798 67.1002 55.6307 67.2402C55.4817 67.3757 55.3033 67.4863 55.0956 67.5721C54.8923 67.6534 54.6665 67.6941 54.4182 67.6941ZM58.084 67.6128V63.9818H58.5921V64.6863L58.477 64.6592C58.5673 64.4244 58.714 64.2392 58.9173 64.1038C59.125 63.9683 59.3644 63.9005 59.6353 63.9005C59.8928 63.9005 60.1231 63.9592 60.3263 64.0767C60.534 64.1941 60.6966 64.3567 60.814 64.5644C60.936 64.7676 60.997 64.998 60.997 65.2554V67.6128H60.4889V65.4518C60.4889 65.2305 60.4482 65.0431 60.367 64.8896C60.2902 64.736 60.1795 64.6186 60.035 64.5373C59.895 64.4515 59.7324 64.4086 59.5473 64.4086C59.3621 64.4086 59.1973 64.4515 59.0528 64.5373C58.9082 64.6186 58.7953 64.7383 58.714 64.8963C58.6328 65.0499 58.5921 65.2351 58.5921 65.4518V67.6128H58.084ZM63.6676 67.6941C63.3244 67.6941 63.0128 67.6128 62.7328 67.4502C62.4528 67.2831 62.2292 67.0573 62.0621 66.7728C61.8996 66.4838 61.8183 66.1563 61.8183 65.7905C61.8183 65.4292 61.8996 65.1063 62.0621 64.8218C62.2247 64.5373 62.4438 64.3138 62.7192 64.1512C62.9992 63.9841 63.3154 63.9005 63.6676 63.9005C64.0199 63.9005 64.3338 63.9818 64.6092 64.1444C64.8892 64.307 65.1083 64.5305 65.2663 64.8151C65.4289 65.0996 65.5102 65.4247 65.5102 65.7905C65.5102 66.1609 65.4267 66.4905 65.2596 66.7796C65.0925 67.0641 64.8689 67.2876 64.5889 67.4502C64.3134 67.6128 64.0063 67.6941 63.6676 67.6941ZM63.6676 67.186C63.9115 67.186 64.1305 67.1251 64.3247 67.0031C64.5234 66.8812 64.6792 66.7141 64.7921 66.5018C64.9096 66.2896 64.9683 66.0525 64.9683 65.7905C64.9683 65.5286 64.9096 65.2938 64.7921 65.086C64.6792 64.8783 64.5234 64.7134 64.3247 64.5915C64.1305 64.4696 63.9115 64.4086 63.6676 64.4086C63.4238 64.4086 63.2025 64.4696 63.0038 64.5915C62.8096 64.7134 62.6538 64.8783 62.5363 65.086C62.4189 65.2938 62.3602 65.5286 62.3602 65.7905C62.3602 66.0525 62.4189 66.2896 62.5363 66.5018C62.6538 66.7141 62.8096 66.8812 63.0038 67.0031C63.2025 67.1251 63.4238 67.186 63.6676 67.186ZM67.3088 67.6128L65.893 63.9818H66.462L67.6543 67.1657H67.4714L68.6704 63.9818H69.2462L67.8169 67.6128H67.3088ZM70.862 67.6128V67.2741L72.2711 65.7228C72.5465 65.4202 72.7701 65.1696 72.9417 64.9709C73.1178 64.7721 73.2488 64.5915 73.3346 64.4289C73.4204 64.2663 73.4633 64.0902 73.4633 63.9005C73.4633 63.598 73.3753 63.3654 73.1991 63.2028C73.023 63.0402 72.7882 62.9589 72.4946 62.9589C72.192 62.9589 71.9369 63.0447 71.7291 63.2163C71.5259 63.388 71.3882 63.6273 71.3159 63.9344L70.8214 63.826C70.8801 63.5505 70.9862 63.3134 71.1398 63.1147C71.2933 62.916 71.4853 62.7625 71.7156 62.6541C71.9459 62.5412 72.2033 62.4847 72.4878 62.4847C72.7904 62.4847 73.0546 62.5457 73.2804 62.6676C73.5062 62.7896 73.6824 62.9567 73.8088 63.1689C73.9398 63.3812 74.0053 63.6251 74.0053 63.9005C74.0053 64.0902 73.9646 64.2731 73.8833 64.4492C73.8065 64.6254 73.6891 64.8151 73.5311 65.0183C73.373 65.2215 73.1698 65.4586 72.9214 65.7296L71.6411 67.1386H74.1407V67.6128H70.862ZM77.0171 67.6941C76.6197 67.6941 76.2697 67.5857 75.9671 67.3689C75.6691 67.1476 75.4365 66.8428 75.2694 66.4544C75.1023 66.0615 75.0187 65.6054 75.0187 65.086C75.0187 64.5667 75.1023 64.1128 75.2694 63.7244C75.4365 63.3315 75.6691 63.0267 75.9671 62.8099C76.2652 62.5931 76.6129 62.4847 77.0103 62.4847C77.4078 62.4847 77.7555 62.5931 78.0536 62.8099C78.3516 63.0267 78.5842 63.3315 78.7513 63.7244C78.9184 64.1128 79.002 64.5667 79.002 65.086C79.002 65.6054 78.9184 66.0615 78.7513 66.4544C78.5887 66.8473 78.3584 67.1521 78.0603 67.3689C77.7623 67.5857 77.4145 67.6941 77.0171 67.6941ZM77.0171 67.186C77.3062 67.186 77.5591 67.098 77.7758 66.9218C77.9926 66.7457 78.162 66.5018 78.2839 66.1902C78.4058 65.8741 78.4668 65.506 78.4668 65.086C78.4668 64.666 78.4058 64.3002 78.2839 63.9886C78.162 63.6725 77.9926 63.4286 77.7758 63.257C77.5591 63.0809 77.3039 62.9928 77.0103 62.9928C76.7213 62.9928 76.4684 63.0809 76.2516 63.257C76.0349 63.4286 75.8655 63.6725 75.7436 63.9886C75.6216 64.3002 75.5607 64.666 75.5607 65.086C75.5607 65.5015 75.6216 65.8673 75.7436 66.1834C75.8655 66.4996 76.0349 66.7457 76.2516 66.9218C76.4729 67.098 76.7281 67.186 77.0171 67.186ZM79.8855 67.6128V67.2741L81.2945 65.7228C81.57 65.4202 81.7935 65.1696 81.9651 64.9709C82.1413 64.7721 82.2722 64.5915 82.358 64.4289C82.4439 64.2663 82.4868 64.0902 82.4868 63.9005C82.4868 63.598 82.3987 63.3654 82.2226 63.2028C82.0464 63.0402 81.8116 62.9589 81.518 62.9589C81.2155 62.9589 80.9603 63.0447 80.7526 63.2163C80.5493 63.388 80.4116 63.6273 80.3393 63.9344L79.8448 63.826C79.9035 63.5505 80.0097 63.3134 80.1632 63.1147C80.3168 62.916 80.5087 62.7625 80.739 62.6541C80.9693 62.5412 81.2268 62.4847 81.5113 62.4847C81.8139 62.4847 82.078 62.5457 82.3039 62.6676C82.5297 62.7896 82.7058 62.9567 82.8322 63.1689C82.9632 63.3812 83.0287 63.6251 83.0287 63.9005C83.0287 64.0902 82.988 64.2731 82.9068 64.4492C82.83 64.6254 82.7126 64.8151 82.5545 65.0183C82.3964 65.2215 82.1932 65.4586 81.9448 65.7296L80.6645 67.1386H83.1642V67.6128H79.8855ZM85.546 67.6941C85.2841 67.6941 85.0425 67.6489 84.8212 67.5586C84.5999 67.4683 84.4057 67.3396 84.2386 67.1725C84.076 67.0054 83.9519 66.8067 83.866 66.5763L84.2996 66.3731C84.4035 66.6351 84.566 66.8428 84.7873 66.9963C85.0086 67.1454 85.2615 67.2199 85.546 67.2199C85.7719 67.2199 85.9728 67.177 86.1489 67.0912C86.3251 67.0009 86.4628 66.8721 86.5622 66.7051C86.6615 66.538 86.7112 66.3347 86.7112 66.0954C86.7112 65.856 86.6593 65.6528 86.5554 65.4857C86.456 65.3186 86.3183 65.1921 86.1422 65.1063C85.966 65.0205 85.7651 64.9776 85.5393 64.9776C85.4806 64.9776 85.4151 64.9799 85.3428 64.9844C85.2751 64.9889 85.2186 64.9957 85.1735 65.0047L85.0651 64.7676L86.4267 63.0402H84.1031V62.566H87.0364V63.0402L85.7628 64.6457L85.6951 64.5576C85.9977 64.5667 86.2664 64.6389 86.5012 64.7744C86.736 64.9054 86.9189 65.0838 87.0499 65.3096C87.1854 65.5354 87.2531 65.7973 87.2531 66.0954C87.2531 66.3934 87.1809 66.6644 87.0364 66.9083C86.8919 67.1476 86.6909 67.3396 86.4335 67.4841C86.176 67.6241 85.8802 67.6941 85.546 67.6941ZM89.5313 66.1699V65.4247H90.0732V66.1699H89.5313ZM94.4091 67.6941C94.0117 67.6941 93.6617 67.5857 93.3591 67.3689C93.061 67.1476 92.8284 66.8428 92.6613 66.4544C92.4942 66.0615 92.4107 65.6054 92.4107 65.086C92.4107 64.5667 92.4942 64.1128 92.6613 63.7244C92.8284 63.3315 93.061 63.0267 93.3591 62.8099C93.6571 62.5931 94.0049 62.4847 94.4023 62.4847C94.7997 62.4847 95.1475 62.5931 95.4455 62.8099C95.7436 63.0267 95.9762 63.3315 96.1433 63.7244C96.3104 64.1128 96.3939 64.5667 96.3939 65.086C96.3939 65.6054 96.3104 66.0615 96.1433 66.4544C95.9807 66.8473 95.7504 67.1521 95.4523 67.3689C95.1542 67.5857 94.8065 67.6941 94.4091 67.6941ZM94.4091 67.186C94.6981 67.186 94.951 67.098 95.1678 66.9218C95.3846 66.7457 95.5539 66.5018 95.6758 66.1902C95.7978 65.8741 95.8587 65.506 95.8587 65.086C95.8587 64.666 95.7978 64.3002 95.6758 63.9886C95.5539 63.6725 95.3846 63.4286 95.1678 63.257C94.951 63.0809 94.6958 62.9928 94.4023 62.9928C94.1133 62.9928 93.8604 63.0809 93.6436 63.257C93.4268 63.4286 93.2575 63.6725 93.1355 63.9886C93.0136 64.3002 92.9526 64.666 92.9526 65.086C92.9526 65.5015 93.0136 65.8673 93.1355 66.1834C93.2575 66.4996 93.4268 66.7457 93.6436 66.9218C93.8649 67.098 94.12 67.186 94.4091 67.186ZM98.9168 67.6941C98.6006 67.6941 98.3206 67.6241 98.0768 67.4841C97.8329 67.3396 97.641 67.1431 97.501 66.8947C97.361 66.6418 97.291 66.3528 97.291 66.0276C97.291 65.847 97.3113 65.6686 97.3519 65.4925C97.3971 65.3163 97.4626 65.1425 97.5484 64.9709C97.6387 64.7992 97.7471 64.6276 97.8735 64.456L99.2961 62.566H99.9464L98.1919 64.8625L98.0903 64.9234C98.1581 64.8105 98.2371 64.7247 98.3274 64.666C98.4177 64.6028 98.5171 64.5576 98.6255 64.5305C98.7384 64.5034 98.8581 64.4899 98.9845 64.4899C99.2781 64.4899 99.5423 64.5599 99.7771 64.6999C100.012 64.8354 100.197 65.0228 100.333 65.2621C100.473 65.5015 100.543 65.7792 100.543 66.0954C100.543 66.398 100.47 66.6712 100.326 66.9151C100.186 67.1544 99.9939 67.3441 99.75 67.4841C99.5061 67.6241 99.2284 67.6941 98.9168 67.6941ZM98.9168 67.2199C99.1245 67.2199 99.3097 67.1725 99.4723 67.0776C99.6348 66.9783 99.7635 66.8428 99.8584 66.6712C99.9532 66.4996 100.001 66.3076 100.001 66.0954C100.001 65.8786 99.9532 65.6867 99.8584 65.5196C99.7681 65.3525 99.6416 65.2215 99.479 65.1267C99.3164 65.0273 99.129 64.9776 98.9168 64.9776C98.709 64.9776 98.5216 65.0273 98.3545 65.1267C98.1919 65.2215 98.0632 65.3525 97.9684 65.5196C97.8781 65.6867 97.8329 65.8786 97.8329 66.0954C97.8329 66.3076 97.8803 66.4996 97.9752 66.6712C98.07 66.8428 98.1987 66.9783 98.3613 67.0776C98.5239 67.1725 98.709 67.2199 98.9168 67.2199ZM101.624 67.6128V66.8676H102.166V67.6128H101.624ZM101.624 64.727V63.9818H102.166V64.727H101.624ZM104.856 67.6941C104.595 67.6941 104.353 67.6489 104.132 67.5586C103.91 67.4683 103.716 67.3396 103.549 67.1725C103.386 67.0054 103.262 66.8067 103.176 66.5763L103.61 66.3731C103.714 66.6351 103.876 66.8428 104.098 66.9963C104.319 67.1454 104.572 67.2199 104.856 67.2199C105.082 67.2199 105.283 67.177 105.459 67.0912C105.635 67.0009 105.773 66.8721 105.873 66.7051C105.972 66.538 106.022 66.3347 106.022 66.0954C106.022 65.856 105.97 65.6528 105.866 65.4857C105.766 65.3186 105.629 65.1921 105.453 65.1063C105.276 65.0205 105.075 64.9776 104.85 64.9776C104.791 64.9776 104.725 64.9799 104.653 64.9844C104.585 64.9889 104.529 64.9957 104.484 65.0047L104.375 64.7676L105.737 63.0402H103.414V62.566H106.347V63.0402L105.073 64.6457L105.005 64.5576C105.308 64.5667 105.577 64.6389 105.812 64.7744C106.046 64.9054 106.229 65.0838 106.36 65.3096C106.496 65.5354 106.564 65.7973 106.564 66.0954C106.564 66.3934 106.491 66.6644 106.347 66.9083C106.202 67.1476 106.001 67.3396 105.744 67.4841C105.486 67.6241 105.191 67.6941 104.856 67.6941ZM109.039 67.6941C108.777 67.6941 108.533 67.6489 108.307 67.5586C108.086 67.4683 107.892 67.3396 107.724 67.1725C107.557 67.0054 107.431 66.8067 107.345 66.5763L107.758 66.3731C107.862 66.6351 108.032 66.8428 108.266 66.9963C108.506 67.1454 108.763 67.2199 109.039 67.2199C109.26 67.2199 109.456 67.168 109.628 67.0641C109.804 66.9602 109.942 66.8202 110.041 66.6441C110.141 66.4634 110.19 66.2625 110.19 66.0412C110.19 65.8109 110.138 65.6076 110.034 65.4315C109.935 65.2554 109.8 65.1176 109.628 65.0183C109.456 64.9144 109.262 64.8625 109.045 64.8625C108.824 64.8625 108.619 64.9144 108.429 65.0183C108.244 65.1176 108.108 65.2396 108.023 65.3841L107.596 65.3028L107.975 62.566H110.529V63.0402H108.172L108.382 62.8573L108.077 65.0115L107.867 64.9167C108.025 64.7225 108.21 64.5847 108.422 64.5034C108.634 64.4176 108.851 64.3747 109.073 64.3747C109.398 64.3747 109.684 64.4515 109.933 64.6051C110.181 64.7541 110.375 64.9551 110.515 65.208C110.66 65.4563 110.732 65.7341 110.732 66.0412C110.732 66.3528 110.658 66.6351 110.509 66.888C110.364 67.1363 110.163 67.3328 109.906 67.4773C109.653 67.6218 109.364 67.6941 109.039 67.6941Z" fill="#292626"/>
<rect x="167.822" y="45.8547" width="40.129" height="11.3871" rx="5.69355" fill="#EEEEEE"/>
<rect x="167.822" y="45.8547" width="40.129" height="11.3871" rx="5.69355" stroke="#686767" stroke-width="0.483871"/>
<path d="M173.898 53.5483V49.2225H175.384C175.667 49.2225 175.914 49.2787 176.127 49.3909C176.34 49.4993 176.505 49.6541 176.621 49.8554C176.741 50.0529 176.801 50.2832 176.801 50.5464C176.801 50.8096 176.741 51.04 176.621 51.2374C176.505 51.4348 176.34 51.5896 176.127 51.7019C175.918 51.8103 175.671 51.8645 175.384 51.8645H174.362V53.5483H173.898ZM174.362 51.429H175.407C175.593 51.429 175.756 51.3941 175.895 51.3245C176.034 51.2509 176.143 51.1483 176.22 51.0167C176.298 50.8812 176.336 50.7225 176.336 50.5406C176.336 50.3587 176.298 50.2019 176.22 50.0703C176.143 49.9387 176.034 49.838 175.895 49.7683C175.756 49.6948 175.593 49.658 175.407 49.658H174.362V51.429ZM178.868 53.618C178.578 53.618 178.315 53.5483 178.079 53.409C177.846 53.2658 177.662 53.0703 177.527 52.8225C177.392 52.5748 177.324 52.2941 177.324 51.9806C177.324 51.667 177.39 51.3903 177.521 51.1503C177.653 50.9064 177.831 50.7148 178.055 50.5754C178.284 50.4361 178.539 50.3664 178.822 50.3664C179.046 50.3664 179.246 50.409 179.42 50.4941C179.598 50.5754 179.749 50.6877 179.873 50.8309C179.997 50.9703 180.092 51.129 180.157 51.307C180.223 51.4812 180.256 51.6612 180.256 51.847C180.256 51.8858 180.254 51.9303 180.25 51.9806C180.246 52.027 180.241 52.0754 180.233 52.1258H177.602V51.7193H179.983L179.774 51.8935C179.809 51.6806 179.784 51.4909 179.699 51.3245C179.617 51.1541 179.499 51.0206 179.344 50.9238C179.19 50.8232 179.015 50.7729 178.822 50.7729C178.628 50.7729 178.448 50.8232 178.282 50.9238C178.119 51.0245 177.992 51.1658 177.899 51.3477C177.806 51.5258 177.769 51.7387 177.788 51.9864C177.769 52.2341 177.808 52.4509 177.904 52.6367C178.005 52.8187 178.141 52.96 178.311 53.0606C178.485 53.1612 178.671 53.2116 178.868 53.2116C179.097 53.2116 179.288 53.1574 179.443 53.049C179.598 52.9406 179.724 52.8051 179.821 52.6425L180.192 52.84C180.13 52.9793 180.035 53.109 179.908 53.229C179.78 53.3451 179.627 53.44 179.449 53.5135C179.275 53.5832 179.081 53.618 178.868 53.618ZM181.024 53.5483V50.4361H181.459V51.04L181.361 51.0167C181.438 50.8154 181.564 50.6567 181.738 50.5406C181.916 50.4245 182.121 50.3664 182.354 50.3664C182.574 50.3664 182.772 50.4167 182.946 50.5174C183.124 50.618 183.263 50.7574 183.364 50.9354C183.468 51.1096 183.521 51.307 183.521 51.5277V53.5483H183.085V51.6961C183.085 51.5064 183.05 51.3458 182.981 51.2141C182.915 51.0825 182.82 50.9819 182.696 50.9122C182.576 50.8387 182.437 50.8019 182.278 50.8019C182.119 50.8019 181.978 50.8387 181.854 50.9122C181.73 50.9819 181.634 51.0845 181.564 51.22C181.494 51.3516 181.459 51.5103 181.459 51.6961V53.5483H181.024ZM185.757 53.618C185.467 53.618 185.206 53.5483 184.974 53.409C184.741 53.2658 184.557 53.0722 184.422 52.8283C184.29 52.5806 184.225 52.3019 184.225 51.9922C184.225 51.6787 184.29 51.4 184.422 51.1561C184.557 50.9122 184.739 50.7206 184.968 50.5812C185.2 50.438 185.463 50.3664 185.757 50.3664C186.025 50.3664 186.263 50.4245 186.472 50.5406C186.681 50.6567 186.845 50.8135 186.965 51.0109L186.896 51.1329V49.1529H187.331V53.5483H186.896V52.8516L186.965 52.9154C186.857 53.14 186.694 53.3141 186.477 53.438C186.265 53.558 186.025 53.618 185.757 53.618ZM185.781 53.1825C185.99 53.1825 186.177 53.1303 186.344 53.0258C186.514 52.9212 186.648 52.78 186.745 52.6019C186.845 52.42 186.896 52.2167 186.896 51.9922C186.896 51.7677 186.845 51.5664 186.745 51.3883C186.648 51.2064 186.514 51.0632 186.344 50.9587C186.177 50.8541 185.99 50.8019 185.781 50.8019C185.576 50.8019 185.39 50.8541 185.223 50.9587C185.057 51.0632 184.925 51.2045 184.828 51.3825C184.736 51.5606 184.689 51.7638 184.689 51.9922C184.689 52.2167 184.736 52.42 184.828 52.6019C184.925 52.78 185.055 52.9212 185.217 53.0258C185.384 53.1303 185.572 53.1825 185.781 53.1825ZM188.225 53.5483V50.4361H188.661V53.5483H188.225ZM188.225 49.8612V49.2225H188.661V49.8612H188.225ZM190.969 53.618C190.679 53.618 190.415 53.5483 190.179 53.409C189.947 53.2658 189.763 53.0703 189.628 52.8225C189.492 52.5748 189.424 52.2941 189.424 51.9806C189.424 51.667 189.49 51.3903 189.622 51.1503C189.753 50.9064 189.931 50.7148 190.156 50.5754C190.384 50.4361 190.64 50.3664 190.922 50.3664C191.147 50.3664 191.346 50.409 191.52 50.4941C191.699 50.5754 191.849 50.6877 191.973 50.8309C192.097 50.9703 192.192 51.129 192.258 51.307C192.324 51.4812 192.357 51.6612 192.357 51.847C192.357 51.8858 192.355 51.9303 192.351 51.9806C192.347 52.027 192.341 52.0754 192.333 52.1258H189.703V51.7193H192.084L191.875 51.8935C191.909 51.6806 191.884 51.4909 191.799 51.3245C191.718 51.1541 191.6 51.0206 191.445 50.9238C191.29 50.8232 191.116 50.7729 190.922 50.7729C190.729 50.7729 190.549 50.8232 190.382 50.9238C190.22 51.0245 190.092 51.1658 189.999 51.3477C189.906 51.5258 189.869 51.7387 189.889 51.9864C189.869 52.2341 189.908 52.4509 190.005 52.6367C190.106 52.8187 190.241 52.96 190.411 53.0606C190.586 53.1612 190.771 53.2116 190.969 53.2116C191.197 53.2116 191.389 53.1574 191.544 53.049C191.699 52.9406 191.824 52.8051 191.921 52.6425L192.293 52.84C192.231 52.9793 192.136 53.109 192.008 53.229C191.88 53.3451 191.728 53.44 191.549 53.5135C191.375 53.5832 191.182 53.618 190.969 53.618ZM193.124 53.5483V50.4361H193.56V51.04L193.461 51.0167C193.539 50.8154 193.664 50.6567 193.839 50.5406C194.017 50.4245 194.222 50.3664 194.454 50.3664C194.675 50.3664 194.872 50.4167 195.046 50.5174C195.224 50.618 195.364 50.7574 195.464 50.9354C195.569 51.1096 195.621 51.307 195.621 51.5277V53.5483H195.186V51.6961C195.186 51.5064 195.151 51.3458 195.081 51.2141C195.015 51.0825 194.921 50.9819 194.797 50.9122C194.677 50.8387 194.537 50.8019 194.379 50.8019C194.22 50.8019 194.079 50.8387 193.955 50.9122C193.831 50.9819 193.734 51.0845 193.664 51.22C193.595 51.3516 193.56 51.5103 193.56 51.6961V53.5483H193.124ZM197.643 53.5832C197.365 53.5832 197.15 53.5019 196.999 53.3393C196.848 53.1767 196.772 52.9445 196.772 52.6425V50.8716H196.197V50.4361H196.343C196.474 50.4361 196.579 50.3935 196.656 50.3083C196.734 50.2193 196.772 50.109 196.772 49.9774V49.7161H197.208V50.4361H197.893V50.8716H197.208V52.6425C197.208 52.747 197.223 52.84 197.254 52.9212C197.285 52.9987 197.337 53.0606 197.411 53.107C197.488 53.1535 197.591 53.1767 197.719 53.1767C197.75 53.1767 197.786 53.1748 197.829 53.1709C197.872 53.167 197.908 53.1632 197.939 53.1593V53.5483C197.893 53.56 197.841 53.5677 197.783 53.5716C197.725 53.5793 197.678 53.5832 197.643 53.5832ZM200.007 53.618C199.717 53.618 199.454 53.5483 199.218 53.409C198.985 53.2658 198.802 53.0703 198.666 52.8225C198.531 52.5748 198.463 52.2941 198.463 51.9806C198.463 51.667 198.529 51.3903 198.66 51.1503C198.792 50.9064 198.97 50.7148 199.194 50.5754C199.423 50.4361 199.678 50.3664 199.961 50.3664C200.185 50.3664 200.385 50.409 200.559 50.4941C200.737 50.5754 200.888 50.6877 201.012 50.8309C201.136 50.9703 201.231 51.129 201.296 51.307C201.362 51.4812 201.395 51.6612 201.395 51.847C201.395 51.8858 201.393 51.9303 201.389 51.9806C201.385 52.027 201.38 52.0754 201.372 52.1258H198.742V51.7193H201.122L200.913 51.8935C200.948 51.6806 200.923 51.4909 200.838 51.3245C200.756 51.1541 200.638 51.0206 200.484 50.9238C200.329 50.8232 200.154 50.7729 199.961 50.7729C199.767 50.7729 199.587 50.8232 199.421 50.9238C199.258 51.0245 199.131 51.1658 199.038 51.3477C198.945 51.5258 198.908 51.7387 198.927 51.9864C198.908 52.2341 198.947 52.4509 199.044 52.6367C199.144 52.8187 199.28 52.96 199.45 53.0606C199.624 53.1612 199.81 53.2116 200.007 53.2116C200.236 53.2116 200.427 53.1574 200.582 53.049C200.737 52.9406 200.863 52.8051 200.96 52.6425L201.331 52.84C201.269 52.9793 201.174 53.109 201.047 53.229C200.919 53.3451 200.766 53.44 200.588 53.5135C200.414 53.5832 200.22 53.618 200.007 53.618Z" fill="#686767"/>
<rect x="34.2419" y="80.2109" width="179.516" height="34.8387" rx="1.69355" fill="white"/>
<rect x="34.2419" y="80.2109" width="179.516" height="34.8387" rx="1.69355" stroke="#D6D6D6" stroke-width="0.483871"/>
<path d="M43.2054 93.8683C42.7821 93.8683 42.3873 93.7935 42.0208 93.6438C41.6544 93.4941 41.3344 93.2851 41.0608 93.0167C40.7873 92.7483 40.5731 92.4335 40.4183 92.0722C40.2686 91.7057 40.1937 91.3109 40.1937 90.8876C40.1937 90.4593 40.2686 90.0644 40.4183 89.7031C40.5679 89.3418 40.7795 89.027 41.0531 88.7586C41.3266 88.4902 41.6466 88.2838 42.0131 88.1393C42.3795 87.9896 42.777 87.9147 43.2054 87.9147C43.6337 87.9147 44.0312 87.9896 44.3976 88.1393C44.7641 88.2889 45.0841 88.498 45.3576 88.7664C45.6312 89.0296 45.8428 89.3418 45.9924 89.7031C46.1473 90.0644 46.2247 90.4593 46.2247 90.8876C46.2247 91.3109 46.1473 91.7057 45.9924 92.0722C45.8376 92.4335 45.6234 92.7483 45.3499 93.0167C45.0763 93.2851 44.7563 93.4941 44.3899 93.6438C44.0286 93.7935 43.6337 93.8683 43.2054 93.8683ZM43.2054 92.9083C43.4892 92.9083 43.7499 92.8593 43.9873 92.7612C44.2247 92.658 44.4312 92.516 44.6066 92.3354C44.7873 92.1547 44.9241 91.9406 45.017 91.6928C45.115 91.4451 45.1641 91.1767 45.1641 90.8876C45.1641 90.5986 45.115 90.3328 45.017 90.0902C44.9241 89.8425 44.7873 89.6283 44.6066 89.4476C44.4312 89.2618 44.2247 89.1199 43.9873 89.0218C43.7499 88.9238 43.4892 88.8747 43.2054 88.8747C42.9266 88.8747 42.6686 88.9238 42.4312 89.0218C42.1937 89.1199 41.9847 89.2618 41.8041 89.4476C41.6286 89.6283 41.4918 89.8425 41.3937 90.0902C41.2957 90.3328 41.2466 90.5986 41.2466 90.8876C41.2466 91.1767 41.2957 91.4451 41.3937 91.6928C41.4918 91.9406 41.6286 92.1547 41.8041 92.3354C41.9847 92.516 42.1937 92.658 42.4312 92.7612C42.6686 92.8593 42.9266 92.9083 43.2054 92.9083ZM47.0758 93.7754V89.5638H48.028V90.5006L47.9506 90.3612C48.0487 90.0464 48.2009 89.827 48.4074 89.7031C48.619 89.5793 48.8719 89.5173 49.1661 89.5173H49.4138V90.4154H49.05C48.7609 90.4154 48.5287 90.5057 48.3532 90.6864C48.1777 90.8618 48.09 91.1096 48.09 91.4296V93.7754H47.0758ZM51.9301 93.8683C51.5224 93.8683 51.1585 93.7728 50.8385 93.5818C50.5185 93.3857 50.2656 93.1199 50.0798 92.7844C49.894 92.4489 49.8011 92.0773 49.8011 91.6696C49.8011 91.2567 49.894 90.8851 50.0798 90.5547C50.2656 90.2244 50.5185 89.9612 50.8385 89.7651C51.1637 89.5689 51.525 89.4709 51.9224 89.4709C52.2424 89.4709 52.5263 89.5354 52.774 89.6644C53.0269 89.7883 53.2256 89.9638 53.3701 90.1909L53.2153 90.3999V87.9147H54.2295V93.7754H53.2695V92.9625L53.3779 93.1638C53.2334 93.3909 53.0321 93.5664 52.774 93.6902C52.516 93.8089 52.2347 93.8683 51.9301 93.8683ZM52.0385 92.9393C52.2708 92.9393 52.4747 92.8851 52.6501 92.7767C52.8256 92.6683 52.9624 92.5186 53.0605 92.3276C53.1637 92.1367 53.2153 91.9173 53.2153 91.6696C53.2153 91.427 53.1637 91.2102 53.0605 91.0193C52.9624 90.8231 52.8256 90.6709 52.6501 90.5625C52.4747 90.4541 52.2708 90.3999 52.0385 90.3999C51.8114 90.3999 51.6076 90.4567 51.4269 90.5702C51.2463 90.6786 51.1043 90.8283 51.0011 91.0193C50.9031 91.2051 50.854 91.4218 50.854 91.6696C50.854 91.9173 50.9031 92.1367 51.0011 92.3276C51.1043 92.5186 51.2463 92.6683 51.4269 92.7767C51.6076 92.8851 51.8114 92.9393 52.0385 92.9393ZM57.1705 93.8683C56.7369 93.8683 56.3576 93.7702 56.0324 93.5741C55.7072 93.378 55.4543 93.1122 55.2737 92.7767C55.0931 92.4412 55.0027 92.0696 55.0027 91.6618C55.0027 91.2386 55.0931 90.8644 55.2737 90.5393C55.4595 90.2089 55.7098 89.9483 56.0247 89.7573C56.3447 89.5664 56.7008 89.4709 57.0931 89.4709C57.4234 89.4709 57.7124 89.5251 57.9601 89.6335C58.2131 89.7418 58.4272 89.8915 58.6027 90.0825C58.7782 90.2735 58.9124 90.4928 59.0053 90.7406C59.0982 90.9831 59.1447 91.2464 59.1447 91.5302C59.1447 91.6025 59.1395 91.6773 59.1292 91.7547C59.124 91.8322 59.1111 91.8993 59.0905 91.956H55.8389V91.1818H58.5176L58.0376 91.5457C58.084 91.3083 58.0711 91.0967 57.9989 90.9109C57.9318 90.7251 57.8182 90.578 57.6582 90.4696C57.5034 90.3612 57.315 90.307 57.0931 90.307C56.8814 90.307 56.6931 90.3612 56.5279 90.4696C56.3627 90.5728 56.2363 90.7276 56.1485 90.9341C56.066 91.1354 56.035 91.3806 56.0556 91.6696C56.035 91.9276 56.0685 92.1573 56.1563 92.3586C56.2492 92.5547 56.3834 92.707 56.5589 92.8154C56.7395 92.9238 56.946 92.978 57.1782 92.978C57.4105 92.978 57.6066 92.9289 57.7666 92.8309C57.9318 92.7328 58.0608 92.6012 58.1537 92.436L58.9743 92.8386C58.8918 93.0399 58.7627 93.218 58.5872 93.3728C58.4118 93.5276 58.2027 93.6489 57.9601 93.7367C57.7227 93.8244 57.4595 93.8683 57.1705 93.8683ZM59.9135 93.7754V89.5638H60.8657V90.3922L60.7883 90.2451C60.8864 89.9922 61.0464 89.8012 61.2683 89.6722C61.4954 89.538 61.7586 89.4709 62.058 89.4709C62.3677 89.4709 62.6412 89.538 62.8786 89.6722C63.1212 89.8064 63.3096 89.9947 63.4438 90.2373C63.578 90.4747 63.6451 90.7509 63.6451 91.0657V93.7754H62.6309V91.3057C62.6309 91.1199 62.5948 90.9599 62.5225 90.8257C62.4502 90.6915 62.3496 90.5883 62.2206 90.516C62.0967 90.4386 61.9496 90.3999 61.7793 90.3999C61.6141 90.3999 61.467 90.4386 61.338 90.516C61.209 90.5883 61.1083 90.6915 61.0361 90.8257C60.9638 90.9599 60.9277 91.1199 60.9277 91.3057V93.7754H59.9135ZM66.4516 93.7754L66.8155 92.5057H65.8864V91.6154H67.071L67.4968 90.1599H66.5677V89.2696H67.7445L68.1084 88.0076H69.1381L68.7742 89.2696H70.0516L70.4077 88.0076H71.4374L71.0735 89.2696H72.0026V90.1599H70.8181L70.4 91.6154H71.329V92.5057H70.1445L69.7806 93.7754H68.7587L69.1148 92.5057H67.8451L67.4813 93.7754H66.4516ZM68.1006 91.6154H69.3781L69.7884 90.1599H68.5187L68.1006 91.6154ZM75.4171 93.7754V92.5057H72.7693V91.6231L75.3551 88.0076H76.4545V91.6231H77.2984V92.5057H76.4545V93.7754H75.4171ZM73.5435 92.0025L73.3577 91.6231H75.4171V88.836L75.688 88.9212L73.5435 92.0025ZM79.8555 93.8683C79.551 93.8683 79.2594 93.8115 78.9807 93.698C78.7071 93.5844 78.4697 93.4244 78.2684 93.218C78.0723 93.0064 77.9381 92.756 77.8658 92.467L78.7794 92.1418C78.8671 92.4051 79.009 92.6012 79.2052 92.7302C79.4013 92.8541 79.6181 92.916 79.8555 92.916C80.0516 92.916 80.2245 92.8747 80.3742 92.7922C80.529 92.7044 80.6478 92.5857 80.7303 92.436C80.8129 92.2812 80.8542 92.1031 80.8542 91.9018C80.8542 91.7006 80.8103 91.5251 80.7226 91.3754C80.64 91.2257 80.5239 91.1096 80.3742 91.027C80.2245 90.9393 80.0516 90.8954 79.8555 90.8954C79.6542 90.8954 79.471 90.9393 79.3058 91.027C79.1458 91.1147 79.0297 91.2412 78.9574 91.4064L78.0981 91.2128L78.5548 88.0076H81.6981V88.898H78.9729L79.3678 88.4412L79.0426 90.8567L78.7407 90.6089C78.8852 90.3973 79.0607 90.2425 79.2671 90.1444C79.4787 90.0464 79.7342 89.9973 80.0336 89.9973C80.4155 89.9973 80.7458 90.0799 81.0245 90.2451C81.3084 90.4102 81.5278 90.6347 81.6826 90.9186C81.8374 91.2025 81.9148 91.5302 81.9148 91.9018C81.9148 92.2735 81.8245 92.6089 81.6439 92.9083C81.4632 93.2076 81.2181 93.4425 80.9084 93.6128C80.5987 93.7831 80.2478 93.8683 79.8555 93.8683ZM84.6573 93.8683C84.2651 93.8683 83.9167 93.7857 83.6121 93.6206C83.3128 93.4502 83.078 93.2231 82.9076 92.9393C82.7373 92.6502 82.6521 92.3225 82.6521 91.956C82.6521 91.7702 82.6702 91.5844 82.7063 91.3986C82.7476 91.2128 82.8199 91.0141 82.9231 90.8025C83.0315 90.5909 83.1863 90.356 83.3876 90.098L84.998 88.0076H86.2521L84.2934 90.5238L84.1231 90.338C84.1954 90.2812 84.2702 90.2373 84.3476 90.2064C84.4251 90.1702 84.5025 90.1444 84.5799 90.1289C84.6625 90.1135 84.7476 90.1057 84.8354 90.1057C85.1863 90.1057 85.4986 90.1857 85.7721 90.3457C86.0457 90.5057 86.2599 90.7251 86.4147 91.0038C86.5747 91.2773 86.6547 91.587 86.6547 91.9328C86.6547 92.3044 86.5696 92.6373 86.3992 92.9315C86.2289 93.2206 85.9915 93.4502 85.687 93.6206C85.3876 93.7857 85.0444 93.8683 84.6573 93.8683ZM84.6573 92.916C84.8328 92.916 84.9902 92.8773 85.1296 92.7999C85.2741 92.7173 85.3876 92.6012 85.4702 92.4515C85.558 92.3018 85.6018 92.1341 85.6018 91.9483C85.6018 91.7522 85.558 91.5844 85.4702 91.4451C85.3876 91.3006 85.2767 91.187 85.1373 91.1044C84.998 91.0218 84.838 90.9806 84.6573 90.9806C84.4818 90.9806 84.3218 91.0218 84.1773 91.1044C84.0328 91.187 83.9167 91.3006 83.8289 91.4451C83.7463 91.5844 83.7051 91.7522 83.7051 91.9483C83.7051 92.1341 83.7463 92.3018 83.8289 92.4515C83.9167 92.6012 84.0328 92.7173 84.1773 92.7999C84.3218 92.8773 84.4818 92.916 84.6573 92.916Z" fill="#292626"/>
<path d="M41.0328 107.775V103.203H40.0844V102.729H41.5747V107.775H41.0328ZM44.4476 107.857C44.1224 107.857 43.8311 107.791 43.5737 107.66C43.3208 107.525 43.1199 107.342 42.9708 107.112C42.8263 106.877 42.754 106.612 42.754 106.319C42.754 105.998 42.8444 105.712 43.025 105.459C43.2102 105.206 43.4586 105.03 43.7702 104.93V105.072C43.5308 104.969 43.3457 104.815 43.2147 104.612C43.0837 104.404 43.0182 104.183 43.0182 103.948C43.0182 103.7 43.0815 103.478 43.2079 103.284C43.3344 103.09 43.5037 102.936 43.716 102.823C43.9328 102.706 44.1766 102.647 44.4476 102.647C44.7231 102.647 44.967 102.704 45.1792 102.817C45.3915 102.925 45.5586 103.079 45.6805 103.277C45.807 103.472 45.8702 103.695 45.8702 103.948C45.8702 104.201 45.8024 104.427 45.667 104.625C45.5315 104.82 45.3531 104.969 45.1318 105.072L45.125 104.93C45.4366 105.03 45.6828 105.206 45.8634 105.459C46.0486 105.712 46.1411 105.998 46.1411 106.319C46.1411 106.612 46.0666 106.877 45.9176 107.112C45.7731 107.342 45.5721 107.525 45.3147 107.66C45.0618 107.791 44.7728 107.857 44.4476 107.857ZM44.4476 107.382C44.6779 107.382 44.8789 107.34 45.0505 107.254C45.2221 107.163 45.3553 107.039 45.4502 106.881C45.5495 106.719 45.5992 106.531 45.5992 106.319C45.5992 106.107 45.5495 105.922 45.4502 105.763C45.3553 105.601 45.2221 105.477 45.0505 105.391C44.8789 105.301 44.6779 105.255 44.4476 105.255C44.2173 105.255 44.014 105.301 43.8379 105.391C43.6663 105.477 43.5331 105.601 43.4382 105.763C43.3434 105.922 43.296 106.107 43.296 106.319C43.296 106.531 43.3434 106.719 43.4382 106.881C43.5331 107.039 43.6663 107.163 43.8379 107.254C44.014 107.34 44.2173 107.382 44.4476 107.382ZM44.4476 104.781C44.6147 104.781 44.7637 104.747 44.8947 104.68C45.0257 104.607 45.1295 104.51 45.2063 104.388C45.2876 104.262 45.3282 104.115 45.3282 103.948C45.3282 103.781 45.2876 103.636 45.2063 103.514C45.1295 103.392 45.0257 103.298 44.8947 103.23C44.7637 103.158 44.6147 103.122 44.4476 103.122C44.2805 103.122 44.1292 103.158 43.9937 103.23C43.8628 103.298 43.7566 103.392 43.6753 103.514C43.5986 103.636 43.5602 103.781 43.5602 103.948C43.5602 104.115 43.5986 104.262 43.6753 104.388C43.7566 104.51 43.8628 104.607 43.9937 104.68C44.1292 104.747 44.2805 104.781 44.4476 104.781ZM49.8863 107.857C49.5476 107.857 49.2427 107.775 48.9718 107.613C48.7008 107.446 48.4863 107.22 48.3282 106.935C48.1747 106.646 48.0979 106.321 48.0979 105.96C48.0979 105.594 48.1747 105.269 48.3282 104.984C48.4863 104.7 48.6985 104.476 48.965 104.314C49.2359 104.147 49.543 104.063 49.8863 104.063C50.1979 104.063 50.4756 104.131 50.7195 104.266C50.9634 104.402 51.1553 104.585 51.2953 104.815L51.214 104.957V102.647H51.7221V107.775H51.214V106.962L51.2953 107.037C51.1689 107.299 50.9792 107.502 50.7263 107.647C50.4779 107.787 50.1979 107.857 49.8863 107.857ZM49.9134 107.349C50.1572 107.349 50.3763 107.288 50.5705 107.166C50.7692 107.044 50.925 106.879 51.0379 106.671C51.1553 106.459 51.214 106.222 51.214 105.96C51.214 105.698 51.1553 105.463 51.0379 105.255C50.925 105.043 50.7692 104.876 50.5705 104.754C50.3763 104.632 50.1572 104.571 49.9134 104.571C49.674 104.571 49.4572 104.632 49.263 104.754C49.0689 104.876 48.9153 105.041 48.8024 105.249C48.694 105.456 48.6398 105.693 48.6398 105.96C48.6398 106.222 48.694 106.459 48.8024 106.671C48.9153 106.879 49.0666 107.044 49.2563 107.166C49.4505 107.288 49.6695 107.349 49.9134 107.349ZM54.4182 107.857C54.0794 107.857 53.7723 107.775 53.4969 107.613C53.2259 107.446 53.0114 107.218 52.8533 106.929C52.6952 106.64 52.6162 106.312 52.6162 105.946C52.6162 105.581 52.693 105.258 52.8465 104.978C53.0001 104.693 53.2078 104.47 53.4698 104.307C53.7362 104.144 54.0343 104.063 54.364 104.063C54.6259 104.063 54.8585 104.113 55.0617 104.212C55.2694 104.307 55.4456 104.438 55.5901 104.605C55.7346 104.768 55.8452 104.953 55.922 105.161C55.9988 105.364 56.0372 105.574 56.0372 105.791C56.0372 105.836 56.0349 105.888 56.0304 105.946C56.0259 106.001 56.0191 106.057 56.0101 106.116H52.9414V105.642H55.7188L55.4749 105.845C55.5156 105.596 55.4862 105.375 55.3869 105.181C55.292 104.982 55.1543 104.826 54.9736 104.713C54.793 104.596 54.5898 104.537 54.364 104.537C54.1382 104.537 53.9282 104.596 53.734 104.713C53.5443 104.831 53.3952 104.996 53.2869 105.208C53.1785 105.416 53.1356 105.664 53.1582 105.953C53.1356 106.242 53.1807 106.495 53.2936 106.712C53.4111 106.924 53.5691 107.089 53.7678 107.206C53.9711 107.324 54.1878 107.382 54.4182 107.382C54.6846 107.382 54.9082 107.319 55.0888 107.193C55.2694 107.066 55.4162 106.908 55.5291 106.719L55.9627 106.949C55.8904 107.112 55.7798 107.263 55.6307 107.403C55.4817 107.538 55.3033 107.649 55.0956 107.735C54.8923 107.816 54.6665 107.857 54.4182 107.857ZM58.084 107.775V104.144H58.5921V104.849L58.477 104.822C58.5673 104.587 58.714 104.402 58.9173 104.266C59.125 104.131 59.3644 104.063 59.6353 104.063C59.8928 104.063 60.1231 104.122 60.3263 104.239C60.534 104.357 60.6966 104.519 60.814 104.727C60.936 104.93 60.997 105.161 60.997 105.418V107.775H60.4889V105.614C60.4889 105.393 60.4482 105.206 60.367 105.052C60.2902 104.899 60.1795 104.781 60.035 104.7C59.895 104.614 59.7324 104.571 59.5473 104.571C59.3621 104.571 59.1973 104.614 59.0528 104.7C58.9082 104.781 58.7953 104.901 58.714 105.059C58.6328 105.212 58.5921 105.398 58.5921 105.614V107.775H58.084ZM63.6676 107.857C63.3244 107.857 63.0128 107.775 62.7328 107.613C62.4528 107.446 62.2292 107.22 62.0621 106.935C61.8996 106.646 61.8183 106.319 61.8183 105.953C61.8183 105.592 61.8996 105.269 62.0621 104.984C62.2247 104.7 62.4438 104.476 62.7192 104.314C62.9992 104.147 63.3154 104.063 63.6676 104.063C64.0199 104.063 64.3338 104.144 64.6092 104.307C64.8892 104.47 65.1083 104.693 65.2663 104.978C65.4289 105.262 65.5102 105.587 65.5102 105.953C65.5102 106.323 65.4267 106.653 65.2596 106.942C65.0925 107.227 64.8689 107.45 64.5889 107.613C64.3134 107.775 64.0063 107.857 63.6676 107.857ZM63.6676 107.349C63.9115 107.349 64.1305 107.288 64.3247 107.166C64.5234 107.044 64.6792 106.877 64.7921 106.664C64.9096 106.452 64.9683 106.215 64.9683 105.953C64.9683 105.691 64.9096 105.456 64.7921 105.249C64.6792 105.041 64.5234 104.876 64.3247 104.754C64.1305 104.632 63.9115 104.571 63.6676 104.571C63.4238 104.571 63.2025 104.632 63.0038 104.754C62.8096 104.876 62.6538 105.041 62.5363 105.249C62.4189 105.456 62.3602 105.691 62.3602 105.953C62.3602 106.215 62.4189 106.452 62.5363 106.664C62.6538 106.877 62.8096 107.044 63.0038 107.166C63.2025 107.288 63.4238 107.349 63.6676 107.349ZM67.3088 107.775L65.893 104.144H66.462L67.6543 107.328H67.4714L68.6704 104.144H69.2462L67.8169 107.775H67.3088ZM70.862 107.775V107.437L72.2711 105.885C72.5465 105.583 72.7701 105.332 72.9417 105.133C73.1178 104.935 73.2488 104.754 73.3346 104.592C73.4204 104.429 73.4633 104.253 73.4633 104.063C73.4633 103.761 73.3753 103.528 73.1991 103.365C73.023 103.203 72.7882 103.122 72.4946 103.122C72.192 103.122 71.9369 103.207 71.7291 103.379C71.5259 103.551 71.3882 103.79 71.3159 104.097L70.8214 103.989C70.8801 103.713 70.9862 103.476 71.1398 103.277C71.2933 103.079 71.4853 102.925 71.7156 102.817C71.9459 102.704 72.2033 102.647 72.4878 102.647C72.7904 102.647 73.0546 102.708 73.2804 102.83C73.5062 102.952 73.6824 103.119 73.8088 103.332C73.9398 103.544 74.0053 103.788 74.0053 104.063C74.0053 104.253 73.9646 104.436 73.8833 104.612C73.8065 104.788 73.6891 104.978 73.5311 105.181C73.373 105.384 73.1698 105.621 72.9214 105.892L71.6411 107.301H74.1407V107.775H70.862ZM77.0171 107.857C76.6197 107.857 76.2697 107.748 75.9671 107.532C75.6691 107.31 75.4365 107.005 75.2694 106.617C75.1023 106.224 75.0187 105.768 75.0187 105.249C75.0187 104.729 75.1023 104.275 75.2694 103.887C75.4365 103.494 75.6691 103.189 75.9671 102.972C76.2652 102.756 76.6129 102.647 77.0103 102.647C77.4078 102.647 77.7555 102.756 78.0536 102.972C78.3516 103.189 78.5842 103.494 78.7513 103.887C78.9184 104.275 79.002 104.729 79.002 105.249C79.002 105.768 78.9184 106.224 78.7513 106.617C78.5887 107.01 78.3584 107.315 78.0603 107.532C77.7623 107.748 77.4145 107.857 77.0171 107.857ZM77.0171 107.349C77.3062 107.349 77.5591 107.261 77.7758 107.084C77.9926 106.908 78.162 106.664 78.2839 106.353C78.4058 106.037 78.4668 105.669 78.4668 105.249C78.4668 104.829 78.4058 104.463 78.2839 104.151C78.162 103.835 77.9926 103.591 77.7758 103.42C77.5591 103.243 77.3039 103.155 77.0103 103.155C76.7213 103.155 76.4684 103.243 76.2516 103.42C76.0349 103.591 75.8655 103.835 75.7436 104.151C75.6216 104.463 75.5607 104.829 75.5607 105.249C75.5607 105.664 75.6216 106.03 75.7436 106.346C75.8655 106.662 76.0349 106.908 76.2516 107.084C76.4729 107.261 76.7281 107.349 77.0171 107.349ZM79.8855 107.775V107.437L81.2945 105.885C81.57 105.583 81.7935 105.332 81.9651 105.133C82.1413 104.935 82.2722 104.754 82.358 104.592C82.4439 104.429 82.4868 104.253 82.4868 104.063C82.4868 103.761 82.3987 103.528 82.2226 103.365C82.0464 103.203 81.8116 103.122 81.518 103.122C81.2155 103.122 80.9603 103.207 80.7526 103.379C80.5493 103.551 80.4116 103.79 80.3393 104.097L79.8448 103.989C79.9035 103.713 80.0097 103.476 80.1632 103.277C80.3168 103.079 80.5087 102.925 80.739 102.817C80.9693 102.704 81.2268 102.647 81.5113 102.647C81.8139 102.647 82.078 102.708 82.3039 102.83C82.5297 102.952 82.7058 103.119 82.8322 103.332C82.9632 103.544 83.0287 103.788 83.0287 104.063C83.0287 104.253 82.988 104.436 82.9068 104.612C82.83 104.788 82.7126 104.978 82.5545 105.181C82.3964 105.384 82.1932 105.621 81.9448 105.892L80.6645 107.301H83.1642V107.775H79.8855ZM85.546 107.857C85.2841 107.857 85.0425 107.812 84.8212 107.721C84.5999 107.631 84.4057 107.502 84.2386 107.335C84.076 107.168 83.9519 106.969 83.866 106.739L84.2996 106.536C84.4035 106.798 84.566 107.005 84.7873 107.159C85.0086 107.308 85.2615 107.382 85.546 107.382C85.7719 107.382 85.9728 107.34 86.1489 107.254C86.3251 107.163 86.4628 107.035 86.5622 106.868C86.6615 106.701 86.7112 106.497 86.7112 106.258C86.7112 106.019 86.6593 105.815 86.5554 105.648C86.456 105.481 86.3183 105.355 86.1422 105.269C85.966 105.183 85.7651 105.14 85.5393 105.14C85.4806 105.14 85.4151 105.142 85.3428 105.147C85.2751 105.152 85.2186 105.158 85.1735 105.167L85.0651 104.93L86.4267 103.203H84.1031V102.729H87.0364V103.203L85.7628 104.808L85.6951 104.72C85.9977 104.729 86.2664 104.802 86.5012 104.937C86.736 105.068 86.9189 105.246 87.0499 105.472C87.1854 105.698 87.2531 105.96 87.2531 106.258C87.2531 106.556 87.1809 106.827 87.0364 107.071C86.8919 107.31 86.6909 107.502 86.4335 107.647C86.176 107.787 85.8802 107.857 85.546 107.857ZM89.5313 106.332V105.587H90.0732V106.332H89.5313ZM94.4091 107.857C94.0117 107.857 93.6617 107.748 93.3591 107.532C93.061 107.31 92.8284 107.005 92.6613 106.617C92.4942 106.224 92.4107 105.768 92.4107 105.249C92.4107 104.729 92.4942 104.275 92.6613 103.887C92.8284 103.494 93.061 103.189 93.3591 102.972C93.6571 102.756 94.0049 102.647 94.4023 102.647C94.7997 102.647 95.1475 102.756 95.4455 102.972C95.7436 103.189 95.9762 103.494 96.1433 103.887C96.3104 104.275 96.3939 104.729 96.3939 105.249C96.3939 105.768 96.3104 106.224 96.1433 106.617C95.9807 107.01 95.7504 107.315 95.4523 107.532C95.1542 107.748 94.8065 107.857 94.4091 107.857ZM94.4091 107.349C94.6981 107.349 94.951 107.261 95.1678 107.084C95.3846 106.908 95.5539 106.664 95.6758 106.353C95.7978 106.037 95.8587 105.669 95.8587 105.249C95.8587 104.829 95.7978 104.463 95.6758 104.151C95.5539 103.835 95.3846 103.591 95.1678 103.42C94.951 103.243 94.6958 103.155 94.4023 103.155C94.1133 103.155 93.8604 103.243 93.6436 103.42C93.4268 103.591 93.2575 103.835 93.1355 104.151C93.0136 104.463 92.9526 104.829 92.9526 105.249C92.9526 105.664 93.0136 106.03 93.1355 106.346C93.2575 106.662 93.4268 106.908 93.6436 107.084C93.8649 107.261 94.12 107.349 94.4091 107.349ZM98.9168 107.857C98.6006 107.857 98.3206 107.787 98.0768 107.647C97.8329 107.502 97.641 107.306 97.501 107.057C97.361 106.804 97.291 106.515 97.291 106.19C97.291 106.01 97.3113 105.831 97.3519 105.655C97.3971 105.479 97.4626 105.305 97.5484 105.133C97.6387 104.962 97.7471 104.79 97.8735 104.619L99.2961 102.729H99.9464L98.1919 105.025L98.0903 105.086C98.1581 104.973 98.2371 104.887 98.3274 104.829C98.4177 104.765 98.5171 104.72 98.6255 104.693C98.7384 104.666 98.8581 104.652 98.9845 104.652C99.2781 104.652 99.5423 104.722 99.7771 104.862C100.012 104.998 100.197 105.185 100.333 105.425C100.473 105.664 100.543 105.942 100.543 106.258C100.543 106.561 100.47 106.834 100.326 107.078C100.186 107.317 99.9939 107.507 99.75 107.647C99.5061 107.787 99.2284 107.857 98.9168 107.857ZM98.9168 107.382C99.1245 107.382 99.3097 107.335 99.4723 107.24C99.6348 107.141 99.7635 107.005 99.8584 106.834C99.9532 106.662 100.001 106.47 100.001 106.258C100.001 106.041 99.9532 105.849 99.8584 105.682C99.7681 105.515 99.6416 105.384 99.479 105.289C99.3164 105.19 99.129 105.14 98.9168 105.14C98.709 105.14 98.5216 105.19 98.3545 105.289C98.1919 105.384 98.0632 105.515 97.9684 105.682C97.8781 105.849 97.8329 106.041 97.8329 106.258C97.8329 106.47 97.8803 106.662 97.9752 106.834C98.07 107.005 98.1987 107.141 98.3613 107.24C98.5239 107.335 98.709 107.382 98.9168 107.382ZM101.624 107.775V107.03H102.166V107.775H101.624ZM101.624 104.89V104.144H102.166V104.89H101.624ZM104.856 107.857C104.595 107.857 104.353 107.812 104.132 107.721C103.91 107.631 103.716 107.502 103.549 107.335C103.386 107.168 103.262 106.969 103.176 106.739L103.61 106.536C103.714 106.798 103.876 107.005 104.098 107.159C104.319 107.308 104.572 107.382 104.856 107.382C105.082 107.382 105.283 107.34 105.459 107.254C105.635 107.163 105.773 107.035 105.873 106.868C105.972 106.701 106.022 106.497 106.022 106.258C106.022 106.019 105.97 105.815 105.866 105.648C105.766 105.481 105.629 105.355 105.453 105.269C105.276 105.183 105.075 105.14 104.85 105.14C104.791 105.14 104.725 105.142 104.653 105.147C104.585 105.152 104.529 105.158 104.484 105.167L104.375 104.93L105.737 103.203H103.414V102.729H106.347V103.203L105.073 104.808L105.005 104.72C105.308 104.729 105.577 104.802 105.812 104.937C106.046 105.068 106.229 105.246 106.36 105.472C106.496 105.698 106.564 105.96 106.564 106.258C106.564 106.556 106.491 106.827 106.347 107.071C106.202 107.31 106.001 107.502 105.744 107.647C105.486 107.787 105.191 107.857 104.856 107.857ZM109.039 107.857C108.777 107.857 108.533 107.812 108.307 107.721C108.086 107.631 107.892 107.502 107.724 107.335C107.557 107.168 107.431 106.969 107.345 106.739L107.758 106.536C107.862 106.798 108.032 107.005 108.266 107.159C108.506 107.308 108.763 107.382 109.039 107.382C109.26 107.382 109.456 107.331 109.628 107.227C109.804 107.123 109.942 106.983 110.041 106.807C110.141 106.626 110.19 106.425 110.19 106.204C110.19 105.973 110.138 105.77 110.034 105.594C109.935 105.418 109.8 105.28 109.628 105.181C109.456 105.077 109.262 105.025 109.045 105.025C108.824 105.025 108.619 105.077 108.429 105.181C108.244 105.28 108.108 105.402 108.023 105.547L107.596 105.465L107.975 102.729H110.529V103.203H108.172L108.382 103.02L108.077 105.174L107.867 105.079C108.025 104.885 108.21 104.747 108.422 104.666C108.634 104.58 108.851 104.537 109.073 104.537C109.398 104.537 109.684 104.614 109.933 104.768C110.181 104.917 110.375 105.118 110.515 105.371C110.66 105.619 110.732 105.897 110.732 106.204C110.732 106.515 110.658 106.798 110.509 107.051C110.364 107.299 110.163 107.495 109.906 107.64C109.653 107.784 109.364 107.857 109.039 107.857Z" fill="#292626"/>
<rect x="167.822" y="86.0173" width="40.129" height="11.3871" rx="5.69355" fill="#EEEEEE"/>
<rect x="167.822" y="86.0173" width="40.129" height="11.3871" rx="5.69355" stroke="#686767" stroke-width="0.483871"/>
<path d="M173.898 93.7109V89.3851H175.384C175.667 89.3851 175.914 89.4413 176.127 89.5535C176.34 89.6619 176.505 89.8167 176.621 90.018C176.741 90.2155 176.801 90.4458 176.801 90.709C176.801 90.9722 176.741 91.2026 176.621 91.4C176.505 91.5974 176.34 91.7522 176.127 91.8645C175.918 91.9729 175.671 92.0271 175.384 92.0271H174.362V93.7109H173.898ZM174.362 91.5916H175.407C175.593 91.5916 175.756 91.5567 175.895 91.4871C176.034 91.4135 176.143 91.3109 176.22 91.1793C176.298 91.0438 176.336 90.8851 176.336 90.7032C176.336 90.5213 176.298 90.3645 176.22 90.2329C176.143 90.1013 176.034 90.0006 175.895 89.9309C175.756 89.8574 175.593 89.8206 175.407 89.8206H174.362V91.5916ZM178.868 93.7806C178.578 93.7806 178.315 93.7109 178.079 93.5716C177.846 93.4284 177.662 93.2329 177.527 92.9851C177.392 92.7374 177.324 92.4567 177.324 92.1432C177.324 91.8296 177.39 91.5529 177.521 91.3129C177.653 91.069 177.831 90.8774 178.055 90.738C178.284 90.5987 178.539 90.529 178.822 90.529C179.046 90.529 179.246 90.5716 179.42 90.6567C179.598 90.738 179.749 90.8503 179.873 90.9935C179.997 91.1329 180.092 91.2916 180.157 91.4696C180.223 91.6438 180.256 91.8238 180.256 92.0096C180.256 92.0484 180.254 92.0929 180.25 92.1432C180.246 92.1896 180.241 92.238 180.233 92.2884H177.602V91.8819H179.983L179.774 92.0561C179.809 91.8432 179.784 91.6535 179.699 91.4871C179.617 91.3167 179.499 91.1832 179.344 91.0864C179.19 90.9858 179.015 90.9355 178.822 90.9355C178.628 90.9355 178.448 90.9858 178.282 91.0864C178.119 91.1871 177.992 91.3284 177.899 91.5103C177.806 91.6884 177.769 91.9013 177.788 92.149C177.769 92.3967 177.808 92.6135 177.904 92.7993C178.005 92.9813 178.141 93.1226 178.311 93.2232C178.485 93.3238 178.671 93.3742 178.868 93.3742C179.097 93.3742 179.288 93.32 179.443 93.2116C179.598 93.1032 179.724 92.9677 179.821 92.8051L180.192 93.0026C180.13 93.1419 180.035 93.2716 179.908 93.3916C179.78 93.5077 179.627 93.6026 179.449 93.6761C179.275 93.7458 179.081 93.7806 178.868 93.7806ZM181.024 93.7109V90.5987H181.459V91.2026L181.361 91.1793C181.438 90.978 181.564 90.8193 181.738 90.7032C181.916 90.5871 182.121 90.529 182.354 90.529C182.574 90.529 182.772 90.5793 182.946 90.68C183.124 90.7806 183.263 90.92 183.364 91.098C183.468 91.2722 183.521 91.4696 183.521 91.6903V93.7109H183.085V91.8587C183.085 91.669 183.05 91.5084 182.981 91.3767C182.915 91.2451 182.82 91.1445 182.696 91.0748C182.576 91.0013 182.437 90.9645 182.278 90.9645C182.119 90.9645 181.978 91.0013 181.854 91.0748C181.73 91.1445 181.634 91.2471 181.564 91.3826C181.494 91.5142 181.459 91.6729 181.459 91.8587V93.7109H181.024ZM185.757 93.7806C185.467 93.7806 185.206 93.7109 184.974 93.5716C184.741 93.4284 184.557 93.2348 184.422 92.9909C184.29 92.7432 184.225 92.4645 184.225 92.1548C184.225 91.8413 184.29 91.5626 184.422 91.3187C184.557 91.0748 184.739 90.8832 184.968 90.7438C185.2 90.6006 185.463 90.529 185.757 90.529C186.025 90.529 186.263 90.5871 186.472 90.7032C186.681 90.8193 186.845 90.9761 186.965 91.1735L186.896 91.2955V89.3155H187.331V93.7109H186.896V93.0142L186.965 93.078C186.857 93.3026 186.694 93.4767 186.477 93.6006C186.265 93.7206 186.025 93.7806 185.757 93.7806ZM185.781 93.3451C185.99 93.3451 186.177 93.2929 186.344 93.1884C186.514 93.0838 186.648 92.9426 186.745 92.7645C186.845 92.5826 186.896 92.3793 186.896 92.1548C186.896 91.9303 186.845 91.729 186.745 91.5509C186.648 91.369 186.514 91.2258 186.344 91.1213C186.177 91.0167 185.99 90.9645 185.781 90.9645C185.576 90.9645 185.39 91.0167 185.223 91.1213C185.057 91.2258 184.925 91.3671 184.828 91.5451C184.736 91.7232 184.689 91.9264 184.689 92.1548C184.689 92.3793 184.736 92.5826 184.828 92.7645C184.925 92.9426 185.055 93.0838 185.217 93.1884C185.384 93.2929 185.572 93.3451 185.781 93.3451ZM188.225 93.7109V90.5987H188.661V93.7109H188.225ZM188.225 90.0238V89.3851H188.661V90.0238H188.225ZM190.969 93.7806C190.679 93.7806 190.415 93.7109 190.179 93.5716C189.947 93.4284 189.763 93.2329 189.628 92.9851C189.492 92.7374 189.424 92.4567 189.424 92.1432C189.424 91.8296 189.49 91.5529 189.622 91.3129C189.753 91.069 189.931 90.8774 190.156 90.738C190.384 90.5987 190.64 90.529 190.922 90.529C191.147 90.529 191.346 90.5716 191.52 90.6567C191.699 90.738 191.849 90.8503 191.973 90.9935C192.097 91.1329 192.192 91.2916 192.258 91.4696C192.324 91.6438 192.357 91.8238 192.357 92.0096C192.357 92.0484 192.355 92.0929 192.351 92.1432C192.347 92.1896 192.341 92.238 192.333 92.2884H189.703V91.8819H192.084L191.875 92.0561C191.909 91.8432 191.884 91.6535 191.799 91.4871C191.718 91.3167 191.6 91.1832 191.445 91.0864C191.29 90.9858 191.116 90.9355 190.922 90.9355C190.729 90.9355 190.549 90.9858 190.382 91.0864C190.22 91.1871 190.092 91.3284 189.999 91.5103C189.906 91.6884 189.869 91.9013 189.889 92.149C189.869 92.3967 189.908 92.6135 190.005 92.7993C190.106 92.9813 190.241 93.1226 190.411 93.2232C190.586 93.3238 190.771 93.3742 190.969 93.3742C191.197 93.3742 191.389 93.32 191.544 93.2116C191.699 93.1032 191.824 92.9677 191.921 92.8051L192.293 93.0026C192.231 93.1419 192.136 93.2716 192.008 93.3916C191.88 93.5077 191.728 93.6026 191.549 93.6761C191.375 93.7458 191.182 93.7806 190.969 93.7806ZM193.124 93.7109V90.5987H193.56V91.2026L193.461 91.1793C193.539 90.978 193.664 90.8193 193.839 90.7032C194.017 90.5871 194.222 90.529 194.454 90.529C194.675 90.529 194.872 90.5793 195.046 90.68C195.224 90.7806 195.364 90.92 195.464 91.098C195.569 91.2722 195.621 91.4696 195.621 91.6903V93.7109H195.186V91.8587C195.186 91.669 195.151 91.5084 195.081 91.3767C195.015 91.2451 194.921 91.1445 194.797 91.0748C194.677 91.0013 194.537 90.9645 194.379 90.9645C194.22 90.9645 194.079 91.0013 193.955 91.0748C193.831 91.1445 193.734 91.2471 193.664 91.3826C193.595 91.5142 193.56 91.6729 193.56 91.8587V93.7109H193.124ZM197.643 93.7458C197.365 93.7458 197.15 93.6645 196.999 93.5019C196.848 93.3393 196.772 93.1071 196.772 92.8051V91.0342H196.197V90.5987H196.343C196.474 90.5987 196.579 90.5561 196.656 90.4709C196.734 90.3819 196.772 90.2716 196.772 90.14V89.8787H197.208V90.5987H197.893V91.0342H197.208V92.8051C197.208 92.9096 197.223 93.0026 197.254 93.0838C197.285 93.1613 197.337 93.2232 197.411 93.2696C197.488 93.3161 197.591 93.3393 197.719 93.3393C197.75 93.3393 197.786 93.3374 197.829 93.3335C197.872 93.3296 197.908 93.3258 197.939 93.3219V93.7109C197.893 93.7226 197.841 93.7303 197.783 93.7342C197.725 93.7419 197.678 93.7458 197.643 93.7458ZM200.007 93.7806C199.717 93.7806 199.454 93.7109 199.218 93.5716C198.985 93.4284 198.802 93.2329 198.666 92.9851C198.531 92.7374 198.463 92.4567 198.463 92.1432C198.463 91.8296 198.529 91.5529 198.66 91.3129C198.792 91.069 198.97 90.8774 199.194 90.738C199.423 90.5987 199.678 90.529 199.961 90.529C200.185 90.529 200.385 90.5716 200.559 90.6567C200.737 90.738 200.888 90.8503 201.012 90.9935C201.136 91.1329 201.231 91.2916 201.296 91.4696C201.362 91.6438 201.395 91.8238 201.395 92.0096C201.395 92.0484 201.393 92.0929 201.389 92.1432C201.385 92.1896 201.38 92.238 201.372 92.2884H198.742V91.8819H201.122L200.913 92.0561C200.948 91.8432 200.923 91.6535 200.838 91.4871C200.756 91.3167 200.638 91.1832 200.484 91.0864C200.329 90.9858 200.154 90.9355 199.961 90.9355C199.767 90.9355 199.587 90.9858 199.421 91.0864C199.258 91.1871 199.131 91.3284 199.038 91.5103C198.945 91.6884 198.908 91.9013 198.927 92.149C198.908 92.3967 198.947 92.6135 199.044 92.7993C199.144 92.9813 199.28 93.1226 199.45 93.2232C199.624 93.3238 199.81 93.3742 200.007 93.3742C200.236 93.3742 200.427 93.32 200.582 93.2116C200.737 93.1032 200.863 92.9677 200.96 92.8051L201.331 93.0026C201.269 93.1419 201.174 93.2716 201.047 93.3916C200.919 93.5077 200.766 93.6026 200.588 93.6761C200.414 93.7458 200.22 93.7806 200.007 93.7806Z" fill="#686767"/>
<rect x="34.2419" y="120.371" width="179.516" height="34.8387" rx="1.69355" fill="white"/>
<rect x="34.2419" y="120.371" width="179.516" height="34.8387" rx="1.69355" stroke="#D6D6D6" stroke-width="0.483871"/>
<path d="M43.2054 134.028C42.7821 134.028 42.3873 133.954 42.0208 133.804C41.6544 133.654 41.3344 133.445 41.0608 133.177C40.7873 132.908 40.5731 132.594 40.4183 132.232C40.2686 131.866 40.1937 131.471 40.1937 131.048C40.1937 130.619 40.2686 130.225 40.4183 129.863C40.5679 129.502 40.7795 129.187 41.0531 128.919C41.3266 128.65 41.6466 128.444 42.0131 128.299C42.3795 128.15 42.777 128.075 43.2054 128.075C43.6337 128.075 44.0312 128.15 44.3976 128.299C44.7641 128.449 45.0841 128.658 45.3576 128.927C45.6312 129.19 45.8428 129.502 45.9924 129.863C46.1473 130.225 46.2247 130.619 46.2247 131.048C46.2247 131.471 46.1473 131.866 45.9924 132.232C45.8376 132.594 45.6234 132.908 45.3499 133.177C45.0763 133.445 44.7563 133.654 44.3899 133.804C44.0286 133.954 43.6337 134.028 43.2054 134.028ZM43.2054 133.068C43.4892 133.068 43.7499 133.019 43.9873 132.921C44.2247 132.818 44.4312 132.676 44.6066 132.496C44.7873 132.315 44.9241 132.101 45.017 131.853C45.115 131.605 45.1641 131.337 45.1641 131.048C45.1641 130.759 45.115 130.493 45.017 130.25C44.9241 130.003 44.7873 129.788 44.6066 129.608C44.4312 129.422 44.2247 129.28 43.9873 129.182C43.7499 129.084 43.4892 129.035 43.2054 129.035C42.9266 129.035 42.6686 129.084 42.4312 129.182C42.1937 129.28 41.9847 129.422 41.8041 129.608C41.6286 129.788 41.4918 130.003 41.3937 130.25C41.2957 130.493 41.2466 130.759 41.2466 131.048C41.2466 131.337 41.2957 131.605 41.3937 131.853C41.4918 132.101 41.6286 132.315 41.8041 132.496C41.9847 132.676 42.1937 132.818 42.4312 132.921C42.6686 133.019 42.9266 133.068 43.2054 133.068ZM47.0758 133.936V129.724H48.028V130.661L47.9506 130.521C48.0487 130.207 48.2009 129.987 48.4074 129.863C48.619 129.739 48.8719 129.677 49.1661 129.677H49.4138V130.576H49.05C48.7609 130.576 48.5287 130.666 48.3532 130.847C48.1777 131.022 48.09 131.27 48.09 131.59V133.936H47.0758ZM51.9301 134.028C51.5224 134.028 51.1585 133.933 50.8385 133.742C50.5185 133.546 50.2656 133.28 50.0798 132.945C49.894 132.609 49.8011 132.237 49.8011 131.83C49.8011 131.417 49.894 131.045 50.0798 130.715C50.2656 130.385 50.5185 130.121 50.8385 129.925C51.1637 129.729 51.525 129.631 51.9224 129.631C52.2424 129.631 52.5263 129.696 52.774 129.825C53.0269 129.948 53.2256 130.124 53.3701 130.351L53.2153 130.56V128.075H54.2295V133.936H53.2695V133.123L53.3779 133.324C53.2334 133.551 53.0321 133.727 52.774 133.85C52.516 133.969 52.2347 134.028 51.9301 134.028ZM52.0385 133.099C52.2708 133.099 52.4747 133.045 52.6501 132.937C52.8256 132.828 52.9624 132.679 53.0605 132.488C53.1637 132.297 53.2153 132.077 53.2153 131.83C53.2153 131.587 53.1637 131.37 53.0605 131.179C52.9624 130.983 52.8256 130.831 52.6501 130.723C52.4747 130.614 52.2708 130.56 52.0385 130.56C51.8114 130.56 51.6076 130.617 51.4269 130.73C51.2463 130.839 51.1043 130.988 51.0011 131.179C50.9031 131.365 50.854 131.582 50.854 131.83C50.854 132.077 50.9031 132.297 51.0011 132.488C51.1043 132.679 51.2463 132.828 51.4269 132.937C51.6076 133.045 51.8114 133.099 52.0385 133.099ZM57.1705 134.028C56.7369 134.028 56.3576 133.93 56.0324 133.734C55.7072 133.538 55.4543 133.272 55.2737 132.937C55.0931 132.601 55.0027 132.23 55.0027 131.822C55.0027 131.399 55.0931 131.025 55.2737 130.699C55.4595 130.369 55.7098 130.108 56.0247 129.917C56.3447 129.727 56.7008 129.631 57.0931 129.631C57.4234 129.631 57.7124 129.685 57.9601 129.794C58.2131 129.902 58.4272 130.052 58.6027 130.243C58.7782 130.434 58.9124 130.653 59.0053 130.901C59.0982 131.143 59.1447 131.407 59.1447 131.69C59.1447 131.763 59.1395 131.837 59.1292 131.915C59.124 131.992 59.1111 132.059 59.0905 132.116H55.8389V131.342H58.5176L58.0376 131.706C58.084 131.468 58.0711 131.257 57.9989 131.071C57.9318 130.885 57.8182 130.738 57.6582 130.63C57.5034 130.521 57.315 130.467 57.0931 130.467C56.8814 130.467 56.6931 130.521 56.5279 130.63C56.3627 130.733 56.2363 130.888 56.1485 131.094C56.066 131.296 56.035 131.541 56.0556 131.83C56.035 132.088 56.0685 132.317 56.1563 132.519C56.2492 132.715 56.3834 132.867 56.5589 132.976C56.7395 133.084 56.946 133.138 57.1782 133.138C57.4105 133.138 57.6066 133.089 57.7666 132.991C57.9318 132.893 58.0608 132.761 58.1537 132.596L58.9743 132.999C58.8918 133.2 58.7627 133.378 58.5872 133.533C58.4118 133.688 58.2027 133.809 57.9601 133.897C57.7227 133.985 57.4595 134.028 57.1705 134.028ZM59.9135 133.936V129.724H60.8657V130.552L60.7883 130.405C60.8864 130.152 61.0464 129.961 61.2683 129.832C61.4954 129.698 61.7586 129.631 62.058 129.631C62.3677 129.631 62.6412 129.698 62.8786 129.832C63.1212 129.967 63.3096 130.155 63.4438 130.397C63.578 130.635 63.6451 130.911 63.6451 131.226V133.936H62.6309V131.466C62.6309 131.28 62.5948 131.12 62.5225 130.986C62.4502 130.852 62.3496 130.748 62.2206 130.676C62.0967 130.599 61.9496 130.56 61.7793 130.56C61.6141 130.56 61.467 130.599 61.338 130.676C61.209 130.748 61.1083 130.852 61.0361 130.986C60.9638 131.12 60.9277 131.28 60.9277 131.466V133.936H59.9135ZM66.4516 133.936L66.8155 132.666H65.8864V131.776H67.071L67.4968 130.32H66.5677V129.43H67.7445L68.1084 128.168H69.1381L68.7742 129.43H70.0516L70.4077 128.168H71.4374L71.0735 129.43H72.0026V130.32H70.8181L70.4 131.776H71.329V132.666H70.1445L69.7806 133.936H68.7587L69.1148 132.666H67.8451L67.4813 133.936H66.4516ZM68.1006 131.776H69.3781L69.7884 130.32H68.5187L68.1006 131.776ZM74.8287 134.028C74.4364 134.028 74.088 133.946 73.7835 133.781C73.4842 133.61 73.2493 133.383 73.079 133.099C72.9087 132.81 72.8235 132.483 72.8235 132.116C72.8235 131.93 72.8416 131.745 72.8777 131.559C72.919 131.373 72.9913 131.174 73.0945 130.963C73.2029 130.751 73.3577 130.516 73.559 130.258L75.1693 128.168H76.4235L74.4648 130.684L74.2945 130.498C74.3667 130.441 74.4416 130.397 74.519 130.367C74.5964 130.33 74.6738 130.305 74.7513 130.289C74.8338 130.274 74.919 130.266 75.0067 130.266C75.3577 130.266 75.67 130.346 75.9435 130.506C76.2171 130.666 76.4313 130.885 76.5861 131.164C76.7461 131.437 76.8261 131.747 76.8261 132.093C76.8261 132.465 76.7409 132.797 76.5706 133.092C76.4003 133.381 76.1629 133.61 75.8584 133.781C75.559 133.946 75.2158 134.028 74.8287 134.028ZM74.8287 133.076C75.0042 133.076 75.1616 133.037 75.3009 132.96C75.4455 132.877 75.559 132.761 75.6416 132.612C75.7293 132.462 75.7732 132.294 75.7732 132.108C75.7732 131.912 75.7293 131.745 75.6416 131.605C75.559 131.461 75.448 131.347 75.3087 131.265C75.1693 131.182 75.0093 131.141 74.8287 131.141C74.6532 131.141 74.4932 131.182 74.3487 131.265C74.2042 131.347 74.088 131.461 74.0003 131.605C73.9177 131.745 73.8764 131.912 73.8764 132.108C73.8764 132.294 73.9177 132.462 74.0003 132.612C74.088 132.761 74.2042 132.877 74.3487 132.96C74.4932 133.037 74.6532 133.076 74.8287 133.076ZM77.7053 133.936L80.1053 129.058H77.3879V128.168H81.2124V129.058L78.8666 133.936H77.7053ZM83.9189 134.028C83.5009 134.028 83.137 133.951 82.8273 133.796C82.5228 133.636 82.2854 133.422 82.1151 133.154C81.9499 132.885 81.8673 132.591 81.8673 132.271C81.8673 131.894 81.968 131.577 82.1692 131.319C82.3705 131.056 82.6621 130.862 83.0441 130.738L82.9821 130.994C82.7086 130.906 82.4918 130.736 82.3318 130.483C82.177 130.23 82.0996 129.951 82.0996 129.647C82.0996 129.342 82.177 129.071 82.3318 128.834C82.4867 128.596 82.7009 128.41 82.9744 128.276C83.248 128.142 83.5628 128.075 83.9189 128.075C84.2699 128.075 84.5796 128.142 84.848 128.276C85.1215 128.41 85.3357 128.596 85.4905 128.834C85.6505 129.071 85.7305 129.342 85.7305 129.647C85.7305 129.956 85.6505 130.237 85.4905 130.49C85.3357 130.738 85.1215 130.908 84.848 131.001L84.7938 130.73C85.1757 130.865 85.4673 131.063 85.6686 131.327C85.8699 131.585 85.9705 131.902 85.9705 132.279C85.9705 132.599 85.8854 132.893 85.7151 133.161C85.5499 133.425 85.3125 133.636 85.0028 133.796C84.6983 133.951 84.337 134.028 83.9189 134.028ZM83.9189 133.138C84.1202 133.138 84.2957 133.102 84.4454 133.03C84.5951 132.952 84.7112 132.847 84.7938 132.712C84.8763 132.573 84.9176 132.416 84.9176 132.24C84.9176 132.059 84.8763 131.905 84.7938 131.776C84.7112 131.641 84.5951 131.538 84.4454 131.466C84.2957 131.388 84.1202 131.35 83.9189 131.35C83.7176 131.35 83.5421 131.388 83.3925 131.466C83.248 131.538 83.1344 131.641 83.0518 131.776C82.9692 131.905 82.928 132.059 82.928 132.24C82.928 132.416 82.9692 132.573 83.0518 132.712C83.1344 132.847 83.248 132.952 83.3925 133.03C83.5421 133.102 83.7176 133.138 83.9189 133.138ZM83.9189 130.459C84.0686 130.459 84.2002 130.426 84.3138 130.359C84.4273 130.292 84.5151 130.204 84.577 130.096C84.6441 129.982 84.6776 129.853 84.6776 129.708C84.6776 129.564 84.6441 129.437 84.577 129.329C84.5151 129.216 84.4273 129.128 84.3138 129.066C84.2002 128.999 84.0686 128.965 83.9189 128.965C83.7692 128.965 83.6351 128.999 83.5163 129.066C83.4028 129.128 83.3125 129.216 83.2454 129.329C83.1834 129.437 83.1525 129.564 83.1525 129.708C83.1525 129.853 83.1834 129.982 83.2454 130.096C83.3125 130.204 83.4028 130.292 83.5163 130.359C83.6351 130.426 83.7692 130.459 83.9189 130.459Z" fill="#292626"/>
<rect x="167.822" y="126.177" width="40.129" height="11.3871" rx="5.69355" fill="#EEEEEE"/>
<rect x="167.822" y="126.177" width="40.129" height="11.3871" rx="5.69355" stroke="#686767" stroke-width="0.483871"/>
<path d="M173.898 133.871V129.545H175.384C175.667 129.545 175.914 129.601 176.127 129.714C176.34 129.822 176.505 129.977 176.621 130.178C176.741 130.376 176.801 130.606 176.801 130.869C176.801 131.132 176.741 131.363 176.621 131.56C176.505 131.758 176.34 131.912 176.127 132.025C175.918 132.133 175.671 132.187 175.384 132.187H174.362V133.871H173.898ZM174.362 131.752H175.407C175.593 131.752 175.756 131.717 175.895 131.647C176.034 131.574 176.143 131.471 176.22 131.339C176.298 131.204 176.336 131.045 176.336 130.863C176.336 130.681 176.298 130.525 176.22 130.393C176.143 130.261 176.034 130.161 175.895 130.091C175.756 130.018 175.593 129.981 175.407 129.981H174.362V131.752ZM178.868 133.941C178.578 133.941 178.315 133.871 178.079 133.732C177.846 133.589 177.662 133.393 177.527 133.145C177.392 132.898 177.324 132.617 177.324 132.303C177.324 131.99 177.39 131.713 177.521 131.473C177.653 131.229 177.831 131.038 178.055 130.898C178.284 130.759 178.539 130.689 178.822 130.689C179.046 130.689 179.246 130.732 179.42 130.817C179.598 130.898 179.749 131.01 179.873 131.154C179.997 131.293 180.092 131.452 180.157 131.63C180.223 131.804 180.256 131.984 180.256 132.17C180.256 132.209 180.254 132.253 180.25 132.303C180.246 132.35 180.241 132.398 180.233 132.449H177.602V132.042H179.983L179.774 132.216C179.809 132.003 179.784 131.814 179.699 131.647C179.617 131.477 179.499 131.343 179.344 131.247C179.19 131.146 179.015 131.096 178.822 131.096C178.628 131.096 178.448 131.146 178.282 131.247C178.119 131.347 177.992 131.489 177.899 131.67C177.806 131.849 177.769 132.061 177.788 132.309C177.769 132.557 177.808 132.774 177.904 132.959C178.005 133.141 178.141 133.283 178.311 133.383C178.485 133.484 178.671 133.534 178.868 133.534C179.097 133.534 179.288 133.48 179.443 133.372C179.598 133.263 179.724 133.128 179.821 132.965L180.192 133.163C180.13 133.302 180.035 133.432 179.908 133.552C179.78 133.668 179.627 133.763 179.449 133.836C179.275 133.906 179.081 133.941 178.868 133.941ZM181.024 133.871V130.759H181.459V131.363L181.361 131.339C181.438 131.138 181.564 130.979 181.738 130.863C181.916 130.747 182.121 130.689 182.354 130.689C182.574 130.689 182.772 130.739 182.946 130.84C183.124 130.941 183.263 131.08 183.364 131.258C183.468 131.432 183.521 131.63 183.521 131.85V133.871H183.085V132.019C183.085 131.829 183.05 131.669 182.981 131.537C182.915 131.405 182.82 131.305 182.696 131.235C182.576 131.161 182.437 131.125 182.278 131.125C182.119 131.125 181.978 131.161 181.854 131.235C181.73 131.305 181.634 131.407 181.564 131.543C181.494 131.674 181.459 131.833 181.459 132.019V133.871H181.024ZM185.757 133.941C185.467 133.941 185.206 133.871 184.974 133.732C184.741 133.589 184.557 133.395 184.422 133.151C184.29 132.903 184.225 132.625 184.225 132.315C184.225 132.001 184.29 131.723 184.422 131.479C184.557 131.235 184.739 131.043 184.968 130.904C185.2 130.761 185.463 130.689 185.757 130.689C186.025 130.689 186.263 130.747 186.472 130.863C186.681 130.979 186.845 131.136 186.965 131.334L186.896 131.456V129.476H187.331V133.871H186.896V133.174L186.965 133.238C186.857 133.463 186.694 133.637 186.477 133.761C186.265 133.881 186.025 133.941 185.757 133.941ZM185.781 133.505C185.99 133.505 186.177 133.453 186.344 133.349C186.514 133.244 186.648 133.103 186.745 132.925C186.845 132.743 186.896 132.539 186.896 132.315C186.896 132.09 186.845 131.889 186.745 131.711C186.648 131.529 186.514 131.386 186.344 131.281C186.177 131.177 185.99 131.125 185.781 131.125C185.576 131.125 185.39 131.177 185.223 131.281C185.057 131.386 184.925 131.527 184.828 131.705C184.736 131.883 184.689 132.087 184.689 132.315C184.689 132.539 184.736 132.743 184.828 132.925C184.925 133.103 185.055 133.244 185.217 133.349C185.384 133.453 185.572 133.505 185.781 133.505ZM188.225 133.871V130.759H188.661V133.871H188.225ZM188.225 130.184V129.545H188.661V130.184H188.225ZM190.969 133.941C190.679 133.941 190.415 133.871 190.179 133.732C189.947 133.589 189.763 133.393 189.628 133.145C189.492 132.898 189.424 132.617 189.424 132.303C189.424 131.99 189.49 131.713 189.622 131.473C189.753 131.229 189.931 131.038 190.156 130.898C190.384 130.759 190.64 130.689 190.922 130.689C191.147 130.689 191.346 130.732 191.52 130.817C191.699 130.898 191.849 131.01 191.973 131.154C192.097 131.293 192.192 131.452 192.258 131.63C192.324 131.804 192.357 131.984 192.357 132.17C192.357 132.209 192.355 132.253 192.351 132.303C192.347 132.35 192.341 132.398 192.333 132.449H189.703V132.042H192.084L191.875 132.216C191.909 132.003 191.884 131.814 191.799 131.647C191.718 131.477 191.6 131.343 191.445 131.247C191.29 131.146 191.116 131.096 190.922 131.096C190.729 131.096 190.549 131.146 190.382 131.247C190.22 131.347 190.092 131.489 189.999 131.67C189.906 131.849 189.869 132.061 189.889 132.309C189.869 132.557 189.908 132.774 190.005 132.959C190.106 133.141 190.241 133.283 190.411 133.383C190.586 133.484 190.771 133.534 190.969 133.534C191.197 133.534 191.389 133.48 191.544 133.372C191.699 133.263 191.824 133.128 191.921 132.965L192.293 133.163C192.231 133.302 192.136 133.432 192.008 133.552C191.88 133.668 191.728 133.763 191.549 133.836C191.375 133.906 191.182 133.941 190.969 133.941ZM193.124 133.871V130.759H193.56V131.363L193.461 131.339C193.539 131.138 193.664 130.979 193.839 130.863C194.017 130.747 194.222 130.689 194.454 130.689C194.675 130.689 194.872 130.739 195.046 130.84C195.224 130.941 195.364 131.08 195.464 131.258C195.569 131.432 195.621 131.63 195.621 131.85V133.871H195.186V132.019C195.186 131.829 195.151 131.669 195.081 131.537C195.015 131.405 194.921 131.305 194.797 131.235C194.677 131.161 194.537 131.125 194.379 131.125C194.22 131.125 194.079 131.161 193.955 131.235C193.831 131.305 193.734 131.407 193.664 131.543C193.595 131.674 193.56 131.833 193.56 132.019V133.871H193.124ZM197.643 133.906C197.365 133.906 197.15 133.825 196.999 133.662C196.848 133.499 196.772 133.267 196.772 132.965V131.194H196.197V130.759H196.343C196.474 130.759 196.579 130.716 196.656 130.631C196.734 130.542 196.772 130.432 196.772 130.3V130.039H197.208V130.759H197.893V131.194H197.208V132.965C197.208 133.07 197.223 133.163 197.254 133.244C197.285 133.321 197.337 133.383 197.411 133.43C197.488 133.476 197.591 133.499 197.719 133.499C197.75 133.499 197.786 133.498 197.829 133.494C197.872 133.49 197.908 133.486 197.939 133.482V133.871C197.893 133.883 197.841 133.89 197.783 133.894C197.725 133.902 197.678 133.906 197.643 133.906ZM200.007 133.941C199.717 133.941 199.454 133.871 199.218 133.732C198.985 133.589 198.802 133.393 198.666 133.145C198.531 132.898 198.463 132.617 198.463 132.303C198.463 131.99 198.529 131.713 198.66 131.473C198.792 131.229 198.97 131.038 199.194 130.898C199.423 130.759 199.678 130.689 199.961 130.689C200.185 130.689 200.385 130.732 200.559 130.817C200.737 130.898 200.888 131.01 201.012 131.154C201.136 131.293 201.231 131.452 201.296 131.63C201.362 131.804 201.395 131.984 201.395 132.17C201.395 132.209 201.393 132.253 201.389 132.303C201.385 132.35 201.38 132.398 201.372 132.449H198.742V132.042H201.122L200.913 132.216C200.948 132.003 200.923 131.814 200.838 131.647C200.756 131.477 200.638 131.343 200.484 131.247C200.329 131.146 200.154 131.096 199.961 131.096C199.767 131.096 199.587 131.146 199.421 131.247C199.258 131.347 199.131 131.489 199.038 131.67C198.945 131.849 198.908 132.061 198.927 132.309C198.908 132.557 198.947 132.774 199.044 132.959C199.144 133.141 199.28 133.283 199.45 133.383C199.624 133.484 199.81 133.534 200.007 133.534C200.236 133.534 200.427 133.48 200.582 133.372C200.737 133.263 200.863 133.128 200.96 132.965L201.331 133.163C201.269 133.302 201.174 133.432 201.047 133.552C200.919 133.668 200.766 133.763 200.588 133.836C200.414 133.906 200.22 133.941 200.007 133.941Z" fill="#686767"/>
</g>
<defs>
<clipPath id="clip0_1600_15393">
<rect width="243" height="132" rx="5" fill="white"/>
</clipPath>
</defs>
</svg>
