<svg width="243" height="132" viewBox="0 0 243 132" fill="none" xmlns="http://www.w3.org/2000/svg">
<rect y="-0.00012207" width="243" height="132" rx="5" fill="#F4F4F4"/>
<rect x="22.2341" y="12.2339" width="23.8744" height="23.8744" rx="11.9372" stroke="#DADDDD" stroke-width="0.468125"/>
<path d="M36.5825 21.2347L33.4642 24.1745L36.5825 27.1144C36.657 27.1846 36.716 27.2679 36.7562 27.3595C36.7965 27.4512 36.8172 27.5494 36.8172 27.6486C36.8172 27.7478 36.7965 27.846 36.7562 27.9377C36.716 28.0294 36.657 28.1126 36.5825 28.1828C36.5081 28.2529 36.4198 28.3086 36.3226 28.3465C36.2254 28.3845 36.1212 28.4041 36.0159 28.4041C35.9107 28.4041 35.8065 28.3845 35.7093 28.3465C35.6121 28.3086 35.5238 28.2529 35.4493 28.1828L31.7604 24.7049C31.6859 24.6348 31.6268 24.5516 31.5865 24.4599C31.5462 24.3683 31.5254 24.27 31.5254 24.1708C31.5254 24.0715 31.5462 23.9733 31.5865 23.8816C31.6268 23.7899 31.6859 23.7067 31.7604 23.6366L35.4493 20.1587C35.7628 19.8632 36.2691 19.8632 36.5825 20.1587C36.8879 20.4542 36.896 20.9392 36.5825 21.2347Z" fill="#0D263B"/>
<path d="M87.7925 22.45C87.7557 22.1226 87.6035 21.8691 87.3361 21.6892C87.0687 21.5071 86.7322 21.4161 86.3265 21.4161C86.036 21.4161 85.7847 21.4622 85.5727 21.5544C85.3606 21.6443 85.1958 21.7688 85.0782 21.9278C84.963 22.0846 84.9053 22.2632 84.9053 22.4638C84.9053 22.6321 84.9445 22.7773 85.0229 22.8995C85.1036 23.0216 85.2085 23.1242 85.3375 23.2072C85.4689 23.2879 85.6096 23.3559 85.7594 23.4112C85.9092 23.4642 86.0533 23.508 86.1916 23.5426L86.8832 23.7224C87.1091 23.7777 87.3407 23.8526 87.5782 23.9472C87.8156 24.0417 88.0357 24.1661 88.2386 24.3206C88.4414 24.475 88.6051 24.6664 88.7296 24.8946C88.8564 25.1228 88.9198 25.3959 88.9198 25.7141C88.9198 26.1152 88.816 26.4713 88.6086 26.7825C88.4034 27.0937 88.1049 27.3392 87.713 27.519C87.3234 27.6988 86.852 27.7887 86.2988 27.7887C85.7686 27.7887 85.3099 27.7046 84.9226 27.5363C84.5353 27.368 84.2322 27.1294 84.0132 26.8205C83.7942 26.5093 83.6732 26.1405 83.6502 25.7141H84.7221C84.7428 25.9699 84.8258 26.1832 84.971 26.3537C85.1186 26.522 85.3064 26.6477 85.5346 26.7306C85.7651 26.8113 86.0176 26.8517 86.2919 26.8517C86.5939 26.8517 86.8624 26.8044 87.0975 26.7099C87.335 26.6131 87.5217 26.4794 87.6577 26.3088C87.7937 26.1359 87.8617 25.9342 87.8617 25.7037C87.8617 25.4939 87.8018 25.3222 87.6819 25.1885C87.5643 25.0548 87.4041 24.9441 87.2013 24.8565C87.0007 24.7689 86.7737 24.6917 86.5201 24.6249L85.6833 24.3967C85.1162 24.2422 84.6667 24.0152 84.3348 23.7155C84.0052 23.4158 83.8403 23.0193 83.8403 22.526C83.8403 22.118 83.951 21.7619 84.1723 21.4576C84.3936 21.1533 84.6932 20.917 85.0713 20.7487C85.4493 20.5782 85.8758 20.4929 86.3507 20.4929C86.8301 20.4929 87.2531 20.577 87.6197 20.7453C87.9885 20.9136 88.2789 21.1452 88.491 21.4403C88.7031 21.733 88.8137 22.0696 88.8229 22.45H87.7925ZM92.3507 27.7783C91.8528 27.7783 91.4183 27.6642 91.0471 27.436C90.676 27.2078 90.3879 26.8885 90.1827 26.4782C89.9775 26.0679 89.875 25.5884 89.875 25.0398C89.875 24.4889 89.9775 24.0071 90.1827 23.5945C90.3879 23.1818 90.676 22.8614 91.0471 22.6332C91.4183 22.405 91.8528 22.2909 92.3507 22.2909C92.8486 22.2909 93.2831 22.405 93.6543 22.6332C94.0254 22.8614 94.3136 23.1818 94.5187 23.5945C94.7239 24.0071 94.8265 24.4889 94.8265 25.0398C94.8265 25.5884 94.7239 26.0679 94.5187 26.4782C94.3136 26.8885 94.0254 27.2078 93.6543 27.436C93.2831 27.6642 92.8486 27.7783 92.3507 27.7783ZM92.3542 26.9104C92.6769 26.9104 92.9443 26.8251 93.1564 26.6546C93.3684 26.484 93.5252 26.2569 93.6266 25.9734C93.7303 25.6899 93.7822 25.3775 93.7822 25.0363C93.7822 24.6975 93.7303 24.3863 93.6266 24.1028C93.5252 23.8169 93.3684 23.5875 93.1564 23.4147C92.9443 23.2418 92.6769 23.1553 92.3542 23.1553C92.0291 23.1553 91.7594 23.2418 91.5451 23.4147C91.333 23.5875 91.1751 23.8169 91.0713 24.1028C90.9699 24.3863 90.9192 24.6975 90.9192 25.0363C90.9192 25.3775 90.9699 25.6899 91.0713 25.9734C91.1751 26.2569 91.333 26.484 91.5451 26.6546C91.7594 26.8251 92.0291 26.9104 92.3542 26.9104ZM97.0143 20.5897V27.6711H95.9805V20.5897H97.0143ZM98.4052 27.6711V22.36H99.4391V27.6711H98.4052ZM98.9273 21.5406C98.7475 21.5406 98.5931 21.4806 98.464 21.3608C98.3372 21.2386 98.2738 21.0934 98.2738 20.9251C98.2738 20.7545 98.3372 20.6093 98.464 20.4894C98.5931 20.3672 98.7475 20.3062 98.9273 20.3062C99.1071 20.3062 99.2604 20.3672 99.3872 20.4894C99.5163 20.6093 99.5808 20.7545 99.5808 20.9251C99.5808 21.0934 99.5163 21.2386 99.3872 21.3608C99.2604 21.4806 99.1071 21.5406 98.9273 21.5406ZM103.067 27.7783C102.553 27.7783 102.11 27.6619 101.739 27.4291C101.371 27.194 101.087 26.8701 100.889 26.4575C100.69 26.0449 100.591 25.5723 100.591 25.0398C100.591 24.5004 100.693 24.0244 100.896 23.6118C101.099 23.1968 101.384 22.8729 101.753 22.6401C102.122 22.4073 102.557 22.2909 103.057 22.2909C103.46 22.2909 103.82 22.3658 104.136 22.5156C104.451 22.6632 104.706 22.8706 104.9 23.138C105.096 23.4054 105.212 23.7178 105.249 24.0751H104.243C104.187 23.8261 104.061 23.6118 103.862 23.4319C103.666 23.2521 103.404 23.1622 103.074 23.1622C102.786 23.1622 102.533 23.2383 102.317 23.3905C102.102 23.5403 101.935 23.7547 101.815 24.0336C101.696 24.3102 101.636 24.6375 101.636 25.0156C101.636 25.4029 101.694 25.7371 101.812 26.0183C101.93 26.2996 102.095 26.5174 102.31 26.6719C102.527 26.8263 102.781 26.9035 103.074 26.9035C103.27 26.9035 103.447 26.8678 103.607 26.7963C103.768 26.7226 103.903 26.6177 104.011 26.4817C104.122 26.3457 104.199 26.182 104.243 25.9907H105.249C105.212 26.3341 105.1 26.6407 104.914 26.9104C104.727 27.1801 104.477 27.3922 104.163 27.5467C103.852 27.7011 103.487 27.7783 103.067 27.7783ZM106.355 27.6711V22.36H107.388V27.6711H106.355ZM106.877 21.5406C106.697 21.5406 106.542 21.4806 106.413 21.3608C106.287 21.2386 106.223 21.0934 106.223 20.9251C106.223 20.7545 106.287 20.6093 106.413 20.4894C106.542 20.3672 106.697 20.3062 106.877 20.3062C107.056 20.3062 107.21 20.3672 107.337 20.4894C107.466 20.6093 107.53 20.7545 107.53 20.9251C107.53 21.0934 107.466 21.2386 107.337 21.3608C107.21 21.4806 107.056 21.5406 106.877 21.5406ZM111.259 22.36V23.1899H108.357V22.36H111.259ZM109.135 21.0876H110.169V26.1117C110.169 26.3122 110.199 26.4632 110.259 26.5647C110.319 26.6638 110.396 26.7318 110.491 26.7687C110.588 26.8032 110.693 26.8205 110.806 26.8205C110.889 26.8205 110.961 26.8148 111.023 26.8032C111.086 26.7917 111.134 26.7825 111.169 26.7756L111.355 27.6296C111.295 27.6527 111.21 27.6758 111.099 27.6988C110.989 27.7242 110.85 27.738 110.685 27.7403C110.413 27.7449 110.159 27.6965 109.924 27.5951C109.689 27.4936 109.499 27.3369 109.353 27.1248C109.208 26.9127 109.135 26.6465 109.135 26.3261V21.0876ZM115.767 25.4686V22.36H116.804V27.6711H115.787V26.7514H115.732C115.61 27.0349 115.414 27.2712 115.144 27.4602C114.877 27.6469 114.544 27.7403 114.145 27.7403C113.804 27.7403 113.502 27.6654 113.239 27.5155C112.978 27.3634 112.773 27.1387 112.623 26.8413C112.476 26.5439 112.402 26.1762 112.402 25.7383V22.36H113.436V25.6138C113.436 25.9757 113.536 26.2638 113.737 26.4782C113.937 26.6926 114.198 26.7998 114.518 26.7998C114.712 26.7998 114.904 26.7514 115.096 26.6546C115.289 26.5577 115.45 26.4114 115.576 26.2154C115.705 26.0195 115.769 25.7705 115.767 25.4686ZM120.181 27.7749C119.752 27.7749 119.37 27.6654 119.033 27.4464C118.699 27.2251 118.436 26.9104 118.245 26.5024C118.056 26.0921 117.961 25.6 117.961 25.026C117.961 24.452 118.057 23.961 118.248 23.553C118.442 23.145 118.707 22.8326 119.044 22.6159C119.38 22.3992 119.762 22.2909 120.188 22.2909C120.518 22.2909 120.783 22.3462 120.983 22.4569C121.186 22.5652 121.343 22.692 121.454 22.8372C121.567 22.9824 121.654 23.1104 121.716 23.221H121.779V20.5897H122.813V27.6711H121.803V26.8447H121.716C121.654 26.9577 121.564 27.0868 121.447 27.232C121.331 27.3772 121.172 27.504 120.97 27.6124C120.767 27.7207 120.504 27.7749 120.181 27.7749ZM120.409 26.8932C120.707 26.8932 120.958 26.8148 121.163 26.658C121.371 26.499 121.527 26.2788 121.633 25.9976C121.742 25.7164 121.796 25.389 121.796 25.0156C121.796 24.6468 121.743 24.324 121.637 24.0474C121.531 23.7708 121.375 23.5553 121.17 23.4008C120.965 23.2464 120.711 23.1692 120.409 23.1692C120.098 23.1692 119.839 23.2498 119.631 23.4112C119.424 23.5726 119.267 23.7927 119.161 24.0716C119.057 24.3506 119.006 24.6652 119.006 25.0156C119.006 25.3706 119.059 25.6899 119.165 25.9734C119.271 26.2569 119.427 26.4817 119.635 26.6477C119.845 26.8113 120.103 26.8932 120.409 26.8932ZM128.853 27.7749C128.424 27.7749 128.042 27.6654 127.705 27.4464C127.371 27.2251 127.108 26.9104 126.917 26.5024C126.728 26.0921 126.633 25.6 126.633 25.026C126.633 24.452 126.729 23.961 126.92 23.553C127.114 23.145 127.379 22.8326 127.716 22.6159C128.052 22.3992 128.434 22.2909 128.86 22.2909C129.19 22.2909 129.455 22.3462 129.655 22.4569C129.858 22.5652 130.015 22.692 130.126 22.8372C130.239 22.9824 130.326 23.1104 130.388 23.221H130.451V20.5897H131.485V27.6711H130.475V26.8447H130.388C130.326 26.9577 130.236 27.0868 130.119 27.232C130.004 27.3772 129.844 27.504 129.642 27.6124C129.439 27.7207 129.176 27.7749 128.853 27.7749ZM129.081 26.8932C129.379 26.8932 129.63 26.8148 129.835 26.658C130.043 26.499 130.199 26.2788 130.305 25.9976C130.414 25.7164 130.468 25.389 130.468 25.0156C130.468 24.6468 130.415 24.324 130.309 24.0474C130.203 23.7708 130.047 23.5553 129.842 23.4008C129.637 23.2464 129.383 23.1692 129.081 23.1692C128.77 23.1692 128.511 23.2498 128.303 23.4112C128.096 23.5726 127.939 23.7927 127.833 24.0716C127.729 24.3506 127.678 24.6652 127.678 25.0156C127.678 25.3706 127.731 25.6899 127.837 25.9734C127.943 26.2569 128.099 26.4817 128.307 26.6477C128.517 26.8113 128.775 26.8932 129.081 26.8932ZM135.249 27.7783C134.726 27.7783 134.275 27.6665 133.897 27.4429C133.521 27.217 133.231 26.9001 133.026 26.4921C132.823 26.0817 132.722 25.6011 132.722 25.0502C132.722 24.5062 132.823 24.0267 133.026 23.6118C133.231 23.1968 133.517 22.8729 133.883 22.6401C134.252 22.4073 134.683 22.2909 135.177 22.2909C135.476 22.2909 135.767 22.3405 136.048 22.4396C136.329 22.5387 136.582 22.6943 136.805 22.9064C137.029 23.1184 137.205 23.3939 137.334 23.7328C137.463 24.0693 137.528 24.4785 137.528 24.9603V25.3268H133.306V24.5523H136.515C136.515 24.2802 136.459 24.0394 136.349 23.8296C136.238 23.6175 136.083 23.4504 135.882 23.3282C135.684 23.206 135.451 23.145 135.183 23.145C134.893 23.145 134.639 23.2164 134.423 23.3593C134.208 23.5 134.042 23.6844 133.925 23.9126C133.81 24.1385 133.752 24.384 133.752 24.6491V25.2542C133.752 25.6092 133.814 25.9112 133.939 26.1601C134.065 26.4091 134.242 26.5992 134.468 26.7306C134.694 26.8597 134.958 26.9243 135.26 26.9243C135.456 26.9243 135.634 26.8966 135.796 26.8413C135.957 26.7837 136.096 26.6984 136.214 26.5854C136.331 26.4725 136.421 26.333 136.484 26.167L137.462 26.3434C137.384 26.6315 137.243 26.8839 137.04 27.1006C136.84 27.315 136.587 27.4821 136.283 27.602C135.981 27.7196 135.636 27.7783 135.249 27.7783ZM141.252 27.6711V22.36H142.251V23.2037H142.306C142.403 22.9179 142.574 22.6931 142.818 22.5295C143.065 22.3635 143.344 22.2805 143.655 22.2805C143.72 22.2805 143.796 22.2828 143.883 22.2874C143.973 22.292 144.043 22.2978 144.094 22.3047V23.2936C144.053 23.2821 143.979 23.2694 143.873 23.2556C143.767 23.2395 143.661 23.2314 143.555 23.2314C143.31 23.2314 143.093 23.2833 142.901 23.387C142.712 23.4884 142.562 23.6302 142.452 23.8123C142.341 23.9921 142.286 24.1973 142.286 24.4278V27.6711H141.252ZM147.088 27.7783C146.564 27.7783 146.114 27.6665 145.736 27.4429C145.36 27.217 145.069 26.9001 144.864 26.4921C144.661 26.0817 144.56 25.6011 144.56 25.0502C144.56 24.5062 144.661 24.0267 144.864 23.6118C145.069 23.1968 145.355 22.8729 145.722 22.6401C146.091 22.4073 146.522 22.2909 147.015 22.2909C147.315 22.2909 147.605 22.3405 147.886 22.4396C148.168 22.5387 148.42 22.6943 148.644 22.9064C148.867 23.1184 149.044 23.3939 149.173 23.7328C149.302 24.0693 149.366 24.4785 149.366 24.9603V25.3268H145.144V24.5523H148.353C148.353 24.2802 148.298 24.0394 148.187 23.8296C148.077 23.6175 147.921 23.4504 147.72 23.3282C147.522 23.206 147.289 23.145 147.022 23.145C146.731 23.145 146.478 23.2164 146.261 23.3593C146.047 23.5 145.881 23.6844 145.763 23.9126C145.648 24.1385 145.59 24.384 145.59 24.6491V25.2542C145.59 25.6092 145.653 25.9112 145.777 26.1601C145.904 26.4091 146.08 26.5992 146.306 26.7306C146.532 26.8597 146.796 26.9243 147.098 26.9243C147.294 26.9243 147.473 26.8966 147.634 26.8413C147.795 26.7837 147.935 26.6984 148.052 26.5854C148.17 26.4725 148.26 26.333 148.322 26.167L149.301 26.3434C149.222 26.6315 149.082 26.8839 148.879 27.1006C148.678 27.315 148.426 27.4821 148.122 27.602C147.82 27.7196 147.475 27.7783 147.088 27.7783ZM154.493 23.6567L153.556 23.8227C153.517 23.7028 153.455 23.5887 153.369 23.4804C153.287 23.372 153.174 23.2833 153.031 23.2141C152.888 23.145 152.709 23.1104 152.495 23.1104C152.202 23.1104 151.958 23.1761 151.762 23.3075C151.566 23.4366 151.468 23.6037 151.468 23.8088C151.468 23.9863 151.533 24.1293 151.665 24.2376C151.796 24.3459 152.008 24.4347 152.301 24.5039L153.145 24.6975C153.633 24.8104 153.998 24.9845 154.237 25.2196C154.477 25.4547 154.597 25.7602 154.597 26.1359C154.597 26.454 154.505 26.7376 154.32 26.9865C154.138 27.2332 153.884 27.4268 153.556 27.5674C153.231 27.708 152.854 27.7783 152.426 27.7783C151.831 27.7783 151.346 27.6515 150.97 27.398C150.594 27.1421 150.364 26.779 150.278 26.3088L151.278 26.1567C151.34 26.4171 151.468 26.6142 151.661 26.7479C151.855 26.8793 152.107 26.945 152.419 26.945C152.757 26.945 153.028 26.8747 153.231 26.7341C153.434 26.5912 153.535 26.4171 153.535 26.212C153.535 26.046 153.473 25.9065 153.349 25.7936C153.227 25.6806 153.039 25.5953 152.785 25.5377L151.886 25.3406C151.391 25.2277 151.024 25.0479 150.787 24.8012C150.551 24.5546 150.434 24.2422 150.434 23.8642C150.434 23.5507 150.521 23.2764 150.697 23.0412C150.872 22.8061 151.114 22.6228 151.423 22.4914C151.732 22.3577 152.086 22.2909 152.484 22.2909C153.058 22.2909 153.51 22.4154 153.84 22.6643C154.169 22.911 154.387 23.2418 154.493 23.6567ZM158.023 27.7783C157.499 27.7783 157.049 27.6665 156.671 27.4429C156.295 27.217 156.005 26.9001 155.799 26.4921C155.597 26.0817 155.495 25.6011 155.495 25.0502C155.495 24.5062 155.597 24.0267 155.799 23.6118C156.005 23.1968 156.29 22.8729 156.657 22.6401C157.026 22.4073 157.457 22.2909 157.95 22.2909C158.25 22.2909 158.54 22.3405 158.821 22.4396C159.103 22.5387 159.355 22.6943 159.579 22.9064C159.802 23.1184 159.979 23.3939 160.108 23.7328C160.237 24.0693 160.301 24.4785 160.301 24.9603V25.3268H156.079V24.5523H159.288C159.288 24.2802 159.233 24.0394 159.122 23.8296C159.012 23.6175 158.856 23.4504 158.656 23.3282C158.457 23.206 158.224 23.145 157.957 23.145C157.667 23.145 157.413 23.2164 157.196 23.3593C156.982 23.5 156.816 23.6844 156.698 23.9126C156.583 24.1385 156.526 24.384 156.526 24.6491V25.2542C156.526 25.6092 156.588 25.9112 156.712 26.1601C156.839 26.4091 157.015 26.5992 157.241 26.7306C157.467 26.8597 157.731 26.9243 158.033 26.9243C158.229 26.9243 158.408 26.8966 158.569 26.8413C158.73 26.7837 158.87 26.6984 158.987 26.5854C159.105 26.4725 159.195 26.333 159.257 26.167L160.236 26.3434C160.157 26.6315 160.017 26.8839 159.814 27.1006C159.613 27.315 159.361 27.4821 159.057 27.602C158.755 27.7196 158.41 27.7783 158.023 27.7783ZM161.449 27.6711V22.36H162.448V23.2037H162.503C162.6 22.9179 162.771 22.6931 163.015 22.5295C163.262 22.3635 163.54 22.2805 163.852 22.2805C163.916 22.2805 163.992 22.2828 164.08 22.2874C164.17 22.292 164.24 22.2978 164.291 22.3047V23.2936C164.249 23.2821 164.176 23.2694 164.069 23.2556C163.963 23.2395 163.857 23.2314 163.751 23.2314C163.507 23.2314 163.289 23.2833 163.098 23.387C162.909 23.4884 162.759 23.6302 162.648 23.8123C162.538 23.9921 162.482 24.1973 162.482 24.4278V27.6711H161.449ZM169.891 22.36L167.965 27.6711H166.858L164.929 22.36H166.039L167.384 26.4471H167.439L168.781 22.36H169.891ZM172.256 27.7887C171.919 27.7887 171.615 27.7265 171.343 27.602C171.071 27.4752 170.855 27.2919 170.696 27.0522C170.539 26.8125 170.461 26.5186 170.461 26.1705C170.461 25.8708 170.519 25.6242 170.634 25.4305C170.749 25.2369 170.905 25.0836 171.101 24.9706C171.297 24.8577 171.516 24.7724 171.758 24.7148C172 24.6571 172.246 24.6133 172.498 24.5834C172.816 24.5465 173.074 24.5165 173.272 24.4935C173.47 24.4681 173.615 24.4278 173.704 24.3725C173.794 24.3171 173.839 24.2272 173.839 24.1028V24.0785C173.839 23.7766 173.754 23.5426 173.583 23.3766C173.415 23.2107 173.164 23.1277 172.83 23.1277C172.482 23.1277 172.207 23.2049 172.007 23.3593C171.808 23.5115 171.671 23.6809 171.595 23.8676L170.624 23.6463C170.739 23.3236 170.907 23.0631 171.128 22.8649C171.352 22.6643 171.609 22.5191 171.9 22.4292C172.19 22.337 172.495 22.2909 172.816 22.2909C173.028 22.2909 173.253 22.3163 173.49 22.367C173.73 22.4154 173.953 22.5053 174.161 22.6367C174.371 22.7681 174.542 22.9559 174.676 23.2003C174.81 23.4423 174.877 23.757 174.877 24.1442V27.6711H173.867V26.945H173.825C173.759 27.0787 173.658 27.2101 173.525 27.3392C173.391 27.4683 173.219 27.5755 173.009 27.6608C172.8 27.7461 172.548 27.7887 172.256 27.7887ZM172.48 26.9588C172.766 26.9588 173.011 26.9024 173.213 26.7894C173.419 26.6765 173.574 26.5289 173.68 26.3468C173.789 26.1624 173.843 25.9653 173.843 25.7556V25.0709C173.806 25.1078 173.734 25.1424 173.628 25.1747C173.525 25.2046 173.406 25.2311 173.272 25.2542C173.139 25.2749 173.008 25.2945 172.882 25.313C172.755 25.3291 172.649 25.3429 172.563 25.3545C172.363 25.3798 172.18 25.4225 172.014 25.4824C171.85 25.5423 171.719 25.6288 171.619 25.7417C171.523 25.8524 171.474 25.9999 171.474 26.1843C171.474 26.4402 171.569 26.6338 171.758 26.7652C171.947 26.8943 172.188 26.9588 172.48 26.9588Z" fill="#1F2116"/>
<path d="M22.6985 58.5137V51.4322H27.235V52.5076H23.9813V54.4301H26.9238V55.5054H23.9813V58.5137H22.6985ZM30.3098 58.6174C29.7773 58.6174 29.3174 58.5068 28.9302 58.2855C28.5452 58.0619 28.249 57.7461 28.0415 57.338C27.8341 56.9277 27.7303 56.4448 27.7303 55.8892C27.7303 55.3429 27.8341 54.8634 28.0415 54.4508C28.2513 54.0359 28.5441 53.7132 28.9198 53.4827C29.2955 53.2498 29.737 53.1334 30.2441 53.1334C30.5715 53.1334 30.8803 53.1864 31.1708 53.2925C31.4636 53.3962 31.7217 53.5576 31.9453 53.7766C32.1712 53.9956 32.3487 54.2745 32.4778 54.6133C32.6069 54.9499 32.6715 55.351 32.6715 55.8166V56.2004H28.3182V55.3568H31.4716C31.4693 55.117 31.4175 54.9038 31.316 54.7171C31.2146 54.528 31.0728 54.3794 30.8907 54.271C30.7109 54.1627 30.5011 54.1085 30.2614 54.1085C30.0055 54.1085 29.7808 54.1707 29.5872 54.2952C29.3935 54.4174 29.2425 54.5788 29.1342 54.7793C29.0282 54.9776 28.974 55.1954 28.9717 55.4328V56.1693C28.9717 56.4782 29.0282 56.7433 29.1411 56.9646C29.2541 57.1836 29.412 57.3519 29.6148 57.4694C29.8177 57.5847 30.0551 57.6423 30.3271 57.6423C30.5092 57.6423 30.674 57.617 30.8216 57.5663C30.9691 57.5132 31.097 57.436 31.2054 57.3346C31.3137 57.2332 31.3956 57.1075 31.4509 56.9577L32.6196 57.0891C32.5458 57.398 32.4052 57.6677 32.1977 57.8982C31.9926 58.1264 31.7298 58.3039 31.4094 58.4307C31.089 58.5552 30.7224 58.6174 30.3098 58.6174ZM36.0471 58.6174C35.5169 58.6174 35.0616 58.501 34.6813 58.2682C34.3032 58.0354 34.0116 57.7138 33.8065 57.3035C33.6036 56.8908 33.5022 56.416 33.5022 55.8789C33.5022 55.3395 33.6059 54.8634 33.8134 54.4508C34.0208 54.0359 34.3136 53.7132 34.6916 53.4827C35.072 53.2498 35.5215 53.1334 36.0402 53.1334C36.4712 53.1334 36.8527 53.213 37.1847 53.372C37.5189 53.5288 37.7852 53.7512 37.9834 54.0394C38.1817 54.3252 38.2946 54.6594 38.3223 55.0421H37.1259C37.0775 54.7862 36.9622 54.573 36.7801 54.4024C36.6003 54.2295 36.3594 54.1431 36.0575 54.1431C35.8016 54.1431 35.5768 54.2122 35.3832 54.3505C35.1896 54.4866 35.0386 54.6825 34.9302 54.9384C34.8242 55.1942 34.7712 55.5008 34.7712 55.8581C34.7712 56.22 34.8242 56.5312 34.9302 56.7917C35.0363 57.0499 35.1849 57.2493 35.3763 57.3899C35.5699 57.5282 35.797 57.5974 36.0575 57.5974C36.2419 57.5974 36.4067 57.5628 36.5519 57.4936C36.6994 57.4222 36.8228 57.3196 36.9219 57.1859C37.021 57.0522 37.089 56.8897 37.1259 56.6984H38.3223C38.2923 57.0741 38.1817 57.4072 37.9903 57.6976C37.799 57.9858 37.5385 58.2117 37.2089 58.3754C36.8792 58.5367 36.492 58.6174 36.0471 58.6174ZM40.6018 55.4017V58.5137H39.3501V51.4322H40.5741V54.105H40.6364C40.7608 53.8054 40.9533 53.5691 41.2138 53.3962C41.4766 53.221 41.8108 53.1334 42.2166 53.1334C42.5854 53.1334 42.907 53.2106 43.1813 53.3651C43.4556 53.5195 43.6677 53.7454 43.8175 54.0428C43.9696 54.3402 44.0457 54.7032 44.0457 55.132V58.5137H42.794V55.3256C42.794 54.9683 42.7018 54.6906 42.5174 54.4923C42.3353 54.2918 42.0794 54.1915 41.7498 54.1915C41.5285 54.1915 41.3302 54.2399 41.155 54.3367C40.9821 54.4312 40.8461 54.5684 40.747 54.7482C40.6502 54.928 40.6018 55.1458 40.6018 55.4017ZM46.8499 58.6209C46.5134 58.6209 46.2102 58.5609 45.9405 58.4411C45.6731 58.3189 45.4611 58.1391 45.3043 57.9017C45.1499 57.6642 45.0727 57.3715 45.0727 57.0234C45.0727 56.7237 45.128 56.4759 45.2386 56.28C45.3493 56.084 45.5003 55.9273 45.6916 55.8097C45.8829 55.6922 46.0984 55.6034 46.3382 55.5435C46.5802 55.4812 46.8303 55.4363 47.0885 55.4086C47.3997 55.3763 47.6521 55.3475 47.8458 55.3222C48.0394 55.2945 48.18 55.253 48.2676 55.1977C48.3575 55.1401 48.4025 55.0513 48.4025 54.9315V54.9107C48.4025 54.6502 48.3252 54.4485 48.1708 54.3056C48.0163 54.1627 47.7939 54.0912 47.5034 54.0912C47.1969 54.0912 46.9537 54.1581 46.7739 54.2918C46.5964 54.4255 46.4765 54.5834 46.4143 54.7655L45.2455 54.5995C45.3377 54.2768 45.4899 54.0071 45.702 53.7904C45.914 53.5714 46.1734 53.4077 46.48 53.2994C46.7865 53.1887 47.1254 53.1334 47.4965 53.1334C47.7524 53.1334 48.0071 53.1634 48.2607 53.2233C48.5143 53.2833 48.7459 53.3824 48.9557 53.5207C49.1655 53.6567 49.3337 53.8423 49.4605 54.0774C49.5896 54.3125 49.6542 54.6064 49.6542 54.9591V58.5137H48.4509V57.7841H48.4094C48.3333 57.9316 48.2261 58.0699 48.0878 58.199C47.9518 58.3258 47.7801 58.4284 47.5726 58.5068C47.3674 58.5828 47.1266 58.6209 46.8499 58.6209ZM47.175 57.7011C47.4262 57.7011 47.6441 57.6515 47.8285 57.5524C48.0129 57.451 48.1547 57.3173 48.2538 57.1513C48.3552 56.9853 48.4059 56.8044 48.4059 56.6085V55.9826C48.3667 56.0149 48.2999 56.0448 48.2054 56.0725C48.1132 56.1002 48.0094 56.1244 47.8942 56.1451C47.7789 56.1659 47.6648 56.1843 47.5519 56.2004C47.4389 56.2166 47.3409 56.2304 47.2579 56.2419C47.0712 56.2673 46.9041 56.3088 46.7566 56.3664C46.609 56.424 46.4926 56.5047 46.4073 56.6085C46.322 56.7099 46.2794 56.8413 46.2794 57.0026C46.2794 57.2332 46.3635 57.4072 46.5318 57.5248C46.7001 57.6423 46.9145 57.7011 47.175 57.7011Z" fill="#171621"/>
<rect x="22.5" y="72.7507" width="95.1529" height="56.9939" rx="9.237" fill="#F7F7F7" fill-opacity="0.968627"/>
<rect x="22.5" y="72.7507" width="95.1529" height="56.9939" rx="9.237" stroke="#D6D6D6"/>
<path d="M35.7935 84.4156V85.9371M39.8506 84.4156V85.9371M33.5114 88.0112H42.1327M42.3863 87.712V92.0227C42.3863 93.5441 41.6255 94.5584 39.8506 94.5584H35.7935C34.0185 94.5584 33.2578 93.5441 33.2578 92.0227V87.712C33.2578 86.1906 34.0185 85.1764 35.7935 85.1764H39.8506C41.6255 85.1764 42.3863 86.1906 42.3863 87.712Z" stroke="#262626" stroke-width="0.760703" stroke-miterlimit="10" stroke-linecap="round" stroke-linejoin="round"/>
<path d="M39.6967 90.3491H39.7012M39.6967 91.8705H39.7012M37.8203 90.3491H37.8253M37.8203 91.8705H37.8253M35.9434 90.3491H35.9484M35.9434 91.8705H35.9484" stroke="#262626" stroke-width="1.01427" stroke-linecap="round" stroke-linejoin="round"/>
<path d="M56.6538 88.2092H55.5749C55.5334 87.9787 55.4562 87.7758 55.3433 87.6006C55.2303 87.4254 55.092 87.2768 54.9283 87.1546C54.7647 87.0324 54.5814 86.9402 54.3786 86.878C54.178 86.8157 53.9648 86.7846 53.7389 86.7846C53.3309 86.7846 52.9655 86.8872 52.6428 87.0923C52.3224 87.2975 52.0688 87.5983 51.8821 87.9948C51.6977 88.3913 51.6054 88.8754 51.6054 89.4471C51.6054 90.0234 51.6977 90.5097 51.8821 90.9062C52.0688 91.3027 52.3235 91.6024 52.6462 91.8052C52.969 92.0081 53.332 92.1095 53.7354 92.1095C53.959 92.1095 54.1711 92.0796 54.3716 92.0196C54.5745 91.9574 54.7578 91.8663 54.9214 91.7465C55.0851 91.6266 55.2234 91.4802 55.3364 91.3073C55.4516 91.1321 55.5311 90.9316 55.5749 90.7057L56.6538 90.7091C56.5961 91.0572 56.4843 91.3776 56.3184 91.6704C56.1547 91.9608 55.9438 92.2121 55.6856 92.4242C55.4297 92.634 55.137 92.7965 54.8073 92.9117C54.4777 93.027 54.1181 93.0846 53.7285 93.0846C53.1153 93.0846 52.569 92.9394 52.0895 92.6489C51.6101 92.3562 51.232 91.9378 50.9554 91.3938C50.6811 90.8498 50.5439 90.2009 50.5439 89.4471C50.5439 88.691 50.6822 88.0421 50.9589 87.5004C51.2355 86.9563 51.6135 86.5391 52.093 86.2487C52.5725 85.9559 53.1176 85.8095 53.7285 85.8095C54.1042 85.8095 54.4546 85.8637 54.7797 85.972C55.107 86.0781 55.4009 86.2348 55.6614 86.4423C55.9219 86.6474 56.1374 86.8987 56.308 87.1961C56.4786 87.4911 56.5938 87.8288 56.6538 88.2092ZM58.8831 89.8343V92.9878H57.8493V85.9063H58.8693V88.5411H58.935C59.0595 88.2553 59.2497 88.0282 59.5055 87.86C59.7614 87.6917 60.0956 87.6075 60.5083 87.6075C60.8725 87.6075 61.1906 87.6825 61.4626 87.8323C61.7369 87.9821 61.949 88.2057 62.0988 88.5031C62.251 88.7982 62.327 89.167 62.327 89.6096V92.9878H61.2932V89.7341C61.2932 89.3445 61.1929 89.0425 60.9924 88.8281C60.7918 88.6114 60.5129 88.5031 60.1556 88.5031C59.9112 88.5031 59.6922 88.555 59.4986 88.6587C59.3073 88.7624 59.1563 88.9146 59.0456 89.1151C58.9373 89.3134 58.8831 89.5531 58.8831 89.8343ZM65.9957 93.095C65.4724 93.095 65.0218 92.9832 64.6437 92.7596C64.268 92.5337 63.9775 92.2167 63.7724 91.8087C63.5695 91.3984 63.4681 90.9178 63.4681 90.3668C63.4681 89.8228 63.5695 89.3433 63.7724 88.9284C63.9775 88.5135 64.2634 88.1896 64.6299 87.9568C64.9987 87.724 65.4298 87.6075 65.9231 87.6075C66.2228 87.6075 66.5132 87.6571 66.7944 87.7562C67.0757 87.8554 67.3281 88.0109 67.5517 88.223C67.7753 88.4351 67.9516 88.7106 68.0807 89.0494C68.2098 89.386 68.2744 89.7951 68.2744 90.2769V90.6434H64.0525V89.8689H67.2612C67.2612 89.5969 67.2059 89.356 67.0953 89.1462C66.9846 88.9342 66.829 88.767 66.6285 88.6449C66.4302 88.5227 66.1974 88.4616 65.93 88.4616C65.6396 88.4616 65.386 88.5331 65.1693 88.676C64.9549 88.8166 64.789 89.001 64.6714 89.2292C64.5561 89.4551 64.4985 89.7006 64.4985 89.9657V90.5708C64.4985 90.9258 64.5607 91.2278 64.6852 91.4768C64.812 91.7257 64.9884 91.9159 65.2143 92.0473C65.4402 92.1764 65.7041 92.2409 66.0061 92.2409C66.202 92.2409 66.3807 92.2133 66.542 92.1579C66.7034 92.1003 66.8429 92.015 66.9604 91.9021C67.078 91.7891 67.1679 91.6496 67.2301 91.4837L68.2087 91.66C68.1303 91.9482 67.9897 92.2006 67.7868 92.4173C67.5863 92.6316 67.3339 92.7988 67.0296 92.9186C66.7276 93.0362 66.383 93.095 65.9957 93.095ZM71.6586 93.095C71.1446 93.095 70.702 92.9786 70.3309 92.7458C69.962 92.5106 69.6785 92.1867 69.4802 91.7741C69.282 91.3615 69.1829 90.8889 69.1829 90.3565C69.1829 89.817 69.2843 89.341 69.4872 88.9284C69.69 88.5135 69.9759 88.1896 70.3447 87.9568C70.7135 87.724 71.148 87.6075 71.6483 87.6075C72.0517 87.6075 72.4113 87.6825 72.7271 87.8323C73.0429 87.9798 73.2976 88.1873 73.4912 88.4547C73.6872 88.7221 73.8036 89.0344 73.8405 89.3917H72.8343C72.7789 89.1428 72.6522 88.9284 72.4539 88.7486C72.258 88.5688 71.9952 88.4789 71.6655 88.4789C71.3774 88.4789 71.125 88.555 70.9083 88.7071C70.6939 88.8569 70.5268 89.0713 70.4069 89.3502C70.2871 89.6269 70.2271 89.9542 70.2271 90.3322C70.2271 90.7195 70.2859 91.0538 70.4035 91.335C70.521 91.6162 70.687 91.8341 70.9014 91.9885C71.1181 92.143 71.3728 92.2202 71.6655 92.2202C71.8615 92.2202 72.039 92.1844 72.198 92.113C72.3594 92.0392 72.4942 91.9343 72.6026 91.7983C72.7132 91.6623 72.7905 91.4987 72.8343 91.3073H73.8405C73.8036 91.6508 73.6918 91.9574 73.5051 92.2271C73.3183 92.4968 73.0682 92.7089 72.7547 92.8633C72.4435 93.0178 72.0782 93.095 71.6586 93.095ZM75.897 91.1863L75.89 89.9242H76.0698L78.186 87.6767H79.4239L77.0103 90.2354H76.8478L75.897 91.1863ZM74.9461 92.9878V85.9063H75.9799V92.9878H74.9461ZM78.3001 92.9878L76.3983 90.4636L77.1106 89.741L79.5691 92.9878H78.3001ZM86.0722 88.9976V89.8966H82.9326V88.9976H86.0722ZM91.1784 85.9063V92.9878H90.11V85.9063H91.1784ZM93.6853 89.8343V92.9878H92.6514V87.6767H93.6438V88.5411H93.7095C93.8317 88.2599 94.023 88.034 94.2835 87.8634C94.5463 87.6928 94.8771 87.6075 95.2759 87.6075C95.6378 87.6075 95.9547 87.6836 96.2268 87.8358C96.4988 87.9856 96.7097 88.2092 96.8595 88.5066C97.0094 88.8039 97.0843 89.1716 97.0843 89.6096V92.9878H96.0504V89.7341C96.0504 89.3491 95.9501 89.0483 95.7496 88.8316C95.549 88.6126 95.2736 88.5031 94.9232 88.5031C94.6834 88.5031 94.4702 88.555 94.2835 88.6587C94.0991 88.7624 93.9527 88.9146 93.8444 89.1151C93.7383 89.3134 93.6853 89.5531 93.6853 89.8343Z" fill="#262626"/>
<path d="M38.2092 109.426V116.508H37.3794L33.5205 110.948H33.4514V116.508H32.5938V109.426H33.4237L37.2964 115H37.3655V109.426H38.2092ZM41.9721 116.618C41.4926 116.618 41.0719 116.504 40.71 116.276C40.3504 116.048 40.0692 115.729 39.8663 115.318C39.6658 114.908 39.5655 114.428 39.5655 113.88C39.5655 113.327 39.6658 112.844 39.8663 112.431C40.0692 112.018 40.3504 111.698 40.71 111.47C41.0719 111.242 41.4926 111.127 41.9721 111.127C42.4516 111.127 42.8711 111.242 43.2307 111.47C43.5926 111.698 43.8739 112.018 44.0744 112.431C44.2773 112.844 44.3787 113.327 44.3787 113.88C44.3787 114.428 44.2773 114.908 44.0744 115.318C43.8739 115.729 43.5926 116.048 43.2307 116.276C42.8711 116.504 42.4516 116.618 41.9721 116.618ZM41.9721 115.885C42.3363 115.885 42.636 115.792 42.8711 115.605C43.1063 115.419 43.2803 115.173 43.3932 114.869C43.5062 114.564 43.5627 114.235 43.5627 113.88C43.5627 113.525 43.5062 113.194 43.3932 112.887C43.2803 112.581 43.1063 112.333 42.8711 112.144C42.636 111.955 42.3363 111.86 41.9721 111.86C41.6079 111.86 41.3082 111.955 41.0731 112.144C40.838 112.333 40.6639 112.581 40.551 112.887C40.438 113.194 40.3815 113.525 40.3815 113.88C40.3815 114.235 40.438 114.564 40.551 114.869C40.6639 115.173 40.838 115.419 41.0731 115.605C41.3082 115.792 41.6079 115.885 41.9721 115.885ZM49.7771 111.197L47.8131 116.508H46.9832L45.0192 111.197H45.9044L47.3705 115.429H47.4258L48.8919 111.197H49.7771ZM56.0685 109.426V116.508H55.2109V110.325H55.1694L53.4406 111.473V110.602L55.2109 109.426H56.0685ZM58.1051 116.508V115.885L60.4425 113.327C60.7168 113.027 60.9427 112.766 61.1202 112.545C61.2977 112.322 61.4291 112.112 61.5144 111.916C61.602 111.718 61.6458 111.51 61.6458 111.293C61.6458 111.044 61.5859 110.829 61.466 110.647C61.3484 110.465 61.1871 110.324 60.9819 110.225C60.7768 110.126 60.5462 110.076 60.2904 110.076C60.0184 110.076 59.7809 110.133 59.5781 110.246C59.3775 110.356 59.2219 110.512 59.1113 110.713C59.0029 110.913 58.9488 111.148 58.9488 111.418H58.1327C58.1327 111.003 58.2284 110.639 58.4197 110.325C58.6111 110.012 58.8715 109.767 59.2012 109.592C59.5331 109.417 59.9054 109.329 60.318 109.329C60.733 109.329 61.1006 109.417 61.421 109.592C61.7415 109.767 61.9927 110.004 62.1748 110.301C62.3569 110.598 62.448 110.929 62.448 111.293C62.448 111.554 62.4007 111.809 62.3062 112.058C62.214 112.304 62.0527 112.58 61.8221 112.884C61.5939 113.186 61.277 113.555 60.8713 113.99L59.2807 115.692V115.747H62.5725V116.508H58.1051ZM65.2315 115.54L65.1762 115.913C65.137 116.176 65.077 116.457 64.9964 116.757C64.918 117.056 64.8361 117.339 64.7509 117.604C64.6656 117.869 64.5953 118.08 64.5399 118.237H63.9175C63.9475 118.089 63.9867 117.894 64.0351 117.652C64.0835 117.41 64.1319 117.139 64.1803 116.84C64.231 116.542 64.2725 116.238 64.3048 115.927L64.3463 115.54H65.2315ZM69.4681 116.508V115.885L71.8055 113.327C72.0798 113.027 72.3057 112.766 72.4832 112.545C72.6607 112.322 72.7921 112.112 72.8774 111.916C72.965 111.718 73.0088 111.51 73.0088 111.293C73.0088 111.044 72.9489 110.829 72.829 110.647C72.7114 110.465 72.5501 110.324 72.3449 110.225C72.1398 110.126 71.9092 110.076 71.6534 110.076C71.3814 110.076 71.1439 110.133 70.9411 110.246C70.7405 110.356 70.5849 110.512 70.4743 110.713C70.3659 110.913 70.3118 111.148 70.3118 111.418H69.4957C69.4957 111.003 69.5914 110.639 69.7827 110.325C69.9741 110.012 70.2345 109.767 70.5642 109.592C70.8961 109.417 71.2684 109.329 71.681 109.329C72.096 109.329 72.4636 109.417 72.7841 109.592C73.1045 109.767 73.3557 110.004 73.5378 110.301C73.72 110.598 73.811 110.929 73.811 111.293C73.811 111.554 73.7637 111.809 73.6692 112.058C73.577 112.304 73.4157 112.58 73.1852 112.884C72.9569 113.186 72.64 113.555 72.2343 113.99L70.6437 115.692V115.747H73.9355V116.508H69.4681ZM77.6733 116.605C77.1523 116.605 76.7086 116.463 76.3421 116.179C75.9756 115.893 75.6955 115.48 75.5018 114.938C75.3082 114.394 75.2114 113.737 75.2114 112.967C75.2114 112.202 75.3082 111.548 75.5018 111.006C75.6978 110.462 75.979 110.047 76.3455 109.762C76.7144 109.473 77.1569 109.329 77.6733 109.329C78.1897 109.329 78.6311 109.473 78.9976 109.762C79.3664 110.047 79.6477 110.462 79.8413 111.006C80.0372 111.548 80.1352 112.202 80.1352 112.967C80.1352 113.737 80.0384 114.394 79.8448 114.938C79.6511 115.48 79.3711 115.893 79.0045 116.179C78.638 116.463 78.1943 116.605 77.6733 116.605ZM77.6733 115.844C78.1897 115.844 78.5908 115.595 78.8766 115.097C79.1624 114.599 79.3054 113.889 79.3054 112.967C79.3054 112.354 79.2397 111.832 79.1083 111.401C78.9792 110.97 78.7925 110.641 78.5481 110.415C78.3061 110.189 78.0145 110.076 77.6733 110.076C77.1616 110.076 76.7616 110.329 76.4735 110.834C76.1853 111.336 76.0412 112.047 76.0412 112.967C76.0412 113.58 76.1058 114.101 76.2349 114.53C76.364 114.959 76.5495 115.285 76.7916 115.508C77.0359 115.732 77.3298 115.844 77.6733 115.844ZM81.4492 116.508V115.885L83.7866 113.327C84.0609 113.027 84.2868 112.766 84.4643 112.545C84.6418 112.322 84.7732 112.112 84.8585 111.916C84.9461 111.718 84.9899 111.51 84.9899 111.293C84.9899 111.044 84.93 110.829 84.8101 110.647C84.6925 110.465 84.5312 110.324 84.326 110.225C84.1208 110.126 83.8903 110.076 83.6345 110.076C83.3624 110.076 83.125 110.133 82.9222 110.246C82.7216 110.356 82.566 110.512 82.4554 110.713C82.347 110.913 82.2928 111.148 82.2928 111.418H81.4768C81.4768 111.003 81.5725 110.639 81.7638 110.325C81.9551 110.012 82.2156 109.767 82.5453 109.592C82.8772 109.417 83.2495 109.329 83.6621 109.329C84.077 109.329 84.4447 109.417 84.7651 109.592C85.0856 109.767 85.3368 110.004 85.5189 110.301C85.701 110.598 85.7921 110.929 85.7921 111.293C85.7921 111.554 85.7448 111.809 85.6503 112.058C85.5581 112.304 85.3967 112.58 85.1662 112.884C84.938 113.186 84.6211 113.555 84.2154 113.99L82.6248 115.692V115.747H85.9166V116.508H81.4492ZM89.7374 116.605C89.2809 116.605 88.8741 116.526 88.5168 116.369C88.1618 116.213 87.8794 115.995 87.6696 115.716C87.4622 115.435 87.3492 115.108 87.3308 114.737H88.2021C88.2206 114.966 88.2989 115.163 88.4373 115.329C88.5756 115.492 88.7565 115.619 88.9801 115.709C89.2037 115.799 89.4515 115.844 89.7235 115.844C90.0278 115.844 90.2975 115.791 90.5326 115.685C90.7678 115.579 90.9522 115.431 91.0859 115.242C91.2196 115.053 91.2864 114.834 91.2864 114.585C91.2864 114.325 91.2219 114.095 91.0928 113.897C90.9637 113.697 90.7747 113.54 90.5257 113.427C90.2768 113.314 89.9725 113.257 89.6129 113.257H89.0458V112.497H89.6129C89.8941 112.497 90.1408 112.446 90.3528 112.345C90.5672 112.243 90.7344 112.1 90.8542 111.916C90.9764 111.731 91.0375 111.515 91.0375 111.266C91.0375 111.026 90.9845 110.817 90.8784 110.64C90.7724 110.462 90.6225 110.324 90.4289 110.225C90.2376 110.126 90.0117 110.076 89.7512 110.076C89.5069 110.076 89.2763 110.121 89.0597 110.211C88.8453 110.299 88.6701 110.427 88.5341 110.595C88.3981 110.761 88.3243 110.961 88.3128 111.197H87.4829C87.4968 110.825 87.6086 110.5 87.8183 110.222C88.0281 109.94 88.3024 109.721 88.6413 109.565C88.9824 109.408 89.357 109.329 89.765 109.329C90.203 109.329 90.5788 109.418 90.8923 109.596C91.2058 109.771 91.4466 110.003 91.6149 110.291C91.7832 110.579 91.8673 110.89 91.8673 111.224C91.8673 111.623 91.7625 111.963 91.5527 112.244C91.3452 112.526 91.0628 112.72 90.7055 112.829V112.884C91.1527 112.958 91.502 113.148 91.7532 113.455C92.0045 113.759 92.1301 114.136 92.1301 114.585C92.1301 114.97 92.0252 115.316 91.8155 115.623C91.608 115.927 91.3245 116.167 90.9649 116.342C90.6053 116.517 90.1961 116.605 89.7374 116.605Z" fill="#737373"/>
<rect x="125.348" y="72.7507" width="95.1529" height="56.9939" rx="9.237" fill="#F7F7F7" fill-opacity="0.968627"/>
<rect x="125.348" y="72.7507" width="95.1529" height="56.9939" rx="9.237" stroke="#D6D6D6"/>
<path d="M138.641 84.4156V85.9371M142.698 84.4156V85.9371M136.359 88.0112H144.98M145.234 87.712V92.0227C145.234 93.5441 144.473 94.5584 142.698 94.5584H138.641C136.866 94.5584 136.105 93.5441 136.105 92.0227V87.712C136.105 86.1906 136.866 85.1764 138.641 85.1764H142.698C144.473 85.1764 145.234 86.1906 145.234 87.712Z" stroke="#262626" stroke-width="0.760703" stroke-miterlimit="10" stroke-linecap="round" stroke-linejoin="round"/>
<path d="M142.544 90.3491H142.549M142.544 91.8705H142.549M140.668 90.3491H140.673M140.668 91.8705H140.673M138.791 90.3491H138.796M138.791 91.8705H138.796" stroke="#262626" stroke-width="1.01427" stroke-linecap="round" stroke-linejoin="round"/>
<path d="M159.501 88.2092H158.423C158.381 87.9787 158.304 87.7758 158.191 87.6006C158.078 87.4254 157.94 87.2768 157.776 87.1546C157.612 87.0324 157.429 86.9402 157.226 86.878C157.026 86.8157 156.812 86.7846 156.587 86.7846C156.179 86.7846 155.813 86.8872 155.49 87.0923C155.17 87.2975 154.916 87.5983 154.73 87.9948C154.545 88.3913 154.453 88.8754 154.453 89.4471C154.453 90.0234 154.545 90.5097 154.73 90.9062C154.916 91.3027 155.171 91.6024 155.494 91.8052C155.817 92.0081 156.18 92.1095 156.583 92.1095C156.807 92.1095 157.019 92.0796 157.219 92.0196C157.422 91.9574 157.605 91.8663 157.769 91.7465C157.933 91.6266 158.071 91.4802 158.184 91.3073C158.299 91.1321 158.379 90.9316 158.423 90.7057L159.501 90.7091C159.444 91.0572 159.332 91.3776 159.166 91.6704C159.002 91.9608 158.791 92.2121 158.533 92.4242C158.277 92.634 157.985 92.7965 157.655 92.9117C157.325 93.027 156.966 93.0846 156.576 93.0846C155.963 93.0846 155.417 92.9394 154.937 92.6489C154.458 92.3562 154.08 91.9378 153.803 91.3938C153.529 90.8498 153.392 90.2009 153.392 89.4471C153.392 88.691 153.53 88.0421 153.807 87.5004C154.083 86.9563 154.461 86.5391 154.941 86.2487C155.42 85.9559 155.965 85.8095 156.576 85.8095C156.952 85.8095 157.302 85.8637 157.627 85.972C157.955 86.0781 158.249 86.2348 158.509 86.4423C158.77 86.6474 158.985 86.8987 159.156 87.1961C159.326 87.4911 159.441 87.8288 159.501 88.2092ZM161.731 89.8343V92.9878H160.697V85.9063H161.717V88.5411H161.783C161.907 88.2553 162.097 88.0282 162.353 87.86C162.609 87.6917 162.943 87.6075 163.356 87.6075C163.72 87.6075 164.038 87.6825 164.31 87.8323C164.585 87.9821 164.797 88.2057 164.946 88.5031C165.099 88.7982 165.175 89.167 165.175 89.6096V92.9878H164.141V89.7341C164.141 89.3445 164.041 89.0425 163.84 88.8281C163.639 88.6114 163.361 88.5031 163.003 88.5031C162.759 88.5031 162.54 88.555 162.346 88.6587C162.155 88.7624 162.004 88.9146 161.893 89.1151C161.785 89.3134 161.731 89.5531 161.731 89.8343ZM168.843 93.095C168.32 93.095 167.869 92.9832 167.491 92.7596C167.116 92.5337 166.825 92.2167 166.62 91.8087C166.417 91.3984 166.316 90.9178 166.316 90.3668C166.316 89.8228 166.417 89.3433 166.62 88.9284C166.825 88.5135 167.111 88.1896 167.478 87.9568C167.846 87.724 168.277 87.6075 168.771 87.6075C169.07 87.6075 169.361 87.6571 169.642 87.7562C169.923 87.8554 170.176 88.0109 170.399 88.223C170.623 88.4351 170.799 88.7106 170.928 89.0494C171.057 89.386 171.122 89.7951 171.122 90.2769V90.6434H166.9V89.8689H170.109C170.109 89.5969 170.054 89.356 169.943 89.1462C169.832 88.9342 169.677 88.767 169.476 88.6449C169.278 88.5227 169.045 88.4616 168.778 88.4616C168.487 88.4616 168.234 88.5331 168.017 88.676C167.803 88.8166 167.637 89.001 167.519 89.2292C167.404 89.4551 167.346 89.7006 167.346 89.9657V90.5708C167.346 90.9258 167.408 91.2278 167.533 91.4768C167.66 91.7257 167.836 91.9159 168.062 92.0473C168.288 92.1764 168.552 92.2409 168.854 92.2409C169.05 92.2409 169.228 92.2133 169.39 92.1579C169.551 92.1003 169.691 92.015 169.808 91.9021C169.926 91.7891 170.016 91.6496 170.078 91.4837L171.056 91.66C170.978 91.9482 170.837 92.2006 170.634 92.4173C170.434 92.6316 170.182 92.7988 169.877 92.9186C169.575 93.0362 169.231 93.095 168.843 93.095ZM174.506 93.095C173.992 93.095 173.55 92.9786 173.179 92.7458C172.81 92.5106 172.526 92.1867 172.328 91.7741C172.13 91.3615 172.031 90.8889 172.031 90.3565C172.031 89.817 172.132 89.341 172.335 88.9284C172.538 88.5135 172.824 88.1896 173.192 87.9568C173.561 87.724 173.996 87.6075 174.496 87.6075C174.899 87.6075 175.259 87.6825 175.575 87.8323C175.891 87.9798 176.145 88.1873 176.339 88.4547C176.535 88.7221 176.651 89.0344 176.688 89.3917H175.682C175.627 89.1428 175.5 88.9284 175.302 88.7486C175.106 88.5688 174.843 88.4789 174.513 88.4789C174.225 88.4789 173.973 88.555 173.756 88.7071C173.542 88.8569 173.374 89.0713 173.255 89.3502C173.135 89.6269 173.075 89.9542 173.075 90.3322C173.075 90.7195 173.134 91.0538 173.251 91.335C173.369 91.6162 173.535 91.8341 173.749 91.9885C173.966 92.143 174.22 92.2202 174.513 92.2202C174.709 92.2202 174.887 92.1844 175.046 92.113C175.207 92.0392 175.342 91.9343 175.45 91.7983C175.561 91.6623 175.638 91.4987 175.682 91.3073H176.688C176.651 91.6508 176.539 91.9574 176.353 92.2271C176.166 92.4968 175.916 92.7089 175.602 92.8633C175.291 93.0178 174.926 93.095 174.506 93.095ZM178.745 91.1863L178.738 89.9242H178.917L181.034 87.6767H182.272L179.858 90.2354H179.695L178.745 91.1863ZM177.794 92.9878V85.9063H178.828V92.9878H177.794ZM181.148 92.9878L179.246 90.4636L179.958 89.741L182.417 92.9878H181.148ZM188.92 88.9976V89.8966H185.78V88.9976H188.92ZM199.109 89.4471C199.109 90.2032 198.971 90.8532 198.694 91.3972C198.417 91.9389 198.038 92.3562 197.556 92.6489C197.077 92.9394 196.532 93.0846 195.921 93.0846C195.308 93.0846 194.76 92.9394 194.279 92.6489C193.799 92.3562 193.421 91.9378 193.144 91.3938C192.868 90.8498 192.729 90.2009 192.729 89.4471C192.729 88.691 192.868 88.0421 193.144 87.5004C193.421 86.9563 193.799 86.5391 194.279 86.2487C194.76 85.9559 195.308 85.8095 195.921 85.8095C196.532 85.8095 197.077 85.9559 197.556 86.2487C198.038 86.5391 198.417 86.9563 198.694 87.5004C198.971 88.0421 199.109 88.691 199.109 89.4471ZM198.051 89.4471C198.051 88.8708 197.958 88.3855 197.771 87.9914C197.586 87.5949 197.333 87.2952 197.01 87.0923C196.69 86.8872 196.327 86.7846 195.921 86.7846C195.513 86.7846 195.149 86.8872 194.828 87.0923C194.508 87.2952 194.254 87.5949 194.068 87.9914C193.883 88.3855 193.791 88.8708 193.791 89.4471C193.791 90.0234 193.883 90.5097 194.068 90.9062C194.254 91.3004 194.508 91.6001 194.828 91.8052C195.149 92.0081 195.513 92.1095 195.921 92.1095C196.327 92.1095 196.69 92.0081 197.01 91.8052C197.333 91.6001 197.586 91.3004 197.771 90.9062C197.958 90.5097 198.051 90.0234 198.051 89.4471ZM203.722 90.7852V87.6767H204.76V92.9878H203.743V92.068H203.688C203.566 92.3516 203.37 92.5878 203.1 92.7769C202.833 92.9636 202.5 93.0569 202.101 93.0569C201.76 93.0569 201.458 92.982 201.195 92.8322C200.934 92.6801 200.729 92.4553 200.579 92.1579C200.432 91.8606 200.358 91.4929 200.358 91.0549V87.6767H201.392V90.9304C201.392 91.2923 201.492 91.5805 201.693 91.7949C201.893 92.0093 202.154 92.1164 202.474 92.1164C202.668 92.1164 202.86 92.068 203.052 91.9712C203.245 91.8744 203.406 91.728 203.532 91.5321C203.661 91.3361 203.725 91.0872 203.722 90.7852ZM208.628 87.6767V88.5066H205.727V87.6767H208.628ZM206.505 86.4043H207.539V91.4284C207.539 91.6289 207.569 91.7799 207.629 91.8813C207.689 91.9804 207.766 92.0484 207.861 92.0853C207.957 92.1199 208.062 92.1372 208.175 92.1372C208.258 92.1372 208.331 92.1314 208.393 92.1199C208.455 92.1084 208.504 92.0992 208.538 92.0922L208.725 92.9463C208.665 92.9694 208.58 92.9924 208.469 93.0155C208.358 93.0408 208.22 93.0546 208.054 93.0569C207.782 93.0616 207.529 93.0131 207.293 92.9117C207.058 92.8103 206.868 92.6535 206.723 92.4415C206.578 92.2294 206.505 91.9631 206.505 91.6427V86.4043Z" fill="#262626"/>
<path d="M141.057 109.426V116.508H140.227L136.368 110.948H136.299V116.508H135.442V109.426H136.271L140.144 115H140.213V109.426H141.057ZM144.82 116.618C144.34 116.618 143.92 116.504 143.558 116.276C143.198 116.048 142.917 115.729 142.714 115.318C142.513 114.908 142.413 114.428 142.413 113.88C142.413 113.327 142.513 112.844 142.714 112.431C142.917 112.018 143.198 111.698 143.558 111.47C143.92 111.242 144.34 111.127 144.82 111.127C145.299 111.127 145.719 111.242 146.078 111.47C146.44 111.698 146.722 112.018 146.922 112.431C147.125 112.844 147.226 113.327 147.226 113.88C147.226 114.428 147.125 114.908 146.922 115.318C146.722 115.729 146.44 116.048 146.078 116.276C145.719 116.504 145.299 116.618 144.82 116.618ZM144.82 115.885C145.184 115.885 145.484 115.792 145.719 115.605C145.954 115.419 146.128 115.173 146.241 114.869C146.354 114.564 146.41 114.235 146.41 113.88C146.41 113.525 146.354 113.194 146.241 112.887C146.128 112.581 145.954 112.333 145.719 112.144C145.484 111.955 145.184 111.86 144.82 111.86C144.456 111.86 144.156 111.955 143.921 112.144C143.686 112.333 143.512 112.581 143.399 112.887C143.286 113.194 143.229 113.525 143.229 113.88C143.229 114.235 143.286 114.564 143.399 114.869C143.512 115.173 143.686 115.419 143.921 115.605C144.156 115.792 144.456 115.885 144.82 115.885ZM152.625 111.197L150.661 116.508H149.831L147.867 111.197H148.752L150.218 115.429H150.273L151.74 111.197H152.625ZM158.916 109.426V116.508H158.059V110.325H158.017L156.288 111.473V110.602L158.059 109.426H158.916ZM160.787 115.055V114.35L163.899 109.426H164.41V110.519H164.065L161.713 114.239V114.295H165.904V115.055H160.787ZM164.12 116.508V114.841V114.513V109.426H164.936V116.508H164.12ZM168.098 115.54L168.043 115.913C168.004 116.176 167.944 116.457 167.863 116.757C167.785 117.056 167.703 117.339 167.618 117.604C167.532 117.869 167.462 118.08 167.407 118.237H166.784C166.814 118.089 166.853 117.894 166.902 117.652C166.95 117.41 166.999 117.139 167.047 116.84C167.098 116.542 167.139 116.238 167.171 115.927L167.213 115.54H168.098ZM172.335 116.508V115.885L174.672 113.327C174.947 113.027 175.172 112.766 175.35 112.545C175.527 112.322 175.659 112.112 175.744 111.916C175.832 111.718 175.875 111.51 175.875 111.293C175.875 111.044 175.816 110.829 175.696 110.647C175.578 110.465 175.417 110.324 175.212 110.225C175.006 110.126 174.776 110.076 174.52 110.076C174.248 110.076 174.011 110.133 173.808 110.246C173.607 110.356 173.452 110.512 173.341 110.713C173.233 110.913 173.178 111.148 173.178 111.418H172.362C172.362 111.003 172.458 110.639 172.649 110.325C172.841 110.012 173.101 109.767 173.431 109.592C173.763 109.417 174.135 109.329 174.548 109.329C174.963 109.329 175.33 109.417 175.651 109.592C175.971 109.767 176.222 110.004 176.405 110.301C176.587 110.598 176.678 110.929 176.678 111.293C176.678 111.554 176.63 111.809 176.536 112.058C176.444 112.304 176.282 112.58 176.052 112.884C175.824 113.186 175.507 113.555 175.101 113.99L173.51 115.692V115.747H176.802V116.508H172.335ZM180.54 116.605C180.019 116.605 179.575 116.463 179.209 116.179C178.842 115.893 178.562 115.48 178.369 114.938C178.175 114.394 178.078 113.737 178.078 112.967C178.078 112.202 178.175 111.548 178.369 111.006C178.564 110.462 178.846 110.047 179.212 109.762C179.581 109.473 180.024 109.329 180.54 109.329C181.056 109.329 181.498 109.473 181.864 109.762C182.233 110.047 182.514 110.462 182.708 111.006C182.904 111.548 183.002 112.202 183.002 112.967C183.002 113.737 182.905 114.394 182.711 114.938C182.518 115.48 182.238 115.893 181.871 116.179C181.505 116.463 181.061 116.605 180.54 116.605ZM180.54 115.844C181.056 115.844 181.457 115.595 181.743 115.097C182.029 114.599 182.172 113.889 182.172 112.967C182.172 112.354 182.106 111.832 181.975 111.401C181.846 110.97 181.659 110.641 181.415 110.415C181.173 110.189 180.881 110.076 180.54 110.076C180.028 110.076 179.628 110.329 179.34 110.834C179.052 111.336 178.908 112.047 178.908 112.967C178.908 113.58 178.972 114.101 179.102 114.53C179.231 114.959 179.416 115.285 179.658 115.508C179.903 115.732 180.197 115.844 180.54 115.844ZM184.316 116.508V115.885L186.653 113.327C186.928 113.027 187.153 112.766 187.331 112.545C187.508 112.322 187.64 112.112 187.725 111.916C187.813 111.718 187.857 111.51 187.857 111.293C187.857 111.044 187.797 110.829 187.677 110.647C187.559 110.465 187.398 110.324 187.193 110.225C186.988 110.126 186.757 110.076 186.501 110.076C186.229 110.076 185.992 110.133 185.789 110.246C185.588 110.356 185.433 110.512 185.322 110.713C185.214 110.913 185.16 111.148 185.16 111.418H184.343C184.343 111.003 184.439 110.639 184.63 110.325C184.822 110.012 185.082 109.767 185.412 109.592C185.744 109.417 186.116 109.329 186.529 109.329C186.944 109.329 187.311 109.417 187.632 109.592C187.952 109.767 188.203 110.004 188.386 110.301C188.568 110.598 188.659 110.929 188.659 111.293C188.659 111.554 188.612 111.809 188.517 112.058C188.425 112.304 188.263 112.58 188.033 112.884C187.805 113.186 187.488 113.555 187.082 113.99L185.491 115.692V115.747H188.783V116.508H184.316ZM192.604 116.605C192.148 116.605 191.741 116.526 191.383 116.369C191.028 116.213 190.746 115.995 190.536 115.716C190.329 115.435 190.216 115.108 190.197 114.737H191.069C191.087 114.966 191.166 115.163 191.304 115.329C191.442 115.492 191.623 115.619 191.847 115.709C192.07 115.799 192.318 115.844 192.59 115.844C192.894 115.844 193.164 115.791 193.399 115.685C193.634 115.579 193.819 115.431 193.953 115.242C194.086 115.053 194.153 114.834 194.153 114.585C194.153 114.325 194.089 114.095 193.959 113.897C193.83 113.697 193.641 113.54 193.392 113.427C193.143 113.314 192.839 113.257 192.48 113.257H191.912V112.497H192.48C192.761 112.497 193.007 112.446 193.22 112.345C193.434 112.243 193.601 112.1 193.721 111.916C193.843 111.731 193.904 111.515 193.904 111.266C193.904 111.026 193.851 110.817 193.745 110.64C193.639 110.462 193.489 110.324 193.296 110.225C193.104 110.126 192.878 110.076 192.618 110.076C192.374 110.076 192.143 110.121 191.926 110.211C191.712 110.299 191.537 110.427 191.401 110.595C191.265 110.761 191.191 110.961 191.179 111.197H190.35C190.363 110.825 190.475 110.5 190.685 110.222C190.895 109.94 191.169 109.721 191.508 109.565C191.849 109.408 192.224 109.329 192.632 109.329C193.07 109.329 193.445 109.418 193.759 109.596C194.072 109.771 194.313 110.003 194.482 110.291C194.65 110.579 194.734 110.89 194.734 111.224C194.734 111.623 194.629 111.963 194.419 112.244C194.212 112.526 193.93 112.72 193.572 112.829V112.884C194.019 112.958 194.369 113.148 194.62 113.455C194.871 113.759 194.997 114.136 194.997 114.585C194.997 114.97 194.892 115.316 194.682 115.623C194.475 115.927 194.191 116.167 193.832 116.342C193.472 116.517 193.063 116.605 192.604 116.605Z" fill="#737373"/>
</svg>
