<svg width="243" height="132" viewBox="0 0 243 132" fill="none" xmlns="http://www.w3.org/2000/svg">
<g clip-path="url(#clip0_1633_8223)">
<rect width="243" height="132" rx="5" fill="#F4F4F4"/>
<g filter="url(#filter0_d_1633_8223)">
<rect x="-297" y="-4" width="552" height="142.108" rx="8.88174" fill="white"/>
<rect x="-296.778" y="-3.77796" width="551.556" height="141.664" rx="8.65969" stroke="#DADDDD" stroke-width="0.444087"/>
</g>
<path d="M14.6332 10.6773V15.5428H13.8351V13.4146H11.5458V15.5428H10.7477V10.6773H11.5458V12.7635H13.8351V10.6773H14.6332ZM17.357 15.6059C16.993 15.6059 16.6639 15.5242 16.3699 15.3608C16.0759 15.1928 15.8448 14.9594 15.6768 14.6607C15.5088 14.3574 15.4248 14.0073 15.4248 13.6106C15.4248 13.2186 15.5111 12.8709 15.6838 12.5675C15.8565 12.2641 16.0922 12.0308 16.3909 11.8674C16.6896 11.7041 17.0233 11.6224 17.392 11.6224C17.7607 11.6224 18.0944 11.7041 18.3931 11.8674C18.6918 12.0308 18.9275 12.2641 19.1002 12.5675C19.2729 12.8709 19.3592 13.2186 19.3592 13.6106C19.3592 14.0027 19.2706 14.3504 19.0932 14.6537C18.9159 14.9571 18.6732 15.1928 18.3651 15.3608C18.0618 15.5242 17.7257 15.6059 17.357 15.6059ZM17.357 14.9128C17.5624 14.9128 17.7537 14.8638 17.9311 14.7658C18.1131 14.6677 18.2601 14.5207 18.3721 14.3247C18.4841 14.1287 18.5401 13.8907 18.5401 13.6106C18.5401 13.3306 18.4865 13.0949 18.3791 12.9035C18.2718 12.7075 18.1294 12.5605 17.9521 12.4625C17.7747 12.3645 17.5834 12.3155 17.378 12.3155C17.1727 12.3155 16.9813 12.3645 16.804 12.4625C16.6313 12.5605 16.4936 12.7075 16.3909 12.9035C16.2882 13.0949 16.2369 13.3306 16.2369 13.6106C16.2369 14.026 16.3419 14.348 16.5519 14.5767C16.7666 14.8008 17.035 14.9128 17.357 14.9128ZM23.6206 11.6854L21.2543 17.3561H20.4282L21.2123 15.4798L19.6931 11.6854H20.5822L21.6674 14.6257L22.7945 11.6854H23.6206Z" fill="black"/>
<path d="M7.03507 24.5962C7.55371 24.1796 7.96005 23.8386 8.25408 23.5732C8.54811 23.3036 8.79518 23.0239 8.99529 22.7339C9.19948 22.4399 9.30157 22.152 9.30157 21.8702C9.30157 21.6048 9.23623 21.3965 9.10555 21.2454C8.97895 21.0902 8.77272 21.0126 8.48686 21.0126C8.20916 21.0126 7.99272 21.1004 7.83753 21.276C7.68643 21.4476 7.60476 21.6783 7.59251 21.9682H7.05344C7.06978 21.5109 7.20863 21.1576 7.46999 20.9085C7.73135 20.6594 8.06827 20.5348 8.48073 20.5348C8.90136 20.5348 9.23419 20.6512 9.47922 20.884C9.72833 21.1168 9.85289 21.4373 9.85289 21.8457C9.85289 22.1847 9.75079 22.5155 9.5466 22.8381C9.3465 23.1566 9.1178 23.4384 8.86052 23.6834C8.60324 23.9244 8.2745 24.2062 7.87429 24.5288H9.98153V24.9943H7.03507V24.5962ZM10.6137 21.7293C10.6423 21.3536 10.7872 21.0596 11.0486 20.8472C11.31 20.6349 11.6489 20.5287 12.0655 20.5287C12.3432 20.5287 12.5821 20.5797 12.7822 20.6818C12.9864 20.7799 13.1395 20.9146 13.2416 21.0861C13.3478 21.2577 13.4009 21.4516 13.4009 21.6681C13.4009 21.9213 13.3274 22.1398 13.1803 22.3235C13.0374 22.5073 12.8495 22.6257 12.6168 22.6788V22.7094C12.8822 22.7748 13.0925 22.9034 13.2477 23.0954C13.4029 23.2873 13.4805 23.5385 13.4805 23.8488C13.4805 24.0816 13.4274 24.2919 13.3212 24.4798C13.215 24.6635 13.0558 24.8085 12.8434 24.9147C12.6311 25.0209 12.3758 25.074 12.0777 25.074C11.6448 25.074 11.2895 24.9617 11.0118 24.7371C10.7341 24.5084 10.579 24.1857 10.5463 23.7692H11.0853C11.1139 24.0142 11.214 24.2143 11.3855 24.3695C11.557 24.5247 11.7857 24.6023 12.0716 24.6023C12.3575 24.6023 12.5739 24.5288 12.7209 24.3818C12.872 24.2307 12.9476 24.0367 12.9476 23.7998C12.9476 23.4935 12.8455 23.273 12.6413 23.1382C12.4371 23.0035 12.1288 22.9361 11.7163 22.9361H11.5754V22.4705H11.7224C12.0981 22.4665 12.382 22.4052 12.5739 22.2868C12.7658 22.1643 12.8618 21.9764 12.8618 21.7232C12.8618 21.5068 12.7903 21.3332 12.6474 21.2025C12.5086 21.0718 12.3084 21.0065 12.0471 21.0065C11.7939 21.0065 11.5897 21.0718 11.4345 21.2025C11.2793 21.3332 11.1874 21.5088 11.1589 21.7293H10.6137ZM19.315 25.0433H18.7576L16.5156 21.6436V25.0433H15.9581V20.7676H16.5156L18.7576 24.1612V20.7676H19.315V25.0433ZM21.7293 25.0985C21.4149 25.0985 21.129 25.027 20.8717 24.8841C20.6185 24.7411 20.4184 24.539 20.2714 24.2776C20.1285 24.0122 20.057 23.7059 20.057 23.3588C20.057 23.0157 20.1305 22.7135 20.2775 22.4522C20.4286 22.1867 20.6328 21.9846 20.8901 21.8457C21.1474 21.7028 21.4353 21.6313 21.7538 21.6313C22.0724 21.6313 22.3603 21.7028 22.6175 21.8457C22.8748 21.9846 23.077 22.1847 23.224 22.446C23.3751 22.7074 23.4506 23.0116 23.4506 23.3588C23.4506 23.7059 23.373 24.0122 23.2179 24.2776C23.0668 24.539 22.8605 24.7411 22.5992 24.8841C22.3378 25.027 22.0479 25.0985 21.7293 25.0985ZM21.7293 24.6084C21.9294 24.6084 22.1173 24.5614 22.2929 24.4675C22.4685 24.3736 22.6094 24.2327 22.7156 24.0448C22.8258 23.857 22.8809 23.6283 22.8809 23.3588C22.8809 23.0892 22.8279 22.8605 22.7217 22.6727C22.6155 22.4848 22.4767 22.346 22.3051 22.2561C22.1336 22.1622 21.9478 22.1153 21.7477 22.1153C21.5435 22.1153 21.3557 22.1622 21.1841 22.2561C21.0167 22.346 20.8819 22.4848 20.7798 22.6727C20.6777 22.8605 20.6267 23.0892 20.6267 23.3588C20.6267 23.6324 20.6757 23.8631 20.7737 24.051C20.8758 24.2388 21.0106 24.3797 21.178 24.4736C21.3454 24.5635 21.5292 24.6084 21.7293 24.6084ZM25.4332 24.5288L26.4746 21.6865H27.0688L25.7517 25.0433H25.1024L23.7854 21.6865H24.3857L25.4332 24.5288Z" fill="#959595"/>
<path d="M45.6262 10.6773V15.5428H44.8281V12.2105L43.3439 15.5428H42.7909L41.2997 12.2105V15.5428H40.5016V10.6773H41.3627L43.0709 14.4927L44.7721 10.6773H45.6262ZM46.4091 13.5966C46.4091 13.2092 46.4885 12.8662 46.6472 12.5675C46.8105 12.2688 47.0299 12.0378 47.3052 11.8744C47.5853 11.7064 47.8933 11.6224 48.2294 11.6224C48.5327 11.6224 48.7964 11.6831 49.0204 11.8044C49.2491 11.9211 49.4312 12.0681 49.5665 12.2455V11.6854H50.3716V15.5428H49.5665V14.9688C49.4312 15.1508 49.2468 15.3025 49.0134 15.4238C48.7801 15.5452 48.5141 15.6059 48.2153 15.6059C47.884 15.6059 47.5806 15.5218 47.3052 15.3538C47.0299 15.1811 46.8105 14.9431 46.6472 14.6397C46.4885 14.3317 46.4091 13.984 46.4091 13.5966ZM49.5665 13.6106C49.5665 13.3446 49.5105 13.1136 49.3985 12.9175C49.2911 12.7215 49.1488 12.5722 48.9714 12.4695C48.7941 12.3668 48.6027 12.3155 48.3974 12.3155C48.192 12.3155 48.0007 12.3668 47.8233 12.4695C47.646 12.5675 47.5013 12.7145 47.3893 12.9105C47.2819 13.1019 47.2282 13.3306 47.2282 13.5966C47.2282 13.8627 47.2819 14.096 47.3893 14.2967C47.5013 14.4974 47.646 14.6514 47.8233 14.7588C48.0053 14.8614 48.1967 14.9128 48.3974 14.9128C48.6027 14.9128 48.7941 14.8614 48.9714 14.7588C49.1488 14.6561 49.2911 14.5067 49.3985 14.3107C49.5105 14.11 49.5665 13.8767 49.5665 13.6106ZM53.3661 11.6224C53.6694 11.6224 53.9401 11.6854 54.1782 11.8114C54.4209 11.9374 54.6099 12.1241 54.7452 12.3715C54.8806 12.6188 54.9483 12.9175 54.9483 13.2676V15.5428H54.1572V13.3866C54.1572 13.0412 54.0708 12.7775 53.8981 12.5955C53.7254 12.4088 53.4898 12.3155 53.1911 12.3155C52.8924 12.3155 52.6543 12.4088 52.477 12.5955C52.3043 12.7775 52.2179 13.0412 52.2179 13.3866V15.5428H51.4199V11.6854H52.2179V12.1265C52.3486 11.9678 52.5143 11.8441 52.715 11.7554C52.9204 11.6667 53.1374 11.6224 53.3661 11.6224ZM52.0989 11.2864C52.1363 11.0157 52.2249 10.8126 52.365 10.6773C52.505 10.5373 52.68 10.4673 52.89 10.4673C52.9787 10.4673 53.0557 10.4813 53.121 10.5093C53.1864 10.5373 53.2657 10.5793 53.3591 10.6353C53.4291 10.682 53.4874 10.717 53.5341 10.7403C53.5854 10.7636 53.6414 10.7753 53.7021 10.7753C53.7815 10.7753 53.8468 10.752 53.8981 10.7053C53.9541 10.654 53.9891 10.5793 54.0031 10.4813H54.4512C54.4139 10.752 54.3252 10.9573 54.1852 11.0973C54.0452 11.2327 53.8701 11.3004 53.6601 11.3004C53.5714 11.3004 53.4921 11.2864 53.4221 11.2584C53.3521 11.2257 53.2751 11.1814 53.1911 11.1253C53.107 11.074 53.0417 11.039 52.995 11.0203C52.953 10.997 52.904 10.9853 52.848 10.9853C52.7687 10.9853 52.701 11.011 52.645 11.0623C52.5937 11.1137 52.561 11.1884 52.547 11.2864H52.0989ZM55.7002 13.5966C55.7002 13.2092 55.7796 12.8662 55.9383 12.5675C56.1016 12.2688 56.321 12.0378 56.5963 11.8744C56.8764 11.7064 57.1844 11.6224 57.5204 11.6224C57.8238 11.6224 58.0875 11.6831 58.3115 11.8044C58.5402 11.9211 58.7222 12.0681 58.8576 12.2455V11.6854H59.6627V15.5428H58.8576V14.9688C58.7222 15.1508 58.5379 15.3025 58.3045 15.4238C58.0712 15.5452 57.8051 15.6059 57.5064 15.6059C57.1751 15.6059 56.8717 15.5218 56.5963 15.3538C56.321 15.1811 56.1016 14.9431 55.9383 14.6397C55.7796 14.3317 55.7002 13.984 55.7002 13.5966ZM58.8576 13.6106C58.8576 13.3446 58.8016 13.1136 58.6896 12.9175C58.5822 12.7215 58.4399 12.5722 58.2625 12.4695C58.0852 12.3668 57.8938 12.3155 57.6885 12.3155C57.4831 12.3155 57.2918 12.3668 57.1144 12.4695C56.937 12.5675 56.7924 12.7145 56.6804 12.9105C56.573 13.1019 56.5193 13.3306 56.5193 13.5966C56.5193 13.8627 56.573 14.096 56.6804 14.2967C56.7924 14.4974 56.937 14.6514 57.1144 14.7588C57.2964 14.8614 57.4878 14.9128 57.6885 14.9128C57.8938 14.9128 58.0852 14.8614 58.2625 14.7588C58.4399 14.6561 58.5822 14.5067 58.6896 14.3107C58.8016 14.11 58.8576 13.8767 58.8576 13.6106ZM62.6572 11.6224C62.9605 11.6224 63.2312 11.6854 63.4693 11.8114C63.712 11.9374 63.901 12.1241 64.0363 12.3715C64.1717 12.6188 64.2393 12.9175 64.2393 13.2676V15.5428H63.4483V13.3866C63.4483 13.0412 63.3619 12.7775 63.1892 12.5955C63.0165 12.4088 62.7808 12.3155 62.4821 12.3155C62.1834 12.3155 61.9454 12.4088 61.7681 12.5955C61.5954 12.7775 61.509 13.0412 61.509 13.3866V15.5428H60.7109V11.6854H61.509V12.1265C61.6397 11.9678 61.8054 11.8441 62.0061 11.7554C62.2115 11.6667 62.4285 11.6224 62.6572 11.6224ZM64.9913 13.5966C64.9913 13.2092 65.0707 12.8662 65.2294 12.5675C65.3927 12.2688 65.6121 12.0378 65.8874 11.8744C66.1675 11.7064 66.4755 11.6224 66.8115 11.6224C67.1149 11.6224 67.3786 11.6831 67.6026 11.8044C67.8313 11.9211 68.0133 12.0681 68.1487 12.2455V11.6854H68.9538V15.5428H68.1487V14.9688C68.0133 15.1508 67.829 15.3025 67.5956 15.4238C67.3623 15.5452 67.0962 15.6059 66.7975 15.6059C66.4662 15.6059 66.1628 15.5218 65.8874 15.3538C65.6121 15.1811 65.3927 14.9431 65.2294 14.6397C65.0707 14.3317 64.9913 13.984 64.9913 13.5966ZM68.1487 13.6106C68.1487 13.3446 68.0927 13.1136 67.9807 12.9175C67.8733 12.7215 67.731 12.5722 67.5536 12.4695C67.3763 12.3668 67.1849 12.3155 66.9796 12.3155C66.7742 12.3155 66.5828 12.3668 66.4055 12.4695C66.2281 12.5675 66.0835 12.7145 65.9714 12.9105C65.8641 13.1019 65.8104 13.3306 65.8104 13.5966C65.8104 13.8627 65.8641 14.096 65.9714 14.2967C66.0835 14.4974 66.2281 14.6514 66.4055 14.7588C66.5875 14.8614 66.7789 14.9128 66.9796 14.9128C67.1849 14.9128 67.3763 14.8614 67.5536 14.7588C67.731 14.6561 67.8733 14.5067 67.9807 14.3107C68.0927 14.11 68.1487 13.8767 68.1487 13.6106Z" fill="black"/>
<path d="M44.664 24.5962C45.1826 24.1796 45.589 23.8386 45.883 23.5732C46.177 23.3036 46.4241 23.0239 46.6242 22.7339C46.8284 22.4399 46.9305 22.152 46.9305 21.8702C46.9305 21.6048 46.8651 21.3965 46.7345 21.2454C46.6079 21.0902 46.4016 21.0126 46.1158 21.0126C45.8381 21.0126 45.6216 21.1004 45.4664 21.276C45.3153 21.4476 45.2337 21.6783 45.2214 21.9682H44.6824C44.6987 21.5109 44.8375 21.1576 45.0989 20.9085C45.3603 20.6594 45.6972 20.5348 46.1096 20.5348C46.5303 20.5348 46.8631 20.6512 47.1081 20.884C47.3572 21.1168 47.4818 21.4373 47.4818 21.8457C47.4818 22.1847 47.3797 22.5155 47.1755 22.8381C46.9754 23.1566 46.7467 23.4384 46.4894 23.6834C46.2322 23.9244 45.9034 24.2062 45.5032 24.5288H47.6104V24.9943H44.664V24.5962ZM48.1201 24.0571V23.6344L50.2702 20.6573H50.9379V23.5732H51.5505V24.0571H50.9379V25.0433H50.3866V24.0571H48.1201ZM50.4111 21.2393L48.7633 23.5732H50.4111V21.2393ZM57.1892 25.0433H56.6318L54.3898 21.6436V25.0433H53.8323V20.7676H54.3898L56.6318 24.1612V20.7676H57.1892V25.0433ZM59.6035 25.0985C59.289 25.0985 59.0032 25.027 58.7459 24.8841C58.4927 24.7411 58.2926 24.539 58.1456 24.2776C58.0026 24.0122 57.9312 23.7059 57.9312 23.3588C57.9312 23.0157 58.0047 22.7135 58.1517 22.4522C58.3028 22.1867 58.507 21.9846 58.7643 21.8457C59.0216 21.7028 59.3095 21.6313 59.628 21.6313C59.9465 21.6313 60.2344 21.7028 60.4917 21.8457C60.749 21.9846 60.9511 22.1847 61.0982 22.446C61.2493 22.7074 61.3248 23.0116 61.3248 23.3588C61.3248 23.7059 61.2472 24.0122 61.092 24.2776C60.9409 24.539 60.7347 24.7411 60.4733 24.8841C60.212 25.027 59.922 25.0985 59.6035 25.0985ZM59.6035 24.6084C59.8036 24.6084 59.9915 24.5614 60.1671 24.4675C60.3427 24.3736 60.4836 24.2327 60.5897 24.0448C60.7 23.857 60.7551 23.6283 60.7551 23.3588C60.7551 23.0892 60.702 22.8605 60.5959 22.6727C60.4897 22.4848 60.3508 22.346 60.1793 22.2561C60.0078 22.1622 59.822 22.1153 59.6219 22.1153C59.4177 22.1153 59.2298 22.1622 59.0583 22.2561C58.8909 22.346 58.7561 22.4848 58.654 22.6727C58.5519 22.8605 58.5009 23.0892 58.5009 23.3588C58.5009 23.6324 58.5499 23.8631 58.6479 24.051C58.75 24.2388 58.8847 24.3797 59.0522 24.4736C59.2196 24.5635 59.4034 24.6084 59.6035 24.6084ZM63.3074 24.5288L64.3488 21.6865H64.9429L63.6259 25.0433H62.9766L61.6596 21.6865H62.2599L63.3074 24.5288Z" fill="#959595"/>
<path d="M88.9232 15.5919C88.5965 15.5919 88.3024 15.5358 88.0411 15.4238C87.7797 15.3072 87.5743 15.1438 87.425 14.9338C87.2756 14.7238 87.201 14.4787 87.201 14.1987H88.0551C88.0737 14.4087 88.1554 14.5814 88.3001 14.7168C88.4494 14.8521 88.6571 14.9198 88.9232 14.9198C89.1985 14.9198 89.4132 14.8544 89.5672 14.7238C89.7213 14.5884 89.7983 14.4157 89.7983 14.2057C89.7983 14.0423 89.7493 13.9093 89.6512 13.8066C89.5579 13.704 89.4389 13.6246 89.2942 13.5686C89.1542 13.5126 88.9582 13.4519 88.7061 13.3866C88.3888 13.3026 88.1297 13.2186 87.9291 13.1346C87.733 13.0459 87.565 12.9105 87.425 12.7285C87.285 12.5465 87.215 12.3038 87.215 12.0004C87.215 11.7204 87.285 11.4754 87.425 11.2654C87.565 11.0553 87.761 10.8943 88.0131 10.7823C88.2651 10.6703 88.5568 10.6143 88.8882 10.6143C89.3595 10.6143 89.7446 10.7333 90.0433 10.9713C90.3467 11.2047 90.5147 11.5267 90.5473 11.9374H89.6652C89.6512 11.7601 89.5672 11.6084 89.4132 11.4824C89.2592 11.3564 89.0562 11.2934 88.8042 11.2934C88.5755 11.2934 88.3888 11.3517 88.2441 11.4684C88.0994 11.5851 88.0271 11.7531 88.0271 11.9724C88.0271 12.1218 88.0714 12.2455 88.1601 12.3435C88.2534 12.4368 88.3701 12.5115 88.5101 12.5675C88.6501 12.6235 88.8415 12.6842 89.0842 12.7495C89.4062 12.8382 89.6676 12.9269 89.8683 13.0156C90.0736 13.1042 90.2463 13.2419 90.3863 13.4286C90.531 13.6106 90.6034 13.8557 90.6034 14.1637C90.6034 14.4111 90.5357 14.6444 90.4003 14.8638C90.2696 15.0831 90.076 15.2605 89.8193 15.3958C89.5672 15.5265 89.2685 15.5919 88.9232 15.5919ZM91.279 13.5966C91.279 13.2092 91.3584 12.8662 91.5171 12.5675C91.6804 12.2688 91.8998 12.0378 92.1751 11.8744C92.4552 11.7064 92.7632 11.6224 93.0992 11.6224C93.4026 11.6224 93.6663 11.6831 93.8903 11.8044C94.119 11.9211 94.3011 12.0681 94.4364 12.2455V11.6854H95.2415V15.5428H94.4364V14.9688C94.3011 15.1508 94.1167 15.3025 93.8833 15.4238C93.65 15.5452 93.3839 15.6059 93.0852 15.6059C92.7539 15.6059 92.4505 15.5218 92.1751 15.3538C91.8998 15.1811 91.6804 14.9431 91.5171 14.6397C91.3584 14.3317 91.279 13.984 91.279 13.5966ZM94.4364 13.6106C94.4364 13.3446 94.3804 13.1136 94.2684 12.9175C94.161 12.7215 94.0187 12.5722 93.8413 12.4695C93.664 12.3668 93.4726 12.3155 93.2673 12.3155C93.0619 12.3155 92.8706 12.3668 92.6932 12.4695C92.5158 12.5675 92.3712 12.7145 92.2592 12.9105C92.1518 13.1019 92.0981 13.3306 92.0981 13.5966C92.0981 13.8627 92.1518 14.096 92.2592 14.2967C92.3712 14.4974 92.5158 14.6514 92.6932 14.7588C92.8752 14.8614 93.0666 14.9128 93.2673 14.9128C93.4726 14.9128 93.664 14.8614 93.8413 14.7588C94.0187 14.6561 94.161 14.5067 94.2684 14.3107C94.3804 14.11 94.4364 13.8767 94.4364 13.6106ZM94.1144 10.6493L92.5672 11.4124V10.8243L94.1144 9.97021V10.6493ZM97.0878 12.2595C97.2232 12.0728 97.4075 11.9211 97.6409 11.8044C97.8789 11.6831 98.1426 11.6224 98.432 11.6224C98.7727 11.6224 99.0807 11.7041 99.3561 11.8674C99.6315 12.0308 99.8485 12.2641 100.007 12.5675C100.166 12.8662 100.245 13.2092 100.245 13.5966C100.245 13.984 100.166 14.3317 100.007 14.6397C99.8485 14.9431 99.6291 15.1811 99.3491 15.3538C99.0737 15.5218 98.768 15.6059 98.432 15.6059C98.1333 15.6059 97.8673 15.5475 97.6339 15.4308C97.4052 15.3142 97.2232 15.1648 97.0878 14.9828V15.5428H96.2898V10.3623H97.0878V12.2595ZM99.4331 13.5966C99.4331 13.3306 99.3771 13.1019 99.2651 12.9105C99.1577 12.7145 99.0131 12.5675 98.831 12.4695C98.6537 12.3668 98.4623 12.3155 98.257 12.3155C98.0563 12.3155 97.8649 12.3668 97.6829 12.4695C97.5056 12.5722 97.3609 12.7215 97.2489 12.9175C97.1415 13.1136 97.0878 13.3446 97.0878 13.6106C97.0878 13.8767 97.1415 14.11 97.2489 14.3107C97.3609 14.5067 97.5056 14.6561 97.6829 14.7588C97.8649 14.8614 98.0563 14.9128 98.257 14.9128C98.4623 14.9128 98.6537 14.8614 98.831 14.7588C99.0131 14.6514 99.1577 14.4974 99.2651 14.2967C99.3771 14.096 99.4331 13.8627 99.4331 13.5966Z" fill="black"/>
<path d="M83.6073 24.5962C84.126 24.1796 84.5323 23.8386 84.8263 23.5732C85.1204 23.3036 85.3674 23.0239 85.5676 22.7339C85.7717 22.4399 85.8738 22.152 85.8738 21.8702C85.8738 21.6048 85.8085 21.3965 85.6778 21.2454C85.5512 21.0902 85.345 21.0126 85.0591 21.0126C84.7814 21.0126 84.565 21.1004 84.4098 21.276C84.2587 21.4476 84.177 21.6783 84.1648 21.9682H83.6257C83.642 21.5109 83.7809 21.1576 84.0423 20.9085C84.3036 20.6594 84.6405 20.5348 85.053 20.5348C85.4736 20.5348 85.8065 20.6512 86.0515 20.884C86.3006 21.1168 86.4252 21.4373 86.4252 21.8457C86.4252 22.1847 86.3231 22.5155 86.1189 22.8381C85.9188 23.1566 85.6901 23.4384 85.4328 23.6834C85.1755 23.9244 84.8468 24.2062 84.4466 24.5288H86.5538V24.9943H83.6073V24.5962ZM90.0221 21.0984H87.872V22.495C87.9659 22.3644 88.1048 22.2582 88.2886 22.1765C88.4723 22.0907 88.6704 22.0479 88.8828 22.0479C89.2217 22.0479 89.4974 22.1193 89.7097 22.2623C89.9221 22.4011 90.0732 22.5828 90.163 22.8075C90.257 23.028 90.3039 23.2628 90.3039 23.5119C90.3039 23.8059 90.2488 24.0693 90.1385 24.3021C90.0283 24.5349 89.8588 24.7187 89.6301 24.8534C89.4055 24.9882 89.1257 25.0556 88.7909 25.0556C88.3621 25.0556 88.0149 24.9453 87.7495 24.7248C87.4841 24.5043 87.3227 24.2102 87.2656 23.8427H87.8108C87.8638 24.0755 87.9761 24.2572 88.1477 24.3879C88.3192 24.5186 88.5356 24.5839 88.797 24.5839C89.1196 24.5839 89.3626 24.4879 89.526 24.296C89.6893 24.1 89.771 23.8427 89.771 23.5242C89.771 23.2056 89.6893 22.9606 89.526 22.7891C89.3626 22.6135 89.1217 22.5257 88.8031 22.5257C88.5867 22.5257 88.3968 22.5788 88.2334 22.6849C88.0742 22.787 87.9578 22.9279 87.8843 23.1076H87.3575V20.6083H90.0221V21.0984ZM96.1266 25.0433H95.5691L93.3271 21.6436V25.0433H92.7697V20.7676H93.3271L95.5691 24.1612V20.7676H96.1266V25.0433ZM98.5409 25.0985C98.2264 25.0985 97.9406 25.027 97.6833 24.8841C97.4301 24.7411 97.23 24.539 97.083 24.2776C96.94 24.0122 96.8686 23.7059 96.8686 23.3588C96.8686 23.0157 96.9421 22.7135 97.0891 22.4522C97.2402 22.1867 97.4444 21.9846 97.7016 21.8457C97.9589 21.7028 98.2468 21.6313 98.5654 21.6313C98.8839 21.6313 99.1718 21.7028 99.4291 21.8457C99.6864 21.9846 99.8885 22.1847 100.036 22.446C100.187 22.7074 100.262 23.0116 100.262 23.3588C100.262 23.7059 100.185 24.0122 100.029 24.2776C99.8783 24.539 99.6721 24.7411 99.4107 24.8841C99.1494 25.027 98.8594 25.0985 98.5409 25.0985ZM98.5409 24.6084C98.741 24.6084 98.9288 24.5614 99.1044 24.4675C99.28 24.3736 99.4209 24.2327 99.5271 24.0448C99.6374 23.857 99.6925 23.6283 99.6925 23.3588C99.6925 23.0892 99.6394 22.8605 99.5332 22.6727C99.4271 22.4848 99.2882 22.346 99.1167 22.2561C98.9452 22.1622 98.7594 22.1153 98.5592 22.1153C98.3551 22.1153 98.1672 22.1622 97.9957 22.2561C97.8282 22.346 97.6935 22.4848 97.5914 22.6727C97.4893 22.8605 97.4382 23.0892 97.4382 23.3588C97.4382 23.6324 97.4872 23.8631 97.5853 24.051C97.6874 24.2388 97.8221 24.3797 97.9896 24.4736C98.157 24.5635 98.3408 24.6084 98.5409 24.6084ZM102.245 24.5288L103.286 21.6865H103.88L102.563 25.0433H101.914L100.597 21.6865H101.197L102.245 24.5288Z" fill="#959595"/>
<path d="M164.319 14.8988H165.964V15.5428H163.521V10.6773H164.319V14.8988ZM170.125 11.6854V15.5428H169.327V15.0878C169.201 15.2465 169.035 15.3725 168.83 15.4658C168.629 15.5545 168.415 15.5989 168.186 15.5989C167.883 15.5989 167.61 15.5358 167.367 15.4098C167.129 15.2838 166.94 15.0971 166.8 14.8498C166.665 14.6024 166.597 14.3037 166.597 13.9537V11.6854H167.388V13.8347C167.388 14.18 167.474 14.4461 167.647 14.6327C167.82 14.8148 168.055 14.9058 168.354 14.9058C168.653 14.9058 168.888 14.8148 169.061 14.6327C169.238 14.4461 169.327 14.18 169.327 13.8347V11.6854H170.125ZM173.124 11.6224C173.428 11.6224 173.699 11.6854 173.937 11.8114C174.179 11.9374 174.368 12.1241 174.504 12.3715C174.639 12.6188 174.707 12.9175 174.707 13.2676V15.5428H173.916V13.3866C173.916 13.0412 173.829 12.7775 173.657 12.5955C173.484 12.4088 173.248 12.3155 172.949 12.3155C172.651 12.3155 172.413 12.4088 172.235 12.5955C172.063 12.7775 171.976 13.0412 171.976 13.3866V15.5428H171.178V11.6854H171.976V12.1265C172.107 11.9678 172.273 11.8441 172.473 11.7554C172.679 11.6667 172.896 11.6224 173.124 11.6224Z" fill="black"/>
<path d="M159.809 24.5962C160.327 24.1796 160.733 23.8386 161.028 23.5732C161.322 23.3036 161.569 23.0239 161.769 22.7339C161.973 22.4399 162.075 22.152 162.075 21.8702C162.075 21.6048 162.01 21.3965 161.879 21.2454C161.752 21.0902 161.546 21.0126 161.26 21.0126C160.983 21.0126 160.766 21.1004 160.611 21.276C160.46 21.4476 160.378 21.6783 160.366 21.9682H159.827C159.843 21.5109 159.982 21.1576 160.243 20.9085C160.505 20.6594 160.842 20.5348 161.254 20.5348C161.675 20.5348 162.008 20.6512 162.253 20.884C162.502 21.1168 162.626 21.4373 162.626 21.8457C162.626 22.1847 162.524 22.5155 162.32 22.8381C162.12 23.1566 161.891 23.4384 161.634 23.6834C161.377 23.9244 161.048 24.2062 160.648 24.5288H162.755V24.9943H159.809V24.5962ZM166.223 21.0984H164.073V22.495C164.167 22.3644 164.306 22.2582 164.49 22.1765C164.674 22.0907 164.872 22.0479 165.084 22.0479C165.423 22.0479 165.699 22.1193 165.911 22.2623C166.123 22.4011 166.274 22.5828 166.364 22.8075C166.458 23.028 166.505 23.2628 166.505 23.5119C166.505 23.8059 166.45 24.0693 166.34 24.3021C166.229 24.5349 166.06 24.7187 165.831 24.8534C165.607 24.9882 165.327 25.0556 164.992 25.0556C164.563 25.0556 164.216 24.9453 163.951 24.7248C163.685 24.5043 163.524 24.2102 163.467 23.8427H164.012C164.065 24.0755 164.177 24.2572 164.349 24.3879C164.52 24.5186 164.737 24.5839 164.998 24.5839C165.321 24.5839 165.564 24.4879 165.727 24.296C165.89 24.1 165.972 23.8427 165.972 23.5242C165.972 23.2056 165.89 22.9606 165.727 22.7891C165.564 22.6135 165.323 22.5257 165.004 22.5257C164.788 22.5257 164.598 22.5788 164.435 22.6849C164.275 22.787 164.159 22.9279 164.085 23.1076H163.559V20.6083H166.223V21.0984ZM172.328 25.0433H171.77L169.528 21.6436V25.0433H168.971V20.7676H169.528L171.77 24.1612V20.7676H172.328V25.0433ZM174.742 25.0985C174.428 25.0985 174.142 25.027 173.884 24.8841C173.631 24.7411 173.431 24.539 173.284 24.2776C173.141 24.0122 173.07 23.7059 173.07 23.3588C173.07 23.0157 173.143 22.7135 173.29 22.4522C173.441 22.1867 173.646 21.9846 173.903 21.8457C174.16 21.7028 174.448 21.6313 174.767 21.6313C175.085 21.6313 175.373 21.7028 175.63 21.8457C175.888 21.9846 176.09 22.1847 176.237 22.446C176.388 22.7074 176.463 23.0116 176.463 23.3588C176.463 23.7059 176.386 24.0122 176.231 24.2776C176.079 24.539 175.873 24.7411 175.612 24.8841C175.351 25.027 175.061 25.0985 174.742 25.0985ZM174.742 24.6084C174.942 24.6084 175.13 24.5614 175.306 24.4675C175.481 24.3736 175.622 24.2327 175.728 24.0448C175.839 23.857 175.894 23.6283 175.894 23.3588C175.894 23.0892 175.841 22.8605 175.734 22.6727C175.628 22.4848 175.489 22.346 175.318 22.2561C175.146 22.1622 174.961 22.1153 174.76 22.1153C174.556 22.1153 174.368 22.1622 174.197 22.2561C174.029 22.346 173.895 22.4848 173.793 22.6727C173.69 22.8605 173.639 23.0892 173.639 23.3588C173.639 23.6324 173.688 23.8631 173.786 24.051C173.889 24.2388 174.023 24.3797 174.191 24.4736C174.358 24.5635 174.542 24.6084 174.742 24.6084ZM178.446 24.5288L179.487 21.6865H180.081L178.764 25.0433H178.115L176.798 21.6865H177.398L178.446 24.5288Z" fill="#959595"/>
<path d="M208.169 10.6773V15.5428H207.371V12.2105L205.887 15.5428H205.334L203.843 12.2105V15.5428H203.045V10.6773H203.906L205.614 14.4927L207.315 10.6773H208.169ZM208.952 13.5966C208.952 13.2092 209.031 12.8662 209.19 12.5675C209.353 12.2688 209.573 12.0378 209.848 11.8744C210.128 11.7064 210.436 11.6224 210.772 11.6224C211.076 11.6224 211.339 11.6831 211.563 11.8044C211.792 11.9211 211.974 12.0681 212.109 12.2455V11.6854H212.915V15.5428H212.109V14.9688C211.974 15.1508 211.79 15.3025 211.556 15.4238C211.323 15.5452 211.057 15.6059 210.758 15.6059C210.427 15.6059 210.124 15.5218 209.848 15.3538C209.573 15.1811 209.353 14.9431 209.19 14.6397C209.031 14.3317 208.952 13.984 208.952 13.5966ZM212.109 13.6106C212.109 13.3446 212.053 13.1136 211.941 12.9175C211.834 12.7215 211.692 12.5722 211.514 12.4695C211.337 12.3668 211.146 12.3155 210.94 12.3155C210.735 12.3155 210.544 12.3668 210.366 12.4695C210.189 12.5675 210.044 12.7145 209.932 12.9105C209.825 13.1019 209.771 13.3306 209.771 13.5966C209.771 13.8627 209.825 14.096 209.932 14.2967C210.044 14.4974 210.189 14.6514 210.366 14.7588C210.548 14.8614 210.74 14.9128 210.94 14.9128C211.146 14.9128 211.337 14.8614 211.514 14.7588C211.692 14.6561 211.834 14.5067 211.941 14.3107C212.053 14.11 212.109 13.8767 212.109 13.6106Z" fill="black"/>
<path d="M199.332 24.5962C199.851 24.1796 200.257 23.8386 200.551 23.5732C200.845 23.3036 201.092 23.0239 201.292 22.7339C201.496 22.4399 201.598 22.152 201.598 21.8702C201.598 21.6048 201.533 21.3965 201.402 21.2454C201.276 21.0902 201.07 21.0126 200.784 21.0126C200.506 21.0126 200.29 21.1004 200.134 21.276C199.983 21.4476 199.902 21.6783 199.889 21.9682H199.35C199.367 21.5109 199.506 21.1576 199.767 20.9085C200.028 20.6594 200.365 20.5348 200.778 20.5348C201.198 20.5348 201.531 20.6512 201.776 20.884C202.025 21.1168 202.15 21.4373 202.15 21.8457C202.15 22.1847 202.048 22.5155 201.843 22.8381C201.643 23.1566 201.415 23.4384 201.157 23.6834C200.9 23.9244 200.571 24.2062 200.171 24.5288H202.278V24.9943H199.332V24.5962ZM205.747 21.0984H203.597V22.495C203.691 22.3644 203.829 22.2582 204.013 22.1765C204.197 22.0907 204.395 22.0479 204.607 22.0479C204.946 22.0479 205.222 22.1193 205.434 22.2623C205.647 22.4011 205.798 22.5828 205.888 22.8075C205.982 23.028 206.029 23.2628 206.029 23.5119C206.029 23.8059 205.973 24.0693 205.863 24.3021C205.753 24.5349 205.583 24.7187 205.355 24.8534C205.13 24.9882 204.85 25.0556 204.515 25.0556C204.087 25.0556 203.74 24.9453 203.474 24.7248C203.209 24.5043 203.047 24.2102 202.99 23.8427H203.535C203.588 24.0755 203.701 24.2572 203.872 24.3879C204.044 24.5186 204.26 24.5839 204.522 24.5839C204.844 24.5839 205.087 24.4879 205.251 24.296C205.414 24.1 205.496 23.8427 205.496 23.5242C205.496 23.2056 205.414 22.9606 205.251 22.7891C205.087 22.6135 204.846 22.5257 204.528 22.5257C204.311 22.5257 204.121 22.5788 203.958 22.6849C203.799 22.787 203.682 22.9279 203.609 23.1076H203.082V20.6083H205.747V21.0984ZM211.851 25.0433H211.294L209.052 21.6436V25.0433H208.494V20.7676H209.052L211.294 24.1612V20.7676H211.851V25.0433ZM214.265 25.0985C213.951 25.0985 213.665 25.027 213.408 24.8841C213.155 24.7411 212.955 24.539 212.808 24.2776C212.665 24.0122 212.593 23.7059 212.593 23.3588C212.593 23.0157 212.667 22.7135 212.814 22.4522C212.965 22.1867 213.169 21.9846 213.426 21.8457C213.684 21.7028 213.971 21.6313 214.29 21.6313C214.609 21.6313 214.896 21.7028 215.154 21.8457C215.411 21.9846 215.613 22.1847 215.76 22.446C215.911 22.7074 215.987 23.0116 215.987 23.3588C215.987 23.7059 215.909 24.0122 215.754 24.2776C215.603 24.539 215.397 24.7411 215.135 24.8841C214.874 25.027 214.584 25.0985 214.265 25.0985ZM214.265 24.6084C214.466 24.6084 214.653 24.5614 214.829 24.4675C215.005 24.3736 215.146 24.2327 215.252 24.0448C215.362 23.857 215.417 23.6283 215.417 23.3588C215.417 23.0892 215.364 22.8605 215.258 22.6727C215.152 22.4848 215.013 22.346 214.841 22.2561C214.67 22.1622 214.484 22.1153 214.284 22.1153C214.08 22.1153 213.892 22.1622 213.72 22.2561C213.553 22.346 213.418 22.4848 213.316 22.6727C213.214 22.8605 213.163 23.0892 213.163 23.3588C213.163 23.6324 213.212 23.8631 213.31 24.051C213.412 24.2388 213.547 24.3797 213.714 24.4736C213.882 24.5635 214.065 24.6084 214.265 24.6084ZM217.969 24.5288L219.011 21.6865H219.605L218.288 25.0433H217.639L216.322 21.6865H216.922L217.969 24.5288Z" fill="#959595"/>
<path d="M128.288 10.6773C128.806 10.6773 129.259 10.7776 129.646 10.9783C130.038 11.1744 130.339 11.459 130.549 11.8324C130.764 12.2011 130.871 12.6328 130.871 13.1276C130.871 13.6223 130.764 14.0517 130.549 14.4157C130.339 14.7798 130.038 15.0598 129.646 15.2558C129.259 15.4472 128.806 15.5428 128.288 15.5428H126.699V10.6773H128.288ZM128.288 14.8918C128.857 14.8918 129.294 14.7378 129.597 14.4297C129.901 14.1217 130.052 13.6876 130.052 13.1276C130.052 12.5628 129.901 12.1218 129.597 11.8044C129.294 11.4871 128.857 11.3284 128.288 11.3284H127.497V14.8918H128.288ZM133.336 15.6059C132.971 15.6059 132.642 15.5242 132.348 15.3608C132.054 15.1928 131.823 14.9594 131.655 14.6607C131.487 14.3574 131.403 14.0073 131.403 13.6106C131.403 13.2186 131.49 12.8709 131.662 12.5675C131.835 12.2641 132.071 12.0308 132.369 11.8674C132.668 11.7041 133.002 11.6224 133.371 11.6224C133.739 11.6224 134.073 11.7041 134.372 11.8674C134.67 12.0308 134.906 12.2641 135.079 12.5675C135.251 12.8709 135.338 13.2186 135.338 13.6106C135.338 14.0027 135.249 14.3504 135.072 14.6537C134.894 14.9571 134.652 15.1928 134.344 15.3608C134.04 15.5242 133.704 15.6059 133.336 15.6059ZM133.336 14.9128C133.541 14.9128 133.732 14.8638 133.91 14.7658C134.092 14.6677 134.239 14.5207 134.351 14.3247C134.463 14.1287 134.519 13.8907 134.519 13.6106C134.519 13.3306 134.465 13.0949 134.358 12.9035C134.25 12.7075 134.108 12.5605 133.931 12.4625C133.753 12.3645 133.562 12.3155 133.357 12.3155C133.151 12.3155 132.96 12.3645 132.782 12.4625C132.61 12.5605 132.472 12.7075 132.369 12.9035C132.267 13.0949 132.215 13.3306 132.215 13.6106C132.215 14.026 132.32 14.348 132.53 14.5767C132.745 14.8008 133.013 14.9128 133.336 14.9128ZM140.796 11.6224C141.1 11.6224 141.37 11.6854 141.608 11.8114C141.851 11.9374 142.04 12.1241 142.175 12.3715C142.315 12.6188 142.385 12.9175 142.385 13.2676V15.5428H141.594V13.3866C141.594 13.0412 141.508 12.7775 141.335 12.5955C141.163 12.4088 140.927 12.3155 140.628 12.3155C140.33 12.3155 140.091 12.4088 139.914 12.5955C139.741 12.7775 139.655 13.0412 139.655 13.3866V15.5428H138.864V13.3866C138.864 13.0412 138.778 12.7775 138.605 12.5955C138.432 12.4088 138.197 12.3155 137.898 12.3155C137.599 12.3155 137.361 12.4088 137.184 12.5955C137.011 12.7775 136.925 13.0412 136.925 13.3866V15.5428H136.127V11.6854H136.925V12.1265C137.055 11.9678 137.221 11.8441 137.422 11.7554C137.623 11.6667 137.837 11.6224 138.066 11.6224C138.374 11.6224 138.649 11.6877 138.892 11.8184C139.135 11.9491 139.321 12.1381 139.452 12.3855C139.569 12.1521 139.751 11.9678 139.998 11.8324C140.246 11.6924 140.512 11.6224 140.796 11.6224Z" fill="black"/>
<path d="M122.986 24.5962C123.505 24.1796 123.911 23.8386 124.205 23.5732C124.499 23.3036 124.746 23.0239 124.946 22.7339C125.151 22.4399 125.253 22.152 125.253 21.8702C125.253 21.6048 125.187 21.3965 125.057 21.2454C124.93 21.0902 124.724 21.0126 124.438 21.0126C124.16 21.0126 123.944 21.1004 123.789 21.276C123.638 21.4476 123.556 21.6783 123.544 21.9682H123.005C123.021 21.5109 123.16 21.1576 123.421 20.9085C123.683 20.6594 124.019 20.5348 124.432 20.5348C124.853 20.5348 125.185 20.6512 125.43 20.884C125.68 21.1168 125.804 21.4373 125.804 21.8457C125.804 22.1847 125.702 22.5155 125.498 22.8381C125.298 23.1566 125.069 23.4384 124.812 23.6834C124.554 23.9244 124.226 24.2062 123.825 24.5288H125.933V24.9943H122.986V24.5962ZM129.046 21.6681C128.956 21.2148 128.676 20.9881 128.207 20.9881C127.843 20.9881 127.571 21.129 127.392 21.4108C127.212 21.6885 127.124 22.1479 127.128 22.7891C127.222 22.5767 127.378 22.4113 127.594 22.2929C127.814 22.1704 128.06 22.1091 128.329 22.1091C128.75 22.1091 129.085 22.2398 129.334 22.5012C129.587 22.7625 129.713 23.124 129.713 23.5854C129.713 23.8631 129.658 24.1122 129.548 24.3328C129.442 24.5533 129.279 24.7289 129.058 24.8596C128.842 24.9902 128.578 25.0556 128.268 25.0556C127.847 25.0556 127.518 24.9617 127.282 24.7738C127.045 24.5859 126.879 24.3266 126.785 23.9958C126.691 23.6651 126.644 23.2567 126.644 22.7707C126.644 21.2719 127.167 20.5226 128.213 20.5226C128.613 20.5226 128.927 20.6308 129.156 20.8472C129.385 21.0637 129.519 21.3373 129.56 21.6681H129.046ZM128.213 22.5808C128.037 22.5808 127.872 22.6176 127.716 22.6911C127.561 22.7605 127.435 22.8687 127.337 23.0157C127.243 23.1587 127.196 23.3343 127.196 23.5425C127.196 23.8529 127.286 24.1061 127.465 24.3021C127.645 24.4941 127.902 24.59 128.237 24.59C128.523 24.59 128.75 24.5022 128.917 24.3266C129.089 24.1469 129.174 23.906 129.174 23.6038C129.174 23.2853 129.093 23.0361 128.929 22.8565C128.766 22.6727 128.527 22.5808 128.213 22.5808ZM135.547 25.0433H134.99L132.748 21.6436V25.0433H132.19V20.7676H132.748L134.99 24.1612V20.7676H135.547V25.0433ZM137.962 25.0985C137.647 25.0985 137.361 25.027 137.104 24.8841C136.851 24.7411 136.651 24.539 136.504 24.2776C136.361 24.0122 136.289 23.7059 136.289 23.3588C136.289 23.0157 136.363 22.7135 136.51 22.4522C136.661 22.1867 136.865 21.9846 137.122 21.8457C137.38 21.7028 137.668 21.6313 137.986 21.6313C138.305 21.6313 138.593 21.7028 138.85 21.8457C139.107 21.9846 139.309 22.1847 139.456 22.446C139.607 22.7074 139.683 23.0116 139.683 23.3588C139.683 23.7059 139.605 24.0122 139.45 24.2776C139.299 24.539 139.093 24.7411 138.831 24.8841C138.57 25.027 138.28 25.0985 137.962 25.0985ZM137.962 24.6084C138.162 24.6084 138.35 24.5614 138.525 24.4675C138.701 24.3736 138.842 24.2327 138.948 24.0448C139.058 23.857 139.113 23.6283 139.113 23.3588C139.113 23.0892 139.06 22.8605 138.954 22.6727C138.848 22.4848 138.709 22.346 138.537 22.2561C138.366 22.1622 138.18 22.1153 137.98 22.1153C137.776 22.1153 137.588 22.1622 137.416 22.2561C137.249 22.346 137.114 22.4848 137.012 22.6727C136.91 22.8605 136.859 23.0892 136.859 23.3588C136.859 23.6324 136.908 23.8631 137.006 24.051C137.108 24.2388 137.243 24.3797 137.41 24.4736C137.578 24.5635 137.762 24.6084 137.962 24.6084ZM141.666 24.5288L142.707 21.6865H143.301L141.984 25.0433H141.335L140.018 21.6865H140.618L141.666 24.5288Z" fill="#959595"/>
<path d="M228.201 15.7281L227.584 15.1094L229.898 12.7934L227.584 10.4775L228.203 9.85876L230.516 12.1747C230.68 12.3388 230.772 12.5614 230.772 12.7934C230.772 13.0255 230.68 13.248 230.516 13.4121L228.201 15.7281Z" fill="#374957"/>
<path d="M93.2297 118.753V123.619H92.4316V120.286L90.9475 123.619H90.3944L88.9032 120.286V123.619H88.1051V118.753H88.9662L90.6744 122.568L92.3756 118.753H93.2297ZM95.9519 123.682C95.5878 123.682 95.2588 123.6 94.9648 123.437C94.6707 123.268 94.4397 123.035 94.2717 122.736C94.1037 122.433 94.0197 122.083 94.0197 121.686C94.0197 121.294 94.106 120.947 94.2787 120.643C94.4514 120.34 94.6871 120.106 94.9858 119.943C95.2845 119.78 95.6182 119.698 95.9869 119.698C96.3556 119.698 96.6893 119.78 96.988 119.943C97.2867 120.106 97.5224 120.34 97.6951 120.643C97.8678 120.947 97.9541 121.294 97.9541 121.686C97.9541 122.078 97.8654 122.426 97.6881 122.729C97.5107 123.033 97.268 123.268 96.96 123.437C96.6566 123.6 96.3206 123.682 95.9519 123.682ZM95.9519 122.988C96.1572 122.988 96.3486 122.939 96.5259 122.841C96.708 122.743 96.855 122.596 96.967 122.4C97.079 122.204 97.135 121.966 97.135 121.686C97.135 121.406 97.0813 121.171 96.974 120.979C96.8667 120.783 96.7243 120.636 96.5469 120.538C96.3696 120.44 96.1782 120.391 95.9729 120.391C95.7675 120.391 95.5762 120.44 95.3988 120.538C95.2261 120.636 95.0884 120.783 94.9858 120.979C94.8831 121.171 94.8318 121.406 94.8318 121.686C94.8318 122.102 94.9368 122.424 95.1468 122.652C95.3615 122.876 95.6298 122.988 95.9519 122.988ZM100.143 123.682C99.8399 123.682 99.5668 123.628 99.3241 123.521C99.0861 123.409 98.8971 123.259 98.7571 123.072C98.617 122.881 98.5424 122.669 98.533 122.435H99.3591C99.3731 122.599 99.4501 122.736 99.5902 122.848C99.7348 122.956 99.9145 123.009 100.129 123.009C100.353 123.009 100.526 122.967 100.647 122.883C100.773 122.795 100.836 122.683 100.836 122.547C100.836 122.403 100.766 122.295 100.626 122.225C100.491 122.155 100.274 122.078 99.9752 121.994C99.6858 121.915 99.4501 121.838 99.2681 121.763C99.0861 121.689 98.9274 121.574 98.7921 121.42C98.6614 121.266 98.596 121.063 98.596 120.811C98.596 120.606 98.6567 120.419 98.7781 120.251C98.8994 120.078 99.0721 119.943 99.2961 119.845C99.5248 119.747 99.7862 119.698 100.08 119.698C100.519 119.698 100.871 119.81 101.137 120.034C101.408 120.253 101.553 120.555 101.571 120.937H100.773C100.759 120.765 100.689 120.627 100.563 120.524C100.437 120.422 100.267 120.37 100.052 120.37C99.8422 120.37 99.6812 120.41 99.5692 120.489C99.4571 120.569 99.4011 120.674 99.4011 120.804C99.4011 120.907 99.4385 120.993 99.5132 121.063C99.5878 121.133 99.6788 121.189 99.7862 121.231C99.8935 121.269 100.052 121.318 100.262 121.378C100.542 121.453 100.771 121.53 100.948 121.609C101.13 121.684 101.287 121.796 101.417 121.945C101.548 122.095 101.616 122.293 101.62 122.54C101.62 122.76 101.56 122.956 101.438 123.128C101.317 123.301 101.144 123.437 100.92 123.535C100.701 123.633 100.442 123.682 100.143 123.682ZM103.414 120.412V122.547C103.414 122.692 103.447 122.797 103.512 122.862C103.582 122.923 103.699 122.953 103.862 122.953H104.352V123.619H103.722C103.363 123.619 103.087 123.535 102.896 123.367C102.704 123.198 102.609 122.925 102.609 122.547V120.412H102.154V119.761H102.609V118.802H103.414V119.761H104.352V120.412H103.414ZM105.886 120.321C106.002 120.125 106.156 119.973 106.348 119.866C106.544 119.754 106.775 119.698 107.041 119.698V120.524H106.838C106.525 120.524 106.287 120.604 106.124 120.762C105.965 120.921 105.886 121.196 105.886 121.588V123.619H105.088V119.761H105.886V120.321ZM107.508 121.672C107.508 121.285 107.588 120.942 107.746 120.643C107.91 120.344 108.129 120.113 108.404 119.95C108.684 119.782 108.993 119.698 109.329 119.698C109.632 119.698 109.896 119.759 110.12 119.88C110.348 119.997 110.53 120.144 110.666 120.321V119.761H111.471V123.619H110.666V123.044C110.53 123.226 110.346 123.378 110.113 123.5C109.879 123.621 109.613 123.682 109.315 123.682C108.983 123.682 108.68 123.598 108.404 123.43C108.129 123.257 107.91 123.019 107.746 122.715C107.588 122.407 107.508 122.06 107.508 121.672ZM110.666 121.686C110.666 121.42 110.61 121.189 110.498 120.993C110.39 120.797 110.248 120.648 110.071 120.545C109.893 120.443 109.702 120.391 109.497 120.391C109.291 120.391 109.1 120.443 108.922 120.545C108.745 120.643 108.6 120.79 108.488 120.986C108.381 121.178 108.327 121.406 108.327 121.672C108.327 121.938 108.381 122.172 108.488 122.372C108.6 122.573 108.745 122.727 108.922 122.834C109.105 122.937 109.296 122.988 109.497 122.988C109.702 122.988 109.893 122.937 110.071 122.834C110.248 122.732 110.39 122.582 110.498 122.386C110.61 122.186 110.666 121.952 110.666 121.686ZM113.317 120.321C113.434 120.125 113.588 119.973 113.779 119.866C113.975 119.754 114.206 119.698 114.472 119.698V120.524H114.269C113.957 120.524 113.719 120.604 113.555 120.762C113.396 120.921 113.317 121.196 113.317 121.588V123.619H112.519V119.761H113.317V120.321ZM121.694 119.698C121.997 119.698 122.268 119.761 122.506 119.887C122.749 120.013 122.938 120.2 123.073 120.447C123.213 120.695 123.283 120.993 123.283 121.343V123.619H122.492V121.462C122.492 121.117 122.406 120.853 122.233 120.671C122.06 120.485 121.825 120.391 121.526 120.391C121.227 120.391 120.989 120.485 120.812 120.671C120.639 120.853 120.553 121.117 120.553 121.462V123.619H119.762V121.462C119.762 121.117 119.675 120.853 119.503 120.671C119.33 120.485 119.094 120.391 118.796 120.391C118.497 120.391 118.259 120.485 118.082 120.671C117.909 120.853 117.823 121.117 117.823 121.462V123.619H117.024V119.761H117.823V120.202C117.953 120.043 118.119 119.92 118.32 119.831C118.52 119.742 118.735 119.698 118.964 119.698C119.272 119.698 119.547 119.763 119.79 119.894C120.032 120.025 120.219 120.214 120.35 120.461C120.466 120.228 120.649 120.043 120.896 119.908C121.143 119.768 121.409 119.698 121.694 119.698ZM124.033 121.672C124.033 121.285 124.112 120.942 124.271 120.643C124.434 120.344 124.653 120.113 124.929 119.95C125.209 119.782 125.517 119.698 125.853 119.698C126.156 119.698 126.42 119.759 126.644 119.88C126.873 119.997 127.055 120.144 127.19 120.321V119.761H127.995V123.619H127.19V123.044C127.055 123.226 126.87 123.378 126.637 123.5C126.404 123.621 126.138 123.682 125.839 123.682C125.508 123.682 125.204 123.598 124.929 123.43C124.653 123.257 124.434 123.019 124.271 122.715C124.112 122.407 124.033 122.06 124.033 121.672ZM127.19 121.686C127.19 121.42 127.134 121.189 127.022 120.993C126.915 120.797 126.772 120.648 126.595 120.545C126.418 120.443 126.226 120.391 126.021 120.391C125.816 120.391 125.624 120.443 125.447 120.545C125.269 120.643 125.125 120.79 125.013 120.986C124.905 121.178 124.852 121.406 124.852 121.672C124.852 121.938 124.905 122.172 125.013 122.372C125.125 122.573 125.269 122.727 125.447 122.834C125.629 122.937 125.82 122.988 126.021 122.988C126.226 122.988 126.418 122.937 126.595 122.834C126.772 122.732 126.915 122.582 127.022 122.386C127.134 122.186 127.19 121.952 127.19 121.686ZM126.868 118.725L125.321 119.488V118.9L126.868 118.046V118.725ZM130.444 123.682C130.14 123.682 129.867 123.628 129.624 123.521C129.386 123.409 129.197 123.259 129.057 123.072C128.917 122.881 128.843 122.669 128.833 122.435H129.659C129.673 122.599 129.75 122.736 129.89 122.848C130.035 122.956 130.215 123.009 130.43 123.009C130.654 123.009 130.826 122.967 130.948 122.883C131.074 122.795 131.137 122.683 131.137 122.547C131.137 122.403 131.067 122.295 130.927 122.225C130.791 122.155 130.574 122.078 130.276 121.994C129.986 121.915 129.75 121.838 129.568 121.763C129.386 121.689 129.228 121.574 129.092 121.42C128.962 121.266 128.896 121.063 128.896 120.811C128.896 120.606 128.957 120.419 129.078 120.251C129.2 120.078 129.372 119.943 129.596 119.845C129.825 119.747 130.087 119.698 130.381 119.698C130.819 119.698 131.172 119.81 131.438 120.034C131.708 120.253 131.853 120.555 131.872 120.937H131.074C131.06 120.765 130.99 120.627 130.864 120.524C130.738 120.422 130.567 120.37 130.353 120.37C130.143 120.37 129.981 120.41 129.869 120.489C129.757 120.569 129.701 120.674 129.701 120.804C129.701 120.907 129.739 120.993 129.813 121.063C129.888 121.133 129.979 121.189 130.087 121.231C130.194 121.269 130.353 121.318 130.563 121.378C130.843 121.453 131.071 121.53 131.249 121.609C131.431 121.684 131.587 121.796 131.718 121.945C131.848 122.095 131.916 122.293 131.921 122.54C131.921 122.76 131.86 122.956 131.739 123.128C131.617 123.301 131.445 123.437 131.221 123.535C131.001 123.633 130.742 123.682 130.444 123.682ZM136.597 119.698C136.891 119.698 137.152 119.761 137.381 119.887C137.614 120.013 137.796 120.2 137.927 120.447C138.062 120.695 138.13 120.993 138.13 121.343V123.619H137.339V121.462C137.339 121.117 137.253 120.853 137.08 120.671C136.907 120.485 136.672 120.391 136.373 120.391C136.074 120.391 135.836 120.485 135.659 120.671C135.486 120.853 135.4 121.117 135.4 121.462V123.619H134.602V118.438H135.4V120.209C135.535 120.046 135.705 119.92 135.911 119.831C136.121 119.742 136.349 119.698 136.597 119.698ZM140.821 123.682C140.457 123.682 140.128 123.6 139.834 123.437C139.54 123.268 139.309 123.035 139.141 122.736C138.973 122.433 138.889 122.083 138.889 121.686C138.889 121.294 138.975 120.947 139.148 120.643C139.321 120.34 139.556 120.106 139.855 119.943C140.154 119.78 140.488 119.698 140.856 119.698C141.225 119.698 141.559 119.78 141.857 119.943C142.156 120.106 142.392 120.34 142.564 120.643C142.737 120.947 142.823 121.294 142.823 121.686C142.823 122.078 142.735 122.426 142.557 122.729C142.38 123.033 142.137 123.268 141.829 123.437C141.526 123.6 141.19 123.682 140.821 123.682ZM140.821 122.988C141.027 122.988 141.218 122.939 141.395 122.841C141.577 122.743 141.724 122.596 141.836 122.4C141.948 122.204 142.004 121.966 142.004 121.686C142.004 121.406 141.951 121.171 141.843 120.979C141.736 120.783 141.594 120.636 141.416 120.538C141.239 120.44 141.048 120.391 140.842 120.391C140.637 120.391 140.446 120.44 140.268 120.538C140.095 120.636 139.958 120.783 139.855 120.979C139.752 121.171 139.701 121.406 139.701 121.686C139.701 122.102 139.806 122.424 140.016 122.652C140.231 122.876 140.499 122.988 140.821 122.988ZM144.411 120.321C144.527 120.125 144.681 119.973 144.873 119.866C145.069 119.754 145.3 119.698 145.566 119.698V120.524H145.363C145.05 120.524 144.812 120.604 144.649 120.762C144.49 120.921 144.411 121.196 144.411 121.588V123.619H143.612V119.761H144.411V120.321ZM146.033 121.672C146.033 121.285 146.113 120.942 146.271 120.643C146.435 120.344 146.654 120.113 146.929 119.95C147.209 119.782 147.517 119.698 147.853 119.698C148.157 119.698 148.42 119.759 148.645 119.88C148.873 119.997 149.055 120.144 149.191 120.321V119.761H149.996V123.619H149.191V123.044C149.055 123.226 148.871 123.378 148.638 123.5C148.404 123.621 148.138 123.682 147.839 123.682C147.508 123.682 147.205 123.598 146.929 123.43C146.654 123.257 146.435 123.019 146.271 122.715C146.113 122.407 146.033 122.06 146.033 121.672ZM149.191 121.686C149.191 121.42 149.135 121.189 149.023 120.993C148.915 120.797 148.773 120.648 148.596 120.545C148.418 120.443 148.227 120.391 148.021 120.391C147.816 120.391 147.625 120.443 147.447 120.545C147.27 120.643 147.125 120.79 147.013 120.986C146.906 121.178 146.852 121.406 146.852 121.672C146.852 121.938 146.906 122.172 147.013 122.372C147.125 122.573 147.27 122.727 147.447 122.834C147.629 122.937 147.821 122.988 148.021 122.988C148.227 122.988 148.418 122.937 148.596 122.834C148.773 122.732 148.915 122.582 149.023 122.386C149.135 122.186 149.191 121.952 149.191 121.686ZM152.444 123.682C152.141 123.682 151.868 123.628 151.625 123.521C151.387 123.409 151.198 123.259 151.058 123.072C150.918 122.881 150.843 122.669 150.834 122.435H151.66C151.674 122.599 151.751 122.736 151.891 122.848C152.036 122.956 152.215 123.009 152.43 123.009C152.654 123.009 152.827 122.967 152.948 122.883C153.074 122.795 153.137 122.683 153.137 122.547C153.137 122.403 153.067 122.295 152.927 122.225C152.792 122.155 152.575 122.078 152.276 121.994C151.987 121.915 151.751 121.838 151.569 121.763C151.387 121.689 151.228 121.574 151.093 121.42C150.962 121.266 150.897 121.063 150.897 120.811C150.897 120.606 150.958 120.419 151.079 120.251C151.2 120.078 151.373 119.943 151.597 119.845C151.826 119.747 152.087 119.698 152.381 119.698C152.82 119.698 153.172 119.81 153.438 120.034C153.709 120.253 153.854 120.555 153.872 120.937H153.074C153.06 120.765 152.99 120.627 152.864 120.524C152.738 120.422 152.568 120.37 152.353 120.37C152.143 120.37 151.982 120.41 151.87 120.489C151.758 120.569 151.702 120.674 151.702 120.804C151.702 120.907 151.739 120.993 151.814 121.063C151.889 121.133 151.98 121.189 152.087 121.231C152.194 121.269 152.353 121.318 152.563 121.378C152.843 121.453 153.072 121.53 153.249 121.609C153.431 121.684 153.588 121.796 153.718 121.945C153.849 122.095 153.917 122.293 153.921 122.54C153.921 122.76 153.861 122.956 153.739 123.128C153.618 123.301 153.445 123.437 153.221 123.535C153.002 123.633 152.743 123.682 152.444 123.682Z" fill="#959595"/>
<path d="M87.5801 124.319H154.257V124.669H87.5801V124.319Z" fill="#959595"/>
<rect x="42.1641" y="30.7341" width="24.9403" height="14.0016" rx="2.18775" fill="#D5D6FF"/>
<path d="M45.9498 35.8595V35.1314H47.406V40.235H46.6009V35.8595H45.9498ZM51.2467 36.3145C51.1953 36.0998 51.102 35.9388 50.9666 35.8315C50.8313 35.7241 50.6423 35.6705 50.3996 35.6705C50.0309 35.6705 49.7555 35.8128 49.5735 36.0975C49.3915 36.3775 49.2958 36.8443 49.2864 37.4977C49.4078 37.2923 49.5851 37.1336 49.8185 37.0216C50.0519 36.9096 50.3039 36.8536 50.5746 36.8536C50.8826 36.8536 51.1533 36.9213 51.3867 37.0566C51.6247 37.1873 51.8091 37.3787 51.9397 37.6307C52.0751 37.8827 52.1428 38.1838 52.1428 38.5338C52.1428 38.8605 52.0774 39.1522 51.9467 39.4089C51.8207 39.6656 51.6317 39.8686 51.3797 40.018C51.1277 40.1626 50.8243 40.235 50.4696 40.235C49.9889 40.235 49.6108 40.13 49.3355 39.9199C49.0648 39.7053 48.8734 39.4042 48.7614 39.0168C48.654 38.6295 48.6004 38.1464 48.6004 37.5677C48.6004 35.8595 49.2024 35.0054 50.4066 35.0054C50.8733 35.0054 51.2397 35.1314 51.5057 35.3834C51.7764 35.6355 51.9351 35.9458 51.9818 36.3145H51.2467ZM50.3996 37.5257C50.1149 37.5257 49.8722 37.612 49.6715 37.7847C49.4755 37.9527 49.3775 38.1978 49.3775 38.5198C49.3775 38.8418 49.4685 39.0985 49.6505 39.2899C49.8372 39.4766 50.0962 39.5699 50.4276 39.5699C50.7216 39.5699 50.9526 39.4789 51.1207 39.2969C51.2933 39.1149 51.3797 38.8722 51.3797 38.5688C51.3797 38.2514 51.2957 37.9994 51.1277 37.8127C50.9643 37.6214 50.7216 37.5257 50.3996 37.5257ZM53.4211 40.284C53.2764 40.284 53.1551 40.235 53.0571 40.137C52.9591 40.039 52.9101 39.9176 52.9101 39.7729C52.9101 39.6282 52.9591 39.5069 53.0571 39.4089C53.1551 39.3109 53.2764 39.2619 53.4211 39.2619C53.5611 39.2619 53.6802 39.3109 53.7782 39.4089C53.8762 39.5069 53.9252 39.6282 53.9252 39.7729C53.9252 39.9176 53.8762 40.039 53.7782 40.137C53.6802 40.235 53.5611 40.284 53.4211 40.284ZM53.4211 37.3437C53.2764 37.3437 53.1551 37.2947 53.0571 37.1966C52.9591 37.0986 52.9101 36.9773 52.9101 36.8326C52.9101 36.6879 52.9591 36.5666 53.0571 36.4686C53.1551 36.3705 53.2764 36.3215 53.4211 36.3215C53.5611 36.3215 53.6802 36.3705 53.7782 36.4686C53.8762 36.5666 53.9252 36.6879 53.9252 36.8326C53.9252 36.9773 53.8762 37.0986 53.7782 37.1966C53.6802 37.2947 53.5611 37.3437 53.4211 37.3437ZM54.7101 37.6167C54.7101 36.8093 54.8454 36.1792 55.1161 35.7265C55.3915 35.2691 55.8629 35.0404 56.5303 35.0404C57.1977 35.0404 57.6668 35.2691 57.9375 35.7265C58.2128 36.1792 58.3505 36.8093 58.3505 37.6167C58.3505 38.4334 58.2128 39.0729 57.9375 39.5349C57.6668 39.9923 57.1977 40.221 56.5303 40.221C55.8629 40.221 55.3915 39.9923 55.1161 39.5349C54.8454 39.0729 54.7101 38.4334 54.7101 37.6167ZM57.5664 37.6167C57.5664 37.2386 57.5407 36.9189 57.4894 36.6576C57.4427 36.3962 57.3447 36.1839 57.1954 36.0205C57.046 35.8525 56.8243 35.7685 56.5303 35.7685C56.2363 35.7685 56.0146 35.8525 55.8652 36.0205C55.7159 36.1839 55.6155 36.3962 55.5642 36.6576C55.5175 36.9189 55.4942 37.2386 55.4942 37.6167C55.4942 38.0087 55.5175 38.3378 55.5642 38.6038C55.6109 38.8698 55.7089 39.0845 55.8582 39.2479C56.0122 39.4112 56.2363 39.4929 56.5303 39.4929C56.8243 39.4929 57.046 39.4112 57.1954 39.2479C57.3494 39.0845 57.4497 38.8698 57.4964 38.6038C57.5431 38.3378 57.5664 38.0087 57.5664 37.6167ZM59.195 37.6167C59.195 36.8093 59.3303 36.1792 59.601 35.7265C59.8764 35.2691 60.3478 35.0404 61.0152 35.0404C61.6826 35.0404 62.1516 35.2691 62.4223 35.7265C62.6977 36.1792 62.8354 36.8093 62.8354 37.6167C62.8354 38.4334 62.6977 39.0729 62.4223 39.5349C62.1516 39.9923 61.6826 40.221 61.0152 40.221C60.3478 40.221 59.8764 39.9923 59.601 39.5349C59.3303 39.0729 59.195 38.4334 59.195 37.6167ZM62.0513 37.6167C62.0513 37.2386 62.0256 36.9189 61.9743 36.6576C61.9276 36.3962 61.8296 36.1839 61.6803 36.0205C61.5309 35.8525 61.3092 35.7685 61.0152 35.7685C60.7212 35.7685 60.4995 35.8525 60.3501 36.0205C60.2008 36.1839 60.1004 36.3962 60.0491 36.6576C60.0024 36.9189 59.9791 37.2386 59.9791 37.6167C59.9791 38.0087 60.0024 38.3378 60.0491 38.6038C60.0957 38.8698 60.1938 39.0845 60.3431 39.2479C60.4971 39.4112 60.7212 39.4929 61.0152 39.4929C61.3092 39.4929 61.5309 39.4112 61.6803 39.2479C61.8343 39.0845 61.9346 38.8698 61.9813 38.6038C62.028 38.3378 62.0513 38.0087 62.0513 37.6167Z" fill="black"/>
<rect x="81.5449" y="30.7341" width="24.9403" height="14.0016" rx="2.18775" fill="#D5D6FF"/>
<path d="M85.3307 35.8595V35.1314H86.7868V40.235H85.9817V35.8595H85.3307ZM87.8832 37.6167C87.8832 36.8093 88.0186 36.1792 88.2893 35.7265C88.5646 35.2691 89.036 35.0404 89.7034 35.0404C90.3708 35.0404 90.8399 35.2691 91.1106 35.7265C91.3859 36.1792 91.5236 36.8093 91.5236 37.6167C91.5236 38.4334 91.3859 39.0729 91.1106 39.5349C90.8399 39.9923 90.3708 40.221 89.7034 40.221C89.036 40.221 88.5646 39.9923 88.2893 39.5349C88.0186 39.0729 87.8832 38.4334 87.8832 37.6167ZM90.7395 37.6167C90.7395 37.2386 90.7139 36.9189 90.6625 36.6576C90.6159 36.3962 90.5178 36.1839 90.3685 36.0205C90.2191 35.8525 89.9975 35.7685 89.7034 35.7685C89.4094 35.7685 89.1877 35.8525 89.0383 36.0205C88.889 36.1839 88.7887 36.3962 88.7373 36.6576C88.6906 36.9189 88.6673 37.2386 88.6673 37.6167C88.6673 38.0087 88.6906 38.3378 88.7373 38.6038C88.784 38.8698 88.882 39.0845 89.0313 39.2479C89.1854 39.4112 89.4094 39.4929 89.7034 39.4929C89.9975 39.4929 90.2191 39.4112 90.3685 39.2479C90.5225 39.0845 90.6229 38.8698 90.6695 38.6038C90.7162 38.3378 90.7395 38.0087 90.7395 37.6167ZM92.7951 40.284C92.6505 40.284 92.5291 40.235 92.4311 40.137C92.3331 40.039 92.2841 39.9176 92.2841 39.7729C92.2841 39.6282 92.3331 39.5069 92.4311 39.4089C92.5291 39.3109 92.6505 39.2619 92.7951 39.2619C92.9352 39.2619 93.0542 39.3109 93.1522 39.4089C93.2502 39.5069 93.2992 39.6282 93.2992 39.7729C93.2992 39.9176 93.2502 40.039 93.1522 40.137C93.0542 40.235 92.9352 40.284 92.7951 40.284ZM92.7951 37.3437C92.6505 37.3437 92.5291 37.2947 92.4311 37.1966C92.3331 37.0986 92.2841 36.9773 92.2841 36.8326C92.2841 36.6879 92.3331 36.5666 92.4311 36.4686C92.5291 36.3705 92.6505 36.3215 92.7951 36.3215C92.9352 36.3215 93.0542 36.3705 93.1522 36.4686C93.2502 36.5666 93.2992 36.6879 93.2992 36.8326C93.2992 36.9773 93.2502 37.0986 93.1522 37.1966C93.0542 37.2947 92.9352 37.3437 92.7951 37.3437ZM94.0841 37.6167C94.0841 36.8093 94.2195 36.1792 94.4902 35.7265C94.7655 35.2691 95.2369 35.0404 95.9043 35.0404C96.5717 35.0404 97.0408 35.2691 97.3115 35.7265C97.5868 36.1792 97.7245 36.8093 97.7245 37.6167C97.7245 38.4334 97.5868 39.0729 97.3115 39.5349C97.0408 39.9923 96.5717 40.221 95.9043 40.221C95.2369 40.221 94.7655 39.9923 94.4902 39.5349C94.2195 39.0729 94.0841 38.4334 94.0841 37.6167ZM96.9404 37.6167C96.9404 37.2386 96.9148 36.9189 96.8634 36.6576C96.8168 36.3962 96.7187 36.1839 96.5694 36.0205C96.42 35.8525 96.1984 35.7685 95.9043 35.7685C95.6103 35.7685 95.3886 35.8525 95.2392 36.0205C95.0899 36.1839 94.9896 36.3962 94.9382 36.6576C94.8915 36.9189 94.8682 37.2386 94.8682 37.6167C94.8682 38.0087 94.8915 38.3378 94.9382 38.6038C94.9849 38.8698 95.0829 39.0845 95.2322 39.2479C95.3863 39.4112 95.6103 39.4929 95.9043 39.4929C96.1984 39.4929 96.42 39.4112 96.5694 39.2479C96.7234 39.0845 96.8238 38.8698 96.8704 38.6038C96.9171 38.3378 96.9404 38.0087 96.9404 37.6167ZM98.569 37.6167C98.569 36.8093 98.7043 36.1792 98.975 35.7265C99.2504 35.2691 99.7218 35.0404 100.389 35.0404C101.057 35.0404 101.526 35.2691 101.796 35.7265C102.072 36.1792 102.209 36.8093 102.209 37.6167C102.209 38.4334 102.072 39.0729 101.796 39.5349C101.526 39.9923 101.057 40.221 100.389 40.221C99.7218 40.221 99.2504 39.9923 98.975 39.5349C98.7043 39.0729 98.569 38.4334 98.569 37.6167ZM101.425 37.6167C101.425 37.2386 101.4 36.9189 101.348 36.6576C101.302 36.3962 101.204 36.1839 101.054 36.0205C100.905 35.8525 100.683 35.7685 100.389 35.7685C100.095 35.7685 99.8735 35.8525 99.7241 36.0205C99.5748 36.1839 99.4744 36.3962 99.4231 36.6576C99.3764 36.9189 99.3531 37.2386 99.3531 37.6167C99.3531 38.0087 99.3764 38.3378 99.4231 38.6038C99.4698 38.8698 99.5678 39.0845 99.7171 39.2479C99.8711 39.4112 100.095 39.4929 100.389 39.4929C100.683 39.4929 100.905 39.4112 101.054 39.2479C101.208 39.0845 101.309 38.8698 101.355 38.6038C101.402 38.3378 101.425 38.0087 101.425 37.6167Z" fill="black"/>
<rect x="157.746" y="30.7341" width="24.9403" height="14.0016" rx="2.18775" fill="#D5D6FF"/>
<path d="M161.532 35.8595V35.1314H162.988V40.235H162.183V35.8595H161.532ZM164.084 37.6167C164.084 36.8093 164.22 36.1792 164.49 35.7265C164.766 35.2691 165.237 35.0404 165.905 35.0404C166.572 35.0404 167.041 35.2691 167.312 35.7265C167.587 36.1792 167.725 36.8093 167.725 37.6167C167.725 38.4334 167.587 39.0729 167.312 39.5349C167.041 39.9923 166.572 40.221 165.905 40.221C165.237 40.221 164.766 39.9923 164.49 39.5349C164.22 39.0729 164.084 38.4334 164.084 37.6167ZM166.941 37.6167C166.941 37.2386 166.915 36.9189 166.864 36.6576C166.817 36.3962 166.719 36.1839 166.57 36.0205C166.42 35.8525 166.199 35.7685 165.905 35.7685C165.611 35.7685 165.389 35.8525 165.24 36.0205C165.09 36.1839 164.99 36.3962 164.938 36.6576C164.892 36.9189 164.868 37.2386 164.868 37.6167C164.868 38.0087 164.892 38.3378 164.938 38.6038C164.985 38.8698 165.083 39.0845 165.233 39.2479C165.387 39.4112 165.611 39.4929 165.905 39.4929C166.199 39.4929 166.42 39.4112 166.57 39.2479C166.724 39.0845 166.824 38.8698 166.871 38.6038C166.917 38.3378 166.941 38.0087 166.941 37.6167ZM168.996 40.284C168.852 40.284 168.73 40.235 168.632 40.137C168.534 40.039 168.485 39.9176 168.485 39.7729C168.485 39.6282 168.534 39.5069 168.632 39.4089C168.73 39.3109 168.852 39.2619 168.996 39.2619C169.136 39.2619 169.255 39.3109 169.353 39.4089C169.451 39.5069 169.5 39.6282 169.5 39.7729C169.5 39.9176 169.451 40.039 169.353 40.137C169.255 40.235 169.136 40.284 168.996 40.284ZM168.996 37.3437C168.852 37.3437 168.73 37.2947 168.632 37.1966C168.534 37.0986 168.485 36.9773 168.485 36.8326C168.485 36.6879 168.534 36.5666 168.632 36.4686C168.73 36.3705 168.852 36.3215 168.996 36.3215C169.136 36.3215 169.255 36.3705 169.353 36.4686C169.451 36.5666 169.5 36.6879 169.5 36.8326C169.5 36.9773 169.451 37.0986 169.353 37.1966C169.255 37.2947 169.136 37.3437 168.996 37.3437ZM170.285 37.6167C170.285 36.8093 170.421 36.1792 170.691 35.7265C170.967 35.2691 171.438 35.0404 172.105 35.0404C172.773 35.0404 173.242 35.2691 173.513 35.7265C173.788 36.1792 173.926 36.8093 173.926 37.6167C173.926 38.4334 173.788 39.0729 173.513 39.5349C173.242 39.9923 172.773 40.221 172.105 40.221C171.438 40.221 170.967 39.9923 170.691 39.5349C170.421 39.0729 170.285 38.4334 170.285 37.6167ZM173.142 37.6167C173.142 37.2386 173.116 36.9189 173.065 36.6576C173.018 36.3962 172.92 36.1839 172.771 36.0205C172.621 35.8525 172.4 35.7685 172.105 35.7685C171.811 35.7685 171.59 35.8525 171.44 36.0205C171.291 36.1839 171.191 36.3962 171.139 36.6576C171.093 36.9189 171.069 37.2386 171.069 37.6167C171.069 38.0087 171.093 38.3378 171.139 38.6038C171.186 38.8698 171.284 39.0845 171.433 39.2479C171.587 39.4112 171.811 39.4929 172.105 39.4929C172.4 39.4929 172.621 39.4112 172.771 39.2479C172.925 39.0845 173.025 38.8698 173.072 38.6038C173.118 38.3378 173.142 38.0087 173.142 37.6167ZM174.77 37.6167C174.77 36.8093 174.906 36.1792 175.176 35.7265C175.452 35.2691 175.923 35.0404 176.59 35.0404C177.258 35.0404 177.727 35.2691 177.998 35.7265C178.273 36.1792 178.411 36.8093 178.411 37.6167C178.411 38.4334 178.273 39.0729 177.998 39.5349C177.727 39.9923 177.258 40.221 176.59 40.221C175.923 40.221 175.452 39.9923 175.176 39.5349C174.906 39.0729 174.77 38.4334 174.77 37.6167ZM177.626 37.6167C177.626 37.2386 177.601 36.9189 177.549 36.6576C177.503 36.3962 177.405 36.1839 177.255 36.0205C177.106 35.8525 176.884 35.7685 176.59 35.7685C176.296 35.7685 176.075 35.8525 175.925 36.0205C175.776 36.1839 175.676 36.3962 175.624 36.6576C175.578 36.9189 175.554 37.2386 175.554 37.6167C175.554 38.0087 175.578 38.3378 175.624 38.6038C175.671 38.8698 175.769 39.0845 175.918 39.2479C176.072 39.4112 176.296 39.4929 176.59 39.4929C176.884 39.4929 177.106 39.4112 177.255 39.2479C177.409 39.0845 177.51 38.8698 177.556 38.6038C177.603 38.3378 177.626 38.0087 177.626 37.6167Z" fill="black"/>
<rect x="197.27" y="30.7341" width="24.9403" height="14.0016" rx="2.18775" fill="#D5D6FF"/>
<path d="M201.055 35.8595V35.1314H202.511V40.235H201.706V35.8595H201.055ZM203.608 37.6167C203.608 36.8093 203.743 36.1792 204.014 35.7265C204.289 35.2691 204.761 35.0404 205.428 35.0404C206.095 35.0404 206.564 35.2691 206.835 35.7265C207.111 36.1792 207.248 36.8093 207.248 37.6167C207.248 38.4334 207.111 39.0729 206.835 39.5349C206.564 39.9923 206.095 40.221 205.428 40.221C204.761 40.221 204.289 39.9923 204.014 39.5349C203.743 39.0729 203.608 38.4334 203.608 37.6167ZM206.464 37.6167C206.464 37.2386 206.438 36.9189 206.387 36.6576C206.34 36.3962 206.242 36.1839 206.093 36.0205C205.944 35.8525 205.722 35.7685 205.428 35.7685C205.134 35.7685 204.912 35.8525 204.763 36.0205C204.614 36.1839 204.513 36.3962 204.462 36.6576C204.415 36.9189 204.392 37.2386 204.392 37.6167C204.392 38.0087 204.415 38.3378 204.462 38.6038C204.509 38.8698 204.607 39.0845 204.756 39.2479C204.91 39.4112 205.134 39.4929 205.428 39.4929C205.722 39.4929 205.944 39.4112 206.093 39.2479C206.247 39.0845 206.347 38.8698 206.394 38.6038C206.441 38.3378 206.464 38.0087 206.464 37.6167ZM208.52 40.284C208.375 40.284 208.254 40.235 208.156 40.137C208.058 40.039 208.009 39.9176 208.009 39.7729C208.009 39.6282 208.058 39.5069 208.156 39.4089C208.254 39.3109 208.375 39.2619 208.52 39.2619C208.66 39.2619 208.779 39.3109 208.877 39.4089C208.975 39.5069 209.024 39.6282 209.024 39.7729C209.024 39.9176 208.975 40.039 208.877 40.137C208.779 40.235 208.66 40.284 208.52 40.284ZM208.52 37.3437C208.375 37.3437 208.254 37.2947 208.156 37.1966C208.058 37.0986 208.009 36.9773 208.009 36.8326C208.009 36.6879 208.058 36.5666 208.156 36.4686C208.254 36.3705 208.375 36.3215 208.52 36.3215C208.66 36.3215 208.779 36.3705 208.877 36.4686C208.975 36.5666 209.024 36.6879 209.024 36.8326C209.024 36.9773 208.975 37.0986 208.877 37.1966C208.779 37.2947 208.66 37.3437 208.52 37.3437ZM209.809 37.6167C209.809 36.8093 209.944 36.1792 210.215 35.7265C210.49 35.2691 210.962 35.0404 211.629 35.0404C212.296 35.0404 212.765 35.2691 213.036 35.7265C213.311 36.1792 213.449 36.8093 213.449 37.6167C213.449 38.4334 213.311 39.0729 213.036 39.5349C212.765 39.9923 212.296 40.221 211.629 40.221C210.962 40.221 210.49 39.9923 210.215 39.5349C209.944 39.0729 209.809 38.4334 209.809 37.6167ZM212.665 37.6167C212.665 37.2386 212.639 36.9189 212.588 36.6576C212.541 36.3962 212.443 36.1839 212.294 36.0205C212.145 35.8525 211.923 35.7685 211.629 35.7685C211.335 35.7685 211.113 35.8525 210.964 36.0205C210.815 36.1839 210.714 36.3962 210.663 36.6576C210.616 36.9189 210.593 37.2386 210.593 37.6167C210.593 38.0087 210.616 38.3378 210.663 38.6038C210.709 38.8698 210.808 39.0845 210.957 39.2479C211.111 39.4112 211.335 39.4929 211.629 39.4929C211.923 39.4929 212.145 39.4112 212.294 39.2479C212.448 39.0845 212.548 38.8698 212.595 38.6038C212.642 38.3378 212.665 38.0087 212.665 37.6167ZM214.294 37.6167C214.294 36.8093 214.429 36.1792 214.7 35.7265C214.975 35.2691 215.446 35.0404 216.114 35.0404C216.781 35.0404 217.25 35.2691 217.521 35.7265C217.796 36.1792 217.934 36.8093 217.934 37.6167C217.934 38.4334 217.796 39.0729 217.521 39.5349C217.25 39.9923 216.781 40.221 216.114 40.221C215.446 40.221 214.975 39.9923 214.7 39.5349C214.429 39.0729 214.294 38.4334 214.294 37.6167ZM217.15 37.6167C217.15 37.2386 217.124 36.9189 217.073 36.6576C217.026 36.3962 216.928 36.1839 216.779 36.0205C216.63 35.8525 216.408 35.7685 216.114 35.7685C215.82 35.7685 215.598 35.8525 215.449 36.0205C215.299 36.1839 215.199 36.3962 215.148 36.6576C215.101 36.9189 215.078 37.2386 215.078 37.6167C215.078 38.0087 215.101 38.3378 215.148 38.6038C215.194 38.8698 215.292 39.0845 215.442 39.2479C215.596 39.4112 215.82 39.4929 216.114 39.4929C216.408 39.4929 216.63 39.4112 216.779 39.2479C216.933 39.0845 217.033 38.8698 217.08 38.6038C217.127 38.3378 217.15 38.0087 217.15 37.6167Z" fill="black"/>
<rect x="4.53516" y="30.7341" width="24.9403" height="14.0016" rx="2.18775" fill="white"/>
<path d="M17.9923 37.3647V38.0367H15.1149V37.3647H17.9923Z" fill="black"/>
<rect x="120.924" y="30.7341" width="24.9403" height="14.0016" rx="2.18775" fill="white"/>
<path d="M134.381 37.3647V38.0367H131.504V37.3647H134.381Z" fill="black"/>
<rect x="81.5449" y="49.9875" width="24.9403" height="14.0016" rx="2.18775" fill="#D5D6FF"/>
<path d="M85.3307 55.1129V54.3848H86.7868V59.4884H85.9817V55.1129H85.3307ZM87.8832 56.8701C87.8832 56.0627 88.0186 55.4326 88.2893 54.9799C88.5646 54.5225 89.036 54.2938 89.7034 54.2938C90.3708 54.2938 90.8399 54.5225 91.1106 54.9799C91.3859 55.4326 91.5236 56.0627 91.5236 56.8701C91.5236 57.6869 91.3859 58.3263 91.1106 58.7883C90.8399 59.2457 90.3708 59.4744 89.7034 59.4744C89.036 59.4744 88.5646 59.2457 88.2893 58.7883C88.0186 58.3263 87.8832 57.6869 87.8832 56.8701ZM90.7395 56.8701C90.7395 56.4921 90.7139 56.1724 90.6625 55.911C90.6159 55.6496 90.5178 55.4373 90.3685 55.2739C90.2191 55.1059 89.9975 55.0219 89.7034 55.0219C89.4094 55.0219 89.1877 55.1059 89.0383 55.2739C88.889 55.4373 88.7887 55.6496 88.7373 55.911C88.6906 56.1724 88.6673 56.4921 88.6673 56.8701C88.6673 57.2622 88.6906 57.5912 88.7373 57.8572C88.784 58.1232 88.882 58.3379 89.0313 58.5013C89.1854 58.6646 89.4094 58.7463 89.7034 58.7463C89.9975 58.7463 90.2191 58.6646 90.3685 58.5013C90.5225 58.3379 90.6229 58.1232 90.6695 57.8572C90.7162 57.5912 90.7395 57.2622 90.7395 56.8701ZM92.7951 59.5374C92.6505 59.5374 92.5291 59.4884 92.4311 59.3904C92.3331 59.2924 92.2841 59.171 92.2841 59.0264C92.2841 58.8817 92.3331 58.7603 92.4311 58.6623C92.5291 58.5643 92.6505 58.5153 92.7951 58.5153C92.9352 58.5153 93.0542 58.5643 93.1522 58.6623C93.2502 58.7603 93.2992 58.8817 93.2992 59.0264C93.2992 59.171 93.2502 59.2924 93.1522 59.3904C93.0542 59.4884 92.9352 59.5374 92.7951 59.5374ZM92.7951 56.5971C92.6505 56.5971 92.5291 56.5481 92.4311 56.4501C92.3331 56.352 92.2841 56.2307 92.2841 56.086C92.2841 55.9413 92.3331 55.82 92.4311 55.722C92.5291 55.624 92.6505 55.575 92.7951 55.575C92.9352 55.575 93.0542 55.624 93.1522 55.722C93.2502 55.82 93.2992 55.9413 93.2992 56.086C93.2992 56.2307 93.2502 56.352 93.1522 56.4501C93.0542 56.5481 92.9352 56.5971 92.7951 56.5971ZM94.0701 55.645C94.0981 55.2109 94.2638 54.8725 94.5672 54.6299C94.8752 54.3872 95.2673 54.2658 95.7433 54.2658C96.07 54.2658 96.3524 54.3242 96.5904 54.4408C96.8284 54.5575 97.0081 54.7162 97.1295 54.9169C97.2508 55.1176 97.3115 55.3439 97.3115 55.596C97.3115 55.8853 97.2345 56.1327 97.0805 56.338C96.9264 56.5434 96.7421 56.6811 96.5274 56.7511V56.7791C96.8028 56.8631 97.0174 57.0171 97.1715 57.2411C97.3255 57.4605 97.4025 57.7429 97.4025 58.0882C97.4025 58.3636 97.3395 58.6086 97.2135 58.8233C97.0875 59.038 96.9008 59.2084 96.6534 59.3344C96.406 59.4557 96.1097 59.5164 95.7643 59.5164C95.2602 59.5164 94.8449 59.3881 94.5182 59.1314C94.1961 58.87 94.0234 58.4966 94.0001 58.0112H94.7702C94.7889 58.2586 94.8845 58.4616 95.0572 58.6203C95.2299 58.7743 95.4633 58.8513 95.7573 58.8513C96.042 58.8513 96.2614 58.7743 96.4154 58.6203C96.5694 58.4616 96.6464 58.2586 96.6464 58.0112C96.6464 57.6845 96.5414 57.4535 96.3314 57.3182C96.126 57.1781 95.8086 57.1081 95.3793 57.1081H95.1972V56.4501H95.3863C95.7643 56.4454 96.0513 56.3824 96.2474 56.261C96.4481 56.1397 96.5484 55.9483 96.5484 55.687C96.5484 55.4629 96.4761 55.2856 96.3314 55.1549C96.1867 55.0196 95.9813 54.9519 95.7153 54.9519C95.4539 54.9519 95.2509 55.0196 95.1062 55.1549C94.9615 55.2856 94.8752 55.4489 94.8472 55.645H94.0701ZM98.2408 56.8701C98.2408 56.0627 98.3762 55.4326 98.6469 54.9799C98.9222 54.5225 99.3936 54.2938 100.061 54.2938C100.728 54.2938 101.198 54.5225 101.468 54.9799C101.744 55.4326 101.881 56.0627 101.881 56.8701C101.881 57.6869 101.744 58.3263 101.468 58.7883C101.198 59.2457 100.728 59.4744 100.061 59.4744C99.3936 59.4744 98.9222 59.2457 98.6469 58.7883C98.3762 58.3263 98.2408 57.6869 98.2408 56.8701ZM101.097 56.8701C101.097 56.4921 101.071 56.1724 101.02 55.911C100.973 55.6496 100.875 55.4373 100.726 55.2739C100.577 55.1059 100.355 55.0219 100.061 55.0219C99.767 55.0219 99.5453 55.1059 99.396 55.2739C99.2466 55.4373 99.1463 55.6496 99.0949 55.911C99.0483 56.1724 99.0249 56.4921 99.0249 56.8701C99.0249 57.2622 99.0483 57.5912 99.0949 57.8572C99.1416 58.1232 99.2396 58.3379 99.389 58.5013C99.543 58.6646 99.767 58.7463 100.061 58.7463C100.355 58.7463 100.577 58.6646 100.726 58.5013C100.88 58.3379 100.98 58.1232 101.027 57.8572C101.074 57.5912 101.097 57.2622 101.097 56.8701Z" fill="black"/>
<rect x="157.746" y="49.9875" width="24.9403" height="14.0016" rx="2.18775" fill="#D5D6FF"/>
<path d="M161.532 55.1129V54.3848H162.988V59.4884H162.183V55.1129H161.532ZM164.084 56.8701C164.084 56.0627 164.22 55.4326 164.49 54.9799C164.766 54.5225 165.237 54.2938 165.905 54.2938C166.572 54.2938 167.041 54.5225 167.312 54.9799C167.587 55.4326 167.725 56.0627 167.725 56.8701C167.725 57.6869 167.587 58.3263 167.312 58.7883C167.041 59.2457 166.572 59.4744 165.905 59.4744C165.237 59.4744 164.766 59.2457 164.49 58.7883C164.22 58.3263 164.084 57.6869 164.084 56.8701ZM166.941 56.8701C166.941 56.4921 166.915 56.1724 166.864 55.911C166.817 55.6496 166.719 55.4373 166.57 55.2739C166.42 55.1059 166.199 55.0219 165.905 55.0219C165.611 55.0219 165.389 55.1059 165.24 55.2739C165.09 55.4373 164.99 55.6496 164.938 55.911C164.892 56.1724 164.868 56.4921 164.868 56.8701C164.868 57.2622 164.892 57.5912 164.938 57.8572C164.985 58.1232 165.083 58.3379 165.233 58.5013C165.387 58.6646 165.611 58.7463 165.905 58.7463C166.199 58.7463 166.42 58.6646 166.57 58.5013C166.724 58.3379 166.824 58.1232 166.871 57.8572C166.917 57.5912 166.941 57.2622 166.941 56.8701ZM168.996 59.5374C168.852 59.5374 168.73 59.4884 168.632 59.3904C168.534 59.2924 168.485 59.171 168.485 59.0264C168.485 58.8817 168.534 58.7603 168.632 58.6623C168.73 58.5643 168.852 58.5153 168.996 58.5153C169.136 58.5153 169.255 58.5643 169.353 58.6623C169.451 58.7603 169.5 58.8817 169.5 59.0264C169.5 59.171 169.451 59.2924 169.353 59.3904C169.255 59.4884 169.136 59.5374 168.996 59.5374ZM168.996 56.5971C168.852 56.5971 168.73 56.5481 168.632 56.4501C168.534 56.352 168.485 56.2307 168.485 56.086C168.485 55.9413 168.534 55.82 168.632 55.722C168.73 55.624 168.852 55.575 168.996 55.575C169.136 55.575 169.255 55.624 169.353 55.722C169.451 55.82 169.5 55.9413 169.5 56.086C169.5 56.2307 169.451 56.352 169.353 56.4501C169.255 56.5481 169.136 56.5971 168.996 56.5971ZM170.271 55.645C170.299 55.2109 170.465 54.8725 170.768 54.6299C171.076 54.3872 171.468 54.2658 171.944 54.2658C172.271 54.2658 172.554 54.3242 172.792 54.4408C173.03 54.5575 173.209 54.7162 173.331 54.9169C173.452 55.1176 173.513 55.3439 173.513 55.596C173.513 55.8853 173.436 56.1327 173.282 56.338C173.128 56.5434 172.943 56.6811 172.729 56.7511V56.7791C173.004 56.8631 173.219 57.0171 173.373 57.2411C173.527 57.4605 173.604 57.7429 173.604 58.0882C173.604 58.3636 173.541 58.6086 173.415 58.8233C173.289 59.038 173.102 59.2084 172.855 59.3344C172.607 59.4557 172.311 59.5164 171.965 59.5164C171.461 59.5164 171.046 59.3881 170.719 59.1314C170.397 58.87 170.225 58.4966 170.201 58.0112H170.971C170.99 58.2586 171.086 58.4616 171.258 58.6203C171.431 58.7743 171.664 58.8513 171.958 58.8513C172.243 58.8513 172.463 58.7743 172.617 58.6203C172.771 58.4616 172.848 58.2586 172.848 58.0112C172.848 57.6845 172.743 57.4535 172.533 57.3182C172.327 57.1781 172.01 57.1081 171.58 57.1081H171.398V56.4501H171.587C171.965 56.4454 172.253 56.3824 172.449 56.261C172.649 56.1397 172.75 55.9483 172.75 55.687C172.75 55.4629 172.677 55.2856 172.533 55.1549C172.388 55.0196 172.183 54.9519 171.916 54.9519C171.655 54.9519 171.452 55.0196 171.307 55.1549C171.163 55.2856 171.076 55.4489 171.048 55.645H170.271ZM174.442 56.8701C174.442 56.0627 174.577 55.4326 174.848 54.9799C175.123 54.5225 175.595 54.2938 176.262 54.2938C176.93 54.2938 177.399 54.5225 177.669 54.9799C177.945 55.4326 178.082 56.0627 178.082 56.8701C178.082 57.6869 177.945 58.3263 177.669 58.7883C177.399 59.2457 176.93 59.4744 176.262 59.4744C175.595 59.4744 175.123 59.2457 174.848 58.7883C174.577 58.3263 174.442 57.6869 174.442 56.8701ZM177.298 56.8701C177.298 56.4921 177.273 56.1724 177.221 55.911C177.175 55.6496 177.077 55.4373 176.927 55.2739C176.778 55.1059 176.556 55.0219 176.262 55.0219C175.968 55.0219 175.746 55.1059 175.597 55.2739C175.448 55.4373 175.347 55.6496 175.296 55.911C175.249 56.1724 175.226 56.4921 175.226 56.8701C175.226 57.2622 175.249 57.5912 175.296 57.8572C175.343 58.1232 175.441 58.3379 175.59 58.5013C175.744 58.6646 175.968 58.7463 176.262 58.7463C176.556 58.7463 176.778 58.6646 176.927 58.5013C177.081 58.3379 177.182 58.1232 177.228 57.8572C177.275 57.5912 177.298 57.2622 177.298 56.8701Z" fill="black"/>
<rect x="197.27" y="49.9875" width="24.9403" height="14.0016" rx="2.18775" fill="#D5D6FF"/>
<path d="M201.055 55.1129V54.3848H202.511V59.4884H201.706V55.1129H201.055ZM203.608 56.8701C203.608 56.0627 203.743 55.4326 204.014 54.9799C204.289 54.5225 204.761 54.2938 205.428 54.2938C206.095 54.2938 206.564 54.5225 206.835 54.9799C207.111 55.4326 207.248 56.0627 207.248 56.8701C207.248 57.6869 207.111 58.3263 206.835 58.7883C206.564 59.2457 206.095 59.4744 205.428 59.4744C204.761 59.4744 204.289 59.2457 204.014 58.7883C203.743 58.3263 203.608 57.6869 203.608 56.8701ZM206.464 56.8701C206.464 56.4921 206.438 56.1724 206.387 55.911C206.34 55.6496 206.242 55.4373 206.093 55.2739C205.944 55.1059 205.722 55.0219 205.428 55.0219C205.134 55.0219 204.912 55.1059 204.763 55.2739C204.614 55.4373 204.513 55.6496 204.462 55.911C204.415 56.1724 204.392 56.4921 204.392 56.8701C204.392 57.2622 204.415 57.5912 204.462 57.8572C204.509 58.1232 204.607 58.3379 204.756 58.5013C204.91 58.6646 205.134 58.7463 205.428 58.7463C205.722 58.7463 205.944 58.6646 206.093 58.5013C206.247 58.3379 206.347 58.1232 206.394 57.8572C206.441 57.5912 206.464 57.2622 206.464 56.8701ZM208.52 59.5374C208.375 59.5374 208.254 59.4884 208.156 59.3904C208.058 59.2924 208.009 59.171 208.009 59.0264C208.009 58.8817 208.058 58.7603 208.156 58.6623C208.254 58.5643 208.375 58.5153 208.52 58.5153C208.66 58.5153 208.779 58.5643 208.877 58.6623C208.975 58.7603 209.024 58.8817 209.024 59.0264C209.024 59.171 208.975 59.2924 208.877 59.3904C208.779 59.4884 208.66 59.5374 208.52 59.5374ZM208.52 56.5971C208.375 56.5971 208.254 56.5481 208.156 56.4501C208.058 56.352 208.009 56.2307 208.009 56.086C208.009 55.9413 208.058 55.82 208.156 55.722C208.254 55.624 208.375 55.575 208.52 55.575C208.66 55.575 208.779 55.624 208.877 55.722C208.975 55.82 209.024 55.9413 209.024 56.086C209.024 56.2307 208.975 56.352 208.877 56.4501C208.779 56.5481 208.66 56.5971 208.52 56.5971ZM209.795 55.645C209.823 55.2109 209.988 54.8725 210.292 54.6299C210.6 54.3872 210.992 54.2658 211.468 54.2658C211.795 54.2658 212.077 54.3242 212.315 54.4408C212.553 54.5575 212.733 54.7162 212.854 54.9169C212.975 55.1176 213.036 55.3439 213.036 55.596C213.036 55.8853 212.959 56.1327 212.805 56.338C212.651 56.5434 212.467 56.6811 212.252 56.7511V56.7791C212.527 56.8631 212.742 57.0171 212.896 57.2411C213.05 57.4605 213.127 57.7429 213.127 58.0882C213.127 58.3636 213.064 58.6086 212.938 58.8233C212.812 59.038 212.625 59.2084 212.378 59.3344C212.131 59.4557 211.834 59.5164 211.489 59.5164C210.985 59.5164 210.569 59.3881 210.243 59.1314C209.921 58.87 209.748 58.4966 209.725 58.0112H210.495C210.513 58.2586 210.609 58.4616 210.782 58.6203C210.955 58.7743 211.188 58.8513 211.482 58.8513C211.767 58.8513 211.986 58.7743 212.14 58.6203C212.294 58.4616 212.371 58.2586 212.371 58.0112C212.371 57.6845 212.266 57.4535 212.056 57.3182C211.851 57.1781 211.533 57.1081 211.104 57.1081H210.922V56.4501H211.111C211.489 56.4454 211.776 56.3824 211.972 56.261C212.173 56.1397 212.273 55.9483 212.273 55.687C212.273 55.4629 212.201 55.2856 212.056 55.1549C211.911 55.0196 211.706 54.9519 211.44 54.9519C211.179 54.9519 210.976 55.0196 210.831 55.1549C210.686 55.2856 210.6 55.4489 210.572 55.645H209.795ZM213.965 56.8701C213.965 56.0627 214.101 55.4326 214.371 54.9799C214.647 54.5225 215.118 54.2938 215.786 54.2938C216.453 54.2938 216.922 54.5225 217.193 54.9799C217.468 55.4326 217.606 56.0627 217.606 56.8701C217.606 57.6869 217.468 58.3263 217.193 58.7883C216.922 59.2457 216.453 59.4744 215.786 59.4744C215.118 59.4744 214.647 59.2457 214.371 58.7883C214.101 58.3263 213.965 57.6869 213.965 56.8701ZM216.822 56.8701C216.822 56.4921 216.796 56.1724 216.745 55.911C216.698 55.6496 216.6 55.4373 216.451 55.2739C216.301 55.1059 216.08 55.0219 215.786 55.0219C215.492 55.0219 215.27 55.1059 215.121 55.2739C214.971 55.4373 214.871 55.6496 214.82 55.911C214.773 56.1724 214.75 56.4921 214.75 56.8701C214.75 57.2622 214.773 57.5912 214.82 57.8572C214.866 58.1232 214.964 58.3379 215.114 58.5013C215.268 58.6646 215.492 58.7463 215.786 58.7463C216.08 58.7463 216.301 58.6646 216.451 58.5013C216.605 58.3379 216.705 58.1232 216.752 57.8572C216.798 57.5912 216.822 57.2622 216.822 56.8701Z" fill="black"/>
<rect x="4.53516" y="49.9875" width="24.9403" height="14.0016" rx="2.18775" fill="white"/>
<path d="M17.9923 56.6181V57.2902H15.1149V56.6181H17.9923Z" fill="black"/>
<rect x="120.924" y="49.9875" width="24.9403" height="14.0016" rx="2.18775" fill="white"/>
<path d="M134.381 56.6181V57.2902H131.504V56.6181H134.381Z" fill="black"/>
<rect x="81.5449" y="69.2391" width="24.9403" height="14.0016" rx="2.18775" fill="#D5D6FF"/>
<path d="M86.3307 74.3645V73.6364H87.7868V78.74H86.9817V74.3645H86.3307ZM88.7782 74.3645V73.6364H90.2344V78.74H89.4293V74.3645H88.7782ZM91.7578 78.789C91.6131 78.789 91.4918 78.74 91.3938 78.642C91.2958 78.544 91.2468 78.4226 91.2468 78.2779C91.2468 78.1333 91.2958 78.0119 91.3938 77.9139C91.4918 77.8159 91.6131 77.7669 91.7578 77.7669C91.8978 77.7669 92.0168 77.8159 92.1148 77.9139C92.2129 78.0119 92.2619 78.1333 92.2619 78.2779C92.2619 78.4226 92.2129 78.544 92.1148 78.642C92.0168 78.74 91.8978 78.789 91.7578 78.789ZM91.7578 75.8487C91.6131 75.8487 91.4918 75.7997 91.3938 75.7016C91.2958 75.6036 91.2468 75.4823 91.2468 75.3376C91.2468 75.1929 91.2958 75.0716 91.3938 74.9736C91.4918 74.8756 91.6131 74.8265 91.7578 74.8265C91.8978 74.8265 92.0168 74.8756 92.1148 74.9736C92.2129 75.0716 92.2619 75.1929 92.2619 75.3376C92.2619 75.4823 92.2129 75.6036 92.1148 75.7016C92.0168 75.7997 91.8978 75.8487 91.7578 75.8487ZM93.0468 76.1217C93.0468 75.3143 93.1821 74.6842 93.4528 74.2315C93.7282 73.7741 94.1996 73.5454 94.867 73.5454C95.5344 73.5454 96.0034 73.7741 96.2741 74.2315C96.5495 74.6842 96.6872 75.3143 96.6872 76.1217C96.6872 76.9385 96.5495 77.5779 96.2741 78.0399C96.0034 78.4973 95.5344 78.726 94.867 78.726C94.1996 78.726 93.7282 78.4973 93.4528 78.0399C93.1821 77.5779 93.0468 76.9385 93.0468 76.1217ZM95.9031 76.1217C95.9031 75.7436 95.8774 75.4239 95.8261 75.1626C95.7794 74.9012 95.6814 74.6889 95.5321 74.5255C95.3827 74.3575 95.161 74.2735 94.867 74.2735C94.5729 74.2735 94.3513 74.3575 94.2019 74.5255C94.0526 74.6889 93.9522 74.9012 93.9009 75.1626C93.8542 75.4239 93.8309 75.7436 93.8309 76.1217C93.8309 76.5137 93.8542 76.8428 93.9009 77.1088C93.9475 77.3748 94.0456 77.5895 94.1949 77.7529C94.3489 77.9162 94.5729 77.9979 94.867 77.9979C95.161 77.9979 95.3827 77.9162 95.5321 77.7529C95.6861 77.5895 95.7864 77.3748 95.8331 77.1088C95.8798 76.8428 95.9031 76.5137 95.9031 76.1217ZM97.5317 76.1217C97.5317 75.3143 97.667 74.6842 97.9377 74.2315C98.2131 73.7741 98.6845 73.5454 99.3519 73.5454C100.019 73.5454 100.488 73.7741 100.759 74.2315C101.034 74.6842 101.172 75.3143 101.172 76.1217C101.172 76.9385 101.034 77.5779 100.759 78.0399C100.488 78.4973 100.019 78.726 99.3519 78.726C98.6845 78.726 98.2131 78.4973 97.9377 78.0399C97.667 77.5779 97.5317 76.9385 97.5317 76.1217ZM100.388 76.1217C100.388 75.7436 100.362 75.4239 100.311 75.1626C100.264 74.9012 100.166 74.6889 100.017 74.5255C99.8676 74.3575 99.6459 74.2735 99.3519 74.2735C99.0578 74.2735 98.8361 74.3575 98.6868 74.5255C98.5374 74.6889 98.4371 74.9012 98.3858 75.1626C98.3391 75.4239 98.3157 75.7436 98.3157 76.1217C98.3157 76.5137 98.3391 76.8428 98.3858 77.1088C98.4324 77.3748 98.5304 77.5895 98.6798 77.7529C98.8338 77.9162 99.0578 77.9979 99.3519 77.9979C99.6459 77.9979 99.8676 77.9162 100.017 77.7529C100.171 77.5895 100.271 77.3748 100.318 77.1088C100.365 76.8428 100.388 76.5137 100.388 76.1217Z" fill="black"/>
<rect x="157.746" y="69.2391" width="24.9403" height="14.0016" rx="2.18775" fill="#D5D6FF"/>
<path d="M162.532 74.3645V73.6364H163.988V78.74H163.183V74.3645H162.532ZM164.979 74.3645V73.6364H166.436V78.74H165.63V74.3645H164.979ZM167.959 78.789C167.814 78.789 167.693 78.74 167.595 78.642C167.497 78.544 167.448 78.4226 167.448 78.2779C167.448 78.1333 167.497 78.0119 167.595 77.9139C167.693 77.8159 167.814 77.7669 167.959 77.7669C168.099 77.7669 168.218 77.8159 168.316 77.9139C168.414 78.0119 168.463 78.1333 168.463 78.2779C168.463 78.4226 168.414 78.544 168.316 78.642C168.218 78.74 168.099 78.789 167.959 78.789ZM167.959 75.8487C167.814 75.8487 167.693 75.7997 167.595 75.7016C167.497 75.6036 167.448 75.4823 167.448 75.3376C167.448 75.1929 167.497 75.0716 167.595 74.9736C167.693 74.8756 167.814 74.8265 167.959 74.8265C168.099 74.8265 168.218 74.8756 168.316 74.9736C168.414 75.0716 168.463 75.1929 168.463 75.3376C168.463 75.4823 168.414 75.6036 168.316 75.7016C168.218 75.7997 168.099 75.8487 167.959 75.8487ZM169.248 76.1217C169.248 75.3143 169.383 74.6842 169.654 74.2315C169.929 73.7741 170.401 73.5454 171.068 73.5454C171.736 73.5454 172.205 73.7741 172.475 74.2315C172.751 74.6842 172.888 75.3143 172.888 76.1217C172.888 76.9385 172.751 77.5779 172.475 78.0399C172.205 78.4973 171.736 78.726 171.068 78.726C170.401 78.726 169.929 78.4973 169.654 78.0399C169.383 77.5779 169.248 76.9385 169.248 76.1217ZM172.104 76.1217C172.104 75.7436 172.079 75.4239 172.027 75.1626C171.981 74.9012 171.883 74.6889 171.733 74.5255C171.584 74.3575 171.362 74.2735 171.068 74.2735C170.774 74.2735 170.552 74.3575 170.403 74.5255C170.254 74.6889 170.153 74.9012 170.102 75.1626C170.055 75.4239 170.032 75.7436 170.032 76.1217C170.032 76.5137 170.055 76.8428 170.102 77.1088C170.149 77.3748 170.247 77.5895 170.396 77.7529C170.55 77.9162 170.774 77.9979 171.068 77.9979C171.362 77.9979 171.584 77.9162 171.733 77.7529C171.887 77.5895 171.988 77.3748 172.034 77.1088C172.081 76.8428 172.104 76.5137 172.104 76.1217ZM173.733 76.1217C173.733 75.3143 173.868 74.6842 174.139 74.2315C174.414 73.7741 174.886 73.5454 175.553 73.5454C176.22 73.5454 176.69 73.7741 176.96 74.2315C177.236 74.6842 177.373 75.3143 177.373 76.1217C177.373 76.9385 177.236 77.5779 176.96 78.0399C176.69 78.4973 176.22 78.726 175.553 78.726C174.886 78.726 174.414 78.4973 174.139 78.0399C173.868 77.5779 173.733 76.9385 173.733 76.1217ZM176.589 76.1217C176.589 75.7436 176.563 75.4239 176.512 75.1626C176.465 74.9012 176.367 74.6889 176.218 74.5255C176.069 74.3575 175.847 74.2735 175.553 74.2735C175.259 74.2735 175.037 74.3575 174.888 74.5255C174.739 74.6889 174.638 74.9012 174.587 75.1626C174.54 75.4239 174.517 75.7436 174.517 76.1217C174.517 76.5137 174.54 76.8428 174.587 77.1088C174.634 77.3748 174.732 77.5895 174.881 77.7529C175.035 77.9162 175.259 77.9979 175.553 77.9979C175.847 77.9979 176.069 77.9162 176.218 77.7529C176.372 77.5895 176.472 77.3748 176.519 77.1088C176.566 76.8428 176.589 76.5137 176.589 76.1217Z" fill="black"/>
<rect x="197.27" y="69.2391" width="24.9403" height="14.0016" rx="2.18775" fill="#D5D6FF"/>
<path d="M202.055 74.3645V73.6364H203.511V78.74H202.706V74.3645H202.055ZM204.503 74.3645V73.6364H205.959V78.74H205.154V74.3645H204.503ZM207.482 78.789C207.338 78.789 207.216 78.74 207.118 78.642C207.02 78.544 206.971 78.4226 206.971 78.2779C206.971 78.1333 207.02 78.0119 207.118 77.9139C207.216 77.8159 207.338 77.7669 207.482 77.7669C207.622 77.7669 207.741 77.8159 207.839 77.9139C207.937 78.0119 207.986 78.1333 207.986 78.2779C207.986 78.4226 207.937 78.544 207.839 78.642C207.741 78.74 207.622 78.789 207.482 78.789ZM207.482 75.8487C207.338 75.8487 207.216 75.7997 207.118 75.7016C207.02 75.6036 206.971 75.4823 206.971 75.3376C206.971 75.1929 207.02 75.0716 207.118 74.9736C207.216 74.8756 207.338 74.8265 207.482 74.8265C207.622 74.8265 207.741 74.8756 207.839 74.9736C207.937 75.0716 207.986 75.1929 207.986 75.3376C207.986 75.4823 207.937 75.6036 207.839 75.7016C207.741 75.7997 207.622 75.8487 207.482 75.8487ZM208.771 76.1217C208.771 75.3143 208.907 74.6842 209.177 74.2315C209.453 73.7741 209.924 73.5454 210.592 73.5454C211.259 73.5454 211.728 73.7741 211.999 74.2315C212.274 74.6842 212.412 75.3143 212.412 76.1217C212.412 76.9385 212.274 77.5779 211.999 78.0399C211.728 78.4973 211.259 78.726 210.592 78.726C209.924 78.726 209.453 78.4973 209.177 78.0399C208.907 77.5779 208.771 76.9385 208.771 76.1217ZM211.628 76.1217C211.628 75.7436 211.602 75.4239 211.551 75.1626C211.504 74.9012 211.406 74.6889 211.257 74.5255C211.107 74.3575 210.886 74.2735 210.592 74.2735C210.298 74.2735 210.076 74.3575 209.927 74.5255C209.777 74.6889 209.677 74.9012 209.625 75.1626C209.579 75.4239 209.555 75.7436 209.555 76.1217C209.555 76.5137 209.579 76.8428 209.625 77.1088C209.672 77.3748 209.77 77.5895 209.92 77.7529C210.074 77.9162 210.298 77.9979 210.592 77.9979C210.886 77.9979 211.107 77.9162 211.257 77.7529C211.411 77.5895 211.511 77.3748 211.558 77.1088C211.604 76.8428 211.628 76.5137 211.628 76.1217ZM213.256 76.1217C213.256 75.3143 213.392 74.6842 213.662 74.2315C213.938 73.7741 214.409 73.5454 215.076 73.5454C215.744 73.5454 216.213 73.7741 216.484 74.2315C216.759 74.6842 216.897 75.3143 216.897 76.1217C216.897 76.9385 216.759 77.5779 216.484 78.0399C216.213 78.4973 215.744 78.726 215.076 78.726C214.409 78.726 213.938 78.4973 213.662 78.0399C213.392 77.5779 213.256 76.9385 213.256 76.1217ZM216.113 76.1217C216.113 75.7436 216.087 75.4239 216.036 75.1626C215.989 74.9012 215.891 74.6889 215.742 74.5255C215.592 74.3575 215.371 74.2735 215.076 74.2735C214.782 74.2735 214.561 74.3575 214.411 74.5255C214.262 74.6889 214.162 74.9012 214.11 75.1626C214.064 75.4239 214.04 75.7436 214.04 76.1217C214.04 76.5137 214.064 76.8428 214.11 77.1088C214.157 77.3748 214.255 77.5895 214.404 77.7529C214.558 77.9162 214.782 77.9979 215.076 77.9979C215.371 77.9979 215.592 77.9162 215.742 77.7529C215.896 77.5895 215.996 77.3748 216.043 77.1088C216.089 76.8428 216.113 76.5137 216.113 76.1217Z" fill="black"/>
<rect x="4.53516" y="69.2391" width="24.9403" height="14.0016" rx="2.18775" fill="white"/>
<path d="M17.9923 75.8697V76.5417H15.1149V75.8697H17.9923Z" fill="black"/>
<rect x="120.924" y="69.2391" width="24.9403" height="14.0016" rx="2.18775" fill="white"/>
<path d="M134.381 75.8697V76.5417H131.504V75.8697H134.381Z" fill="black"/>
<rect x="81.5449" y="88.4906" width="24.9403" height="14.0016" rx="2.18775" fill="#D5D6FF"/>
<path d="M86.3307 93.616V92.8879H87.7868V97.9915H86.9817V93.616H86.3307ZM88.7782 93.616V92.8879H90.2344V97.9915H89.4293V93.616H88.7782ZM91.7578 98.0405C91.6131 98.0405 91.4918 97.9915 91.3938 97.8934C91.2958 97.7954 91.2468 97.6741 91.2468 97.5294C91.2468 97.3847 91.2958 97.2634 91.3938 97.1654C91.4918 97.0674 91.6131 97.0183 91.7578 97.0183C91.8978 97.0183 92.0168 97.0674 92.1148 97.1654C92.2129 97.2634 92.2619 97.3847 92.2619 97.5294C92.2619 97.6741 92.2129 97.7954 92.1148 97.8934C92.0168 97.9915 91.8978 98.0405 91.7578 98.0405ZM91.7578 95.1001C91.6131 95.1001 91.4918 95.0511 91.3938 94.9531C91.2958 94.8551 91.2468 94.7338 91.2468 94.5891C91.2468 94.4444 91.2958 94.323 91.3938 94.225C91.4918 94.127 91.6131 94.078 91.7578 94.078C91.8978 94.078 92.0168 94.127 92.1148 94.225C92.2129 94.323 92.2619 94.4444 92.2619 94.5891C92.2619 94.7338 92.2129 94.8551 92.1148 94.9531C92.0168 95.0511 91.8978 95.1001 91.7578 95.1001ZM93.0328 94.148C93.0608 93.714 93.2265 93.3756 93.5298 93.1329C93.8379 92.8902 94.2299 92.7689 94.706 92.7689C95.0327 92.7689 95.315 92.8272 95.5531 92.9439C95.7911 93.0606 95.9708 93.2192 96.0921 93.4199C96.2135 93.6206 96.2741 93.847 96.2741 94.099C96.2741 94.3884 96.1971 94.6357 96.0431 94.8411C95.8891 95.0465 95.7047 95.1841 95.4901 95.2541V95.2821C95.7654 95.3662 95.9801 95.5202 96.1341 95.7442C96.2881 95.9636 96.3652 96.2459 96.3652 96.5913C96.3652 96.8667 96.3021 97.1117 96.1761 97.3264C96.0501 97.5411 95.8634 97.7114 95.6161 97.8374C95.3687 97.9588 95.0723 98.0195 94.727 98.0195C94.2229 98.0195 93.8075 97.8911 93.4808 97.6344C93.1588 97.3731 92.9861 96.9997 92.9628 96.5143H93.7329C93.7515 96.7616 93.8472 96.9647 94.0199 97.1234C94.1926 97.2774 94.4259 97.3544 94.72 97.3544C95.0047 97.3544 95.224 97.2774 95.378 97.1234C95.5321 96.9647 95.6091 96.7616 95.6091 96.5143C95.6091 96.1876 95.5041 95.9566 95.294 95.8212C95.0887 95.6812 94.7713 95.6112 94.3419 95.6112H94.1599V94.9531H94.3489C94.727 94.9484 95.014 94.8854 95.21 94.7641C95.4107 94.6427 95.5111 94.4514 95.5111 94.19C95.5111 93.966 95.4387 93.7886 95.294 93.658C95.1493 93.5226 94.944 93.4549 94.678 93.4549C94.4166 93.4549 94.2136 93.5226 94.0689 93.658C93.9242 93.7886 93.8379 93.952 93.8099 94.148H93.0328ZM97.2035 95.3732C97.2035 94.5657 97.3388 93.9357 97.6095 93.4829C97.8849 93.0256 98.3563 92.7969 99.0237 92.7969C99.6911 92.7969 100.16 93.0256 100.431 93.4829C100.706 93.9357 100.844 94.5657 100.844 95.3732C100.844 96.1899 100.706 96.8293 100.431 97.2914C100.16 97.7488 99.6911 97.9775 99.0237 97.9775C98.3563 97.9775 97.8849 97.7488 97.6095 97.2914C97.3388 96.8293 97.2035 96.1899 97.2035 95.3732ZM100.06 95.3732C100.06 94.9951 100.034 94.6754 99.9828 94.414C99.9361 94.1527 99.8381 93.9403 99.6888 93.777C99.5394 93.609 99.3177 93.5249 99.0237 93.5249C98.7297 93.5249 98.508 93.609 98.3586 93.777C98.2093 93.9403 98.1089 94.1527 98.0576 94.414C98.0109 94.6754 97.9876 94.9951 97.9876 95.3732C97.9876 95.7652 98.0109 96.0942 98.0576 96.3603C98.1043 96.6263 98.2023 96.841 98.3516 97.0043C98.5056 97.1677 98.7297 97.2494 99.0237 97.2494C99.3177 97.2494 99.5394 97.1677 99.6888 97.0043C99.8428 96.841 99.9431 96.6263 99.9898 96.3603C100.036 96.0942 100.06 95.7652 100.06 95.3732Z" fill="black"/>
<rect x="157.746" y="88.4906" width="24.9403" height="14.0016" rx="2.18775" fill="#D5D6FF"/>
<path d="M162.532 93.616V92.8879H163.988V97.9915H163.183V93.616H162.532ZM164.979 93.616V92.8879H166.436V97.9915H165.63V93.616H164.979ZM167.959 98.0405C167.814 98.0405 167.693 97.9915 167.595 97.8934C167.497 97.7954 167.448 97.6741 167.448 97.5294C167.448 97.3847 167.497 97.2634 167.595 97.1654C167.693 97.0674 167.814 97.0183 167.959 97.0183C168.099 97.0183 168.218 97.0674 168.316 97.1654C168.414 97.2634 168.463 97.3847 168.463 97.5294C168.463 97.6741 168.414 97.7954 168.316 97.8934C168.218 97.9915 168.099 98.0405 167.959 98.0405ZM167.959 95.1001C167.814 95.1001 167.693 95.0511 167.595 94.9531C167.497 94.8551 167.448 94.7338 167.448 94.5891C167.448 94.4444 167.497 94.323 167.595 94.225C167.693 94.127 167.814 94.078 167.959 94.078C168.099 94.078 168.218 94.127 168.316 94.225C168.414 94.323 168.463 94.4444 168.463 94.5891C168.463 94.7338 168.414 94.8551 168.316 94.9531C168.218 95.0511 168.099 95.1001 167.959 95.1001ZM169.234 94.148C169.262 93.714 169.428 93.3756 169.731 93.1329C170.039 92.8902 170.431 92.7689 170.907 92.7689C171.234 92.7689 171.516 92.8272 171.754 92.9439C171.992 93.0606 172.172 93.2192 172.293 93.4199C172.415 93.6206 172.475 93.847 172.475 94.099C172.475 94.3884 172.398 94.6357 172.244 94.8411C172.09 95.0465 171.906 95.1841 171.691 95.2541V95.2821C171.967 95.3662 172.181 95.5202 172.335 95.7442C172.489 95.9636 172.566 96.2459 172.566 96.5913C172.566 96.8667 172.503 97.1117 172.377 97.3264C172.251 97.5411 172.065 97.7114 171.817 97.8374C171.57 97.9588 171.274 98.0195 170.928 98.0195C170.424 98.0195 170.009 97.8911 169.682 97.6344C169.36 97.3731 169.187 96.9997 169.164 96.5143H169.934C169.953 96.7616 170.048 96.9647 170.221 97.1234C170.394 97.2774 170.627 97.3544 170.921 97.3544C171.206 97.3544 171.425 97.2774 171.579 97.1234C171.733 96.9647 171.81 96.7616 171.81 96.5143C171.81 96.1876 171.705 95.9566 171.495 95.8212C171.29 95.6812 170.972 95.6112 170.543 95.6112H170.361V94.9531H170.55C170.928 94.9484 171.215 94.8854 171.411 94.7641C171.612 94.6427 171.712 94.4514 171.712 94.19C171.712 93.966 171.64 93.7886 171.495 93.658C171.351 93.5226 171.145 93.4549 170.879 93.4549C170.618 93.4549 170.415 93.5226 170.27 93.658C170.125 93.7886 170.039 93.952 170.011 94.148H169.234ZM173.405 95.3732C173.405 94.5657 173.54 93.9357 173.811 93.4829C174.086 93.0256 174.557 92.7969 175.225 92.7969C175.892 92.7969 176.361 93.0256 176.632 93.4829C176.907 93.9357 177.045 94.5657 177.045 95.3732C177.045 96.1899 176.907 96.8293 176.632 97.2914C176.361 97.7488 175.892 97.9775 175.225 97.9775C174.557 97.9775 174.086 97.7488 173.811 97.2914C173.54 96.8293 173.405 96.1899 173.405 95.3732ZM176.261 95.3732C176.261 94.9951 176.235 94.6754 176.184 94.414C176.137 94.1527 176.039 93.9403 175.89 93.777C175.741 93.609 175.519 93.5249 175.225 93.5249C174.931 93.5249 174.709 93.609 174.56 93.777C174.41 93.9403 174.31 94.1527 174.259 94.414C174.212 94.6754 174.189 94.9951 174.189 95.3732C174.189 95.7652 174.212 96.0942 174.259 96.3603C174.305 96.6263 174.403 96.841 174.553 97.0043C174.707 97.1677 174.931 97.2494 175.225 97.2494C175.519 97.2494 175.741 97.1677 175.89 97.0043C176.044 96.841 176.144 96.6263 176.191 96.3603C176.238 96.0942 176.261 95.7652 176.261 95.3732Z" fill="black"/>
<rect x="197.27" y="88.4906" width="24.9403" height="14.0016" rx="2.18775" fill="#D5D6FF"/>
<path d="M202.055 93.616V92.8879H203.511V97.9915H202.706V93.616H202.055ZM204.503 93.616V92.8879H205.959V97.9915H205.154V93.616H204.503ZM207.482 98.0405C207.338 98.0405 207.216 97.9915 207.118 97.8934C207.02 97.7954 206.971 97.6741 206.971 97.5294C206.971 97.3847 207.02 97.2634 207.118 97.1654C207.216 97.0674 207.338 97.0183 207.482 97.0183C207.622 97.0183 207.741 97.0674 207.839 97.1654C207.937 97.2634 207.986 97.3847 207.986 97.5294C207.986 97.6741 207.937 97.7954 207.839 97.8934C207.741 97.9915 207.622 98.0405 207.482 98.0405ZM207.482 95.1001C207.338 95.1001 207.216 95.0511 207.118 94.9531C207.02 94.8551 206.971 94.7338 206.971 94.5891C206.971 94.4444 207.02 94.323 207.118 94.225C207.216 94.127 207.338 94.078 207.482 94.078C207.622 94.078 207.741 94.127 207.839 94.225C207.937 94.323 207.986 94.4444 207.986 94.5891C207.986 94.7338 207.937 94.8551 207.839 94.9531C207.741 95.0511 207.622 95.1001 207.482 95.1001ZM208.757 94.148C208.785 93.714 208.951 93.3756 209.254 93.1329C209.562 92.8902 209.955 92.7689 210.431 92.7689C210.757 92.7689 211.04 92.8272 211.278 92.9439C211.516 93.0606 211.695 93.2192 211.817 93.4199C211.938 93.6206 211.999 93.847 211.999 94.099C211.999 94.3884 211.922 94.6357 211.768 94.8411C211.614 95.0465 211.429 95.1841 211.215 95.2541V95.2821C211.49 95.3662 211.705 95.5202 211.859 95.7442C212.013 95.9636 212.09 96.2459 212.09 96.5913C212.09 96.8667 212.027 97.1117 211.901 97.3264C211.775 97.5411 211.588 97.7114 211.341 97.8374C211.093 97.9588 210.797 98.0195 210.452 98.0195C209.948 98.0195 209.532 97.8911 209.205 97.6344C208.883 97.3731 208.711 96.9997 208.687 96.5143H209.457C209.476 96.7616 209.572 96.9647 209.744 97.1234C209.917 97.2774 210.151 97.3544 210.445 97.3544C210.729 97.3544 210.949 97.2774 211.103 97.1234C211.257 96.9647 211.334 96.7616 211.334 96.5143C211.334 96.1876 211.229 95.9566 211.019 95.8212C210.813 95.6812 210.496 95.6112 210.067 95.6112H209.885V94.9531H210.074C210.452 94.9484 210.739 94.8854 210.935 94.7641C211.135 94.6427 211.236 94.4514 211.236 94.19C211.236 93.966 211.163 93.7886 211.019 93.658C210.874 93.5226 210.669 93.4549 210.403 93.4549C210.141 93.4549 209.938 93.5226 209.794 93.658C209.649 93.7886 209.562 93.952 209.534 94.148H208.757ZM212.928 95.3732C212.928 94.5657 213.063 93.9357 213.334 93.4829C213.61 93.0256 214.081 92.7969 214.748 92.7969C215.416 92.7969 215.885 93.0256 216.155 93.4829C216.431 93.9357 216.569 94.5657 216.569 95.3732C216.569 96.1899 216.431 96.8293 216.155 97.2914C215.885 97.7488 215.416 97.9775 214.748 97.9775C214.081 97.9775 213.61 97.7488 213.334 97.2914C213.063 96.8293 212.928 96.1899 212.928 95.3732ZM215.784 95.3732C215.784 94.9951 215.759 94.6754 215.707 94.414C215.661 94.1527 215.563 93.9403 215.413 93.777C215.264 93.609 215.042 93.5249 214.748 93.5249C214.454 93.5249 214.233 93.609 214.083 93.777C213.934 93.9403 213.834 94.1527 213.782 94.414C213.736 94.6754 213.712 94.9951 213.712 95.3732C213.712 95.7652 213.736 96.0942 213.782 96.3603C213.829 96.6263 213.927 96.841 214.076 97.0043C214.23 97.1677 214.454 97.2494 214.748 97.2494C215.042 97.2494 215.264 97.1677 215.413 97.0043C215.567 96.841 215.668 96.6263 215.714 96.3603C215.761 96.0942 215.784 95.7652 215.784 95.3732Z" fill="black"/>
<rect x="4.53516" y="88.4906" width="24.9403" height="14.0016" rx="2.18775" fill="white"/>
<path d="M17.9923 95.1211V95.7932H15.1149V95.1211H17.9923Z" fill="black"/>
<rect x="120.924" y="88.4906" width="24.9403" height="14.0016" rx="2.18775" fill="white"/>
<path d="M134.381 95.1211V95.7932H131.504V95.1211H134.381Z" fill="black"/>
</g>
<defs>
<filter id="filter0_d_1633_8223" x="-301.441" y="-6.22043" width="560.882" height="150.99" filterUnits="userSpaceOnUse" color-interpolation-filters="sRGB">
<feFlood flood-opacity="0" result="BackgroundImageFix"/>
<feColorMatrix in="SourceAlpha" type="matrix" values="0 0 0 0 0 0 0 0 0 0 0 0 0 0 0 0 0 0 127 0" result="hardAlpha"/>
<feOffset dy="2.22043"/>
<feGaussianBlur stdDeviation="2.22043"/>
<feComposite in2="hardAlpha" operator="out"/>
<feColorMatrix type="matrix" values="0 0 0 0 0.441446 0 0 0 0 0.441446 0 0 0 0 0.441446 0 0 0 0.1 0"/>
<feBlend mode="normal" in2="BackgroundImageFix" result="effect1_dropShadow_1633_8223"/>
<feBlend mode="normal" in="SourceGraphic" in2="effect1_dropShadow_1633_8223" result="shape"/>
</filter>
<clipPath id="clip0_1633_8223">
<rect width="243" height="132" rx="5" fill="white"/>
</clipPath>
</defs>
</svg>
