<svg width="243" height="132" viewBox="0 0 243 132" fill="none" xmlns="http://www.w3.org/2000/svg">
<rect width="243" height="132" rx="5" fill="#F4F4F4"/>
<path d="M8.49654 18.4804H9.32411L10.763 21.9937H10.8159L12.2548 18.4804H13.0824V23H12.4336V19.7294H12.3916L11.0587 22.9934H10.5202L9.18729 19.7272H9.14536V23H8.49654V18.4804ZM15.4818 23.0684C15.1478 23.0684 14.8602 22.9971 14.6189 22.8543C14.3791 22.7102 14.1937 22.5079 14.0628 22.2475C13.9333 21.9856 13.8686 21.6788 13.8686 21.3272C13.8686 20.98 13.9333 20.674 14.0628 20.4092C14.1937 20.1443 14.3762 19.9376 14.6101 19.789C14.8455 19.6404 15.1206 19.5661 15.4354 19.5661C15.6267 19.5661 15.8121 19.5978 15.9916 19.661C16.1711 19.7243 16.3322 19.8236 16.4749 19.959C16.6176 20.0943 16.7301 20.2701 16.8125 20.4864C16.8949 20.7012 16.9361 20.9623 16.9361 21.2698V21.5038H14.2415V21.0094H16.2895C16.2895 20.8358 16.2542 20.6821 16.1836 20.5482C16.1129 20.4128 16.0136 20.3062 15.8856 20.2282C15.7591 20.1502 15.6105 20.1112 15.4399 20.1112C15.2545 20.1112 15.0926 20.1568 14.9544 20.2481C14.8175 20.3378 14.7116 20.4555 14.6366 20.6011C14.563 20.7453 14.5262 20.902 14.5262 21.0712V21.4574C14.5262 21.684 14.5659 21.8767 14.6454 22.0356C14.7263 22.1945 14.8389 22.3159 14.983 22.3997C15.1272 22.4821 15.2957 22.5233 15.4884 22.5233C15.6135 22.5233 15.7275 22.5057 15.8305 22.4704C15.9335 22.4336 16.0225 22.3791 16.0975 22.307C16.1725 22.235 16.2299 22.1459 16.2696 22.04L16.8942 22.1526C16.8442 22.3365 16.7544 22.4976 16.6249 22.6359C16.4969 22.7727 16.3358 22.8794 16.1416 22.9559C15.9489 23.0309 15.729 23.0684 15.4818 23.0684ZM17.6682 23V19.6103H18.306V20.1487H18.3413C18.4031 19.9663 18.512 19.8229 18.6679 19.7184C18.8254 19.6125 19.0034 19.5595 19.202 19.5595C19.2432 19.5595 19.2917 19.561 19.3476 19.5639C19.405 19.5669 19.4499 19.5705 19.4823 19.575V20.2061C19.4558 20.1988 19.4087 20.1907 19.341 20.1818C19.2733 20.1715 19.2057 20.1664 19.138 20.1664C18.982 20.1664 18.843 20.1995 18.7209 20.2657C18.6003 20.3304 18.5046 20.4209 18.434 20.5372C18.3634 20.6519 18.3281 20.7828 18.3281 20.93V23H17.6682ZM21.3597 23.0684C21.0317 23.0684 20.7492 22.9941 20.5123 22.8455C20.2769 22.6955 20.096 22.4887 19.9694 22.2254C19.8429 21.962 19.7796 21.6604 19.7796 21.3206C19.7796 20.9763 19.8444 20.6725 19.9738 20.4092C20.1033 20.1443 20.2857 19.9376 20.5211 19.789C20.7565 19.6404 21.0339 19.5661 21.3531 19.5661C21.6106 19.5661 21.8401 19.6139 22.0417 19.7096C22.2432 19.8037 22.4058 19.9362 22.5294 20.1068C22.6544 20.2775 22.7287 20.4768 22.7523 20.7049H22.1101C22.0748 20.546 21.9938 20.4092 21.8673 20.2944C21.7423 20.1796 21.5745 20.1223 21.3642 20.1223C21.1803 20.1223 21.0192 20.1708 20.8809 20.2679C20.744 20.3635 20.6374 20.5004 20.5609 20.6784C20.4844 20.8549 20.4461 21.0639 20.4461 21.3051C20.4461 21.5523 20.4836 21.7656 20.5587 21.9451C20.6337 22.1246 20.7396 22.2636 20.8764 22.3622C21.0147 22.4608 21.1773 22.5101 21.3642 22.5101C21.4892 22.5101 21.6025 22.4873 21.704 22.4417C21.807 22.3946 21.8931 22.3276 21.9622 22.2408C22.0328 22.154 22.0821 22.0496 22.1101 21.9275H22.7523C22.7287 22.1467 22.6574 22.3424 22.5382 22.5145C22.419 22.6866 22.2594 22.822 22.0593 22.9206C21.8607 23.0191 21.6275 23.0684 21.3597 23.0684ZM24.4444 23.075C24.2296 23.075 24.0354 23.0353 23.8618 22.9559C23.6882 22.8749 23.5506 22.758 23.4491 22.605C23.349 22.452 23.299 22.2644 23.299 22.0422C23.299 21.851 23.3358 21.6935 23.4094 21.57C23.4829 21.4464 23.5822 21.3485 23.7073 21.2764C23.8323 21.2044 23.9721 21.1499 24.1266 21.1131C24.2811 21.0764 24.4385 21.0484 24.5989 21.0293C24.8019 21.0057 24.9667 20.9866 25.0932 20.9719C25.2197 20.9557 25.3117 20.93 25.369 20.8947C25.4264 20.8594 25.4551 20.802 25.4551 20.7225V20.7071C25.4551 20.5143 25.4007 20.365 25.2918 20.2591C25.1844 20.1532 25.024 20.1002 24.8107 20.1002C24.5886 20.1002 24.4135 20.1495 24.2855 20.2481C24.159 20.3452 24.0714 20.4533 24.0229 20.5725L23.4027 20.4312C23.4763 20.2252 23.5837 20.059 23.7249 19.9325C23.8677 19.8045 24.0317 19.7118 24.2171 19.6544C24.4024 19.5956 24.5974 19.5661 24.8019 19.5661C24.9372 19.5661 25.0807 19.5823 25.2322 19.6147C25.3852 19.6456 25.5279 19.703 25.6604 19.7868C25.7942 19.8707 25.9038 19.9906 25.9892 20.1465C26.0745 20.301 26.1172 20.5018 26.1172 20.749V23H25.4728V22.5366H25.4463C25.4036 22.6219 25.3396 22.7058 25.2543 22.7881C25.169 22.8705 25.0594 22.9389 24.9255 22.9934C24.7916 23.0478 24.6312 23.075 24.4444 23.075ZM24.5878 22.5454C24.7703 22.5454 24.9262 22.5093 25.0557 22.4373C25.1866 22.3652 25.2859 22.271 25.3536 22.1548C25.4227 22.0371 25.4573 21.9113 25.4573 21.7774V21.3404C25.4338 21.364 25.3882 21.3861 25.3205 21.4067C25.2543 21.4258 25.1785 21.4427 25.0932 21.4574C25.0079 21.4706 24.9247 21.4832 24.8438 21.4949C24.7629 21.5052 24.6952 21.5141 24.6408 21.5214C24.5128 21.5376 24.3958 21.5648 24.2899 21.6031C24.1854 21.6413 24.1016 21.6965 24.0383 21.7686C23.9765 21.8392 23.9456 21.9334 23.9456 22.0511C23.9456 22.2144 24.0059 22.3379 24.1266 22.4218C24.2472 22.5042 24.401 22.5454 24.5878 22.5454ZM28.265 23.0662C27.9913 23.0662 27.7471 22.9963 27.5323 22.8566C27.319 22.7153 27.1513 22.5145 27.0292 22.2541C26.9085 21.9922 26.8482 21.6781 26.8482 21.3118C26.8482 20.9454 26.9092 20.632 27.0314 20.3716C27.1549 20.1112 27.3241 19.9119 27.5389 19.7736C27.7537 19.6353 27.9972 19.5661 28.2694 19.5661C28.4798 19.5661 28.649 19.6014 28.777 19.6721C28.9065 19.7412 29.0065 19.8221 29.0771 19.9148C29.1492 20.0075 29.2051 20.0892 29.2448 20.1598H29.2846V18.4804H29.9444V23H29.3V22.4726H29.2448C29.2051 22.5447 29.1477 22.627 29.0727 22.7197C28.9991 22.8124 28.8976 22.8933 28.7682 22.9625C28.6387 23.0316 28.471 23.0662 28.265 23.0662ZM28.4106 22.5035C28.6004 22.5035 28.7608 22.4534 28.8917 22.3534C29.0241 22.2519 29.1242 22.1114 29.1919 21.9319C29.261 21.7524 29.2956 21.5435 29.2956 21.3051C29.2956 21.0697 29.2618 20.8638 29.1941 20.6872C29.1264 20.5107 29.0271 20.3731 28.8962 20.2745C28.7652 20.176 28.6034 20.1267 28.4106 20.1267C28.212 20.1267 28.0465 20.1782 27.9141 20.2812C27.7817 20.3841 27.6816 20.5246 27.614 20.7027C27.5478 20.8807 27.5147 21.0815 27.5147 21.3051C27.5147 21.5317 27.5485 21.7355 27.6162 21.9164C27.6839 22.0974 27.7839 22.2408 27.9163 22.3468C28.0502 22.4512 28.215 22.5035 28.4106 22.5035ZM32.314 23.0684C31.9962 23.0684 31.7189 22.9956 31.482 22.8499C31.2452 22.7043 31.0613 22.5005 30.9303 22.2386C30.7994 21.9768 30.7339 21.6707 30.7339 21.3206C30.7339 20.969 30.7994 20.6615 30.9303 20.3981C31.0613 20.1348 31.2452 19.9303 31.482 19.7846C31.7189 19.639 31.9962 19.5661 32.314 19.5661C32.6318 19.5661 32.9091 19.639 33.146 19.7846C33.3829 19.9303 33.5668 20.1348 33.6977 20.3981C33.8287 20.6615 33.8941 20.969 33.8941 21.3206C33.8941 21.6707 33.8287 21.9768 33.6977 22.2386C33.5668 22.5005 33.3829 22.7043 33.146 22.8499C32.9091 22.9956 32.6318 23.0684 32.314 23.0684ZM32.3162 22.5145C32.5222 22.5145 32.6929 22.4601 32.8282 22.3512C32.9636 22.2423 33.0636 22.0974 33.1283 21.9164C33.1946 21.7355 33.2277 21.5361 33.2277 21.3184C33.2277 21.1021 33.1946 20.9035 33.1283 20.7225C33.0636 20.5401 32.9636 20.3937 32.8282 20.2834C32.6929 20.173 32.5222 20.1178 32.3162 20.1178C32.1088 20.1178 31.9366 20.173 31.7998 20.2834C31.6645 20.3937 31.5637 20.5401 31.4975 20.7225C31.4327 20.9035 31.4004 21.1021 31.4004 21.3184C31.4004 21.5361 31.4327 21.7355 31.4975 21.9164C31.5637 22.0974 31.6645 22.2423 31.7998 22.3512C31.9366 22.4601 32.1088 22.5145 32.3162 22.5145ZM37.0102 18.4804V23H36.3283V18.4804H37.0102ZM38.6102 20.9873V23H37.9503V19.6103H38.5837V20.162H38.6256C38.7036 19.9825 38.8257 19.8383 38.992 19.7294C39.1597 19.6206 39.3708 19.5661 39.6253 19.5661C39.8563 19.5661 40.0586 19.6147 40.2322 19.7118C40.4058 19.8074 40.5404 19.9501 40.6361 20.1399C40.7317 20.3297 40.7795 20.5644 40.7795 20.8439V23H40.1197V20.9234C40.1197 20.6777 40.0557 20.4857 39.9277 20.3474C39.7997 20.2076 39.6239 20.1377 39.4002 20.1377C39.2472 20.1377 39.1111 20.1708 38.992 20.237C38.8743 20.3032 38.7808 20.4003 38.7117 20.5283C38.644 20.6548 38.6102 20.8079 38.6102 20.9873ZM41.6645 23V19.6103H42.2978V20.162H42.3398C42.4104 19.9751 42.5259 19.8295 42.6862 19.725C42.8466 19.6191 43.0386 19.5661 43.2622 19.5661C43.4888 19.5661 43.6786 19.6191 43.8316 19.725C43.9861 19.831 44.1001 19.9766 44.1737 20.162H44.209C44.2899 19.981 44.4186 19.8368 44.5952 19.7294C44.7717 19.6206 44.9821 19.5661 45.2263 19.5661C45.5338 19.5661 45.7847 19.6625 45.9789 19.8552C46.1745 20.048 46.2724 20.3385 46.2724 20.7269V23H45.6125V20.7887C45.6125 20.5592 45.55 20.393 45.4249 20.29C45.2999 20.187 45.1506 20.1355 44.9769 20.1355C44.7621 20.1355 44.5952 20.2017 44.476 20.3341C44.3568 20.4651 44.2972 20.6335 44.2972 20.8395V23H43.6396V20.7468C43.6396 20.5629 43.5822 20.415 43.4675 20.3032C43.3527 20.1914 43.2034 20.1355 43.0195 20.1355C42.8944 20.1355 42.7789 20.1686 42.673 20.2348C42.5685 20.2995 42.4839 20.39 42.4192 20.5063C42.3559 20.6225 42.3243 20.7571 42.3243 20.9101V23H41.6645ZM48.5846 23.0684C48.2668 23.0684 47.9895 22.9956 47.7526 22.8499C47.5158 22.7043 47.3318 22.5005 47.2009 22.2386C47.07 21.9768 47.0045 21.6707 47.0045 21.3206C47.0045 20.969 47.07 20.6615 47.2009 20.3981C47.3318 20.1348 47.5158 19.9303 47.7526 19.7846C47.9895 19.639 48.2668 19.5661 48.5846 19.5661C48.9024 19.5661 49.1797 19.639 49.4166 19.7846C49.6535 19.9303 49.8374 20.1348 49.9683 20.3981C50.0992 20.6615 50.1647 20.969 50.1647 21.3206C50.1647 21.6707 50.0992 21.9768 49.9683 22.2386C49.8374 22.5005 49.6535 22.7043 49.4166 22.8499C49.1797 22.9956 48.9024 23.0684 48.5846 23.0684ZM48.5868 22.5145C48.7928 22.5145 48.9634 22.4601 49.0988 22.3512C49.2342 22.2423 49.3342 22.0974 49.3989 21.9164C49.4651 21.7355 49.4982 21.5361 49.4982 21.3184C49.4982 21.1021 49.4651 20.9035 49.3989 20.7225C49.3342 20.5401 49.2342 20.3937 49.0988 20.2834C48.9634 20.173 48.7928 20.1178 48.5868 20.1178C48.3794 20.1178 48.2072 20.173 48.0704 20.2834C47.9351 20.3937 47.8343 20.5401 47.7681 20.7225C47.7033 20.9035 47.671 21.1021 47.671 21.3184C47.671 21.5361 47.7033 21.7355 47.7681 21.9164C47.8343 22.0974 47.9351 22.2423 48.0704 22.3512C48.2072 22.4601 48.3794 22.5145 48.5868 22.5145ZM50.9542 23V18.4804H51.6141V20.1598H51.6538C51.692 20.0892 51.7472 20.0075 51.8193 19.9148C51.8914 19.8221 51.9914 19.7412 52.1194 19.6721C52.2474 19.6014 52.4166 19.5661 52.627 19.5661C52.9007 19.5661 53.1449 19.6353 53.3597 19.7736C53.5745 19.9119 53.7429 20.1112 53.8651 20.3716C53.9886 20.632 54.0504 20.9454 54.0504 21.3118C54.0504 21.6781 53.9894 21.9922 53.8673 22.2541C53.7451 22.5145 53.5774 22.7153 53.3641 22.8566C53.1508 22.9963 52.9073 23.0662 52.6336 23.0662C52.4277 23.0662 52.2592 23.0316 52.1283 22.9625C51.9988 22.8933 51.8973 22.8124 51.8237 22.7197C51.7502 22.627 51.6935 22.5447 51.6538 22.4726H51.5986V23H50.9542ZM51.6008 21.3051C51.6008 21.5435 51.6354 21.7524 51.7045 21.9319C51.7737 22.1114 51.8737 22.2519 52.0047 22.3534C52.1356 22.4534 52.296 22.5035 52.4858 22.5035C52.6829 22.5035 52.8477 22.4512 52.9801 22.3468C53.1125 22.2408 53.2126 22.0974 53.2802 21.9164C53.3494 21.7355 53.384 21.5317 53.384 21.3051C53.384 21.0815 53.3501 20.8807 53.2824 20.7027C53.2162 20.5246 53.1162 20.3841 52.9823 20.2812C52.8499 20.1782 52.6844 20.1267 52.4858 20.1267C52.2945 20.1267 52.1327 20.176 52.0003 20.2745C51.8693 20.3731 51.77 20.5107 51.7023 20.6872C51.6347 20.8638 51.6008 21.0697 51.6008 21.3051ZM54.7914 23V19.6103H55.4512V23H54.7914ZM55.1246 19.0872C55.0099 19.0872 54.9113 19.049 54.8289 18.9725C54.748 18.8945 54.7075 18.8018 54.7075 18.6944C54.7075 18.5856 54.748 18.4929 54.8289 18.4164C54.9113 18.3384 55.0099 18.2994 55.1246 18.2994C55.2394 18.2994 55.3372 18.3384 55.4181 18.4164C55.5005 18.4929 55.5417 18.5856 55.5417 18.6944C55.5417 18.8018 55.5005 18.8945 55.4181 18.9725C55.3372 19.049 55.2394 19.0872 55.1246 19.0872ZM56.9988 18.4804V23H56.3389V18.4804H56.9988ZM57.8865 23V19.6103H58.5463V23H57.8865ZM58.2197 19.0872C58.105 19.0872 58.0064 19.049 57.924 18.9725C57.8431 18.8945 57.8026 18.8018 57.8026 18.6944C57.8026 18.5856 57.8431 18.4929 57.924 18.4164C58.0064 18.3384 58.105 18.2994 58.2197 18.2994C58.3345 18.2994 58.4323 18.3384 58.5132 18.4164C58.5956 18.4929 58.6368 18.5856 58.6368 18.6944C58.6368 18.8018 58.5956 18.8945 58.5132 18.9725C58.4323 19.049 58.3345 19.0872 58.2197 19.0872ZM60.4205 23.075C60.2057 23.075 60.0115 23.0353 59.8379 22.9559C59.6643 22.8749 59.5267 22.758 59.4252 22.605C59.3252 22.452 59.2752 22.2644 59.2752 22.0422C59.2752 21.851 59.3119 21.6935 59.3855 21.57C59.4591 21.4464 59.5584 21.3485 59.6834 21.2764C59.8085 21.2044 59.9482 21.1499 60.1027 21.1131C60.2572 21.0764 60.4146 21.0484 60.575 21.0293C60.778 21.0057 60.9428 20.9866 61.0693 20.9719C61.1959 20.9557 61.2878 20.93 61.3452 20.8947C61.4026 20.8594 61.4313 20.802 61.4313 20.7225V20.7071C61.4313 20.5143 61.3768 20.365 61.2679 20.2591C61.1605 20.1532 61.0002 20.1002 60.7869 20.1002C60.5647 20.1002 60.3896 20.1495 60.2616 20.2481C60.1351 20.3452 60.0476 20.4533 59.999 20.5725L59.3789 20.4312C59.4524 20.2252 59.5598 20.059 59.7011 19.9325C59.8438 19.8045 60.0078 19.7118 60.1932 19.6544C60.3786 19.5956 60.5735 19.5661 60.778 19.5661C60.9134 19.5661 61.0568 19.5823 61.2084 19.6147C61.3614 19.6456 61.5041 19.703 61.6365 19.7868C61.7704 19.8707 61.88 19.9906 61.9653 20.1465C62.0506 20.301 62.0933 20.5018 62.0933 20.749V23H61.4489V22.5366H61.4224C61.3798 22.6219 61.3158 22.7058 61.2304 22.7881C61.1451 22.8705 61.0355 22.9389 60.9016 22.9934C60.7677 23.0478 60.6074 23.075 60.4205 23.075ZM60.564 22.5454C60.7464 22.5454 60.9023 22.5093 61.0318 22.4373C61.1628 22.3652 61.2621 22.271 61.3297 22.1548C61.3989 22.0371 61.4335 21.9113 61.4335 21.7774V21.3404C61.4099 21.364 61.3643 21.3861 61.2966 21.4067C61.2304 21.4258 61.1547 21.4427 61.0693 21.4574C60.984 21.4706 60.9009 21.4832 60.82 21.4949C60.739 21.5052 60.6714 21.5141 60.6169 21.5214C60.4889 21.5376 60.372 21.5648 60.266 21.6031C60.1616 21.6413 60.0777 21.6965 60.0145 21.7686C59.9527 21.8392 59.9218 21.9334 59.9218 22.0511C59.9218 22.2144 59.9821 22.3379 60.1027 22.4218C60.2234 22.5042 60.3771 22.5454 60.564 22.5454ZM62.9722 23V19.6103H63.61V20.1487H63.6453C63.7071 19.9663 63.8159 19.8229 63.9719 19.7184C64.1293 19.6125 64.3073 19.5595 64.506 19.5595C64.5472 19.5595 64.5957 19.561 64.6516 19.5639C64.709 19.5669 64.7539 19.5705 64.7862 19.575V20.2061C64.7597 20.1988 64.7127 20.1907 64.645 20.1818C64.5773 20.1715 64.5096 20.1664 64.442 20.1664C64.286 20.1664 64.147 20.1995 64.0249 20.2657C63.9042 20.3304 63.8086 20.4209 63.738 20.5372C63.6674 20.6519 63.632 20.7828 63.632 20.93V23H62.9722ZM65.3572 23V19.6103H66.0171V23H65.3572ZM65.6905 19.0872C65.5757 19.0872 65.4772 19.049 65.3948 18.9725C65.3138 18.8945 65.2734 18.8018 65.2734 18.6944C65.2734 18.5856 65.3138 18.4929 65.3948 18.4164C65.4772 18.3384 65.5757 18.2994 65.6905 18.2994C65.8052 18.2994 65.9031 18.3384 65.984 18.4164C66.0664 18.4929 66.1076 18.5856 66.1076 18.6944C66.1076 18.8018 66.0664 18.8945 65.984 18.9725C65.9031 19.049 65.8052 19.0872 65.6905 19.0872ZM68.3326 23.0684C68.0149 23.0684 67.7375 22.9956 67.5007 22.8499C67.2638 22.7043 67.0799 22.5005 66.9489 22.2386C66.818 21.9768 66.7525 21.6707 66.7525 21.3206C66.7525 20.969 66.818 20.6615 66.9489 20.3981C67.0799 20.1348 67.2638 19.9303 67.5007 19.7846C67.7375 19.639 68.0149 19.5661 68.3326 19.5661C68.6504 19.5661 68.9278 19.639 69.1646 19.7846C69.4015 19.9303 69.5854 20.1348 69.7163 20.3981C69.8473 20.6615 69.9127 20.969 69.9127 21.3206C69.9127 21.6707 69.8473 21.9768 69.7163 22.2386C69.5854 22.5005 69.4015 22.7043 69.1646 22.8499C68.9278 22.9956 68.6504 23.0684 68.3326 23.0684ZM68.3348 22.5145C68.5408 22.5145 68.7115 22.4601 68.8468 22.3512C68.9822 22.2423 69.0822 22.0974 69.147 21.9164C69.2132 21.7355 69.2463 21.5361 69.2463 21.3184C69.2463 21.1021 69.2132 20.9035 69.147 20.7225C69.0822 20.5401 68.9822 20.3937 68.8468 20.2834C68.7115 20.173 68.5408 20.1178 68.3348 20.1178C68.1274 20.1178 67.9553 20.173 67.8184 20.2834C67.6831 20.3937 67.5823 20.5401 67.5161 20.7225C67.4514 20.9035 67.419 21.1021 67.419 21.3184C67.419 21.5361 67.4514 21.7355 67.5161 21.9164C67.5823 22.0974 67.6831 22.2423 67.8184 22.3512C67.9553 22.4601 68.1274 22.5145 68.3348 22.5145ZM72.2851 23V22.5057L73.8145 20.9211C73.9778 20.749 74.1124 20.5982 74.2183 20.4687C74.3257 20.3378 74.4059 20.2135 74.4589 20.0958C74.5118 19.9781 74.5383 19.853 74.5383 19.7206C74.5383 19.5705 74.503 19.4411 74.4324 19.3322C74.3618 19.2219 74.2654 19.1373 74.1433 19.0784C74.0212 19.0181 73.8836 18.9879 73.7306 18.9879C73.5688 18.9879 73.4275 19.021 73.3069 19.0872C73.1862 19.1535 73.0936 19.2469 73.0288 19.3675C72.9641 19.4882 72.9317 19.6294 72.9317 19.7912H72.2807C72.2807 19.5161 72.344 19.2756 72.4705 19.0696C72.597 18.8636 72.7706 18.704 72.9913 18.5907C73.212 18.4759 73.4628 18.4186 73.7438 18.4186C74.0278 18.4186 74.2779 18.4752 74.4942 18.5885C74.7119 18.7003 74.8818 18.8533 75.004 19.0475C75.1261 19.2403 75.1871 19.458 75.1871 19.7008C75.1871 19.8685 75.1555 20.0325 75.0922 20.1929C75.0304 20.3532 74.9223 20.532 74.7678 20.7291C74.6133 20.9248 74.3985 21.1624 74.1234 21.442L73.2252 22.3821V22.4152H75.26V23H72.2851ZM77.6698 23.075C77.3212 23.0736 77.0232 22.9816 76.7761 22.7992C76.5289 22.6167 76.3398 22.3512 76.2089 22.0025C76.078 21.6538 76.0125 21.2338 76.0125 20.7424C76.0125 20.2525 76.078 19.8339 76.2089 19.4867C76.3413 19.1395 76.5311 18.8747 76.7783 18.6922C77.0269 18.5098 77.3241 18.4186 77.6698 18.4186C78.0156 18.4186 78.312 18.5105 78.5592 18.6944C78.8064 18.8769 78.9954 19.1417 79.1264 19.4889C79.2588 19.8346 79.325 20.2525 79.325 20.7424C79.325 21.2353 79.2595 21.656 79.1286 22.0047C78.9976 22.3519 78.8086 22.6175 78.5614 22.8014C78.3142 22.9838 78.0171 23.075 77.6698 23.075ZM77.6698 22.4858C77.9759 22.4858 78.2149 22.3365 78.3871 22.0378C78.5607 21.7392 78.6475 21.3073 78.6475 20.7424C78.6475 20.3672 78.6078 20.0502 78.5283 19.7912C78.4503 19.5308 78.3378 19.3337 78.1907 19.1998C78.045 19.0644 77.8714 18.9968 77.6698 18.9968C77.3653 18.9968 77.1262 19.1468 76.9526 19.447C76.779 19.7471 76.6915 20.1789 76.69 20.7424C76.69 21.119 76.729 21.4375 76.807 21.698C76.8864 21.9569 76.999 22.1533 77.1446 22.2872C77.2903 22.4196 77.4653 22.4858 77.6698 22.4858ZM80.1079 23V22.5057L81.6372 20.9211C81.8005 20.749 81.9351 20.5982 82.0411 20.4687C82.1485 20.3378 82.2286 20.2135 82.2816 20.0958C82.3346 19.9781 82.3611 19.853 82.3611 19.7206C82.3611 19.5705 82.3258 19.4411 82.2551 19.3322C82.1845 19.2219 82.0881 19.1373 81.966 19.0784C81.8439 19.0181 81.7064 18.9879 81.5534 18.9879C81.3915 18.9879 81.2503 19.021 81.1296 19.0872C81.009 19.1535 80.9163 19.2469 80.8516 19.3675C80.7868 19.4882 80.7545 19.6294 80.7545 19.7912H80.1034C80.1034 19.5161 80.1667 19.2756 80.2932 19.0696C80.4198 18.8636 80.5934 18.704 80.8141 18.5907C81.0347 18.4759 81.2856 18.4186 81.5666 18.4186C81.8505 18.4186 82.1007 18.4752 82.3169 18.5885C82.5347 18.7003 82.7046 18.8533 82.8267 19.0475C82.9488 19.2403 83.0099 19.458 83.0099 19.7008C83.0099 19.8685 82.9782 20.0325 82.915 20.1929C82.8532 20.3532 82.7451 20.532 82.5906 20.7291C82.4361 20.9248 82.2213 21.1624 81.9462 21.442L81.048 22.3821V22.4152H83.0827V23H80.1079ZM85.4926 23.0618C85.1895 23.0618 84.9188 23.0096 84.6805 22.9051C84.4436 22.8006 84.256 22.6557 84.1177 22.4704C83.9809 22.2835 83.9073 22.0672 83.897 21.8215H84.59C84.5988 21.9554 84.6437 22.0716 84.7246 22.1702C84.807 22.2673 84.9144 22.3424 85.0468 22.3953C85.1792 22.4483 85.3263 22.4748 85.4882 22.4748C85.6662 22.4748 85.8236 22.4439 85.9604 22.3821C86.0987 22.3203 86.2069 22.2342 86.2849 22.1239C86.3628 22.0121 86.4018 21.8833 86.4018 21.7377C86.4018 21.5861 86.3628 21.453 86.2849 21.3382C86.2083 21.222 86.0958 21.1308 85.9472 21.0646C85.8001 20.9984 85.6221 20.9653 85.4131 20.9653H85.0314V20.4092H85.4131C85.5809 20.4092 85.728 20.379 85.8545 20.3187C85.9825 20.2584 86.0826 20.1745 86.1546 20.0671C86.2267 19.9582 86.2628 19.831 86.2628 19.6853C86.2628 19.5455 86.2312 19.4242 86.1679 19.3212C86.1061 19.2167 86.0178 19.1351 85.9031 19.0762C85.7898 19.0174 85.6559 18.9879 85.5014 18.9879C85.3543 18.9879 85.2167 19.0152 85.0887 19.0696C84.9622 19.1226 84.8592 19.1991 84.7798 19.2991C84.7003 19.3977 84.6577 19.5161 84.6518 19.6544H83.9919C83.9993 19.4102 84.0714 19.1954 84.2082 19.01C84.3465 18.8246 84.5289 18.6797 84.7555 18.5753C84.9821 18.4708 85.2337 18.4186 85.5102 18.4186C85.8001 18.4186 86.0502 18.4752 86.2606 18.5885C86.4724 18.7003 86.6357 18.8496 86.7505 19.0365C86.8667 19.2233 86.9241 19.4278 86.9226 19.65C86.9241 19.903 86.8535 20.1178 86.7108 20.2944C86.5695 20.4709 86.3812 20.5894 86.1458 20.6497V20.685C86.446 20.7306 86.6784 20.8498 86.8432 21.0425C87.0094 21.2353 87.0918 21.4743 87.0904 21.7597C87.0918 22.0084 87.0227 22.2313 86.8829 22.4284C86.7446 22.6256 86.5556 22.7808 86.3157 22.8941C86.0759 23.0059 85.8015 23.0618 85.4926 23.0618Z" fill="#232F4E"/>
<path d="M9.86097 101.111V104.275H9.47786V101.513H9.45933L8.68693 102.026V101.637L9.47786 101.111H9.86097ZM11.8028 104.318C11.57 104.318 11.3718 104.255 11.208 104.128C11.0443 104.001 10.9192 103.816 10.8327 103.574C10.7461 103.331 10.7029 103.037 10.7029 102.693C10.7029 102.351 10.7461 102.059 10.8327 101.817C10.9202 101.574 11.0458 101.389 11.2096 101.261C11.3744 101.133 11.5721 101.068 11.8028 101.068C12.0335 101.068 12.2307 101.133 12.3944 101.261C12.5592 101.389 12.6849 101.574 12.7714 101.817C12.8589 102.059 12.9027 102.351 12.9027 102.693C12.9027 103.037 12.8594 103.331 12.7729 103.574C12.6864 103.816 12.5613 104.001 12.3975 104.128C12.2338 104.255 12.0355 104.318 11.8028 104.318ZM11.8028 103.979C12.0335 103.979 12.2127 103.867 12.3404 103.645C12.4681 103.422 12.5319 103.105 12.5319 102.693C12.5319 102.419 12.5026 102.186 12.4439 101.993C12.3862 101.801 12.3028 101.654 12.1936 101.553C12.0855 101.452 11.9552 101.402 11.8028 101.402C11.5742 101.402 11.3955 101.515 11.2667 101.74C11.138 101.965 11.0736 102.282 11.0736 102.693C11.0736 102.967 11.1025 103.2 11.1601 103.392C11.2178 103.583 11.3007 103.729 11.4089 103.829C11.518 103.929 11.6493 103.979 11.8028 103.979ZM13.5453 104.275V101.111H13.9284V102.681H13.9655L15.3867 101.111H15.8872L14.5587 102.539L15.8872 104.275H15.4238L14.3239 102.804L13.9284 103.249V104.275H13.5453Z" fill="#9AA2AC"/>
<path d="M9.13698 87.1849V86.9068L10.1813 85.7637C10.3038 85.6298 10.4047 85.5134 10.484 85.4145C10.5633 85.3146 10.622 85.2209 10.6601 85.1334C10.6993 85.0448 10.7189 84.9521 10.7189 84.8553C10.7189 84.7441 10.6921 84.6478 10.6385 84.5664C10.586 84.4851 10.5139 84.4223 10.4222 84.378C10.3306 84.3337 10.2276 84.3116 10.1133 84.3116C9.99177 84.3116 9.88569 84.3368 9.79506 84.3872C9.70546 84.4367 9.63595 84.5062 9.58651 84.5958C9.53811 84.6854 9.51391 84.7904 9.51391 84.9109H9.14934C9.14934 84.7256 9.19208 84.5628 9.27755 84.4228C9.36303 84.2827 9.47941 84.1735 9.62668 84.0953C9.77498 84.017 9.9413 83.9779 10.1256 83.9779C10.311 83.9779 10.4753 84.017 10.6184 84.0953C10.7616 84.1735 10.8738 84.2791 10.9552 84.412C11.0366 84.5448 11.0772 84.6926 11.0772 84.8553C11.0772 84.9717 11.0561 85.0855 11.0139 85.1967C10.9727 85.3069 10.9006 85.43 10.7976 85.5659C10.6957 85.7008 10.5541 85.8656 10.3728 86.0603L9.66221 86.8203V86.845H11.1329V87.1849H9.13698ZM12.8028 87.2281C12.57 87.2281 12.3718 87.1648 12.208 87.0381C12.0443 86.9104 11.9192 86.7256 11.8327 86.4835C11.7461 86.2405 11.7029 85.947 11.7029 85.603C11.7029 85.2611 11.7461 84.9691 11.8327 84.7271C11.9202 84.4841 12.0458 84.2987 12.2096 84.171C12.3744 84.0422 12.5721 83.9779 12.8028 83.9779C13.0335 83.9779 13.2307 84.0422 13.3944 84.171C13.5592 84.2987 13.6849 84.4841 13.7714 84.7271C13.8589 84.9691 13.9027 85.2611 13.9027 85.603C13.9027 85.947 13.8594 86.2405 13.7729 86.4835C13.6864 86.7256 13.5613 86.9104 13.3975 87.0381C13.2338 87.1648 13.0355 87.2281 12.8028 87.2281ZM12.8028 86.8883C13.0335 86.8883 13.2127 86.777 13.3404 86.5546C13.4681 86.3321 13.5319 86.0149 13.5319 85.603C13.5319 85.3291 13.5026 85.0958 13.4439 84.9032C13.3862 84.7106 13.3028 84.5639 13.1936 84.4629C13.0855 84.362 12.9552 84.3116 12.8028 84.3116C12.5742 84.3116 12.3955 84.4243 12.2667 84.6499C12.138 84.8744 12.0736 85.1921 12.0736 85.603C12.0736 85.8769 12.1025 86.1097 12.1601 86.3013C12.2178 86.4928 12.3007 86.6385 12.4089 86.7384C12.518 86.8383 12.6493 86.8883 12.8028 86.8883ZM14.5453 87.1849V84.0211H14.9284V85.5906H14.9655L16.3867 84.0211H16.8872L15.5587 85.4485L16.8872 87.1849H16.4238L15.3239 85.7142L14.9284 86.1591V87.1849H14.5453Z" fill="#9AA2AC"/>
<path d="M10.07 70.1379C9.86612 70.1379 9.68435 70.1028 9.52472 70.0328C9.36612 69.9628 9.23997 69.8655 9.14625 69.7408C9.05356 69.6152 9.0031 69.4695 8.99486 69.3037H9.38415C9.39239 69.4056 9.4274 69.4937 9.48919 69.5678C9.55098 69.6409 9.63183 69.6976 9.73173 69.7378C9.83162 69.7779 9.94233 69.798 10.0639 69.798C10.1998 69.798 10.3203 69.7743 10.4253 69.7269C10.5304 69.6796 10.6128 69.6137 10.6725 69.5292C10.7322 69.4448 10.7621 69.3469 10.7621 69.2357C10.7621 69.1193 10.7333 69.0169 10.6756 68.9283C10.6179 68.8387 10.5335 68.7687 10.4223 68.7182C10.311 68.6677 10.1751 68.6425 10.0144 68.6425H9.76108V68.3026H10.0144C10.1401 68.3026 10.2503 68.28 10.345 68.2347C10.4408 68.1894 10.5155 68.1255 10.569 68.0431C10.6236 67.9607 10.6509 67.8639 10.6509 67.7527C10.6509 67.6456 10.6272 67.5524 10.5798 67.4731C10.5324 67.3938 10.4655 67.332 10.379 67.2877C10.2935 67.2434 10.1926 67.2213 10.0762 67.2213C9.96705 67.2213 9.86406 67.2414 9.76726 67.2815C9.67148 67.3207 9.59321 67.3778 9.53245 67.453C9.47168 67.5272 9.43873 67.6167 9.43358 67.7218H9.06283C9.06901 67.556 9.11896 67.4108 9.21267 67.2862C9.30639 67.1605 9.42895 67.0627 9.58034 66.9927C9.73276 66.9226 9.90011 66.8876 10.0824 66.8876C10.2781 66.8876 10.4459 66.9273 10.586 67.0066C10.7261 67.0848 10.8337 67.1883 10.9089 67.3171C10.984 67.4458 11.0216 67.5848 11.0216 67.7342C11.0216 67.9123 10.9748 68.0642 10.8811 68.1899C10.7884 68.3155 10.6622 68.4025 10.5026 68.4509V68.4757C10.7024 68.5086 10.8584 68.5936 10.9707 68.7305C11.0829 68.8665 11.139 69.0349 11.139 69.2357C11.139 69.4077 11.0922 69.5622 10.9985 69.6991C10.9058 69.8351 10.7791 69.9422 10.6184 70.0205C10.4578 70.0987 10.275 70.1379 10.07 70.1379ZM12.8028 70.1379C12.57 70.1379 12.3718 70.0745 12.208 69.9478C12.0443 69.8201 11.9192 69.6353 11.8327 69.3933C11.7461 69.1502 11.7029 68.8567 11.7029 68.5127C11.7029 68.1708 11.7461 67.8788 11.8327 67.6368C11.9202 67.3938 12.0458 67.2084 12.2096 67.0807C12.3744 66.952 12.5721 66.8876 12.8028 66.8876C13.0335 66.8876 13.2307 66.952 13.3944 67.0807C13.5592 67.2084 13.6849 67.3938 13.7714 67.6368C13.8589 67.8788 13.9027 68.1708 13.9027 68.5127C13.9027 68.8567 13.8594 69.1502 13.7729 69.3933C13.6864 69.6353 13.5613 69.8201 13.3975 69.9478C13.2338 70.0745 13.0355 70.1379 12.8028 70.1379ZM12.8028 69.798C13.0335 69.798 13.2127 69.6868 13.3404 69.4643C13.4681 69.2419 13.5319 68.9247 13.5319 68.5127C13.5319 68.2388 13.5026 68.0055 13.4439 67.8129C13.3862 67.6204 13.3028 67.4736 13.1936 67.3727C13.0855 67.2717 12.9552 67.2213 12.8028 67.2213C12.5742 67.2213 12.3955 67.3341 12.2667 67.5596C12.138 67.7841 12.0736 68.1018 12.0736 68.5127C12.0736 68.7867 12.1025 69.0194 12.1601 69.211C12.2178 69.4025 12.3007 69.5483 12.4089 69.6482C12.518 69.7481 12.6493 69.798 12.8028 69.798ZM14.5453 70.0946V66.9309H14.9284V68.5004H14.9655L16.3867 66.9309H16.8872L15.5587 68.3583L16.8872 70.0946H16.4238L15.3239 68.624L14.9284 69.0689V70.0946H14.5453Z" fill="#9AA2AC"/>
<path d="M8.90564 52.3571V52.042L10.296 49.8422H10.5246V50.3303H10.3701L9.31965 51.9925V52.0172H11.1919V52.3571H8.90564ZM10.3948 53.0059V52.2613V52.1146V49.8422H10.7594V53.0059H10.3948ZM12.8028 53.0492C12.57 53.0492 12.3718 52.9858 12.208 52.8592C12.0443 52.7315 11.9192 52.5466 11.8327 52.3046C11.7461 52.0615 11.7029 51.768 11.7029 51.424C11.7029 51.0821 11.7461 50.7902 11.8327 50.5481C11.9202 50.3051 12.0458 50.1197 12.2096 49.992C12.3744 49.8633 12.5721 49.7989 12.8028 49.7989C13.0335 49.7989 13.2307 49.8633 13.3944 49.992C13.5592 50.1197 13.6849 50.3051 13.7714 50.5481C13.8589 50.7902 13.9027 51.0821 13.9027 51.424C13.9027 51.768 13.8594 52.0615 13.7729 52.3046C13.6864 52.5466 13.5613 52.7315 13.3975 52.8592C13.2338 52.9858 13.0355 53.0492 12.8028 53.0492ZM12.8028 52.7093C13.0335 52.7093 13.2127 52.5981 13.3404 52.3756C13.4681 52.1532 13.5319 51.836 13.5319 51.424C13.5319 51.1501 13.5026 50.9168 13.4439 50.7243C13.3862 50.5317 13.3028 50.3849 13.1936 50.284C13.0855 50.1831 12.9552 50.1326 12.8028 50.1326C12.5742 50.1326 12.3955 50.2454 12.2667 50.4709C12.138 50.6954 12.0736 51.0131 12.0736 51.424C12.0736 51.698 12.1025 51.9307 12.1601 52.1223C12.2178 52.3139 12.3007 52.4596 12.4089 52.5595C12.518 52.6594 12.6493 52.7093 12.8028 52.7093ZM14.5453 53.0059V49.8422H14.9284V51.4117H14.9655L16.3867 49.8422H16.8872L15.5587 51.2696L16.8872 53.0059H16.4238L15.3239 51.5353L14.9284 51.9802V53.0059H14.5453Z" fill="#9AA2AC"/>
<path d="M10.1129 35.9589C9.93165 35.9589 9.76841 35.9229 9.6232 35.8508C9.47799 35.7787 9.36162 35.6798 9.27408 35.5542C9.18654 35.4285 9.13865 35.2854 9.13041 35.1247H9.50116C9.51558 35.2679 9.58046 35.3863 9.69581 35.48C9.81218 35.5727 9.95122 35.619 10.1129 35.619C10.2427 35.619 10.358 35.5887 10.4589 35.5279C10.5609 35.4671 10.6407 35.3837 10.6984 35.2776C10.7571 35.1705 10.7864 35.0495 10.7864 34.9146C10.7864 34.7766 10.7561 34.6535 10.6953 34.5454C10.6356 34.4362 10.5532 34.3503 10.4481 34.2874C10.3431 34.2246 10.2231 34.1927 10.0882 34.1917C9.99138 34.1906 9.892 34.2056 9.79004 34.2365C9.68809 34.2663 9.60415 34.3049 9.53824 34.3523L9.17985 34.3091L9.3714 32.7519H11.0151V33.0918H9.69272L9.58149 34.0248H9.60003C9.66491 33.9733 9.74627 33.9306 9.84411 33.8966C9.94195 33.8626 10.0439 33.8456 10.15 33.8456C10.3436 33.8456 10.5161 33.892 10.6675 33.9847C10.8199 34.0763 10.9394 34.202 11.0259 34.3616C11.1134 34.5212 11.1572 34.7035 11.1572 34.9084C11.1572 35.1103 11.1119 35.2905 11.0212 35.4491C10.9316 35.6067 10.8081 35.7313 10.6505 35.823C10.4929 35.9136 10.3137 35.9589 10.1129 35.9589ZM12.8028 35.9589C12.57 35.9589 12.3718 35.8956 12.208 35.7689C12.0443 35.6412 11.9192 35.4563 11.8327 35.2143C11.7461 34.9713 11.7029 34.6778 11.7029 34.3338C11.7029 33.9919 11.7461 33.6999 11.8327 33.4579C11.9202 33.2148 12.0458 33.0295 12.2096 32.9017C12.3744 32.773 12.5721 32.7086 12.8028 32.7086C13.0335 32.7086 13.2307 32.773 13.3944 32.9017C13.5592 33.0295 13.6849 33.2148 13.7714 33.4579C13.8589 33.6999 13.9027 33.9919 13.9027 34.3338C13.9027 34.6778 13.8594 34.9713 13.7729 35.2143C13.6864 35.4563 13.5613 35.6412 13.3975 35.7689C13.2338 35.8956 13.0355 35.9589 12.8028 35.9589ZM12.8028 35.619C13.0335 35.619 13.2127 35.5078 13.3404 35.2854C13.4681 35.0629 13.5319 34.7457 13.5319 34.3338C13.5319 34.0598 13.5026 33.8266 13.4439 33.634C13.3862 33.4414 13.3028 33.2946 13.1936 33.1937C13.0855 33.0928 12.9552 33.0423 12.8028 33.0423C12.5742 33.0423 12.3955 33.1551 12.2667 33.3806C12.138 33.6051 12.0736 33.9229 12.0736 34.3338C12.0736 34.6077 12.1025 34.8405 12.1601 35.032C12.2178 35.2236 12.3007 35.3693 12.4089 35.4692C12.518 35.5691 12.6493 35.619 12.8028 35.619ZM14.5453 35.9156V32.7519H14.9284V34.3214H14.9655L16.3867 32.7519H16.8872L15.5587 34.1793L16.8872 35.9156H16.4238L15.3239 34.445L14.9284 34.8899V35.9156H14.5453Z" fill="#9AA2AC"/>
<path d="M8 43.101H231.411" stroke="#EBEBEB" stroke-width="0.466088" stroke-dasharray="3.73 3.73"/>
<path d="M8 60.1913H231.411" stroke="#EBEBEB" stroke-width="0.466088" stroke-dasharray="3.73 3.73"/>
<path d="M8 77.2816H231.411" stroke="#EBEBEB" stroke-width="0.466088" stroke-dasharray="3.73 3.73"/>
<path d="M8 94.3718H231.411" stroke="#EBEBEB" stroke-width="0.466088" stroke-dasharray="3.73 3.73"/>
<path d="M33.7812 114.528V111.364H35.6906V111.704H34.1643V112.773H35.5917V113.113H34.1643V114.188H35.7153V114.528H33.7812ZM36.6962 113.1V114.528H36.3317V112.155H36.6839V112.526H36.7148C36.7704 112.405 36.8548 112.309 36.9681 112.235C37.0814 112.161 37.2276 112.124 37.4068 112.124C37.5675 112.124 37.7081 112.157 37.8286 112.223C37.9491 112.288 38.0428 112.387 38.1097 112.52C38.1767 112.651 38.2101 112.818 38.2101 113.02V114.528H37.8456V113.045C37.8456 112.858 37.7972 112.713 37.7003 112.609C37.6035 112.504 37.4707 112.452 37.3018 112.452C37.1854 112.452 37.0814 112.477 36.9897 112.527C36.8991 112.578 36.8275 112.651 36.775 112.748C36.7225 112.845 36.6962 112.962 36.6962 113.1ZM39.8712 114.577C39.6425 114.577 39.4453 114.527 39.2795 114.426C39.1147 114.324 38.9876 114.182 38.898 114C38.8094 113.816 38.7651 113.603 38.7651 113.36C38.7651 113.117 38.8094 112.903 38.898 112.717C38.9876 112.531 39.1122 112.386 39.2718 112.282C39.4325 112.177 39.6199 112.124 39.8341 112.124C39.9577 112.124 40.0797 112.145 40.2002 112.186C40.3207 112.227 40.4304 112.294 40.5293 112.387C40.6281 112.478 40.7069 112.6 40.7656 112.751C40.8243 112.903 40.8537 113.089 40.8537 113.311V113.465H39.0246V113.15H40.4829C40.4829 113.016 40.4561 112.897 40.4026 112.792C40.3501 112.686 40.2749 112.604 40.177 112.543C40.0802 112.482 39.9659 112.452 39.8341 112.452C39.6889 112.452 39.5632 112.488 39.4572 112.56C39.3521 112.631 39.2713 112.724 39.2146 112.838C39.158 112.952 39.1297 113.075 39.1297 113.206V113.416C39.1297 113.595 39.1606 113.747 39.2224 113.871C39.2852 113.995 39.3722 114.089 39.4834 114.154C39.5947 114.218 39.7239 114.25 39.8712 114.25C39.967 114.25 40.0535 114.236 40.1307 114.21C40.209 114.182 40.2764 114.141 40.3331 114.086C40.3897 114.03 40.4335 113.961 40.4644 113.879L40.8166 113.978C40.7795 114.097 40.7172 114.202 40.6297 114.293C40.5421 114.383 40.434 114.453 40.3053 114.503C40.1765 114.553 40.0318 114.577 39.8712 114.577Z" fill="#9AA2AC"/>
<rect x="28.8184" y="78.8334" width="7.4574" height="26.1009" rx="0.932175" fill="#61C453"/>
<rect x="37.5195" y="64.8513" width="7.4574" height="40.0835" rx="0.932175" fill="#FFD600"/>
<path d="M63.7506 114.529V111.365H65.6476V111.705H64.1337V112.774H65.5054V113.114H64.1337V114.529H63.7506ZM67.075 114.579C66.8463 114.579 66.6491 114.528 66.4833 114.427C66.3185 114.325 66.1913 114.183 66.1017 114.001C66.0132 113.818 65.9689 113.604 65.9689 113.361C65.9689 113.118 66.0132 112.904 66.1017 112.719C66.1913 112.532 66.316 112.387 66.4756 112.283C66.6362 112.178 66.8237 112.126 67.0379 112.126C67.1615 112.126 67.2835 112.146 67.404 112.187C67.5245 112.229 67.6342 112.295 67.733 112.388C67.8319 112.48 67.9107 112.601 67.9694 112.753C68.0281 112.904 68.0575 113.091 68.0575 113.312V113.466H66.2284V113.151H67.6867C67.6867 113.017 67.6599 112.898 67.6064 112.793C67.5538 112.688 67.4787 112.605 67.3808 112.544C67.284 112.483 67.1697 112.453 67.0379 112.453C66.8927 112.453 66.767 112.489 66.661 112.561C66.5559 112.632 66.4751 112.725 66.4184 112.839C66.3618 112.954 66.3335 113.076 66.3335 113.207V113.417C66.3335 113.596 66.3644 113.748 66.4261 113.873C66.489 113.996 66.576 114.091 66.6872 114.155C66.7984 114.219 66.9277 114.251 67.075 114.251C67.1707 114.251 67.2572 114.238 67.3345 114.211C67.4128 114.183 67.4802 114.142 67.5369 114.087C67.5935 114.032 67.6373 113.963 67.6682 113.88L68.0204 113.979C67.9833 114.099 67.921 114.204 67.8335 114.294C67.7459 114.384 67.6378 114.454 67.509 114.505C67.3803 114.554 67.2356 114.579 67.075 114.579ZM68.6615 114.529V111.365H69.026V112.533H69.0569C69.0837 112.492 69.1208 112.44 69.1682 112.376C69.2166 112.311 69.2856 112.253 69.3752 112.203C69.4658 112.151 69.5883 112.126 69.7428 112.126C69.9426 112.126 70.1187 112.175 70.2711 112.275C70.4236 112.375 70.5425 112.517 70.628 112.7C70.7135 112.884 70.7562 113.1 70.7562 113.349C70.7562 113.6 70.7135 113.818 70.628 114.002C70.5425 114.186 70.4241 114.328 70.2727 114.429C70.1213 114.529 69.9467 114.579 69.749 114.579C69.5966 114.579 69.4745 114.553 69.3829 114.503C69.2912 114.451 69.2207 114.393 69.1713 114.328C69.1218 114.263 69.0837 114.208 69.0569 114.165H69.0137V114.529H68.6615ZM69.0199 113.343C69.0199 113.522 69.0461 113.68 69.0986 113.817C69.1512 113.953 69.2279 114.06 69.3288 114.137C69.4297 114.213 69.5533 114.251 69.6996 114.251C69.852 114.251 69.9792 114.211 70.0811 114.131C70.1841 114.049 70.2614 113.94 70.3129 113.803C70.3654 113.665 70.3916 113.512 70.3916 113.343C70.3916 113.176 70.3659 113.026 70.3144 112.892C70.2639 112.757 70.1872 112.65 70.0842 112.572C69.9823 112.493 69.8541 112.453 69.6996 112.453C69.5513 112.453 69.4267 112.491 69.3257 112.566C69.2248 112.64 69.1486 112.744 69.0971 112.878C69.0456 113.011 69.0199 113.166 69.0199 113.343Z" fill="#9AA2AC"/>
<rect x="59.8906" y="71.3787" width="7.4574" height="33.5583" rx="0.932175" fill="#61C453"/>
<rect x="68.5918" y="58.9492" width="7.4574" height="45.9873" rx="0.932175" fill="#FFD600"/>
<path d="M95.1046 111.365H95.5618L96.637 113.991H96.6741L97.7493 111.365H98.2065V114.529H97.8481V112.125H97.8172L96.8286 114.529H96.4825L95.4939 112.125H95.463V114.529H95.1046V111.365ZM99.6235 114.584C99.4731 114.584 99.3367 114.556 99.2141 114.499C99.0916 114.441 98.9943 114.359 98.9222 114.25C98.8501 114.141 98.814 114.009 98.814 113.855C98.814 113.719 98.8408 113.609 98.8944 113.524C98.9479 113.439 99.0195 113.372 99.1091 113.324C99.1987 113.275 99.2975 113.239 99.4057 113.215C99.5148 113.191 99.6245 113.171 99.7347 113.157C99.8789 113.138 99.9958 113.124 100.085 113.115C100.176 113.105 100.242 113.088 100.283 113.064C100.325 113.04 100.346 112.999 100.346 112.94V112.928C100.346 112.776 100.305 112.657 100.221 112.573C100.139 112.488 100.014 112.446 99.8459 112.446C99.6719 112.446 99.5354 112.484 99.4366 112.56C99.3377 112.637 99.2682 112.718 99.228 112.805L98.882 112.681C98.9438 112.537 99.0262 112.424 99.1292 112.344C99.2332 112.263 99.3465 112.206 99.469 112.174C99.5926 112.141 99.7141 112.125 99.8336 112.125C99.9098 112.125 99.9973 112.134 100.096 112.153C100.196 112.17 100.292 112.207 100.385 112.262C100.479 112.318 100.557 112.402 100.618 112.514C100.68 112.626 100.711 112.777 100.711 112.965V114.529H100.346V114.207H100.328C100.303 114.259 100.262 114.314 100.204 114.372C100.147 114.431 100.07 114.481 99.9742 114.522C99.8784 114.564 99.7615 114.584 99.6235 114.584ZM99.6791 114.257C99.8233 114.257 99.9448 114.228 100.044 114.172C100.144 114.115 100.219 114.042 100.269 113.952C100.321 113.863 100.346 113.768 100.346 113.67V113.336C100.331 113.354 100.297 113.371 100.245 113.387C100.193 113.401 100.133 113.414 100.065 113.426C99.9984 113.436 99.933 113.445 99.8691 113.453C99.8063 113.461 99.7553 113.467 99.7162 113.472C99.6214 113.484 99.5329 113.504 99.4505 113.532C99.3691 113.559 99.3032 113.6 99.2527 113.654C99.2033 113.708 99.1786 113.781 99.1786 113.874C99.1786 114 99.2255 114.096 99.3192 114.161C99.4139 114.225 99.5339 114.257 99.6791 114.257ZM101.376 114.529V112.156H101.729V112.514H101.753C101.797 112.397 101.875 112.301 101.988 112.228C102.101 112.155 102.229 112.119 102.371 112.119C102.398 112.119 102.432 112.119 102.472 112.12C102.512 112.121 102.542 112.123 102.563 112.125V112.496C102.551 112.492 102.522 112.488 102.478 112.482C102.435 112.474 102.389 112.471 102.34 112.471C102.225 112.471 102.122 112.495 102.031 112.543C101.942 112.591 101.871 112.657 101.818 112.741C101.767 112.825 101.741 112.92 101.741 113.027V114.529H101.376Z" fill="#9AA2AC"/>
<rect x="90.9629" y="67.338" width="7.4574" height="37.5977" rx="0.932175" fill="#61C453"/>
<rect x="99.6641" y="53.6658" width="7.4574" height="51.2696" rx="0.932175" fill="#FFD600"/>
<path d="M127.336 114.528H126.934L128.096 111.364H128.491L129.653 114.528H129.251L128.306 111.865H128.281L127.336 114.528ZM127.484 113.292H129.103V113.632H127.484V113.292ZM130.146 114.528V111.364H130.51V112.532H130.541C130.568 112.491 130.605 112.438 130.653 112.375C130.701 112.31 130.77 112.252 130.86 112.202C130.95 112.15 131.073 112.124 131.227 112.124C131.427 112.124 131.603 112.174 131.756 112.274C131.908 112.374 132.027 112.516 132.112 112.699C132.198 112.882 132.241 113.099 132.241 113.348C132.241 113.599 132.198 113.817 132.112 114.001C132.027 114.185 131.909 114.327 131.757 114.428C131.606 114.528 131.431 114.578 131.233 114.578C131.081 114.578 130.959 114.552 130.867 114.502C130.776 114.45 130.705 114.392 130.656 114.327C130.606 114.261 130.568 114.207 130.541 114.164H130.498V114.528H130.146ZM130.504 113.342C130.504 113.521 130.531 113.679 130.583 113.816C130.636 113.952 130.712 114.058 130.813 114.136C130.914 114.212 131.038 114.25 131.184 114.25C131.336 114.25 131.464 114.21 131.566 114.13C131.669 114.048 131.746 113.939 131.797 113.802C131.85 113.664 131.876 113.511 131.876 113.342C131.876 113.175 131.85 113.024 131.799 112.891C131.748 112.756 131.672 112.649 131.569 112.571C131.467 112.492 131.338 112.452 131.184 112.452C131.036 112.452 130.911 112.489 130.81 112.565C130.709 112.639 130.633 112.743 130.582 112.877C130.53 113.01 130.504 113.165 130.504 113.342ZM132.798 114.528V112.155H133.151V112.514H133.175C133.219 112.396 133.297 112.301 133.41 112.228C133.523 112.155 133.651 112.118 133.793 112.118C133.82 112.118 133.853 112.119 133.894 112.12C133.934 112.121 133.964 112.122 133.985 112.124V112.495C133.972 112.492 133.944 112.487 133.9 112.481C133.857 112.474 133.811 112.47 133.762 112.47C133.647 112.47 133.544 112.495 133.453 112.543C133.364 112.59 133.293 112.656 133.24 112.741C133.189 112.824 133.163 112.919 133.163 113.027V114.528H132.798Z" fill="#9AA2AC"/>
<rect x="122.035" y="55.2189" width="7.4574" height="49.716" rx="0.932175" fill="#61C453"/>
<rect x="130.736" y="36.5745" width="7.4574" height="68.3595" rx="0.932175" fill="#FFD600"/>
<path d="M158.011 111.365H158.468L159.544 113.991H159.581L160.656 111.365H161.113V114.529H160.755V112.125H160.724L159.735 114.529H159.389L158.401 112.125H158.37V114.529H158.011V111.365ZM162.53 114.584C162.38 114.584 162.243 114.556 162.121 114.499C161.998 114.441 161.901 114.359 161.829 114.25C161.757 114.141 161.721 114.009 161.721 113.855C161.721 113.719 161.747 113.609 161.801 113.524C161.855 113.439 161.926 113.372 162.016 113.324C162.105 113.275 162.204 113.239 162.312 113.215C162.422 113.191 162.531 113.171 162.641 113.157C162.786 113.138 162.902 113.124 162.992 113.115C163.083 113.105 163.149 113.088 163.19 113.064C163.232 113.04 163.253 112.999 163.253 112.94V112.928C163.253 112.776 163.211 112.657 163.128 112.573C163.046 112.488 162.92 112.446 162.753 112.446C162.579 112.446 162.442 112.484 162.343 112.56C162.244 112.637 162.175 112.718 162.135 112.805L161.789 112.681C161.85 112.537 161.933 112.424 162.036 112.344C162.14 112.263 162.253 112.206 162.376 112.174C162.499 112.141 162.621 112.125 162.74 112.125C162.816 112.125 162.904 112.134 163.003 112.153C163.103 112.17 163.199 112.207 163.292 112.262C163.385 112.318 163.463 112.402 163.525 112.514C163.587 112.626 163.618 112.777 163.618 112.965V114.529H163.253V114.207H163.235C163.21 114.259 163.169 114.314 163.111 114.372C163.053 114.431 162.977 114.481 162.881 114.522C162.785 114.564 162.668 114.584 162.53 114.584ZM162.586 114.257C162.73 114.257 162.851 114.228 162.95 114.172C163.05 114.115 163.125 114.042 163.176 113.952C163.227 113.863 163.253 113.768 163.253 113.67V113.336C163.238 113.354 163.204 113.371 163.151 113.387C163.1 113.401 163.04 113.414 162.972 113.426C162.905 113.436 162.84 113.445 162.776 113.453C162.713 113.461 162.662 113.467 162.623 113.472C162.528 113.484 162.44 113.504 162.357 113.532C162.276 113.559 162.21 113.6 162.159 113.654C162.11 113.708 162.085 113.781 162.085 113.874C162.085 114 162.132 114.096 162.226 114.161C162.321 114.225 162.441 114.257 162.586 114.257ZM164.433 115.418C164.371 115.418 164.316 115.413 164.268 115.403C164.219 115.394 164.186 115.384 164.167 115.375L164.26 115.054C164.349 115.076 164.427 115.085 164.495 115.078C164.563 115.072 164.623 115.042 164.675 114.987C164.729 114.934 164.778 114.847 164.822 114.726L164.89 114.541L164.013 112.156H164.408L165.063 114.047H165.088L165.743 112.156H166.138L165.131 114.875C165.086 114.997 165.03 115.099 164.963 115.179C164.896 115.26 164.818 115.32 164.73 115.36C164.642 115.399 164.543 115.418 164.433 115.418Z" fill="#9AA2AC"/>
<rect x="153.107" y="53.666" width="7.4574" height="51.2696" rx="0.932175" fill="#61C453"/>
<rect x="161.809" y="69.202" width="7.4574" height="35.7334" rx="0.932175" fill="#FFD600"/>
<path d="M190.029 111.364H190.413V113.626C190.413 113.828 190.375 113.999 190.301 114.14C190.227 114.281 190.123 114.388 189.988 114.461C189.853 114.535 189.694 114.571 189.51 114.571C189.337 114.571 189.183 114.54 189.048 114.477C188.914 114.413 188.807 114.322 188.73 114.205C188.653 114.088 188.614 113.948 188.614 113.786H188.991C188.991 113.876 189.013 113.954 189.058 114.021C189.103 114.087 189.165 114.139 189.243 114.176C189.321 114.213 189.41 114.231 189.51 114.231C189.621 114.231 189.714 114.208 189.792 114.162C189.869 114.115 189.927 114.047 189.968 113.958C190.009 113.867 190.029 113.757 190.029 113.626V111.364ZM192.626 113.558V112.155H192.991V114.528H192.626V114.126H192.601C192.546 114.247 192.459 114.349 192.342 114.434C192.225 114.517 192.076 114.559 191.897 114.559C191.749 114.559 191.617 114.526 191.502 114.461C191.386 114.396 191.296 114.297 191.23 114.165C191.164 114.032 191.131 113.865 191.131 113.663V112.155H191.495V113.638C191.495 113.811 191.544 113.949 191.641 114.052C191.738 114.155 191.863 114.207 192.014 114.207C192.105 114.207 192.197 114.183 192.291 114.137C192.386 114.091 192.465 114.02 192.529 113.924C192.594 113.828 192.626 113.706 192.626 113.558ZM194.023 113.1V114.528H193.659V112.155H194.011V112.526H194.042C194.097 112.405 194.182 112.309 194.295 112.235C194.408 112.161 194.555 112.124 194.734 112.124C194.894 112.124 195.035 112.157 195.155 112.223C195.276 112.288 195.37 112.387 195.437 112.52C195.504 112.651 195.537 112.818 195.537 113.02V114.528H195.172V113.045C195.172 112.858 195.124 112.713 195.027 112.609C194.93 112.504 194.798 112.452 194.629 112.452C194.512 112.452 194.408 112.477 194.317 112.527C194.226 112.578 194.154 112.651 194.102 112.748C194.049 112.845 194.023 112.962 194.023 113.1Z" fill="#9AA2AC"/>
<rect x="184.18" y="85.981" width="7.4574" height="18.9542" rx="0.932175" fill="#61C453"/>
<rect x="192.881" y="64.8513" width="7.4574" height="40.0835" rx="0.932175" fill="#FFD600"/>
<path d="M221.926 111.365H222.309V113.626C222.309 113.828 222.272 114 222.198 114.141C222.124 114.282 222.019 114.389 221.884 114.462C221.75 114.535 221.59 114.572 221.407 114.572C221.234 114.572 221.08 114.54 220.945 114.478C220.81 114.414 220.704 114.323 220.627 114.206C220.55 114.088 220.511 113.949 220.511 113.787H220.888C220.888 113.877 220.91 113.955 220.955 114.022C221 114.088 221.062 114.139 221.14 114.176C221.218 114.213 221.307 114.232 221.407 114.232C221.517 114.232 221.611 114.209 221.688 114.162C221.766 114.116 221.824 114.048 221.864 113.958C221.906 113.868 221.926 113.757 221.926 113.626V111.365ZM224.523 113.558V112.156H224.888V114.529H224.523V114.127H224.498C224.443 114.247 224.356 114.35 224.239 114.434C224.121 114.518 223.973 114.559 223.794 114.559C223.646 114.559 223.514 114.527 223.398 114.462C223.283 114.396 223.192 114.297 223.127 114.165C223.061 114.033 223.028 113.865 223.028 113.663V112.156H223.392V113.639C223.392 113.812 223.441 113.95 223.537 114.053C223.635 114.156 223.76 114.207 223.911 114.207C224.002 114.207 224.094 114.184 224.188 114.138C224.283 114.091 224.362 114.02 224.426 113.924C224.491 113.829 224.523 113.707 224.523 113.558ZM225.92 111.365V114.529H225.555V111.365H225.92Z" fill="#9AA2AC"/>
<rect x="215.254" y="53.666" width="7.4574" height="51.2696" rx="0.932175" fill="#61C453"/>
<rect x="223.955" y="73.8627" width="7.4574" height="31.0725" rx="0.932175" fill="#FFD600"/>
<g filter="url(#filter0_b_1633_8528)">
<rect x="139.436" y="36.5751" width="36.3548" height="19.8864" rx="2.4858" fill="#232F4E" fill-opacity="0.32"/>
</g>
<path d="M143.884 44.3579C143.705 44.3579 143.551 44.3082 143.423 44.2088C143.295 44.1093 143.209 43.9763 143.164 43.8098L143.438 43.7445C143.46 43.8427 143.512 43.926 143.593 43.9944C143.675 44.0615 143.771 44.095 143.882 44.095C143.951 44.095 144.022 44.0782 144.093 44.0447C144.165 44.0111 144.221 43.9558 144.262 43.8788C144.29 43.8253 144.305 43.7675 144.309 43.7054C144.314 43.642 144.316 43.5662 144.316 43.4779V41.6192H144.592V43.4779C144.592 43.5525 144.592 43.6202 144.59 43.6811C144.589 43.7408 144.582 43.7986 144.57 43.8545C144.559 43.9092 144.537 43.9645 144.505 44.0205C144.44 44.1336 144.353 44.2181 144.244 44.274C144.135 44.3299 144.015 44.3579 143.884 44.3579ZM145.925 44.3542C145.804 44.3542 145.698 44.3355 145.608 44.2982C145.518 44.261 145.442 44.2106 145.378 44.1472C145.316 44.0838 145.266 44.0118 145.227 43.931C145.189 43.8489 145.161 43.7625 145.144 43.6718C145.126 43.5798 145.117 43.4885 145.117 43.3978V42.2903H145.393V43.3176C145.393 43.4282 145.404 43.5307 145.425 43.6252C145.446 43.7197 145.48 43.8023 145.526 43.8732C145.573 43.9428 145.633 43.9968 145.707 44.0354C145.781 44.0739 145.871 44.0932 145.977 44.0932C146.074 44.0932 146.159 44.0764 146.232 44.0428C146.307 44.0093 146.369 43.9614 146.419 43.8993C146.47 43.8359 146.508 43.7594 146.534 43.67C146.56 43.5792 146.573 43.4773 146.573 43.3642L146.767 43.4071C146.767 43.6134 146.731 43.7868 146.659 43.9272C146.587 44.0677 146.488 44.1739 146.361 44.246C146.234 44.3181 146.089 44.3542 145.925 44.3542ZM146.601 44.3038V43.8079H146.573V42.2903H146.848V44.3038H146.601ZM148.221 44.3598C148.024 44.3598 147.854 44.3163 147.71 44.2293C147.567 44.1423 147.456 44.0198 147.376 43.862C147.297 43.7041 147.257 43.5189 147.257 43.3064C147.257 43.0864 147.296 42.8962 147.374 42.7359C147.453 42.5756 147.563 42.4519 147.704 42.3649C147.847 42.2779 148.016 42.2344 148.209 42.2344C148.408 42.2344 148.578 42.2804 148.718 42.3724C148.859 42.4631 148.965 42.5936 149.037 42.7639C149.109 42.9342 149.142 43.1374 149.136 43.3735H148.856V43.2766C148.851 43.0156 148.795 42.8186 148.687 42.6856C148.58 42.5526 148.423 42.4861 148.217 42.4861C148.001 42.4861 147.835 42.5563 147.719 42.6968C147.605 42.8372 147.548 43.0373 147.548 43.2971C147.548 43.5506 147.605 43.7476 147.719 43.8881C147.835 44.0273 147.998 44.0969 148.209 44.0969C148.354 44.0969 148.479 44.064 148.586 43.9981C148.694 43.931 148.779 43.8346 148.841 43.7091L149.097 43.8079C149.017 43.9832 148.9 44.1193 148.745 44.2162C148.59 44.3119 148.416 44.3598 148.221 44.3598ZM147.451 43.3735V43.1442H148.989V43.3735H147.451ZM150.021 44.3038L149.29 42.2903H149.568L150.163 43.9459L150.754 42.2903H151.036L150.305 44.3038H150.021ZM152.15 44.3598C151.953 44.3598 151.783 44.3163 151.639 44.2293C151.496 44.1423 151.385 44.0198 151.305 43.862C151.225 43.7041 151.186 43.5189 151.186 43.3064C151.186 43.0864 151.225 42.8962 151.303 42.7359C151.381 42.5756 151.491 42.4519 151.633 42.3649C151.776 42.2779 151.945 42.2344 152.138 42.2344C152.337 42.2344 152.507 42.2804 152.647 42.3724C152.788 42.4631 152.894 42.5936 152.966 42.7639C153.038 42.9342 153.071 43.1374 153.065 43.3735H152.785V43.2766C152.78 43.0156 152.724 42.8186 152.616 42.6856C152.509 42.5526 152.352 42.4861 152.146 42.4861C151.93 42.4861 151.764 42.5563 151.648 42.6968C151.534 42.8372 151.477 43.0373 151.477 43.2971C151.477 43.5506 151.534 43.7476 151.648 43.8881C151.764 44.0273 151.927 44.0969 152.138 44.0969C152.283 44.0969 152.408 44.064 152.515 43.9981C152.623 43.931 152.708 43.8346 152.77 43.7091L153.026 43.8079C152.946 43.9832 152.829 44.1193 152.673 44.2162C152.519 44.3119 152.345 44.3598 152.15 44.3598ZM151.38 43.3735V43.1442H152.918V43.3735H151.38ZM154.23 44.3579C153.994 44.3579 153.799 44.3069 153.647 44.205C153.495 44.1031 153.402 43.9614 153.367 43.78L153.647 43.7333C153.676 43.8477 153.744 43.939 153.85 44.0074C153.957 44.0745 154.088 44.1081 154.245 44.1081C154.398 44.1081 154.518 44.0764 154.607 44.013C154.695 43.9484 154.739 43.8607 154.739 43.7501C154.739 43.688 154.725 43.6376 154.696 43.5991C154.669 43.5593 154.612 43.5227 154.526 43.4891C154.441 43.4556 154.313 43.4158 154.142 43.3698C153.96 43.3201 153.817 43.2704 153.714 43.2206C153.61 43.1709 153.537 43.1138 153.494 43.0491C153.45 42.9833 153.428 42.9031 153.428 42.8086C153.428 42.6943 153.461 42.5942 153.525 42.5085C153.59 42.4215 153.679 42.3543 153.794 42.3071C153.908 42.2586 154.041 42.2344 154.193 42.2344C154.344 42.2344 154.48 42.2593 154.599 42.309C154.72 42.3575 154.817 42.4258 154.89 42.5141C154.963 42.6023 155.007 42.7048 155.021 42.8217L154.741 42.872C154.722 42.7539 154.663 42.6607 154.564 42.5924C154.466 42.5228 154.341 42.4867 154.189 42.4842C154.046 42.4805 153.93 42.5078 153.84 42.5663C153.751 42.6234 153.706 42.6999 153.706 42.7956C153.706 42.849 153.722 42.895 153.755 42.9335C153.787 42.9708 153.845 43.0062 153.93 43.0398C154.016 43.0734 154.137 43.11 154.295 43.1498C154.481 43.197 154.626 43.2467 154.732 43.2989C154.837 43.3511 154.912 43.4127 154.957 43.4835C155.002 43.5544 155.024 43.642 155.024 43.7464C155.024 43.9366 154.953 44.0863 154.812 44.1957C154.671 44.3038 154.477 44.3579 154.23 44.3579Z" fill="#232F4E"/>
<path d="M144.452 51.3924V50.8108H144.971V51.3924H144.452ZM144.452 47.4077V46.8235H144.971V47.4077H144.452ZM144.738 50.9723C144.489 50.9723 144.267 50.9276 144.071 50.8381C143.876 50.7486 143.715 50.6218 143.589 50.4578C143.465 50.2921 143.384 50.0965 143.346 49.8711L143.86 49.7891C143.91 50.0012 144.016 50.1703 144.178 50.2962C144.341 50.4205 144.535 50.4826 144.762 50.4826C144.988 50.4826 145.171 50.4288 145.312 50.3211C145.454 50.2133 145.526 50.0758 145.526 49.9084C145.526 49.7891 145.489 49.6922 145.416 49.6176C145.345 49.543 145.228 49.48 145.066 49.4287L144.225 49.1701C143.728 49.016 143.48 48.7177 143.48 48.2752C143.48 48.0664 143.529 47.885 143.629 47.7309C143.73 47.5767 143.872 47.4574 144.054 47.3729C144.236 47.2884 144.449 47.2461 144.693 47.2461C144.926 47.2494 145.134 47.2925 145.314 47.3754C145.497 47.4582 145.647 47.5776 145.767 47.7333C145.888 47.8891 145.971 48.0764 146.018 48.2951L145.488 48.3896C145.465 48.262 145.416 48.1493 145.342 48.0515C145.269 47.9537 145.176 47.8775 145.063 47.8228C144.952 47.7681 144.827 47.74 144.688 47.7383C144.557 47.735 144.439 47.7557 144.335 47.8005C144.232 47.8435 144.15 47.9049 144.089 47.9844C144.029 48.0623 143.999 48.151 143.999 48.2504C143.999 48.3598 144.042 48.4526 144.126 48.5288C144.211 48.605 144.344 48.6705 144.526 48.7252L145.185 48.9166C145.487 49.0061 145.705 49.1262 145.839 49.277C145.973 49.4278 146.04 49.6284 146.04 49.8786C146.04 50.0973 145.985 50.2887 145.876 50.4528C145.768 50.6152 145.617 50.7428 145.421 50.8356C145.226 50.9268 144.998 50.9723 144.738 50.9723ZM147.195 50.8978V47.8899L146.521 48.3001V47.7209L147.195 47.3182H147.724V50.8978H147.195ZM148.569 50.8953L148.571 50.4329L150.13 49.0359C150.256 48.9249 150.341 48.8188 150.386 48.7177C150.432 48.6166 150.455 48.5155 150.455 48.4145C150.455 48.2868 150.427 48.1725 150.371 48.0714C150.315 47.9687 150.237 47.8875 150.137 47.8278C150.038 47.7681 149.923 47.7383 149.794 47.7383C149.662 47.7383 149.543 47.7698 149.439 47.8328C149.336 47.8941 149.256 47.9761 149.198 48.0789C149.14 48.1816 149.111 48.2926 149.113 48.412H148.581C148.581 48.18 148.633 47.977 148.738 47.8029C148.844 47.6273 148.989 47.4906 149.173 47.3928C149.357 47.2934 149.567 47.2436 149.804 47.2436C150.03 47.2436 150.232 47.295 150.411 47.3978C150.59 47.4988 150.731 47.6381 150.833 47.8154C150.938 47.9927 150.99 48.1949 150.99 48.4219C150.99 48.586 150.968 48.7252 150.925 48.8395C150.882 48.9539 150.818 49.0599 150.731 49.1577C150.645 49.2555 150.537 49.3615 150.408 49.4759L149.205 50.5498L149.148 50.4006H150.99V50.8953H148.569ZM151.536 51.4919L151.569 51.2607C151.64 51.2657 151.695 51.2524 151.735 51.2209C151.775 51.1894 151.802 51.1455 151.815 51.0892C151.828 51.0328 151.831 50.969 151.822 50.8978H151.536V50.2987H152.086V50.9475C152.086 51.143 152.038 51.2905 151.944 51.39C151.851 51.4894 151.715 51.5234 151.536 51.4919ZM154.544 50.8978V50.2738H152.929V49.7816L154.092 47.3182H154.686L153.523 49.7816H154.544V48.8122H155.071V49.7816H155.427V50.2738H155.071V50.8978H154.544ZM157.025 50.9649C156.848 50.9649 156.682 50.9317 156.526 50.8655C156.37 50.7975 156.235 50.7014 156.121 50.5771C156.008 50.4528 155.926 50.3061 155.874 50.1371L156.377 49.9979C156.425 50.152 156.508 50.2705 156.628 50.3534C156.747 50.4346 156.88 50.4744 157.025 50.4727C157.156 50.471 157.271 50.4404 157.371 50.3807C157.47 50.3211 157.548 50.2407 157.605 50.1396C157.661 50.0369 157.689 49.9192 157.689 49.7866C157.689 49.5877 157.627 49.4237 157.503 49.2944C157.38 49.1652 157.219 49.1005 157.02 49.1005C156.964 49.1005 156.906 49.1088 156.846 49.1254C156.788 49.142 156.734 49.1635 156.682 49.19L156.439 48.7799L157.702 47.6637L157.756 47.8129H156.016V47.3182H158.169V47.8129L157.12 48.8221L157.115 48.6531C157.34 48.6531 157.536 48.7036 157.702 48.8047C157.867 48.9042 157.995 49.04 158.084 49.2124C158.175 49.3831 158.221 49.5745 158.221 49.7866C158.221 50.0153 158.167 50.2183 158.059 50.3956C157.953 50.573 157.81 50.7122 157.629 50.8132C157.45 50.9143 157.249 50.9649 157.025 50.9649ZM159.493 50.8978V47.8899L158.819 48.3001V47.7209L159.493 47.3182H160.022V50.8978H159.493ZM160.857 50.8978V50.3484H161.406V50.8978H160.857ZM163.437 50.9723C163.194 50.9723 162.978 50.9193 162.791 50.8132C162.604 50.7055 162.456 50.558 162.349 50.3708C162.243 50.1835 162.19 49.9681 162.19 49.7245V48.4915C162.19 48.2479 162.243 48.0325 162.349 47.8452C162.456 47.6579 162.604 47.5113 162.791 47.4052C162.978 47.2975 163.194 47.2436 163.437 47.2436C163.681 47.2436 163.896 47.2975 164.084 47.4052C164.271 47.5113 164.418 47.6579 164.524 47.8452C164.631 48.0325 164.685 48.2479 164.685 48.4915V49.7245C164.685 49.9681 164.631 50.1835 164.524 50.3708C164.418 50.558 164.271 50.7055 164.084 50.8132C163.896 50.9193 163.681 50.9723 163.437 50.9723ZM163.437 50.4752C163.57 50.4752 163.69 50.4437 163.798 50.3807C163.907 50.3161 163.994 50.2299 164.059 50.1222C164.124 50.0128 164.156 49.891 164.156 49.7568V48.4542C164.156 48.3216 164.124 48.2015 164.059 48.0938C163.994 47.9844 163.907 47.8982 163.798 47.8353C163.69 47.7706 163.57 47.7383 163.437 47.7383C163.305 47.7383 163.184 47.7706 163.075 47.8353C162.967 47.8982 162.881 47.9844 162.816 48.0938C162.751 48.2015 162.719 48.3216 162.719 48.4542V49.7568C162.719 49.891 162.751 50.0128 162.816 50.1222C162.881 50.2299 162.967 50.3161 163.075 50.3807C163.184 50.4437 163.305 50.4752 163.437 50.4752ZM166.543 47.2461C166.773 47.2461 166.981 47.3016 167.167 47.4127C167.352 47.522 167.5 47.6729 167.609 47.8651C167.718 48.0573 167.773 48.2769 167.773 48.5238V49.6623C167.773 49.9242 167.718 50.1537 167.609 50.3509C167.501 50.5464 167.351 50.6989 167.157 50.8083C166.964 50.9177 166.742 50.9723 166.491 50.9723C166.302 50.9723 166.124 50.9367 165.959 50.8655C165.793 50.7942 165.649 50.6881 165.526 50.5473L165.909 50.1918C165.977 50.2796 166.062 50.3501 166.165 50.4031C166.268 50.4561 166.376 50.4826 166.491 50.4826C166.638 50.4826 166.768 50.447 166.881 50.3757C166.995 50.3045 167.084 50.2117 167.147 50.0973C167.21 49.983 167.241 49.8604 167.241 49.7294V49.0732L167.346 49.1875C167.243 49.3218 167.115 49.4278 166.963 49.5057C166.81 49.5836 166.647 49.6226 166.473 49.6226C166.249 49.6226 166.051 49.5712 165.877 49.4684C165.703 49.3657 165.565 49.2257 165.464 49.0483C165.363 48.871 165.312 48.6705 165.312 48.4468C165.312 48.223 165.369 48.0209 165.481 47.8402C165.594 47.6596 165.743 47.5154 165.929 47.4077C166.114 47.3 166.319 47.2461 166.543 47.2461ZM166.543 47.7483C166.413 47.7483 166.295 47.7797 166.187 47.8427C166.081 47.904 165.997 47.9877 165.934 48.0938C165.871 48.1998 165.839 48.3175 165.839 48.4468C165.839 48.576 165.871 48.6945 165.934 48.8022C165.997 48.9083 166.081 48.9928 166.187 49.0558C166.293 49.1188 166.411 49.1502 166.54 49.1502C166.669 49.1502 166.787 49.1188 166.893 49.0558C166.999 48.9928 167.084 48.9083 167.147 48.8022C167.21 48.6945 167.241 48.576 167.241 48.4468C167.241 48.3192 167.21 48.2023 167.147 48.0963C167.085 47.9902 167.002 47.9057 166.896 47.8427C166.79 47.7797 166.672 47.7483 166.543 47.7483Z" fill="#232F4E"/>
<g clip-path="url(#clip0_1633_8528)">
<path d="M133.619 44.5102C133.415 44.3511 133.117 44.4965 133.117 44.755V48.2784C133.117 48.573 133.489 48.7023 133.672 48.4711L134.54 47.3732C134.572 47.3327 134.612 47.3 134.659 47.2776C134.705 47.2551 134.756 47.2435 134.808 47.2435H136.227C136.523 47.2435 136.652 46.869 136.418 46.6875L133.619 44.51V44.5102Z" fill="white"/>
</g>
<rect x="160.256" y="18.5676" width="4.35015" height="4.35015" rx="0.932175" fill="#FFD600"/>
<path d="M167.353 22.2427V19.558H168.414C168.44 19.558 168.471 19.5593 168.507 19.5617C168.543 19.563 168.578 19.5667 168.611 19.5729C168.757 19.5953 168.878 19.645 168.977 19.7221C169.076 19.7991 169.151 19.8967 169.2 20.0148C169.25 20.1316 169.275 20.2615 169.275 20.4044C169.275 20.612 169.221 20.7922 169.113 20.9451C169.005 21.0967 168.846 21.1918 168.637 21.2303L168.511 21.2508H167.685V22.2427H167.353ZM168.951 22.2427L168.421 21.1502L168.749 21.0495L169.331 22.2427H168.951ZM167.685 20.9358H168.402C168.426 20.9358 168.453 20.9345 168.483 20.932C168.514 20.9296 168.543 20.9252 168.57 20.919C168.656 20.8991 168.726 20.8631 168.779 20.8109C168.834 20.7574 168.873 20.6953 168.898 20.6244C168.923 20.5523 168.936 20.479 168.936 20.4044C168.936 20.3299 168.923 20.2571 168.898 20.1863C168.873 20.1142 168.834 20.0514 168.779 19.998C168.726 19.9446 168.656 19.9085 168.57 19.8899C168.543 19.8824 168.514 19.8781 168.483 19.8768C168.453 19.8743 168.426 19.8731 168.402 19.8731H167.685V20.9358ZM170.614 22.2986C170.416 22.2986 170.244 22.2551 170.096 22.1681C169.949 22.0799 169.835 21.9574 169.753 21.8008C169.671 21.643 169.63 21.459 169.63 21.249C169.63 21.029 169.67 20.8388 169.751 20.6785C169.832 20.5169 169.944 20.3926 170.088 20.3056C170.234 20.2174 170.404 20.1732 170.599 20.1732C170.802 20.1732 170.974 20.2199 171.116 20.3131C171.258 20.4063 171.365 20.5393 171.436 20.712C171.508 20.8848 171.539 21.0905 171.529 21.3291H171.194V21.2098C171.19 20.9625 171.14 20.7779 171.043 20.6561C170.946 20.5331 170.802 20.4715 170.61 20.4715C170.405 20.4715 170.249 20.5374 170.142 20.6692C170.035 20.8009 169.982 20.9898 169.982 21.2359C169.982 21.4733 170.035 21.6573 170.142 21.7878C170.249 21.9183 170.401 21.9835 170.599 21.9835C170.732 21.9835 170.848 21.9531 170.946 21.8922C171.044 21.8313 171.121 21.7437 171.177 21.6293L171.496 21.7393C171.418 21.917 171.299 22.055 171.142 22.1532C170.985 22.2501 170.809 22.2986 170.614 22.2986ZM169.87 21.3291V21.0625H171.358V21.3291H169.87ZM173.324 22.2427V21.2341C173.324 21.1384 173.315 21.0464 173.297 20.9581C173.281 20.8699 173.252 20.791 173.21 20.7214C173.169 20.6505 173.113 20.5946 173.042 20.5536C172.972 20.5126 172.884 20.4921 172.777 20.4921C172.694 20.4921 172.618 20.5063 172.55 20.5349C172.483 20.5623 172.425 20.6045 172.376 20.6617C172.328 20.7189 172.29 20.791 172.263 20.878C172.237 20.9637 172.224 21.065 172.224 21.1819L172.005 21.1147C172.005 20.9196 172.04 20.7524 172.11 20.6132C172.181 20.4728 172.28 20.3653 172.406 20.2907C172.534 20.2149 172.685 20.177 172.857 20.177C172.988 20.177 173.099 20.1975 173.191 20.2385C173.283 20.2795 173.36 20.3342 173.421 20.4026C173.481 20.4697 173.529 20.5455 173.564 20.63C173.599 20.7133 173.623 20.7984 173.637 20.8854C173.652 20.9712 173.659 21.0526 173.659 21.1297V22.2427H173.324ZM171.888 22.2427V20.2292H172.186V20.768H172.224V22.2427H171.888ZM175.268 22.2427C175.149 22.2663 175.031 22.2756 174.914 22.2706C174.798 22.2669 174.695 22.2439 174.604 22.2017C174.514 22.1582 174.445 22.091 174.397 22.0003C174.358 21.9208 174.336 21.8406 174.332 21.7598C174.33 21.6778 174.328 21.5852 174.328 21.482V19.6699H174.66V21.4671C174.66 21.5491 174.661 21.6194 174.662 21.6778C174.665 21.7362 174.678 21.7865 174.701 21.8288C174.746 21.9083 174.817 21.9549 174.914 21.9686C175.012 21.9823 175.13 21.9786 175.268 21.9574V22.2427ZM173.92 20.5032V20.2292H175.268V20.5032H173.92ZM176.249 22.2986C176.099 22.2986 175.973 22.2713 175.871 22.2166C175.77 22.1606 175.694 22.0873 175.641 21.9966C175.59 21.9058 175.565 21.8064 175.565 21.6983C175.565 21.5926 175.585 21.5013 175.625 21.4242C175.666 21.3459 175.723 21.2813 175.796 21.2303C175.869 21.1781 175.957 21.1371 176.059 21.1073C176.155 21.0812 176.262 21.0588 176.38 21.0402C176.499 21.0203 176.62 21.0023 176.741 20.9861C176.863 20.9699 176.977 20.9544 177.083 20.9395L176.963 21.0085C176.967 20.8295 176.931 20.6971 176.855 20.6114C176.781 20.5256 176.651 20.4827 176.467 20.4827C176.346 20.4827 176.239 20.5107 176.147 20.5666C176.056 20.6213 175.992 20.7108 175.955 20.8351L175.64 20.74C175.688 20.5635 175.782 20.4249 175.921 20.3243C176.06 20.2236 176.244 20.1732 176.471 20.1732C176.654 20.1732 176.81 20.2062 176.941 20.2721C177.073 20.3367 177.167 20.4349 177.224 20.5666C177.253 20.6288 177.271 20.6965 177.278 20.7698C177.286 20.8419 177.29 20.9177 177.29 20.9973V22.2427H176.995V21.7598L177.064 21.8046C176.988 21.9674 176.882 22.0904 176.745 22.1737C176.61 22.257 176.444 22.2986 176.249 22.2986ZM176.3 22.0208C176.419 22.0208 176.522 21.9997 176.609 21.9574C176.697 21.9139 176.768 21.8574 176.822 21.7878C176.875 21.7169 176.91 21.6399 176.926 21.5566C176.945 21.4944 176.955 21.4255 176.956 21.3497C176.958 21.2726 176.96 21.2136 176.96 21.1725L177.075 21.2229C176.967 21.2378 176.861 21.2521 176.756 21.2658C176.652 21.2794 176.553 21.2943 176.46 21.3105C176.367 21.3254 176.283 21.3434 176.208 21.3646C176.153 21.382 176.102 21.4043 176.053 21.4317C176.006 21.459 175.968 21.4944 175.938 21.538C175.909 21.5802 175.895 21.633 175.895 21.6964C175.895 21.7511 175.909 21.8033 175.936 21.853C175.965 21.9027 176.008 21.9431 176.066 21.9742C176.126 22.0053 176.204 22.0208 176.3 22.0208ZM178.535 22.2967C178.295 22.2967 178.098 22.2445 177.944 22.1401C177.791 22.0345 177.697 21.8872 177.662 21.6983L178.002 21.6442C178.029 21.7536 178.092 21.8406 178.19 21.9052C178.288 21.9686 178.41 22.0003 178.555 22.0003C178.693 22.0003 178.801 21.9717 178.88 21.9146C178.958 21.8574 178.997 21.7797 178.997 21.6815C178.997 21.6243 178.984 21.5783 178.958 21.5435C178.932 21.5075 178.878 21.4739 178.796 21.4429C178.715 21.4118 178.593 21.3745 178.429 21.331C178.251 21.2838 178.111 21.2347 178.009 21.1837C177.907 21.1328 177.835 21.0737 177.791 21.0066C177.748 20.9395 177.726 20.8581 177.726 20.7624C177.726 20.6443 177.758 20.5411 177.823 20.4529C177.887 20.3634 177.977 20.2944 178.093 20.246C178.21 20.1975 178.345 20.1732 178.499 20.1732C178.652 20.1732 178.789 20.1975 178.91 20.246C179.03 20.2944 179.127 20.3634 179.2 20.4529C179.275 20.5411 179.319 20.6443 179.333 20.7624L178.994 20.8239C178.977 20.7158 178.925 20.6306 178.837 20.5685C178.75 20.5063 178.637 20.4734 178.499 20.4697C178.369 20.4647 178.263 20.4877 178.181 20.5387C178.1 20.5896 178.059 20.6586 178.059 20.7456C178.059 20.7941 178.074 20.8357 178.104 20.8705C178.135 20.9053 178.192 20.9383 178.274 20.9693C178.357 21.0004 178.478 21.0358 178.636 21.0756C178.813 21.1203 178.953 21.1694 179.055 21.2229C179.158 21.2751 179.232 21.3372 179.275 21.4093C179.319 21.4802 179.34 21.5678 179.34 21.6722C179.34 21.8661 179.269 22.019 179.126 22.1308C178.983 22.2414 178.786 22.2967 178.535 22.2967Z" fill="#758EA8"/>
<rect x="188.793" y="18.5676" width="4.35015" height="4.35015" rx="0.932175" fill="#61C453"/>
<path d="M196.994 22.2986C196.726 22.2986 196.5 22.2396 196.313 22.1215C196.127 22.0034 195.984 21.8394 195.886 21.6293C195.789 21.4193 195.741 21.1763 195.741 20.9003C195.741 20.6244 195.789 20.3814 195.886 20.1714C195.984 19.9613 196.127 19.7973 196.313 19.6792C196.5 19.5611 196.726 19.5021 196.994 19.5021C197.304 19.5021 197.56 19.581 197.76 19.7389C197.961 19.8967 198.1 20.1092 198.176 20.3765L197.838 20.4659C197.783 20.2658 197.686 20.108 197.545 19.9924C197.405 19.8768 197.221 19.819 196.994 19.819C196.794 19.819 196.627 19.8644 196.494 19.9551C196.361 20.0458 196.261 20.1726 196.194 20.3354C196.127 20.497 196.093 20.6853 196.091 20.9003C196.09 21.1141 196.123 21.3024 196.19 21.4652C196.257 21.6268 196.358 21.7536 196.492 21.8456C196.626 21.9363 196.794 21.9817 196.994 21.9817C197.221 21.9817 197.405 21.9239 197.545 21.8083C197.686 21.6914 197.783 21.5336 197.838 21.3347L198.176 21.4242C198.1 21.6902 197.961 21.9027 197.76 22.0618C197.56 22.2197 197.304 22.2986 196.994 22.2986ZM199.442 22.2986C199.242 22.2986 199.069 22.2532 198.924 22.1625C198.78 22.0718 198.668 21.9462 198.59 21.7859C198.512 21.6256 198.473 21.4416 198.473 21.2341C198.473 21.0228 198.512 20.8376 198.592 20.6785C198.671 20.5194 198.784 20.3957 198.929 20.3075C199.075 20.218 199.246 20.1732 199.442 20.1732C199.643 20.1732 199.817 20.2186 199.962 20.3093C200.108 20.3988 200.219 20.5237 200.296 20.6841C200.374 20.8432 200.413 21.0265 200.413 21.2341C200.413 21.4441 200.374 21.6293 200.296 21.7896C200.218 21.9487 200.106 22.0736 199.96 22.1644C199.815 22.2539 199.642 22.2986 199.442 22.2986ZM199.442 21.9835C199.651 21.9835 199.806 21.9139 199.908 21.7747C200.01 21.6355 200.061 21.4553 200.061 21.2341C200.061 21.0066 200.009 20.8258 199.906 20.6915C199.803 20.5561 199.648 20.4883 199.442 20.4883C199.302 20.4883 199.186 20.52 199.095 20.5834C199.005 20.6468 198.937 20.7344 198.892 20.8463C198.847 20.9581 198.825 21.0874 198.825 21.2341C198.825 21.4603 198.877 21.6417 198.982 21.7785C199.086 21.9152 199.239 21.9835 199.442 21.9835ZM203.231 22.2427L203.233 20.9544C203.233 20.804 203.192 20.6866 203.111 20.602C203.032 20.5163 202.928 20.4734 202.8 20.4734C202.726 20.4734 202.655 20.4908 202.588 20.5256C202.52 20.5592 202.466 20.6126 202.424 20.6859C202.381 20.758 202.36 20.8506 202.36 20.9637L202.185 20.8929C202.182 20.75 202.212 20.625 202.272 20.5182C202.335 20.41 202.419 20.3261 202.526 20.2665C202.633 20.2068 202.753 20.177 202.888 20.177C203.098 20.177 203.263 20.241 203.384 20.369C203.504 20.4958 203.564 20.6667 203.564 20.8817L203.563 22.2427H203.231ZM200.822 22.2427V20.2292H201.118V20.768H201.156V22.2427H200.822ZM202.028 22.2427L202.03 20.9675C202.03 20.8133 201.99 20.6928 201.911 20.6058C201.831 20.5175 201.726 20.4734 201.594 20.4734C201.463 20.4734 201.358 20.5182 201.277 20.6076C201.196 20.6971 201.156 20.8158 201.156 20.9637L200.98 20.8593C200.98 20.7288 201.012 20.612 201.074 20.5088C201.136 20.4057 201.22 20.3249 201.327 20.2665C201.434 20.2068 201.555 20.177 201.691 20.177C201.826 20.177 201.944 20.2056 202.045 20.2627C202.146 20.3199 202.223 20.4019 202.278 20.5088C202.333 20.6145 202.36 20.7406 202.36 20.8873L202.358 22.2427H202.028ZM204.975 22.2986C204.786 22.2986 204.627 22.252 204.498 22.1588C204.368 22.0643 204.27 21.9369 204.203 21.7766C204.137 21.615 204.104 21.4342 204.104 21.2341C204.104 21.0315 204.137 20.85 204.203 20.6897C204.27 20.5293 204.368 20.4032 204.498 20.3112C204.628 20.2192 204.788 20.1732 204.977 20.1732C205.163 20.1732 205.323 20.2199 205.458 20.3131C205.593 20.405 205.697 20.5312 205.769 20.6915C205.841 20.8519 205.877 21.0327 205.877 21.2341C205.877 21.4354 205.841 21.6163 205.769 21.7766C205.697 21.9369 205.593 22.0643 205.458 22.1588C205.323 22.252 205.162 22.2986 204.975 22.2986ZM204.048 23.1376V20.2292H204.345V21.7113H204.382V23.1376H204.048ZM204.934 21.9947C205.067 21.9947 205.177 21.9612 205.264 21.894C205.351 21.8269 205.416 21.7362 205.46 21.6218C205.503 21.5063 205.525 21.377 205.525 21.2341C205.525 21.0924 205.503 20.9644 205.46 20.85C205.417 20.7357 205.351 20.6449 205.262 20.5778C205.174 20.5107 205.061 20.4771 204.924 20.4771C204.794 20.4771 204.686 20.5095 204.6 20.5741C204.514 20.6375 204.45 20.7263 204.408 20.8407C204.366 20.9538 204.345 21.0849 204.345 21.2341C204.345 21.3807 204.365 21.5119 204.406 21.6274C204.448 21.7418 204.513 21.8319 204.6 21.8978C204.687 21.9624 204.798 21.9947 204.934 21.9947ZM206.286 22.2427V20.2292H206.582V20.7158L206.534 20.6524C206.557 20.5902 206.588 20.5331 206.625 20.4809C206.664 20.4287 206.707 20.3858 206.754 20.3522C206.806 20.31 206.865 20.2777 206.931 20.2553C206.997 20.2329 207.064 20.2199 207.132 20.2161C207.201 20.2112 207.265 20.2155 207.324 20.2292V20.5405C207.255 20.5219 207.178 20.5169 207.095 20.5256C207.012 20.5343 206.935 20.5648 206.864 20.617C206.799 20.6629 206.749 20.7189 206.713 20.7848C206.678 20.8506 206.654 20.9221 206.64 20.9992C206.626 21.075 206.62 21.1527 206.62 21.2322V22.2427H206.286ZM208.184 22.2986C208.033 22.2986 207.907 22.2713 207.805 22.2166C207.705 22.1606 207.628 22.0873 207.576 21.9966C207.525 21.9058 207.499 21.8064 207.499 21.6983C207.499 21.5926 207.519 21.5013 207.559 21.4242C207.6 21.3459 207.657 21.2813 207.731 21.2303C207.804 21.1781 207.892 21.1371 207.993 21.1073C208.089 21.0812 208.196 21.0588 208.314 21.0402C208.433 21.0203 208.554 21.0023 208.676 20.9861C208.798 20.9699 208.911 20.9544 209.017 20.9395L208.898 21.0085C208.901 20.8295 208.865 20.6971 208.79 20.6114C208.715 20.5256 208.586 20.4827 208.402 20.4827C208.28 20.4827 208.173 20.5107 208.081 20.5666C207.99 20.6213 207.926 20.7108 207.889 20.8351L207.574 20.74C207.622 20.5635 207.716 20.4249 207.856 20.3243C207.995 20.2236 208.178 20.1732 208.406 20.1732C208.588 20.1732 208.745 20.2062 208.875 20.2721C209.007 20.3367 209.102 20.4349 209.159 20.5666C209.187 20.6288 209.205 20.6965 209.213 20.7698C209.22 20.8419 209.224 20.9177 209.224 20.9973V22.2427H208.929V21.7598L208.998 21.8046C208.923 21.9674 208.816 22.0904 208.68 22.1737C208.544 22.257 208.379 22.2986 208.184 22.2986ZM208.234 22.0208C208.353 22.0208 208.456 21.9997 208.543 21.9574C208.632 21.9139 208.703 21.8574 208.756 21.7878C208.809 21.7169 208.844 21.6399 208.86 21.5566C208.879 21.4944 208.889 21.4255 208.89 21.3497C208.893 21.2726 208.894 21.2136 208.894 21.1725L209.01 21.2229C208.901 21.2378 208.795 21.2521 208.691 21.2658C208.586 21.2794 208.488 21.2943 208.394 21.3105C208.301 21.3254 208.217 21.3434 208.143 21.3646C208.088 21.382 208.036 21.4043 207.988 21.4317C207.941 21.459 207.902 21.4944 207.872 21.538C207.844 21.5802 207.829 21.633 207.829 21.6964C207.829 21.7511 207.843 21.8033 207.87 21.853C207.899 21.9027 207.943 21.9431 208.001 21.9742C208.061 22.0053 208.138 22.0208 208.234 22.0208Z" fill="#758EA8"/>
<defs>
<filter id="filter0_b_1633_8528" x="130.735" y="27.8748" width="53.7561" height="37.287" filterUnits="userSpaceOnUse" color-interpolation-filters="sRGB">
<feFlood flood-opacity="0" result="BackgroundImageFix"/>
<feGaussianBlur in="BackgroundImageFix" stdDeviation="4.35015"/>
<feComposite in2="SourceAlpha" operator="in" result="effect1_backgroundBlur_1633_8528"/>
<feBlend mode="normal" in="SourceGraphic" in2="effect1_backgroundBlur_1633_8528" result="shape"/>
</filter>
<clipPath id="clip0_1633_8528">
<rect width="4.9716" height="4.9716" fill="white" transform="translate(131.979 44.0332)"/>
</clipPath>
</defs>
</svg>
