<svg width="243" height="132" viewBox="0 0 243 132" fill="none" xmlns="http://www.w3.org/2000/svg">
<g clip-path="url(#clip0_1633_8057)">
<rect width="243" height="132" rx="5" fill="#F4F4F4"/>
<path d="M16.603 20V13.8869H18.8954C19.365 13.8869 19.759 13.9684 20.0774 14.1316C20.3978 14.2948 20.6396 14.5236 20.8028 14.8182C20.9679 15.1107 21.0505 15.452 21.0505 15.842C21.0505 16.234 20.9669 16.5743 20.7998 16.8628C20.6346 17.1494 20.3908 17.3713 20.0685 17.5285C19.7461 17.6837 19.3501 17.7613 18.8805 17.7613H17.2477V16.8419H18.7312C19.0058 16.8419 19.2307 16.8041 19.4058 16.7285C19.5809 16.6509 19.7103 16.5385 19.7939 16.3912C19.8794 16.242 19.9222 16.0589 19.9222 15.842C19.9222 15.6251 19.8794 15.44 19.7939 15.2868C19.7083 15.1316 19.5779 15.0142 19.4028 14.9346C19.2277 14.853 19.0019 14.8122 18.7252 14.8122H17.7104V20H16.603ZM19.761 17.23L21.2744 20H20.0386L18.5521 17.23H19.761ZM23.9862 20.0895C23.5265 20.0895 23.1295 19.994 22.7952 19.803C22.4629 19.61 22.2072 19.3373 22.0281 18.9851C21.849 18.6309 21.7594 18.214 21.7594 17.7344C21.7594 17.2628 21.849 16.8489 22.0281 16.4927C22.2092 16.1345 22.4619 15.8559 22.7863 15.6569C23.1106 15.4559 23.4917 15.3554 23.9295 15.3554C24.2121 15.3554 24.4787 15.4012 24.7294 15.4927C24.9822 15.5823 25.205 15.7216 25.3981 15.9106C25.5931 16.0997 25.7463 16.3405 25.8578 16.633C25.9692 16.9235 26.0249 17.2698 26.0249 17.6717V18.0031H22.2669V17.2748H24.9891C24.9871 17.0678 24.9424 16.8837 24.8548 16.7225C24.7673 16.5594 24.6449 16.431 24.4877 16.3375C24.3324 16.244 24.1514 16.1972 23.9444 16.1972C23.7235 16.1972 23.5295 16.2509 23.3623 16.3584C23.1952 16.4638 23.0648 16.6031 22.9713 16.7763C22.8798 16.9474 22.833 17.1355 22.831 17.3404V17.9762C22.831 18.2429 22.8798 18.4717 22.9773 18.6627C23.0748 18.8518 23.2111 18.9971 23.3862 19.0985C23.5613 19.198 23.7663 19.2478 24.0011 19.2478C24.1583 19.2478 24.3006 19.2259 24.428 19.1821C24.5553 19.1364 24.6658 19.0697 24.7593 18.9821C24.8528 18.8946 24.9235 18.7861 24.9712 18.6568L25.9801 18.7702C25.9165 19.0369 25.7951 19.2697 25.616 19.4687C25.4389 19.6657 25.212 19.8189 24.9354 19.9284C24.6588 20.0358 24.3424 20.0895 23.9862 20.0895ZM26.939 21.7193V15.4151H28.0017V16.1733H28.0644C28.1201 16.0619 28.1987 15.9435 28.3002 15.8181C28.4017 15.6907 28.539 15.5823 28.7121 15.4927C28.8852 15.4012 29.1061 15.3554 29.3748 15.3554C29.729 15.3554 30.0484 15.446 30.3329 15.6271C30.6195 15.8062 30.8463 16.0718 31.0135 16.424C31.1826 16.7743 31.2672 17.2041 31.2672 17.7135C31.2672 18.217 31.1846 18.6448 31.0195 18.9971C30.8543 19.3493 30.6294 19.6179 30.3449 19.803C30.0603 19.9881 29.7379 20.0806 29.3777 20.0806C29.1151 20.0806 28.8972 20.0368 28.724 19.9493C28.5509 19.8617 28.4116 19.7562 28.3061 19.6329C28.2027 19.5075 28.1221 19.3891 28.0644 19.2776H28.0196V21.7193H26.939ZM27.9987 17.7076C27.9987 18.0041 28.0405 18.2638 28.1241 18.4866C28.2096 18.7095 28.332 18.8836 28.4912 19.009C28.6524 19.1324 28.8474 19.1941 29.0763 19.1941C29.3151 19.1941 29.515 19.1304 29.6762 19.003C29.8374 18.8737 29.9588 18.6976 30.0404 18.4747C30.124 18.2498 30.1658 17.9941 30.1658 17.7076C30.1658 17.423 30.125 17.1703 30.0434 16.9494C29.9618 16.7285 29.8404 16.5554 29.6792 16.43C29.518 16.3046 29.317 16.242 29.0763 16.242C28.8454 16.242 28.6494 16.3027 28.4882 16.424C28.327 16.5454 28.2047 16.7156 28.1211 16.9345C28.0395 17.1534 27.9987 17.4111 27.9987 17.7076ZM34.1924 20.0895C33.7447 20.0895 33.3567 19.991 33.0283 19.794C32.7 19.597 32.4453 19.3214 32.2642 18.9672C32.0851 18.613 31.9955 18.1991 31.9955 17.7255C31.9955 17.2519 32.0851 16.837 32.2642 16.4808C32.4453 16.1246 32.7 15.848 33.0283 15.6509C33.3567 15.4539 33.7447 15.3554 34.1924 15.3554C34.6402 15.3554 35.0282 15.4539 35.3566 15.6509C35.6849 15.848 35.9386 16.1246 36.1177 16.4808C36.2988 16.837 36.3894 17.2519 36.3894 17.7255C36.3894 18.1991 36.2988 18.613 36.1177 18.9672C35.9386 19.3214 35.6849 19.597 35.3566 19.794C35.0282 19.991 34.6402 20.0895 34.1924 20.0895ZM34.1984 19.2239C34.4412 19.2239 34.6442 19.1573 34.8073 19.0239C34.9705 18.8886 35.0919 18.7075 35.1715 18.4807C35.2531 18.2538 35.2939 18.0011 35.2939 17.7225C35.2939 17.4419 35.2531 17.1882 35.1715 16.9613C35.0919 16.7325 34.9705 16.5504 34.8073 16.4151C34.6442 16.2798 34.4412 16.2121 34.1984 16.2121C33.9497 16.2121 33.7427 16.2798 33.5775 16.4151C33.4144 16.5504 33.292 16.7325 33.2104 16.9613C33.1308 17.1882 33.091 17.4419 33.091 17.7225C33.091 18.0011 33.1308 18.2538 33.2104 18.4807C33.292 18.7075 33.4144 18.8886 33.5775 19.0239C33.7427 19.1573 33.9497 19.2239 34.1984 19.2239ZM37.3065 20V15.4151H38.3542V16.1793H38.4019C38.4855 15.9146 38.6288 15.7106 38.8318 15.5674C39.0367 15.4221 39.2706 15.3495 39.5332 15.3495C39.5929 15.3495 39.6596 15.3525 39.7332 15.3584C39.8088 15.3624 39.8715 15.3694 39.9213 15.3793V16.3733C39.8755 16.3574 39.8029 16.3435 39.7034 16.3315C39.6059 16.3176 39.5113 16.3106 39.4198 16.3106C39.2228 16.3106 39.0457 16.3534 38.8885 16.439C38.7333 16.5225 38.6109 16.639 38.5213 16.7882C38.4318 16.9375 38.387 17.1096 38.387 17.3046V20H37.3065ZM43.1749 15.4151V16.2509H40.5392V15.4151H43.1749ZM41.1899 14.3167H42.2704V18.621C42.2704 18.7662 42.2923 18.8777 42.3361 18.9553C42.3819 19.0309 42.4416 19.0826 42.5152 19.1105C42.5888 19.1383 42.6704 19.1523 42.76 19.1523C42.8276 19.1523 42.8893 19.1473 42.945 19.1374C43.0027 19.1274 43.0465 19.1184 43.0764 19.1105L43.2584 19.9552C43.2007 19.9751 43.1181 19.997 43.0107 20.0209C42.9052 20.0448 42.7759 20.0587 42.6226 20.0627C42.352 20.0706 42.1082 20.0298 41.8913 19.9403C41.6744 19.8488 41.5023 19.7075 41.3749 19.5164C41.2496 19.3254 41.1879 19.0866 41.1899 18.8001V14.3167ZM46.0591 20.0895C45.5994 20.0895 45.2024 19.994 44.8681 19.803C44.5357 19.61 44.28 19.3373 44.1009 18.9851C43.9218 18.6309 43.8323 18.214 43.8323 17.7344C43.8323 17.2628 43.9218 16.8489 44.1009 16.4927C44.282 16.1345 44.5347 15.8559 44.8591 15.6569C45.1835 15.4559 45.5646 15.3554 46.0023 15.3554C46.2849 15.3554 46.5516 15.4012 46.8023 15.4927C47.055 15.5823 47.2779 15.7216 47.4709 15.9106C47.6659 16.0997 47.8192 16.3405 47.9306 16.633C48.042 16.9235 48.0978 17.2698 48.0978 17.6717V18.0031H44.3397V17.2748H47.062C47.06 17.0678 47.0152 16.8837 46.9277 16.7225C46.8401 16.5594 46.7177 16.431 46.5605 16.3375C46.4053 16.244 46.2242 16.1972 46.0173 16.1972C45.7964 16.1972 45.6024 16.2509 45.4352 16.3584C45.268 16.4638 45.1377 16.6031 45.0442 16.7763C44.9526 16.9474 44.9059 17.1355 44.9039 17.3404V17.9762C44.9039 18.2429 44.9526 18.4717 45.0501 18.6627C45.1477 18.8518 45.284 18.9971 45.4591 19.0985C45.6342 19.198 45.8392 19.2478 46.074 19.2478C46.2312 19.2478 46.3735 19.2259 46.5008 19.1821C46.6282 19.1364 46.7386 19.0697 46.8322 18.9821C46.9257 18.8946 46.9963 18.7861 47.0441 18.6568L48.053 18.7702C47.9893 19.0369 47.8679 19.2697 47.6888 19.4687C47.5117 19.6657 47.2849 19.8189 47.0083 19.9284C46.7317 20.0358 46.4153 20.0895 46.0591 20.0895ZM52.7983 20.0806C52.4381 20.0806 52.1157 19.9881 51.8312 19.803C51.5466 19.6179 51.3217 19.3493 51.1566 18.9971C50.9914 18.6448 50.9088 18.217 50.9088 17.7135C50.9088 17.2041 50.9924 16.7743 51.1596 16.424C51.3287 16.0718 51.5566 15.8062 51.8431 15.6271C52.1297 15.446 52.4491 15.3554 52.8013 15.3554C53.0699 15.3554 53.2908 15.4012 53.4639 15.4927C53.6371 15.5823 53.7744 15.6907 53.8759 15.8181C53.9773 15.9435 54.0559 16.0619 54.1117 16.1733H54.1564V13.8869H55.24V20H54.1773V19.2776H54.1117C54.0559 19.3891 53.9754 19.5075 53.8699 19.6329C53.7644 19.7562 53.6251 19.8617 53.452 19.9493C53.2789 20.0368 53.061 20.0806 52.7983 20.0806ZM53.0998 19.1941C53.3286 19.1941 53.5236 19.1324 53.6848 19.009C53.846 18.8836 53.9684 18.7095 54.052 18.4866C54.1355 18.2638 54.1773 18.0041 54.1773 17.7076C54.1773 17.4111 54.1355 17.1534 54.052 16.9345C53.9704 16.7156 53.849 16.5454 53.6878 16.424C53.5286 16.3027 53.3326 16.242 53.0998 16.242C52.859 16.242 52.658 16.3046 52.4968 16.43C52.3356 16.5554 52.2142 16.7285 52.1327 16.9494C52.0511 17.1703 52.0103 17.423 52.0103 17.7076C52.0103 17.9941 52.0511 18.2498 52.1327 18.4747C52.2162 18.6976 52.3386 18.8737 52.4998 19.003C52.663 19.1304 52.863 19.1941 53.0998 19.1941ZM58.4212 20.0895C57.9615 20.0895 57.5645 19.994 57.2302 19.803C56.8979 19.61 56.6421 19.3373 56.463 18.9851C56.284 18.6309 56.1944 18.214 56.1944 17.7344C56.1944 17.2628 56.284 16.8489 56.463 16.4927C56.6441 16.1345 56.8969 15.8559 57.2212 15.6569C57.5456 15.4559 57.9267 15.3554 58.3645 15.3554C58.647 15.3554 58.9137 15.4012 59.1644 15.4927C59.4171 15.5823 59.64 15.7216 59.833 15.9106C60.0281 16.0997 60.1813 16.3405 60.2927 16.633C60.4042 16.9235 60.4599 17.2698 60.4599 17.6717V18.0031H56.7018V17.2748H59.4241C59.4221 17.0678 59.3773 16.8837 59.2898 16.7225C59.2022 16.5594 59.0798 16.431 58.9226 16.3375C58.7674 16.244 58.5863 16.1972 58.3794 16.1972C58.1585 16.1972 57.9645 16.2509 57.7973 16.3584C57.6302 16.4638 57.4998 16.6031 57.4063 16.7763C57.3148 16.9474 57.268 17.1355 57.266 17.3404V17.9762C57.266 18.2429 57.3148 18.4717 57.4123 18.6627C57.5098 18.8518 57.6461 18.9971 57.8212 19.0985C57.9963 19.198 58.2013 19.2478 58.4361 19.2478C58.5933 19.2478 58.7356 19.2259 58.8629 19.1821C58.9903 19.1364 59.1007 19.0697 59.1943 18.9821C59.2878 18.8946 59.3584 18.7861 59.4062 18.6568L60.4151 18.7702C60.3514 19.0369 60.23 19.2697 60.0509 19.4687C59.8738 19.6657 59.647 19.8189 59.3704 19.9284C59.0938 20.0358 58.7774 20.0895 58.4212 20.0895ZM67.5543 15.4151L65.9216 20H64.7276L63.0948 15.4151H64.247L65.3007 18.821H65.3485L66.4051 15.4151H67.5543ZM68.3021 20V15.4151H69.3826V20H68.3021ZM68.8453 14.7644C68.6742 14.7644 68.5269 14.7077 68.4035 14.5943C68.2802 14.4789 68.2185 14.3406 68.2185 14.1794C68.2185 14.0162 68.2802 13.8779 68.4035 13.7645C68.5269 13.6491 68.6742 13.5913 68.8453 13.5913C69.0184 13.5913 69.1657 13.6491 69.2871 13.7645C69.4105 13.8779 69.4721 14.0162 69.4721 14.1794C69.4721 14.3406 69.4105 14.4789 69.2871 14.5943C69.1657 14.7077 69.0184 14.7644 68.8453 14.7644ZM74.1175 16.627L73.1324 16.7345C73.1046 16.635 73.0558 16.5415 72.9862 16.4539C72.9185 16.3663 72.827 16.2957 72.7116 16.242C72.5961 16.1882 72.4548 16.1614 72.2877 16.1614C72.0628 16.1614 71.8738 16.2101 71.7206 16.3076C71.5693 16.4051 71.4947 16.5315 71.4967 16.6867C71.4947 16.82 71.5434 16.9285 71.6429 17.0121C71.7444 17.0957 71.9116 17.1643 72.1444 17.218L72.9265 17.3852C73.3603 17.4787 73.6827 17.627 73.8936 17.83C74.1065 18.0329 74.214 18.2986 74.216 18.6269C74.214 18.9155 74.1294 19.1702 73.9622 19.3911C73.7971 19.61 73.5672 19.7811 73.2727 19.9045C72.9782 20.0279 72.6399 20.0895 72.2578 20.0895C71.6967 20.0895 71.245 19.9721 70.9027 19.7373C70.5604 19.5005 70.3564 19.1712 70.2908 18.7493L71.3445 18.6478C71.3922 18.8548 71.4937 19.011 71.6489 19.1165C71.8041 19.2219 72.0061 19.2747 72.2549 19.2747C72.5116 19.2747 72.7175 19.2219 72.8727 19.1165C73.0299 19.011 73.1085 18.8806 73.1085 18.7254C73.1085 18.5941 73.0578 18.4856 72.9563 18.4001C72.8568 18.3145 72.7016 18.2488 72.4907 18.2031L71.7086 18.0389C71.2688 17.9474 70.9435 17.7931 70.7325 17.5762C70.5216 17.3573 70.4171 17.0807 70.4191 16.7464C70.4171 16.4638 70.4937 16.2191 70.649 16.0121C70.8062 15.8032 71.0241 15.642 71.3027 15.5286C71.5832 15.4131 71.9066 15.3554 72.2728 15.3554C72.8101 15.3554 73.2329 15.4699 73.5414 15.6987C73.8518 15.9276 74.0438 16.237 74.1175 16.627ZM75.107 20V15.4151H76.1875V20H75.107ZM75.6502 14.7644C75.4791 14.7644 75.3318 14.7077 75.2085 14.5943C75.0851 14.4789 75.0234 14.3406 75.0234 14.1794C75.0234 14.0162 75.0851 13.8779 75.2085 13.7645C75.3318 13.6491 75.4791 13.5913 75.6502 13.5913C75.8233 13.5913 75.9706 13.6491 76.092 13.7645C76.2154 13.8779 76.2771 14.0162 76.2771 14.1794C76.2771 14.3406 76.2154 14.4789 76.092 14.5943C75.9706 14.7077 75.8233 14.7644 75.6502 14.7644ZM79.5881 15.4151V16.2509H76.9524V15.4151H79.5881ZM77.6031 14.3167H78.6837V18.621C78.6837 18.7662 78.7056 18.8777 78.7493 18.9553C78.7951 19.0309 78.8548 19.0826 78.9284 19.1105C79.0021 19.1383 79.0836 19.1523 79.1732 19.1523C79.2409 19.1523 79.3025 19.1473 79.3583 19.1374C79.416 19.1274 79.4597 19.1184 79.4896 19.1105L79.6717 19.9552C79.614 19.9751 79.5314 19.997 79.4239 20.0209C79.3185 20.0448 79.1891 20.0587 79.0359 20.0627C78.7653 20.0706 78.5215 20.0298 78.3046 19.9403C78.0877 19.8488 77.9155 19.7075 77.7882 19.5164C77.6628 19.3254 77.6011 19.0866 77.6031 18.8001V14.3167ZM81.8111 20.0925C81.5206 20.0925 81.2589 20.0408 81.0261 19.9373C80.7953 19.8318 80.6122 19.6766 80.4769 19.4717C80.3435 19.2667 80.2769 19.014 80.2769 18.7135C80.2769 18.4548 80.3246 18.2409 80.4201 18.0717C80.5157 17.9026 80.646 17.7673 80.8112 17.6658C80.9763 17.5643 81.1624 17.4877 81.3694 17.4359C81.5783 17.3822 81.7942 17.3434 82.0171 17.3195C82.2857 17.2917 82.5036 17.2668 82.6708 17.2449C82.8379 17.221 82.9593 17.1852 83.035 17.1374C83.1126 17.0877 83.1514 17.0111 83.1514 16.9076V16.8897C83.1514 16.6648 83.0847 16.4907 82.9514 16.3673C82.818 16.244 82.626 16.1823 82.3753 16.1823C82.1106 16.1823 81.9007 16.24 81.7455 16.3554C81.5922 16.4708 81.4888 16.6071 81.435 16.7643L80.4261 16.6211C80.5057 16.3425 80.6371 16.1096 80.8201 15.9226C81.0032 15.7335 81.2271 15.5922 81.4917 15.4987C81.7564 15.4032 82.0489 15.3554 82.3693 15.3554C82.5902 15.3554 82.8101 15.3813 83.029 15.433C83.2479 15.4848 83.4479 15.5704 83.629 15.6898C83.81 15.8072 83.9553 15.9674 84.0648 16.1703C84.1762 16.3733 84.2319 16.627 84.2319 16.9315V20H83.1932V19.3702H83.1573C83.0917 19.4975 82.9991 19.6169 82.8797 19.7284C82.7623 19.8378 82.6141 19.9264 82.435 19.994C82.2579 20.0597 82.0499 20.0925 81.8111 20.0925ZM82.0917 19.2985C82.3086 19.2985 82.4967 19.2558 82.6559 19.1702C82.8151 19.0826 82.9374 18.9672 83.023 18.8239C83.1106 18.6807 83.1543 18.5244 83.1543 18.3553V17.815C83.1205 17.8429 83.0628 17.8688 82.9812 17.8926C82.9016 17.9165 82.8121 17.9374 82.7126 17.9553C82.6131 17.9732 82.5146 17.9891 82.4171 18.0031C82.3196 18.017 82.235 18.0289 82.1634 18.0389C82.0022 18.0608 81.8579 18.0966 81.7305 18.1464C81.6032 18.1961 81.5027 18.2658 81.4291 18.3553C81.3554 18.4429 81.3186 18.5563 81.3186 18.6956C81.3186 18.8946 81.3912 19.0448 81.5365 19.1463C81.6818 19.2478 81.8668 19.2985 82.0917 19.2985ZM88.9421 16.627L87.9571 16.7345C87.9293 16.635 87.8805 16.5415 87.8108 16.4539C87.7432 16.3663 87.6517 16.2957 87.5362 16.242C87.4208 16.1882 87.2795 16.1614 87.1124 16.1614C86.8875 16.1614 86.6985 16.2101 86.5452 16.3076C86.394 16.4051 86.3194 16.5315 86.3214 16.6867C86.3194 16.82 86.3681 16.9285 86.4676 17.0121C86.5691 17.0957 86.7363 17.1643 86.9691 17.218L87.7512 17.3852C88.185 17.4787 88.5073 17.627 88.7183 17.83C88.9312 18.0329 89.0387 18.2986 89.0406 18.6269C89.0387 18.9155 88.9541 19.1702 88.7869 19.3911C88.6218 19.61 88.3919 19.7811 88.0974 19.9045C87.8029 20.0279 87.4646 20.0895 87.0825 20.0895C86.5214 20.0895 86.0696 19.9721 85.7274 19.7373C85.3851 19.5005 85.1811 19.1712 85.1155 18.7493L86.1691 18.6478C86.2169 18.8548 86.3184 19.011 86.4736 19.1165C86.6288 19.2219 86.8308 19.2747 87.0795 19.2747C87.3362 19.2747 87.5422 19.2219 87.6974 19.1165C87.8546 19.011 87.9332 18.8806 87.9332 18.7254C87.9332 18.5941 87.8825 18.4856 87.781 18.4001C87.6815 18.3145 87.5263 18.2488 87.3153 18.2031L86.5333 18.0389C86.0935 17.9474 85.7682 17.7931 85.5572 17.5762C85.3463 17.3573 85.2418 17.0807 85.2438 16.7464C85.2418 16.4638 85.3184 16.2191 85.4736 16.0121C85.6309 15.8032 85.8488 15.642 86.1273 15.5286C86.4079 15.4131 86.7313 15.3554 87.0974 15.3554C87.6347 15.3554 88.0576 15.4699 88.366 15.6987C88.6765 15.9276 88.8685 16.237 88.9421 16.627ZM94.7956 16.4987V17.3882H92.0435V16.4987H94.7956ZM103.089 13.8869V20H102.103L99.223 15.836H99.1723V20H98.0649V13.8869H99.0559L101.933 18.0538H101.987V13.8869H103.089ZM106.247 20.0895C105.8 20.0895 105.412 19.991 105.083 19.794C104.755 19.597 104.5 19.3214 104.319 18.9672C104.14 18.613 104.05 18.1991 104.05 17.7255C104.05 17.2519 104.14 16.837 104.319 16.4808C104.5 16.1246 104.755 15.848 105.083 15.6509C105.412 15.4539 105.8 15.3554 106.247 15.3554C106.695 15.3554 107.083 15.4539 107.411 15.6509C107.74 15.848 107.993 16.1246 108.173 16.4808C108.354 16.837 108.444 17.2519 108.444 17.7255C108.444 18.1991 108.354 18.613 108.173 18.9672C107.993 19.3214 107.74 19.597 107.411 19.794C107.083 19.991 106.695 20.0895 106.247 20.0895ZM106.253 19.2239C106.496 19.2239 106.699 19.1573 106.862 19.0239C107.025 18.8886 107.147 18.7075 107.226 18.4807C107.308 18.2538 107.349 18.0011 107.349 17.7225C107.349 17.4419 107.308 17.1882 107.226 16.9613C107.147 16.7325 107.025 16.5504 106.862 16.4151C106.699 16.2798 106.496 16.2121 106.253 16.2121C106.005 16.2121 105.798 16.2798 105.632 16.4151C105.469 16.5504 105.347 16.7325 105.265 16.9613C105.186 17.1882 105.146 17.4419 105.146 17.7225C105.146 18.0011 105.186 18.2538 105.265 18.4807C105.347 18.7075 105.469 18.8886 105.632 19.0239C105.798 19.1573 106.005 19.2239 106.253 19.2239ZM113.301 15.4151L111.668 20H110.474L108.841 15.4151H109.993L111.047 18.821H111.095L112.152 15.4151H113.301ZM114.048 20V15.4151H115.129V20H114.048ZM114.592 14.7644C114.421 14.7644 114.273 14.7077 114.15 14.5943C114.027 14.4789 113.965 14.3406 113.965 14.1794C113.965 14.0162 114.027 13.8779 114.15 13.7645C114.273 13.6491 114.421 13.5913 114.592 13.5913C114.765 13.5913 114.912 13.6491 115.033 13.7645C115.157 13.8779 115.219 14.0162 115.219 14.1794C115.219 14.3406 115.157 14.4789 115.033 14.5943C114.912 14.7077 114.765 14.7644 114.592 14.7644ZM118.27 20.0895C117.81 20.0895 117.413 19.994 117.079 19.803C116.747 19.61 116.491 19.3373 116.312 18.9851C116.133 18.6309 116.043 18.214 116.043 17.7344C116.043 17.2628 116.133 16.8489 116.312 16.4927C116.493 16.1345 116.746 15.8559 117.07 15.6569C117.394 15.4559 117.775 15.3554 118.213 15.3554C118.496 15.3554 118.762 15.4012 119.013 15.4927C119.266 15.5823 119.489 15.7216 119.682 15.9106C119.877 16.0997 120.03 16.3405 120.141 16.633C120.253 16.9235 120.309 17.2698 120.309 17.6717V18.0031H116.551V17.2748H119.273C119.271 17.0678 119.226 16.8837 119.139 16.7225C119.051 16.5594 118.929 16.431 118.771 16.3375C118.616 16.244 118.435 16.1972 118.228 16.1972C118.007 16.1972 117.813 16.2509 117.646 16.3584C117.479 16.4638 117.349 16.6031 117.255 16.7763C117.163 16.9474 117.117 17.1355 117.115 17.3404V17.9762C117.115 18.2429 117.163 18.4717 117.261 18.6627C117.358 18.8518 117.495 18.9971 117.67 19.0985C117.845 19.198 118.05 19.2478 118.285 19.2478C118.442 19.2478 118.584 19.2259 118.712 19.1821C118.839 19.1364 118.949 19.0697 119.043 18.9821C119.137 18.8946 119.207 18.7861 119.255 18.6568L120.264 18.7702C120.2 19.0369 120.079 19.2697 119.9 19.4687C119.723 19.6657 119.496 19.8189 119.219 19.9284C118.942 20.0358 118.626 20.0895 118.27 20.0895ZM121.223 20V15.4151H122.256V16.1942H122.309C122.405 15.9315 122.563 15.7266 122.784 15.5793C123.005 15.4301 123.268 15.3554 123.575 15.3554C123.885 15.3554 124.147 15.4311 124.36 15.5823C124.575 15.7315 124.726 15.9355 124.814 16.1942H124.861C124.963 15.9395 125.134 15.7365 125.375 15.5853C125.618 15.4321 125.905 15.3554 126.237 15.3554C126.659 15.3554 127.004 15.4888 127.27 15.7554C127.537 16.0221 127.67 16.4111 127.67 16.9225V20H126.587V17.0897C126.587 16.8051 126.511 16.5972 126.36 16.4658C126.209 16.3325 126.024 16.2658 125.805 16.2658C125.544 16.2658 125.34 16.3474 125.193 16.5106C125.047 16.6718 124.975 16.8817 124.975 17.1404V20H123.915V17.0449C123.915 16.8081 123.844 16.6191 123.7 16.4778C123.559 16.3365 123.374 16.2658 123.145 16.2658C122.99 16.2658 122.849 16.3056 122.721 16.3852C122.594 16.4629 122.492 16.5733 122.417 16.7166C122.341 16.8579 122.303 17.023 122.303 17.2121V20H121.223ZM128.814 20V13.8869H129.895V16.1733H129.939C129.995 16.0619 130.074 15.9435 130.175 15.8181C130.277 15.6907 130.414 15.5823 130.587 15.4927C130.76 15.4012 130.981 15.3554 131.25 15.3554C131.604 15.3554 131.923 15.446 132.208 15.6271C132.495 15.8062 132.721 16.0718 132.889 16.424C133.058 16.7743 133.142 17.2041 133.142 17.7135C133.142 18.217 133.06 18.6448 132.895 18.9971C132.729 19.3493 132.505 19.6179 132.22 19.803C131.935 19.9881 131.613 20.0806 131.253 20.0806C130.99 20.0806 130.772 20.0368 130.599 19.9493C130.426 19.8617 130.287 19.7562 130.181 19.6329C130.078 19.5075 129.997 19.3891 129.939 19.2776H129.877V20H128.814ZM129.874 17.7076C129.874 18.0041 129.916 18.2638 129.999 18.4866C130.085 18.7095 130.207 18.8836 130.366 19.009C130.528 19.1324 130.723 19.1941 130.951 19.1941C131.19 19.1941 131.39 19.1304 131.551 19.003C131.713 18.8737 131.834 18.6976 131.916 18.4747C131.999 18.2498 132.041 17.9941 132.041 17.7076C132.041 17.423 132 17.1703 131.919 16.9494C131.837 16.7285 131.716 16.5554 131.554 16.43C131.393 16.3046 131.192 16.242 130.951 16.242C130.721 16.242 130.525 16.3027 130.363 16.424C130.202 16.5454 130.08 16.7156 129.996 16.9345C129.915 17.1534 129.874 17.4111 129.874 17.7076ZM134.061 20V15.4151H135.109V16.1793H135.156C135.24 15.9146 135.383 15.7106 135.586 15.5674C135.791 15.4221 136.025 15.3495 136.288 15.3495C136.347 15.3495 136.414 15.3525 136.488 15.3584C136.563 15.3624 136.626 15.3694 136.676 15.3793V16.3733C136.63 16.3574 136.557 16.3435 136.458 16.3315C136.36 16.3176 136.266 16.3106 136.174 16.3106C135.977 16.3106 135.8 16.3534 135.643 16.439C135.488 16.5225 135.365 16.639 135.276 16.7882C135.186 16.9375 135.141 17.1096 135.141 17.3046V20H134.061ZM139.235 20.0895C138.775 20.0895 138.378 19.994 138.044 19.803C137.711 19.61 137.456 19.3373 137.276 18.9851C137.097 18.6309 137.008 18.214 137.008 17.7344C137.008 17.2628 137.097 16.8489 137.276 16.4927C137.458 16.1345 137.71 15.8559 138.035 15.6569C138.359 15.4559 138.74 15.3554 139.178 15.3554C139.46 15.3554 139.727 15.4012 139.978 15.4927C140.231 15.5823 140.453 15.7216 140.646 15.9106C140.841 16.0997 140.995 16.3405 141.106 16.633C141.218 16.9235 141.273 17.2698 141.273 17.6717V18.0031H137.515V17.2748H140.238C140.236 17.0678 140.191 16.8837 140.103 16.7225C140.016 16.5594 139.893 16.431 139.736 16.3375C139.581 16.244 139.4 16.1972 139.193 16.1972C138.972 16.1972 138.778 16.2509 138.611 16.3584C138.444 16.4638 138.313 16.6031 138.22 16.7763C138.128 16.9474 138.081 17.1355 138.079 17.3404V17.9762C138.079 18.2429 138.128 18.4717 138.226 18.6627C138.323 18.8518 138.459 18.9971 138.635 19.0985C138.81 19.198 139.015 19.2478 139.25 19.2478C139.407 19.2478 139.549 19.2259 139.676 19.1821C139.804 19.1364 139.914 19.0697 140.008 18.9821C140.101 18.8946 140.172 18.7861 140.22 18.6568L141.229 18.7702C141.165 19.0369 141.043 19.2697 140.864 19.4687C140.687 19.6657 140.46 19.8189 140.184 19.9284C139.907 20.0358 139.591 20.0895 139.235 20.0895ZM144.26 20V19.2L146.383 17.1195C146.586 16.9146 146.755 16.7325 146.89 16.5733C147.026 16.4141 147.127 16.2599 147.195 16.1106C147.262 15.9614 147.296 15.8022 147.296 15.633C147.296 15.44 147.252 15.2748 147.165 15.1375C147.077 14.9982 146.957 14.8908 146.804 14.8152C146.65 14.7395 146.476 14.7017 146.281 14.7017C146.08 14.7017 145.904 14.7435 145.753 14.8271C145.602 14.9087 145.484 15.0251 145.401 15.1763C145.319 15.3276 145.278 15.5077 145.278 15.7166H144.225C144.225 15.3286 144.313 14.9913 144.49 14.7047C144.667 14.4182 144.911 14.1963 145.222 14.0391C145.534 13.8819 145.892 13.8033 146.296 13.8033C146.706 13.8033 147.066 13.8799 147.377 14.0331C147.687 14.1863 147.928 14.3963 148.099 14.6629C148.272 14.9296 148.359 15.2341 148.359 15.5763C148.359 15.8052 148.315 16.03 148.227 16.2509C148.14 16.4718 147.986 16.7166 147.765 16.9852C147.546 17.2539 147.238 17.5792 146.842 17.9613L145.789 19.0329V19.0747H148.451V20H144.26ZM151.741 20.1164C151.249 20.1164 150.827 19.992 150.475 19.7433C150.125 19.4926 149.855 19.1314 149.666 18.6598C149.479 18.1862 149.386 17.616 149.386 16.9494C149.388 16.2828 149.482 15.7156 149.669 15.248C149.858 14.7784 150.128 14.4202 150.478 14.1734C150.83 13.9266 151.251 13.8033 151.741 13.8033C152.23 13.8033 152.651 13.9266 153.003 14.1734C153.356 14.4202 153.625 14.7784 153.812 15.248C154.001 15.7176 154.096 16.2847 154.096 16.9494C154.096 17.618 154.001 18.1891 153.812 18.6627C153.625 19.1344 153.356 19.4946 153.003 19.7433C152.653 19.992 152.232 20.1164 151.741 20.1164ZM151.741 19.1821C152.123 19.1821 152.424 18.9941 152.645 18.618C152.868 18.2399 152.979 17.6837 152.979 16.9494C152.979 16.4638 152.929 16.0559 152.827 15.7256C152.726 15.3952 152.582 15.1465 152.397 14.9793C152.212 14.8102 151.993 14.7256 151.741 14.7256C151.361 14.7256 151.06 14.9147 150.839 15.2928C150.618 15.6689 150.507 16.2211 150.505 16.9494C150.503 17.4369 150.552 17.8469 150.651 18.1792C150.753 18.5115 150.896 18.7622 151.081 18.9314C151.266 19.0985 151.486 19.1821 151.741 19.1821ZM155.088 20V19.2L157.21 17.1195C157.413 16.9146 157.582 16.7325 157.717 16.5733C157.853 16.4141 157.954 16.2599 158.022 16.1106C158.089 15.9614 158.123 15.8022 158.123 15.633C158.123 15.44 158.079 15.2748 157.992 15.1375C157.904 14.9982 157.784 14.8908 157.631 14.8152C157.478 14.7395 157.303 14.7017 157.108 14.7017C156.907 14.7017 156.731 14.7435 156.58 14.8271C156.429 14.9087 156.311 15.0251 156.228 15.1763C156.146 15.3276 156.105 15.5077 156.105 15.7166H155.052C155.052 15.3286 155.14 14.9913 155.317 14.7047C155.495 14.4182 155.738 14.1963 156.049 14.0391C156.361 13.8819 156.719 13.8033 157.123 13.8033C157.533 13.8033 157.893 13.8799 158.204 14.0331C158.514 14.1863 158.755 14.3963 158.926 14.6629C159.099 14.9296 159.186 15.2341 159.186 15.5763C159.186 15.8052 159.142 16.03 159.055 16.2509C158.967 16.4718 158.813 16.7166 158.592 16.9852C158.373 17.2539 158.066 17.5792 157.67 17.9613L156.616 19.0329V19.0747H159.278V20H155.088ZM162.502 20.0836C162.072 20.0836 161.69 20.0099 161.356 19.8627C161.024 19.7154 160.761 19.5105 160.568 19.2478C160.375 18.9851 160.272 18.6817 160.26 18.3374H161.383C161.393 18.5026 161.447 18.6468 161.547 18.7702C161.646 18.8916 161.779 18.9861 161.944 19.0538C162.109 19.1214 162.294 19.1553 162.499 19.1553C162.718 19.1553 162.912 19.1175 163.081 19.0418C163.25 18.9642 163.383 18.8568 163.478 18.7195C163.574 18.5822 163.621 18.424 163.619 18.2449C163.621 18.0598 163.573 17.8966 163.475 17.7553C163.378 17.614 163.236 17.5036 163.051 17.424C162.868 17.3444 162.647 17.3046 162.389 17.3046H161.848V16.4509H162.389C162.602 16.4509 162.788 16.4141 162.947 16.3405C163.108 16.2668 163.234 16.1634 163.326 16.03C163.418 15.8947 163.462 15.7385 163.46 15.5614C163.462 15.3883 163.424 15.238 163.344 15.1107C163.266 14.9813 163.156 14.8808 163.013 14.8092C162.871 14.7376 162.705 14.7017 162.514 14.7017C162.327 14.7017 162.154 14.7356 161.995 14.8032C161.836 14.8709 161.707 14.9674 161.61 15.0928C161.512 15.2161 161.46 15.3634 161.454 15.5345H160.389C160.397 15.1923 160.495 14.8918 160.684 14.6331C160.875 14.3724 161.13 14.1694 161.448 14.0242C161.767 13.8769 162.124 13.8033 162.52 13.8033C162.928 13.8033 163.282 13.8799 163.583 14.0331C163.885 14.1843 164.119 14.3883 164.284 14.645C164.449 14.9017 164.532 15.1853 164.532 15.4957C164.534 15.84 164.432 16.1285 164.227 16.3614C164.024 16.5942 163.758 16.7464 163.428 16.8181V16.8658C163.857 16.9255 164.187 17.0847 164.416 17.3434C164.646 17.6001 164.761 17.9195 164.759 18.3016C164.759 18.6438 164.661 18.9503 164.466 19.2209C164.273 19.4896 164.007 19.7005 163.666 19.8537C163.328 20.007 162.94 20.0836 162.502 20.0836Z" fill="#232F4E"/>
<path d="M47.8624 111.667C46.8338 111.667 45.9975 110.833 46.0231 109.805C46.2519 100.584 48.1789 91.4781 51.7128 82.9466C55.4844 73.8411 61.0125 65.5677 67.9815 58.5986C74.9506 51.6296 83.224 46.1015 92.3295 42.3299C100.861 38.796 109.966 36.869 119.188 36.6402C120.216 36.6147 121.05 37.4509 121.05 38.4795C121.05 39.5081 120.216 40.3395 119.187 40.3663C110.456 40.5944 101.835 42.4246 93.7549 45.7713C85.1014 49.3557 77.2386 54.6094 70.6155 61.2326C63.9923 67.8557 58.7386 75.7185 55.1542 84.372C51.8075 92.4516 49.9772 101.073 49.7492 109.805C49.7223 110.833 48.891 111.667 47.8624 111.667Z" fill="#3CC599"/>
<path d="M125.145 38.5942C125.202 37.5672 126.082 36.7789 127.107 36.8619C134.651 37.4727 142.059 39.2212 149.08 42.0479C150.034 42.4321 150.468 43.5304 150.06 44.4748C149.653 45.4191 148.557 45.8517 147.603 45.4688C140.984 42.8141 134.005 41.1669 126.899 40.5822C125.873 40.4979 125.087 39.6212 125.145 38.5942Z" fill="#3CC599"/>
<path d="M153.397 46.016C153.852 45.0933 154.97 44.7119 155.881 45.1892C165.56 50.2606 174.015 57.3849 180.655 66.0636C181.28 66.8805 181.094 68.0469 180.262 68.6514C179.43 69.256 178.267 69.0697 177.641 68.2536C171.358 60.0634 163.371 53.3342 154.234 48.5317C153.323 48.0531 152.943 46.9387 153.397 46.016Z" fill="#3CC599"/>
<circle cx="168.482" cy="55.8288" r="5.40359" fill="#3CC599"/>
<circle cx="168.482" cy="55.8296" r="2.40159" fill="white"/>
<path d="M182.034 71.2038C182.892 70.6351 184.05 70.8679 184.597 71.7388C191.77 83.1558 195.736 96.2958 196.076 109.775C196.102 110.803 195.266 111.638 194.237 111.638C193.209 111.639 192.377 110.805 192.35 109.777C192.012 97.0295 188.262 84.6048 181.492 73.7989C180.946 72.9272 181.177 71.7725 182.034 71.2038Z" fill="#A6A6A6"/>
<path d="M87.8084 88.9662V86.058L95.1002 74.5703H97.6075V78.5957H96.1236L91.5268 85.8704V86.0068H101.889V88.9662H87.8084ZM96.1918 92.0364V88.0792L96.26 86.7914V74.5703H99.7226V92.0364H96.1918ZM108.004 89.6485L107.91 90.5866C107.836 91.3371 107.694 92.0847 107.483 92.8295C107.279 93.58 107.063 94.2595 106.835 94.8678C106.613 95.4762 106.434 95.9538 106.298 96.3006H103.944C104.029 95.9652 104.146 95.4961 104.294 94.8934C104.442 94.2964 104.581 93.6255 104.712 92.8807C104.842 92.1359 104.925 91.3769 104.959 90.6036L105.002 89.6485H108.004ZM117.103 92.2752C115.79 92.2752 114.622 92.062 113.598 91.6356C112.581 91.2035 111.782 90.615 111.202 89.8702C110.622 89.1254 110.332 88.2811 110.332 87.3373C110.332 86.6095 110.497 85.9415 110.827 85.3331C111.162 84.719 111.617 84.2102 112.191 83.8065C112.765 83.3971 113.408 83.1356 114.118 83.0219V82.9025C113.186 82.7149 112.43 82.2629 111.85 81.5465C111.27 80.8244 110.98 79.9858 110.98 79.0306C110.98 78.1266 111.244 77.3221 111.773 76.6171C112.302 75.9064 113.027 75.3492 113.948 74.9455C114.875 74.5361 115.926 74.3315 117.103 74.3315C118.28 74.3315 119.329 74.5361 120.25 74.9455C121.177 75.3549 121.905 75.9149 122.434 76.6256C122.962 77.3306 123.23 78.1323 123.235 79.0306C123.23 79.9915 122.934 80.8301 122.348 81.5465C121.763 82.2629 121.012 82.7149 120.097 82.9025V83.0219C120.796 83.1356 121.43 83.3971 121.999 83.8065C122.573 84.2102 123.028 84.719 123.363 85.3331C123.704 85.9415 123.878 86.6095 123.883 87.3373C123.878 88.2811 123.585 89.1254 123.005 89.8702C122.425 90.615 121.623 91.2035 120.6 91.6356C119.582 92.062 118.417 92.2752 117.103 92.2752ZM117.103 89.5632C117.689 89.5632 118.201 89.458 118.639 89.2476C119.076 89.0316 119.417 88.7359 119.662 88.3607C119.912 87.9797 120.037 87.5419 120.037 87.0473C120.037 86.5413 119.909 86.095 119.653 85.7083C119.398 85.316 119.051 85.009 118.613 84.7873C118.175 84.5599 117.672 84.4461 117.103 84.4461C116.541 84.4461 116.037 84.5599 115.594 84.7873C115.15 85.009 114.801 85.316 114.545 85.7083C114.295 86.095 114.17 86.5413 114.17 87.0473C114.17 87.5419 114.292 87.9797 114.536 88.3607C114.781 88.7359 115.125 89.0316 115.568 89.2476C116.012 89.458 116.523 89.5632 117.103 89.5632ZM117.103 81.7597C117.592 81.7597 118.027 81.6602 118.408 81.4612C118.789 81.2622 119.088 80.9865 119.304 80.6339C119.52 80.2814 119.628 79.8749 119.628 79.4144C119.628 78.9595 119.52 78.5615 119.304 78.2204C119.088 77.8736 118.792 77.6035 118.417 77.4102C118.042 77.2112 117.604 77.1117 117.103 77.1117C116.609 77.1117 116.171 77.2112 115.79 77.4102C115.409 77.6035 115.111 77.8736 114.895 78.2204C114.684 78.5615 114.579 78.9595 114.579 79.4144C114.579 79.8749 114.687 80.2814 114.903 80.6339C115.119 80.9865 115.418 81.2622 115.799 81.4612C116.18 81.6602 116.614 81.7597 117.103 81.7597ZM127.156 92.0364L134.397 77.7087V77.5893H125.962V74.5703H138.218V77.632L130.968 92.0364H127.156ZM147.076 92.2752C146.178 92.2695 145.311 92.1188 144.475 91.8232C143.645 91.5275 142.9 91.0471 142.241 90.3819C141.581 89.7167 141.058 88.8354 140.672 87.7381C140.291 86.6408 140.1 85.2933 140.1 83.6956C140.106 82.2288 140.274 80.9182 140.603 79.7641C140.939 78.6042 141.416 77.6206 142.036 76.8132C142.662 76.0059 143.409 75.3918 144.279 74.9711C145.149 74.5447 146.124 74.3315 147.204 74.3315C148.37 74.3315 149.399 74.5589 150.292 75.0137C151.184 75.4629 151.901 76.0741 152.441 76.8473C152.987 77.6206 153.316 78.4876 153.43 79.4485H149.788C149.646 78.8401 149.348 78.3626 148.893 78.0157C148.438 77.6689 147.875 77.4955 147.204 77.4955C146.067 77.4955 145.203 77.9901 144.612 78.9794C144.026 79.9687 143.728 81.3134 143.716 83.0134H143.836C144.097 82.496 144.45 82.0553 144.893 81.6915C145.342 81.3219 145.851 81.0405 146.42 80.8472C146.994 80.6482 147.6 80.5487 148.236 80.5487C149.271 80.5487 150.192 80.7931 151 81.2821C151.807 81.7654 152.444 82.4306 152.91 83.2778C153.376 84.1249 153.609 85.0943 153.609 86.1859C153.609 87.3685 153.333 88.4204 152.782 89.3414C152.236 90.2625 151.471 90.9846 150.488 91.5076C149.51 92.025 148.373 92.2809 147.076 92.2752ZM147.059 89.3755C147.628 89.3755 148.137 89.2391 148.586 88.9662C149.035 88.6933 149.388 88.3237 149.643 87.8575C149.899 87.3913 150.027 86.8682 150.027 86.2883C150.027 85.7083 149.899 85.1881 149.643 84.7276C149.393 84.267 149.046 83.9003 148.603 83.6274C148.16 83.3545 147.654 83.2181 147.085 83.2181C146.659 83.2181 146.263 83.2976 145.9 83.4568C145.541 83.616 145.226 83.8378 144.953 84.1221C144.686 84.4063 144.475 84.7361 144.322 85.1114C144.168 85.4809 144.092 85.8761 144.092 86.2968C144.092 86.8597 144.219 87.3742 144.475 87.8404C144.737 88.3067 145.089 88.6791 145.533 88.9577C145.982 89.2363 146.491 89.3755 147.059 89.3755Z" fill="#232F4E"/>
<path d="M67.8417 109.659V109.038L69.7625 107.048C69.9676 106.831 70.1366 106.642 70.2697 106.479C70.4046 106.315 70.5053 106.159 70.5718 106.011C70.6383 105.863 70.6716 105.706 70.6716 105.54C70.6716 105.351 70.6272 105.189 70.5385 105.052C70.4498 104.913 70.3288 104.807 70.1754 104.733C70.0221 104.658 69.8493 104.62 69.6571 104.62C69.4539 104.62 69.2765 104.661 69.125 104.744C68.9734 104.828 68.857 104.945 68.7757 105.096C68.6944 105.248 68.6538 105.425 68.6538 105.629H67.8361C67.8361 105.283 67.9156 104.981 68.0745 104.722C68.2334 104.464 68.4514 104.263 68.7286 104.121C69.0058 103.977 69.3208 103.905 69.6738 103.905C70.0304 103.905 70.3445 103.976 70.6161 104.118C70.8896 104.258 71.103 104.451 71.2564 104.694C71.4098 104.937 71.4865 105.21 71.4865 105.515C71.4865 105.726 71.4467 105.932 71.3673 106.133C71.2897 106.334 71.1539 106.559 70.9598 106.807C70.7658 107.052 70.496 107.351 70.1505 107.702L69.0224 108.883V108.924H71.5779V109.659H67.8417ZM74.6047 109.753C74.1667 109.751 73.7925 109.636 73.4821 109.406C73.1717 109.177 72.9342 108.844 72.7698 108.406C72.6053 107.968 72.5231 107.44 72.5231 106.823C72.5231 106.208 72.6053 105.682 72.7698 105.246C72.9361 104.81 73.1745 104.477 73.4849 104.248C73.7972 104.019 74.1704 103.905 74.6047 103.905C75.0389 103.905 75.4112 104.02 75.7217 104.251C76.0321 104.48 76.2695 104.813 76.434 105.249C76.6003 105.683 76.6835 106.208 76.6835 106.823C76.6835 107.442 76.6012 107.971 76.4368 108.409C76.2723 108.845 76.0349 109.178 75.7244 109.409C75.414 109.638 75.0407 109.753 74.6047 109.753ZM74.6047 109.013C74.989 109.013 75.2893 108.825 75.5055 108.45C75.7235 108.075 75.8325 107.533 75.8325 106.823C75.8325 106.352 75.7826 105.954 75.6829 105.629C75.5849 105.302 75.4436 105.054 75.2588 104.886C75.0759 104.716 74.8578 104.631 74.6047 104.631C74.2222 104.631 73.9219 104.819 73.7039 105.196C73.4858 105.573 73.3759 106.115 73.374 106.823C73.374 107.296 73.423 107.696 73.5209 108.023C73.6207 108.349 73.7621 108.595 73.945 108.763C74.1279 108.93 74.3478 109.013 74.6047 109.013ZM80.6297 108.594V108.295C80.6297 108.081 80.6741 107.885 80.7627 107.707C80.8533 107.528 80.9845 107.385 81.1563 107.278C81.33 107.169 81.5398 107.114 81.7855 107.114C82.0368 107.114 82.2475 107.168 82.4175 107.275C82.5875 107.382 82.7159 107.525 82.8027 107.705C82.8914 107.884 82.9358 108.081 82.9358 108.295V108.594C82.9358 108.809 82.8914 109.005 82.8027 109.185C82.714 109.362 82.5838 109.505 82.4119 109.614C82.2419 109.721 82.0331 109.775 81.7855 109.775C81.5361 109.775 81.3254 109.721 81.1536 109.614C80.9817 109.505 80.8514 109.362 80.7627 109.185C80.6741 109.005 80.6297 108.809 80.6297 108.594ZM81.2755 108.295V108.594C81.2755 108.753 81.3134 108.897 81.3892 109.027C81.4649 109.156 81.597 109.221 81.7855 109.221C81.9721 109.221 82.1024 109.156 82.1763 109.027C82.2502 108.897 82.2872 108.753 82.2872 108.594V108.295C82.2872 108.136 82.2512 107.992 82.1791 107.863C82.1089 107.733 81.9777 107.669 81.7855 107.669C81.6007 107.669 81.4695 107.733 81.3919 107.863C81.3143 107.992 81.2755 108.136 81.2755 108.295ZM77.7748 105.346V105.047C77.7748 104.832 77.8192 104.635 77.9079 104.456C77.9984 104.277 78.1296 104.134 78.3015 104.027C78.4751 103.919 78.6849 103.866 78.9306 103.866C79.1819 103.866 79.3926 103.919 79.5626 104.027C79.7326 104.134 79.861 104.277 79.9479 104.456C80.0347 104.635 80.0781 104.832 80.0781 105.047V105.346C80.0781 105.56 80.0338 105.757 79.9451 105.936C79.8582 106.114 79.7289 106.257 79.557 106.366C79.387 106.473 79.1782 106.527 78.9306 106.527C78.6793 106.527 78.4678 106.473 78.2959 106.366C78.1259 106.257 77.9966 106.114 77.9079 105.936C77.8192 105.757 77.7748 105.56 77.7748 105.346ZM78.4234 105.047V105.346C78.4234 105.505 78.4604 105.649 78.5343 105.778C78.61 105.908 78.7422 105.972 78.9306 105.972C79.1154 105.972 79.2448 105.908 79.3187 105.778C79.3944 105.649 79.4323 105.505 79.4323 105.346V105.047C79.4323 104.888 79.3963 104.743 79.3242 104.614C79.2522 104.485 79.121 104.42 78.9306 104.42C78.7459 104.42 78.6147 104.485 78.5371 104.614C78.4613 104.743 78.4234 104.888 78.4234 105.047ZM78.0381 109.659L81.9407 103.982H82.6032L78.7006 109.659H78.0381ZM86.2071 109.659V105.401H87.0026V106.094H87.0553C87.144 105.86 87.289 105.677 87.4904 105.545C87.6918 105.412 87.933 105.346 88.2138 105.346C88.4984 105.346 88.7368 105.412 88.9289 105.545C89.123 105.678 89.2662 105.861 89.3586 106.094H89.4029C89.5045 105.867 89.6662 105.686 89.888 105.551C90.1097 105.414 90.3739 105.346 90.6807 105.346C91.0669 105.346 91.3819 105.467 91.6258 105.709C91.8716 105.951 91.9945 106.316 91.9945 106.804V109.659H91.1657V106.881C91.1657 106.593 91.0872 106.384 90.9301 106.255C90.7731 106.126 90.5855 106.061 90.3675 106.061C90.0977 106.061 89.888 106.144 89.7383 106.31C89.5886 106.475 89.5138 106.686 89.5138 106.945V109.659H88.6878V106.829C88.6878 106.598 88.6157 106.412 88.4716 106.272C88.3275 106.131 88.1399 106.061 87.909 106.061C87.7519 106.061 87.6068 106.103 87.4738 106.186C87.3426 106.267 87.2363 106.381 87.155 106.527C87.0756 106.673 87.0359 106.842 87.0359 107.034V109.659H86.2071ZM94.3442 109.753C94.0744 109.753 93.8305 109.703 93.6125 109.603C93.3944 109.502 93.2217 109.355 93.0942 109.163C92.9685 108.97 92.9057 108.735 92.9057 108.456C92.9057 108.216 92.9519 108.018 93.0443 107.863C93.1367 107.707 93.2614 107.584 93.4185 107.494C93.5755 107.403 93.7511 107.335 93.9451 107.289C94.1391 107.243 94.3368 107.208 94.5382 107.184C94.7932 107.154 95.0002 107.13 95.1591 107.111C95.318 107.091 95.4335 107.059 95.5056 107.014C95.5776 106.97 95.6137 106.898 95.6137 106.798V106.779C95.6137 106.537 95.5453 106.349 95.4086 106.216C95.2737 106.083 95.0722 106.017 94.8043 106.017C94.5253 106.017 94.3054 106.079 94.1446 106.202C93.9857 106.324 93.8758 106.46 93.8148 106.61L93.036 106.432C93.1283 106.174 93.2632 105.965 93.4406 105.806C93.6199 105.645 93.8259 105.529 94.0587 105.457C94.2915 105.383 94.5364 105.346 94.7932 105.346C94.9632 105.346 95.1434 105.366 95.3337 105.407C95.5259 105.446 95.7051 105.518 95.8714 105.623C96.0396 105.728 96.1772 105.879 96.2844 106.075C96.3916 106.269 96.4452 106.521 96.4452 106.831V109.659H95.6358V109.077H95.6026C95.549 109.184 95.4686 109.289 95.3614 109.393C95.2543 109.496 95.1166 109.582 94.9484 109.65C94.7803 109.719 94.5789 109.753 94.3442 109.753ZM94.5244 109.088C94.7535 109.088 94.9494 109.042 95.112 108.952C95.2764 108.861 95.4012 108.743 95.4862 108.597C95.573 108.449 95.6164 108.291 95.6164 108.123V107.574C95.5869 107.604 95.5296 107.632 95.4446 107.657C95.3614 107.681 95.2663 107.703 95.1591 107.721C95.0519 107.738 94.9475 107.754 94.8459 107.768C94.7443 107.781 94.6593 107.792 94.5909 107.802C94.4301 107.822 94.2832 107.856 94.1502 107.904C94.019 107.952 93.9137 108.021 93.8342 108.112C93.7566 108.201 93.7178 108.319 93.7178 108.467C93.7178 108.672 93.7936 108.827 93.9451 108.932C94.0966 109.036 94.2897 109.088 94.5244 109.088ZM94.4939 104.833L95.1425 103.555H96.0156L95.1563 104.833H94.4939ZM100.739 106.441L99.9881 106.574C99.9567 106.478 99.9068 106.386 99.8385 106.299C99.7719 106.212 99.6814 106.141 99.5668 106.086C99.4523 106.03 99.3091 106.003 99.1372 106.003C98.9025 106.003 98.7067 106.055 98.5496 106.161C98.3925 106.264 98.314 106.398 98.314 106.563C98.314 106.705 98.3667 106.819 98.472 106.906C98.5773 106.993 98.7473 107.064 98.982 107.12L99.6583 107.275C100.05 107.366 100.342 107.505 100.534 107.694C100.726 107.882 100.822 108.127 100.822 108.428C100.822 108.683 100.749 108.91 100.601 109.11C100.455 109.308 100.251 109.463 99.9881 109.576C99.7276 109.688 99.4255 109.745 99.0818 109.745C98.605 109.745 98.2161 109.643 97.9149 109.44C97.6137 109.235 97.4289 108.944 97.3605 108.567L98.1616 108.445C98.2115 108.653 98.314 108.811 98.4692 108.919C98.6244 109.024 98.8268 109.077 99.0762 109.077C99.3479 109.077 99.565 109.02 99.7276 108.908C99.8902 108.793 99.9715 108.653 99.9715 108.489C99.9715 108.356 99.9216 108.244 99.8218 108.154C99.7239 108.063 99.5733 107.995 99.37 107.949L98.6494 107.791C98.2521 107.7 97.9583 107.556 97.768 107.358C97.5795 107.16 97.4853 106.91 97.4853 106.607C97.4853 106.356 97.5555 106.136 97.6959 105.947C97.8364 105.759 98.0304 105.612 98.278 105.507C98.5256 105.399 98.8092 105.346 99.1289 105.346C99.589 105.346 99.9512 105.446 100.215 105.645C100.48 105.843 100.654 106.108 100.739 106.441ZM106.674 111.255V108.996H106.624C106.574 109.087 106.502 109.19 106.407 109.307C106.315 109.423 106.188 109.525 106.025 109.612C105.862 109.698 105.652 109.742 105.393 109.742C105.049 109.742 104.743 109.654 104.473 109.478C104.205 109.301 103.994 109.049 103.841 108.722C103.689 108.393 103.614 107.998 103.614 107.538C103.614 107.078 103.69 106.685 103.844 106.358C103.999 106.03 104.211 105.78 104.481 105.606C104.751 105.433 105.057 105.346 105.399 105.346C105.663 105.346 105.875 105.39 106.036 105.479C106.199 105.566 106.324 105.667 106.413 105.784C106.504 105.9 106.574 106.003 106.624 106.091H106.693V105.401H107.502V111.255H106.674ZM105.576 109.035C105.814 109.035 106.016 108.972 106.18 108.847C106.346 108.719 106.472 108.543 106.557 108.317C106.644 108.092 106.687 107.829 106.687 107.53C106.687 107.234 106.645 106.976 106.56 106.754C106.475 106.532 106.35 106.359 106.186 106.236C106.021 106.112 105.818 106.05 105.576 106.05C105.326 106.05 105.119 106.115 104.952 106.244C104.786 106.373 104.66 106.55 104.575 106.773C104.492 106.997 104.451 107.249 104.451 107.53C104.451 107.815 104.493 108.07 104.578 108.298C104.663 108.525 104.789 108.705 104.955 108.838C105.123 108.969 105.33 109.035 105.576 109.035ZM111.313 107.893V105.401H112.145V109.659H111.33V108.921H111.286C111.188 109.149 111.031 109.338 110.815 109.49C110.6 109.639 110.333 109.714 110.013 109.714C109.74 109.714 109.498 109.654 109.287 109.534C109.078 109.412 108.914 109.232 108.794 108.993C108.676 108.755 108.617 108.46 108.617 108.109V105.401H109.445V108.009C109.445 108.3 109.526 108.531 109.686 108.702C109.847 108.874 110.056 108.96 110.313 108.96C110.468 108.96 110.622 108.921 110.776 108.844C110.931 108.766 111.059 108.649 111.161 108.492C111.264 108.335 111.315 108.135 111.313 107.893ZM115.093 109.745C114.674 109.745 114.313 109.655 114.01 109.476C113.708 109.295 113.476 109.041 113.311 108.714C113.149 108.385 113.067 107.999 113.067 107.558C113.067 107.122 113.149 106.737 113.311 106.405C113.476 106.072 113.705 105.812 113.999 105.626C114.294 105.439 114.64 105.346 115.035 105.346C115.275 105.346 115.508 105.386 115.734 105.465C115.959 105.544 116.161 105.669 116.341 105.839C116.52 106.009 116.661 106.23 116.765 106.502C116.868 106.771 116.92 107.099 116.92 107.486V107.779H113.536V107.159H116.108C116.108 106.941 116.063 106.747 115.975 106.579C115.886 106.409 115.761 106.275 115.601 106.177C115.442 106.079 115.255 106.03 115.041 106.03C114.808 106.03 114.605 106.088 114.431 106.202C114.259 106.315 114.126 106.463 114.032 106.646C113.939 106.827 113.893 107.024 113.893 107.236V107.721C113.893 108.006 113.943 108.248 114.043 108.447C114.145 108.647 114.286 108.799 114.467 108.905C114.648 109.008 114.86 109.06 115.102 109.06C115.259 109.06 115.402 109.038 115.531 108.993C115.661 108.947 115.772 108.879 115.867 108.788C115.961 108.698 116.033 108.586 116.083 108.453L116.867 108.594C116.804 108.825 116.692 109.028 116.529 109.201C116.368 109.373 116.166 109.507 115.922 109.603C115.68 109.697 115.404 109.745 115.093 109.745ZM121.74 109.745C121.32 109.745 120.959 109.655 120.656 109.476C120.355 109.295 120.122 109.041 119.958 108.714C119.795 108.385 119.714 107.999 119.714 107.558C119.714 107.122 119.795 106.737 119.958 106.405C120.122 106.072 120.351 105.812 120.645 105.626C120.941 105.439 121.286 105.346 121.682 105.346C121.922 105.346 122.155 105.386 122.38 105.465C122.606 105.544 122.808 105.669 122.987 105.839C123.166 106.009 123.308 106.23 123.411 106.502C123.515 106.771 123.567 107.099 123.567 107.486V107.779H120.182V107.159H122.754C122.754 106.941 122.71 106.747 122.621 106.579C122.533 106.409 122.408 106.275 122.247 106.177C122.088 106.079 121.902 106.03 121.687 106.03C121.454 106.03 121.251 106.088 121.078 106.202C120.906 106.315 120.773 106.463 120.678 106.646C120.586 106.827 120.54 107.024 120.54 107.236V107.721C120.54 108.006 120.59 108.248 120.689 108.447C120.791 108.647 120.932 108.799 121.114 108.905C121.295 109.008 121.506 109.06 121.748 109.06C121.905 109.06 122.049 109.038 122.178 108.993C122.307 108.947 122.419 108.879 122.513 108.788C122.608 108.698 122.68 108.586 122.729 108.453L123.514 108.594C123.451 108.825 123.338 109.028 123.176 109.201C123.015 109.373 122.813 109.507 122.569 109.603C122.327 109.697 122.05 109.745 121.74 109.745ZM125.315 103.982V109.659H124.486V103.982H125.315ZM128.495 109.659V105.401H129.291V106.094H129.343C129.432 105.86 129.577 105.677 129.779 105.545C129.98 105.412 130.221 105.346 130.502 105.346C130.787 105.346 131.025 105.412 131.217 105.545C131.411 105.678 131.554 105.861 131.647 106.094H131.691C131.793 105.867 131.954 105.686 132.176 105.551C132.398 105.414 132.662 105.346 132.969 105.346C133.355 105.346 133.67 105.467 133.914 105.709C134.16 105.951 134.283 106.316 134.283 106.804V109.659H133.454V106.881C133.454 106.593 133.375 106.384 133.218 106.255C133.061 106.126 132.874 106.061 132.656 106.061C132.386 106.061 132.176 106.144 132.027 106.31C131.877 106.475 131.802 106.686 131.802 106.945V109.659H130.976V106.829C130.976 106.598 130.904 106.412 130.76 106.272C130.616 106.131 130.428 106.061 130.197 106.061C130.04 106.061 129.895 106.103 129.762 106.186C129.631 106.267 129.525 106.381 129.443 106.527C129.364 106.673 129.324 106.842 129.324 107.034V109.659H128.495ZM137.228 109.745C136.809 109.745 136.448 109.655 136.145 109.476C135.843 109.295 135.611 109.041 135.446 108.714C135.284 108.385 135.202 107.999 135.202 107.558C135.202 107.122 135.284 106.737 135.446 106.405C135.611 106.072 135.84 105.812 136.134 105.626C136.429 105.439 136.775 105.346 137.17 105.346C137.41 105.346 137.643 105.386 137.869 105.465C138.094 105.544 138.296 105.669 138.476 105.839C138.655 106.009 138.796 106.23 138.9 106.502C139.003 106.771 139.055 107.099 139.055 107.486V107.779H135.671V107.159H138.243C138.243 106.941 138.198 106.747 138.11 106.579C138.021 106.409 137.896 106.275 137.736 106.177C137.577 106.079 137.39 106.03 137.176 106.03C136.943 106.03 136.74 106.088 136.566 106.202C136.394 106.315 136.261 106.463 136.167 106.646C136.074 106.827 136.028 107.024 136.028 107.236V107.721C136.028 108.006 136.078 108.248 136.178 108.447C136.28 108.647 136.421 108.799 136.602 108.905C136.783 109.008 136.995 109.06 137.237 109.06C137.394 109.06 137.537 109.038 137.666 108.993C137.796 108.947 137.907 108.879 138.002 108.788C138.096 108.698 138.168 108.586 138.218 108.453L139.002 108.594C138.939 108.825 138.827 109.028 138.664 109.201C138.503 109.373 138.301 109.507 138.057 109.603C137.815 109.697 137.539 109.745 137.228 109.745ZM143.165 106.441L142.414 106.574C142.382 106.478 142.332 106.386 142.264 106.299C142.197 106.212 142.107 106.141 141.992 106.086C141.878 106.03 141.734 106.003 141.563 106.003C141.328 106.003 141.132 106.055 140.975 106.161C140.818 106.264 140.739 106.398 140.739 106.563C140.739 106.705 140.792 106.819 140.897 106.906C141.003 106.993 141.173 107.064 141.407 107.12L142.084 107.275C142.475 107.366 142.767 107.505 142.96 107.694C143.152 107.882 143.248 108.127 143.248 108.428C143.248 108.683 143.174 108.91 143.026 109.11C142.88 109.308 142.676 109.463 142.414 109.576C142.153 109.688 141.851 109.745 141.507 109.745C141.03 109.745 140.642 109.643 140.34 109.44C140.039 109.235 139.854 108.944 139.786 108.567L140.587 108.445C140.637 108.653 140.739 108.811 140.895 108.919C141.05 109.024 141.252 109.077 141.502 109.077C141.773 109.077 141.99 109.02 142.153 108.908C142.316 108.793 142.397 108.653 142.397 108.489C142.397 108.356 142.347 108.244 142.247 108.154C142.149 108.063 141.999 107.995 141.795 107.949L141.075 107.791C140.678 107.7 140.384 107.556 140.193 107.358C140.005 107.16 139.911 106.91 139.911 106.607C139.911 106.356 139.981 106.136 140.121 105.947C140.262 105.759 140.456 105.612 140.703 105.507C140.951 105.399 141.235 105.346 141.554 105.346C142.014 105.346 142.377 105.446 142.641 105.645C142.905 105.843 143.08 106.108 143.165 106.441ZM146.225 111.255V105.401H147.034V106.091H147.103C147.151 106.003 147.221 105.9 147.311 105.784C147.402 105.667 147.527 105.566 147.688 105.479C147.849 105.39 148.061 105.346 148.326 105.346C148.669 105.346 148.976 105.433 149.246 105.606C149.516 105.78 149.727 106.03 149.881 106.358C150.036 106.685 150.113 107.078 150.113 107.538C150.113 107.998 150.037 108.393 149.883 108.722C149.73 109.049 149.519 109.301 149.251 109.478C148.983 109.654 148.678 109.742 148.334 109.742C148.075 109.742 147.864 109.698 147.699 109.612C147.537 109.525 147.409 109.423 147.317 109.307C147.224 109.19 147.153 109.087 147.103 108.996H147.053V111.255H146.225ZM147.037 107.53C147.037 107.829 147.08 108.092 147.167 108.317C147.254 108.543 147.38 108.719 147.544 108.847C147.708 108.972 147.91 109.035 148.148 109.035C148.396 109.035 148.603 108.969 148.769 108.838C148.935 108.705 149.061 108.525 149.146 108.298C149.233 108.07 149.276 107.815 149.276 107.53C149.276 107.249 149.234 106.997 149.149 106.773C149.066 106.55 148.94 106.373 148.772 106.244C148.606 106.115 148.398 106.05 148.148 106.05C147.908 106.05 147.705 106.112 147.538 106.236C147.374 106.359 147.249 106.532 147.164 106.754C147.079 106.976 147.037 107.234 147.037 107.53ZM152.281 109.753C152.011 109.753 151.767 109.703 151.549 109.603C151.331 109.502 151.158 109.355 151.031 109.163C150.905 108.97 150.842 108.735 150.842 108.456C150.842 108.216 150.889 108.018 150.981 107.863C151.073 107.707 151.198 107.584 151.355 107.494C151.512 107.403 151.688 107.335 151.882 107.289C152.076 107.243 152.274 107.208 152.475 107.184C152.73 107.154 152.937 107.13 153.096 107.111C153.255 107.091 153.37 107.059 153.442 107.014C153.514 106.97 153.55 106.898 153.55 106.798V106.779C153.55 106.537 153.482 106.349 153.345 106.216C153.21 106.083 153.009 106.017 152.741 106.017C152.462 106.017 152.242 106.079 152.081 106.202C151.922 106.324 151.812 106.46 151.752 106.61L150.973 106.432C151.065 106.174 151.2 105.965 151.377 105.806C151.557 105.645 151.763 105.529 151.995 105.457C152.228 105.383 152.473 105.346 152.73 105.346C152.9 105.346 153.08 105.366 153.27 105.407C153.463 105.446 153.642 105.518 153.808 105.623C153.976 105.728 154.114 105.879 154.221 106.075C154.328 106.269 154.382 106.521 154.382 106.831V109.659H153.573V109.077H153.539C153.486 109.184 153.405 109.289 153.298 109.393C153.191 109.496 153.053 109.582 152.885 109.65C152.717 109.719 152.516 109.753 152.281 109.753ZM152.461 109.088C152.69 109.088 152.886 109.042 153.049 108.952C153.213 108.861 153.338 108.743 153.423 108.597C153.51 108.449 153.553 108.291 153.553 108.123V107.574C153.524 107.604 153.466 107.632 153.381 107.657C153.298 107.681 153.203 107.703 153.096 107.721C152.989 107.738 152.884 107.754 152.783 107.768C152.681 107.781 152.596 107.792 152.528 107.802C152.367 107.822 152.22 107.856 152.087 107.904C151.956 107.952 151.85 108.021 151.771 108.112C151.693 108.201 151.655 108.319 151.655 108.467C151.655 108.672 151.73 108.827 151.882 108.932C152.033 109.036 152.226 109.088 152.461 109.088ZM158.676 106.441L157.925 106.574C157.893 106.478 157.844 106.386 157.775 106.299C157.709 106.212 157.618 106.141 157.504 106.086C157.389 106.03 157.246 106.003 157.074 106.003C156.839 106.003 156.643 106.055 156.486 106.161C156.329 106.264 156.251 106.398 156.251 106.563C156.251 106.705 156.303 106.819 156.409 106.906C156.514 106.993 156.684 107.064 156.919 107.12L157.595 107.275C157.987 107.366 158.279 107.505 158.471 107.694C158.663 107.882 158.759 108.127 158.759 108.428C158.759 108.683 158.685 108.91 158.537 109.11C158.391 109.308 158.187 109.463 157.925 109.576C157.664 109.688 157.362 109.745 157.018 109.745C156.542 109.745 156.153 109.643 155.852 109.44C155.55 109.235 155.366 108.944 155.297 108.567L156.098 108.445C156.148 108.653 156.251 108.811 156.406 108.919C156.561 109.024 156.763 109.077 157.013 109.077C157.285 109.077 157.502 109.02 157.664 108.908C157.827 108.793 157.908 108.653 157.908 108.489C157.908 108.356 157.858 108.244 157.759 108.154C157.661 108.063 157.51 107.995 157.307 107.949L156.586 107.791C156.189 107.7 155.895 107.556 155.705 107.358C155.516 107.16 155.422 106.91 155.422 106.607C155.422 106.356 155.492 106.136 155.633 105.947C155.773 105.759 155.967 105.612 156.215 105.507C156.462 105.399 156.746 105.346 157.066 105.346C157.526 105.346 157.888 105.446 158.152 105.645C158.416 105.843 158.591 106.108 158.676 106.441ZM160.909 109.753C160.64 109.753 160.396 109.703 160.178 109.603C159.96 109.502 159.787 109.355 159.659 109.163C159.534 108.97 159.471 108.735 159.471 108.456C159.471 108.216 159.517 108.018 159.609 107.863C159.702 107.707 159.826 107.584 159.984 107.494C160.141 107.403 160.316 107.335 160.51 107.289C160.704 107.243 160.902 107.208 161.103 107.184C161.358 107.154 161.565 107.13 161.724 107.111C161.883 107.091 161.999 107.059 162.071 107.014C162.143 106.97 162.179 106.898 162.179 106.798V106.779C162.179 106.537 162.11 106.349 161.974 106.216C161.839 106.083 161.637 106.017 161.369 106.017C161.09 106.017 160.87 106.079 160.71 106.202C160.551 106.324 160.441 106.46 160.38 106.61L159.601 106.432C159.693 106.174 159.828 105.965 160.006 105.806C160.185 105.645 160.391 105.529 160.624 105.457C160.857 105.383 161.101 105.346 161.358 105.346C161.528 105.346 161.708 105.366 161.899 105.407C162.091 105.446 162.27 105.518 162.437 105.623C162.605 105.728 162.742 105.879 162.85 106.075C162.957 106.269 163.01 106.521 163.01 106.831V109.659H162.201V109.077H162.168C162.114 109.184 162.034 109.289 161.927 109.393C161.819 109.496 161.682 109.582 161.514 109.65C161.345 109.719 161.144 109.753 160.909 109.753ZM161.089 109.088C161.319 109.088 161.514 109.042 161.677 108.952C161.842 108.861 161.966 108.743 162.051 108.597C162.138 108.449 162.182 108.291 162.182 108.123V107.574C162.152 107.604 162.095 107.632 162.01 107.657C161.927 107.681 161.831 107.703 161.724 107.721C161.617 107.738 161.513 107.754 161.411 107.768C161.309 107.781 161.224 107.792 161.156 107.802C160.995 107.822 160.848 107.856 160.715 107.904C160.584 107.952 160.479 108.021 160.399 108.112C160.322 108.201 160.283 108.319 160.283 108.467C160.283 108.672 160.359 108.827 160.51 108.932C160.662 109.036 160.855 109.088 161.089 109.088ZM165.708 109.742C165.364 109.742 165.057 109.654 164.788 109.478C164.52 109.301 164.309 109.049 164.156 108.722C164.004 108.393 163.928 107.998 163.928 107.538C163.928 107.078 164.005 106.685 164.158 106.358C164.314 106.03 164.526 105.78 164.796 105.606C165.066 105.433 165.372 105.346 165.713 105.346C165.978 105.346 166.19 105.39 166.351 105.479C166.514 105.566 166.639 105.667 166.728 105.784C166.818 105.9 166.889 106.003 166.938 106.091H166.988V103.982H167.817V109.659H167.008V108.996H166.938C166.889 109.087 166.817 109.19 166.722 109.307C166.63 109.423 166.502 109.525 166.34 109.612C166.177 109.698 165.967 109.742 165.708 109.742ZM165.891 109.035C166.129 109.035 166.331 108.972 166.495 108.847C166.661 108.719 166.787 108.543 166.872 108.317C166.959 108.092 167.002 107.829 167.002 107.53C167.002 107.234 166.96 106.976 166.875 106.754C166.79 106.532 166.665 106.359 166.501 106.236C166.336 106.112 166.133 106.05 165.891 106.05C165.641 106.05 165.433 106.115 165.267 106.244C165.101 106.373 164.975 106.55 164.89 106.773C164.807 106.997 164.765 107.249 164.765 107.53C164.765 107.815 164.808 108.07 164.893 108.298C164.978 108.525 165.104 108.705 165.27 108.838C165.438 108.969 165.645 109.035 165.891 109.035ZM170.793 109.745C170.394 109.745 170.046 109.653 169.748 109.47C169.451 109.287 169.22 109.031 169.055 108.702C168.891 108.374 168.809 107.989 168.809 107.549C168.809 107.108 168.891 106.722 169.055 106.391C169.22 106.06 169.451 105.803 169.748 105.62C170.046 105.437 170.394 105.346 170.793 105.346C171.192 105.346 171.541 105.437 171.838 105.62C172.136 105.803 172.367 106.06 172.531 106.391C172.696 106.722 172.778 107.108 172.778 107.549C172.778 107.989 172.696 108.374 172.531 108.702C172.367 109.031 172.136 109.287 171.838 109.47C171.541 109.653 171.192 109.745 170.793 109.745ZM170.796 109.049C171.055 109.049 171.269 108.981 171.439 108.844C171.609 108.707 171.735 108.525 171.816 108.298C171.899 108.07 171.941 107.82 171.941 107.547C171.941 107.275 171.899 107.026 171.816 106.798C171.735 106.569 171.609 106.385 171.439 106.247C171.269 106.108 171.055 106.039 170.796 106.039C170.536 106.039 170.319 106.108 170.147 106.247C169.977 106.385 169.851 106.569 169.768 106.798C169.686 107.026 169.646 107.275 169.646 107.547C169.646 107.82 169.686 108.07 169.768 108.298C169.851 108.525 169.977 108.707 170.147 108.844C170.319 108.981 170.536 109.049 170.796 109.049Z" fill="#232F4E"/>
<path d="M57.59 121.666H56.9248L58.8488 116.426H59.5038L61.4278 121.666H60.7626L59.1968 117.255H59.1558L57.59 121.666ZM57.8356 119.619H60.517V120.182H57.8356V119.619ZM63.7586 121.748C63.3902 121.748 63.0729 121.661 62.8068 121.487C62.5407 121.313 62.3361 121.074 62.1928 120.768C62.0495 120.463 61.9779 120.114 61.9779 119.722C61.9779 119.323 62.0512 118.97 62.1979 118.665C62.3463 118.358 62.5527 118.118 62.8171 117.946C63.0831 117.772 63.3936 117.685 63.7484 117.685C64.0247 117.685 64.2737 117.736 64.4954 117.839C64.7172 117.941 64.8988 118.084 65.0404 118.269C65.182 118.453 65.2698 118.668 65.3039 118.913H64.7001C64.6541 118.734 64.5517 118.576 64.3931 118.437C64.2362 118.298 64.0247 118.228 63.7586 118.228C63.5232 118.228 63.3168 118.289 63.1394 118.412C62.9638 118.533 62.8264 118.704 62.7275 118.926C62.6303 119.146 62.5817 119.405 62.5817 119.701C62.5817 120.005 62.6294 120.269 62.725 120.494C62.8222 120.72 62.9586 120.894 63.1343 121.019C63.3117 121.143 63.5198 121.206 63.7586 121.206C63.9155 121.206 64.0579 121.178 64.1859 121.124C64.3138 121.069 64.4221 120.991 64.5108 120.888C64.5995 120.786 64.6626 120.663 64.7001 120.52H65.3039C65.2698 120.752 65.1854 120.961 65.0506 121.147C64.9176 121.331 64.7411 121.478 64.521 121.587C64.3027 121.694 64.0486 121.748 63.7586 121.748ZM67.8957 117.736V118.248H65.8591V117.736H67.8957ZM66.4527 116.795H67.0565V120.54C67.0565 120.711 67.0813 120.839 67.1307 120.924C67.1819 121.008 67.2467 121.064 67.3252 121.093C67.4053 121.12 67.4898 121.134 67.5785 121.134C67.645 121.134 67.6996 121.131 67.7422 121.124C67.7848 121.115 67.819 121.108 67.8445 121.103L67.9674 121.646C67.9264 121.661 67.8693 121.676 67.7959 121.692C67.7226 121.709 67.6296 121.717 67.5171 121.717C67.3465 121.717 67.1793 121.681 67.0156 121.607C66.8535 121.534 66.7188 121.422 66.6113 121.272C66.5056 121.122 66.4527 120.933 66.4527 120.704V116.795ZM71.2806 120.059V117.736H71.8844V121.666H71.2806V121.001H71.2397C71.1476 121.201 71.0043 121.37 70.8099 121.51C70.6154 121.648 70.3698 121.717 70.073 121.717C69.8274 121.717 69.6091 121.664 69.418 121.556C69.227 121.447 69.0769 121.283 68.9677 121.065C68.8586 120.845 68.804 120.568 68.804 120.233V117.736H69.4078V120.193C69.4078 120.479 69.488 120.708 69.6483 120.878C69.8103 121.049 70.0167 121.134 70.2675 121.134C70.4176 121.134 70.5702 121.096 70.7254 121.019C70.8824 120.942 71.0137 120.824 71.1194 120.666C71.2269 120.507 71.2806 120.305 71.2806 120.059ZM74.1468 121.758C73.8978 121.758 73.6718 121.711 73.4688 121.618C73.2658 121.522 73.1046 121.385 72.9852 121.206C72.8659 121.025 72.8062 120.807 72.8062 120.551C72.8062 120.326 72.8505 120.143 72.9392 120.003C73.0279 119.862 73.1464 119.751 73.2948 119.671C73.4432 119.59 73.607 119.531 73.7861 119.491C73.9669 119.451 74.1485 119.418 74.331 119.394C74.5698 119.364 74.7634 119.341 74.9118 119.325C75.0619 119.308 75.1711 119.28 75.2393 119.241C75.3092 119.202 75.3442 119.133 75.3442 119.036V119.016C75.3442 118.763 75.2751 118.567 75.137 118.427C75.0005 118.287 74.7933 118.217 74.5152 118.217C74.227 118.217 74.001 118.28 73.8372 118.407C73.6735 118.533 73.5584 118.668 73.4918 118.811L72.9187 118.606C73.0211 118.367 73.1575 118.182 73.3281 118.048C73.5004 117.914 73.688 117.82 73.891 117.767C74.0956 117.712 74.2969 117.685 74.4948 117.685C74.621 117.685 74.766 117.701 74.9297 117.731C75.0952 117.76 75.2547 117.821 75.4082 117.913C75.5634 118.005 75.6922 118.144 75.7945 118.33C75.8968 118.516 75.948 118.765 75.948 119.077V121.666H75.3442V121.134H75.3135C75.2726 121.219 75.2043 121.311 75.1088 121.408C75.0133 121.505 74.8862 121.588 74.7276 121.656C74.569 121.724 74.3754 121.758 74.1468 121.758ZM74.2389 121.216C74.4777 121.216 74.679 121.169 74.8427 121.075C75.0082 120.981 75.1327 120.86 75.2163 120.712C75.3016 120.564 75.3442 120.407 75.3442 120.244V119.691C75.3186 119.722 75.2623 119.75 75.1753 119.775C75.0901 119.799 74.9911 119.821 74.8786 119.839C74.7677 119.857 74.6594 119.872 74.5536 119.886C74.4496 119.897 74.3651 119.908 74.3003 119.916C74.1434 119.937 73.9967 119.97 73.8603 120.016C73.7255 120.06 73.6163 120.128 73.5328 120.218C73.4509 120.307 73.41 120.428 73.41 120.581C73.41 120.791 73.4876 120.95 73.6428 121.057C73.7997 121.163 73.9984 121.216 74.2389 121.216ZM77.6539 116.426V121.666H77.0501V116.426H77.6539ZM78.7598 121.666V117.736H79.3636V121.666H78.7598ZM79.0668 117.081C78.9492 117.081 78.8477 117.041 78.7624 116.961C78.6788 116.881 78.637 116.785 78.637 116.672C78.637 116.559 78.6788 116.463 78.7624 116.383C78.8477 116.303 78.9492 116.263 79.0668 116.263C79.1845 116.263 79.2852 116.303 79.3687 116.383C79.454 116.463 79.4967 116.559 79.4967 116.672C79.4967 116.785 79.454 116.881 79.3687 116.961C79.2852 117.041 79.1845 117.081 79.0668 117.081ZM80.357 121.666V121.206L82.588 118.34V118.299H80.4286V117.736H83.3658V118.217L81.1962 121.062V121.103H83.4374V121.666H80.357ZM85.5239 121.758C85.2749 121.758 85.0489 121.711 84.8459 121.618C84.6429 121.522 84.4817 121.385 84.3623 121.206C84.2429 121.025 84.1832 120.807 84.1832 120.551C84.1832 120.326 84.2276 120.143 84.3163 120.003C84.405 119.862 84.5235 119.751 84.6719 119.671C84.8203 119.59 84.9841 119.531 85.1631 119.491C85.344 119.451 85.5256 119.418 85.7081 119.394C85.9469 119.364 86.1405 119.341 86.2889 119.325C86.439 119.308 86.5482 119.28 86.6164 119.241C86.6863 119.202 86.7213 119.133 86.7213 119.036V119.016C86.7213 118.763 86.6522 118.567 86.514 118.427C86.3776 118.287 86.1704 118.217 85.8923 118.217C85.6041 118.217 85.3781 118.28 85.2143 118.407C85.0506 118.533 84.9354 118.668 84.8689 118.811L84.2958 118.606C84.3982 118.367 84.5346 118.182 84.7052 118.048C84.8774 117.914 85.0651 117.82 85.268 117.767C85.4727 117.712 85.674 117.685 85.8719 117.685C85.9981 117.685 86.1431 117.701 86.3068 117.731C86.4723 117.76 86.6317 117.821 86.7852 117.913C86.9405 118.005 87.0692 118.144 87.1716 118.33C87.2739 118.516 87.3251 118.765 87.3251 119.077V121.666H86.7213V121.134H86.6906C86.6496 121.219 86.5814 121.311 86.4859 121.408C86.3904 121.505 86.2633 121.588 86.1047 121.656C85.9461 121.724 85.7525 121.758 85.5239 121.758ZM85.616 121.216C85.8548 121.216 86.0561 121.169 86.2198 121.075C86.3853 120.981 86.5098 120.86 86.5934 120.712C86.6786 120.564 86.7213 120.407 86.7213 120.244V119.691C86.6957 119.722 86.6394 119.75 86.5524 119.775C86.4671 119.799 86.3682 119.821 86.2556 119.839C86.1448 119.857 86.0365 119.872 85.9307 119.886C85.8267 119.897 85.7422 119.908 85.6774 119.916C85.5205 119.937 85.3738 119.97 85.2373 120.016C85.1026 120.06 84.9934 120.128 84.9099 120.218C84.828 120.307 84.787 120.428 84.787 120.581C84.787 120.791 84.8647 120.95 85.0199 121.057C85.1768 121.163 85.3755 121.216 85.616 121.216ZM89.9111 121.748C89.5836 121.748 89.2945 121.665 89.0438 121.5C88.793 121.333 88.5969 121.097 88.4553 120.794C88.3137 120.488 88.243 120.128 88.243 119.712C88.243 119.299 88.3137 118.941 88.4553 118.637C88.5969 118.333 88.7939 118.099 89.0463 117.933C89.2988 117.768 89.5904 117.685 89.9213 117.685C90.1772 117.685 90.3793 117.728 90.5277 117.813C90.6778 117.897 90.7921 117.992 90.8706 118.1C90.9507 118.205 91.013 118.292 91.0573 118.361H91.1085V116.426H91.7123V121.666H91.129V121.062H91.0573C91.013 121.134 90.9499 121.224 90.868 121.334C90.7861 121.441 90.6693 121.537 90.5175 121.623C90.3657 121.706 90.1636 121.748 89.9111 121.748ZM89.993 121.206C90.2352 121.206 90.4399 121.143 90.607 121.016C90.7742 120.888 90.9013 120.712 90.9883 120.487C91.0752 120.26 91.1187 119.998 91.1187 119.701C91.1187 119.408 91.0761 119.151 90.9908 118.931C90.9055 118.709 90.7793 118.537 90.6121 118.414C90.445 118.29 90.2386 118.228 89.993 118.228C89.7371 118.228 89.5239 118.293 89.3534 118.425C89.1845 118.554 89.0574 118.731 88.9721 118.954C88.8886 119.176 88.8468 119.425 88.8468 119.701C88.8468 119.981 88.8894 120.235 88.9747 120.464C89.0617 120.691 89.1896 120.871 89.3585 121.006C89.529 121.139 89.7405 121.206 89.993 121.206ZM94.4985 121.748C94.1438 121.748 93.8325 121.664 93.5647 121.495C93.2986 121.326 93.0905 121.09 92.9404 120.786C92.792 120.482 92.7178 120.128 92.7178 119.722C92.7178 119.312 92.792 118.955 92.9404 118.65C93.0905 118.344 93.2986 118.107 93.5647 117.938C93.8325 117.77 94.1438 117.685 94.4985 117.685C94.8533 117.685 95.1638 117.77 95.4298 117.938C95.6976 118.107 95.9057 118.344 96.0541 118.65C96.2042 118.955 96.2793 119.312 96.2793 119.722C96.2793 120.128 96.2042 120.482 96.0541 120.786C95.9057 121.09 95.6976 121.326 95.4298 121.495C95.1638 121.664 94.8533 121.748 94.4985 121.748ZM94.4985 121.206C94.768 121.206 94.9898 121.137 95.1638 120.998C95.3377 120.86 95.4665 120.679 95.5501 120.453C95.6337 120.228 95.6755 119.984 95.6755 119.722C95.6755 119.459 95.6337 119.214 95.5501 118.987C95.4665 118.761 95.3377 118.577 95.1638 118.437C94.9898 118.298 94.768 118.228 94.4985 118.228C94.229 118.228 94.0073 118.298 93.8333 118.437C93.6593 118.577 93.5306 118.761 93.447 118.987C93.3634 119.214 93.3216 119.459 93.3216 119.722C93.3216 119.984 93.3634 120.228 93.447 120.453C93.5306 120.679 93.6593 120.86 93.8333 120.998C94.0073 121.137 94.229 121.206 94.4985 121.206ZM100.384 121.758C100.135 121.758 99.9087 121.711 99.7058 121.618C99.5028 121.522 99.3416 121.385 99.2222 121.206C99.1028 121.025 99.0431 120.807 99.0431 120.551C99.0431 120.326 99.0874 120.143 99.1761 120.003C99.2648 119.862 99.3834 119.751 99.5318 119.671C99.6802 119.59 99.8439 119.531 100.023 119.491C100.204 119.451 100.385 119.418 100.568 119.394C100.807 119.364 101 119.341 101.149 119.325C101.299 119.308 101.408 119.28 101.476 119.241C101.546 119.202 101.581 119.133 101.581 119.036V119.016C101.581 118.763 101.512 118.567 101.374 118.427C101.237 118.287 101.03 118.217 100.752 118.217C100.464 118.217 100.238 118.28 100.074 118.407C99.9104 118.533 99.7953 118.668 99.7288 118.811L99.1557 118.606C99.258 118.367 99.3945 118.182 99.565 118.048C99.7373 117.914 99.9249 117.82 100.128 117.767C100.333 117.712 100.534 117.685 100.732 117.685C100.858 117.685 101.003 117.701 101.167 117.731C101.332 117.76 101.492 117.821 101.645 117.913C101.8 118.005 101.929 118.144 102.031 118.33C102.134 118.516 102.185 118.765 102.185 119.077V121.666H101.581V121.134H101.55C101.51 121.219 101.441 121.311 101.346 121.408C101.25 121.505 101.123 121.588 100.965 121.656C100.806 121.724 100.612 121.758 100.384 121.758ZM100.476 121.216C100.715 121.216 100.916 121.169 101.08 121.075C101.245 120.981 101.37 120.86 101.453 120.712C101.539 120.564 101.581 120.407 101.581 120.244V119.691C101.556 119.722 101.499 119.75 101.412 119.775C101.327 119.799 101.228 119.821 101.116 119.839C101.005 119.857 100.896 119.872 100.791 119.886C100.687 119.897 100.602 119.908 100.537 119.916C100.38 119.937 100.234 119.97 100.097 120.016C99.9625 120.06 99.8533 120.128 99.7697 120.218C99.6878 120.307 99.6469 120.428 99.6469 120.581C99.6469 120.791 99.7245 120.95 99.8797 121.057C100.037 121.163 100.235 121.216 100.476 121.216ZM103.891 116.426V121.666H103.287V116.426H103.891ZM108.783 121.738C108.446 121.738 108.145 121.68 107.88 121.564C107.618 121.448 107.409 121.287 107.253 121.08C107.1 120.872 107.016 120.631 107.003 120.356H107.647C107.661 120.525 107.719 120.671 107.821 120.794C107.924 120.915 108.058 121.009 108.223 121.075C108.389 121.142 108.572 121.175 108.773 121.175C108.998 121.175 109.198 121.136 109.372 121.057C109.546 120.979 109.682 120.87 109.781 120.73C109.88 120.59 109.93 120.428 109.93 120.244C109.93 120.051 109.882 119.881 109.786 119.735C109.691 119.586 109.551 119.47 109.367 119.387C109.183 119.303 108.957 119.261 108.691 119.261H108.272V118.698H108.691C108.899 118.698 109.082 118.661 109.239 118.586C109.397 118.511 109.521 118.405 109.61 118.269C109.7 118.132 109.745 117.972 109.745 117.788C109.745 117.61 109.706 117.456 109.628 117.324C109.549 117.193 109.438 117.091 109.295 117.017C109.154 116.944 108.986 116.907 108.794 116.907C108.613 116.907 108.442 116.941 108.282 117.007C108.123 117.072 107.994 117.167 107.893 117.291C107.792 117.414 107.738 117.562 107.729 117.736H107.115C107.125 117.462 107.208 117.221 107.363 117.015C107.519 116.807 107.722 116.645 107.972 116.529C108.225 116.413 108.502 116.355 108.804 116.355C109.128 116.355 109.406 116.42 109.638 116.552C109.87 116.681 110.048 116.853 110.173 117.066C110.297 117.279 110.359 117.509 110.359 117.757C110.359 118.052 110.282 118.303 110.127 118.512C109.973 118.72 109.764 118.864 109.5 118.944V118.985C109.831 119.039 110.089 119.18 110.275 119.407C110.461 119.632 110.554 119.911 110.554 120.244C110.554 120.529 110.476 120.784 110.321 121.011C110.168 121.236 109.958 121.414 109.692 121.543C109.426 121.673 109.123 121.738 108.783 121.738ZM113.309 121.738C112.924 121.738 112.596 121.633 112.324 121.423C112.053 121.212 111.846 120.905 111.703 120.505C111.559 120.102 111.488 119.616 111.488 119.046C111.488 118.48 111.559 117.996 111.703 117.596C111.848 117.193 112.056 116.886 112.327 116.675C112.6 116.461 112.927 116.355 113.309 116.355C113.691 116.355 114.018 116.461 114.289 116.675C114.562 116.886 114.77 117.193 114.914 117.596C115.059 117.996 115.131 118.48 115.131 119.046C115.131 119.616 115.059 120.102 114.916 120.505C114.773 120.905 114.566 121.212 114.294 121.423C114.023 121.633 113.695 121.738 113.309 121.738ZM113.309 121.175C113.691 121.175 113.988 120.991 114.2 120.622C114.411 120.254 114.517 119.729 114.517 119.046C114.517 118.593 114.468 118.206 114.371 117.887C114.276 117.568 114.138 117.325 113.957 117.158C113.778 116.991 113.562 116.907 113.309 116.907C112.931 116.907 112.635 117.094 112.422 117.468C112.208 117.84 112.102 118.366 112.102 119.046C112.102 119.5 112.15 119.886 112.245 120.203C112.341 120.52 112.478 120.761 112.657 120.927C112.838 121.092 113.055 121.175 113.309 121.175ZM119.624 121.748C119.296 121.748 119.007 121.665 118.756 121.5C118.506 121.333 118.31 121.097 118.168 120.794C118.026 120.488 117.956 120.128 117.956 119.712C117.956 119.299 118.026 118.941 118.168 118.637C118.31 118.333 118.507 118.099 118.759 117.933C119.011 117.768 119.303 117.685 119.634 117.685C119.89 117.685 120.092 117.728 120.24 117.813C120.391 117.897 120.505 117.992 120.583 118.1C120.663 118.205 120.726 118.292 120.77 118.361H120.821V116.426H121.425V121.666H120.842V121.062H120.77C120.726 121.134 120.663 121.224 120.581 121.334C120.499 121.441 120.382 121.537 120.23 121.623C120.078 121.706 119.876 121.748 119.624 121.748ZM119.706 121.206C119.948 121.206 120.153 121.143 120.32 121.016C120.487 120.888 120.614 120.712 120.701 120.487C120.788 120.26 120.831 119.998 120.831 119.701C120.831 119.408 120.789 119.151 120.704 118.931C120.618 118.709 120.492 118.537 120.325 118.414C120.158 118.29 119.951 118.228 119.706 118.228C119.45 118.228 119.237 118.293 119.066 118.425C118.897 118.554 118.77 118.731 118.685 118.954C118.601 119.176 118.559 119.425 118.559 119.701C118.559 119.981 118.602 120.235 118.687 120.464C118.774 120.691 118.902 120.871 119.071 121.006C119.242 121.139 119.453 121.206 119.706 121.206ZM124.262 121.748C123.884 121.748 123.557 121.665 123.282 121.497C123.01 121.329 122.799 121.093 122.651 120.791C122.504 120.488 122.431 120.135 122.431 119.732C122.431 119.329 122.504 118.975 122.651 118.668C122.799 118.359 123.005 118.118 123.27 117.946C123.536 117.772 123.846 117.685 124.201 117.685C124.406 117.685 124.608 117.719 124.807 117.788C125.007 117.856 125.189 117.967 125.352 118.12C125.516 118.272 125.647 118.473 125.744 118.724C125.841 118.975 125.89 119.283 125.89 119.65V119.906H122.86V119.384H125.276C125.276 119.162 125.231 118.964 125.143 118.79C125.056 118.616 124.931 118.479 124.769 118.379C124.609 118.278 124.419 118.228 124.201 118.228C123.96 118.228 123.752 118.287 123.577 118.407C123.403 118.524 123.269 118.678 123.175 118.867C123.081 119.057 123.034 119.26 123.034 119.476V119.824C123.034 120.121 123.085 120.372 123.188 120.579C123.292 120.784 123.436 120.94 123.62 121.047C123.804 121.153 124.018 121.206 124.262 121.206C124.421 121.206 124.564 121.184 124.692 121.139C124.822 121.093 124.934 121.025 125.027 120.934C125.121 120.842 125.194 120.728 125.245 120.592L125.828 120.755C125.767 120.953 125.664 121.127 125.519 121.277C125.374 121.426 125.195 121.542 124.981 121.625C124.768 121.707 124.528 121.748 124.262 121.748ZM133.071 116.426V121.666H132.457L129.602 117.552H129.551V121.666H128.916V116.426H129.53L132.396 120.551H132.447V116.426H133.071ZM135.856 121.748C135.501 121.748 135.19 121.664 134.922 121.495C134.656 121.326 134.448 121.09 134.298 120.786C134.149 120.482 134.075 120.128 134.075 119.722C134.075 119.312 134.149 118.955 134.298 118.65C134.448 118.344 134.656 118.107 134.922 117.938C135.19 117.77 135.501 117.685 135.856 117.685C136.21 117.685 136.521 117.77 136.787 117.938C137.055 118.107 137.263 118.344 137.411 118.65C137.561 118.955 137.636 119.312 137.636 119.722C137.636 120.128 137.561 120.482 137.411 120.786C137.263 121.09 137.055 121.326 136.787 121.495C136.521 121.664 136.21 121.748 135.856 121.748ZM135.856 121.206C136.125 121.206 136.347 121.137 136.521 120.998C136.695 120.86 136.824 120.679 136.907 120.453C136.991 120.228 137.033 119.984 137.033 119.722C137.033 119.459 136.991 119.214 136.907 118.987C136.824 118.761 136.695 118.577 136.521 118.437C136.347 118.298 136.125 118.228 135.856 118.228C135.586 118.228 135.364 118.298 135.19 118.437C135.016 118.577 134.888 118.761 134.804 118.987C134.721 119.214 134.679 119.459 134.679 119.722C134.679 119.984 134.721 120.228 134.804 120.453C134.888 120.679 135.016 120.86 135.19 120.998C135.364 121.137 135.586 121.206 135.856 121.206ZM141.631 117.736L140.178 121.666H139.564L138.11 117.736H138.765L139.85 120.868H139.891L140.976 117.736H141.631ZM142.428 121.666V117.736H143.032V121.666H142.428ZM142.735 117.081C142.617 117.081 142.516 117.041 142.43 116.961C142.347 116.881 142.305 116.785 142.305 116.672C142.305 116.559 142.347 116.463 142.43 116.383C142.516 116.303 142.617 116.263 142.735 116.263C142.853 116.263 142.953 116.303 143.037 116.383C143.122 116.463 143.165 116.559 143.165 116.672C143.165 116.785 143.122 116.881 143.037 116.961C142.953 117.041 142.853 117.081 142.735 117.081ZM145.785 121.748C145.407 121.748 145.08 121.665 144.805 121.497C144.532 121.329 144.322 121.093 144.173 120.791C144.027 120.488 143.953 120.135 143.953 119.732C143.953 119.329 144.027 118.975 144.173 118.668C144.322 118.359 144.528 118.118 144.793 117.946C145.059 117.772 145.369 117.685 145.724 117.685C145.929 117.685 146.131 117.719 146.33 117.788C146.53 117.856 146.711 117.967 146.875 118.12C147.039 118.272 147.169 118.473 147.267 118.724C147.364 118.975 147.413 119.283 147.413 119.65V119.906H144.383V119.384H146.798C146.798 119.162 146.754 118.964 146.665 118.79C146.578 118.616 146.454 118.479 146.292 118.379C146.132 118.278 145.942 118.228 145.724 118.228C145.483 118.228 145.275 118.287 145.1 118.407C144.926 118.524 144.792 118.678 144.698 118.867C144.604 119.057 144.557 119.26 144.557 119.476V119.824C144.557 120.121 144.608 120.372 144.711 120.579C144.815 120.784 144.959 120.94 145.143 121.047C145.327 121.153 145.541 121.206 145.785 121.206C145.944 121.206 146.087 121.184 146.215 121.139C146.345 121.093 146.456 121.025 146.55 120.934C146.644 120.842 146.717 120.728 146.768 120.592L147.351 120.755C147.29 120.953 147.186 121.127 147.042 121.277C146.897 121.426 146.717 121.542 146.504 121.625C146.291 121.707 146.051 121.748 145.785 121.748ZM148.331 121.666V117.736H148.914V118.35H148.966C149.047 118.141 149.18 117.978 149.362 117.862C149.545 117.744 149.764 117.685 150.02 117.685C150.279 117.685 150.495 117.744 150.667 117.862C150.841 117.978 150.977 118.141 151.074 118.35H151.115C151.215 118.147 151.366 117.986 151.568 117.867C151.769 117.746 152.01 117.685 152.292 117.685C152.643 117.685 152.93 117.795 153.154 118.015C153.377 118.234 153.489 118.574 153.489 119.036V121.666H152.885V119.036C152.885 118.746 152.806 118.539 152.647 118.414C152.489 118.29 152.302 118.228 152.087 118.228C151.811 118.228 151.597 118.311 151.445 118.478C151.293 118.644 151.217 118.854 151.217 119.108V121.666H150.603V118.975C150.603 118.751 150.53 118.571 150.386 118.435C150.241 118.297 150.054 118.228 149.825 118.228C149.668 118.228 149.522 118.269 149.385 118.353C149.25 118.437 149.141 118.553 149.058 118.701C148.976 118.848 148.935 119.017 148.935 119.21V121.666H148.331ZM154.675 121.666V116.426H155.279V118.361H155.33C155.374 118.292 155.436 118.205 155.514 118.1C155.594 117.992 155.708 117.897 155.857 117.813C156.007 117.728 156.21 117.685 156.466 117.685C156.797 117.685 157.088 117.768 157.341 117.933C157.593 118.099 157.79 118.333 157.932 118.637C158.073 118.941 158.144 119.299 158.144 119.712C158.144 120.128 158.073 120.488 157.932 120.794C157.79 121.097 157.594 121.333 157.343 121.5C157.093 121.665 156.804 121.748 156.476 121.748C156.224 121.748 156.021 121.706 155.87 121.623C155.718 121.537 155.601 121.441 155.519 121.334C155.437 121.224 155.374 121.134 155.33 121.062H155.258V121.666H154.675ZM155.268 119.701C155.268 119.998 155.312 120.26 155.399 120.487C155.486 120.712 155.613 120.888 155.78 121.016C155.947 121.143 156.152 121.206 156.394 121.206C156.647 121.206 156.857 121.139 157.026 121.006C157.197 120.871 157.325 120.691 157.41 120.464C157.497 120.235 157.54 119.981 157.54 119.701C157.54 119.425 157.498 119.176 157.412 118.954C157.329 118.731 157.202 118.554 157.031 118.425C156.862 118.293 156.65 118.228 156.394 118.228C156.149 118.228 155.942 118.29 155.775 118.414C155.608 118.537 155.482 118.709 155.396 118.931C155.311 119.151 155.268 119.408 155.268 119.701ZM159.068 121.666V117.736H159.651V118.33H159.692C159.764 118.135 159.893 117.978 160.081 117.857C160.269 117.735 160.48 117.675 160.716 117.675C160.76 117.675 160.815 117.676 160.882 117.678C160.948 117.679 160.999 117.682 161.033 117.685V118.299C161.012 118.294 160.965 118.286 160.892 118.276C160.82 118.264 160.745 118.258 160.664 118.258C160.473 118.258 160.303 118.298 160.153 118.379C160.004 118.457 159.887 118.566 159.8 118.706C159.714 118.844 159.672 119.002 159.672 119.179V121.666H159.068ZM163.277 121.748C162.898 121.748 162.571 121.665 162.297 121.497C162.024 121.329 161.813 121.093 161.665 120.791C161.518 120.488 161.445 120.135 161.445 119.732C161.445 119.329 161.518 118.975 161.665 118.668C161.813 118.359 162.02 118.118 162.284 117.946C162.55 117.772 162.86 117.685 163.215 117.685C163.42 117.685 163.622 117.719 163.822 117.788C164.021 117.856 164.203 117.967 164.367 118.12C164.53 118.272 164.661 118.473 164.758 118.724C164.855 118.975 164.904 119.283 164.904 119.65V119.906H161.875V119.384H164.29C164.29 119.162 164.245 118.964 164.157 118.79C164.07 118.616 163.945 118.479 163.783 118.379C163.623 118.278 163.434 118.228 163.215 118.228C162.975 118.228 162.767 118.287 162.591 118.407C162.417 118.524 162.283 118.678 162.189 118.867C162.095 119.057 162.048 119.26 162.048 119.476V119.824C162.048 120.121 162.1 120.372 162.202 120.579C162.306 120.784 162.45 120.94 162.634 121.047C162.819 121.153 163.033 121.206 163.277 121.206C163.435 121.206 163.578 121.184 163.706 121.139C163.836 121.093 163.948 121.025 164.042 120.934C164.135 120.842 164.208 120.728 164.259 120.592L164.842 120.755C164.781 120.953 164.678 121.127 164.533 121.277C164.388 121.426 164.209 121.542 163.996 121.625C163.782 121.707 163.543 121.748 163.277 121.748ZM167.838 121.666V121.206L169.568 119.312C169.771 119.091 169.938 118.898 170.069 118.734C170.201 118.569 170.298 118.414 170.361 118.269C170.426 118.122 170.458 117.968 170.458 117.808C170.458 117.624 170.414 117.464 170.325 117.33C170.238 117.195 170.119 117.091 169.967 117.017C169.815 116.944 169.645 116.907 169.455 116.907C169.254 116.907 169.078 116.949 168.928 117.033C168.78 117.115 168.665 117.23 168.583 117.378C168.503 117.527 168.463 117.701 168.463 117.9H167.859C167.859 117.593 167.93 117.324 168.071 117.092C168.213 116.86 168.406 116.679 168.649 116.549C168.895 116.42 169.171 116.355 169.476 116.355C169.783 116.355 170.055 116.42 170.292 116.549C170.529 116.679 170.715 116.854 170.85 117.074C170.985 117.294 171.052 117.538 171.052 117.808C171.052 118.001 171.017 118.189 170.947 118.373C170.879 118.556 170.759 118.76 170.589 118.985C170.42 119.208 170.185 119.481 169.885 119.804L168.708 121.062V121.103H171.144V121.666H167.838ZM173.91 121.738C173.524 121.738 173.196 121.633 172.925 121.423C172.654 121.212 172.446 120.905 172.303 120.505C172.16 120.102 172.088 119.616 172.088 119.046C172.088 118.48 172.16 117.996 172.303 117.596C172.448 117.193 172.656 116.886 172.927 116.675C173.2 116.461 173.528 116.355 173.91 116.355C174.292 116.355 174.618 116.461 174.89 116.675C175.163 116.886 175.371 117.193 175.514 117.596C175.659 117.996 175.731 118.48 175.731 119.046C175.731 119.616 175.66 120.102 175.517 120.505C175.373 120.905 175.166 121.212 174.895 121.423C174.624 121.633 174.295 121.738 173.91 121.738ZM173.91 121.175C174.292 121.175 174.589 120.991 174.8 120.622C175.012 120.254 175.117 119.729 175.117 119.046C175.117 118.593 175.069 118.206 174.972 117.887C174.876 117.568 174.738 117.325 174.557 117.158C174.378 116.991 174.162 116.907 173.91 116.907C173.531 116.907 173.235 117.094 173.022 117.468C172.809 117.84 172.702 118.366 172.702 119.046C172.702 119.5 172.75 119.886 172.845 120.203C172.941 120.52 173.078 120.761 173.257 120.927C173.438 121.092 173.656 121.175 173.91 121.175ZM176.704 121.666V121.206L178.433 119.312C178.636 119.091 178.803 118.898 178.935 118.734C179.066 118.569 179.163 118.414 179.226 118.269C179.291 118.122 179.324 117.968 179.324 117.808C179.324 117.624 179.279 117.464 179.191 117.33C179.104 117.195 178.984 117.091 178.832 117.017C178.681 116.944 178.51 116.907 178.321 116.907C178.119 116.907 177.944 116.949 177.794 117.033C177.645 117.115 177.53 117.23 177.448 117.378C177.368 117.527 177.328 117.701 177.328 117.9H176.724C176.724 117.593 176.795 117.324 176.937 117.092C177.078 116.86 177.271 116.679 177.515 116.549C177.76 116.42 178.036 116.355 178.341 116.355C178.648 116.355 178.92 116.42 179.157 116.549C179.394 116.679 179.58 116.854 179.715 117.074C179.85 117.294 179.917 117.538 179.917 117.808C179.917 118.001 179.882 118.189 179.812 118.373C179.744 118.556 179.625 118.76 179.454 118.985C179.285 119.208 179.051 119.481 178.75 119.804L177.574 121.062V121.103H180.009V121.666H176.704ZM182.836 121.738C182.499 121.738 182.198 121.68 181.933 121.564C181.671 121.448 181.462 121.287 181.306 121.08C181.153 120.872 181.069 120.631 181.056 120.356H181.7C181.714 120.525 181.772 120.671 181.874 120.794C181.977 120.915 182.111 121.009 182.276 121.075C182.442 121.142 182.625 121.175 182.826 121.175C183.051 121.175 183.251 121.136 183.425 121.057C183.599 120.979 183.735 120.87 183.834 120.73C183.933 120.59 183.983 120.428 183.983 120.244C183.983 120.051 183.935 119.881 183.839 119.735C183.744 119.586 183.604 119.47 183.42 119.387C183.236 119.303 183.01 119.261 182.744 119.261H182.325V118.698H182.744C182.952 118.698 183.135 118.661 183.292 118.586C183.45 118.511 183.574 118.405 183.663 118.269C183.753 118.132 183.798 117.972 183.798 117.788C183.798 117.61 183.759 117.456 183.681 117.324C183.602 117.193 183.491 117.091 183.348 117.017C183.207 116.944 183.039 116.907 182.847 116.907C182.666 116.907 182.495 116.941 182.335 117.007C182.176 117.072 182.047 117.167 181.946 117.291C181.845 117.414 181.791 117.562 181.782 117.736H181.168C181.179 117.462 181.261 117.221 181.416 117.015C181.572 116.807 181.775 116.645 182.025 116.529C182.278 116.413 182.555 116.355 182.857 116.355C183.181 116.355 183.459 116.42 183.691 116.552C183.923 116.681 184.101 116.853 184.226 117.066C184.35 117.279 184.412 117.509 184.412 117.757C184.412 118.052 184.335 118.303 184.18 118.512C184.026 118.72 183.817 118.864 183.553 118.944V118.985C183.884 119.039 184.142 119.18 184.328 119.407C184.514 119.632 184.607 119.911 184.607 120.244C184.607 120.529 184.529 120.784 184.374 121.011C184.221 121.236 184.011 121.414 183.745 121.543C183.479 121.673 183.176 121.738 182.836 121.738Z" fill="#9AA2AC"/>
</g>
<defs>
<clipPath id="clip0_1633_8057">
<rect width="243" height="132" rx="5" fill="white"/>
</clipPath>
</defs>
</svg>
