<svg width="243" height="132" viewBox="0 0 243 132" fill="none" xmlns="http://www.w3.org/2000/svg">
<g clip-path="url(#clip0_1633_8071)">
<rect width="243" height="132" rx="5" fill="#F4F4F4"/>
<g clip-path="url(#clip1_1633_8071)">
<rect width="168.103" height="364" transform="translate(37 -7)" fill="#F8F8F8"/>
<path d="M37 -7H205.103V138.241C205.103 142.203 201.892 145.414 197.931 145.414H44.1724C40.2112 145.414 37 142.203 37 138.241V-7Z" fill="url(#paint0_linear_1633_8071)"/>
<path d="M53.2313 134.93V130.412H55.0168C55.0608 130.412 55.113 130.414 55.1737 130.418C55.2344 130.42 55.293 130.426 55.3494 130.437C55.5942 130.474 55.7992 130.558 55.9645 130.688C56.1318 130.817 56.2573 130.982 56.341 131.18C56.4247 131.377 56.4665 131.596 56.4665 131.836C56.4665 132.075 56.4237 132.293 56.3379 132.492C56.2542 132.689 56.1287 132.853 55.9613 132.985C55.7961 133.114 55.5921 133.198 55.3494 133.236C55.293 133.244 55.2344 133.25 55.1737 133.255C55.113 133.259 55.0608 133.261 55.0168 133.261H53.7899V134.93H53.2313ZM53.7899 132.73H54.998C55.0377 132.73 55.0827 132.728 55.1329 132.724C55.1852 132.72 55.2344 132.713 55.2804 132.702C55.4248 132.669 55.5419 132.608 55.6319 132.52C55.7239 132.43 55.7908 132.326 55.8327 132.206C55.8745 132.085 55.8954 131.962 55.8954 131.836C55.8954 131.711 55.8745 131.588 55.8327 131.469C55.7908 131.348 55.7239 131.242 55.6319 131.152C55.5419 131.062 55.4248 131.001 55.2804 130.97C55.2344 130.958 55.1852 130.95 55.1329 130.948C55.0827 130.944 55.0377 130.942 54.998 130.942H53.7899V132.73ZM57.9271 135.024C57.674 135.024 57.4616 134.978 57.2901 134.886C57.1207 134.792 56.992 134.669 56.9041 134.516C56.8184 134.363 56.7755 134.196 56.7755 134.014C56.7755 133.836 56.809 133.682 56.8759 133.553C56.9449 133.421 57.0412 133.312 57.1646 133.226C57.288 133.138 57.4355 133.069 57.607 133.019C57.7681 132.975 57.948 132.938 58.1468 132.906C58.3476 132.873 58.5505 132.842 58.7555 132.815C58.9605 132.788 59.1519 132.762 59.3298 132.737L59.1289 132.853C59.1352 132.552 59.0745 132.329 58.9469 132.184C58.8214 132.04 58.6038 131.968 58.2942 131.968C58.0892 131.968 57.9093 132.015 57.7545 132.109C57.6018 132.201 57.4941 132.352 57.4313 132.561L56.901 132.401C56.9826 132.104 57.1405 131.871 57.3748 131.701C57.6091 131.532 57.9177 131.447 58.3005 131.447C58.608 131.447 58.8716 131.503 59.0913 131.613C59.313 131.722 59.472 131.887 59.5682 132.109C59.6164 132.214 59.6467 132.328 59.6592 132.451C59.6718 132.573 59.6781 132.7 59.6781 132.834V134.93H59.1823V134.117L59.2984 134.193C59.1708 134.467 58.9919 134.674 58.7618 134.814C58.5338 134.954 58.2555 135.024 57.9271 135.024ZM58.0118 134.557C58.2127 134.557 58.3863 134.521 58.5327 134.45C58.6813 134.377 58.8005 134.282 58.8904 134.165C58.9804 134.045 59.039 133.916 59.0662 133.775C59.0976 133.671 59.1143 133.555 59.1164 133.427C59.1206 133.297 59.1227 133.198 59.1227 133.129L59.3172 133.214C59.1352 133.239 58.9563 133.263 58.7806 133.286C58.6049 133.309 58.4386 133.334 58.2817 133.361C58.1248 133.386 57.9836 133.417 57.8581 133.452C57.766 133.481 57.6792 133.519 57.5976 133.565C57.5181 133.611 57.4533 133.671 57.4031 133.744C57.355 133.815 57.3309 133.904 57.3309 134.011C57.3309 134.103 57.3539 134.191 57.3999 134.274C57.448 134.358 57.5213 134.426 57.6196 134.478C57.72 134.531 57.8507 134.557 58.0118 134.557ZM61.8652 136.531C61.6874 136.531 61.5138 136.503 61.3443 136.449C61.1749 136.395 61.019 136.312 60.8768 136.201C60.7366 136.092 60.6194 135.954 60.5253 135.787L61.0368 135.517C61.1205 135.682 61.2387 135.803 61.3914 135.878C61.5462 135.953 61.7052 135.991 61.8683 135.991C62.0838 135.991 62.2627 135.951 62.4049 135.872C62.5472 135.794 62.6518 135.678 62.7187 135.523C62.7878 135.368 62.8212 135.176 62.8191 134.946V134.02H62.885V131.541H63.3808V134.952C63.3808 135.044 63.3777 135.133 63.3714 135.219C63.3672 135.305 63.3568 135.389 63.34 135.473C63.2961 135.714 63.2093 135.911 63.0796 136.066C62.9499 136.223 62.7825 136.339 62.5775 136.414C62.3725 136.492 62.1351 136.531 61.8652 136.531ZM61.8244 135.024C61.5085 135.024 61.2376 134.946 61.0117 134.789C60.7858 134.63 60.6111 134.416 60.4877 134.146C60.3663 133.876 60.3057 133.571 60.3057 133.233C60.3057 132.894 60.3663 132.589 60.4877 132.319C60.6111 132.05 60.7858 131.837 61.0117 131.682C61.2376 131.526 61.5075 131.447 61.8213 131.447C62.1413 131.447 62.4102 131.524 62.6277 131.679C62.8453 131.834 63.0095 132.046 63.1204 132.316C63.2333 132.586 63.2898 132.892 63.2898 133.233C63.2898 133.569 63.2333 133.874 63.1204 134.146C63.0095 134.416 62.8453 134.63 62.6277 134.789C62.4102 134.946 62.1424 135.024 61.8244 135.024ZM61.8934 134.513C62.1215 134.513 62.3087 134.458 62.4551 134.35C62.6016 134.239 62.7093 134.087 62.7783 133.895C62.8495 133.7 62.885 133.479 62.885 133.233C62.885 132.982 62.8495 132.761 62.7783 132.57C62.7093 132.378 62.6026 132.228 62.4583 132.122C62.3139 132.013 62.1309 131.959 61.9091 131.959C61.679 131.959 61.4887 132.015 61.338 132.128C61.1895 132.241 61.0786 132.394 61.0054 132.586C60.9343 132.779 60.8987 132.994 60.8987 133.233C60.8987 133.473 60.9353 133.691 61.0086 133.885C61.0818 134.078 61.1916 134.23 61.338 134.343C61.4866 134.456 61.6717 134.513 61.8934 134.513ZM65.7004 135.024C65.3636 135.024 65.0729 134.948 64.8281 134.795C64.5854 134.643 64.3982 134.431 64.2664 134.161C64.1346 133.892 64.0687 133.582 64.0687 133.233C64.0687 132.877 64.1357 132.565 64.2695 132.297C64.4034 132.03 64.5928 131.822 64.8375 131.673C65.0823 131.522 65.3699 131.447 65.7004 131.447C66.0393 131.447 66.3312 131.523 66.5759 131.676C66.8207 131.827 67.0079 132.037 67.1376 132.307C67.2694 132.575 67.3353 132.883 67.3353 133.233C67.3353 133.586 67.2694 133.898 67.1376 134.168C67.0058 134.435 66.8175 134.646 66.5728 134.798C66.328 134.949 66.0372 135.024 65.7004 135.024ZM65.7004 134.494C66.0519 134.494 66.3134 134.377 66.4849 134.143C66.6565 133.908 66.7422 133.605 66.7422 133.233C66.7422 132.85 66.6554 132.545 66.4818 132.319C66.3082 132.091 66.0477 131.977 65.7004 131.977C65.4641 131.977 65.2695 132.031 65.1168 132.137C64.9641 132.244 64.8501 132.392 64.7748 132.58C64.6994 132.768 64.6618 132.986 64.6618 133.233C64.6618 133.613 64.7497 133.919 64.9254 134.149C65.1011 134.379 65.3595 134.494 65.7004 134.494Z" fill="black"/>
<path d="M46.189 102.827C46.189 98.9891 49.2998 95.8783 53.1373 95.8783H67.4821C71.3195 95.8783 74.4304 98.9891 74.4304 102.827V117.171C74.4304 121.009 71.3195 124.12 67.4821 124.12H53.1373C49.2998 124.12 46.189 121.009 46.189 117.171V102.827Z" fill="white" fill-opacity="0.2" stroke="white" stroke-width="0.448276"/>
<path fill-rule="evenodd" clip-rule="evenodd" d="M58.7084 105.962C58.8967 105.962 59.0495 106.112 59.0495 106.297C59.0495 106.482 58.8971 106.632 58.7084 106.632L57.9782 106.632C57.3721 106.633 56.879 107.117 56.879 107.712V108.545C56.879 108.73 56.7257 108.88 56.5374 108.88C56.3491 108.88 56.1963 108.73 56.1963 108.545V107.712C56.1963 106.748 56.9955 105.964 57.9777 105.963L58.708 105.962H58.7084ZM61.9241 105.962H62.6382C63.623 105.962 64.4237 106.747 64.4237 107.713V108.545C64.4237 108.73 64.2713 108.88 64.0825 108.88C63.8943 108.88 63.7414 108.73 63.7414 108.545V107.713C63.7414 107.117 63.2465 106.631 62.6382 106.631H61.9241C61.7358 106.631 61.5829 106.482 61.5829 106.297C61.5829 106.112 61.7358 105.962 61.9241 105.962ZM61.548 107.639H59.0718C58.5051 107.645 58.0497 108.099 58.0546 108.655V109.213C58.056 109.279 58.1093 109.332 58.1757 109.334H62.4432C62.51 109.332 62.5634 109.279 62.5656 109.213V108.655C62.5661 108.387 62.4603 108.129 62.2693 107.936C62.0797 107.746 61.8192 107.639 61.548 107.639ZM55.7205 110.016H64.8998C65.0881 110.016 65.241 110.166 65.241 110.351C65.241 110.535 65.0881 110.685 64.8998 110.685H64.4238V112.281C64.4238 113.247 63.6227 114.032 62.6383 114.032H61.9242C61.7355 114.032 61.5826 113.882 61.5826 113.697C61.5826 113.512 61.7355 113.362 61.9242 113.362H62.6383C63.2466 113.362 63.7415 112.877 63.7415 112.281V110.685H62.5657V111.129C62.5701 111.685 62.1151 112.14 61.5481 112.145H59.0718C58.5052 112.14 58.0502 111.685 58.0547 111.129V110.685H56.8788V112.282C56.8788 112.877 57.3724 113.361 57.9789 113.362L58.7087 113.362C58.897 113.362 59.0498 113.512 59.0498 113.697C59.0494 113.882 58.897 114.032 58.7083 114.032L57.978 114.031C56.9958 114.031 56.1961 113.246 56.1961 112.282V110.685H55.7205C55.5322 110.685 55.3789 110.535 55.3789 110.351C55.3789 110.166 55.5322 110.016 55.7205 110.016Z" fill="black"/>
<path d="M87.6518 135.024C87.2021 135.024 86.8203 134.925 86.5065 134.726C86.1927 134.527 85.9532 134.251 85.7879 133.898C85.6247 133.544 85.5431 133.135 85.5431 132.671C85.5431 132.206 85.6247 131.797 85.7879 131.444C85.9532 131.09 86.1927 130.814 86.5065 130.616C86.8203 130.417 87.2021 130.317 87.6518 130.317C88.1748 130.317 88.6047 130.45 88.9415 130.716C89.2804 130.982 89.5137 131.339 89.6413 131.789L89.0733 131.94C88.9813 131.603 88.817 131.337 88.5807 131.143C88.3443 130.948 88.0347 130.851 87.6518 130.851C87.315 130.851 87.0347 130.927 86.8109 131.08C86.587 131.233 86.4186 131.446 86.3057 131.72C86.1927 131.992 86.1352 132.309 86.1331 132.671C86.131 133.031 86.1864 133.348 86.2994 133.622C86.4123 133.894 86.5818 134.107 86.8077 134.262C87.0337 134.415 87.315 134.491 87.6518 134.491C88.0347 134.491 88.3443 134.394 88.5807 134.199C88.817 134.002 88.9813 133.737 89.0733 133.402L89.6413 133.553C89.5137 134 89.2804 134.358 88.9415 134.626C88.6047 134.891 88.1748 135.024 87.6518 135.024ZM91.7729 135.024C91.4361 135.024 91.1453 134.948 90.9006 134.795C90.6579 134.643 90.4707 134.431 90.3389 134.161C90.2071 133.892 90.1412 133.582 90.1412 133.233C90.1412 132.877 90.2081 132.565 90.342 132.297C90.4759 132.03 90.6652 131.822 90.91 131.673C91.1547 131.522 91.4424 131.447 91.7729 131.447C92.1118 131.447 92.4036 131.523 92.6484 131.676C92.8932 131.827 93.0804 132.037 93.2101 132.307C93.3419 132.575 93.4078 132.883 93.4078 133.233C93.4078 133.586 93.3419 133.898 93.2101 134.168C93.0783 134.435 92.89 134.646 92.6453 134.798C92.4005 134.949 92.1097 135.024 91.7729 135.024ZM91.7729 134.494C92.1244 134.494 92.3859 134.377 92.5574 134.143C92.7289 133.908 92.8147 133.605 92.8147 133.233C92.8147 132.85 92.7279 132.545 92.5543 132.319C92.3806 132.091 92.1202 131.977 91.7729 131.977C91.5365 131.977 91.342 132.031 91.1893 132.137C91.0365 132.244 90.9225 132.392 90.8472 132.58C90.7719 132.768 90.7343 132.986 90.7343 133.233C90.7343 133.613 90.8221 133.919 90.9978 134.149C91.1736 134.379 91.4319 134.494 91.7729 134.494ZM98.1497 134.93L98.1529 132.762C98.1529 132.509 98.0849 132.311 97.9489 132.169C97.815 132.024 97.6403 131.952 97.4249 131.952C97.2993 131.952 97.1801 131.982 97.0671 132.04C96.9542 132.097 96.8621 132.187 96.791 132.31C96.7199 132.431 96.6843 132.587 96.6843 132.778L96.3893 132.658C96.3852 132.418 96.4343 132.207 96.5368 132.028C96.6414 131.846 96.7837 131.704 96.9636 131.604C97.1435 131.504 97.3464 131.453 97.5723 131.453C97.9259 131.453 98.2041 131.561 98.407 131.777C98.61 131.99 98.7114 132.278 98.7114 132.639L98.7083 134.93H98.1497ZM94.0955 134.93V131.541H94.5945V132.448H94.6572V134.93H94.0955ZM96.1258 134.93L96.1289 132.784C96.1289 132.524 96.062 132.322 95.9281 132.175C95.7942 132.027 95.6164 131.952 95.3946 131.952C95.175 131.952 94.9972 132.028 94.8612 132.178C94.7252 132.329 94.6572 132.529 94.6572 132.778L94.3622 132.602C94.3622 132.382 94.4145 132.186 94.5191 132.012C94.6237 131.838 94.766 131.702 94.9459 131.604C95.1258 131.504 95.3298 131.453 95.5578 131.453C95.7858 131.453 95.9846 131.501 96.154 131.598C96.3235 131.694 96.4542 131.832 96.5462 132.012C96.6383 132.19 96.6843 132.402 96.6843 132.649L96.6812 134.93H96.1258ZM101.085 135.024C100.767 135.024 100.499 134.946 100.282 134.789C100.064 134.63 99.899 134.416 99.7861 134.146C99.6752 133.874 99.6197 133.569 99.6197 133.233C99.6197 132.892 99.6752 132.586 99.7861 132.316C99.899 132.046 100.064 131.834 100.282 131.679C100.502 131.524 100.77 131.447 101.088 131.447C101.402 131.447 101.672 131.526 101.898 131.682C102.126 131.837 102.301 132.05 102.422 132.319C102.543 132.589 102.604 132.894 102.604 133.233C102.604 133.571 102.543 133.876 102.422 134.146C102.301 134.416 102.126 134.63 101.898 134.789C101.672 134.946 101.401 135.024 101.085 135.024ZM99.5256 136.436V131.541H100.025V134.036H100.087V136.436H99.5256ZM101.016 134.513C101.24 134.513 101.425 134.456 101.572 134.343C101.718 134.23 101.828 134.078 101.901 133.885C101.974 133.691 102.011 133.473 102.011 133.233C102.011 132.994 101.974 132.779 101.901 132.586C101.83 132.394 101.719 132.241 101.568 132.128C101.42 132.015 101.231 131.959 101 131.959C100.781 131.959 100.599 132.013 100.454 132.122C100.31 132.228 100.202 132.378 100.131 132.57C100.06 132.761 100.025 132.982 100.025 133.233C100.025 133.479 100.059 133.7 100.128 133.895C100.199 134.087 100.308 134.239 100.454 134.35C100.601 134.458 100.788 134.513 101.016 134.513ZM103.355 134.93V130.317H103.913V134.93H103.355ZM106.323 135.024C105.991 135.024 105.7 134.951 105.451 134.805C105.204 134.656 105.012 134.45 104.873 134.186C104.735 133.921 104.666 133.611 104.666 133.258C104.666 132.887 104.734 132.567 104.87 132.297C105.006 132.025 105.196 131.816 105.438 131.67C105.683 131.521 105.97 131.447 106.298 131.447C106.639 131.447 106.929 131.526 107.167 131.682C107.408 131.839 107.588 132.063 107.707 132.354C107.828 132.645 107.881 132.991 107.864 133.393H107.299V133.192C107.293 132.775 107.208 132.465 107.045 132.26C106.882 132.053 106.639 131.949 106.317 131.949C105.972 131.949 105.709 132.06 105.529 132.282C105.349 132.504 105.259 132.821 105.259 133.236C105.259 133.635 105.349 133.945 105.529 134.165C105.709 134.384 105.965 134.494 106.298 134.494C106.522 134.494 106.716 134.443 106.882 134.34C107.047 134.238 107.177 134.09 107.271 133.898L107.807 134.083C107.676 134.382 107.477 134.614 107.211 134.78C106.948 134.943 106.652 135.024 106.323 135.024ZM105.071 133.393V132.944H107.575V133.393H105.071ZM110.455 134.93C110.254 134.97 110.055 134.986 109.859 134.977C109.664 134.971 109.49 134.932 109.338 134.861C109.185 134.788 109.069 134.675 108.989 134.522C108.922 134.388 108.886 134.253 108.879 134.117C108.875 133.979 108.873 133.824 108.873 133.65V130.6H109.432V133.625C109.432 133.763 109.433 133.881 109.435 133.979C109.439 134.078 109.461 134.162 109.501 134.234C109.576 134.367 109.695 134.446 109.859 134.469C110.024 134.492 110.223 134.486 110.455 134.45V134.93ZM108.186 132.002V131.541H110.455V132.002H108.186ZM112.106 135.024C111.853 135.024 111.641 134.978 111.469 134.886C111.3 134.792 111.171 134.669 111.083 134.516C110.997 134.363 110.954 134.196 110.954 134.014C110.954 133.836 110.988 133.682 111.055 133.553C111.124 133.421 111.22 133.312 111.344 133.226C111.467 133.138 111.615 133.069 111.786 133.019C111.947 132.975 112.127 132.938 112.326 132.906C112.527 132.873 112.73 132.842 112.935 132.815C113.14 132.788 113.331 132.762 113.509 132.737L113.308 132.853C113.314 132.552 113.254 132.329 113.126 132.184C113 132.04 112.783 131.968 112.473 131.968C112.268 131.968 112.088 132.015 111.934 132.109C111.781 132.201 111.673 132.352 111.61 132.561L111.08 132.401C111.162 132.104 111.32 131.871 111.554 131.701C111.788 131.532 112.097 131.447 112.48 131.447C112.787 131.447 113.051 131.503 113.27 131.613C113.492 131.722 113.651 131.887 113.747 132.109C113.795 132.214 113.826 132.328 113.838 132.451C113.851 132.573 113.857 132.7 113.857 132.834V134.93H113.361V134.117L113.477 134.193C113.35 134.467 113.171 134.674 112.941 134.814C112.713 134.954 112.435 135.024 112.106 135.024ZM112.191 134.557C112.392 134.557 112.565 134.521 112.712 134.45C112.86 134.377 112.98 134.282 113.069 134.165C113.159 134.045 113.218 133.916 113.245 133.775C113.277 133.671 113.293 133.555 113.295 133.427C113.3 133.297 113.302 133.198 113.302 133.129L113.496 133.214C113.314 133.239 113.135 133.263 112.96 133.286C112.784 133.309 112.618 133.334 112.461 133.361C112.304 133.386 112.163 133.417 112.037 133.452C111.945 133.481 111.858 133.519 111.777 133.565C111.697 133.611 111.632 133.671 111.582 133.744C111.534 133.815 111.51 133.904 111.51 134.011C111.51 134.103 111.533 134.191 111.579 134.274C111.627 134.358 111.7 134.426 111.799 134.478C111.899 134.531 112.03 134.557 112.191 134.557ZM114.673 134.93V131.541H115.172V132.36L115.09 132.254C115.13 132.149 115.181 132.053 115.244 131.965C115.309 131.877 115.381 131.805 115.461 131.748C115.548 131.677 115.648 131.623 115.759 131.585C115.87 131.547 115.983 131.526 116.098 131.519C116.213 131.511 116.32 131.518 116.421 131.541V132.065C116.304 132.034 116.175 132.025 116.035 132.04C115.895 132.055 115.765 132.106 115.646 132.194C115.537 132.271 115.452 132.365 115.392 132.476C115.333 132.587 115.292 132.707 115.269 132.837C115.246 132.965 115.235 133.096 115.235 133.229V134.93H114.673Z" fill="black"/>
<path d="M86.5327 102.826C86.5327 98.9889 89.6436 95.8781 93.481 95.8781H107.826C111.663 95.8781 114.774 98.9889 114.774 102.826V117.171C114.774 121.009 111.663 124.119 107.826 124.119H93.481C89.6436 124.119 86.5327 121.009 86.5327 117.171V102.826Z" fill="white" fill-opacity="0.2" stroke="white" stroke-width="0.448276"/>
<path fill-rule="evenodd" clip-rule="evenodd" d="M98.5612 105.517H102.744C104.268 105.517 105.137 106.378 105.137 107.906V112.093C105.137 113.613 104.272 114.483 102.748 114.483H98.5612C97.0326 114.483 96.1719 113.613 96.1719 112.093V107.906C96.1719 106.378 97.0326 105.517 98.5612 105.517ZM101.022 110.372H102.295C102.502 110.367 102.667 110.201 102.667 109.995C102.667 109.789 102.502 109.623 102.295 109.623H101.022V108.359C101.022 108.153 100.856 107.987 100.65 107.987C100.444 107.987 100.278 108.153 100.278 108.359V109.623H99.0095C98.9108 109.623 98.8167 109.663 98.745 109.731C98.6777 109.802 98.6374 109.896 98.6374 109.995C98.6374 110.201 98.8032 110.367 99.0095 110.372H100.278V111.64C100.278 111.846 100.444 112.012 100.65 112.012C100.856 112.012 101.022 111.846 101.022 111.64V110.372Z" fill="black"/>
<path d="M128.539 134.93V130.942H126.998V130.412H130.638V130.942H129.098V134.93H128.539ZM130.825 134.93V131.541H131.324V132.36L131.243 132.254C131.282 132.149 131.334 132.053 131.396 131.965C131.461 131.877 131.533 131.805 131.613 131.748C131.701 131.677 131.8 131.623 131.911 131.585C132.022 131.547 132.135 131.526 132.25 131.519C132.365 131.511 132.473 131.518 132.573 131.541V132.065C132.456 132.034 132.327 132.025 132.187 132.04C132.047 132.055 131.917 132.106 131.798 132.194C131.689 132.271 131.605 132.365 131.544 132.476C131.485 132.587 131.445 132.707 131.422 132.837C131.399 132.965 131.387 133.096 131.387 133.229V134.93H130.825ZM134.02 135.024C133.766 135.024 133.554 134.978 133.383 134.886C133.213 134.792 133.084 134.669 132.997 134.516C132.911 134.363 132.868 134.196 132.868 134.014C132.868 133.836 132.901 133.682 132.968 133.553C133.037 133.421 133.134 133.312 133.257 133.226C133.38 133.138 133.528 133.069 133.7 133.019C133.861 132.975 134.04 132.938 134.239 132.906C134.44 132.873 134.643 132.842 134.848 132.815C135.053 132.788 135.244 132.762 135.422 132.737L135.221 132.853C135.228 132.552 135.167 132.329 135.039 132.184C134.914 132.04 134.696 131.968 134.387 131.968C134.182 131.968 134.002 132.015 133.847 132.109C133.694 132.201 133.587 132.352 133.524 132.561L132.993 132.401C133.075 132.104 133.233 131.871 133.467 131.701C133.702 131.532 134.01 131.447 134.393 131.447C134.701 131.447 134.964 131.503 135.184 131.613C135.405 131.722 135.564 131.887 135.661 132.109C135.709 132.214 135.739 132.328 135.752 132.451C135.764 132.573 135.771 132.7 135.771 132.834V134.93H135.275V134.117L135.391 134.193C135.263 134.467 135.084 134.674 134.854 134.814C134.626 134.954 134.348 135.024 134.02 135.024ZM134.104 134.557C134.305 134.557 134.479 134.521 134.625 134.45C134.774 134.377 134.893 134.282 134.983 134.165C135.073 134.045 135.131 133.916 135.159 133.775C135.19 133.671 135.207 133.555 135.209 133.427C135.213 133.297 135.215 133.198 135.215 133.129L135.41 133.214C135.228 133.239 135.049 133.263 134.873 133.286C134.697 133.309 134.531 133.334 134.374 133.361C134.217 133.386 134.076 133.417 133.951 133.452C133.858 133.481 133.772 133.519 133.69 133.565C133.611 133.611 133.546 133.671 133.496 133.744C133.447 133.815 133.423 133.904 133.423 134.011C133.423 134.103 133.446 134.191 133.492 134.274C133.541 134.358 133.614 134.426 133.712 134.478C133.812 134.531 133.943 134.557 134.104 134.557ZM138.999 134.93V133.233C138.999 133.071 138.985 132.917 138.956 132.768C138.928 132.62 138.879 132.487 138.808 132.37C138.739 132.25 138.645 132.156 138.526 132.087C138.408 132.018 138.26 131.984 138.08 131.984C137.94 131.984 137.812 132.008 137.697 132.056C137.584 132.102 137.487 132.173 137.405 132.269C137.324 132.365 137.26 132.487 137.214 132.633C137.17 132.778 137.148 132.948 137.148 133.145L136.781 133.032C136.781 132.703 136.84 132.422 136.957 132.188C137.076 131.951 137.242 131.77 137.456 131.645C137.671 131.517 137.924 131.453 138.215 131.453C138.435 131.453 138.622 131.488 138.777 131.557C138.931 131.626 139.06 131.718 139.163 131.833C139.265 131.946 139.346 132.074 139.404 132.216C139.463 132.356 139.504 132.499 139.527 132.646C139.552 132.79 139.564 132.927 139.564 133.057V134.93H138.999ZM136.583 134.93V131.541H137.085V132.448H137.148V134.93H136.583ZM141.66 135.021C141.257 135.021 140.925 134.933 140.666 134.758C140.408 134.58 140.25 134.332 140.192 134.014L140.763 133.923C140.809 134.107 140.915 134.253 141.08 134.362C141.245 134.469 141.45 134.522 141.695 134.522C141.927 134.522 142.109 134.474 142.241 134.378C142.373 134.282 142.439 134.151 142.439 133.986C142.439 133.889 142.417 133.812 142.373 133.753C142.329 133.693 142.238 133.636 142.1 133.584C141.964 133.532 141.758 133.469 141.482 133.396C141.182 133.316 140.947 133.234 140.775 133.148C140.604 133.062 140.482 132.963 140.408 132.85C140.335 132.737 140.299 132.6 140.299 132.439C140.299 132.24 140.353 132.066 140.462 131.918C140.57 131.767 140.722 131.651 140.917 131.569C141.113 131.488 141.341 131.447 141.601 131.447C141.858 131.447 142.088 131.488 142.291 131.569C142.494 131.651 142.657 131.767 142.781 131.918C142.906 132.066 142.98 132.24 143.003 132.439L142.432 132.542C142.405 132.36 142.317 132.217 142.169 132.112C142.022 132.008 141.833 131.952 141.601 131.946C141.381 131.938 141.202 131.976 141.064 132.062C140.928 132.148 140.86 132.264 140.86 132.41C140.86 132.492 140.885 132.562 140.936 132.621C140.988 132.679 141.083 132.735 141.221 132.787C141.361 132.839 141.564 132.899 141.83 132.966C142.129 133.041 142.364 133.124 142.536 133.214C142.71 133.302 142.833 133.406 142.906 133.528C142.979 133.647 143.016 133.794 143.016 133.97C143.016 134.296 142.896 134.554 142.655 134.742C142.415 134.928 142.083 135.021 141.66 135.021ZM144.031 134.93V131.356C144.031 131.268 144.035 131.179 144.044 131.089C144.052 130.997 144.071 130.908 144.1 130.823C144.13 130.735 144.178 130.654 144.245 130.581C144.322 130.495 144.407 130.435 144.499 130.399C144.591 130.361 144.684 130.338 144.778 130.33C144.874 130.322 144.965 130.317 145.051 130.317H145.481V130.782H145.082C144.917 130.782 144.794 130.823 144.712 130.904C144.631 130.984 144.59 131.105 144.59 131.268V134.93H144.031ZM143.457 132.002V131.541H145.481V132.002H143.457ZM147.328 135.024C146.995 135.024 146.704 134.951 146.455 134.805C146.209 134.656 146.016 134.45 145.878 134.186C145.74 133.921 145.671 133.611 145.671 133.258C145.671 132.887 145.739 132.567 145.875 132.297C146.011 132.025 146.2 131.816 146.443 131.67C146.688 131.521 146.974 131.447 147.303 131.447C147.644 131.447 147.933 131.526 148.172 131.682C148.412 131.839 148.592 132.063 148.712 132.354C148.833 132.645 148.885 132.991 148.869 133.393H148.304V133.192C148.297 132.775 148.213 132.465 148.05 132.26C147.886 132.053 147.644 131.949 147.322 131.949C146.976 131.949 146.714 132.06 146.534 132.282C146.354 132.504 146.264 132.821 146.264 133.236C146.264 133.635 146.354 133.945 146.534 134.165C146.714 134.384 146.97 134.494 147.303 134.494C147.527 134.494 147.721 134.443 147.886 134.34C148.052 134.238 148.181 134.09 148.275 133.898L148.812 134.083C148.68 134.382 148.481 134.614 148.216 134.78C147.952 134.943 147.656 135.024 147.328 135.024ZM146.076 133.393V132.944H148.58V133.393H146.076ZM149.567 134.93V131.541H150.066V132.36L149.984 132.254C150.024 132.149 150.075 132.053 150.138 131.965C150.203 131.877 150.275 131.805 150.355 131.748C150.443 131.677 150.542 131.623 150.653 131.585C150.764 131.547 150.877 131.526 150.992 131.519C151.107 131.511 151.215 131.518 151.315 131.541V132.065C151.198 132.034 151.069 132.025 150.929 132.04C150.789 132.055 150.659 132.106 150.54 132.194C150.431 132.271 150.346 132.365 150.286 132.476C150.227 132.587 150.186 132.707 150.163 132.837C150.14 132.965 150.129 133.096 150.129 133.229V134.93H149.567ZM151.971 130.942V130.364H152.53V130.942H151.971ZM151.971 134.93V131.541H152.53V134.93H151.971ZM153.471 134.93V131.541H153.97V132.36L153.889 132.254C153.928 132.149 153.98 132.053 154.042 131.965C154.107 131.877 154.179 131.805 154.259 131.748C154.347 131.677 154.446 131.623 154.557 131.585C154.668 131.547 154.781 131.526 154.896 131.519C155.011 131.511 155.119 131.518 155.219 131.541V132.065C155.102 132.034 154.973 132.025 154.833 132.04C154.693 132.055 154.563 132.106 154.444 132.194C154.335 132.271 154.25 132.365 154.19 132.476C154.131 132.587 154.09 132.707 154.067 132.837C154.044 132.965 154.033 133.096 154.033 133.229V134.93H153.471Z" fill="black"/>
<path d="M126.878 102.827C126.878 98.9891 129.989 95.8783 133.827 95.8783H148.172C152.009 95.8783 155.12 98.9891 155.12 102.827V117.171C155.12 121.009 152.009 124.12 148.172 124.12H133.827C129.989 124.12 126.878 121.009 126.878 117.171V102.827Z" fill="white" fill-opacity="0.2" stroke="white" stroke-width="0.448276"/>
<path fill-rule="evenodd" clip-rule="evenodd" d="M139.414 106.968C139.314 107.103 139.326 107.295 139.452 107.418C139.586 107.552 139.806 107.552 139.94 107.418L140.653 106.7V108.556H141.344V111.293L141.34 111.341C141.317 111.514 141.171 111.644 140.998 111.644C140.806 111.644 140.653 111.489 140.653 111.293V108.556H138.506L138.412 108.558C137.357 108.608 136.516 109.496 136.516 110.577V112.802L136.518 112.898C136.567 113.971 137.439 114.832 138.51 114.832H143.491L143.584 114.83C144.639 114.78 145.481 113.892 145.481 112.807V110.586L145.479 110.49C145.43 109.413 144.553 108.556 143.486 108.556H141.344V106.7L142.056 107.418L142.095 107.451C142.23 107.551 142.423 107.54 142.545 107.418C142.612 107.35 142.648 107.261 142.648 107.171C142.648 107.086 142.612 106.996 142.545 106.929L141.24 105.62L141.2 105.584C141.142 105.54 141.07 105.517 140.998 105.517C140.904 105.517 140.819 105.553 140.752 105.62L139.447 106.929L139.414 106.968ZM141.344 108.556H141.344V108.556H141.344V108.556Z" fill="black"/>
<path d="M171.038 134.93V130.412H171.597V134.93H171.038ZM174.952 134.93V133.233C174.952 133.071 174.937 132.917 174.908 132.768C174.88 132.62 174.831 132.487 174.76 132.37C174.691 132.25 174.597 132.156 174.478 132.087C174.361 132.018 174.212 131.984 174.032 131.984C173.892 131.984 173.764 132.008 173.649 132.056C173.536 132.102 173.439 132.173 173.358 132.269C173.276 132.365 173.212 132.487 173.166 132.633C173.122 132.778 173.1 132.948 173.1 133.145L172.733 133.032C172.733 132.703 172.792 132.422 172.909 132.188C173.028 131.951 173.194 131.77 173.408 131.645C173.623 131.517 173.876 131.453 174.167 131.453C174.387 131.453 174.574 131.488 174.729 131.557C174.884 131.626 175.012 131.718 175.115 131.833C175.217 131.946 175.298 132.074 175.356 132.216C175.415 132.356 175.456 132.499 175.479 132.646C175.504 132.79 175.516 132.927 175.516 133.057V134.93H174.952ZM172.535 134.93V131.541H173.037V132.448H173.1V134.93H172.535ZM177.704 136.531C177.526 136.531 177.352 136.503 177.183 136.449C177.013 136.395 176.857 136.312 176.715 136.201C176.575 136.092 176.458 135.954 176.364 135.787L176.875 135.517C176.959 135.682 177.077 135.803 177.23 135.878C177.385 135.953 177.544 135.991 177.707 135.991C177.922 135.991 178.101 135.951 178.243 135.872C178.386 135.794 178.49 135.678 178.557 135.523C178.626 135.368 178.66 135.176 178.657 134.946V134.02H178.723V131.541H179.219V134.952C179.219 135.044 179.216 135.133 179.21 135.219C179.206 135.305 179.195 135.389 179.178 135.473C179.134 135.714 179.048 135.911 178.918 136.066C178.788 136.223 178.621 136.339 178.416 136.414C178.211 136.492 177.973 136.531 177.704 136.531ZM177.663 135.024C177.347 135.024 177.076 134.946 176.85 134.789C176.624 134.63 176.449 134.416 176.326 134.146C176.205 133.876 176.144 133.571 176.144 133.233C176.144 132.894 176.205 132.589 176.326 132.319C176.449 132.05 176.624 131.837 176.85 131.682C177.076 131.526 177.346 131.447 177.66 131.447C177.98 131.447 178.248 131.524 178.466 131.679C178.684 131.834 178.848 132.046 178.959 132.316C179.072 132.586 179.128 132.892 179.128 133.233C179.128 133.569 179.072 133.874 178.959 134.146C178.848 134.416 178.684 134.63 178.466 134.789C178.248 134.946 177.981 135.024 177.663 135.024ZM177.732 134.513C177.96 134.513 178.147 134.458 178.293 134.35C178.44 134.239 178.548 134.087 178.617 133.895C178.688 133.7 178.723 133.479 178.723 133.233C178.723 132.982 178.688 132.761 178.617 132.57C178.548 132.378 178.441 132.228 178.297 132.122C178.152 132.013 177.969 131.959 177.747 131.959C177.517 131.959 177.327 132.015 177.176 132.128C177.028 132.241 176.917 132.394 176.844 132.586C176.773 132.779 176.737 132.994 176.737 133.233C176.737 133.473 176.774 133.691 176.847 133.885C176.92 134.078 177.03 134.23 177.176 134.343C177.325 134.456 177.51 134.513 177.732 134.513ZM180.095 134.93V131.541H180.594V132.36L180.513 132.254C180.552 132.149 180.604 132.053 180.666 131.965C180.731 131.877 180.803 131.805 180.883 131.748C180.971 131.677 181.07 131.623 181.181 131.585C181.292 131.547 181.405 131.526 181.52 131.519C181.635 131.511 181.743 131.518 181.843 131.541V132.065C181.726 132.034 181.597 132.025 181.457 132.04C181.317 132.055 181.187 132.106 181.068 132.194C180.959 132.271 180.875 132.365 180.814 132.476C180.755 132.587 180.715 132.707 180.692 132.837C180.669 132.965 180.657 133.096 180.657 133.229V134.93H180.095ZM183.844 135.024C183.511 135.024 183.22 134.951 182.971 134.805C182.725 134.656 182.532 134.45 182.394 134.186C182.256 133.921 182.187 133.611 182.187 133.258C182.187 132.887 182.255 132.567 182.391 132.297C182.527 132.025 182.716 131.816 182.959 131.67C183.204 131.521 183.49 131.447 183.819 131.447C184.16 131.447 184.449 131.526 184.688 131.682C184.928 131.839 185.108 132.063 185.228 132.354C185.349 132.645 185.401 132.991 185.385 133.393H184.82V133.192C184.813 132.775 184.729 132.465 184.566 132.26C184.402 132.053 184.16 131.949 183.838 131.949C183.492 131.949 183.23 132.06 183.05 132.282C182.87 132.504 182.78 132.821 182.78 133.236C182.78 133.635 182.87 133.945 183.05 134.165C183.23 134.384 183.486 134.494 183.819 134.494C184.043 134.494 184.237 134.443 184.402 134.34C184.568 134.238 184.697 134.09 184.791 133.898L185.328 134.083C185.196 134.382 184.997 134.614 184.732 134.78C184.468 134.943 184.172 135.024 183.844 135.024ZM182.592 133.393V132.944H185.096V133.393H182.592ZM187.363 135.021C186.96 135.021 186.628 134.933 186.369 134.758C186.111 134.58 185.953 134.332 185.895 134.014L186.466 133.923C186.512 134.107 186.618 134.253 186.783 134.362C186.948 134.469 187.153 134.522 187.398 134.522C187.63 134.522 187.812 134.474 187.944 134.378C188.076 134.282 188.142 134.151 188.142 133.986C188.142 133.889 188.12 133.812 188.076 133.753C188.032 133.693 187.941 133.636 187.803 133.584C187.667 133.532 187.461 133.469 187.185 133.396C186.885 133.316 186.65 133.234 186.479 133.148C186.307 133.062 186.185 132.963 186.111 132.85C186.038 132.737 186.002 132.6 186.002 132.439C186.002 132.24 186.056 132.066 186.165 131.918C186.274 131.767 186.425 131.651 186.62 131.569C186.816 131.488 187.044 131.447 187.304 131.447C187.561 131.447 187.791 131.488 187.994 131.569C188.197 131.651 188.36 131.767 188.484 131.918C188.609 132.066 188.683 132.24 188.706 132.439L188.135 132.542C188.108 132.36 188.02 132.217 187.872 132.112C187.725 132.008 187.536 131.952 187.304 131.946C187.084 131.938 186.905 131.976 186.767 132.062C186.631 132.148 186.563 132.264 186.563 132.41C186.563 132.492 186.588 132.562 186.639 132.621C186.691 132.679 186.786 132.735 186.924 132.787C187.064 132.839 187.267 132.899 187.533 132.966C187.832 133.041 188.067 133.124 188.239 133.214C188.413 133.302 188.536 133.406 188.609 133.528C188.682 133.647 188.719 133.794 188.719 133.97C188.719 134.296 188.599 134.554 188.358 134.742C188.118 134.928 187.786 135.021 187.363 135.021ZM190.855 135.024C190.518 135.024 190.227 134.948 189.982 134.795C189.739 134.643 189.552 134.431 189.42 134.161C189.289 133.892 189.223 133.582 189.223 133.233C189.223 132.877 189.29 132.565 189.424 132.297C189.557 132.03 189.747 131.822 189.992 131.673C190.236 131.522 190.524 131.447 190.855 131.447C191.193 131.447 191.485 131.523 191.73 131.676C191.975 131.827 192.162 132.037 192.292 132.307C192.423 132.575 192.489 132.883 192.489 133.233C192.489 133.586 192.423 133.898 192.292 134.168C192.16 134.435 191.972 134.646 191.727 134.798C191.482 134.949 191.191 135.024 190.855 135.024ZM190.855 134.494C191.206 134.494 191.467 134.377 191.639 134.143C191.811 133.908 191.896 133.605 191.896 133.233C191.896 132.85 191.809 132.545 191.636 132.319C191.462 132.091 191.202 131.977 190.855 131.977C190.618 131.977 190.424 132.031 190.271 132.137C190.118 132.244 190.004 132.392 189.929 132.58C189.854 132.768 189.816 132.986 189.816 133.233C189.816 133.613 189.904 133.919 190.079 134.149C190.255 134.379 190.514 134.494 190.855 134.494Z" fill="black"/>
<path d="M167.224 102.827C167.224 98.9891 170.335 95.8783 174.172 95.8783H188.517C192.355 95.8783 195.466 98.9891 195.466 102.827V117.171C195.466 121.009 192.355 124.12 188.517 124.12H174.172C170.335 124.12 167.224 121.009 167.224 117.171V102.827Z" fill="white" fill-opacity="0.2" stroke="white" stroke-width="0.448276"/>
<path d="M180.999 107.889V106.092C180.999 105.9 181.151 105.741 181.344 105.741C181.517 105.741 181.663 105.875 181.686 106.045L181.689 106.092V107.889L183.832 107.889C184.899 107.889 185.775 108.762 185.825 109.852L185.827 109.949V112.208C185.827 113.305 184.981 114.206 183.93 114.256L183.837 114.258H178.852C177.785 114.258 176.912 113.389 176.863 112.296L176.861 112.199V109.944C176.861 108.847 177.703 107.942 178.754 107.891L178.847 107.889H180.999V110.759L180.282 110.018C180.147 109.879 179.928 109.879 179.793 110.018C179.726 110.088 179.694 110.18 179.694 110.273C179.694 110.343 179.715 110.416 179.757 110.479L179.793 110.523L181.098 111.874C181.16 111.944 181.25 111.981 181.344 111.981C181.419 111.981 181.494 111.955 181.553 111.906L181.586 111.874L182.891 110.523C183.025 110.384 183.025 110.157 182.891 110.018C182.768 109.892 182.576 109.88 182.441 109.984L182.402 110.018L181.689 110.759V107.889L180.999 107.889Z" fill="black"/>
<path d="M48.0893 30.3792V27.6582H47.0448V27.1516H49.674V27.6582H48.6295V30.3792H48.0893ZM50.7829 30.4465C50.5378 30.4465 50.3226 30.3934 50.1373 30.2873C49.952 30.1812 49.8071 30.034 49.7025 29.8458C49.5994 29.6575 49.5479 29.4408 49.5479 29.1958C49.5479 28.9313 49.5987 28.7019 49.7003 28.5077C49.8019 28.3119 49.9431 28.1602 50.1239 28.0527C50.3047 27.9451 50.5139 27.8913 50.7515 27.8913C51.0025 27.8913 51.2154 27.9503 51.3903 28.0683C51.5666 28.1849 51.6973 28.35 51.7825 28.5637C51.8677 28.7774 51.8998 29.0292 51.8789 29.319H51.3432V29.1218C51.3417 28.8588 51.2954 28.6668 51.2042 28.5458C51.1131 28.4247 50.9696 28.3642 50.7739 28.3642C50.5527 28.3642 50.3884 28.4329 50.2808 28.5704C50.1732 28.7064 50.1194 28.9059 50.1194 29.1689C50.1194 29.4139 50.1732 29.6037 50.2808 29.7382C50.3884 29.8727 50.5453 29.9399 50.7515 29.9399C50.8845 29.9399 50.9988 29.9108 51.0944 29.8525C51.1915 29.7927 51.2662 29.7068 51.3185 29.5947L51.852 29.7561C51.7593 29.9743 51.6159 30.1439 51.4216 30.2649C51.2289 30.3859 51.016 30.4465 50.7829 30.4465ZM49.9491 29.319V28.9111H51.6144V29.319H49.9491ZM54.2649 30.4465C54.0422 30.4465 53.848 30.3904 53.6821 30.2783C53.5162 30.1663 53.3877 30.0139 53.2966 29.8211C53.2054 29.6283 53.1599 29.4109 53.1599 29.1689C53.1599 28.9238 53.2054 28.7056 53.2966 28.5144C53.3892 28.3216 53.52 28.17 53.6888 28.0594C53.8577 27.9473 54.0564 27.8913 54.285 27.8913C54.5152 27.8913 54.7079 27.9473 54.8633 28.0594C55.0202 28.17 55.139 28.3216 55.2197 28.5144C55.3004 28.7071 55.3407 28.9253 55.3407 29.1689C55.3407 29.4094 55.3004 29.6269 55.2197 29.8211C55.139 30.0139 55.0187 30.1663 54.8588 30.2783C54.6989 30.3904 54.501 30.4465 54.2649 30.4465ZM54.3478 29.9623C54.4927 29.9623 54.6093 29.9294 54.6975 29.8637C54.7871 29.7965 54.8521 29.7031 54.8925 29.5835C54.9343 29.464 54.9552 29.3258 54.9552 29.1689C54.9552 29.0105 54.9343 28.8723 54.8925 28.7542C54.8521 28.6347 54.7886 28.542 54.7019 28.4763C54.6153 28.409 54.5032 28.3754 54.3657 28.3754C54.2208 28.3754 54.1012 28.4113 54.0071 28.483C53.913 28.5532 53.8435 28.6489 53.7987 28.7699C53.7538 28.8894 53.7314 29.0224 53.7314 29.1689C53.7314 29.3168 53.7531 29.4513 53.7964 29.5723C53.8412 29.6919 53.9092 29.7867 54.0004 29.857C54.0915 29.9272 54.2073 29.9623 54.3478 29.9623ZM54.9552 30.3792V28.6802H54.888V27.1516H55.4326V30.3792H54.9552ZM56.7469 30.4465C56.5721 30.4465 56.4242 30.4136 56.3031 30.3478C56.1821 30.2806 56.0902 30.1917 56.0274 30.0811C55.9662 29.9705 55.9355 29.8488 55.9355 29.7158C55.9355 29.5992 55.955 29.4946 55.9938 29.402C56.0327 29.3078 56.0924 29.2271 56.1731 29.1599C56.2538 29.0912 56.3584 29.0351 56.4869 28.9918C56.584 28.9604 56.6976 28.932 56.8276 28.9066C56.9591 28.8812 57.1011 28.8581 57.2535 28.8371C57.4074 28.8147 57.568 28.7908 57.7354 28.7654L57.5426 28.8752C57.5441 28.7079 57.5067 28.5846 57.4305 28.5054C57.3543 28.4262 57.2258 28.3866 57.045 28.3866C56.9359 28.3866 56.8306 28.412 56.729 28.4628C56.6274 28.5136 56.5564 28.6011 56.5161 28.7251L56.023 28.5704C56.0827 28.3657 56.1963 28.2013 56.3636 28.0773C56.5325 27.9533 56.7596 27.8913 57.045 27.8913C57.2602 27.8913 57.4492 27.9264 57.6121 27.9966C57.7765 28.0669 57.8982 28.1819 57.9774 28.3418C58.0208 28.427 58.0469 28.5144 58.0559 28.604C58.0648 28.6922 58.0693 28.7886 58.0693 28.8932V30.3792H57.5964V29.8547L57.6748 29.9399C57.5658 30.1147 57.438 30.2432 57.2916 30.3254C57.1466 30.4061 56.9651 30.4465 56.7469 30.4465ZM56.8545 30.0161C56.977 30.0161 57.0816 29.9944 57.1683 29.9511C57.255 29.9078 57.3237 29.8547 57.3745 29.792C57.4268 29.7292 57.4619 29.6702 57.4798 29.6149C57.5082 29.5462 57.5239 29.4677 57.5269 29.3796C57.5314 29.2899 57.5336 29.2174 57.5336 29.1621L57.6995 29.2115C57.5366 29.2369 57.3969 29.2593 57.2804 29.2787C57.1638 29.2981 57.0637 29.3168 56.98 29.3347C56.8963 29.3512 56.8224 29.3698 56.7581 29.3908C56.6954 29.4132 56.6423 29.4393 56.599 29.4692C56.5557 29.4991 56.522 29.5335 56.4981 29.5723C56.4757 29.6112 56.4645 29.6567 56.4645 29.709C56.4645 29.7688 56.4794 29.8219 56.5093 29.8682C56.5392 29.913 56.5825 29.9489 56.6393 29.9758C56.6976 30.0027 56.7693 30.0161 56.8545 30.0161ZM61.5689 30.3792V28.9089C61.5689 28.743 61.5278 28.6138 61.4456 28.5211C61.3634 28.427 61.2521 28.3799 61.1117 28.3799C61.025 28.3799 60.9473 28.4001 60.8785 28.4404C60.8098 28.4793 60.7553 28.5375 60.7149 28.6152C60.6746 28.6915 60.6544 28.7826 60.6544 28.8887L60.4146 28.7475C60.4131 28.5801 60.4504 28.4329 60.5267 28.3059C60.6044 28.1774 60.709 28.0773 60.8404 28.0056C60.9719 27.9339 61.1184 27.898 61.2798 27.898C61.5472 27.898 61.7519 27.9787 61.8939 28.1401C62.0373 28.3 62.1091 28.5106 62.1091 28.7721V30.3792H61.5689ZM58.6573 30.3792V27.9585H59.1348V28.7094H59.202V30.3792H58.6573ZM60.1165 30.3792V28.9156C60.1165 28.7467 60.0754 28.6152 59.9932 28.5211C59.911 28.427 59.799 28.3799 59.657 28.3799C59.5195 28.3799 59.409 28.427 59.3253 28.5211C59.2431 28.6152 59.202 28.7378 59.202 28.8887L58.9599 28.7273C58.9599 28.5704 58.9988 28.4292 59.0765 28.3037C59.1542 28.1782 59.2588 28.0796 59.3903 28.0078C59.5233 27.9346 59.6719 27.898 59.8363 27.898C60.0171 27.898 60.168 27.9369 60.2891 28.0146C60.4116 28.0908 60.5027 28.1954 60.5625 28.3283C60.6238 28.4598 60.6544 28.6085 60.6544 28.7744V30.3792H60.1165ZM63.7324 30.4465C63.4903 30.4465 63.2789 30.3919 63.0981 30.2828C62.9173 30.1738 62.7768 30.0236 62.6767 29.8323C62.5781 29.6396 62.5288 29.4184 62.5288 29.1689C62.5288 28.9148 62.5796 28.6922 62.6812 28.5009C62.7828 28.3097 62.924 28.1602 63.1048 28.0527C63.2856 27.9451 63.4948 27.8913 63.7324 27.8913C63.9759 27.8913 64.1881 27.9458 64.3689 28.0549C64.5497 28.164 64.6902 28.3149 64.7903 28.5077C64.8904 28.6989 64.9405 28.9193 64.9405 29.1689C64.9405 29.4199 64.8897 29.6418 64.7881 29.8346C64.688 30.0258 64.5475 30.176 64.3667 30.2851C64.1859 30.3927 63.9745 30.4465 63.7324 30.4465ZM63.7324 29.9399C63.9476 29.9399 64.1074 29.8682 64.212 29.7247C64.3166 29.5813 64.3689 29.396 64.3689 29.1689C64.3689 28.9343 64.3159 28.7475 64.2098 28.6085C64.1037 28.4681 63.9446 28.3978 63.7324 28.3978C63.5874 28.3978 63.4679 28.4307 63.3738 28.4965C63.2811 28.5607 63.2124 28.6511 63.1676 28.7677C63.1227 28.8827 63.1003 29.0165 63.1003 29.1689C63.1003 29.4035 63.1534 29.591 63.2595 29.7315C63.367 29.8704 63.5247 29.9399 63.7324 29.9399ZM66.321 30.4465C66.0222 30.4465 65.7794 30.3792 65.5926 30.2447C65.4058 30.1102 65.2922 29.9212 65.2519 29.6777L65.8033 29.5925C65.8317 29.712 65.8944 29.8062 65.9916 29.8749C66.0887 29.9436 66.2112 29.978 66.3591 29.978C66.4891 29.978 66.5893 29.9526 66.6595 29.9018C66.7312 29.8495 66.7671 29.7785 66.7671 29.6889C66.7671 29.6336 66.7536 29.5895 66.7267 29.5566C66.7013 29.5223 66.6445 29.4894 66.5564 29.458C66.4682 29.4266 66.333 29.387 66.1507 29.3392C65.9475 29.2854 65.7861 29.2279 65.6666 29.1666C65.547 29.1039 65.4611 29.0299 65.4088 28.9447C65.3565 28.8596 65.3303 28.7565 65.3303 28.6354C65.3303 28.4845 65.3699 28.353 65.4491 28.2409C65.5283 28.1289 65.6389 28.0429 65.7809 27.9832C65.9228 27.9219 66.0902 27.8913 66.2829 27.8913C66.4712 27.8913 66.6378 27.9204 66.7828 27.9787C66.9292 28.037 67.0472 28.1199 67.1369 28.2275C67.2266 28.3351 67.2818 28.4613 67.3028 28.6063L66.7514 28.7049C66.7379 28.6018 66.6909 28.5204 66.6102 28.4606C66.531 28.4008 66.4249 28.3672 66.2919 28.3597C66.1649 28.3523 66.0625 28.3717 65.9848 28.418C65.9071 28.4628 65.8683 28.5263 65.8683 28.6085C65.8683 28.6548 65.884 28.6944 65.9153 28.7273C65.9467 28.7602 66.0095 28.7931 66.1036 28.8259C66.1993 28.8588 66.3412 28.8992 66.5295 28.947C66.7222 28.9963 66.8762 29.0531 66.9912 29.1173C67.1078 29.1801 67.1914 29.2555 67.2422 29.3437C67.2945 29.4319 67.3207 29.5387 67.3207 29.6642C67.3207 29.9078 67.2318 30.099 67.054 30.238C66.8776 30.377 66.6333 30.4465 66.321 30.4465ZM68.7718 30.3792V27.0844H69.312V30.3792H68.7718ZM70.6692 30.4465C70.4944 30.4465 70.3465 30.4136 70.2254 30.3478C70.1044 30.2806 70.0125 30.1917 69.9498 30.0811C69.8885 29.9705 69.8579 29.8488 69.8579 29.7158C69.8579 29.5992 69.8773 29.4946 69.9161 29.402C69.955 29.3078 70.0148 29.2271 70.0954 29.1599C70.1761 29.0912 70.2807 29.0351 70.4092 28.9918C70.5064 28.9604 70.6199 28.932 70.7499 28.9066C70.8814 28.8812 71.0234 28.8581 71.1758 28.8371C71.3297 28.8147 71.4903 28.7908 71.6577 28.7654L71.4649 28.8752C71.4664 28.7079 71.4291 28.5846 71.3529 28.5054C71.2767 28.4262 71.1482 28.3866 70.9673 28.3866C70.8583 28.3866 70.7529 28.412 70.6513 28.4628C70.5497 28.5136 70.4787 28.6011 70.4384 28.7251L69.9453 28.5704C70.005 28.3657 70.1186 28.2013 70.286 28.0773C70.4548 27.9533 70.6819 27.8913 70.9673 27.8913C71.1825 27.8913 71.3715 27.9264 71.5344 27.9966C71.6988 28.0669 71.8206 28.1819 71.8998 28.3418C71.9431 28.427 71.9692 28.5144 71.9782 28.604C71.9872 28.6922 71.9917 28.7886 71.9917 28.8932V30.3792H71.5187V29.8547L71.5972 29.9399C71.4881 30.1147 71.3603 30.2432 71.2139 30.3254C71.069 30.4061 70.8874 30.4465 70.6692 30.4465ZM70.7768 30.0161C70.8994 30.0161 71.004 29.9944 71.0906 29.9511C71.1773 29.9078 71.246 29.8547 71.2968 29.792C71.3491 29.7292 71.3842 29.6702 71.4022 29.6149C71.4306 29.5462 71.4463 29.4677 71.4492 29.3796C71.4537 29.2899 71.456 29.2174 71.456 29.1621L71.6218 29.2115C71.459 29.2369 71.3192 29.2593 71.2027 29.2787C71.0861 29.2981 70.986 29.3168 70.9023 29.3347C70.8187 29.3512 70.7447 29.3698 70.6804 29.3908C70.6177 29.4132 70.5646 29.4393 70.5213 29.4692C70.478 29.4991 70.4444 29.5335 70.4204 29.5723C70.398 29.6112 70.3868 29.6567 70.3868 29.709C70.3868 29.7688 70.4018 29.8219 70.4317 29.8682C70.4615 29.913 70.5049 29.9489 70.5617 29.9758C70.6199 30.0027 70.6917 30.0161 70.7768 30.0161ZM74.6538 30.4465C74.4177 30.4465 74.2197 30.3904 74.0599 30.2783C73.9 30.1663 73.7797 30.0139 73.699 29.8211C73.6183 29.6269 73.578 29.4094 73.578 29.1689C73.578 28.9253 73.6183 28.7071 73.699 28.5144C73.7797 28.3216 73.8977 28.17 74.0531 28.0594C74.21 27.9473 74.4035 27.8913 74.6336 27.8913C74.8623 27.8913 75.0603 27.9473 75.2276 28.0594C75.3965 28.17 75.5272 28.3216 75.6199 28.5144C75.7125 28.7056 75.7588 28.9238 75.7588 29.1689C75.7588 29.4109 75.7132 29.6283 75.6221 29.8211C75.5309 30.0139 75.4024 30.1663 75.2366 30.2783C75.0707 30.3904 74.8765 30.4465 74.6538 30.4465ZM73.4861 30.3792V27.1516H74.0307V28.6802H73.9635V30.3792H73.4861ZM74.5709 29.9623C74.7113 29.9623 74.8272 29.9272 74.9183 29.857C75.0095 29.7867 75.0767 29.6919 75.12 29.5723C75.1649 29.4513 75.1873 29.3168 75.1873 29.1689C75.1873 29.0224 75.1649 28.8894 75.12 28.7699C75.0752 28.6489 75.0057 28.5532 74.9116 28.483C74.8174 28.4113 74.6979 28.3754 74.553 28.3754C74.4155 28.3754 74.3034 28.409 74.2168 28.4763C74.1301 28.542 74.0658 28.6347 74.024 28.7542C73.9836 28.8723 73.9635 29.0105 73.9635 29.1689C73.9635 29.3258 73.9836 29.464 74.024 29.5835C74.0658 29.7031 74.1308 29.7965 74.219 29.8637C74.3086 29.9294 74.4259 29.9623 74.5709 29.9623ZM76.3067 27.5909V27.0956H76.8468V27.5909H76.3067ZM76.3067 30.3792V27.9585H76.8468V30.3792H76.3067ZM78.6277 30.4465C78.3827 30.4465 78.1675 30.3934 77.9822 30.2873C77.7969 30.1812 77.652 30.034 77.5474 29.8458C77.4443 29.6575 77.3927 29.4408 77.3927 29.1958C77.3927 28.9313 77.4435 28.7019 77.5451 28.5077C77.6467 28.3119 77.7879 28.1602 77.9687 28.0527C78.1496 27.9451 78.3587 27.8913 78.5963 27.8913C78.8474 27.8913 79.0603 27.9503 79.2351 28.0683C79.4114 28.1849 79.5422 28.35 79.6274 28.5637C79.7125 28.7774 79.7447 29.0292 79.7237 29.319H79.1881V29.1218C79.1866 28.8588 79.1402 28.6668 79.0491 28.5458C78.9579 28.4247 78.8145 28.3642 78.6187 28.3642C78.3976 28.3642 78.2332 28.4329 78.1256 28.5704C78.0181 28.7064 77.9643 28.9059 77.9643 29.1689C77.9643 29.4139 78.0181 29.6037 78.1256 29.7382C78.2332 29.8727 78.3901 29.9399 78.5963 29.9399C78.7293 29.9399 78.8436 29.9108 78.9393 29.8525C79.0364 29.7927 79.1111 29.7068 79.1634 29.5947L79.6969 29.7561C79.6042 29.9743 79.4608 30.1439 79.2665 30.2649C79.0737 30.3859 78.8608 30.4465 78.6277 30.4465ZM77.7939 29.319V28.9111H79.4593V29.319H77.7939ZM81.8415 30.3792V29.2137C81.8415 29.1375 81.8362 29.0531 81.8258 28.9604C81.8153 28.8678 81.7907 28.7789 81.7518 28.6937C81.7145 28.607 81.6577 28.5361 81.5815 28.4808C81.5068 28.4255 81.4051 28.3978 81.2766 28.3978C81.2079 28.3978 81.1399 28.409 81.0727 28.4315C81.0054 28.4539 80.9442 28.4927 80.8889 28.548C80.8351 28.6018 80.7918 28.6765 80.7589 28.7721C80.726 28.8663 80.7096 28.9873 80.7096 29.1352L80.3891 28.9985C80.3891 28.7923 80.4287 28.6055 80.5078 28.4382C80.5885 28.2708 80.7066 28.1378 80.862 28.0392C81.0174 27.9391 81.2087 27.889 81.4358 27.889C81.6151 27.889 81.763 27.9189 81.8796 27.9787C81.9961 28.0385 82.0888 28.1147 82.1575 28.2073C82.2262 28.3 82.277 28.3986 82.3099 28.5032C82.3428 28.6078 82.3637 28.7071 82.3727 28.8013C82.3831 28.8939 82.3884 28.9694 82.3884 29.0277V30.3792H81.8415ZM80.1627 30.3792V27.9585H80.6446V28.7094H80.7096V30.3792H80.1627ZM83.6367 30.3792L82.7581 27.9585H83.2983L83.9079 29.7135L84.5153 27.9585H85.0577L84.1791 30.3792H83.6367ZM86.4819 30.4465C86.2369 30.4465 86.0217 30.3934 85.8364 30.2873C85.6511 30.1812 85.5062 30.034 85.4016 29.8458C85.2985 29.6575 85.2469 29.4408 85.2469 29.1958C85.2469 28.9313 85.2977 28.7019 85.3993 28.5077C85.5009 28.3119 85.6422 28.1602 85.823 28.0527C86.0038 27.9451 86.213 27.8913 86.4505 27.8913C86.7016 27.8913 86.9145 27.9503 87.0893 28.0683C87.2657 28.1849 87.3964 28.35 87.4816 28.5637C87.5668 28.7774 87.5989 29.0292 87.578 29.319H87.0423V29.1218C87.0408 28.8588 86.9945 28.6668 86.9033 28.5458C86.8122 28.4247 86.6687 28.3642 86.473 28.3642C86.2518 28.3642 86.0874 28.4329 85.9799 28.5704C85.8723 28.7064 85.8185 28.9059 85.8185 29.1689C85.8185 29.4139 85.8723 29.6037 85.9799 29.7382C86.0874 29.8727 86.2443 29.9399 86.4505 29.9399C86.5835 29.9399 86.6978 29.9108 86.7935 29.8525C86.8906 29.7927 86.9653 29.7068 87.0176 29.5947L87.5511 29.7561C87.4584 29.9743 87.315 30.1439 87.1207 30.2649C86.928 30.3859 86.715 30.4465 86.4819 30.4465ZM85.6481 29.319V28.9111H87.3135V29.319H85.6481ZM89.6957 30.3792V29.2137C89.6957 29.1375 89.6905 29.0531 89.68 28.9604C89.6695 28.8678 89.6449 28.7789 89.606 28.6937C89.5687 28.607 89.5119 28.5361 89.4357 28.4808C89.361 28.4255 89.2594 28.3978 89.1309 28.3978C89.0621 28.3978 88.9941 28.409 88.9269 28.4315C88.8596 28.4539 88.7984 28.4927 88.7431 28.548C88.6893 28.6018 88.646 28.6765 88.6131 28.7721C88.5802 28.8663 88.5638 28.9873 88.5638 29.1352L88.2433 28.9985C88.2433 28.7923 88.2829 28.6055 88.3621 28.4382C88.4427 28.2708 88.5608 28.1378 88.7162 28.0392C88.8716 27.9391 89.0629 27.889 89.29 27.889C89.4693 27.889 89.6172 27.9189 89.7338 27.9787C89.8503 28.0385 89.943 28.1147 90.0117 28.2073C90.0805 28.3 90.1313 28.3986 90.1641 28.5032C90.197 28.6078 90.2179 28.7071 90.2269 28.8013C90.2373 28.8939 90.2426 28.9694 90.2426 29.0277V30.3792H89.6957ZM88.0169 30.3792V27.9585H88.4988V28.7094H88.5638V30.3792H88.0169ZM90.8813 27.5909V27.0956H91.4214V27.5909H90.8813ZM90.8813 30.3792V27.9585H91.4214V30.3792H90.8813ZM93.0723 30.4465C92.8497 30.4465 92.6554 30.3904 92.4896 30.2783C92.3237 30.1663 92.1952 30.0139 92.104 29.8211C92.0129 29.6283 91.9673 29.4109 91.9673 29.1689C91.9673 28.9238 92.0129 28.7056 92.104 28.5144C92.1967 28.3216 92.3274 28.17 92.4963 28.0594C92.6651 27.9473 92.8639 27.8913 93.0925 27.8913C93.3226 27.8913 93.5154 27.9473 93.6708 28.0594C93.8277 28.17 93.9465 28.3216 94.0271 28.5144C94.1078 28.7071 94.1482 28.9253 94.1482 29.1689C94.1482 29.4094 94.1078 29.6269 94.0271 29.8211C93.9465 30.0139 93.8262 30.1663 93.6663 30.2783C93.5064 30.3904 93.3084 30.4465 93.0723 30.4465ZM93.1552 29.9623C93.3002 29.9623 93.4167 29.9294 93.5049 29.8637C93.5946 29.7965 93.6596 29.7031 93.6999 29.5835C93.7417 29.464 93.7627 29.3258 93.7627 29.1689C93.7627 29.0105 93.7417 28.8723 93.6999 28.7542C93.6596 28.6347 93.5961 28.542 93.5094 28.4763C93.4227 28.409 93.3106 28.3754 93.1732 28.3754C93.0282 28.3754 92.9087 28.4113 92.8146 28.483C92.7204 28.5532 92.6509 28.6489 92.6061 28.7699C92.5613 28.8894 92.5389 29.0224 92.5389 29.1689C92.5389 29.3168 92.5605 29.4513 92.6039 29.5723C92.6487 29.6919 92.7167 29.7867 92.8078 29.857C92.899 29.9272 93.0148 29.9623 93.1552 29.9623ZM93.7627 30.3792V28.6802H93.6954V27.1516H94.2401V30.3792H93.7627ZM95.5544 30.4465C95.3795 30.4465 95.2316 30.4136 95.1106 30.3478C94.9895 30.2806 94.8976 30.1917 94.8349 30.0811C94.7736 29.9705 94.743 29.8488 94.743 29.7158C94.743 29.5992 94.7624 29.4946 94.8013 29.402C94.8401 29.3078 94.8999 29.2271 94.9806 29.1599C95.0613 29.0912 95.1659 29.0351 95.2944 28.9918C95.3915 28.9604 95.5051 28.932 95.6351 28.9066C95.7665 28.8812 95.9085 28.8581 96.0609 28.8371C96.2148 28.8147 96.3755 28.7908 96.5428 28.7654L96.3501 28.8752C96.3515 28.7079 96.3142 28.5846 96.238 28.5054C96.1618 28.4262 96.0333 28.3866 95.8525 28.3866C95.7434 28.3866 95.638 28.412 95.5364 28.4628C95.4348 28.5136 95.3638 28.6011 95.3235 28.7251L94.8304 28.5704C94.8902 28.3657 95.0037 28.2013 95.1711 28.0773C95.3399 27.9533 95.5671 27.8913 95.8525 27.8913C96.0676 27.8913 96.2567 27.9264 96.4195 27.9966C96.5839 28.0669 96.7057 28.1819 96.7849 28.3418C96.8282 28.427 96.8544 28.5144 96.8633 28.604C96.8723 28.6922 96.8768 28.7886 96.8768 28.8932V30.3792H96.4038V29.8547L96.4823 29.9399C96.3732 30.1147 96.2455 30.2432 96.099 30.3254C95.9541 30.4061 95.7725 30.4465 95.5544 30.4465ZM95.662 30.0161C95.7845 30.0161 95.8891 29.9944 95.9757 29.9511C96.0624 29.9078 96.1311 29.8547 96.182 29.792C96.2342 29.7292 96.2694 29.6702 96.2873 29.6149C96.3157 29.5462 96.3314 29.4677 96.3344 29.3796C96.3388 29.2899 96.3411 29.2174 96.3411 29.1621L96.507 29.2115C96.3441 29.2369 96.2044 29.2593 96.0878 29.2787C95.9713 29.2981 95.8711 29.3168 95.7875 29.3347C95.7038 29.3512 95.6298 29.3698 95.5656 29.3908C95.5028 29.4132 95.4498 29.4393 95.4064 29.4692C95.3631 29.4991 95.3295 29.5335 95.3056 29.5723C95.2832 29.6112 95.272 29.6567 95.272 29.709C95.272 29.7688 95.2869 29.8219 95.3168 29.8682C95.3467 29.913 95.39 29.9489 95.4468 29.9758C95.5051 30.0027 95.5768 30.0161 95.662 30.0161ZM97.4244 30.9508L97.4558 30.7177C97.5246 30.7236 97.5791 30.7117 97.6194 30.6818C97.6598 30.6534 97.6867 30.6123 97.7001 30.5585C97.7151 30.5062 97.7188 30.4465 97.7113 30.3792H97.4244V29.8032H97.9781V30.4016C97.9781 30.5974 97.9317 30.7453 97.8391 30.8454C97.7465 30.9455 97.6082 30.9806 97.4244 30.9508Z" fill="black"/>
<path d="M49.1118 40.4382C48.7813 40.4382 48.4832 40.3807 48.2175 40.2656C47.9539 40.1505 47.7364 39.9863 47.5648 39.773C47.3954 39.5575 47.2876 39.3023 47.2416 39.0073L48.0261 38.8881C48.093 39.1558 48.2301 39.3629 48.4372 39.5094C48.6464 39.6558 48.8869 39.729 49.1589 39.729C49.32 39.729 49.4716 39.7039 49.6139 39.6537C49.7561 39.6035 49.8712 39.5303 49.9591 39.4341C50.049 39.3378 50.094 39.2196 50.094 39.0795C50.094 39.0167 50.0835 38.9592 50.0626 38.9069C50.0417 38.8525 50.0103 38.8044 49.9685 38.7625C49.9287 38.7207 49.8764 38.683 49.8116 38.6496C49.7488 38.614 49.6756 38.5837 49.5919 38.5586L48.4246 38.2134C48.3242 38.1841 48.2154 38.1454 48.0983 38.0973C47.9832 38.0471 47.8734 37.9791 47.7688 37.8933C47.6663 37.8055 47.5816 37.6946 47.5146 37.5607C47.4498 37.4247 47.4173 37.2574 47.4173 37.0586C47.4173 36.7679 47.4906 36.5241 47.637 36.3275C47.7855 36.1288 47.9843 35.9802 48.2332 35.8819C48.4842 35.7836 48.7625 35.7355 49.0679 35.7376C49.3775 35.7397 49.6536 35.793 49.8963 35.8976C50.139 36.0001 50.3419 36.1497 50.5051 36.3463C50.6682 36.543 50.7833 36.7804 50.8502 37.0586L50.0375 37.1998C50.004 37.0409 49.9392 36.9059 49.843 36.7951C49.7488 36.6821 49.6327 36.5963 49.4947 36.5377C49.3587 36.4792 49.2133 36.4478 49.0585 36.4436C48.9079 36.4415 48.7677 36.4645 48.638 36.5126C48.5104 36.5587 48.4068 36.6256 48.3273 36.7135C48.2499 36.8013 48.2112 36.9038 48.2112 37.021C48.2112 37.1319 48.2447 37.2229 48.3117 37.294C48.3786 37.363 48.4612 37.4185 48.5596 37.4603C48.66 37.5 48.7614 37.5335 48.8639 37.5607L49.6735 37.7866C49.7844 37.8159 49.9089 37.8557 50.0469 37.9059C50.185 37.9561 50.3178 38.0262 50.4454 38.1161C50.5731 38.2061 50.6777 38.3243 50.7592 38.4707C50.8429 38.6171 50.8848 38.8033 50.8848 39.0293C50.8848 39.2636 50.8356 39.4696 50.7373 39.6474C50.641 39.8232 50.5103 39.9696 50.345 40.0867C50.1798 40.2039 49.9904 40.2918 49.7771 40.3503C49.5658 40.4089 49.344 40.4382 49.1118 40.4382ZM51.6456 36.4405V35.747H52.4018V36.4405H51.6456ZM51.6456 40.3441V36.9551H52.4018V40.3441H51.6456ZM53.4233 40.3441V35.7313H54.1796V40.3441H53.4233ZM56.0546 40.3441L54.8246 36.9551H55.5808L56.4343 39.4121L57.2847 36.9551H58.0441L56.814 40.3441H56.0546ZM58.6888 36.4405V35.747H59.4451V36.4405H58.6888ZM58.6888 40.3441V36.9551H59.4451V40.3441H58.6888ZM61.3515 40.4382C61.1068 40.4382 60.8997 40.3922 60.7302 40.3001C60.5608 40.206 60.4321 40.0815 60.3442 39.9267C60.2585 39.7719 60.2156 39.6014 60.2156 39.4152C60.2156 39.2521 60.2428 39.1056 60.2972 38.9759C60.3516 38.8441 60.4352 38.7312 60.5482 38.637C60.6612 38.5408 60.8076 38.4623 60.9875 38.4017C61.1235 38.3577 61.2825 38.318 61.4645 38.2824C61.6486 38.2469 61.8473 38.2144 62.0607 38.1852C62.2762 38.1538 62.5011 38.1203 62.7354 38.0847L62.4655 38.2385C62.4676 38.0042 62.4153 37.8316 62.3086 37.7207C62.2019 37.6099 62.022 37.5544 61.7689 37.5544C61.6162 37.5544 61.4687 37.59 61.3264 37.6611C61.1842 37.7323 61.0848 37.8546 61.0283 38.0283L60.338 37.8117C60.4216 37.5251 60.5806 37.295 60.8149 37.1214C61.0513 36.9478 61.3693 36.861 61.7689 36.861C62.0701 36.861 62.3347 36.9101 62.5628 37.0084C62.7929 37.1068 62.9634 37.2678 63.0742 37.4917C63.1349 37.6109 63.1715 37.7333 63.1841 37.8588C63.1966 37.9822 63.2029 38.1172 63.2029 38.2636V40.3441H62.5408V39.6098L62.6506 39.729C62.4979 39.9738 62.3191 40.1537 62.114 40.2687C61.9111 40.3817 61.6569 40.4382 61.3515 40.4382ZM61.5021 39.8357C61.6737 39.8357 61.8201 39.8054 61.9415 39.7447C62.0628 39.684 62.159 39.6098 62.2301 39.5219C62.3034 39.4341 62.3525 39.3514 62.3776 39.274C62.4174 39.1778 62.4393 39.068 62.4435 38.9445C62.4498 38.819 62.4529 38.7176 62.4529 38.6402L62.6851 38.7092C62.4571 38.7448 62.2615 38.7761 62.0984 38.8033C61.9352 38.8305 61.795 38.8567 61.6779 38.8818C61.5607 38.9048 61.4572 38.9309 61.3672 38.9602C61.2794 38.9916 61.2051 39.0282 61.1444 39.0701C61.0838 39.1119 61.0367 39.16 61.0032 39.2144C60.9718 39.2688 60.9561 39.3326 60.9561 39.4058C60.9561 39.4895 60.9771 39.5638 61.0189 39.6286C61.0607 39.6914 61.1214 39.7416 61.2009 39.7792C61.2825 39.8169 61.3829 39.8357 61.5021 39.8357ZM66.9864 40.4382C66.6559 40.4382 66.3578 40.3807 66.0921 40.2656C65.8285 40.1505 65.611 39.9863 65.4394 39.773C65.27 39.5575 65.1622 39.3023 65.1162 39.0073L65.9007 38.8881C65.9676 39.1558 66.1047 39.3629 66.3118 39.5094C66.521 39.6558 66.7615 39.729 67.0335 39.729C67.1946 39.729 67.3462 39.7039 67.4885 39.6537C67.6307 39.6035 67.7458 39.5303 67.8337 39.4341C67.9236 39.3378 67.9686 39.2196 67.9686 39.0795C67.9686 39.0167 67.9581 38.9592 67.9372 38.9069C67.9163 38.8525 67.8849 38.8044 67.8431 38.7625C67.8033 38.7207 67.751 38.683 67.6862 38.6496C67.6234 38.614 67.5502 38.5837 67.4665 38.5586L66.2992 38.2134C66.1988 38.1841 66.09 38.1454 65.9729 38.0973C65.8578 38.0471 65.748 37.9791 65.6434 37.8933C65.5409 37.8055 65.4561 37.6946 65.3892 37.5607C65.3244 37.4247 65.2919 37.2574 65.2919 37.0586C65.2919 36.7679 65.3651 36.5241 65.5116 36.3275C65.6601 36.1288 65.8589 35.9802 66.1078 35.8819C66.3588 35.7836 66.6371 35.7355 66.9425 35.7376C67.2521 35.7397 67.5282 35.793 67.7709 35.8976C68.0136 36.0001 68.2165 36.1497 68.3797 36.3463C68.5428 36.543 68.6579 36.7804 68.7248 37.0586L67.9121 37.1998C67.8786 37.0409 67.8138 36.9059 67.7176 36.7951C67.6234 36.6821 67.5073 36.5963 67.3692 36.5377C67.2333 36.4792 67.0879 36.4478 66.9331 36.4436C66.7824 36.4415 66.6423 36.4645 66.5126 36.5126C66.385 36.5587 66.2814 36.6256 66.2019 36.7135C66.1245 36.8013 66.0858 36.9038 66.0858 37.021C66.0858 37.1319 66.1193 37.2229 66.1862 37.294C66.2532 37.363 66.3358 37.4185 66.4341 37.4603C66.5346 37.5 66.636 37.5335 66.7385 37.5607L67.5481 37.7866C67.659 37.8159 67.7834 37.8557 67.9215 37.9059C68.0596 37.9561 68.1924 38.0262 68.32 38.1161C68.4476 38.2061 68.5522 38.3243 68.6338 38.4707C68.7175 38.6171 68.7593 38.8033 68.7593 39.0293C68.7593 39.2636 68.7102 39.4696 68.6119 39.6474C68.5156 39.8232 68.3849 39.9696 68.2196 40.0867C68.0544 40.2039 67.865 40.2918 67.6517 40.3503C67.4404 40.4089 67.2186 40.4382 66.9864 40.4382ZM70.405 40.4382C70.1603 40.4382 69.9532 40.3922 69.7837 40.3001C69.6143 40.206 69.4856 40.0815 69.3978 39.9267C69.312 39.7719 69.2691 39.6014 69.2691 39.4152C69.2691 39.2521 69.2963 39.1056 69.3507 38.9759C69.4051 38.8441 69.4888 38.7312 69.6017 38.637C69.7147 38.5408 69.8611 38.4623 70.041 38.4017C70.177 38.3577 70.336 38.318 70.518 38.2824C70.7021 38.2469 70.9008 38.2144 71.1142 38.1852C71.3297 38.1538 71.5546 38.1203 71.7889 38.0847L71.519 38.2385C71.5211 38.0042 71.4688 37.8316 71.3621 37.7207C71.2554 37.6099 71.0755 37.5544 70.8224 37.5544C70.6697 37.5544 70.5222 37.59 70.3799 37.6611C70.2377 37.7323 70.1383 37.8546 70.0818 38.0283L69.3915 37.8117C69.4752 37.5251 69.6342 37.295 69.8685 37.1214C70.1048 36.9478 70.4228 36.861 70.8224 36.861C71.1236 36.861 71.3883 36.9101 71.6163 37.0084C71.8464 37.1068 72.0169 37.2678 72.1278 37.4917C72.1884 37.6109 72.225 37.7333 72.2376 37.8588C72.2501 37.9822 72.2564 38.1172 72.2564 38.2636V40.3441H71.5943V39.6098L71.7041 39.729C71.5514 39.9738 71.3726 40.1537 71.1676 40.2687C70.9646 40.3817 70.7105 40.4382 70.405 40.4382ZM70.5557 39.8357C70.7272 39.8357 70.8736 39.8054 70.995 39.7447C71.1163 39.684 71.2125 39.6098 71.2837 39.5219C71.3569 39.4341 71.406 39.3514 71.4311 39.274C71.4709 39.1778 71.4929 39.068 71.497 38.9445C71.5033 38.819 71.5065 38.7176 71.5065 38.6402L71.7387 38.7092C71.5106 38.7448 71.315 38.7761 71.1519 38.8033C70.9887 38.8305 70.8485 38.8567 70.7314 38.8818C70.6142 38.9048 70.5107 38.9309 70.4207 38.9602C70.3329 38.9916 70.2586 39.0282 70.1979 39.0701C70.1373 39.1119 70.0902 39.16 70.0567 39.2144C70.0254 39.2688 70.0097 39.3326 70.0097 39.4058C70.0097 39.4895 70.0306 39.5638 70.0724 39.6286C70.1143 39.6914 70.1749 39.7416 70.2544 39.7792C70.336 39.8169 70.4364 39.8357 70.5557 39.8357ZM77.1621 40.3441V38.2856C77.1621 38.0534 77.1046 37.8724 76.9895 37.7427C76.8744 37.6109 76.7186 37.545 76.5219 37.545C76.4006 37.545 76.2918 37.5733 76.1956 37.6297C76.0994 37.6841 76.023 37.7657 75.9665 37.8745C75.9101 37.9812 75.8818 38.1088 75.8818 38.2573L75.5461 38.0596C75.544 37.8253 75.5963 37.6193 75.7029 37.4415C75.8117 37.2616 75.9582 37.1214 76.1423 37.021C76.3264 36.9206 76.5314 36.8704 76.7573 36.8704C77.1318 36.8704 77.4184 36.9833 77.6171 37.2093C77.8179 37.4331 77.9183 37.7281 77.9183 38.0942V40.3441H77.1621ZM73.0859 40.3441V36.9551H73.7543V38.0063H73.8484V40.3441H73.0859ZM75.1287 40.3441V38.295C75.1287 38.0586 75.0712 37.8745 74.9561 37.7427C74.8411 37.6109 74.6842 37.545 74.4854 37.545C74.293 37.545 74.1382 37.6109 74.021 37.7427C73.906 37.8745 73.8484 38.046 73.8484 38.2573L73.5095 38.0314C73.5095 37.8117 73.5639 37.6141 73.6727 37.4383C73.7815 37.2626 73.9279 37.1245 74.112 37.0241C74.2982 36.9216 74.5064 36.8704 74.7365 36.8704C74.9896 36.8704 75.2009 36.9248 75.3703 37.0335C75.5419 37.1402 75.6695 37.2867 75.7532 37.4728C75.8389 37.6569 75.8818 37.8651 75.8818 38.0973V40.3441H75.1287ZM79.7033 40.4382C79.4585 40.4382 79.2514 40.3922 79.082 40.3001C78.9125 40.206 78.7839 40.0815 78.696 39.9267C78.6102 39.7719 78.5673 39.6014 78.5673 39.4152C78.5673 39.2521 78.5945 39.1056 78.6489 38.9759C78.7033 38.8441 78.787 38.7312 78.9 38.637C79.0129 38.5408 79.1594 38.4623 79.3393 38.4017C79.4752 38.3577 79.6342 38.318 79.8162 38.2824C80.0003 38.2469 80.1991 38.2144 80.4124 38.1852C80.6279 38.1538 80.8528 38.1203 81.0871 38.0847L80.8172 38.2385C80.8193 38.0042 80.767 37.8316 80.6603 37.7207C80.5536 37.6099 80.3737 37.5544 80.1206 37.5544C79.9679 37.5544 79.8204 37.59 79.6782 37.6611C79.5359 37.7323 79.4365 37.8546 79.3801 38.0283L78.6897 37.8117C78.7734 37.5251 78.9324 37.295 79.1667 37.1214C79.4031 36.9478 79.7211 36.861 80.1206 36.861C80.4219 36.861 80.6865 36.9101 80.9145 37.0084C81.1446 37.1068 81.3151 37.2678 81.426 37.4917C81.4867 37.6109 81.5233 37.7333 81.5358 37.8588C81.5484 37.9822 81.5547 38.1172 81.5547 38.2636V40.3441H80.8925V39.6098L81.0024 39.729C80.8497 39.9738 80.6708 40.1537 80.4658 40.2687C80.2629 40.3817 80.0087 40.4382 79.7033 40.4382ZM79.8539 39.8357C80.0254 39.8357 80.1719 39.8054 80.2932 39.7447C80.4145 39.684 80.5108 39.6098 80.5819 39.5219C80.6551 39.4341 80.7043 39.3514 80.7294 39.274C80.7691 39.1778 80.7911 39.068 80.7953 38.9445C80.8015 38.819 80.8047 38.7176 80.8047 38.6402L81.0369 38.7092C80.8089 38.7448 80.6133 38.7761 80.4501 38.8033C80.2869 38.8305 80.1468 38.8567 80.0296 38.8818C79.9125 38.9048 79.8089 38.9309 79.719 38.9602C79.6311 38.9916 79.5568 39.0282 79.4962 39.0701C79.4355 39.1119 79.3884 39.16 79.355 39.2144C79.3236 39.2688 79.3079 39.3326 79.3079 39.4058C79.3079 39.4895 79.3288 39.5638 79.3707 39.6286C79.4125 39.6914 79.4732 39.7416 79.5526 39.7792C79.6342 39.8169 79.7346 39.8357 79.8539 39.8357ZM84.7345 40.3441V38.7123C84.7345 38.6056 84.7271 38.4874 84.7125 38.3577C84.6978 38.228 84.6633 38.1036 84.6089 37.9843C84.5566 37.863 84.4771 37.7636 84.3705 37.6862C84.2659 37.6088 84.1236 37.5701 83.9437 37.5701C83.8475 37.5701 83.7523 37.5858 83.6581 37.6172C83.564 37.6486 83.4782 37.703 83.4008 37.7804C83.3255 37.8557 83.2649 37.9603 83.2188 38.0942C83.1728 38.226 83.1498 38.3954 83.1498 38.6025L82.7011 38.4111C82.7011 38.1224 82.7565 37.8609 82.8674 37.6266C82.9803 37.3923 83.1456 37.2061 83.3632 37.0681C83.5807 36.9279 83.8485 36.8578 84.1665 36.8578C84.4175 36.8578 84.6246 36.8997 84.7878 36.9833C84.951 37.067 85.0807 37.1737 85.1769 37.3034C85.2731 37.4331 85.3443 37.5712 85.3903 37.7176C85.4363 37.864 85.4656 38.0032 85.4781 38.135C85.4928 38.2647 85.5001 38.3703 85.5001 38.4519V40.3441H84.7345ZM82.3841 40.3441V36.9551H83.0588V38.0063H83.1498V40.3441H82.3841ZM88.3241 40.3441C88.1003 40.3859 87.8806 40.4037 87.6651 40.3974C87.4518 40.3932 87.2603 40.3545 87.0909 40.2813C86.9214 40.206 86.7928 40.0878 86.7049 39.9267C86.6275 39.7803 86.5867 39.6307 86.5825 39.478C86.5784 39.3253 86.5763 39.1527 86.5763 38.9602V36.0137H87.3294V38.9163C87.3294 39.0523 87.3304 39.1715 87.3325 39.274C87.3367 39.3765 87.3587 39.4602 87.3984 39.5251C87.4737 39.6506 87.594 39.7207 87.7593 39.7353C87.9245 39.7499 88.1128 39.7416 88.3241 39.7102V40.3441ZM85.9612 37.5482V36.9551H88.3241V37.5482H85.9612ZM91.4157 40.3441V38.7123C91.4157 38.6056 91.4084 38.4874 91.3937 38.3577C91.3791 38.228 91.3446 38.1036 91.2902 37.9843C91.2379 37.863 91.1584 37.7636 91.0517 37.6862C90.9471 37.6088 90.8048 37.5701 90.6249 37.5701C90.5287 37.5701 90.4335 37.5858 90.3394 37.6172C90.2452 37.6486 90.1595 37.703 90.0821 37.7804C90.0068 37.8557 89.9461 37.9603 89.9001 38.0942C89.8541 38.226 89.831 38.3954 89.831 38.6025L89.3823 38.4111C89.3823 38.1224 89.4378 37.8609 89.5486 37.6266C89.6616 37.3923 89.8269 37.2061 90.0444 37.0681C90.262 36.9279 90.5298 36.8578 90.8477 36.8578C91.0988 36.8578 91.3059 36.8997 91.469 36.9833C91.6322 37.067 91.7619 37.1737 91.8581 37.3034C91.9544 37.4331 92.0255 37.5712 92.0715 37.7176C92.1175 37.864 92.1468 38.0032 92.1594 38.135C92.174 38.2647 92.1814 38.3703 92.1814 38.4519V40.3441H91.4157ZM89.0654 40.3441V35.8254H89.74V38.204H89.831V40.3441H89.0654ZM93.9667 40.4382C93.7219 40.4382 93.5148 40.3922 93.3454 40.3001C93.1759 40.206 93.0473 40.0815 92.9594 39.9267C92.8736 39.7719 92.8308 39.6014 92.8308 39.4152C92.8308 39.2521 92.8579 39.1056 92.9123 38.9759C92.9667 38.8441 93.0504 38.7312 93.1634 38.637C93.2763 38.5408 93.4228 38.4623 93.6027 38.4017C93.7387 38.3577 93.8977 38.318 94.0797 38.2824C94.2637 38.2469 94.4625 38.2144 94.6759 38.1852C94.8913 38.1538 95.1162 38.1203 95.3505 38.0847L95.0807 38.2385C95.0827 38.0042 95.0304 37.8316 94.9238 37.7207C94.8171 37.6099 94.6372 37.5544 94.384 37.5544C94.2313 37.5544 94.0838 37.59 93.9416 37.6611C93.7993 37.7323 93.7 37.8546 93.6435 38.0283L92.9531 37.8117C93.0368 37.5251 93.1958 37.295 93.4301 37.1214C93.6665 36.9478 93.9845 36.861 94.384 36.861C94.6853 36.861 94.9499 36.9101 95.1779 37.0084C95.408 37.1068 95.5785 37.2678 95.6894 37.4917C95.7501 37.6109 95.7867 37.7333 95.7992 37.8588C95.8118 37.9822 95.8181 38.1172 95.8181 38.2636V40.3441H95.156V39.6098L95.2658 39.729C95.1131 39.9738 94.9342 40.1537 94.7292 40.2687C94.5263 40.3817 94.2721 40.4382 93.9667 40.4382ZM94.1173 39.8357C94.2888 39.8357 94.4353 39.8054 94.5566 39.7447C94.6779 39.684 94.7742 39.6098 94.8453 39.5219C94.9185 39.4341 94.9677 39.3514 94.9928 39.274C95.0325 39.1778 95.0545 39.068 95.0587 38.9445C95.065 38.819 95.0681 38.7176 95.0681 38.6402L95.3003 38.7092C95.0723 38.7448 94.8767 38.7761 94.7135 38.8033C94.5503 38.8305 94.4102 38.8567 94.293 38.8818C94.1759 38.9048 94.0723 38.9309 93.9824 38.9602C93.8945 38.9916 93.8202 39.0282 93.7596 39.0701C93.6989 39.1119 93.6518 39.16 93.6184 39.2144C93.587 39.2688 93.5713 39.3326 93.5713 39.4058C93.5713 39.4895 93.5922 39.5638 93.6341 39.6286C93.6759 39.6914 93.7366 39.7416 93.8161 39.7792C93.8977 39.8169 93.9981 39.8357 94.1173 39.8357Z" fill="black"/>
<path fill-rule="evenodd" clip-rule="evenodd" d="M182.689 30.8787C182.689 29.7019 182.702 29.3098 184.258 29.3098C185.815 29.3098 185.827 29.7019 185.827 30.8787C185.827 32.0555 185.832 32.4477 184.258 32.4477C182.684 32.4477 182.689 32.0555 182.689 30.8787Z" stroke="black" stroke-width="0.672414" stroke-linecap="round" stroke-linejoin="round"/>
<path fill-rule="evenodd" clip-rule="evenodd" d="M187.621 30.8787C187.621 29.7019 187.634 29.3098 189.19 29.3098C190.746 29.3098 190.759 29.7019 190.759 30.8787C190.759 32.0555 190.764 32.4477 189.19 32.4477C187.616 32.4477 187.621 32.0555 187.621 30.8787Z" stroke="black" stroke-width="0.672414" stroke-linecap="round" stroke-linejoin="round"/>
<path fill-rule="evenodd" clip-rule="evenodd" d="M182.689 35.8097C182.689 34.6329 182.702 34.2408 184.258 34.2408C185.815 34.2408 185.827 34.6329 185.827 35.8097C185.827 36.9866 185.832 37.3787 184.258 37.3787C182.684 37.3787 182.689 36.9866 182.689 35.8097Z" stroke="black" stroke-width="0.672414" stroke-linecap="round" stroke-linejoin="round"/>
<path fill-rule="evenodd" clip-rule="evenodd" d="M187.621 35.8097C187.621 34.6329 187.634 34.2408 189.19 34.2408C190.746 34.2408 190.759 34.6329 190.759 35.8097C190.759 36.9866 190.764 37.3787 189.19 37.3787C187.616 37.3787 187.621 36.9866 187.621 35.8097Z" stroke="black" stroke-width="0.672414" stroke-linecap="round" stroke-linejoin="round"/>
<path d="M49.523 82.1088V81.1137H48.5278V80.6618H49.523V79.672H49.9749V80.6618H50.9674V81.1137H49.9749V82.1088H49.523ZM51.5534 82.8243L51.5561 82.324L53.2425 80.8124C53.3788 80.6923 53.4711 80.5775 53.5195 80.4681C53.5697 80.3588 53.5948 80.2494 53.5948 80.14C53.5948 80.0019 53.5644 79.8782 53.5034 79.7688C53.4424 79.6577 53.3581 79.5698 53.2506 79.5052C53.143 79.4407 53.0192 79.4084 52.8794 79.4084C52.7359 79.4084 52.6077 79.4425 52.4948 79.5106C52.3836 79.577 52.2966 79.6657 52.2339 79.7769C52.1711 79.8881 52.1406 80.0082 52.1424 80.1373H51.5668C51.5668 79.8863 51.6233 79.6666 51.7363 79.4783C51.851 79.2883 52.0079 79.1403 52.207 79.0346C52.406 78.927 52.6337 78.8732 52.8901 78.8732C53.134 78.8732 53.3528 78.9288 53.5464 79.0399C53.7401 79.1493 53.8925 79.2999 54.0037 79.4918C54.1166 79.6837 54.1731 79.9024 54.1731 80.1481C54.1731 80.3256 54.1498 80.4762 54.1032 80.5999C54.0566 80.7237 53.9866 80.8384 53.8934 80.9442C53.8001 81.05 53.6836 81.1648 53.5437 81.2885L52.2419 82.4504L52.1801 82.289H54.1731V82.8243H51.5534ZM54.7601 83.4698L54.795 83.2197C54.8721 83.225 54.9322 83.2107 54.9752 83.1766C55.0183 83.1426 55.047 83.095 55.0613 83.0341C55.0757 82.9731 55.0783 82.9041 55.0694 82.827H54.7601V82.1788H55.3545V82.8808C55.3545 83.0923 55.3034 83.2519 55.2012 83.3595C55.1008 83.4671 54.9537 83.5039 54.7601 83.4698ZM57.5183 82.9077C57.3192 82.9077 57.1336 82.8673 56.9615 82.7866C56.7911 82.7041 56.645 82.5912 56.5231 82.4477C56.4011 82.3025 56.3142 82.1357 56.2622 81.9474L56.8028 81.8022C56.8333 81.917 56.8853 82.0165 56.9588 82.1008C57.0341 82.185 57.122 82.2505 57.2224 82.2971C57.3228 82.3419 57.4268 82.3643 57.5344 82.3643C57.676 82.3643 57.8043 82.3303 57.919 82.2621C58.0356 82.194 58.127 82.1026 58.1934 81.9878C58.2615 81.873 58.2956 81.7466 58.2956 81.6086C58.2956 81.4669 58.2606 81.3387 58.1907 81.2239C58.1225 81.1092 58.0302 81.0186 57.9136 80.9523C57.7989 80.8841 57.6725 80.8501 57.5344 80.8501C57.3766 80.8501 57.243 80.8814 57.1336 80.9442C57.0243 81.007 56.9391 81.0796 56.8781 81.1621L56.3886 80.9899L56.5069 78.9539H58.5968V79.4837H56.7947L57.0234 79.2712L56.9292 80.7963L56.8189 80.6537C56.9211 80.5515 57.0431 80.4735 57.1847 80.4197C57.3264 80.3659 57.4671 80.339 57.607 80.339C57.8473 80.339 58.0616 80.3946 58.2498 80.5058C58.4399 80.617 58.5896 80.7685 58.699 80.9603C58.8084 81.1504 58.8631 81.3665 58.8631 81.6086C58.8631 81.8488 58.8012 82.0676 58.6775 82.2648C58.5538 82.4603 58.3897 82.6163 58.1853 82.7328C57.9809 82.8494 57.7585 82.9077 57.5183 82.9077ZM60.8519 82.9077C60.5883 82.9077 60.3552 82.8503 60.1525 82.7355C59.9499 82.619 59.7903 82.4594 59.6738 82.2568C59.559 82.0541 59.5016 81.821 59.5016 81.5574V80.2234C59.5016 79.9598 59.559 79.7267 59.6738 79.5241C59.7903 79.3214 59.9499 79.1628 60.1525 79.048C60.3552 78.9314 60.5883 78.8732 60.8519 78.8732C61.1154 78.8732 61.3485 78.9314 61.5512 79.048C61.7538 79.1628 61.9125 79.3214 62.0272 79.5241C62.1438 79.7267 62.2021 79.9598 62.2021 80.2234V81.5574C62.2021 81.821 62.1438 82.0541 62.0272 82.2568C61.9125 82.4594 61.7538 82.619 61.5512 82.7355C61.3485 82.8503 61.1154 82.9077 60.8519 82.9077ZM60.8519 82.3697C60.9953 82.3697 61.1253 82.3357 61.2419 82.2675C61.3602 82.1976 61.4543 82.1043 61.5243 81.9878C61.5942 81.8694 61.6292 81.7377 61.6292 81.5924V80.183C61.6292 80.0396 61.5942 79.9096 61.5243 79.793C61.4543 79.6747 61.3602 79.5814 61.2419 79.5133C61.1253 79.4434 60.9953 79.4084 60.8519 79.4084C60.7084 79.4084 60.5775 79.4434 60.4592 79.5133C60.3426 79.5814 60.2494 79.6747 60.1794 79.793C60.1095 79.9096 60.0745 80.0396 60.0745 80.183V81.5924C60.0745 81.7377 60.1095 81.8694 60.1794 81.9878C60.2494 82.1043 60.3426 82.1976 60.4592 82.2675C60.5775 82.3357 60.7084 82.3697 60.8519 82.3697ZM63.4329 82.827L63.0563 82.4504L66.5555 78.9539L66.9321 79.3331L63.4329 82.827ZM66.1252 82.9077C65.9477 82.9077 65.7854 82.8646 65.6384 82.7786C65.4931 82.6907 65.3766 82.5741 65.2887 82.4289C65.2009 82.2819 65.1569 82.1187 65.1569 81.9394C65.1569 81.7637 65.2018 81.6023 65.2914 81.4552C65.3811 81.3082 65.4994 81.1908 65.6464 81.1029C65.7935 81.015 65.9531 80.9711 66.1252 80.9711C66.3027 80.9711 66.465 81.015 66.612 81.1029C66.7591 81.189 66.8756 81.3055 66.9617 81.4526C67.0495 81.5978 67.0935 81.7601 67.0935 81.9394C67.0935 82.1187 67.0495 82.2819 66.9617 82.4289C66.8756 82.5741 66.7591 82.6907 66.612 82.7786C66.465 82.8646 66.3027 82.9077 66.1252 82.9077ZM66.1252 82.4208C66.2131 82.4208 66.2929 82.3993 66.3646 82.3563C66.4381 82.3114 66.4964 82.2523 66.5394 82.1788C66.5842 82.1052 66.6066 82.0254 66.6066 81.9394C66.6066 81.8533 66.5842 81.7735 66.5394 81.7C66.4964 81.6265 66.4381 81.5682 66.3646 81.5252C66.2929 81.4803 66.2131 81.4579 66.1252 81.4579C66.0391 81.4579 65.9593 81.4803 65.8858 81.5252C65.8141 81.5682 65.7558 81.6265 65.711 81.7C65.668 81.7735 65.6464 81.8533 65.6464 81.9394C65.6464 82.0254 65.668 82.1052 65.711 82.1788C65.7558 82.2523 65.8141 82.3114 65.8858 82.3563C65.9593 82.3993 66.0391 82.4208 66.1252 82.4208ZM63.8632 80.8097C63.6857 80.8097 63.5234 80.7667 63.3764 80.6806C63.2293 80.5928 63.1119 80.4762 63.024 80.331C62.938 80.1839 62.8949 80.0208 62.8949 79.8414C62.8949 79.6657 62.9398 79.5043 63.0294 79.3573C63.1191 79.2103 63.2374 79.0928 63.3844 79.005C63.5315 78.9171 63.6911 78.8732 63.8632 78.8732C64.0407 78.8732 64.2021 78.9171 64.3473 79.005C64.4944 79.091 64.6118 79.2076 64.6997 79.3546C64.7875 79.4999 64.8315 79.6621 64.8315 79.8414C64.8315 80.0208 64.7875 80.1839 64.6997 80.331C64.6118 80.4762 64.4944 80.5928 64.3473 80.6806C64.2021 80.7667 64.0407 80.8097 63.8632 80.8097ZM63.8632 80.3229C63.9493 80.3229 64.0291 80.3014 64.1026 80.2583C64.1761 80.2135 64.2344 80.1543 64.2774 80.0808C64.3222 80.0073 64.3446 79.9275 64.3446 79.8414C64.3446 79.7554 64.3222 79.6756 64.2774 79.6021C64.2344 79.5286 64.1761 79.4703 64.1026 79.4272C64.0291 79.3824 63.9493 79.36 63.8632 79.36C63.7771 79.36 63.6973 79.3824 63.6238 79.4272C63.5521 79.4703 63.4938 79.5286 63.449 79.6021C63.4042 79.6756 63.3818 79.7554 63.3818 79.8414C63.3818 79.9275 63.4042 80.0073 63.449 80.0808C63.4938 80.1543 63.5521 80.2135 63.6238 80.2583C63.6955 80.3014 63.7753 80.3229 63.8632 80.3229Z" fill="black"/>
<path d="M75.9722 82.1088V81.1137H74.9771V80.6618H75.9722V79.672H76.4241V80.6618H77.4166V81.1137H76.4241V82.1088H75.9722ZM79.1269 83.3622V82.7328H79.689V83.3622H79.1269ZM79.1269 79.0507V78.4186H79.689V79.0507H79.1269ZM79.4362 82.9077C79.1672 82.9077 78.927 82.8592 78.7154 82.7624C78.5038 82.6656 78.3298 82.5284 78.1936 82.3509C78.0591 82.1716 77.9712 81.96 77.93 81.7161L78.4867 81.6274C78.5405 81.8569 78.6553 82.0398 78.831 82.1761C79.0067 82.3106 79.2174 82.3778 79.4631 82.3778C79.707 82.3778 79.9051 82.3195 80.0575 82.203C80.2117 82.0864 80.2888 81.9376 80.2888 81.7565C80.2888 81.6274 80.2494 81.5225 80.1705 81.4418C80.0934 81.3611 79.967 81.293 79.7912 81.2374L78.8821 80.9577C78.3442 80.7909 78.0752 80.4681 78.0752 79.9894C78.0752 79.7634 78.129 79.5671 78.2366 79.4003C78.346 79.2336 78.4993 79.1045 78.6965 79.013C78.8938 78.9216 79.1242 78.8759 79.3878 78.8759C79.6406 78.8794 79.8647 78.9261 80.0602 79.0157C80.2574 79.1054 80.4206 79.2345 80.5497 79.403C80.6806 79.5716 80.7712 79.7742 80.8214 80.0109L80.2485 80.1131C80.2234 79.975 80.1705 79.8531 80.0898 79.7473C80.0109 79.6415 79.9105 79.559 79.7885 79.4999C79.6684 79.4407 79.533 79.4102 79.3824 79.4084C79.2407 79.4048 79.1134 79.4272 79.0005 79.4757C78.8893 79.5223 78.8005 79.5886 78.7342 79.6747C78.6696 79.759 78.6374 79.8549 78.6374 79.9625C78.6374 80.0808 78.6831 80.1812 78.7745 80.2637C78.866 80.3462 79.0103 80.417 79.2076 80.4762L79.9203 80.6833C80.2467 80.7801 80.4825 80.9101 80.6277 81.0733C80.773 81.2365 80.8456 81.4534 80.8456 81.7242C80.8456 81.9609 80.7864 82.168 80.6681 82.3455C80.5515 82.5212 80.3874 82.6593 80.1758 82.7597C79.9643 82.8583 79.7177 82.9077 79.4362 82.9077ZM81.3078 82.8243L81.3105 82.324L82.9969 80.8124C83.1332 80.6923 83.2256 80.5775 83.274 80.4681C83.3242 80.3588 83.3493 80.2494 83.3493 80.14C83.3493 80.0019 83.3188 79.8782 83.2578 79.7688C83.1969 79.6577 83.1126 79.5698 83.005 79.5052C82.8974 79.4407 82.7737 79.4084 82.6338 79.4084C82.4904 79.4084 82.3622 79.4425 82.2492 79.5106C82.138 79.577 82.0511 79.6657 81.9883 79.7769C81.9256 79.8881 81.8951 80.0082 81.8969 80.1373H81.3213C81.3213 79.8863 81.3778 79.6666 81.4907 79.4783C81.6055 79.2883 81.7624 79.1403 81.9614 79.0346C82.1605 78.927 82.3882 78.8732 82.6446 78.8732C82.8885 78.8732 83.1072 78.9288 83.3009 79.0399C83.4945 79.1493 83.6469 79.2999 83.7581 79.4918C83.8711 79.6837 83.9276 79.9024 83.9276 80.1481C83.9276 80.3256 83.9043 80.4762 83.8576 80.5999C83.811 80.7237 83.7411 80.8384 83.6478 80.9442C83.5546 81.05 83.438 81.1648 83.2982 81.2885L81.9964 82.4504L81.9345 82.289H83.9276V82.8243H81.3078ZM85.2434 82.827V79.5725L84.5145 80.0163V79.3896L85.2434 78.9539H85.8163V82.827H85.2434ZM88.4741 82.827V82.1519H86.7258V81.6193L87.9846 78.9539H88.6274L87.3686 81.6193H88.4741V80.5703H89.0443V81.6193H89.4289V82.1519H89.0443V82.827H88.4741ZM89.9115 83.4698L89.9465 83.2197C90.0236 83.225 90.0836 83.2107 90.1267 83.1766C90.1697 83.1426 90.1984 83.095 90.2127 83.0341C90.2271 82.9731 90.2298 82.9041 90.2208 82.827H89.9115V82.1788H90.5059V82.8808C90.5059 83.0923 90.4548 83.2519 90.3526 83.3595C90.2522 83.4671 90.1051 83.5039 89.9115 83.4698ZM92.6697 82.9077C92.4706 82.9077 92.2851 82.8673 92.1129 82.7866C91.9426 82.7041 91.7964 82.5912 91.6745 82.4477C91.5526 82.3025 91.4656 82.1357 91.4136 81.9474L91.9542 81.8022C91.9847 81.917 92.0367 82.0165 92.1102 82.1008C92.1855 82.185 92.2734 82.2505 92.3738 82.2971C92.4742 82.3419 92.5782 82.3643 92.6858 82.3643C92.8275 82.3643 92.9557 82.3303 93.0704 82.2621C93.187 82.194 93.2784 82.1026 93.3448 81.9878C93.4129 81.873 93.447 81.7466 93.447 81.6086C93.447 81.4669 93.412 81.3387 93.3421 81.2239C93.274 81.1092 93.1816 81.0186 93.0651 80.9523C92.9503 80.8841 92.8239 80.8501 92.6858 80.8501C92.528 80.8501 92.3944 80.8814 92.2851 80.9442C92.1757 81.007 92.0905 81.0796 92.0295 81.1621L91.54 80.9899L91.6584 78.9539H93.7482V79.4837H91.9462L92.1748 79.2712L92.0806 80.7963L91.9704 80.6537C92.0726 80.5515 92.1945 80.4735 92.3362 80.4197C92.4778 80.3659 92.6186 80.339 92.7584 80.339C92.9987 80.339 93.213 80.3946 93.4013 80.5058C93.5913 80.617 93.7411 80.7685 93.8504 80.9603C93.9598 81.1504 94.0145 81.3665 94.0145 81.6086C94.0145 81.8488 93.9526 82.0676 93.8289 82.2648C93.7052 82.4603 93.5411 82.6163 93.3367 82.7328C93.1323 82.8494 92.91 82.9077 92.6697 82.9077ZM96.0033 82.9077C95.7397 82.9077 95.5066 82.8503 95.304 82.7355C95.1013 82.619 94.9418 82.4594 94.8252 82.2568C94.7104 82.0541 94.6531 81.821 94.6531 81.5574V80.2234C94.6531 79.9598 94.7104 79.7267 94.8252 79.5241C94.9418 79.3214 95.1013 79.1628 95.304 79.048C95.5066 78.9314 95.7397 78.8732 96.0033 78.8732C96.2669 78.8732 96.5 78.9314 96.7026 79.048C96.9052 79.1628 97.0639 79.3214 97.1787 79.5241C97.2952 79.7267 97.3535 79.9598 97.3535 80.2234V81.5574C97.3535 81.821 97.2952 82.0541 97.1787 82.2568C97.0639 82.4594 96.9052 82.619 96.7026 82.7355C96.5 82.8503 96.2669 82.9077 96.0033 82.9077ZM96.0033 82.3697C96.1467 82.3697 96.2767 82.3357 96.3933 82.2675C96.5116 82.1976 96.6058 82.1043 96.6757 81.9878C96.7456 81.8694 96.7806 81.7377 96.7806 81.5924V80.183C96.7806 80.0396 96.7456 79.9096 96.6757 79.793C96.6058 79.6747 96.5116 79.5814 96.3933 79.5133C96.2767 79.4434 96.1467 79.4084 96.0033 79.4084C95.8598 79.4084 95.7289 79.4434 95.6106 79.5133C95.494 79.5814 95.4008 79.6747 95.3309 79.793C95.2609 79.9096 95.226 80.0396 95.226 80.183V81.5924C95.226 81.7377 95.2609 81.8694 95.3309 81.9878C95.4008 82.1043 95.494 82.1976 95.6106 82.2675C95.7289 82.3357 95.8598 82.3697 96.0033 82.3697Z" fill="black"/>
<path d="M51.4731 69.9443V68.2659H52.9722V69.9443H51.4731ZM51.4731 58.4469V56.7614H52.9722V58.4469H51.4731ZM52.298 68.7321C51.5807 68.7321 50.94 68.603 50.3757 68.3448C49.8115 68.0866 49.3477 67.7208 48.9843 67.2475C48.6257 66.7693 48.3914 66.2051 48.2814 65.5548L49.7661 65.3181C49.9095 65.9301 50.2156 66.4178 50.6842 66.7812C51.1528 67.1399 51.7146 67.3192 52.3697 67.3192C53.02 67.3192 53.5483 67.1638 53.9548 66.853C54.366 66.5422 54.5716 66.1453 54.5716 65.6623C54.5716 65.3181 54.4664 65.0383 54.256 64.8232C54.0504 64.608 53.7133 64.4263 53.2447 64.2781L50.8204 63.5321C49.386 63.0875 48.6687 62.2268 48.6687 60.9501C48.6687 60.3476 48.8122 59.824 49.0991 59.3793C49.3907 58.9346 49.7996 58.5903 50.3255 58.3465C50.8515 58.1026 51.466 57.9807 52.1688 57.9807C52.8431 57.9903 53.4408 58.1146 53.962 58.3537C54.4879 58.5927 54.9231 58.937 55.2673 59.3865C55.6164 59.836 55.8579 60.3763 55.9917 61.0075L54.464 61.28C54.3971 60.9118 54.256 60.5867 54.0408 60.3046C53.8305 60.0224 53.5627 59.8025 53.2375 59.6447C52.9172 59.4869 52.5562 59.4056 52.1545 59.4008C51.7768 59.3913 51.4373 59.451 51.136 59.5801C50.8396 59.7045 50.6029 59.8814 50.426 60.1109C50.2538 60.3356 50.1677 60.5915 50.1677 60.8783C50.1677 61.1939 50.2897 61.4617 50.5335 61.6817C50.7774 61.9016 51.1623 62.0905 51.6883 62.2483L53.589 62.8006C54.4592 63.0588 55.088 63.4054 55.4753 63.8406C55.8626 64.2757 56.0563 64.8543 56.0563 65.5763C56.0563 66.2075 55.8985 66.7597 55.5829 67.2331C55.2721 67.7017 54.8346 68.0699 54.2704 68.3377C53.7061 68.6006 53.0487 68.7321 52.298 68.7321ZM57.3005 68.5098L57.3077 67.1757L61.8048 63.1448C62.1682 62.8245 62.4144 62.5184 62.5435 62.2268C62.6774 61.9351 62.7443 61.6434 62.7443 61.3517C62.7443 60.9835 62.6631 60.6536 62.5005 60.3619C62.3379 60.0655 62.1132 59.8312 61.8263 59.659C61.5394 59.4869 61.2095 59.4008 60.8365 59.4008C60.454 59.4008 60.1121 59.4917 59.8108 59.6734C59.5144 59.8503 59.2825 60.087 59.1151 60.3835C58.9477 60.6799 58.8665 61.0003 58.8712 61.3446H57.3363C57.3363 60.6751 57.487 60.0894 57.7882 59.5873C58.0942 59.0805 58.5126 58.686 59.0434 58.4039C59.5741 58.117 60.1814 57.9735 60.8652 57.9735C61.5155 57.9735 62.0988 58.1217 62.6152 58.4182C63.1317 58.7099 63.5381 59.1115 63.8346 59.6232C64.1358 60.1348 64.2864 60.7182 64.2864 61.3732C64.2864 61.8466 64.2243 62.2483 64.0999 62.5782C63.9756 62.9081 63.7891 63.2142 63.5405 63.4963C63.2918 63.7784 62.981 64.0844 62.6081 64.4143L59.1366 67.5128L58.9717 67.0825H64.2864V68.5098H57.3005ZM67.8068 68.517V59.8383L65.8631 61.0218V59.3506L67.8068 58.1887H69.3346V68.517H67.8068ZM76.4335 68.517V66.7167H71.7714V65.2966L75.1281 58.1887H76.8423L73.4856 65.2966H76.4335V62.4993H77.954V65.2966H78.9797V66.7167H77.954V68.517H76.4335ZM80.278 70.2312L80.3712 69.5641C80.5768 69.5785 80.737 69.5402 80.8518 69.4494C80.9665 69.3585 81.043 69.2318 81.0813 69.0692C81.1195 68.9067 81.1267 68.7226 81.1028 68.517H80.278V66.7884H81.8631V68.6604C81.8631 69.2246 81.7268 69.6502 81.4543 69.9371C81.1865 70.224 80.7944 70.322 80.278 70.2312ZM87.6446 68.7321C87.1139 68.7321 86.619 68.6246 86.1599 68.4094C85.7057 68.1894 85.316 67.8882 84.9908 67.5057C84.6657 67.1183 84.4338 66.6737 84.2951 66.1716L85.7368 65.7843C85.818 66.0903 85.9567 66.3557 86.1528 66.5804C86.3536 66.8052 86.5879 66.9797 86.8556 67.104C87.1234 67.2235 87.4008 67.2833 87.6876 67.2833C88.0654 67.2833 88.4073 67.1925 88.7133 67.0108C89.0241 66.8291 89.268 66.5852 89.4449 66.2792C89.6266 65.9732 89.7174 65.636 89.7174 65.2679C89.7174 64.8901 89.6242 64.5482 89.4377 64.2422C89.256 63.9362 89.0098 63.6947 88.699 63.5178C88.3929 63.3361 88.0558 63.2452 87.6876 63.2452C87.2669 63.2452 86.9106 63.3289 86.619 63.4963C86.3273 63.6636 86.1002 63.8573 85.9376 64.0772L84.6322 63.6182L84.9478 58.1887H90.5208V59.6017H85.7152L86.3249 59.035L86.0739 63.1018L85.7798 62.7217C86.0523 62.4491 86.3775 62.2411 86.7552 62.0977C87.133 61.9542 87.5083 61.8825 87.8813 61.8825C88.522 61.8825 89.0934 62.0307 89.5955 62.3272C90.1024 62.6236 90.5016 63.0277 90.7933 63.5393C91.085 64.0462 91.2308 64.6223 91.2308 65.2679C91.2308 65.9086 91.0659 66.492 90.7359 67.0179C90.406 67.5391 89.9685 67.9551 89.4234 68.2659C88.8783 68.5767 88.2853 68.7321 87.6446 68.7321ZM96.4955 68.7321C95.8261 68.7321 95.2236 68.5743 94.688 68.2588C94.1525 67.9384 93.7269 67.5009 93.4113 66.9462C93.1005 66.3915 92.9451 65.7604 92.9451 65.0527V61.7606C92.9451 61.0098 93.1005 60.35 93.4113 59.781C93.7269 59.212 94.1621 58.7697 94.7167 58.4541C95.2762 58.1385 95.9193 57.9807 96.6461 57.9807C97.1912 57.9807 97.7028 58.0835 98.181 58.2891C98.6592 58.4947 99.0728 58.8007 99.4218 59.2072L98.3245 60.2328C98.1284 59.9794 97.8822 59.7786 97.5857 59.6303C97.294 59.4773 96.9808 59.4008 96.6461 59.4008C96.2158 59.4008 95.838 59.5036 95.5129 59.7092C95.1877 59.9101 94.9319 60.1755 94.7454 60.5054C94.5637 60.8353 94.4729 61.1892 94.4729 61.5669V63.4604L94.1788 63.1305C94.4753 62.7432 94.8434 62.4372 95.2833 62.2124C95.7233 61.9877 96.1942 61.8753 96.6963 61.8753C97.337 61.8753 97.9085 62.0259 98.4105 62.3272C98.9174 62.6236 99.3142 63.0277 99.6011 63.5393C99.8928 64.0509 100.039 64.6271 100.039 65.2679C100.039 65.9134 99.8761 66.4991 99.5509 67.0251C99.2306 67.5463 98.8002 67.9623 98.2599 68.2731C97.7244 68.5791 97.1362 68.7321 96.4955 68.7321ZM96.4955 67.2905C96.8685 67.2905 97.2079 67.1996 97.514 67.0179C97.82 66.8362 98.0639 66.5924 98.2456 66.2863C98.4273 65.9803 98.5181 65.6408 98.5181 65.2679C98.5181 64.8949 98.4273 64.5554 98.2456 64.2494C98.0686 63.9434 97.8272 63.6995 97.5211 63.5178C97.2151 63.3361 96.8756 63.2452 96.5027 63.2452C96.1297 63.2452 95.7878 63.3361 95.477 63.5178C95.171 63.6995 94.9271 63.9434 94.7454 64.2494C94.5637 64.5554 94.4729 64.8949 94.4729 65.2679C94.4729 65.636 94.5637 65.9732 94.7454 66.2792C94.9271 66.5852 95.171 66.8315 95.477 67.0179C95.783 67.1996 96.1225 67.2905 96.4955 67.2905ZM101.568 68.5098L101.575 67.1757L106.072 63.1448C106.435 62.8245 106.682 62.5184 106.811 62.2268C106.945 61.9351 107.012 61.6434 107.012 61.3517C107.012 60.9835 106.93 60.6536 106.768 60.3619C106.605 60.0655 106.38 59.8312 106.094 59.659C105.807 59.4869 105.477 59.4008 105.104 59.4008C104.721 59.4008 104.379 59.4917 104.078 59.6734C103.782 59.8503 103.55 60.087 103.382 60.3835C103.215 60.6799 103.134 61.0003 103.138 61.3446H101.604C101.604 60.6751 101.754 60.0894 102.055 59.5873C102.361 59.0805 102.78 58.686 103.311 58.4039C103.841 58.117 104.449 57.9735 105.132 57.9735C105.783 57.9735 106.366 58.1217 106.882 58.4182C107.399 58.7099 107.805 59.1115 108.102 59.6232C108.403 60.1348 108.554 60.7182 108.554 61.3732C108.554 61.8466 108.491 62.2483 108.367 62.5782C108.243 62.9081 108.056 63.2142 107.808 63.4963C107.559 63.7784 107.248 64.0844 106.875 64.4143L103.404 67.5128L103.239 67.0825H108.554V68.5098H101.568ZM110.532 68.517V66.9319H112.117V68.517H110.532ZM117.685 68.7321C117.011 68.7321 116.413 68.5983 115.892 68.3305C115.375 68.0579 114.969 67.6802 114.672 67.1972C114.381 66.7143 114.235 66.1549 114.235 65.5189C114.235 64.926 114.374 64.3833 114.651 63.8908C114.928 63.3983 115.342 63.0109 115.892 62.7288L115.863 63.2452C115.423 62.9727 115.084 62.6332 114.845 62.2268C114.61 61.8155 114.493 61.3565 114.493 60.8497C114.493 60.2615 114.629 59.7523 114.902 59.3219C115.174 58.8916 115.55 58.5593 116.028 58.325C116.511 58.0907 117.063 57.9735 117.685 57.9735C118.306 57.9735 118.856 58.0907 119.334 58.325C119.813 58.5593 120.188 58.8916 120.461 59.3219C120.733 59.7523 120.869 60.2615 120.869 60.8497C120.869 61.3565 120.757 61.8132 120.532 62.2196C120.308 62.626 119.963 62.9679 119.499 63.2452L119.478 62.7432C120.023 63.0109 120.437 63.3935 120.719 63.8908C121.001 64.3833 121.142 64.926 121.142 65.5189C121.142 66.1549 120.994 66.7143 120.697 67.1972C120.401 67.6802 119.992 68.0579 119.471 68.3305C118.95 68.5983 118.354 68.7321 117.685 68.7321ZM117.685 67.3048C118.239 67.3048 118.689 67.1542 119.033 66.853C119.378 66.5469 119.55 66.1023 119.55 65.5189C119.55 64.9355 119.378 64.4909 119.033 64.1848C118.694 63.874 118.244 63.7186 117.685 63.7186C117.125 63.7186 116.674 63.874 116.329 64.1848C115.99 64.4909 115.82 64.9355 115.82 65.5189C115.82 66.1023 115.992 66.5469 116.336 66.853C116.681 67.1542 117.13 67.3048 117.685 67.3048ZM117.685 62.2841C118.158 62.2841 118.541 62.167 118.832 61.9327C119.129 61.6936 119.277 61.3326 119.277 60.8497C119.277 60.3667 119.129 60.0057 118.832 59.7666C118.541 59.5228 118.158 59.4008 117.685 59.4008C117.211 59.4008 116.827 59.5228 116.53 59.7666C116.234 60.0057 116.085 60.3667 116.085 60.8497C116.085 61.3326 116.234 61.6936 116.53 61.9327C116.827 62.167 117.211 62.2841 117.685 62.2841ZM122.721 68.5098L122.728 67.1757L127.225 63.1448C127.588 62.8245 127.835 62.5184 127.964 62.2268C128.098 61.9351 128.165 61.6434 128.165 61.3517C128.165 60.9835 128.083 60.6536 127.921 60.3619C127.758 60.0655 127.533 59.8312 127.247 59.659C126.96 59.4869 126.63 59.4008 126.257 59.4008C125.874 59.4008 125.532 59.4917 125.231 59.6734C124.935 59.8503 124.703 60.087 124.535 60.3835C124.368 60.6799 124.287 61.0003 124.291 61.3446H122.757C122.757 60.6751 122.907 60.0894 123.208 59.5873C123.514 59.0805 123.933 58.686 124.464 58.4039C124.994 58.117 125.602 57.9735 126.285 57.9735C126.936 57.9735 127.519 58.1217 128.035 58.4182C128.552 58.7099 128.958 59.1115 129.255 59.6232C129.556 60.1348 129.707 60.7182 129.707 61.3732C129.707 61.8466 129.645 62.2483 129.52 62.5782C129.396 62.9081 129.209 63.2142 128.961 63.4963C128.712 63.7784 128.401 64.0844 128.028 64.4143L124.557 67.5128L124.392 67.0825H129.707V68.5098H122.721Z" fill="black"/>
</g>
</g>
<defs>
<linearGradient id="paint0_linear_1633_8071" x1="121.052" y1="-7" x2="121.052" y2="145.414" gradientUnits="userSpaceOnUse">
<stop stop-color="#FDC87A"/>
<stop offset="1" stop-color="#FFE7C4"/>
</linearGradient>
<clipPath id="clip0_1633_8071">
<rect width="243" height="132" rx="5" fill="white"/>
</clipPath>
<clipPath id="clip1_1633_8071">
<rect width="168.103" height="364" fill="white" transform="translate(37 -7)"/>
</clipPath>
</defs>
</svg>
