<svg width="243" height="132" viewBox="0 0 243 132" fill="none" xmlns="http://www.w3.org/2000/svg">
<g clip-path="url(#clip0_1633_8622)">
<rect width="243" height="132" rx="5" fill="#F4F4F4"/>
<path d="M30.2457 20.7818V33H28.277L22.5199 24.6776H22.4185V33H20.2051V20.7818H22.1858L27.9369 29.1102H28.0443V20.7818H30.2457ZM36.6188 33.179C35.7001 33.179 34.9066 32.9881 34.2384 32.6063C33.5742 32.2205 33.0631 31.6756 32.7052 30.9716C32.3472 30.2636 32.1683 29.4304 32.1683 28.4719C32.1683 27.5293 32.3472 26.702 32.7052 25.9901C33.0671 25.2741 33.5722 24.7173 34.2205 24.3196C34.8688 23.9179 35.6305 23.717 36.5055 23.717C37.0702 23.717 37.6032 23.8085 38.1043 23.9915C38.6094 24.1705 39.0549 24.4489 39.4407 24.8267C39.8305 25.2045 40.1367 25.6858 40.3594 26.2705C40.5822 26.8511 40.6935 27.5432 40.6935 28.3466V29.0088H33.1825V27.5531H38.6234C38.6194 27.1395 38.5299 26.7716 38.3549 26.4494C38.1799 26.1233 37.9353 25.8668 37.6211 25.6798C37.3109 25.4929 36.9489 25.3994 36.5353 25.3994C36.0938 25.3994 35.706 25.5068 35.3719 25.7216C35.0379 25.9324 34.7773 26.2108 34.5904 26.5568C34.4075 26.8989 34.314 27.2747 34.31 27.6844V28.9551C34.31 29.4881 34.4075 29.9455 34.6023 30.3273C34.7972 30.7051 35.0697 30.9955 35.4197 31.1983C35.7697 31.3972 36.1793 31.4966 36.6486 31.4966C36.9629 31.4966 37.2472 31.4528 37.5018 31.3653C37.7563 31.2739 37.9771 31.1406 38.164 30.9656C38.3509 30.7906 38.4921 30.5739 38.5876 30.3153L40.604 30.542C40.4768 31.075 40.2342 31.5403 39.8762 31.9381C39.5222 32.3318 39.0688 32.6381 38.516 32.8568C37.9631 33.0716 37.3308 33.179 36.6188 33.179ZM46.5058 36.6273C45.7303 36.6273 45.0641 36.5219 44.5072 36.3111C43.9504 36.1043 43.503 35.8259 43.1649 35.4759C42.8268 35.1259 42.5922 34.7381 42.4609 34.3125L44.4058 33.8412C44.4933 34.0202 44.6206 34.1972 44.7876 34.3722C44.9547 34.5511 45.1794 34.6983 45.4618 34.8136C45.7482 34.933 46.1081 34.9926 46.5416 34.9926C47.1541 34.9926 47.6612 34.8435 48.0629 34.5452C48.4646 34.2509 48.6655 33.7656 48.6655 33.0895V31.3534H48.5581C48.4467 31.5761 48.2837 31.8048 48.0689 32.0395C47.8581 32.2741 47.5777 32.471 47.2277 32.6301C46.8817 32.7892 46.4462 32.8688 45.9212 32.8688C45.2172 32.8688 44.5788 32.7037 44.0061 32.3736C43.4374 32.0395 42.9839 31.5423 42.6459 30.8821C42.3118 30.2179 42.1447 29.3866 42.1447 28.3884C42.1447 27.3821 42.3118 26.533 42.6459 25.8409C42.9839 25.1449 43.4393 24.6179 44.0121 24.2599C44.5848 23.898 45.2232 23.717 45.9271 23.717C46.4641 23.717 46.9055 23.8085 47.2516 23.9915C47.6016 24.1705 47.88 24.3872 48.0868 24.6418C48.2936 24.8923 48.4507 25.129 48.5581 25.3517H48.6774V23.8364H50.8072V33.1491C50.8072 33.9327 50.6203 34.581 50.2464 35.094C49.8726 35.6071 49.3615 35.9909 48.7132 36.2455C48.0649 36.5 47.3291 36.6273 46.5058 36.6273ZM46.5237 31.1744C46.9811 31.1744 47.3709 31.0631 47.693 30.8403C48.0152 30.6176 48.2598 30.2974 48.4268 29.8798C48.5939 29.4622 48.6774 28.9611 48.6774 28.3764C48.6774 27.7997 48.5939 27.2946 48.4268 26.8611C48.2638 26.4276 48.0212 26.0915 47.699 25.8528C47.3808 25.6102 46.9891 25.4889 46.5237 25.4889C46.0425 25.4889 45.6408 25.6142 45.3186 25.8648C44.9964 26.1153 44.7538 26.4594 44.5908 26.8969C44.4277 27.3304 44.3462 27.8236 44.3462 28.3764C44.3462 28.9372 44.4277 29.4284 44.5908 29.85C44.7578 30.2676 45.0024 30.5937 45.3246 30.8284C45.6507 31.0591 46.0504 31.1744 46.5237 31.1744ZM57.0178 33.179C56.1229 33.179 55.3473 32.9821 54.691 32.5884C54.0348 32.1946 53.5257 31.6438 53.1638 30.9358C52.8058 30.2278 52.6268 29.4006 52.6268 28.454C52.6268 27.5074 52.8058 26.6781 53.1638 25.9662C53.5257 25.2543 54.0348 24.7014 54.691 24.3077C55.3473 23.9139 56.1229 23.717 57.0178 23.717C57.9126 23.717 58.6882 23.9139 59.3445 24.3077C60.0007 24.7014 60.5078 25.2543 60.8658 25.9662C61.2277 26.6781 61.4087 27.5074 61.4087 28.454C61.4087 29.4006 61.2277 30.2278 60.8658 30.9358C60.5078 31.6438 60.0007 32.1946 59.3445 32.5884C58.6882 32.9821 57.9126 33.179 57.0178 33.179ZM57.0297 31.4489C57.5149 31.4489 57.9206 31.3156 58.2467 31.0491C58.5729 30.7787 58.8155 30.4168 58.9746 29.9634C59.1376 29.5099 59.2192 29.0048 59.2192 28.448C59.2192 27.8872 59.1376 27.3801 58.9746 26.9267C58.8155 26.4693 58.5729 26.1054 58.2467 25.8349C57.9206 25.5645 57.5149 25.4293 57.0297 25.4293C56.5325 25.4293 56.1189 25.5645 55.7888 25.8349C55.4626 26.1054 55.218 26.4693 55.055 26.9267C54.8959 27.3801 54.8163 27.8872 54.8163 28.448C54.8163 29.0048 54.8959 29.5099 55.055 29.9634C55.218 30.4168 55.4626 30.7787 55.7888 31.0491C56.1189 31.3156 56.5325 31.4489 57.0297 31.4489ZM67.2388 33.179C66.3241 33.179 65.5386 32.9781 64.8823 32.5764C64.23 32.1747 63.7269 31.6199 63.3729 30.9119C63.0229 30.2 62.8479 29.3807 62.8479 28.454C62.8479 27.5233 63.0269 26.702 63.3849 25.9901C63.7428 25.2741 64.2479 24.7173 64.9002 24.3196C65.5565 23.9179 66.332 23.717 67.2269 23.717C67.9707 23.717 68.6289 23.8543 69.2016 24.1287C69.7783 24.3991 70.2377 24.783 70.5798 25.2801C70.9218 25.7733 71.1167 26.35 71.1644 27.0102H69.1002C69.0167 26.5688 68.8178 26.2009 68.5036 25.9065C68.1934 25.6082 67.7778 25.4591 67.2567 25.4591C66.8153 25.4591 66.4275 25.5784 66.0934 25.817C65.7593 26.0517 65.4988 26.3898 65.3119 26.8313C65.1289 27.2727 65.0374 27.8017 65.0374 28.4182C65.0374 29.0426 65.1289 29.5795 65.3119 30.029C65.4948 30.4744 65.7513 30.8185 66.0815 31.0611C66.4156 31.2997 66.8073 31.419 67.2567 31.419C67.5749 31.419 67.8593 31.3594 68.1099 31.2401C68.3644 31.1168 68.5772 30.9398 68.7482 30.7091C68.9192 30.4784 69.0366 30.198 69.1002 29.8679H71.1644C71.1127 30.5162 70.9218 31.0909 70.5917 31.592C70.2616 32.0892 69.8121 32.479 69.2434 32.7614C68.6746 33.0398 68.0065 33.179 67.2388 33.179ZM72.9378 33V23.8364H75.0974V33H72.9378ZM74.0236 22.5358C73.6815 22.5358 73.3872 22.4224 73.1406 22.1957C72.894 21.9651 72.7707 21.6886 72.7707 21.3665C72.7707 21.0403 72.894 20.7639 73.1406 20.5372C73.3872 20.3065 73.6815 20.1912 74.0236 20.1912C74.3696 20.1912 74.6639 20.3065 74.9065 20.5372C75.1531 20.7639 75.2764 21.0403 75.2764 21.3665C75.2764 21.6886 75.1531 21.9651 74.9065 22.1957C74.6639 22.4224 74.3696 22.5358 74.0236 22.5358ZM81.3154 33.179C80.4205 33.179 79.645 32.9821 78.9887 32.5884C78.3325 32.1946 77.8234 31.6438 77.4614 30.9358C77.1035 30.2278 76.9245 29.4006 76.9245 28.454C76.9245 27.5074 77.1035 26.6781 77.4614 25.9662C77.8234 25.2543 78.3325 24.7014 78.9887 24.3077C79.645 23.9139 80.4205 23.717 81.3154 23.717C82.2103 23.717 82.9859 23.9139 83.6421 24.3077C84.2984 24.7014 84.8055 25.2543 85.1634 25.9662C85.5254 26.6781 85.7063 27.5074 85.7063 28.454C85.7063 29.4006 85.5254 30.2278 85.1634 30.9358C84.8055 31.6438 84.2984 32.1946 83.6421 32.5884C82.9859 32.9821 82.2103 33.179 81.3154 33.179ZM81.3273 31.4489C81.8126 31.4489 82.2183 31.3156 82.5444 31.0491C82.8705 30.7787 83.1131 30.4168 83.2722 29.9634C83.4353 29.5099 83.5168 29.0048 83.5168 28.448C83.5168 27.8872 83.4353 27.3801 83.2722 26.9267C83.1131 26.4693 82.8705 26.1054 82.5444 25.8349C82.2183 25.5645 81.8126 25.4293 81.3273 25.4293C80.8302 25.4293 80.4165 25.5645 80.0864 25.8349C79.7603 26.1054 79.5157 26.4693 79.3526 26.9267C79.1935 27.3801 79.114 27.8872 79.114 28.448C79.114 29.0048 79.1935 29.5099 79.3526 29.9634C79.5157 30.4168 79.7603 30.7787 80.0864 31.0491C80.4165 31.3156 80.8302 31.4489 81.3273 31.4489ZM94.782 26.2585L92.8132 26.4733C92.7575 26.2744 92.6601 26.0875 92.5209 25.9125C92.3857 25.7375 92.2027 25.5963 91.972 25.4889C91.7413 25.3815 91.4589 25.3278 91.1249 25.3278C90.6754 25.3278 90.2976 25.4253 89.9913 25.6202C89.6891 25.8151 89.5399 26.0676 89.5439 26.3778C89.5399 26.6443 89.6374 26.8611 89.8362 27.0281C90.0391 27.1952 90.3732 27.3324 90.8385 27.4398L92.4016 27.7739C93.2686 27.9608 93.9129 28.2571 94.3345 28.6628C94.7601 29.0685 94.9749 29.5994 94.9788 30.2557C94.9749 30.8324 94.8058 31.3415 94.4717 31.783C94.1416 32.2205 93.6822 32.5625 93.0936 32.8091C92.505 33.0557 91.8288 33.179 91.0652 33.179C89.9436 33.179 89.0408 32.9443 88.3567 32.475C87.6726 32.0017 87.2649 31.3435 87.1337 30.5003L89.2396 30.2974C89.3351 30.7111 89.5379 31.0233 89.8482 31.2341C90.1584 31.4449 90.5621 31.5503 91.0592 31.5503C91.5723 31.5503 91.9839 31.4449 92.2942 31.2341C92.6084 31.0233 92.7655 30.7628 92.7655 30.4526C92.7655 30.1901 92.6641 29.9733 92.4612 29.8023C92.2624 29.6313 91.9521 29.5 91.5305 29.4085L89.9675 29.0804C89.0885 28.8974 88.4382 28.5892 88.0166 28.1557C87.595 27.7182 87.3862 27.1653 87.3902 26.4972C87.3862 25.9324 87.5393 25.4432 87.8496 25.0295C88.1638 24.6119 88.5993 24.2898 89.1561 24.0631C89.7169 23.8324 90.3632 23.717 91.095 23.717C92.1689 23.717 93.0141 23.9457 93.6305 24.4031C94.251 24.8605 94.6348 25.479 94.782 26.2585ZM104.912 36.6273C104.137 36.6273 103.47 36.5219 102.913 36.3111C102.357 36.1043 101.909 35.8259 101.571 35.4759C101.233 35.1259 100.998 34.7381 100.867 34.3125L102.812 33.8412C102.9 34.0202 103.027 34.1972 103.194 34.3722C103.361 34.5511 103.586 34.6983 103.868 34.8136C104.154 34.933 104.514 34.9926 104.948 34.9926C105.56 34.9926 106.067 34.8435 106.469 34.5452C106.871 34.2509 107.072 33.7656 107.072 33.0895V31.3534H106.964C106.853 31.5761 106.69 31.8048 106.475 32.0395C106.264 32.2741 105.984 32.471 105.634 32.6301C105.288 32.7892 104.852 32.8688 104.327 32.8688C103.623 32.8688 102.985 32.7037 102.412 32.3736C101.844 32.0395 101.39 31.5423 101.052 30.8821C100.718 30.2179 100.551 29.3866 100.551 28.3884C100.551 27.3821 100.718 26.533 101.052 25.8409C101.39 25.1449 101.846 24.6179 102.418 24.2599C102.991 23.898 103.629 23.717 104.333 23.717C104.87 23.717 105.312 23.8085 105.658 23.9915C106.008 24.1705 106.286 24.3872 106.493 24.6418C106.7 24.8923 106.857 25.129 106.964 25.3517H107.084V23.8364H109.213V33.1491C109.213 33.9327 109.027 34.581 108.653 35.094C108.279 35.6071 107.768 35.9909 107.119 36.2455C106.471 36.5 105.735 36.6273 104.912 36.6273ZM104.93 31.1744C105.387 31.1744 105.777 31.0631 106.099 30.8403C106.421 30.6176 106.666 30.2974 106.833 29.8798C107 29.4622 107.084 28.9611 107.084 28.3764C107.084 27.7997 107 27.2946 106.833 26.8611C106.67 26.4276 106.427 26.0915 106.105 25.8528C105.787 25.6102 105.395 25.4889 104.93 25.4889C104.449 25.4889 104.047 25.6142 103.725 25.8648C103.403 26.1153 103.16 26.4594 102.997 26.8969C102.834 27.3304 102.752 27.8236 102.752 28.3764C102.752 28.9372 102.834 29.4284 102.997 29.85C103.164 30.2676 103.409 30.5937 103.731 30.8284C104.057 31.0591 104.457 31.1744 104.93 31.1744ZM114.064 33.1849C113.483 33.1849 112.96 33.0815 112.495 32.8747C112.033 32.6639 111.667 32.3537 111.397 31.944C111.131 31.5344 110.997 31.0293 110.997 30.4287C110.997 29.9116 111.093 29.4841 111.284 29.146C111.475 28.808 111.735 28.5375 112.065 28.3347C112.395 28.1318 112.767 27.9787 113.181 27.8753C113.598 27.7679 114.03 27.6903 114.475 27.6426C115.012 27.5869 115.448 27.5372 115.782 27.4935C116.116 27.4457 116.359 27.3741 116.51 27.2787C116.665 27.1793 116.742 27.0261 116.742 26.8193V26.7835C116.742 26.3341 116.609 25.9861 116.343 25.7395C116.076 25.4929 115.692 25.3696 115.191 25.3696C114.662 25.3696 114.243 25.4849 113.933 25.7156C113.626 25.9463 113.419 26.2187 113.312 26.533L111.296 26.2466C111.455 25.6898 111.717 25.2244 112.083 24.8506C112.449 24.4727 112.896 24.1903 113.425 24.0034C113.954 23.8125 114.539 23.717 115.179 23.717C115.621 23.717 116.06 23.7688 116.498 23.8722C116.935 23.9756 117.335 24.1466 117.697 24.3852C118.059 24.6199 118.349 24.9401 118.568 25.3457C118.791 25.7514 118.902 26.2585 118.902 26.867V33H116.826V31.7412H116.754C116.623 31.9957 116.438 32.2344 116.2 32.4571C115.965 32.6759 115.669 32.8528 115.311 32.9881C114.957 33.1193 114.541 33.1849 114.064 33.1849ZM114.625 31.598C115.058 31.598 115.434 31.5125 115.752 31.3415C116.07 31.1665 116.315 30.9358 116.486 30.6494C116.661 30.3631 116.748 30.0509 116.748 29.7128V28.633C116.681 28.6886 116.565 28.7403 116.402 28.7881C116.243 28.8358 116.064 28.8776 115.865 28.9134C115.667 28.9491 115.47 28.981 115.275 29.0088C115.08 29.0366 114.911 29.0605 114.768 29.0804C114.446 29.1241 114.157 29.1957 113.903 29.2952C113.648 29.3946 113.447 29.5338 113.3 29.7128C113.153 29.8878 113.079 30.1145 113.079 30.3929C113.079 30.7906 113.225 31.0909 113.515 31.2938C113.805 31.4966 114.175 31.598 114.625 31.598ZM123.233 27.6307V33H121.074V23.8364H123.138V25.3935H123.245C123.456 24.8804 123.792 24.4727 124.254 24.1705C124.719 23.8682 125.294 23.717 125.978 23.717C126.61 23.717 127.161 23.8523 127.63 24.1227C128.104 24.3932 128.469 24.7849 128.728 25.298C128.99 25.8111 129.12 26.4335 129.116 27.1653V33H126.956V27.4994C126.956 26.8869 126.797 26.4077 126.479 26.0616C126.165 25.7156 125.729 25.5426 125.172 25.5426C124.794 25.5426 124.458 25.6261 124.164 25.7932C123.874 25.9563 123.645 26.1929 123.478 26.5031C123.315 26.8134 123.233 27.1892 123.233 27.6307ZM133.948 33.1849C133.367 33.1849 132.844 33.0815 132.379 32.8747C131.918 32.6639 131.552 32.3537 131.281 31.944C131.015 31.5344 130.882 31.0293 130.882 30.4287C130.882 29.9116 130.977 29.4841 131.168 29.146C131.359 28.808 131.619 28.5375 131.95 28.3347C132.28 28.1318 132.652 27.9787 133.065 27.8753C133.483 27.7679 133.914 27.6903 134.36 27.6426C134.897 27.5869 135.332 27.5372 135.666 27.4935C136 27.4457 136.243 27.3741 136.394 27.2787C136.549 27.1793 136.627 27.0261 136.627 26.8193V26.7835C136.627 26.3341 136.494 25.9861 136.227 25.7395C135.961 25.4929 135.577 25.3696 135.076 25.3696C134.547 25.3696 134.127 25.4849 133.817 25.7156C133.511 25.9463 133.304 26.2187 133.196 26.533L131.18 26.2466C131.339 25.6898 131.602 25.2244 131.967 24.8506C132.333 24.4727 132.781 24.1903 133.31 24.0034C133.839 23.8125 134.423 23.717 135.064 23.717C135.505 23.717 135.945 23.7688 136.382 23.8722C136.82 23.9756 137.219 24.1466 137.581 24.3852C137.943 24.6199 138.234 24.9401 138.452 25.3457C138.675 25.7514 138.787 26.2585 138.787 26.867V33H136.71V31.7412H136.639C136.508 31.9957 136.323 32.2344 136.084 32.4571C135.849 32.6759 135.553 32.8528 135.195 32.9881C134.841 33.1193 134.425 33.1849 133.948 33.1849ZM134.509 31.598C134.942 31.598 135.318 31.5125 135.637 31.3415C135.955 31.1665 136.199 30.9358 136.37 30.6494C136.545 30.3631 136.633 30.0509 136.633 29.7128V28.633C136.565 28.6886 136.45 28.7403 136.287 28.7881C136.128 28.8358 135.949 28.8776 135.75 28.9134C135.551 28.9491 135.354 28.981 135.159 29.0088C134.964 29.0366 134.795 29.0605 134.652 29.0804C134.33 29.1241 134.042 29.1957 133.787 29.2952C133.533 29.3946 133.332 29.5338 133.185 29.7128C133.037 29.8878 132.964 30.1145 132.964 30.3929C132.964 30.7906 133.109 31.0909 133.399 31.2938C133.69 31.4966 134.06 31.598 134.509 31.598ZM144.359 33.1611C143.639 33.1611 142.994 32.9761 142.426 32.6063C141.857 32.2364 141.408 31.6994 141.077 30.9955C140.747 30.2915 140.582 29.4364 140.582 28.4301C140.582 27.4119 140.749 26.5528 141.083 25.8528C141.421 25.1489 141.877 24.6179 142.45 24.2599C143.022 23.898 143.661 23.717 144.365 23.717C144.902 23.717 145.343 23.8085 145.689 23.9915C146.035 24.1705 146.31 24.3872 146.512 24.6418C146.715 24.8923 146.872 25.129 146.984 25.3517H147.073V20.7818H149.239V33H147.115V31.5563H146.984C146.872 31.779 146.711 32.0156 146.5 32.2662C146.29 32.5128 146.011 32.7236 145.665 32.8986C145.319 33.0736 144.884 33.1611 144.359 33.1611ZM144.961 31.3892C145.419 31.3892 145.808 31.2659 146.131 31.0193C146.453 30.7688 146.697 30.4207 146.864 29.9753C147.031 29.5298 147.115 29.0108 147.115 28.4182C147.115 27.8256 147.031 27.3105 146.864 26.873C146.701 26.4355 146.459 26.0955 146.137 25.8528C145.818 25.6102 145.427 25.4889 144.961 25.4889C144.48 25.4889 144.078 25.6142 143.756 25.8648C143.434 26.1153 143.191 26.4614 143.028 26.9028C142.865 27.3443 142.784 27.8494 142.784 28.4182C142.784 28.9909 142.865 29.502 143.028 29.9514C143.195 30.3969 143.44 30.7489 143.762 31.0074C144.088 31.2619 144.488 31.3892 144.961 31.3892ZM155.537 33.179C154.642 33.179 153.867 32.9821 153.211 32.5884C152.554 32.1946 152.045 31.6438 151.683 30.9358C151.325 30.2278 151.146 29.4006 151.146 28.454C151.146 27.5074 151.325 26.6781 151.683 25.9662C152.045 25.2543 152.554 24.7014 153.211 24.3077C153.867 23.9139 154.642 23.717 155.537 23.717C156.432 23.717 157.208 23.9139 157.864 24.3077C158.52 24.7014 159.027 25.2543 159.385 25.9662C159.747 26.6781 159.928 27.5074 159.928 28.454C159.928 29.4006 159.747 30.2278 159.385 30.9358C159.027 31.6438 158.52 32.1946 157.864 32.5884C157.208 32.9821 156.432 33.179 155.537 33.179ZM155.549 31.4489C156.034 31.4489 156.44 31.3156 156.766 31.0491C157.092 30.7787 157.335 30.4168 157.494 29.9634C157.657 29.5099 157.739 29.0048 157.739 28.448C157.739 27.8872 157.657 27.3801 157.494 26.9267C157.335 26.4693 157.092 26.1054 156.766 25.8349C156.44 25.5645 156.034 25.4293 155.549 25.4293C155.052 25.4293 154.638 25.5645 154.308 25.8349C153.982 26.1054 153.738 26.4693 153.574 26.9267C153.415 27.3801 153.336 27.8872 153.336 28.448C153.336 29.0048 153.415 29.5099 153.574 29.9634C153.738 30.4168 153.982 30.7787 154.308 31.0491C154.638 31.3156 155.052 31.4489 155.549 31.4489ZM169.004 26.2585L167.035 26.4733C166.979 26.2744 166.882 26.0875 166.743 25.9125C166.608 25.7375 166.425 25.5963 166.194 25.4889C165.963 25.3815 165.681 25.3278 165.347 25.3278C164.897 25.3278 164.519 25.4253 164.213 25.6202C163.911 25.8151 163.762 26.0676 163.766 26.3778C163.762 26.6443 163.859 26.8611 164.058 27.0281C164.261 27.1952 164.595 27.3324 165.06 27.4398L166.623 27.7739C167.49 27.9608 168.135 28.2571 168.556 28.6628C168.982 29.0685 169.197 29.5994 169.201 30.2557C169.197 30.8324 169.028 31.3415 168.694 31.783C168.363 32.2205 167.904 32.5625 167.315 32.8091C166.727 33.0557 166.051 33.179 165.287 33.179C164.165 33.179 163.263 32.9443 162.579 32.475C161.894 32.0017 161.487 31.3435 161.356 30.5003L163.461 30.2974C163.557 30.7111 163.76 31.0233 164.07 31.2341C164.38 31.4449 164.784 31.5503 165.281 31.5503C165.794 31.5503 166.206 31.4449 166.516 31.2341C166.83 31.0233 166.987 30.7628 166.987 30.4526C166.987 30.1901 166.886 29.9733 166.683 29.8023C166.484 29.6313 166.174 29.5 165.752 29.4085L164.189 29.0804C163.31 28.8974 162.66 28.5892 162.238 28.1557C161.817 27.7182 161.608 27.1653 161.612 26.4972C161.608 25.9324 161.761 25.4432 162.071 25.0295C162.386 24.6119 162.821 24.2898 163.378 24.0631C163.939 23.8324 164.585 23.717 165.317 23.717C166.391 23.717 167.236 23.9457 167.852 24.4031C168.473 24.8605 168.857 25.479 169.004 26.2585Z" fill="#232F4E"/>
<rect x="19.3973" y="49.3973" width="294.767" height="57.2055" rx="2.78082" fill="white"/>
<rect x="19.3973" y="49.3973" width="294.767" height="57.2055" rx="2.78082" stroke="#D6D6D6" stroke-width="0.79452"/>
<circle cx="46.939" cy="76.9384" r="18.4038" fill="#D6D6D6"/>
<path fill-rule="evenodd" clip-rule="evenodd" d="M59.6656 90.2324C56.3603 93.3974 51.8767 95.342 46.939 95.342C36.7748 95.342 28.5352 87.1023 28.5352 76.9381C28.5352 66.774 36.7748 58.5343 46.939 58.5343C57.1032 58.5343 65.3428 66.774 65.3428 76.9381H60.8813C60.8812 69.2381 54.6391 62.9959 46.939 62.9959C39.2388 62.9959 32.9967 69.2381 32.9967 76.9382C32.9967 84.6383 39.2388 90.8805 46.939 90.8805C48.5758 90.8805 50.1468 90.5984 51.606 90.0802L53.0977 94.2809C55.561 93.4062 57.7965 92.0216 59.6656 90.2324ZM60.1846 89.7154C60.832 89.0442 61.4304 88.3218 61.9731 87.5532C64.1657 84.4478 65.3428 80.7396 65.3428 76.9381C65.3428 81.9011 63.3784 86.4053 60.1846 89.7154Z" fill="#24DE9C"/>
<circle cx="46.9384" cy="76.9383" r="13.9423" fill="white"/>
<path d="M39.9302 79.9021C39.5307 79.9021 39.1749 79.8145 38.8629 79.6394C38.5509 79.4642 38.3046 79.2234 38.124 78.9169C37.9489 78.6104 37.8613 78.2628 37.8613 77.8742C37.8613 77.6717 37.8832 77.4692 37.927 77.2667C37.9707 77.0642 38.0474 76.8534 38.1568 76.6345C38.2718 76.4156 38.425 76.1802 38.6166 75.9284L40.3243 73.6871H41.4819L39.3883 76.3964L39.2241 76.2897C39.3008 76.2021 39.3829 76.1337 39.4704 76.0844C39.5635 76.0352 39.6593 75.9996 39.7578 75.9777C39.8618 75.9558 39.9713 75.9449 40.0862 75.9449C40.4529 75.9449 40.7813 76.0297 41.0714 76.1994C41.3615 76.3691 41.5886 76.5989 41.7528 76.889C41.9225 77.1791 42.0073 77.513 42.0073 77.8906C42.0073 78.2738 41.917 78.6186 41.7364 78.9251C41.5558 79.2261 41.3095 79.4642 40.9975 79.6394C40.691 79.8145 40.3352 79.9021 39.9302 79.9021ZM39.9302 79.0401C40.1437 79.0401 40.3325 78.9908 40.4967 78.8923C40.6609 78.7938 40.7923 78.6597 40.8908 78.49C40.9893 78.3148 41.0386 78.1178 41.0386 77.8989C41.0386 77.6745 40.9893 77.4774 40.8908 77.3077C40.7977 77.1381 40.6664 77.0067 40.4967 76.9137C40.3325 76.8151 40.1437 76.7659 39.9302 76.7659C39.7222 76.7659 39.5334 76.8151 39.3637 76.9137C39.1995 77.0067 39.0682 77.1381 38.9696 77.3077C38.8711 77.4774 38.8219 77.6745 38.8219 77.8989C38.8219 78.1178 38.8711 78.3148 38.9696 78.49C39.0682 78.6597 39.1995 78.7938 39.3637 78.8923C39.5334 78.9908 39.7222 79.0401 39.9302 79.0401ZM45.3372 79.9021C44.8501 79.9021 44.4232 79.7707 44.0565 79.508C43.6897 79.2398 43.4024 78.8704 43.1944 78.3997C42.9919 77.9235 42.8906 77.3707 42.8906 76.7412C42.8906 76.1063 42.9919 75.5535 43.1944 75.0828C43.4024 74.6121 43.687 74.2454 44.0483 73.9827C44.415 73.7199 44.8419 73.5886 45.329 73.5886C45.8161 73.5886 46.2403 73.7199 46.6016 73.9827C46.9683 74.2454 47.2529 74.6148 47.4554 75.091C47.6634 75.5617 47.7674 76.1118 47.7674 76.7412C47.7674 77.3707 47.6661 77.9235 47.4636 78.3997C47.2611 78.8704 46.9765 79.2398 46.6098 79.508C46.2485 79.7707 45.8244 79.9021 45.3372 79.9021ZM45.3372 79.0154C45.6383 79.0154 45.8982 78.9224 46.1172 78.7363C46.3361 78.5502 46.5058 78.2875 46.6262 77.9481C46.7466 77.6088 46.8068 77.2065 46.8068 76.7412C46.8068 76.276 46.7466 75.8737 46.6262 75.5344C46.5058 75.195 46.3361 74.9323 46.1172 74.7462C45.8982 74.5601 45.6355 74.4671 45.329 74.4671C45.028 74.4671 44.768 74.5601 44.5491 74.7462C44.3301 74.9323 44.1605 75.195 44.04 75.5344C43.9196 75.8737 43.8594 76.276 43.8594 76.7412C43.8594 77.201 43.9196 77.6033 44.04 77.9481C44.1605 78.2875 44.3301 78.5502 44.5491 78.7363C44.7735 78.9224 45.0362 79.0154 45.3372 79.0154ZM49.4818 79.8036L54.4571 73.6871H55.4916L50.5163 79.8036H49.4818ZM50.4178 76.7905C50.1167 76.7905 49.8458 76.7193 49.605 76.577C49.3641 76.4293 49.1698 76.235 49.0221 75.9941C48.8798 75.7533 48.8086 75.4851 48.8086 75.1895C48.8086 74.894 48.8798 74.6258 49.0221 74.385C49.1698 74.1387 49.3641 73.9444 49.605 73.802C49.8458 73.6597 50.1167 73.5886 50.4178 73.5886C50.7188 73.5886 50.9897 73.6597 51.2306 73.802C51.4714 73.9444 51.663 74.1387 51.8053 74.385C51.9476 74.6258 52.0187 74.894 52.0187 75.1895C52.0187 75.4851 51.9476 75.7533 51.8053 75.9941C51.663 76.235 51.4714 76.4293 51.2306 76.577C50.9897 76.7193 50.7188 76.7905 50.4178 76.7905ZM50.4178 76.0434C50.5874 76.0434 50.7325 76.0023 50.8529 75.9202C50.9788 75.8381 51.0746 75.7314 51.1403 75.6C51.2059 75.4687 51.2388 75.3319 51.2388 75.1895C51.2388 75.0418 51.2059 74.9049 51.1403 74.779C51.0746 74.6477 50.9788 74.5409 50.8529 74.4588C50.7325 74.3767 50.5874 74.3357 50.4178 74.3357C50.2536 74.3357 50.1085 74.3767 49.9826 74.4588C49.8568 74.5409 49.7582 74.6477 49.6871 74.779C49.6214 74.9049 49.5886 75.0418 49.5886 75.1895C49.5886 75.3319 49.6214 75.4687 49.6871 75.6C49.7582 75.7314 49.8568 75.8381 49.9826 75.9202C50.1085 76.0023 50.2536 76.0434 50.4178 76.0434ZM54.5146 79.9021C54.2135 79.9021 53.9399 79.831 53.6936 79.6886C53.4528 79.5409 53.2612 79.3466 53.1189 79.1057C52.9766 78.8649 52.9054 78.5967 52.9054 78.3012C52.9054 78.0056 52.9766 77.7374 53.1189 77.4966C53.2612 77.2503 53.4528 77.056 53.6936 76.9137C53.9399 76.7713 54.2135 76.7002 54.5146 76.7002C54.8156 76.7002 55.0865 76.7713 55.3274 76.9137C55.5682 77.056 55.7598 77.2503 55.9021 77.4966C56.0444 77.7374 56.1155 78.0056 56.1155 78.3012C56.1155 78.5967 56.0444 78.8649 55.9021 79.1057C55.7598 79.3466 55.5682 79.5409 55.3274 79.6886C55.0865 79.831 54.8156 79.9021 54.5146 79.9021ZM54.5146 79.155C54.6843 79.155 54.8293 79.1139 54.9497 79.0318C55.0701 78.9497 55.1632 78.843 55.2289 78.7117C55.3 78.5803 55.3356 78.4435 55.3356 78.3012C55.3356 78.1534 55.3 78.0165 55.2289 77.8906C55.1632 77.7593 55.0701 77.6526 54.9497 77.5705C54.8293 77.4884 54.6843 77.4473 54.5146 77.4473C54.3504 77.4473 54.2053 77.4884 54.0795 77.5705C53.9536 77.6526 53.855 77.7593 53.7839 77.8906C53.7182 78.0165 53.6854 78.1534 53.6854 78.3012C53.6854 78.4435 53.7182 78.5803 53.7839 78.7117C53.855 78.843 53.9536 78.9497 54.0795 79.0318C54.2053 79.1139 54.3504 79.155 54.5146 79.155Z" fill="#202020"/>
<path d="M78.6898 72.6868C78.0119 72.6868 77.3847 72.564 76.8084 72.3182C76.2321 72.0724 75.7279 71.7292 75.2957 71.2885C74.8634 70.8478 74.5244 70.3308 74.2787 69.7376C74.0414 69.1443 73.9227 68.496 73.9227 67.7926C73.9227 67.0892 74.0371 66.4409 74.266 65.8476C74.5033 65.2459 74.8338 64.7289 75.2575 64.2967C75.6897 63.856 76.194 63.517 76.7703 63.2797C77.3466 63.034 77.9737 62.9111 78.6517 62.9111C79.3297 62.9111 79.9357 63.0255 80.4696 63.2543C81.012 63.4831 81.4696 63.7882 81.8425 64.1696C82.2154 64.5425 82.4824 64.9535 82.6434 65.4027L81.1052 66.14C80.9272 65.6485 80.6264 65.2501 80.2026 64.945C79.7789 64.6399 79.2619 64.4874 78.6517 64.4874C78.0585 64.4874 77.533 64.6272 77.0754 64.9069C76.6262 65.1866 76.2745 65.5722 76.0203 66.0637C75.7745 66.5553 75.6516 67.1316 75.6516 67.7926C75.6516 68.4536 75.7787 69.0342 76.033 69.5342C76.2957 70.0257 76.6559 70.4113 77.1135 70.691C77.5712 70.9707 78.0966 71.1105 78.6898 71.1105C79.1729 71.1105 79.6178 71.0173 80.0246 70.8308C80.4314 70.6359 80.7577 70.3647 81.0035 70.0173C81.2493 69.6613 81.3722 69.2418 81.3722 68.7587V68.0341L82.1603 68.7206H78.6517V67.2587H83.101V68.2121C83.101 68.941 82.9781 69.585 82.7324 70.1444C82.4866 70.7037 82.1518 71.1741 81.7281 71.5555C81.3128 71.9283 80.8425 72.2123 80.317 72.4072C79.7916 72.5936 79.2492 72.6868 78.6898 72.6868ZM86.4268 72.6868C85.9437 72.6868 85.5242 72.6063 85.1683 72.4453C84.8123 72.2843 84.5369 72.0555 84.342 71.7588C84.147 71.4538 84.0496 71.102 84.0496 70.7037C84.0496 70.3224 84.1343 69.9834 84.3038 69.6867C84.4733 69.3816 84.7361 69.1274 85.092 68.924C85.4479 68.7206 85.8971 68.5765 86.4395 68.4918L88.7023 68.1231V69.3944L86.7573 69.7249C86.4268 69.7842 86.181 69.8901 86.02 70.0427C85.859 70.1952 85.7785 70.3944 85.7785 70.6402C85.7785 70.8775 85.8674 71.0681 86.0454 71.2122C86.2319 71.3478 86.4607 71.4156 86.7319 71.4156C87.0794 71.4156 87.3845 71.3436 87.6472 71.1995C87.9184 71.047 88.126 70.8393 88.2701 70.5766C88.4226 70.3139 88.4989 70.0257 88.4989 69.7122V67.9324C88.4989 67.6358 88.3803 67.39 88.143 67.1951C87.9141 66.9917 87.609 66.89 87.2277 66.89C86.8717 66.89 86.5539 66.9875 86.2742 67.1824C86.003 67.3689 85.8039 67.6189 85.6768 67.9324L84.3165 67.2714C84.4521 66.907 84.664 66.5934 84.9522 66.3307C85.2488 66.0595 85.5963 65.8476 85.9946 65.6951C86.3929 65.5425 86.8251 65.4662 87.2912 65.4662C87.859 65.4662 88.3591 65.5722 88.7913 65.7841C89.2235 65.9875 89.5583 66.2756 89.7956 66.6485C90.0413 67.0129 90.1642 67.4409 90.1642 67.9324V72.5343H88.5879V71.3521L88.9438 71.3266C88.7659 71.6233 88.554 71.8733 88.3082 72.0767C88.0624 72.2716 87.7828 72.4241 87.4692 72.5343C87.1556 72.636 86.8082 72.6868 86.4268 72.6868ZM91.7034 72.5343V65.6188H93.267V66.979L93.1399 66.7375C93.3009 66.3222 93.5636 66.0086 93.9281 65.7968C94.301 65.5764 94.7332 65.4662 95.2247 65.4662C95.7332 65.4662 96.1824 65.5764 96.5722 65.7968C96.9705 66.0171 97.2799 66.3264 97.5002 66.7248C97.7206 67.1146 97.8307 67.568 97.8307 68.085V72.5343H96.1654V68.4791C96.1654 68.174 96.1061 67.9113 95.9875 67.6909C95.8688 67.4706 95.7035 67.3011 95.4917 67.1824C95.2883 67.0553 95.0467 66.9917 94.7671 66.9917C94.4959 66.9917 94.2543 67.0553 94.0425 67.1824C93.8306 67.3011 93.6653 67.4706 93.5467 67.6909C93.428 67.9113 93.3687 68.174 93.3687 68.4791V72.5343H91.7034ZM101.336 72.6868C100.853 72.6868 100.434 72.6063 100.078 72.4453C99.722 72.2843 99.4466 72.0555 99.2516 71.7588C99.0567 71.4538 98.9593 71.102 98.9593 70.7037C98.9593 70.3224 99.044 69.9834 99.2135 69.6867C99.383 69.3816 99.6457 69.1274 100.002 68.924C100.358 68.7206 100.807 68.5765 101.349 68.4918L103.612 68.1231V69.3944L101.667 69.7249C101.336 69.7842 101.091 69.8901 100.93 70.0427C100.769 70.1952 100.688 70.3944 100.688 70.6402C100.688 70.8775 100.777 71.0681 100.955 71.2122C101.142 71.3478 101.37 71.4156 101.642 71.4156C101.989 71.4156 102.294 71.3436 102.557 71.1995C102.828 71.047 103.036 70.8393 103.18 70.5766C103.332 70.3139 103.409 70.0257 103.409 69.7122V67.9324C103.409 67.6358 103.29 67.39 103.053 67.1951C102.824 66.9917 102.519 66.89 102.137 66.89C101.781 66.89 101.464 66.9875 101.184 67.1824C100.913 67.3689 100.714 67.6189 100.586 67.9324L99.2262 67.2714C99.3618 66.907 99.5737 66.5934 99.8618 66.3307C100.158 66.0595 100.506 65.8476 100.904 65.6951C101.303 65.5425 101.735 65.4662 102.201 65.4662C102.769 65.4662 103.269 65.5722 103.701 65.7841C104.133 65.9875 104.468 66.2756 104.705 66.6485C104.951 67.0129 105.074 67.4409 105.074 67.9324V72.5343H103.498V71.3521L103.854 71.3266C103.676 71.6233 103.464 71.8733 103.218 72.0767C102.972 72.2716 102.692 72.4241 102.379 72.5343C102.065 72.636 101.718 72.6868 101.336 72.6868ZM106.613 72.5343V65.6188H108.177V66.979L108.05 66.7375C108.211 66.3222 108.473 66.0086 108.838 65.7968C109.211 65.5764 109.643 65.4662 110.134 65.4662C110.643 65.4662 111.092 65.5764 111.482 65.7968C111.88 66.0171 112.19 66.3264 112.41 66.7248C112.63 67.1146 112.74 67.568 112.74 68.085V72.5343H111.075V68.4791C111.075 68.174 111.016 67.9113 110.897 67.6909C110.778 67.4706 110.613 67.3011 110.401 67.1824C110.198 67.0553 109.956 66.9917 109.677 66.9917C109.406 66.9917 109.164 67.0553 108.952 67.1824C108.74 67.3011 108.575 67.4706 108.456 67.6909C108.338 67.9113 108.278 68.174 108.278 68.4791V72.5343H106.613ZM117.479 72.6868C116.793 72.6868 116.174 72.5301 115.623 72.2165C115.081 71.8944 114.653 71.4622 114.339 70.9198C114.026 70.369 113.869 69.7503 113.869 69.0638C113.869 68.3774 114.026 67.7629 114.339 67.2205C114.653 66.6782 115.081 66.2502 115.623 65.9366C116.174 65.623 116.793 65.4662 117.479 65.4662C117.971 65.4662 118.428 65.5552 118.852 65.7332C119.276 65.9027 119.64 66.14 119.945 66.4451C120.259 66.7417 120.484 67.0977 120.619 67.5129L119.157 68.1485C119.03 67.8011 118.814 67.5214 118.509 67.3095C118.212 67.0977 117.869 66.9917 117.479 66.9917C117.115 66.9917 116.789 67.0807 116.5 67.2587C116.221 67.4367 116 67.6824 115.839 67.996C115.678 68.3096 115.598 68.6698 115.598 69.0765C115.598 69.4833 115.678 69.8435 115.839 70.1571C116 70.4707 116.221 70.7164 116.5 70.8944C116.789 71.0724 117.115 71.1614 117.479 71.1614C117.878 71.1614 118.225 71.0554 118.522 70.8436C118.818 70.6317 119.03 70.3478 119.157 69.9918L120.619 70.6529C120.484 71.0427 120.263 71.3944 119.958 71.708C119.653 72.0131 119.289 72.2546 118.865 72.4326C118.441 72.6021 117.979 72.6868 117.479 72.6868ZM121.883 72.5343V65.6188H123.548V72.5343H121.883ZM121.883 64.8433V63.0636H123.548V64.8433H121.883ZM127.183 72.6868C126.7 72.6868 126.281 72.6063 125.925 72.4453C125.569 72.2843 125.293 72.0555 125.098 71.7588C124.903 71.4538 124.806 71.102 124.806 70.7037C124.806 70.3224 124.891 69.9834 125.06 69.6867C125.23 69.3816 125.492 69.1274 125.848 68.924C126.204 68.7206 126.654 68.5765 127.196 68.4918L129.459 68.1231V69.3944L127.514 69.7249C127.183 69.7842 126.937 69.8901 126.776 70.0427C126.615 70.1952 126.535 70.3944 126.535 70.6402C126.535 70.8775 126.624 71.0681 126.802 71.2122C126.988 71.3478 127.217 71.4156 127.488 71.4156C127.836 71.4156 128.141 71.3436 128.404 71.1995C128.675 71.047 128.882 70.8393 129.026 70.5766C129.179 70.3139 129.255 70.0257 129.255 69.7122V67.9324C129.255 67.6358 129.137 67.39 128.899 67.1951C128.671 66.9917 128.365 66.89 127.984 66.89C127.628 66.89 127.31 66.9875 127.031 67.1824C126.759 67.3689 126.56 67.6189 126.433 67.9324L125.073 67.2714C125.209 66.907 125.42 66.5934 125.709 66.3307C126.005 66.0595 126.353 65.8476 126.751 65.6951C127.149 65.5425 127.582 65.4662 128.048 65.4662C128.615 65.4662 129.115 65.5722 129.548 65.7841C129.98 65.9875 130.315 66.2756 130.552 66.6485C130.798 67.0129 130.921 67.4409 130.921 67.9324V72.5343H129.344V71.3521L129.7 71.3266C129.522 71.6233 129.31 71.8733 129.065 72.0767C128.819 72.2716 128.539 72.4241 128.226 72.5343C127.912 72.636 127.565 72.6868 127.183 72.6868Z" fill="#292626"/>
<path d="M77.4143 91.5592C76.9819 91.5592 76.5851 91.4826 76.2238 91.3293C75.8626 91.1706 75.5479 90.9517 75.2797 90.6725C75.017 90.3879 74.8117 90.054 74.6639 89.6709C74.5161 89.2878 74.4423 88.8663 74.4423 88.4066C74.4423 87.9468 74.5161 87.5253 74.6639 87.1422C74.8117 86.7591 75.017 86.4252 75.2797 86.1406C75.5479 85.856 75.8626 85.637 76.2238 85.4838C76.5851 85.3251 76.9819 85.2457 77.4143 85.2457C77.8303 85.2457 78.2025 85.3196 78.5309 85.4674C78.8647 85.6151 79.1439 85.8067 79.3683 86.0421C79.5982 86.2719 79.7624 86.5155 79.8609 86.7728L79.2451 87.0437C79.0919 86.6879 78.8565 86.4033 78.5391 86.1898C78.2271 85.9709 77.8522 85.8614 77.4143 85.8614C76.9655 85.8614 76.5659 85.9682 76.2156 86.1816C75.8653 86.3951 75.5917 86.6934 75.3946 87.0765C75.1976 87.4542 75.0991 87.8975 75.0991 88.4066C75.0991 88.9101 75.1976 89.3534 75.3946 89.7366C75.5917 90.1197 75.8653 90.418 76.2156 90.6315C76.5659 90.8395 76.9655 90.9435 77.4143 90.9435C77.8522 90.9435 78.2271 90.8367 78.5391 90.6233C78.8565 90.4098 79.0919 90.1252 79.2451 89.7694L79.8609 90.0404C79.7624 90.2921 79.5982 90.5357 79.3683 90.771C79.1439 91.0009 78.8647 91.1898 78.5309 91.3375C78.2025 91.4853 77.8303 91.5592 77.4143 91.5592ZM82.9272 91.5592C82.5112 91.5592 82.1336 91.4607 81.7942 91.2637C81.4549 91.0611 81.1839 90.7875 80.9814 90.4426C80.7844 90.0924 80.6859 89.6955 80.6859 89.2522C80.6859 88.8143 80.7844 88.423 80.9814 88.0782C81.1785 87.7333 81.4439 87.4624 81.7778 87.2654C82.1171 87.0628 82.5003 86.9616 82.9272 86.9616C83.3541 86.9616 83.7345 87.0601 84.0684 87.2572C84.4078 87.4542 84.6732 87.7251 84.8648 88.0699C85.0618 88.4148 85.1603 88.8088 85.1603 89.2522C85.1603 89.701 85.0591 90.1006 84.8566 90.4509C84.6541 90.7957 84.3831 91.0666 84.0438 91.2637C83.7099 91.4607 83.3377 91.5592 82.9272 91.5592ZM82.9272 90.9435C83.2228 90.9435 83.4882 90.8696 83.7236 90.7218C83.9644 90.574 84.1532 90.3715 84.2901 90.1142C84.4324 89.857 84.5035 89.5696 84.5035 89.2522C84.5035 88.9347 84.4324 88.6501 84.2901 88.3983C84.1532 88.1466 83.9644 87.9468 83.7236 87.799C83.4882 87.6512 83.2228 87.5773 82.9272 87.5773C82.6316 87.5773 82.3635 87.6512 82.1226 87.799C81.8873 87.9468 81.6984 88.1466 81.5561 88.3983C81.4138 88.6501 81.3427 88.9347 81.3427 89.2522C81.3427 89.5696 81.4138 89.857 81.5561 90.1142C81.6984 90.3715 81.8873 90.574 82.1226 90.7218C82.3635 90.8696 82.6316 90.9435 82.9272 90.9435ZM86.2463 91.4607V87.0601H86.8621V87.8975L86.7635 87.7744C86.884 87.5171 87.0618 87.3174 87.2972 87.175C87.538 87.0327 87.8007 86.9616 88.0854 86.9616C88.4247 86.9616 88.7312 87.0574 89.0049 87.2489C89.2786 87.4405 89.4729 87.6895 89.5878 87.9961L89.4154 88.0043C89.5249 87.6649 89.7137 87.4077 89.9819 87.2325C90.2555 87.0519 90.5566 86.9616 90.885 86.9616C91.1805 86.9616 91.4515 87.0327 91.6978 87.175C91.9496 87.3174 92.1493 87.5144 92.2971 87.7662C92.4504 88.0125 92.527 88.2916 92.527 88.6036V91.4607H91.9112V88.8417C91.9112 88.5735 91.862 88.3463 91.7635 88.1603C91.6704 87.9742 91.5418 87.8319 91.3776 87.7333C91.2134 87.6293 91.0246 87.5773 90.8111 87.5773C90.6031 87.5773 90.4143 87.6293 90.2446 87.7333C90.0749 87.8319 89.9408 87.9769 89.8423 88.1685C89.7438 88.3546 89.6945 88.579 89.6945 88.8417V91.4607H89.0788V88.8417C89.0788 88.5735 89.0295 88.3463 88.931 88.1603C88.8379 87.9742 88.7093 87.8319 88.5451 87.7333C88.3809 87.6293 88.1921 87.5773 87.9786 87.5773C87.7652 87.5773 87.5736 87.6293 87.4039 87.7333C87.2397 87.8319 87.1084 87.9769 87.0098 88.1685C86.9113 88.3546 86.8621 88.579 86.8621 88.8417V91.4607H86.2463ZM93.7027 91.4607V87.0601H94.3185V91.4607H93.7027ZM93.7027 86.2473V85.3442H94.3185V86.2473H93.7027ZM97.1059 91.5592C96.6844 91.5592 96.315 91.4525 95.9975 91.239C95.6801 91.0256 95.4502 90.7355 95.3079 90.3688L95.8251 90.1225C95.951 90.3907 96.1262 90.6041 96.3506 90.7628C96.5804 90.9216 96.8322 91.0009 97.1059 91.0009C97.3686 91.0009 97.5903 90.938 97.7709 90.8121C97.9515 90.6807 98.0418 90.5111 98.0418 90.3031C98.0418 90.1498 97.998 90.0294 97.9105 89.9418C97.8229 89.8488 97.7216 89.7776 97.6067 89.7284C97.4918 89.6791 97.3905 89.6435 97.3029 89.6216L96.6708 89.441C96.2657 89.3261 95.9729 89.1646 95.7923 88.9566C95.6117 88.7486 95.5214 88.5078 95.5214 88.2341C95.5214 87.9769 95.587 87.7525 95.7184 87.5609C95.8498 87.3694 96.0276 87.2216 96.252 87.1176C96.4765 87.0136 96.7255 86.9616 96.9992 86.9616C97.3713 86.9616 97.708 87.0601 98.009 87.2572C98.3155 87.4487 98.5317 87.7169 98.6576 88.0617L98.1321 88.308C98.0227 88.0617 97.864 87.8702 97.656 87.7333C97.4534 87.591 97.2263 87.5199 96.9745 87.5199C96.7282 87.5199 96.5312 87.5828 96.3834 87.7087C96.2356 87.8346 96.1617 87.9933 96.1617 88.1849C96.1617 88.3327 96.2 88.4503 96.2767 88.5379C96.3533 88.6255 96.4409 88.6912 96.5394 88.735C96.6434 88.7787 96.7337 88.8116 96.8103 88.8335L97.541 89.0469C97.8968 89.1509 98.1732 89.3124 98.3702 89.5313C98.5728 89.7503 98.674 90.0075 98.674 90.3031C98.674 90.5439 98.6056 90.7601 98.4688 90.9517C98.3374 91.1432 98.154 91.2938 97.9187 91.4032C97.6833 91.5072 97.4124 91.5592 97.1059 91.5592ZM99.756 91.4607V87.0601H100.372V91.4607H99.756ZM99.756 86.2473V85.3442H100.372V86.2473H99.756ZM103.693 91.5592C103.277 91.5592 102.899 91.4607 102.56 91.2637C102.221 91.0611 101.95 90.7875 101.747 90.4426C101.55 90.0924 101.452 89.6955 101.452 89.2522C101.452 88.8143 101.55 88.423 101.747 88.0782C101.944 87.7333 102.21 87.4624 102.543 87.2654C102.883 87.0628 103.266 86.9616 103.693 86.9616C104.12 86.9616 104.5 87.0601 104.834 87.2572C105.173 87.4542 105.439 87.7251 105.63 88.0699C105.827 88.4148 105.926 88.8088 105.926 89.2522C105.926 89.701 105.825 90.1006 105.622 90.4509C105.42 90.7957 105.149 91.0666 104.809 91.2637C104.476 91.4607 104.103 91.5592 103.693 91.5592ZM103.693 90.9435C103.988 90.9435 104.254 90.8696 104.489 90.7218C104.73 90.574 104.919 90.3715 105.056 90.1142C105.198 89.857 105.269 89.5696 105.269 89.2522C105.269 88.9347 105.198 88.6501 105.056 88.3983C104.919 88.1466 104.73 87.9468 104.489 87.799C104.254 87.6512 103.988 87.5773 103.693 87.5773C103.397 87.5773 103.129 87.6512 102.888 87.799C102.653 87.9468 102.464 88.1466 102.322 88.3983C102.179 88.6501 102.108 88.9347 102.108 89.2522C102.108 89.5696 102.179 89.857 102.322 90.1142C102.464 90.3715 102.653 90.574 102.888 90.7218C103.129 90.8696 103.397 90.9435 103.693 90.9435ZM103.381 86.2063L104.095 84.9748H104.941L104.005 86.2063H103.381ZM107.012 91.4607V87.0601H107.628V87.914L107.488 87.8811C107.598 87.5965 107.775 87.3721 108.022 87.2079C108.274 87.0437 108.564 86.9616 108.892 86.9616C109.204 86.9616 109.483 87.0327 109.729 87.175C109.981 87.3174 110.178 87.5144 110.321 87.7662C110.468 88.0125 110.542 88.2916 110.542 88.6036V91.4607H109.927V88.8417C109.927 88.5735 109.877 88.3463 109.779 88.1603C109.686 87.9742 109.552 87.8319 109.376 87.7333C109.207 87.6293 109.01 87.5773 108.785 87.5773C108.561 87.5773 108.361 87.6293 108.186 87.7333C108.011 87.8319 107.874 87.9769 107.775 88.1685C107.677 88.3546 107.628 88.579 107.628 88.8417V91.4607H107.012ZM111.932 91.4607V90.5576H112.589V91.4607H111.932ZM111.932 87.9632V87.0601H112.589V87.9632H111.932ZM116.316 91.4607V85.9189H115.167V85.3442H116.973V91.4607H116.316ZM120.89 91.5592C120.408 91.5592 119.984 91.4279 119.618 91.1651C119.256 90.8969 118.974 90.5275 118.772 90.0568C118.569 89.5806 118.468 89.0278 118.468 88.3983C118.468 87.7689 118.569 87.2188 118.772 86.7481C118.974 86.2719 119.256 85.9025 119.618 85.6398C119.979 85.377 120.4 85.2457 120.882 85.2457C121.364 85.2457 121.785 85.377 122.146 85.6398C122.508 85.9025 122.789 86.2719 122.992 86.7481C123.194 87.2188 123.296 87.7689 123.296 88.3983C123.296 89.0278 123.194 89.5806 122.992 90.0568C122.795 90.533 122.516 90.9024 122.154 91.1651C121.793 91.4279 121.372 91.5592 120.89 91.5592ZM120.89 90.9435C121.24 90.9435 121.547 90.8367 121.81 90.6233C122.072 90.4098 122.278 90.1142 122.425 89.7366C122.573 89.3534 122.647 88.9074 122.647 88.3983C122.647 87.8893 122.573 87.446 122.425 87.0683C122.278 86.6852 122.072 86.3896 121.81 86.1816C121.547 85.9682 121.238 85.8614 120.882 85.8614C120.532 85.8614 120.225 85.9682 119.962 86.1816C119.7 86.3896 119.494 86.6852 119.347 87.0683C119.199 87.446 119.125 87.8893 119.125 88.3983C119.125 88.9019 119.199 89.3452 119.347 89.7284C119.494 90.1115 119.7 90.4098 119.962 90.6233C120.231 90.8367 120.54 90.9435 120.89 90.9435ZM125.023 91.4607L130.031 85.3442H130.828L125.82 91.4607H125.023ZM125.918 88.4476C125.623 88.4476 125.354 88.3765 125.114 88.2341C124.873 88.0864 124.678 87.8921 124.531 87.6512C124.388 87.4104 124.317 87.1422 124.317 86.8466C124.317 86.5511 124.388 86.2829 124.531 86.0421C124.678 85.7958 124.873 85.6015 125.114 85.4592C125.354 85.3168 125.623 85.2457 125.918 85.2457C126.214 85.2457 126.482 85.3168 126.723 85.4592C126.964 85.6015 127.155 85.7958 127.297 86.0421C127.44 86.2829 127.511 86.5511 127.511 86.8466C127.511 87.1422 127.44 87.4104 127.297 87.6512C127.155 87.8921 126.964 88.0864 126.723 88.2341C126.482 88.3765 126.214 88.4476 125.918 88.4476ZM125.918 87.8565C126.11 87.8565 126.277 87.81 126.419 87.7169C126.567 87.6184 126.682 87.4925 126.764 87.3393C126.851 87.1805 126.895 87.0163 126.895 86.8466C126.895 86.6715 126.851 86.5073 126.764 86.354C126.682 86.2008 126.567 86.0776 126.419 85.9846C126.277 85.8861 126.11 85.8368 125.918 85.8368C125.732 85.8368 125.562 85.8861 125.409 85.9846C125.261 86.0776 125.144 86.2008 125.056 86.354C124.974 86.5073 124.933 86.6715 124.933 86.8466C124.933 87.0163 124.974 87.1805 125.056 87.3393C125.144 87.4925 125.261 87.6184 125.409 87.7169C125.562 87.81 125.732 87.8565 125.918 87.8565ZM129.859 91.5592C129.563 91.5592 129.295 91.4881 129.054 91.3458C128.814 91.198 128.619 91.0037 128.471 90.7628C128.329 90.522 128.258 90.2538 128.258 89.9583C128.258 89.6627 128.329 89.3945 128.471 89.1537C128.619 88.9074 128.814 88.7131 129.054 88.5708C129.295 88.4284 129.563 88.3573 129.859 88.3573C130.155 88.3573 130.423 88.4284 130.664 88.5708C130.904 88.7131 131.096 88.9074 131.238 89.1537C131.381 89.3945 131.452 89.6627 131.452 89.9583C131.452 90.2538 131.381 90.522 131.238 90.7628C131.096 91.0037 130.904 91.198 130.664 91.3458C130.423 91.4881 130.155 91.5592 129.859 91.5592ZM129.859 90.9681C130.051 90.9681 130.217 90.9216 130.36 90.8285C130.508 90.73 130.622 90.6041 130.705 90.4509C130.792 90.2921 130.836 90.1279 130.836 89.9583C130.836 89.7831 130.792 89.6189 130.705 89.4657C130.622 89.3124 130.508 89.1892 130.36 89.0962C130.217 88.9977 130.051 88.9484 129.859 88.9484C129.673 88.9484 129.503 88.9977 129.35 89.0962C129.202 89.1892 129.084 89.3124 128.997 89.4657C128.915 89.6189 128.874 89.7831 128.874 89.9583C128.874 90.1279 128.915 90.2921 128.997 90.4509C129.084 90.6041 129.202 90.73 129.35 90.8285C129.503 90.9216 129.673 90.9681 129.859 90.9681Z" fill="#292626"/>
<path d="M191.719 83.2287C191.117 83.2287 190.558 83.1185 190.041 82.8982C189.532 82.6779 189.091 82.3728 188.719 81.9829C188.354 81.5846 188.087 81.1227 187.918 80.5973L189.354 79.9744C189.583 80.5168 189.913 80.9447 190.346 81.2583C190.778 81.5634 191.265 81.716 191.808 81.716C192.113 81.716 192.375 81.6693 192.596 81.5761C192.825 81.4744 192.998 81.3388 193.117 81.1693C193.244 80.9998 193.308 80.7964 193.308 80.5591C193.308 80.2795 193.223 80.0506 193.053 79.8727C192.892 79.6862 192.647 79.5421 192.316 79.4404L190.498 78.8557C189.761 78.6269 189.206 78.2836 188.833 77.826C188.46 77.3683 188.274 76.8302 188.274 76.2115C188.274 75.6691 188.405 75.1903 188.668 74.775C188.939 74.3598 189.312 74.0377 189.786 73.8089C190.269 73.5716 190.82 73.4529 191.439 73.4529C192.007 73.4529 192.528 73.5546 193.003 73.758C193.477 73.953 193.884 74.2284 194.223 74.5843C194.57 74.9318 194.829 75.3428 194.998 75.8174L193.575 76.453C193.388 75.9785 193.109 75.614 192.736 75.3598C192.363 75.0971 191.931 74.9657 191.439 74.9657C191.151 74.9657 190.897 75.0166 190.676 75.1183C190.456 75.2115 190.282 75.3471 190.155 75.525C190.036 75.6945 189.977 75.8979 189.977 76.1352C189.977 76.398 190.062 76.631 190.231 76.8344C190.401 77.0293 190.659 77.1819 191.007 77.2921L192.748 77.8387C193.503 78.0845 194.066 78.4235 194.439 78.8557C194.82 79.2879 195.011 79.8218 195.011 80.4574C195.011 80.9998 194.871 81.4787 194.592 81.8939C194.312 82.3092 193.926 82.6355 193.435 82.8728C192.943 83.1101 192.371 83.2287 191.719 83.2287ZM191.108 84.3474V72.3343H192.189V84.3474H191.108ZM202.717 83.0762V80.9914H198.37V79.5421L202.616 73.6055H204.421V79.5421H205.806V80.9914H204.421V83.0762H202.717ZM199.641 80.165L199.336 79.5421H202.717V74.9657L203.162 75.1055L199.641 80.165ZM210.005 83.2287C209.505 83.2287 209.026 83.1355 208.569 82.949C208.12 82.7626 207.73 82.4999 207.399 82.1609C207.077 81.8134 206.857 81.4024 206.738 80.9278L208.238 80.3939C208.382 80.8261 208.615 81.1481 208.937 81.36C209.259 81.5634 209.615 81.6651 210.005 81.6651C210.327 81.6651 210.611 81.5973 210.857 81.4617C211.111 81.3176 211.306 81.1227 211.442 80.8769C211.577 80.6227 211.645 80.3303 211.645 79.9998C211.645 79.6693 211.573 79.3811 211.429 79.1354C211.293 78.8896 211.103 78.6989 210.857 78.5633C210.611 78.4192 210.327 78.3472 210.005 78.3472C209.675 78.3472 209.374 78.4192 209.103 78.5633C208.84 78.7074 208.649 78.915 208.531 79.1862L207.12 78.8684L207.87 73.6055H213.031V75.0674H208.556L209.204 74.3174L208.67 78.2836L208.175 77.8768C208.412 77.5294 208.7 77.2751 209.039 77.1141C209.387 76.9531 209.806 76.8726 210.298 76.8726C210.925 76.8726 211.467 77.0082 211.925 77.2793C212.391 77.5505 212.751 77.9192 213.005 78.3853C213.26 78.8514 213.387 79.3896 213.387 79.9998C213.387 80.61 213.238 81.1608 212.942 81.6524C212.645 82.1439 212.243 82.5295 211.734 82.8092C211.226 83.0889 210.649 83.2287 210.005 83.2287ZM218.551 83.2287C217.797 83.2287 217.136 83.0253 216.568 82.6185C216 82.2117 215.555 81.6397 215.233 80.9024C214.919 80.165 214.763 79.3091 214.763 78.3345C214.763 77.3514 214.919 76.4954 215.233 75.7666C215.547 75.0377 215.987 74.4699 216.555 74.0631C217.123 73.6563 217.784 73.4529 218.538 73.4529C219.309 73.4529 219.975 73.6563 220.534 74.0631C221.102 74.4699 221.547 75.042 221.869 75.7793C222.191 76.5081 222.352 77.3599 222.352 78.3345C222.352 79.3091 222.191 80.165 221.869 80.9024C221.555 81.6312 221.115 82.2033 220.547 82.6185C219.979 83.0253 219.314 83.2287 218.551 83.2287ZM218.564 81.6524C218.996 81.6524 219.364 81.521 219.67 81.2583C219.975 80.9871 220.208 80.6057 220.369 80.1142C220.538 79.6142 220.623 79.0209 220.623 78.3345C220.623 77.648 220.538 77.059 220.369 76.5675C220.208 76.0674 219.97 75.6861 219.657 75.4233C219.352 75.1606 218.979 75.0293 218.538 75.0293C218.114 75.0293 217.75 75.1606 217.445 75.4233C217.14 75.6861 216.903 76.0674 216.733 76.5675C216.572 77.059 216.491 77.648 216.491 78.3345C216.491 79.0125 216.572 79.6015 216.733 80.1015C216.903 80.593 217.14 80.9744 217.445 81.2456C217.758 81.5168 218.131 81.6524 218.564 81.6524ZM224.361 85.0593V84.233C224.64 84.1652 224.865 84.0338 225.034 83.8389C225.212 83.6525 225.322 83.3982 225.365 83.0762H224.615V81.2964H226.293V82.3897C226.293 83.1355 226.128 83.733 225.797 84.1821C225.475 84.6313 224.996 84.9237 224.361 85.0593ZM234.354 83.2287C233.6 83.2287 232.939 83.0253 232.371 82.6185C231.803 82.2117 231.359 81.6397 231.036 80.9024C230.723 80.165 230.566 79.3091 230.566 78.3345C230.566 77.3514 230.723 76.4954 231.036 75.7666C231.35 75.0377 231.791 74.4699 232.359 74.0631C232.926 73.6563 233.587 73.4529 234.342 73.4529C235.113 73.4529 235.778 73.6563 236.338 74.0631C236.905 74.4699 237.35 75.042 237.672 75.7793C237.994 76.5081 238.155 77.3599 238.155 78.3345C238.155 79.3091 237.994 80.165 237.672 80.9024C237.359 81.6312 236.918 82.2033 236.35 82.6185C235.782 83.0253 235.117 83.2287 234.354 83.2287ZM234.367 81.6524C234.799 81.6524 235.168 81.521 235.473 81.2583C235.778 80.9871 236.011 80.6057 236.172 80.1142C236.342 79.6142 236.427 79.0209 236.427 78.3345C236.427 77.648 236.342 77.059 236.172 76.5675C236.011 76.0674 235.774 75.6861 235.46 75.4233C235.155 75.1606 234.782 75.0293 234.342 75.0293C233.918 75.0293 233.554 75.1606 233.248 75.4233C232.943 75.6861 232.706 76.0674 232.537 76.5675C232.376 77.059 232.295 77.648 232.295 78.3345C232.295 79.0125 232.376 79.6015 232.537 80.1015C232.706 80.593 232.943 80.9744 233.248 81.2456C233.562 81.5168 233.935 81.6524 234.367 81.6524ZM243.355 83.2287C242.601 83.2287 241.94 83.0253 241.372 82.6185C240.804 82.2117 240.359 81.6397 240.037 80.9024C239.723 80.165 239.567 79.3091 239.567 78.3345C239.567 77.3514 239.723 76.4954 240.037 75.7666C240.35 75.0377 240.791 74.4699 241.359 74.0631C241.927 73.6563 242.588 73.4529 243.342 73.4529C244.113 73.4529 244.779 73.6563 245.338 74.0631C245.906 74.4699 246.351 75.042 246.673 75.7793C246.995 76.5081 247.156 77.3599 247.156 78.3345C247.156 79.3091 246.995 80.165 246.673 80.9024C246.359 81.6312 245.918 82.2033 245.351 82.6185C244.783 83.0253 244.118 83.2287 243.355 83.2287ZM243.368 81.6524C243.8 81.6524 244.168 81.521 244.474 81.2583C244.779 80.9871 245.012 80.6057 245.173 80.1142C245.342 79.6142 245.427 79.0209 245.427 78.3345C245.427 77.648 245.342 77.059 245.173 76.5675C245.012 76.0674 244.774 75.6861 244.461 75.4233C244.156 75.1606 243.783 75.0293 243.342 75.0293C242.918 75.0293 242.554 75.1606 242.249 75.4233C241.944 75.6861 241.706 76.0674 241.537 76.5675C241.376 77.059 241.295 77.648 241.295 78.3345C241.295 79.0125 241.376 79.6015 241.537 80.1015C241.706 80.593 241.944 80.9744 242.249 81.2456C242.562 81.5168 242.935 81.6524 243.368 81.6524ZM252.355 83.2287C251.601 83.2287 250.94 83.0253 250.372 82.6185C249.804 82.2117 249.359 81.6397 249.037 80.9024C248.724 80.165 248.567 79.3091 248.567 78.3345C248.567 77.3514 248.724 76.4954 249.037 75.7666C249.351 75.0377 249.792 74.4699 250.359 74.0631C250.927 73.6563 251.588 73.4529 252.343 73.4529C253.114 73.4529 253.779 73.6563 254.338 74.0631C254.906 74.4699 255.351 75.042 255.673 75.7793C255.995 76.5081 256.156 77.3599 256.156 78.3345C256.156 79.3091 255.995 80.165 255.673 80.9024C255.36 81.6312 254.919 82.2033 254.351 82.6185C253.783 83.0253 253.118 83.2287 252.355 83.2287ZM252.368 81.6524C252.8 81.6524 253.169 81.521 253.474 81.2583C253.779 80.9871 254.012 80.6057 254.173 80.1142C254.343 79.6142 254.427 79.0209 254.427 78.3345C254.427 77.648 254.343 77.059 254.173 76.5675C254.012 76.0674 253.775 75.6861 253.461 75.4233C253.156 75.1606 252.783 75.0293 252.343 75.0293C251.919 75.0293 251.554 75.1606 251.249 75.4233C250.944 75.6861 250.707 76.0674 250.537 76.5675C250.376 77.059 250.296 77.648 250.296 78.3345C250.296 79.0125 250.376 79.6015 250.537 80.1015C250.707 80.593 250.944 80.9744 251.249 81.2456C251.563 81.5168 251.936 81.6524 252.368 81.6524ZM258.419 83.0762V81.2964H260.097V83.0762H258.419ZM266.16 83.2287C265.406 83.2287 264.745 83.0253 264.177 82.6185C263.609 82.2117 263.164 81.6397 262.842 80.9024C262.529 80.165 262.372 79.3091 262.372 78.3345C262.372 77.3514 262.529 76.4954 262.842 75.7666C263.156 75.0377 263.596 74.4699 264.164 74.0631C264.732 73.6563 265.393 73.4529 266.147 73.4529C266.919 73.4529 267.584 73.6563 268.143 74.0631C268.711 74.4699 269.156 75.042 269.478 75.7793C269.8 76.5081 269.961 77.3599 269.961 78.3345C269.961 79.3091 269.8 80.165 269.478 80.9024C269.164 81.6312 268.724 82.2033 268.156 82.6185C267.588 83.0253 266.923 83.2287 266.16 83.2287ZM266.173 81.6524C266.605 81.6524 266.974 81.521 267.279 81.2583C267.584 80.9871 267.817 80.6057 267.978 80.1142C268.147 79.6142 268.232 79.0209 268.232 78.3345C268.232 77.648 268.147 77.059 267.978 76.5675C267.817 76.0674 267.58 75.6861 267.266 75.4233C266.961 75.1606 266.588 75.0293 266.147 75.0293C265.724 75.0293 265.359 75.1606 265.054 75.4233C264.749 75.6861 264.512 76.0674 264.342 76.5675C264.181 77.059 264.101 77.648 264.101 78.3345C264.101 79.0125 264.181 79.6015 264.342 80.1015C264.512 80.593 264.749 80.9744 265.054 81.2456C265.368 81.5168 265.741 81.6524 266.173 81.6524ZM275.16 83.2287C274.406 83.2287 273.745 83.0253 273.177 82.6185C272.61 82.2117 272.165 81.6397 271.843 80.9024C271.529 80.165 271.372 79.3091 271.372 78.3345C271.372 77.3514 271.529 76.4954 271.843 75.7666C272.156 75.0377 272.597 74.4699 273.165 74.0631C273.732 73.6563 274.393 73.4529 275.148 73.4529C275.919 73.4529 276.584 73.6563 277.144 74.0631C277.711 74.4699 278.156 75.042 278.478 75.7793C278.8 76.5081 278.961 77.3599 278.961 78.3345C278.961 79.3091 278.8 80.165 278.478 80.9024C278.165 81.6312 277.724 82.2033 277.156 82.6185C276.588 83.0253 275.923 83.2287 275.16 83.2287ZM275.173 81.6524C275.605 81.6524 275.974 81.521 276.279 81.2583C276.584 80.9871 276.817 80.6057 276.978 80.1142C277.148 79.6142 277.233 79.0209 277.233 78.3345C277.233 77.648 277.148 77.059 276.978 76.5675C276.817 76.0674 276.58 75.6861 276.266 75.4233C275.961 75.1606 275.588 75.0293 275.148 75.0293C274.724 75.0293 274.36 75.1606 274.055 75.4233C273.749 75.6861 273.512 76.0674 273.343 76.5675C273.182 77.059 273.101 77.648 273.101 78.3345C273.101 79.0125 273.182 79.6015 273.343 80.1015C273.512 80.593 273.749 80.9744 274.055 81.2456C274.368 81.5168 274.741 81.6524 275.173 81.6524Z" fill="#292626"/>
</g>
<defs>
<clipPath id="clip0_1633_8622">
<rect width="243" height="132" rx="5" fill="white"/>
</clipPath>
</defs>
</svg>
