<svg width="243" height="132" viewBox="0 0 243 132" fill="none" xmlns="http://www.w3.org/2000/svg">
<g clip-path="url(#clip0_1633_14952)">
<rect width="243" height="132" rx="5" fill="#F4F4F4"/>
<g clip-path="url(#clip1_1633_14952)">
<rect width="200" height="433.066" transform="translate(20 -59)" fill="white"/>
<g clip-path="url(#clip2_1633_14952)">
<rect x="154.135" y="91.3997" width="16" height="16" rx="8" fill="#E5E5E5"/>
<path d="M164.802 99.3982L159.469 99.3982" stroke="#1F2116" stroke-width="0.799998" stroke-linecap="round"/>
<path d="M181.486 96.9694V102.4H180.664V97.7913H180.632L179.333 98.6398V97.855L180.688 96.9694H181.486Z" fill="#171621"/>
<rect x="191.201" y="91.3997" width="16" height="16" rx="8" fill="#1F2116"/>
<path d="M199.134 96.7373L199.202 96.7327C199.323 96.7327 199.439 96.7764 199.53 96.8558C199.622 96.9353 199.681 97.045 199.697 97.1647L199.702 97.2327V98.8987L201.368 98.8993C201.489 98.8993 201.606 98.9431 201.697 99.0225C201.788 99.1019 201.847 99.2116 201.864 99.3313L201.868 99.3993C201.868 99.5202 201.825 99.6369 201.745 99.728C201.666 99.819 201.556 99.8782 201.436 99.8947L201.368 99.8993L199.702 99.8987V101.566C199.702 101.687 199.658 101.804 199.579 101.895C199.499 101.986 199.39 102.045 199.27 102.061L199.202 102.066C199.081 102.066 198.964 102.022 198.873 101.943C198.782 101.863 198.723 101.754 198.706 101.634L198.702 101.566V99.8987L197.035 99.8993C196.914 99.8993 196.798 99.8556 196.707 99.7762C196.615 99.6967 196.556 99.587 196.54 99.4673L196.535 99.3993C196.535 99.2785 196.579 99.1618 196.658 99.0707C196.738 98.9797 196.847 98.9204 196.967 98.904L197.035 98.8993L198.702 98.8987V97.2327C198.702 97.1118 198.746 96.9951 198.825 96.904C198.904 96.813 199.014 96.7538 199.134 96.7373L199.202 96.7327L199.134 96.7373Z" fill="white"/>
<path d="M33.4129 102.533V96.3269H34.5371V98.9542H37.4129V96.3269H38.5402V102.533H37.4129V99.8966H34.5371V102.533H33.4129ZM42.6811 100.575V97.8784H43.778V102.533H42.7144V101.706H42.6659C42.5609 101.966 42.3881 102.179 42.1477 102.345C41.9093 102.511 41.6154 102.594 41.2659 102.594C40.9609 102.594 40.6912 102.526 40.4568 102.391C40.2245 102.253 40.0427 102.054 39.9114 101.794C39.7801 101.531 39.7144 101.214 39.7144 100.842V97.8784H40.8114V100.672C40.8114 100.967 40.8922 101.202 41.0538 101.375C41.2154 101.549 41.4275 101.636 41.6902 101.636C41.8518 101.636 42.0083 101.597 42.1598 101.518C42.3114 101.439 42.4356 101.322 42.5326 101.166C42.6316 101.009 42.6811 100.812 42.6811 100.575ZM46.9667 102.624C46.5 102.624 46.097 102.527 45.7576 102.333C45.4202 102.137 45.1606 101.86 44.9788 101.503C44.797 101.143 44.7061 100.72 44.7061 100.233C44.7061 99.7542 44.797 99.334 44.9788 98.9724C45.1626 98.6087 45.4192 98.3259 45.7485 98.1239C46.0778 97.9198 46.4646 97.8178 46.9091 97.8178C47.1959 97.8178 47.4667 97.8643 47.7212 97.9572C47.9778 98.0481 48.204 98.1895 48.4 98.3815C48.598 98.5734 48.7535 98.8178 48.8667 99.1148C48.9798 99.4097 49.0363 99.7612 49.0363 100.169V100.506H45.2212V99.7663H47.9848C47.9828 99.5562 47.9374 99.3693 47.8485 99.2057C47.7596 99.04 47.6353 98.9097 47.4757 98.8148C47.3182 98.7198 47.1343 98.6724 46.9242 98.6724C46.7 98.6724 46.503 98.7269 46.3333 98.836C46.1636 98.9431 46.0313 99.0845 45.9364 99.2602C45.8434 99.434 45.796 99.6249 45.7939 99.833V100.478C45.7939 100.749 45.8434 100.981 45.9424 101.175C46.0414 101.367 46.1798 101.515 46.3576 101.618C46.5353 101.719 46.7434 101.769 46.9818 101.769C47.1414 101.769 47.2858 101.747 47.4151 101.703C47.5444 101.656 47.6566 101.589 47.7515 101.5C47.8465 101.411 47.9182 101.301 47.9667 101.169L48.9909 101.284C48.9262 101.555 48.803 101.792 48.6212 101.994C48.4414 102.194 48.2111 102.349 47.9303 102.46C47.6495 102.569 47.3283 102.624 46.9667 102.624ZM46.4576 97.2663L47.1364 95.8815H48.2091L47.2788 97.2663H46.4576ZM53.6432 99.1087L52.6432 99.2178C52.6149 99.1168 52.5654 99.0219 52.4947 98.933C52.426 98.8441 52.3331 98.7724 52.2159 98.7178C52.0987 98.6633 51.9553 98.636 51.7856 98.636C51.5573 98.636 51.3654 98.6855 51.2098 98.7845C51.0563 98.8835 50.9805 99.0118 50.9826 99.1693C50.9805 99.3047 51.03 99.4148 51.131 99.4996C51.2341 99.5845 51.4038 99.6542 51.6401 99.7087L52.4341 99.8784C52.8745 99.9734 53.2017 100.124 53.4159 100.33C53.632 100.536 53.7411 100.806 53.7432 101.139C53.7411 101.432 53.6553 101.691 53.4856 101.915C53.3179 102.137 53.0846 102.311 52.7856 102.436C52.4866 102.561 52.1432 102.624 51.7553 102.624C51.1856 102.624 50.727 102.505 50.3795 102.266C50.0321 102.026 49.825 101.692 49.7583 101.263L50.828 101.16C50.8765 101.37 50.9795 101.529 51.1371 101.636C51.2947 101.743 51.4997 101.797 51.7523 101.797C52.0129 101.797 52.2219 101.743 52.3795 101.636C52.5391 101.529 52.6189 101.397 52.6189 101.239C52.6189 101.106 52.5674 100.996 52.4644 100.909C52.3634 100.822 52.2058 100.755 51.9916 100.709L51.1977 100.542C50.7512 100.449 50.4209 100.293 50.2068 100.072C49.9927 99.8501 49.8866 99.5693 49.8886 99.2299C49.8866 98.9431 49.9644 98.6946 50.122 98.4845C50.2815 98.2724 50.5028 98.1087 50.7856 97.9936C51.0704 97.8764 51.3987 97.8178 51.7704 97.8178C52.3159 97.8178 52.7452 97.934 53.0583 98.1663C53.3735 98.3986 53.5684 98.7128 53.6432 99.1087ZM54.6477 104.278V97.8784H55.7265V98.6481H55.7901C55.8467 98.535 55.9265 98.4148 56.0295 98.2875C56.1325 98.1582 56.2719 98.0481 56.4477 97.9572C56.6235 97.8643 56.8477 97.8178 57.1204 97.8178C57.48 97.8178 57.8043 97.9097 58.0931 98.0936C58.3841 98.2754 58.6144 98.5451 58.7841 98.9027C58.9558 99.2582 59.0416 99.6946 59.0416 100.212C59.0416 100.723 58.9578 101.157 58.7901 101.515C58.6224 101.872 58.3942 102.145 58.1053 102.333C57.8164 102.521 57.4891 102.615 57.1234 102.615C56.8568 102.615 56.6356 102.57 56.4598 102.481C56.2841 102.393 56.1426 102.285 56.0356 102.16C55.9305 102.033 55.8487 101.913 55.7901 101.8H55.7447V104.278H54.6477ZM55.7235 100.206C55.7235 100.507 55.7659 100.77 55.8507 100.997C55.9376 101.223 56.0618 101.4 56.2235 101.527C56.3871 101.652 56.5851 101.715 56.8174 101.715C57.0598 101.715 57.2628 101.65 57.4265 101.521C57.5901 101.39 57.7133 101.211 57.7962 100.984C57.881 100.756 57.9234 100.497 57.9234 100.206C57.9234 99.9168 57.882 99.6602 57.7992 99.436C57.7164 99.2118 57.5931 99.036 57.4295 98.9087C57.2659 98.7815 57.0618 98.7178 56.8174 98.7178C56.583 98.7178 56.3841 98.7794 56.2204 98.9027C56.0568 99.0259 55.9325 99.1986 55.8477 99.4208C55.7649 99.6431 55.7235 99.9047 55.7235 100.206ZM62.0416 102.624C61.575 102.624 61.1719 102.527 60.8325 102.333C60.4952 102.137 60.2356 101.86 60.0537 101.503C59.8719 101.143 59.781 100.72 59.781 100.233C59.781 99.7542 59.8719 99.334 60.0537 98.9724C60.2376 98.6087 60.4941 98.3259 60.8234 98.1239C61.1527 97.9198 61.5396 97.8178 61.984 97.8178C62.2709 97.8178 62.5416 97.8643 62.7962 97.9572C63.0527 98.0481 63.279 98.1895 63.4749 98.3815C63.6729 98.5734 63.8285 98.8178 63.9416 99.1148C64.0547 99.4097 64.1113 99.7612 64.1113 100.169V100.506H60.2962V99.7663H63.0598C63.0578 99.5562 63.0123 99.3693 62.9234 99.2057C62.8345 99.04 62.7103 98.9097 62.5507 98.8148C62.3931 98.7198 62.2093 98.6724 61.9992 98.6724C61.775 98.6724 61.578 98.7269 61.4083 98.836C61.2386 98.9431 61.1063 99.0845 61.0113 99.2602C60.9184 99.434 60.8709 99.6249 60.8689 99.833V100.478C60.8689 100.749 60.9184 100.981 61.0174 101.175C61.1164 101.367 61.2548 101.515 61.4325 101.618C61.6103 101.719 61.8184 101.769 62.0568 101.769C62.2164 101.769 62.3608 101.747 62.4901 101.703C62.6194 101.656 62.7315 101.589 62.8265 101.5C62.9214 101.411 62.9931 101.301 63.0416 101.169L64.0659 101.284C64.0012 101.555 63.878 101.792 63.6962 101.994C63.5164 102.194 63.2861 102.349 63.0053 102.46C62.7244 102.569 62.4032 102.624 62.0416 102.624ZM66.7666 102.615C66.401 102.615 66.0737 102.521 65.7848 102.333C65.4959 102.145 65.2676 101.872 65.0999 101.515C64.9323 101.157 64.8484 100.723 64.8484 100.212C64.8484 99.6946 64.9333 99.2582 65.103 98.9027C65.2747 98.5451 65.506 98.2754 65.7969 98.0936C66.0878 97.9097 66.4121 97.8178 66.7696 97.8178C67.0424 97.8178 67.2666 97.8643 67.4424 97.9572C67.6181 98.0481 67.7575 98.1582 67.8605 98.2875C67.9636 98.4148 68.0434 98.535 68.0999 98.6481H68.1454V96.3269H69.2454V102.533H68.1666V101.8H68.0999C68.0434 101.913 67.9616 102.033 67.8545 102.16C67.7474 102.285 67.606 102.393 67.4302 102.481C67.2545 102.57 67.0333 102.615 66.7666 102.615ZM67.0727 101.715C67.305 101.715 67.503 101.652 67.6666 101.527C67.8302 101.4 67.9545 101.223 68.0393 100.997C68.1242 100.77 68.1666 100.507 68.1666 100.206C68.1666 99.9047 68.1242 99.6431 68.0393 99.4208C67.9565 99.1986 67.8333 99.0259 67.6696 98.9027C67.508 98.7794 67.309 98.7178 67.0727 98.7178C66.8282 98.7178 66.6242 98.7815 66.4605 98.9087C66.2969 99.036 66.1737 99.2118 66.0909 99.436C66.008 99.6602 65.9666 99.9168 65.9666 100.206C65.9666 100.497 66.008 100.756 66.0909 100.984C66.1757 101.211 66.2999 101.39 66.4636 101.521C66.6292 101.65 66.8323 101.715 67.0727 101.715ZM72.4749 102.624C72.0083 102.624 71.6052 102.527 71.2658 102.333C70.9285 102.137 70.6689 101.86 70.4871 101.503C70.3052 101.143 70.2143 100.72 70.2143 100.233C70.2143 99.7542 70.3052 99.334 70.4871 98.9724C70.6709 98.6087 70.9275 98.3259 71.2568 98.1239C71.586 97.9198 71.9729 97.8178 72.4174 97.8178C72.7042 97.8178 72.9749 97.8643 73.2295 97.9572C73.486 98.0481 73.7123 98.1895 73.9083 98.3815C74.1062 98.5734 74.2618 98.8178 74.3749 99.1148C74.4881 99.4097 74.5446 99.7612 74.5446 100.169V100.506H70.7295V99.7663H73.4931C73.4911 99.5562 73.4456 99.3693 73.3567 99.2057C73.2679 99.04 73.1436 98.9097 72.984 98.8148C72.8264 98.7198 72.6426 98.6724 72.4325 98.6724C72.2083 98.6724 72.0113 98.7269 71.8416 98.836C71.6719 98.9431 71.5396 99.0845 71.4446 99.2602C71.3517 99.434 71.3042 99.6249 71.3022 99.833V100.478C71.3022 100.749 71.3517 100.981 71.4507 101.175C71.5497 101.367 71.6881 101.515 71.8658 101.618C72.0436 101.719 72.2517 101.769 72.4901 101.769C72.6497 101.769 72.7941 101.747 72.9234 101.703C73.0527 101.656 73.1648 101.589 73.2598 101.5C73.3547 101.411 73.4264 101.301 73.4749 101.169L74.4992 101.284C74.4345 101.555 74.3113 101.792 74.1295 101.994C73.9497 102.194 73.7194 102.349 73.4386 102.46C73.1578 102.569 72.8365 102.624 72.4749 102.624ZM79.1514 99.1087L78.1514 99.2178C78.1231 99.1168 78.0737 99.0219 78.0029 98.933C77.9343 98.8441 77.8413 98.7724 77.7242 98.7178C77.607 98.6633 77.4636 98.636 77.2939 98.636C77.0656 98.636 76.8737 98.6855 76.7181 98.7845C76.5646 98.8835 76.4888 99.0118 76.4908 99.1693C76.4888 99.3047 76.5383 99.4148 76.6393 99.4996C76.7423 99.5845 76.912 99.6542 77.1484 99.7087L77.9423 99.8784C78.3827 99.9734 78.71 100.124 78.9242 100.33C79.1403 100.536 79.2494 100.806 79.2514 101.139C79.2494 101.432 79.1635 101.691 78.9939 101.915C78.8262 102.137 78.5928 102.311 78.2939 102.436C77.9949 102.561 77.6514 102.624 77.2636 102.624C76.6939 102.624 76.2353 102.505 75.8878 102.266C75.5403 102.026 75.3333 101.692 75.2666 101.263L76.3363 101.16C76.3848 101.37 76.4878 101.529 76.6454 101.636C76.8029 101.743 77.008 101.797 77.2605 101.797C77.5211 101.797 77.7302 101.743 77.8878 101.636C78.0474 101.529 78.1272 101.397 78.1272 101.239C78.1272 101.106 78.0757 100.996 77.9726 100.909C77.8716 100.822 77.7141 100.755 77.4999 100.709L76.706 100.542C76.2595 100.449 75.9292 100.293 75.7151 100.072C75.5009 99.8501 75.3949 99.5693 75.3969 99.2299C75.3949 98.9431 75.4726 98.6946 75.6302 98.4845C75.7898 98.2724 76.011 98.1087 76.2939 97.9936C76.5787 97.8764 76.907 97.8178 77.2787 97.8178C77.8242 97.8178 78.2534 97.934 78.5666 98.1663C78.8817 98.3986 79.0767 98.7128 79.1514 99.1087Z" fill="#171621"/>
</g>
<path d="M33.4129 132.4V126.194H35.7402C36.2169 126.194 36.6169 126.283 36.9402 126.46C37.2654 126.638 37.5109 126.882 37.6765 127.194C37.8442 127.503 37.928 127.854 37.928 128.248C37.928 128.646 37.8442 129 37.6765 129.309C37.5089 129.618 37.2614 129.861 36.9341 130.039C36.6068 130.215 36.2038 130.303 35.725 130.303H34.1826V129.378H35.5735C35.8523 129.378 36.0806 129.33 36.2583 129.233C36.4361 129.136 36.5674 129.003 36.6523 128.833C36.7392 128.663 36.7826 128.468 36.7826 128.248C36.7826 128.028 36.7392 127.834 36.6523 127.666C36.5674 127.499 36.4351 127.368 36.2553 127.275C36.0775 127.18 35.8482 127.133 35.5674 127.133H34.5371V132.4H33.4129ZM40.1121 132.494C39.8172 132.494 39.5515 132.441 39.3152 132.336C39.0808 132.229 38.895 132.071 38.7576 131.863C38.6222 131.655 38.5546 131.399 38.5546 131.094C38.5546 130.831 38.603 130.614 38.7 130.442C38.797 130.27 38.9293 130.133 39.097 130.03C39.2647 129.927 39.4535 129.849 39.6636 129.797C39.8758 129.742 40.095 129.703 40.3212 129.678C40.5939 129.65 40.8152 129.625 40.9849 129.603C41.1545 129.578 41.2778 129.542 41.3545 129.494C41.4333 129.443 41.4727 129.365 41.4727 129.26V129.242C41.4727 129.014 41.4051 128.837 41.2697 128.712C41.1343 128.587 40.9394 128.524 40.6849 128.524C40.4162 128.524 40.203 128.582 40.0455 128.7C39.8899 128.817 39.7849 128.955 39.7303 129.115L38.7061 128.969C38.7869 128.687 38.9202 128.45 39.1061 128.26C39.2919 128.068 39.5192 127.925 39.7879 127.83C40.0566 127.733 40.3535 127.685 40.6788 127.685C40.903 127.685 41.1263 127.711 41.3485 127.763C41.5707 127.816 41.7737 127.903 41.9576 128.024C42.1414 128.143 42.2889 128.306 42.4 128.512C42.5131 128.718 42.5697 128.975 42.5697 129.285V132.4H41.5152V131.76H41.4788C41.4121 131.89 41.3182 132.011 41.197 132.124C41.0778 132.235 40.9273 132.325 40.7455 132.394C40.5657 132.46 40.3546 132.494 40.1121 132.494ZM40.397 131.688C40.6172 131.688 40.8081 131.644 40.9697 131.557C41.1313 131.468 41.2556 131.351 41.3424 131.206C41.4313 131.06 41.4758 130.902 41.4758 130.73V130.181C41.4414 130.21 41.3828 130.236 41.3 130.26C41.2192 130.285 41.1283 130.306 41.0273 130.324C40.9263 130.342 40.8263 130.358 40.7273 130.372C40.6283 130.387 40.5424 130.399 40.4697 130.409C40.3061 130.431 40.1596 130.467 40.0303 130.518C39.901 130.568 39.799 130.639 39.7242 130.73C39.6495 130.819 39.6121 130.934 39.6121 131.075C39.6121 131.277 39.6859 131.43 39.8333 131.533C39.9808 131.636 40.1687 131.688 40.397 131.688ZM45.697 134.242C45.303 134.242 44.9646 134.189 44.6818 134.081C44.399 133.976 44.1717 133.835 44 133.657C43.8283 133.479 43.7091 133.282 43.6424 133.066L44.6303 132.827C44.6747 132.918 44.7394 133.008 44.8242 133.097C44.9091 133.188 45.0232 133.262 45.1667 133.321C45.3121 133.381 45.4949 133.412 45.7151 133.412C46.0263 133.412 46.2838 133.336 46.4879 133.185C46.6919 133.035 46.7939 132.789 46.7939 132.445V131.563H46.7394C46.6828 131.676 46.6 131.793 46.4909 131.912C46.3838 132.031 46.2414 132.131 46.0636 132.212C45.8879 132.293 45.6667 132.333 45.4 132.333C45.0424 132.333 44.7182 132.249 44.4273 132.081C44.1384 131.912 43.9081 131.659 43.7364 131.324C43.5667 130.987 43.4818 130.564 43.4818 130.057C43.4818 129.546 43.5667 129.115 43.7364 128.763C43.9081 128.41 44.1394 128.142 44.4303 127.96C44.7212 127.776 45.0454 127.685 45.403 127.685C45.6758 127.685 45.9 127.731 46.0757 127.824C46.2535 127.915 46.3949 128.025 46.5 128.154C46.605 128.281 46.6848 128.402 46.7394 128.515H46.8V127.745H47.8818V132.475C47.8818 132.873 47.7869 133.203 47.597 133.463C47.4071 133.724 47.1475 133.919 46.8182 134.048C46.4889 134.177 46.1151 134.242 45.697 134.242ZM45.7061 131.472C45.9384 131.472 46.1364 131.416 46.3 131.303C46.4636 131.19 46.5879 131.027 46.6727 130.815C46.7576 130.603 46.8 130.348 46.8 130.051C46.8 129.758 46.7576 129.502 46.6727 129.281C46.5899 129.061 46.4667 128.891 46.303 128.769C46.1414 128.646 45.9424 128.585 45.7061 128.585C45.4616 128.585 45.2576 128.648 45.0939 128.775C44.9303 128.903 44.8071 129.077 44.7242 129.3C44.6414 129.52 44.6 129.77 44.6 130.051C44.6 130.336 44.6414 130.586 44.7242 130.8C44.8091 131.012 44.9333 131.177 45.097 131.297C45.2626 131.414 45.4656 131.472 45.7061 131.472ZM50.3454 132.494C50.0505 132.494 49.7848 132.441 49.5485 132.336C49.3141 132.229 49.1283 132.071 48.9909 131.863C48.8555 131.655 48.7879 131.399 48.7879 131.094C48.7879 130.831 48.8363 130.614 48.9333 130.442C49.0303 130.27 49.1626 130.133 49.3303 130.03C49.498 129.927 49.6869 129.849 49.897 129.797C50.1091 129.742 50.3283 129.703 50.5545 129.678C50.8273 129.65 51.0485 129.625 51.2182 129.603C51.3879 129.578 51.5111 129.542 51.5879 129.494C51.6666 129.443 51.706 129.365 51.706 129.26V129.242C51.706 129.014 51.6384 128.837 51.503 128.712C51.3677 128.587 51.1727 128.524 50.9182 128.524C50.6495 128.524 50.4363 128.582 50.2788 128.7C50.1232 128.817 50.0182 128.955 49.9636 129.115L48.9394 128.969C49.0202 128.687 49.1535 128.45 49.3394 128.26C49.5252 128.068 49.7525 127.925 50.0212 127.83C50.2899 127.733 50.5868 127.685 50.9121 127.685C51.1363 127.685 51.3596 127.711 51.5818 127.763C51.804 127.816 52.007 127.903 52.1909 128.024C52.3747 128.143 52.5222 128.306 52.6333 128.512C52.7464 128.718 52.803 128.975 52.803 129.285V132.4H51.7485V131.76H51.7121C51.6454 131.89 51.5515 132.011 51.4303 132.124C51.3111 132.235 51.1606 132.325 50.9788 132.394C50.799 132.46 50.5879 132.494 50.3454 132.494ZM50.6303 131.688C50.8505 131.688 51.0414 131.644 51.203 131.557C51.3646 131.468 51.4889 131.351 51.5757 131.206C51.6646 131.06 51.7091 130.902 51.7091 130.73V130.181C51.6747 130.21 51.6161 130.236 51.5333 130.26C51.4525 130.285 51.3616 130.306 51.2606 130.324C51.1596 130.342 51.0596 130.358 50.9606 130.372C50.8616 130.387 50.7757 130.399 50.703 130.409C50.5394 130.431 50.3929 130.467 50.2636 130.518C50.1343 130.568 50.0323 130.639 49.9576 130.73C49.8828 130.819 49.8454 130.934 49.8454 131.075C49.8454 131.277 49.9192 131.43 50.0666 131.533C50.2141 131.636 50.402 131.688 50.6303 131.688ZM53.906 132.4V127.745H54.9697V128.521H55.0182C55.103 128.252 55.2485 128.045 55.4545 127.9C55.6626 127.752 55.9 127.678 56.1666 127.678C56.2272 127.678 56.2949 127.681 56.3697 127.688C56.4464 127.692 56.5101 127.699 56.5606 127.709V128.718C56.5141 128.702 56.4404 128.688 56.3394 128.675C56.2404 128.661 56.1444 128.654 56.0515 128.654C55.8515 128.654 55.6717 128.698 55.5121 128.785C55.3545 128.869 55.2303 128.988 55.1394 129.139C55.0485 129.291 55.003 129.465 55.003 129.663V132.4H53.906ZM61.4363 132.491C60.9717 132.491 60.5727 132.389 60.2394 132.185C59.908 131.98 59.6525 131.699 59.4727 131.339C59.2949 130.977 59.206 130.561 59.206 130.091C59.206 129.618 59.2969 129.201 59.4787 128.839C59.6606 128.475 59.9171 128.193 60.2484 127.991C60.5818 127.787 60.9757 127.685 61.4303 127.685C61.808 127.685 62.1424 127.754 62.4333 127.894C62.7262 128.031 62.9595 128.226 63.1333 128.478C63.307 128.729 63.406 129.022 63.4303 129.357H62.3818C62.3393 129.133 62.2383 128.946 62.0787 128.797C61.9212 128.645 61.7101 128.569 61.4454 128.569C61.2212 128.569 61.0242 128.63 60.8545 128.751C60.6848 128.87 60.5525 129.042 60.4575 129.266C60.3646 129.491 60.3181 129.759 60.3181 130.072C60.3181 130.39 60.3646 130.662 60.4575 130.891C60.5505 131.117 60.6808 131.292 60.8484 131.415C61.0181 131.536 61.2171 131.597 61.4454 131.597C61.607 131.597 61.7515 131.566 61.8787 131.506C62.008 131.443 62.1161 131.353 62.203 131.236C62.2899 131.119 62.3494 130.976 62.3818 130.809H63.4303C63.404 131.138 63.307 131.43 63.1393 131.685C62.9717 131.937 62.7434 132.135 62.4545 132.278C62.1656 132.42 61.8262 132.491 61.4363 132.491ZM66.3613 132.491C65.9068 132.491 65.5128 132.391 65.1795 132.191C64.8462 131.991 64.5876 131.711 64.4037 131.351C64.2219 130.992 64.131 130.571 64.131 130.091C64.131 129.61 64.2219 129.189 64.4037 128.827C64.5876 128.465 64.8462 128.185 65.1795 127.985C65.5128 127.785 65.9068 127.685 66.3613 127.685C66.8159 127.685 67.2098 127.785 67.5431 127.985C67.8765 128.185 68.134 128.465 68.3158 128.827C68.4997 129.189 68.5916 129.61 68.5916 130.091C68.5916 130.571 68.4997 130.992 68.3158 131.351C68.134 131.711 67.8765 131.991 67.5431 132.191C67.2098 132.391 66.8159 132.491 66.3613 132.491ZM66.3674 131.612C66.6138 131.612 66.8199 131.544 66.9855 131.409C67.1512 131.271 67.2744 131.088 67.3552 130.857C67.4381 130.627 67.4795 130.37 67.4795 130.088C67.4795 129.803 67.4381 129.545 67.3552 129.315C67.2744 129.082 67.1512 128.898 66.9855 128.76C66.8199 128.623 66.6138 128.554 66.3674 128.554C66.1148 128.554 65.9047 128.623 65.7371 128.76C65.5714 128.898 65.4472 129.082 65.3643 129.315C65.2835 129.545 65.2431 129.803 65.2431 130.088C65.2431 130.37 65.2835 130.627 65.3643 130.857C65.4472 131.088 65.5714 131.271 65.7371 131.409C65.9047 131.544 66.1148 131.612 66.3674 131.612ZM70.6196 129.672V132.4H69.5227V127.745H70.5711V128.536H70.6257C70.7328 128.275 70.9035 128.068 71.1378 127.915C71.3742 127.761 71.6661 127.685 72.0136 127.685C72.3348 127.685 72.6146 127.753 72.853 127.891C73.0934 128.028 73.2792 128.227 73.4105 128.488C73.5439 128.748 73.6095 129.064 73.6075 129.436V132.4H72.5105V129.606C72.5105 129.295 72.4297 129.051 72.2681 128.875C72.1085 128.7 71.8873 128.612 71.6045 128.612C71.4126 128.612 71.2418 128.654 71.0924 128.739C70.9449 128.822 70.8287 128.942 70.7439 129.1C70.661 129.257 70.6196 129.448 70.6196 129.672Z" fill="#171621"/>
<path d="M33.4129 14V7.79395H35.7402C36.2169 7.79395 36.6169 7.87678 36.9402 8.04244C37.2654 8.20809 37.5109 8.44042 37.6765 8.73941C37.8442 9.03638 37.928 9.38284 37.928 9.7788C37.928 10.1768 37.8432 10.5222 37.6735 10.8152C37.5058 11.1061 37.2583 11.3313 36.9311 11.4909C36.6038 11.6485 36.2018 11.7273 35.725 11.7273H34.0674V10.7939H35.5735C35.8523 10.7939 36.0806 10.7556 36.2583 10.6788C36.4361 10.6 36.5674 10.4859 36.6523 10.3364C36.7392 10.1849 36.7826 9.999 36.7826 9.7788C36.7826 9.5586 36.7392 9.37072 36.6523 9.21516C36.5654 9.05759 36.4331 8.9384 36.2553 8.85759C36.0775 8.77476 35.8482 8.73335 35.5674 8.73335H34.5371V14H33.4129ZM36.619 11.1879L38.1553 14H36.9008L35.3917 11.1879H36.619ZM40.9083 14.0909C40.4417 14.0909 40.0386 13.9939 39.6992 13.8C39.3619 13.604 39.1023 13.3273 38.9205 12.9697C38.7386 12.6101 38.6477 12.1869 38.6477 11.7C38.6477 11.2212 38.7386 10.801 38.9205 10.4394C39.1043 10.0758 39.3609 9.79294 39.6902 9.59092C40.0195 9.38688 40.4063 9.28486 40.8508 9.28486C41.1376 9.28486 41.4083 9.33132 41.6629 9.42425C41.9194 9.51516 42.1457 9.65658 42.3417 9.84849C42.5396 10.0404 42.6952 10.2849 42.8083 10.5818C42.9215 10.8768 42.978 11.2283 42.978 11.6364V11.9727H39.1629V11.2333H41.9265C41.9245 11.0232 41.879 10.8364 41.7902 10.6727C41.7013 10.5071 41.577 10.3768 41.4174 10.2818C41.2599 10.1869 41.076 10.1394 40.8659 10.1394C40.6417 10.1394 40.4447 10.1939 40.275 10.303C40.1053 10.4101 39.973 10.5515 39.878 10.7273C39.7851 10.901 39.7376 11.0919 39.7356 11.3V11.9455C39.7356 12.2162 39.7851 12.4485 39.8841 12.6424C39.9831 12.8343 40.1215 12.9818 40.2992 13.0849C40.477 13.1859 40.6851 13.2364 40.9235 13.2364C41.0831 13.2364 41.2275 13.2141 41.3568 13.1697C41.4861 13.1232 41.5982 13.0556 41.6932 12.9667C41.7881 12.8778 41.8599 12.7677 41.9083 12.6364L42.9326 12.7515C42.8679 13.0222 42.7447 13.2586 42.5629 13.4606C42.3831 13.6606 42.1528 13.8162 41.872 13.9273C41.5912 14.0364 41.27 14.0909 40.9083 14.0909ZM47.5848 10.5758L46.5848 10.6849C46.5566 10.5838 46.5071 10.4889 46.4364 10.4C46.3677 10.3111 46.2747 10.2394 46.1576 10.1849C46.0404 10.1303 45.897 10.103 45.7273 10.103C45.499 10.103 45.3071 10.1525 45.1515 10.2515C44.998 10.3505 44.9222 10.4788 44.9242 10.6364C44.9222 10.7717 44.9717 10.8818 45.0727 10.9667C45.1758 11.0515 45.3454 11.1212 45.5818 11.1758L46.3757 11.3455C46.8162 11.4404 47.1434 11.5909 47.3576 11.797C47.5737 12.003 47.6828 12.2727 47.6848 12.6061C47.6828 12.899 47.597 13.1576 47.4273 13.3818C47.2596 13.604 47.0263 13.7778 46.7273 13.903C46.4283 14.0283 46.0848 14.0909 45.697 14.0909C45.1273 14.0909 44.6687 13.9717 44.3212 13.7333C43.9737 13.4929 43.7667 13.1586 43.7 12.7303L44.7697 12.6273C44.8182 12.8374 44.9212 12.996 45.0788 13.103C45.2364 13.2101 45.4414 13.2636 45.6939 13.2636C45.9545 13.2636 46.1636 13.2101 46.3212 13.103C46.4808 12.996 46.5606 12.8636 46.5606 12.7061C46.5606 12.5727 46.5091 12.4626 46.4061 12.3758C46.305 12.2889 46.1475 12.2222 45.9333 12.1758L45.1394 12.0091C44.6929 11.9162 44.3626 11.7596 44.1485 11.5394C43.9343 11.3172 43.8283 11.0364 43.8303 10.697C43.8283 10.4101 43.9061 10.1616 44.0636 9.95152C44.2232 9.7394 44.4444 9.57577 44.7273 9.46062C45.0121 9.34345 45.3404 9.28486 45.7121 9.28486C46.2576 9.28486 46.6869 9.40102 47 9.63334C47.3151 9.86567 47.5101 10.1798 47.5848 10.5758ZM50.65 14.0909C50.1833 14.0909 49.7803 13.9939 49.4409 13.8C49.1035 13.604 48.8439 13.3273 48.6621 12.9697C48.4803 12.6101 48.3894 12.1869 48.3894 11.7C48.3894 11.2212 48.4803 10.801 48.6621 10.4394C48.8459 10.0758 49.1025 9.79294 49.4318 9.59092C49.7611 9.38688 50.148 9.28486 50.5924 9.28486C50.8793 9.28486 51.15 9.33132 51.4045 9.42425C51.6611 9.51516 51.8874 9.65658 52.0833 9.84849C52.2813 10.0404 52.4368 10.2849 52.55 10.5818C52.6631 10.8768 52.7197 11.2283 52.7197 11.6364V11.9727H48.9045V11.2333H51.6682C51.6661 11.0232 51.6207 10.8364 51.5318 10.6727C51.4429 10.5071 51.3187 10.3768 51.1591 10.2818C51.0015 10.1869 50.8177 10.1394 50.6076 10.1394C50.3833 10.1394 50.1863 10.1939 50.0166 10.303C49.847 10.4101 49.7146 10.5515 49.6197 10.7273C49.5268 10.901 49.4793 11.0919 49.4773 11.3V11.9455C49.4773 12.2162 49.5268 12.4485 49.6257 12.6424C49.7247 12.8343 49.8631 12.9818 50.0409 13.0849C50.2187 13.1859 50.4267 13.2364 50.6651 13.2364C50.8247 13.2364 50.9692 13.2141 51.0985 13.1697C51.2278 13.1232 51.3399 13.0556 51.4348 12.9667C51.5298 12.8778 51.6015 12.7677 51.65 12.6364L52.6742 12.7515C52.6096 13.0222 52.4863 13.2586 52.3045 13.4606C52.1247 13.6606 51.8944 13.8162 51.6136 13.9273C51.3328 14.0364 51.0116 14.0909 50.65 14.0909ZM53.6477 14V9.34547H54.7113V10.1212H54.7598C54.8447 9.85254 54.9901 9.64547 55.1962 9.50001C55.4043 9.35254 55.6416 9.2788 55.9083 9.2788C55.9689 9.2788 56.0366 9.28183 56.1113 9.28789C56.1881 9.29193 56.2517 9.299 56.3022 9.3091V10.3182C56.2558 10.302 56.182 10.2879 56.081 10.2758C55.982 10.2616 55.8861 10.2546 55.7931 10.2546C55.5931 10.2546 55.4134 10.298 55.2538 10.3849C55.0962 10.4697 54.9719 10.5879 54.881 10.7394C54.7901 10.8909 54.7447 11.0657 54.7447 11.2636V14H53.6477ZM61.3303 9.34547L59.6727 14H58.4606L56.803 9.34547H57.9727L59.0424 12.803H59.0909L60.1636 9.34547H61.3303ZM63.2954 14.0939C63.0005 14.0939 62.7348 14.0414 62.4984 13.9364C62.2641 13.8293 62.0782 13.6717 61.9409 13.4636C61.8055 13.2556 61.7378 12.999 61.7378 12.6939C61.7378 12.4313 61.7863 12.2141 61.8833 12.0424C61.9803 11.8707 62.1126 11.7333 62.2803 11.6303C62.4479 11.5273 62.6368 11.4495 62.8469 11.397C63.059 11.3424 63.2782 11.303 63.5045 11.2788C63.7772 11.2505 63.9984 11.2253 64.1681 11.203C64.3378 11.1788 64.4611 11.1424 64.5378 11.0939C64.6166 11.0434 64.656 10.9657 64.656 10.8606V10.8424C64.656 10.6141 64.5883 10.4374 64.453 10.3121C64.3176 10.1869 64.1227 10.1243 63.8681 10.1243C63.5994 10.1243 63.3863 10.1828 63.2287 10.3C63.0732 10.4172 62.9681 10.5556 62.9136 10.7152L61.8893 10.5697C61.9702 10.2869 62.1035 10.0505 62.2893 9.86062C62.4752 9.6687 62.7025 9.52526 62.9712 9.43031C63.2399 9.33334 63.5368 9.28486 63.8621 9.28486C64.0863 9.28486 64.3095 9.31112 64.5318 9.36365C64.754 9.41617 64.957 9.50304 65.1409 9.62425C65.3247 9.74344 65.4722 9.90607 65.5833 10.1121C65.6964 10.3182 65.753 10.5758 65.753 10.8849V14H64.6984V13.3606H64.6621C64.5954 13.4899 64.5015 13.6111 64.3803 13.7242C64.2611 13.8354 64.1106 13.9253 63.9287 13.9939C63.7489 14.0606 63.5378 14.0939 63.2954 14.0939ZM63.5803 13.2879C63.8005 13.2879 63.9914 13.2444 64.153 13.1576C64.3146 13.0687 64.4388 12.9515 64.5257 12.8061C64.6146 12.6606 64.659 12.502 64.659 12.3303V11.7818C64.6247 11.8101 64.5661 11.8364 64.4833 11.8606C64.4025 11.8849 64.3116 11.9061 64.2106 11.9242C64.1095 11.9424 64.0095 11.9586 63.9106 11.9727C63.8116 11.9869 63.7257 11.999 63.653 12.0091C63.4893 12.0313 63.3429 12.0677 63.2136 12.1182C63.0843 12.1687 62.9823 12.2394 62.9075 12.3303C62.8328 12.4192 62.7954 12.5343 62.7954 12.6758C62.7954 12.8778 62.8691 13.0303 63.0166 13.1333C63.1641 13.2364 63.352 13.2879 63.5803 13.2879ZM68.8863 14.0909C68.4217 14.0909 68.0227 13.9889 67.6893 13.7848C67.358 13.5808 67.1025 13.299 66.9227 12.9394C66.7449 12.5778 66.656 12.1616 66.656 11.6909C66.656 11.2182 66.7469 10.801 66.9287 10.4394C67.1105 10.0758 67.3671 9.79294 67.6984 9.59092C68.0318 9.38688 68.4257 9.28486 68.8802 9.28486C69.258 9.28486 69.5924 9.35456 69.8833 9.49395C70.1762 9.63132 70.4095 9.82627 70.5833 10.0788C70.757 10.3293 70.856 10.6222 70.8802 10.9576H69.8318C69.7893 10.7333 69.6883 10.5465 69.5287 10.397C69.3711 10.2455 69.16 10.1697 68.8954 10.1697C68.6711 10.1697 68.4742 10.2303 68.3045 10.3515C68.1348 10.4707 68.0025 10.6424 67.9075 10.8667C67.8146 11.0909 67.7681 11.3596 67.7681 11.6727C67.7681 11.9899 67.8146 12.2626 67.9075 12.4909C68.0004 12.7172 68.1307 12.8919 68.2984 13.0152C68.4681 13.1364 68.6671 13.197 68.8954 13.197C69.057 13.197 69.2015 13.1667 69.3287 13.1061C69.458 13.0434 69.5661 12.9535 69.653 12.8364C69.7398 12.7192 69.7994 12.5768 69.8318 12.4091H70.8802C70.854 12.7384 70.757 13.0303 70.5893 13.2849C70.4216 13.5374 70.1934 13.7354 69.9045 13.8788C69.6156 14.0202 69.2762 14.0909 68.8863 14.0909ZM71.781 14V9.34547H72.878V14H71.781ZM72.3325 8.68486C72.1588 8.68486 72.0093 8.62729 71.884 8.51213C71.7588 8.39496 71.6961 8.25456 71.6961 8.09092C71.6961 7.92527 71.7588 7.78486 71.884 7.66971C72.0093 7.55254 72.1588 7.49395 72.3325 7.49395C72.5083 7.49395 72.6578 7.55254 72.781 7.66971C72.9062 7.78486 72.9689 7.92527 72.9689 8.09092C72.9689 8.25456 72.9062 8.39496 72.781 8.51213C72.6578 8.62729 72.5083 8.68486 72.3325 8.68486ZM76.0363 14.0909C75.5817 14.0909 75.1878 13.9909 74.8545 13.7909C74.5211 13.5909 74.2625 13.3111 74.0787 12.9515C73.8969 12.5919 73.806 12.1717 73.806 11.6909C73.806 11.2101 73.8969 10.7889 74.0787 10.4273C74.2625 10.0657 74.5211 9.78486 74.8545 9.58486C75.1878 9.38486 75.5817 9.28486 76.0363 9.28486C76.4908 9.28486 76.8848 9.38486 77.2181 9.58486C77.5514 9.78486 77.809 10.0657 77.9908 10.4273C78.1747 10.7889 78.2666 11.2101 78.2666 11.6909C78.2666 12.1717 78.1747 12.5919 77.9908 12.9515C77.809 13.3111 77.5514 13.5909 77.2181 13.7909C76.8848 13.9909 76.4908 14.0909 76.0363 14.0909ZM76.0423 13.2121C76.2888 13.2121 76.4949 13.1444 76.6605 13.0091C76.8262 12.8717 76.9494 12.6879 77.0302 12.4576C77.113 12.2273 77.1545 11.9707 77.1545 11.6879C77.1545 11.403 77.113 11.1455 77.0302 10.9152C76.9494 10.6828 76.8262 10.498 76.6605 10.3606C76.4949 10.2232 76.2888 10.1546 76.0423 10.1546C75.7898 10.1546 75.5797 10.2232 75.412 10.3606C75.2464 10.498 75.1221 10.6828 75.0393 10.9152C74.9585 11.1455 74.9181 11.403 74.9181 11.6879C74.9181 11.9707 74.9585 12.2273 75.0393 12.4576C75.1221 12.6879 75.2464 12.8717 75.412 13.0091C75.5797 13.1444 75.7898 13.2121 76.0423 13.2121ZM75.6151 8.73335L76.2939 7.3485H77.3666L76.4363 8.73335H75.6151ZM80.2946 11.2727V14H79.1976V9.34547H80.2461V10.1364H80.3007C80.4077 9.87577 80.5784 9.6687 80.8128 9.51516C81.0491 9.36163 81.3411 9.28486 81.6885 9.28486C82.0098 9.28486 82.2895 9.35355 82.5279 9.49092C82.7683 9.62829 82.9542 9.82728 83.0855 10.0879C83.2188 10.3485 83.2845 10.6647 83.2825 11.0364V14H82.1855V11.2061C82.1855 10.895 82.1047 10.6515 81.9431 10.4758C81.7835 10.3 81.5623 10.2121 81.2795 10.2121C81.0875 10.2121 80.9168 10.2546 80.7673 10.3394C80.6199 10.4222 80.5037 10.5424 80.4188 10.7C80.336 10.8576 80.2946 11.0485 80.2946 11.2727Z" fill="#171621"/>
<rect x="32.8008" y="25.5332" width="84.2665" height="50.5333" rx="8.53331" fill="#F7F7F7" fill-opacity="0.968627"/>
<g clip-path="url(#clip3_1633_14952)">
<path d="M44.8902 36.1211V37.4544M48.4457 36.1211V37.4544M42.8902 39.2722H50.4457M50.668 39.01V42.7878C50.668 44.1211 50.0013 45.01 48.4457 45.01H44.8902C43.3346 45.01 42.668 44.1211 42.668 42.7878V39.01C42.668 37.6766 43.3346 36.7878 44.8902 36.7878H48.4457C50.0013 36.7878 50.668 37.6766 50.668 39.01Z" stroke="#262626" stroke-width="0.666665" stroke-miterlimit="10" stroke-linecap="round" stroke-linejoin="round"/>
<path d="M48.3089 41.321H48.3129M48.3089 42.6544H48.3129M46.6644 41.321H46.6689M46.6644 42.6544H46.6689M45.0195 41.321H45.024M45.0195 42.6544H45.024" stroke="#262626" stroke-width="0.888887" stroke-linecap="round" stroke-linejoin="round"/>
</g>
<path d="M58.0158 44.0664V37.8604H58.9522V43.2603H61.7643V44.0664H58.0158ZM63.6658 37.8604V44.0664H62.7597V37.8604H63.6658ZM66.8908 44.1603C66.4322 44.1603 66.0372 44.0624 65.7059 43.8664C65.3766 43.6684 65.1221 43.3907 64.9423 43.0331C64.7645 42.6735 64.6756 42.2523 64.6756 41.7694C64.6756 41.2927 64.7645 40.8725 64.9423 40.5088C65.1221 40.1452 65.3726 39.8614 65.6938 39.6573C66.017 39.4533 66.3948 39.3513 66.8271 39.3513C67.0898 39.3513 67.3443 39.3947 67.5908 39.4816C67.8372 39.5684 68.0585 39.7048 68.2544 39.8907C68.4504 40.0765 68.6049 40.3179 68.718 40.6149C68.8312 40.9098 68.8877 41.2684 68.8877 41.6907V42.0119H65.1878V41.3331H67.9999C67.9999 41.0947 67.9514 40.8836 67.8544 40.6997C67.7574 40.5139 67.6211 40.3674 67.4453 40.2604C67.2716 40.1533 67.0675 40.0997 66.8332 40.0997C66.5787 40.0997 66.3564 40.1624 66.1665 40.2876C65.9787 40.4109 65.8332 40.5725 65.7302 40.7725C65.6292 40.9705 65.5787 41.1856 65.5787 41.4179V41.9482C65.5787 42.2593 65.6332 42.524 65.7423 42.7422C65.8534 42.9603 66.008 43.127 66.2059 43.2422C66.4039 43.3553 66.6352 43.4119 66.8999 43.4119C67.0716 43.4119 67.2282 43.3876 67.3696 43.3391C67.511 43.2886 67.6332 43.2139 67.7362 43.1149C67.8393 43.0159 67.9181 42.8937 67.9726 42.7482L68.8302 42.9028C68.7615 43.1553 68.6383 43.3765 68.4605 43.5664C68.2847 43.7543 68.0635 43.9008 67.7968 44.0058C67.5322 44.1088 67.2302 44.1603 66.8908 44.1603ZM71.8446 45.9088C71.4749 45.9088 71.1567 45.8603 70.89 45.7634C70.6254 45.6664 70.4092 45.5381 70.2415 45.3785C70.0739 45.2189 69.9486 45.0442 69.8658 44.8543L70.6446 44.5331C70.6991 44.622 70.7718 44.7159 70.8627 44.8149C70.9557 44.9159 71.0809 45.0018 71.2385 45.0725C71.3981 45.1432 71.6031 45.1785 71.8536 45.1785C72.1971 45.1785 72.4809 45.0947 72.7052 44.927C72.9294 44.7614 73.0415 44.4967 73.0415 44.1331V43.2179H72.9839C72.9294 43.3169 72.8506 43.427 72.7476 43.5482C72.6466 43.6694 72.5072 43.7745 72.3294 43.8634C72.1516 43.9523 71.9203 43.9967 71.6355 43.9967C71.2678 43.9967 70.9365 43.9109 70.6415 43.7391C70.3486 43.5654 70.1163 43.3098 69.9446 42.9725C69.7749 42.6331 69.69 42.2159 69.69 41.721C69.69 41.226 69.7739 40.8018 69.9415 40.4482C70.1112 40.0947 70.3435 39.824 70.6385 39.6361C70.9334 39.4462 71.2678 39.3513 71.6415 39.3513C71.9304 39.3513 72.1637 39.3998 72.3415 39.4967C72.5193 39.5917 72.6577 39.7028 72.7567 39.8301C72.8577 39.9573 72.9355 40.0694 72.99 40.1664H73.0567V39.4119H73.9446V44.1694C73.9446 44.5694 73.8516 44.8977 73.6658 45.1543C73.4799 45.4108 73.2284 45.6007 72.9112 45.724C72.5961 45.8472 72.2405 45.9088 71.8446 45.9088ZM71.8355 43.2452C72.0961 43.2452 72.3163 43.1846 72.4961 43.0634C72.6779 42.9401 72.8153 42.7644 72.9082 42.5361C73.0031 42.3058 73.0506 42.03 73.0506 41.7088C73.0506 41.3957 73.0041 41.1199 72.9112 40.8816C72.8183 40.6432 72.6819 40.4573 72.5021 40.324C72.3223 40.1886 72.1001 40.121 71.8355 40.121C71.5627 40.121 71.3355 40.1917 71.1536 40.3331C70.9718 40.4725 70.8345 40.6624 70.7415 40.9028C70.6506 41.1432 70.6052 41.4119 70.6052 41.7088C70.6052 42.0139 70.6516 42.2816 70.7446 42.5119C70.8375 42.7422 70.9749 42.922 71.1567 43.0513C71.3405 43.1805 71.5668 43.2452 71.8355 43.2452ZM76.5142 44.1694C76.2193 44.1694 75.9526 44.1149 75.7142 44.0058C75.4759 43.8947 75.287 43.7341 75.1476 43.524C75.0102 43.3139 74.9415 43.0563 74.9415 42.7513C74.9415 42.4886 74.992 42.2725 75.093 42.1028C75.194 41.9331 75.3304 41.7987 75.5021 41.6997C75.6738 41.6008 75.8658 41.526 76.0779 41.4755C76.29 41.425 76.5062 41.3866 76.7264 41.3604C77.0051 41.328 77.2314 41.3018 77.4051 41.2816C77.5789 41.2593 77.7051 41.224 77.7839 41.1755C77.8627 41.127 77.9021 41.0482 77.9021 40.9391V40.9179C77.9021 40.6533 77.8274 40.4482 77.6779 40.3028C77.5304 40.1573 77.3102 40.0846 77.0173 40.0846C76.7122 40.0846 76.4718 40.1523 76.2961 40.2876C76.1223 40.421 76.0021 40.5694 75.9355 40.7331L75.0839 40.5391C75.185 40.2563 75.3324 40.028 75.5264 39.8543C75.7223 39.6785 75.9476 39.5513 76.2021 39.4725C76.4567 39.3917 76.7243 39.3513 77.0051 39.3513C77.191 39.3513 77.388 39.3735 77.5961 39.4179C77.8062 39.4604 78.0021 39.5391 78.1839 39.6543C78.3678 39.7694 78.5183 39.9341 78.6354 40.1482C78.7526 40.3604 78.8112 40.6361 78.8112 40.9755V44.0664H77.9264V43.43H77.89C77.8314 43.5472 77.7435 43.6624 77.6264 43.7755C77.5092 43.8886 77.3587 43.9826 77.1748 44.0573C76.991 44.1321 76.7708 44.1694 76.5142 44.1694ZM76.7112 43.4422C76.9617 43.4422 77.1759 43.3927 77.3536 43.2937C77.5334 43.1947 77.6698 43.0654 77.7627 42.9058C77.8577 42.7442 77.9051 42.5715 77.9051 42.3876V41.7876C77.8728 41.8199 77.8102 41.8502 77.7173 41.8785C77.6264 41.9048 77.5223 41.928 77.4051 41.9482C77.288 41.9664 77.1738 41.9836 77.0627 41.9997C76.9516 42.0139 76.8587 42.026 76.7839 42.0361C76.6082 42.0583 76.4476 42.0957 76.3021 42.1482C76.1587 42.2008 76.0435 42.2765 75.9567 42.3755C75.8718 42.4725 75.8294 42.6018 75.8294 42.7634C75.8294 42.9876 75.9122 43.1573 76.0779 43.2725C76.2435 43.3856 76.4546 43.4422 76.7112 43.4422ZM81.7604 44.1573C81.3847 44.1573 81.0493 44.0614 80.7544 43.8694C80.4615 43.6755 80.2312 43.3997 80.0635 43.0422C79.8978 42.6826 79.815 42.2513 79.815 41.7482C79.815 41.2452 79.8988 40.8149 80.0665 40.4573C80.2362 40.0997 80.4685 39.826 80.7635 39.6361C81.0584 39.4462 81.3928 39.3513 81.7665 39.3513C82.0554 39.3513 82.2877 39.3998 82.4635 39.4967C82.6412 39.5917 82.7786 39.7028 82.8756 39.8301C82.9746 39.9573 83.0513 40.0694 83.1059 40.1664H83.1604V37.8604H84.0665V44.0664H83.1817V43.3422H83.1059C83.0513 43.4412 82.9726 43.5543 82.8695 43.6816C82.7685 43.8088 82.6291 43.9199 82.4513 44.0149C82.2736 44.1098 82.0433 44.1573 81.7604 44.1573ZM81.9604 43.3846C82.221 43.3846 82.4412 43.3159 82.621 43.1785C82.8029 43.0391 82.9402 42.8462 83.0332 42.5997C83.1281 42.3533 83.1756 42.0664 83.1756 41.7391C83.1756 41.4159 83.1291 41.1331 83.0362 40.8907C82.9433 40.6482 82.8069 40.4593 82.6271 40.324C82.4473 40.1886 82.2251 40.121 81.9604 40.121C81.6877 40.121 81.4604 40.1917 81.2786 40.3331C81.0968 40.4745 80.9594 40.6674 80.8665 40.9119C80.7756 41.1563 80.7301 41.4321 80.7301 41.7391C80.7301 42.0502 80.7766 42.33 80.8695 42.5785C80.9625 42.827 81.0998 43.024 81.2817 43.1694C81.4655 43.3129 81.6918 43.3846 81.9604 43.3846ZM86.7142 44.1694C86.4193 44.1694 86.1526 44.1149 85.9142 44.0058C85.6758 43.8947 85.4869 43.7341 85.3476 43.524C85.2102 43.3139 85.1415 43.0563 85.1415 42.7513C85.1415 42.4886 85.192 42.2725 85.293 42.1028C85.394 41.9331 85.5304 41.7987 85.7021 41.6997C85.8738 41.6008 86.0657 41.526 86.2779 41.4755C86.49 41.425 86.7061 41.3866 86.9263 41.3604C87.2051 41.328 87.4314 41.3018 87.6051 41.2816C87.7789 41.2593 87.9051 41.224 87.9839 41.1755C88.0627 41.127 88.1021 41.0482 88.1021 40.9391V40.9179C88.1021 40.6533 88.0273 40.4482 87.8779 40.3028C87.7304 40.1573 87.5102 40.0846 87.2172 40.0846C86.9122 40.0846 86.6718 40.1523 86.496 40.2876C86.3223 40.421 86.2021 40.5694 86.1354 40.7331L85.2839 40.5391C85.3849 40.2563 85.5324 40.028 85.7263 39.8543C85.9223 39.6785 86.1476 39.5513 86.4021 39.4725C86.6566 39.3917 86.9243 39.3513 87.2051 39.3513C87.391 39.3513 87.588 39.3735 87.796 39.4179C88.0061 39.4604 88.2021 39.5391 88.3839 39.6543C88.5677 39.7694 88.7183 39.9341 88.8354 40.1482C88.9526 40.3604 89.0112 40.6361 89.0112 40.9755V44.0664H88.1263V43.43H88.09C88.0314 43.5472 87.9435 43.6624 87.8263 43.7755C87.7092 43.8886 87.5587 43.9826 87.3748 44.0573C87.191 44.1321 86.9708 44.1694 86.7142 44.1694ZM86.9112 43.4422C87.1617 43.4422 87.3758 43.3927 87.5536 43.2937C87.7334 43.1947 87.8698 43.0654 87.9627 42.9058C88.0576 42.7442 88.1051 42.5715 88.1051 42.3876V41.7876C88.0728 41.8199 88.0102 41.8502 87.9172 41.8785C87.8263 41.9048 87.7223 41.928 87.6051 41.9482C87.488 41.9664 87.3738 41.9836 87.2627 41.9997C87.1516 42.0139 87.0587 42.026 86.9839 42.0361C86.8082 42.0583 86.6476 42.0957 86.5021 42.1482C86.3587 42.2008 86.2435 42.2765 86.1566 42.3755C86.0718 42.4725 86.0294 42.6018 86.0294 42.7634C86.0294 42.9876 86.1122 43.1573 86.2779 43.2725C86.4435 43.3856 86.6546 43.4422 86.9112 43.4422Z" fill="#262626"/>
<path d="M47.0067 58.3269V64.533H46.2794L42.8976 59.6602H42.837V64.533H42.0855V58.3269H42.8128L46.2067 63.2118H46.2673V58.3269H47.0067ZM50.3044 64.6299C49.8842 64.6299 49.5155 64.5299 49.1984 64.3299C48.8832 64.1299 48.6367 63.8501 48.459 63.4905C48.2832 63.1309 48.1953 62.7107 48.1953 62.2299C48.1953 61.7451 48.2832 61.3219 48.459 60.9602C48.6367 60.5986 48.8832 60.3178 49.1984 60.1178C49.5155 59.9178 49.8842 59.8178 50.3044 59.8178C50.7246 59.8178 51.0923 59.9178 51.4074 60.1178C51.7246 60.3178 51.9711 60.5986 52.1468 60.9602C52.3246 61.3219 52.4135 61.7451 52.4135 62.2299C52.4135 62.7107 52.3246 63.1309 52.1468 63.4905C51.9711 63.8501 51.7246 64.1299 51.4074 64.3299C51.0923 64.5299 50.7246 64.6299 50.3044 64.6299ZM50.3044 63.9875C50.6236 63.9875 50.8862 63.9057 51.0923 63.7421C51.2984 63.5784 51.4509 63.3633 51.5499 63.0966C51.6489 62.8299 51.6984 62.541 51.6984 62.2299C51.6984 61.9188 51.6489 61.6289 51.5499 61.3602C51.4509 61.0916 51.2984 60.8744 51.0923 60.7087C50.8862 60.5431 50.6236 60.4602 50.3044 60.4602C49.9852 60.4602 49.7226 60.5431 49.5165 60.7087C49.3105 60.8744 49.158 61.0916 49.059 61.3602C48.96 61.6289 48.9105 61.9188 48.9105 62.2299C48.9105 62.541 48.96 62.8299 49.059 63.0966C49.158 63.3633 49.3105 63.5784 49.5165 63.7421C49.7226 63.9057 49.9852 63.9875 50.3044 63.9875ZM57.1446 59.8784L55.4233 64.533H54.6961L52.9749 59.8784H53.7506L55.0355 63.5875H55.084L56.3688 59.8784H57.1446ZM62.6582 58.3269V64.533H61.9067V59.1148H61.8703L60.3552 60.1208V59.3572L61.9067 58.3269H62.6582ZM64.443 64.533V63.9875L66.4915 61.7451C66.7319 61.4825 66.9299 61.2542 67.0854 61.0602C67.241 60.8643 67.3561 60.6804 67.4309 60.5087C67.5077 60.335 67.546 60.1532 67.546 59.9633C67.546 59.7451 67.4935 59.5562 67.3885 59.3966C67.2854 59.237 67.144 59.1138 66.9642 59.0269C66.7844 58.94 66.5824 58.8966 66.3582 58.8966C66.1198 58.8966 65.9117 58.9461 65.7339 59.0451C65.5582 59.1421 65.4218 59.2784 65.3248 59.4542C65.2299 59.6299 65.1824 59.836 65.1824 60.0724H64.4673C64.4673 59.7087 64.5511 59.3895 64.7188 59.1148C64.8865 58.84 65.1147 58.6259 65.4036 58.4724C65.6945 58.3188 66.0208 58.2421 66.3824 58.2421C66.746 58.2421 67.0683 58.3188 67.3491 58.4724C67.6299 58.6259 67.8501 58.833 68.0097 59.0936C68.1693 59.3542 68.2491 59.6441 68.2491 59.9633C68.2491 60.1916 68.2077 60.4148 68.1248 60.633C68.044 60.8491 67.9026 61.0905 67.7006 61.3572C67.5006 61.6219 67.2228 61.9451 66.8673 62.3269L65.4733 63.8178V63.8663H68.3582V64.533H64.443ZM70.6885 63.6845L70.64 64.0117C70.6056 64.2421 70.5531 64.4885 70.4824 64.7511C70.4137 65.0138 70.342 65.2612 70.2672 65.4936C70.1925 65.7259 70.1309 65.9107 70.0824 66.0481H69.5369C69.5632 65.9188 69.5976 65.7481 69.64 65.536C69.6824 65.3239 69.7248 65.0865 69.7672 64.8239C69.8117 64.5633 69.8481 64.2966 69.8763 64.0239L69.9127 63.6845H70.6885ZM74.4013 64.533V63.9875L76.4498 61.7451C76.6902 61.4825 76.8882 61.2542 77.0437 61.0602C77.1993 60.8643 77.3145 60.6804 77.3892 60.5087C77.466 60.335 77.5044 60.1532 77.5044 59.9633C77.5044 59.7451 77.4518 59.5562 77.3468 59.3966C77.2437 59.237 77.1023 59.1138 76.9225 59.0269C76.7427 58.94 76.5407 58.8966 76.3165 58.8966C76.0781 58.8966 75.87 58.9461 75.6922 59.0451C75.5165 59.1421 75.3801 59.2784 75.2831 59.4542C75.1882 59.6299 75.1407 59.836 75.1407 60.0724H74.4256C74.4256 59.7087 74.5094 59.3895 74.6771 59.1148C74.8448 58.84 75.073 58.6259 75.3619 58.4724C75.6528 58.3188 75.9791 58.2421 76.3407 58.2421C76.7044 58.2421 77.0266 58.3188 77.3074 58.4724C77.5882 58.6259 77.8084 58.833 77.968 59.0936C78.1276 59.3542 78.2074 59.6441 78.2074 59.9633C78.2074 60.1916 78.166 60.4148 78.0831 60.633C78.0023 60.8491 77.8609 61.0905 77.6589 61.3572C77.4589 61.6219 77.1811 61.9451 76.8256 62.3269L75.4316 63.8178V63.8663H78.3165V64.533H74.4013ZM81.5922 64.6178C81.1357 64.6178 80.7468 64.4936 80.4256 64.2451C80.1043 63.9946 79.8589 63.632 79.6892 63.1572C79.5195 62.6804 79.4346 62.1047 79.4346 61.4299C79.4346 60.7592 79.5195 60.1865 79.6892 59.7118C79.8609 59.235 80.1074 58.8714 80.4286 58.6209C80.7518 58.3683 81.1397 58.2421 81.5922 58.2421C82.0447 58.2421 82.4316 58.3683 82.7528 58.6209C83.0761 58.8714 83.3225 59.235 83.4922 59.7118C83.6639 60.1865 83.7498 60.7592 83.7498 61.4299C83.7498 62.1047 83.6649 62.6804 83.4952 63.1572C83.3255 63.632 83.0801 63.9946 82.7589 64.2451C82.4377 64.4936 82.0488 64.6178 81.5922 64.6178ZM81.5922 63.9511C82.0447 63.9511 82.3963 63.733 82.6468 63.2966C82.8973 62.8602 83.0225 62.238 83.0225 61.4299C83.0225 60.8926 82.9649 60.435 82.8498 60.0572C82.7367 59.6794 82.573 59.3916 82.3589 59.1936C82.1468 58.9956 81.8912 58.8966 81.5922 58.8966C81.1437 58.8966 80.7932 59.1178 80.5407 59.5602C80.2882 60.0006 80.1619 60.6239 80.1619 61.4299C80.1619 61.9673 80.2185 62.4239 80.3316 62.7996C80.4447 63.1754 80.6074 63.4612 80.8195 63.6572C81.0336 63.8532 81.2912 63.9511 81.5922 63.9511ZM84.9013 64.533V63.9875L86.9498 61.7451C87.1902 61.4825 87.3882 61.2542 87.5437 61.0602C87.6993 60.8643 87.8144 60.6804 87.8892 60.5087C87.9659 60.335 88.0043 60.1532 88.0043 59.9633C88.0043 59.7451 87.9518 59.5562 87.8468 59.3966C87.7437 59.237 87.6023 59.1138 87.4225 59.0269C87.2427 58.94 87.0407 58.8966 86.8165 58.8966C86.5781 58.8966 86.37 58.9461 86.1922 59.0451C86.0165 59.1421 85.8801 59.2784 85.7831 59.4542C85.6882 59.6299 85.6407 59.836 85.6407 60.0724H84.9255C84.9255 59.7087 85.0094 59.3895 85.1771 59.1148C85.3447 58.84 85.573 58.6259 85.8619 58.4724C86.1528 58.3188 86.4791 58.2421 86.8407 58.2421C87.2043 58.2421 87.5265 58.3188 87.8074 58.4724C88.0882 58.6259 88.3084 58.833 88.468 59.0936C88.6276 59.3542 88.7074 59.6441 88.7074 59.9633C88.7074 60.1916 88.6659 60.4148 88.5831 60.633C88.5023 60.8491 88.3609 61.0905 88.1589 61.3572C87.9589 61.6219 87.6811 61.9451 87.3255 62.3269L85.9316 63.8178V63.8663H88.8164V64.533H84.9013ZM92.1649 64.6178C91.7649 64.6178 91.4084 64.5491 91.0952 64.4117C90.7841 64.2744 90.5366 64.0835 90.3528 63.839C90.171 63.5926 90.072 63.3067 90.0558 62.9814H90.8195C90.8356 63.1814 90.9043 63.3542 91.0255 63.4996C91.1467 63.6431 91.3053 63.7542 91.5013 63.833C91.6972 63.9117 91.9144 63.9511 92.1528 63.9511C92.4195 63.9511 92.6558 63.9047 92.8619 63.8117C93.0679 63.7188 93.2296 63.5895 93.3467 63.4239C93.4639 63.2582 93.5225 63.0663 93.5225 62.8481C93.5225 62.6198 93.4659 62.4188 93.3528 62.2451C93.2397 62.0693 93.074 61.932 92.8558 61.833C92.6376 61.734 92.371 61.6845 92.0558 61.6845H91.5589V61.0178H92.0558C92.3023 61.0178 92.5185 60.9734 92.7043 60.8845C92.8922 60.7956 93.0387 60.6703 93.1437 60.5087C93.2508 60.3471 93.3043 60.1572 93.3043 59.939C93.3043 59.7289 93.2578 59.5461 93.1649 59.3905C93.072 59.235 92.9407 59.1138 92.771 59.0269C92.6033 58.94 92.4053 58.8966 92.177 58.8966C91.9629 58.8966 91.7609 58.936 91.571 59.0148C91.3831 59.0916 91.2296 59.2037 91.1104 59.3512C90.9912 59.4966 90.9265 59.6724 90.9164 59.8784H90.1892C90.2013 59.5532 90.2993 59.2683 90.4831 59.0239C90.6669 58.7774 90.9073 58.5855 91.2043 58.4481C91.5033 58.3108 91.8316 58.2421 92.1892 58.2421C92.573 58.2421 92.9023 58.3198 93.177 58.4754C93.4518 58.6289 93.6629 58.832 93.8104 59.0845C93.9578 59.337 94.0316 59.6097 94.0316 59.9027C94.0316 60.2522 93.9397 60.5501 93.7558 60.7966C93.574 61.0431 93.3265 61.2138 93.0134 61.3087V61.3572C93.4053 61.4219 93.7114 61.5885 93.9316 61.8572C94.1518 62.1239 94.2619 62.4542 94.2619 62.8481C94.2619 63.1855 94.17 63.4885 93.9861 63.7572C93.8043 64.0239 93.5558 64.234 93.2407 64.3875C92.9255 64.541 92.5669 64.6178 92.1649 64.6178Z" fill="#737373"/>
<rect x="122.934" y="25.5332" width="84.2665" height="50.5333" rx="8.53331" fill="#F7F7F7" fill-opacity="0.968627"/>
<g clip-path="url(#clip4_1633_14952)">
<path d="M135.023 36.1211V37.4544M138.579 36.1211V37.4544M133.023 39.2722H140.579M140.801 39.01V42.7878C140.801 44.1211 140.134 45.01 138.579 45.01H135.023C133.467 45.01 132.801 44.1211 132.801 42.7878V39.01C132.801 37.6766 133.467 36.7878 135.023 36.7878H138.579C140.134 36.7878 140.801 37.6766 140.801 39.01Z" stroke="#262626" stroke-width="0.666665" stroke-miterlimit="10" stroke-linecap="round" stroke-linejoin="round"/>
<path d="M138.442 41.321H138.446M138.442 42.6544H138.446M136.797 41.321H136.802M136.797 42.6544H136.802M135.152 41.321H135.157M135.152 42.6544H135.157" stroke="#262626" stroke-width="0.888887" stroke-linecap="round" stroke-linejoin="round"/>
</g>
<path d="M151.533 39.4907C151.501 39.2038 151.368 38.9816 151.133 38.824C150.899 38.6644 150.604 38.5846 150.249 38.5846C149.994 38.5846 149.774 38.625 149.588 38.7058C149.402 38.7846 149.258 38.8937 149.155 39.0331C149.054 39.1705 149.003 39.327 149.003 39.5028C149.003 39.6503 149.038 39.7775 149.106 39.8846C149.177 39.9917 149.269 40.0816 149.382 40.1543C149.497 40.225 149.62 40.2846 149.752 40.3331C149.883 40.3795 150.009 40.4179 150.13 40.4482L150.736 40.6058C150.934 40.6543 151.137 40.7199 151.346 40.8028C151.554 40.8856 151.747 40.9947 151.924 41.13C152.102 41.2654 152.246 41.4331 152.355 41.6331C152.466 41.8331 152.521 42.0725 152.521 42.3513C152.521 42.7028 152.43 43.0149 152.249 43.2876C152.069 43.5603 151.807 43.7755 151.464 43.9331C151.122 44.0906 150.709 44.1694 150.224 44.1694C149.76 44.1694 149.358 44.0957 149.018 43.9482C148.679 43.8008 148.413 43.5917 148.221 43.321C148.029 43.0482 147.923 42.725 147.903 42.3513H148.843C148.861 42.5755 148.933 42.7624 149.061 42.9119C149.19 43.0593 149.355 43.1694 149.555 43.2422C149.757 43.3129 149.978 43.3482 150.218 43.3482C150.483 43.3482 150.718 43.3068 150.924 43.224C151.132 43.1391 151.296 43.022 151.415 42.8725C151.534 42.721 151.594 42.5442 151.594 42.3422C151.594 42.1583 151.542 42.0078 151.436 41.8907C151.333 41.7735 151.193 41.6765 151.015 41.5997C150.84 41.523 150.641 41.4553 150.418 41.3967L149.685 41.1967C149.188 41.0614 148.794 40.8624 148.503 40.5997C148.214 40.3371 148.07 39.9896 148.07 39.5573C148.07 39.1998 148.167 38.8876 148.361 38.621C148.555 38.3543 148.817 38.1472 149.149 37.9998C149.48 37.8503 149.854 37.7755 150.27 37.7755C150.69 37.7755 151.061 37.8492 151.382 37.9967C151.705 38.1442 151.96 38.3472 152.146 38.6058C152.331 38.8624 152.428 39.1573 152.436 39.4907H151.533ZM154.922 44.1694C154.627 44.1694 154.36 44.1149 154.122 44.0058C153.884 43.8947 153.695 43.7341 153.555 43.524C153.418 43.3139 153.349 43.0563 153.349 42.7513C153.349 42.4886 153.4 42.2725 153.501 42.1028C153.602 41.9331 153.738 41.7987 153.91 41.6997C154.082 41.6008 154.274 41.526 154.486 41.4755C154.698 41.425 154.914 41.3866 155.134 41.3604C155.413 41.328 155.639 41.3018 155.813 41.2816C155.987 41.2593 156.113 41.224 156.192 41.1755C156.271 41.127 156.31 41.0482 156.31 40.9391V40.9179C156.31 40.6533 156.235 40.4482 156.086 40.3028C155.938 40.1573 155.718 40.0846 155.425 40.0846C155.12 40.0846 154.88 40.1523 154.704 40.2876C154.53 40.421 154.41 40.5694 154.343 40.7331L153.492 40.5391C153.593 40.2563 153.74 40.028 153.934 39.8543C154.13 39.6785 154.355 39.5513 154.61 39.4725C154.865 39.3917 155.132 39.3513 155.413 39.3513C155.599 39.3513 155.796 39.3735 156.004 39.4179C156.214 39.4604 156.41 39.5391 156.592 39.6543C156.776 39.7694 156.926 39.9341 157.043 40.1482C157.16 40.3604 157.219 40.6361 157.219 40.9755V44.0664H156.334V43.43H156.298C156.239 43.5472 156.151 43.6624 156.034 43.7755C155.917 43.8886 155.767 43.9826 155.583 44.0573C155.399 44.1321 155.179 44.1694 154.922 44.1694ZM155.119 43.4422C155.37 43.4422 155.584 43.3927 155.761 43.2937C155.941 43.1947 156.078 43.0654 156.171 42.9058C156.266 42.7442 156.313 42.5715 156.313 42.3876V41.7876C156.281 41.8199 156.218 41.8502 156.125 41.8785C156.034 41.9048 155.93 41.928 155.813 41.9482C155.696 41.9664 155.582 41.9836 155.471 41.9997C155.359 42.0139 155.267 42.026 155.192 42.0361C155.016 42.0583 154.855 42.0957 154.71 42.1482C154.567 42.2008 154.451 42.2765 154.365 42.3755C154.28 42.4725 154.237 42.6018 154.237 42.7634C154.237 42.9876 154.32 43.1573 154.486 43.2725C154.651 43.3856 154.862 43.4422 155.119 43.4422ZM159.332 37.8604V44.0664H158.426V37.8604H159.332ZM160.551 44.0664V39.4119H161.457V44.0664H160.551ZM161.008 38.6937C160.851 38.6937 160.716 38.6412 160.602 38.5361C160.491 38.429 160.436 38.3018 160.436 38.1543C160.436 38.0048 160.491 37.8775 160.602 37.7725C160.716 37.6654 160.851 37.6119 161.008 37.6119C161.166 37.6119 161.3 37.6654 161.411 37.7725C161.525 37.8775 161.581 38.0048 161.581 38.1543C161.581 38.3018 161.525 38.429 161.411 38.5361C161.3 38.6412 161.166 38.6937 161.008 38.6937ZM164.418 44.1573C164.043 44.1573 163.707 44.0614 163.412 43.8694C163.119 43.6755 162.889 43.3997 162.721 43.0422C162.556 42.6826 162.473 42.2513 162.473 41.7482C162.473 41.2452 162.557 40.8149 162.724 40.4573C162.894 40.0997 163.126 39.826 163.421 39.6361C163.716 39.4462 164.051 39.3513 164.424 39.3513C164.713 39.3513 164.946 39.3998 165.121 39.4967C165.299 39.5917 165.436 39.7028 165.533 39.8301C165.632 39.9573 165.709 40.0694 165.764 40.1664H165.818V37.8604H166.724V44.0664H165.839V43.3422H165.764C165.709 43.4412 165.63 43.5543 165.527 43.6816C165.426 43.8088 165.287 43.9199 165.109 44.0149C164.931 44.1098 164.701 44.1573 164.418 44.1573ZM164.618 43.3846C164.879 43.3846 165.099 43.3159 165.279 43.1785C165.461 43.0391 165.598 42.8462 165.691 42.5997C165.786 42.3533 165.833 42.0664 165.833 41.7391C165.833 41.4159 165.787 41.1331 165.694 40.8907C165.601 40.6482 165.465 40.4593 165.285 40.324C165.105 40.1886 164.883 40.121 164.618 40.121C164.346 40.121 164.118 40.1917 163.936 40.3331C163.755 40.4745 163.617 40.6674 163.524 40.9119C163.433 41.1563 163.388 41.4321 163.388 41.7391C163.388 42.0502 163.434 42.33 163.527 42.5785C163.62 42.827 163.758 43.024 163.939 43.1694C164.123 43.3129 164.35 43.3846 164.618 43.3846ZM169.372 44.1694C169.077 44.1694 168.81 44.1149 168.572 44.0058C168.334 43.8947 168.145 43.7341 168.005 43.524C167.868 43.3139 167.799 43.0563 167.799 42.7513C167.799 42.4886 167.85 42.2725 167.951 42.1028C168.052 41.9331 168.188 41.7987 168.36 41.6997C168.532 41.6008 168.724 41.526 168.936 41.4755C169.148 41.425 169.364 41.3866 169.584 41.3604C169.863 41.328 170.089 41.3018 170.263 41.2816C170.437 41.2593 170.563 41.224 170.642 41.1755C170.721 41.127 170.76 41.0482 170.76 40.9391V40.9179C170.76 40.6533 170.685 40.4482 170.536 40.3028C170.388 40.1573 170.168 40.0846 169.875 40.0846C169.57 40.0846 169.33 40.1523 169.154 40.2876C168.98 40.421 168.86 40.5694 168.793 40.7331L167.942 40.5391C168.043 40.2563 168.19 40.028 168.384 39.8543C168.58 39.6785 168.805 39.5513 169.06 39.4725C169.314 39.3917 169.582 39.3513 169.863 39.3513C170.049 39.3513 170.246 39.3735 170.454 39.4179C170.664 39.4604 170.86 39.5391 171.042 39.6543C171.226 39.7694 171.376 39.9341 171.493 40.1482C171.61 40.3604 171.669 40.6361 171.669 40.9755V44.0664H170.784V43.43H170.748C170.689 43.5472 170.601 43.6624 170.484 43.7755C170.367 43.8886 170.216 43.9826 170.033 44.0573C169.849 44.1321 169.629 44.1694 169.372 44.1694ZM169.569 43.4422C169.82 43.4422 170.034 43.3927 170.211 43.2937C170.391 43.1947 170.528 43.0654 170.621 42.9058C170.715 42.7442 170.763 42.5715 170.763 42.3876V41.7876C170.731 41.8199 170.668 41.8502 170.575 41.8785C170.484 41.9048 170.38 41.928 170.263 41.9482C170.146 41.9664 170.032 41.9836 169.921 41.9997C169.809 42.0139 169.716 42.026 169.642 42.0361C169.466 42.0583 169.305 42.0957 169.16 42.1482C169.016 42.2008 168.901 42.2765 168.814 42.3755C168.73 42.4725 168.687 42.6018 168.687 42.7634C168.687 42.9876 168.77 43.1573 168.936 43.2725C169.101 43.3856 169.312 43.4422 169.569 43.4422Z" fill="#262626"/>
<path d="M137.14 58.3269V64.533H136.412L133.03 59.6602H132.97V64.533H132.218V58.3269H132.946L136.34 63.2118H136.4V58.3269H137.14ZM140.437 64.6299C140.017 64.6299 139.648 64.5299 139.331 64.3299C139.016 64.1299 138.77 63.8501 138.592 63.4905C138.416 63.1309 138.328 62.7107 138.328 62.2299C138.328 61.7451 138.416 61.3219 138.592 60.9602C138.77 60.5986 139.016 60.3178 139.331 60.1178C139.648 59.9178 140.017 59.8178 140.437 59.8178C140.857 59.8178 141.225 59.9178 141.54 60.1178C141.857 60.3178 142.104 60.5986 142.28 60.9602C142.457 61.3219 142.546 61.7451 142.546 62.2299C142.546 62.7107 142.457 63.1309 142.28 63.4905C142.104 63.8501 141.857 64.1299 141.54 64.3299C141.225 64.5299 140.857 64.6299 140.437 64.6299ZM140.437 63.9875C140.756 63.9875 141.019 63.9057 141.225 63.7421C141.431 63.5784 141.584 63.3633 141.683 63.0966C141.782 62.8299 141.831 62.541 141.831 62.2299C141.831 61.9188 141.782 61.6289 141.683 61.3602C141.584 61.0916 141.431 60.8744 141.225 60.7087C141.019 60.5431 140.756 60.4602 140.437 60.4602C140.118 60.4602 139.855 60.5431 139.649 60.7087C139.443 60.8744 139.291 61.0916 139.192 61.3602C139.093 61.6289 139.043 61.9188 139.043 62.2299C139.043 62.541 139.093 62.8299 139.192 63.0966C139.291 63.3633 139.443 63.5784 139.649 63.7421C139.855 63.9057 140.118 63.9875 140.437 63.9875ZM147.277 59.8784L145.556 64.533H144.829L143.108 59.8784H143.883L145.168 63.5875H145.217L146.502 59.8784H147.277ZM152.791 58.3269V64.533H152.039V59.1148H152.003L150.488 60.1208V59.3572L152.039 58.3269H152.791ZM154.43 63.2602V62.6421L157.158 58.3269H157.606V59.2845H157.303L155.242 62.5451V62.5936H158.915V63.2602H154.43ZM157.352 64.533V63.0724V62.7845V58.3269H158.067V64.533H157.352ZM160.838 63.6845L160.789 64.0117C160.755 64.2421 160.703 64.4885 160.632 64.7511C160.563 65.0138 160.491 65.2612 160.417 65.4936C160.342 65.7259 160.28 65.9107 160.232 66.0481H159.686C159.713 65.9188 159.747 65.7481 159.789 65.536C159.832 65.3239 159.874 65.0865 159.917 64.8239C159.961 64.5633 159.998 64.2966 160.026 64.0239L160.062 63.6845H160.838ZM164.551 64.533V63.9875L166.599 61.7451C166.84 61.4825 167.038 61.2542 167.193 61.0602C167.349 60.8643 167.464 60.6804 167.539 60.5087C167.615 60.335 167.654 60.1532 167.654 59.9633C167.654 59.7451 167.601 59.5562 167.496 59.3966C167.393 59.237 167.252 59.1138 167.072 59.0269C166.892 58.94 166.69 58.8966 166.466 58.8966C166.228 58.8966 166.019 58.9461 165.842 59.0451C165.666 59.1421 165.53 59.2784 165.433 59.4542C165.338 59.6299 165.29 59.836 165.29 60.0724H164.575C164.575 59.7087 164.659 59.3895 164.827 59.1148C164.994 58.84 165.223 58.6259 165.511 58.4724C165.802 58.3188 166.129 58.2421 166.49 58.2421C166.854 58.2421 167.176 58.3188 167.457 58.4724C167.738 58.6259 167.958 58.833 168.117 59.0936C168.277 59.3542 168.357 59.6441 168.357 59.9633C168.357 60.1916 168.315 60.4148 168.233 60.633C168.152 60.8491 168.01 61.0905 167.808 61.3572C167.608 61.6219 167.331 61.9451 166.975 62.3269L165.581 63.8178V63.8663H168.466V64.533H164.551ZM171.742 64.6178C171.285 64.6178 170.896 64.4936 170.575 64.2451C170.254 63.9946 170.008 63.632 169.839 63.1572C169.669 62.6804 169.584 62.1047 169.584 61.4299C169.584 60.7592 169.669 60.1865 169.839 59.7118C170.01 59.235 170.257 58.8714 170.578 58.6209C170.901 58.3683 171.289 58.2421 171.742 58.2421C172.194 58.2421 172.581 58.3683 172.902 58.6209C173.226 58.8714 173.472 59.235 173.642 59.7118C173.813 60.1865 173.899 60.7592 173.899 61.4299C173.899 62.1047 173.814 62.6804 173.645 63.1572C173.475 63.632 173.23 63.9946 172.908 64.2451C172.587 64.4936 172.198 64.6178 171.742 64.6178ZM171.742 63.9511C172.194 63.9511 172.546 63.733 172.796 63.2966C173.047 62.8602 173.172 62.238 173.172 61.4299C173.172 60.8926 173.114 60.435 172.999 60.0572C172.886 59.6794 172.723 59.3916 172.508 59.1936C172.296 58.9956 172.041 58.8966 171.742 58.8966C171.293 58.8966 170.943 59.1178 170.69 59.5602C170.438 60.0006 170.311 60.6239 170.311 61.4299C170.311 61.9673 170.368 62.4239 170.481 62.7996C170.594 63.1754 170.757 63.4612 170.969 63.6572C171.183 63.8532 171.441 63.9511 171.742 63.9511ZM175.051 64.533V63.9875L177.099 61.7451C177.34 61.4825 177.538 61.2542 177.693 61.0602C177.849 60.8643 177.964 60.6804 178.039 60.5087C178.115 60.335 178.154 60.1532 178.154 59.9633C178.154 59.7451 178.101 59.5562 177.996 59.3966C177.893 59.237 177.752 59.1138 177.572 59.0269C177.392 58.94 177.19 58.8966 176.966 58.8966C176.728 58.8966 176.519 58.9461 176.342 59.0451C176.166 59.1421 176.03 59.2784 175.933 59.4542C175.838 59.6299 175.79 59.836 175.79 60.0724H175.075C175.075 59.7087 175.159 59.3895 175.327 59.1148C175.494 58.84 175.722 58.6259 176.011 58.4724C176.302 58.3188 176.629 58.2421 176.99 58.2421C177.354 58.2421 177.676 58.3188 177.957 58.4724C178.238 58.6259 178.458 58.833 178.617 59.0936C178.777 59.3542 178.857 59.6441 178.857 59.9633C178.857 60.1916 178.815 60.4148 178.733 60.633C178.652 60.8491 178.51 61.0905 178.308 61.3572C178.108 61.6219 177.831 61.9451 177.475 62.3269L176.081 63.8178V63.8663H178.966V64.533H175.051ZM182.314 64.6178C181.914 64.6178 181.558 64.5491 181.245 64.4117C180.934 64.2744 180.686 64.0835 180.502 63.839C180.32 63.5926 180.221 63.3067 180.205 62.9814H180.969C180.985 63.1814 181.054 63.3542 181.175 63.4996C181.296 63.6431 181.455 63.7542 181.651 63.833C181.847 63.9117 182.064 63.9511 182.302 63.9511C182.569 63.9511 182.805 63.9047 183.011 63.8117C183.217 63.7188 183.379 63.5895 183.496 63.4239C183.613 63.2582 183.672 63.0663 183.672 62.8481C183.672 62.6198 183.615 62.4188 183.502 62.2451C183.389 62.0693 183.223 61.932 183.005 61.833C182.787 61.734 182.52 61.6845 182.205 61.6845H181.708V61.0178H182.205C182.452 61.0178 182.668 60.9734 182.854 60.8845C183.042 60.7956 183.188 60.6703 183.293 60.5087C183.4 60.3471 183.454 60.1572 183.454 59.939C183.454 59.7289 183.407 59.5461 183.314 59.3905C183.221 59.235 183.09 59.1138 182.92 59.0269C182.753 58.94 182.555 58.8966 182.327 58.8966C182.112 58.8966 181.91 58.936 181.72 59.0148C181.533 59.0916 181.379 59.2037 181.26 59.3512C181.141 59.4966 181.076 59.6724 181.066 59.8784H180.339C180.351 59.5532 180.449 59.2683 180.633 59.0239C180.816 58.7774 181.057 58.5855 181.354 58.4481C181.653 58.3108 181.981 58.2421 182.339 58.2421C182.722 58.2421 183.052 58.3198 183.327 58.4754C183.601 58.6289 183.812 58.832 183.96 59.0845C184.107 59.337 184.181 59.6097 184.181 59.9027C184.181 60.2522 184.089 60.5501 183.905 60.7966C183.723 61.0431 183.476 61.2138 183.163 61.3087V61.3572C183.555 61.4219 183.861 61.5885 184.081 61.8572C184.301 62.1239 184.411 62.4542 184.411 62.8481C184.411 63.1855 184.319 63.4885 184.136 63.7572C183.954 64.0239 183.705 64.234 183.39 64.3875C183.075 64.541 182.716 64.6178 182.314 64.6178Z" fill="#737373"/>
</g>
</g>
<defs>
<clipPath id="clip0_1633_14952">
<rect width="243" height="132" rx="5" fill="white"/>
</clipPath>
<clipPath id="clip1_1633_14952">
<rect width="200" height="433.066" fill="white" transform="translate(20 -59)"/>
</clipPath>
<clipPath id="clip2_1633_14952">
<rect x="32.8008" y="86.0664" width="174.4" height="26.6667" rx="10.6666" fill="white"/>
</clipPath>
<clipPath id="clip3_1633_14952">
<rect width="10.6667" height="10.6667" fill="white" transform="translate(41.334 35.2332)"/>
</clipPath>
<clipPath id="clip4_1633_14952">
<rect width="10.6667" height="10.6667" fill="white" transform="translate(131.467 35.2332)"/>
</clipPath>
</defs>
</svg>
