<svg width="243" height="132" viewBox="0 0 243 132" fill="none" xmlns="http://www.w3.org/2000/svg">
<g clip-path="url(#clip0_1633_15182)">
<rect width="243" height="132" rx="5" fill="#F4F4F4"/>
<g clip-path="url(#clip1_1633_15182)">
<rect width="246" height="532.672" transform="translate(-1 -94.6074)" fill="white"/>
<path d="M15.497 30V22.3665H20.3872V23.5257H16.8799V25.5981H20.0518V26.7573H16.8799V30H15.497ZM23.7017 30.1118C23.1277 30.1118 22.632 29.9925 22.2145 29.754C21.7996 29.513 21.4803 29.1725 21.2566 28.7327C21.033 28.2904 20.9212 27.7698 20.9212 27.171C20.9212 26.5821 21.033 26.0652 21.2566 25.6205C21.4827 25.1732 21.7983 24.8253 22.2033 24.5768C22.6084 24.3258 23.0842 24.2004 23.6309 24.2004C23.9837 24.2004 24.3167 24.2575 24.6298 24.3718C24.9454 24.4836 25.2237 24.6576 25.4647 24.8936C25.7082 25.1297 25.8996 25.4304 26.0387 25.7956C26.1779 26.1584 26.2474 26.5908 26.2474 27.0927V27.5065H21.5548V26.597H24.9541C24.9516 26.3386 24.8957 26.1087 24.7863 25.9075C24.677 25.7037 24.5242 25.5434 24.3279 25.4266C24.1341 25.3098 23.908 25.2515 23.6495 25.2515C23.3737 25.2515 23.1314 25.3185 22.9227 25.4527C22.714 25.5844 22.5512 25.7584 22.4344 25.9745C22.3201 26.1882 22.2617 26.4231 22.2593 26.679V27.4729C22.2593 27.8059 22.3201 28.0916 22.4419 28.3302C22.5636 28.5662 22.7339 28.7476 22.9525 28.8744C23.1712 28.9986 23.4271 29.0607 23.7203 29.0607C23.9166 29.0607 24.0943 29.0334 24.2533 28.9787C24.4124 28.9216 24.5503 28.8383 24.6671 28.729C24.7839 28.6197 24.8721 28.4842 24.9317 28.3227L26.1915 28.4644C26.112 28.7973 25.9604 29.0881 25.7368 29.3365C25.5156 29.5825 25.2324 29.7739 24.887 29.9105C24.5416 30.0447 24.1465 30.1118 23.7017 30.1118ZM29.8862 30.1118C29.3147 30.1118 28.8239 29.9863 28.4139 29.7354C28.0064 29.4844 27.6921 29.1378 27.4709 28.6955C27.2522 28.2507 27.1429 27.7388 27.1429 27.1598C27.1429 26.5784 27.2547 26.0652 27.4784 25.6205C27.702 25.1732 28.0176 24.8253 28.4251 24.5768C28.8351 24.3258 29.3196 24.2004 29.8787 24.2004C30.3434 24.2004 30.7546 24.2861 31.1125 24.4575C31.4728 24.6265 31.7598 24.8663 31.9735 25.1769C32.1872 25.485 32.3089 25.8453 32.3387 26.2578H31.0491C30.9969 25.982 30.8727 25.7522 30.6764 25.5683C30.4826 25.3819 30.2229 25.2887 29.8974 25.2887C29.6216 25.2887 29.3793 25.3633 29.1706 25.5124C28.9618 25.659 28.7991 25.8702 28.6823 26.146C28.568 26.4218 28.5108 26.7523 28.5108 27.1375C28.5108 27.5276 28.568 27.863 28.6823 28.1438C28.7966 28.4221 28.9569 28.6371 29.1631 28.7886C29.3718 28.9377 29.6166 29.0123 29.8974 29.0123C30.0962 29.0123 30.2738 28.975 30.4304 28.9005C30.5894 28.8234 30.7223 28.7128 30.8292 28.5687C30.936 28.4246 31.0093 28.2494 31.0491 28.0432H32.3387C32.3064 28.4482 32.1872 28.8073 31.9809 29.1204C31.7747 29.431 31.4939 29.6745 31.1386 29.8509C30.7832 30.0248 30.3658 30.1118 29.8862 30.1118ZM34.7959 26.6455V30H33.4467V22.3665H34.7661V25.2477H34.8332C34.9674 24.9247 35.1749 24.67 35.4557 24.4836C35.7389 24.2948 36.0992 24.2004 36.5366 24.2004C36.9342 24.2004 37.2808 24.2836 37.5765 24.4501C37.8722 24.6166 38.1008 24.8601 38.2623 25.1806C38.4263 25.5012 38.5083 25.8925 38.5083 26.3547V30H37.159V26.5635C37.159 26.1783 37.0596 25.8789 36.8608 25.6652C36.6645 25.449 36.3887 25.3409 36.0334 25.3409C35.7948 25.3409 35.5812 25.3931 35.3923 25.4975C35.2059 25.5993 35.0593 25.7472 34.9525 25.941C34.8481 26.1348 34.7959 26.3696 34.7959 26.6455ZM41.5311 30.1155C41.1683 30.1155 40.8416 30.0509 40.5508 29.9217C40.2626 29.79 40.034 29.5962 39.865 29.3403C39.6985 29.0843 39.6153 28.7688 39.6153 28.3935C39.6153 28.0705 39.6749 27.8034 39.7942 27.5922C39.9135 27.381 40.0762 27.212 40.2825 27.0853C40.4887 26.9585 40.7211 26.8629 40.9795 26.7983C41.2404 26.7312 41.51 26.6827 41.7883 26.6529C42.1238 26.6181 42.3958 26.5871 42.6046 26.5597C42.8133 26.5299 42.9649 26.4852 43.0593 26.4255C43.1562 26.3634 43.2047 26.2678 43.2047 26.1385V26.1162C43.2047 25.8354 43.1214 25.618 42.9549 25.4639C42.7885 25.3098 42.5487 25.2328 42.2356 25.2328C41.9051 25.2328 41.6429 25.3049 41.4491 25.449C41.2578 25.5931 41.1286 25.7633 41.0615 25.9596L39.8017 25.7807C39.9011 25.4328 40.0651 25.1421 40.2937 24.9085C40.5223 24.6725 40.8018 24.4961 41.1323 24.3793C41.4628 24.26 41.8281 24.2004 42.2281 24.2004C42.5039 24.2004 42.7785 24.2327 43.0518 24.2973C43.3252 24.3619 43.5749 24.4687 43.801 24.6178C44.0272 24.7644 44.2085 24.9645 44.3452 25.2179C44.4844 25.4714 44.5539 25.7882 44.5539 26.1684V30H43.2568V29.2135H43.2121C43.1301 29.3726 43.0146 29.5217 42.8655 29.6608C42.7189 29.7975 42.5338 29.9081 42.3101 29.9925C42.089 30.0745 41.8293 30.1155 41.5311 30.1155ZM41.8815 29.1241C42.1523 29.1241 42.3872 29.0707 42.5859 28.9638C42.7847 28.8545 42.9375 28.7104 43.0444 28.5315C43.1537 28.3525 43.2084 28.1575 43.2084 27.9463V27.2716C43.1662 27.3064 43.0941 27.3387 42.9922 27.3685C42.8928 27.3984 42.781 27.4245 42.6568 27.4468C42.5325 27.4692 42.4095 27.4891 42.2878 27.5065C42.166 27.5238 42.0604 27.5388 41.9709 27.5512C41.7697 27.5785 41.5895 27.6232 41.4305 27.6854C41.2715 27.7475 41.146 27.8345 41.054 27.9463C40.9621 28.0556 40.9161 28.1972 40.9161 28.3712C40.9161 28.6197 41.0068 28.8073 41.1882 28.934C41.3696 29.0607 41.6007 29.1241 41.8815 29.1241Z" fill="#171621"/>
<rect x="14.7441" y="44.4961" width="103.648" height="62.176" rx="10.496" fill="#F7F7F7" fill-opacity="0.968627"/>
<path d="M29.6122 57.5244V59.1644M33.9856 57.5244V59.1644M27.1522 61.4003H36.4456M36.7189 61.0778V65.7244C36.7189 67.3644 35.8989 68.4578 33.9856 68.4578H29.6122C27.6989 68.4578 26.8789 67.3644 26.8789 65.7244V61.0778C26.8789 59.4378 27.6989 58.3444 29.6122 58.3444H33.9856C35.8989 58.3444 36.7189 59.4378 36.7189 61.0778Z" stroke="#262626" stroke-width="0.82" stroke-miterlimit="10" stroke-linecap="round" stroke-linejoin="round"/>
<path d="M33.8193 63.9202H33.8242M33.8193 65.5602H33.8242M31.7967 63.9202H31.8021M31.7967 65.5602H31.8021M29.7734 63.9202H29.7789M29.7734 65.5602H29.7789" stroke="#262626" stroke-width="1.09333" stroke-linecap="round" stroke-linejoin="round"/>
<path d="M52.0987 61.8411H50.9357C50.891 61.5926 50.8078 61.3739 50.686 61.1851C50.5643 60.9962 50.4152 60.836 50.2387 60.7043C50.0623 60.5726 49.8648 60.4732 49.6461 60.4061C49.4299 60.339 49.2001 60.3055 48.9566 60.3055C48.5167 60.3055 48.1229 60.416 47.775 60.6372C47.4296 60.8583 47.1563 61.1826 46.955 61.61C46.7562 62.0374 46.6568 62.5592 46.6568 63.1755C46.6568 63.7967 46.7562 64.321 46.955 64.7484C47.1563 65.1758 47.4309 65.4988 47.7787 65.7175C48.1266 65.9361 48.518 66.0455 48.9528 66.0455C49.1939 66.0455 49.4225 66.0132 49.6386 65.9486C49.8573 65.8815 50.0549 65.7833 50.2313 65.6541C50.4077 65.5249 50.5568 65.3671 50.6786 65.1807C50.8028 64.9919 50.8885 64.7757 50.9357 64.5322L52.0987 64.5359C52.0365 64.9111 51.916 65.2565 51.7371 65.5721C51.5607 65.8852 51.3333 66.156 51.055 66.3846C50.7792 66.6108 50.4636 66.7859 50.1083 66.9102C49.753 67.0344 49.3653 67.0966 48.9454 67.0966C48.2844 67.0966 47.6955 66.94 47.1786 66.6269C46.6618 66.3113 46.2543 65.8603 45.9561 65.2739C45.6604 64.6875 45.5126 63.988 45.5126 63.1755C45.5126 62.3604 45.6616 61.6609 45.9598 61.077C46.258 60.4906 46.6655 60.0408 47.1824 59.7277C47.6992 59.4122 48.2869 59.2544 48.9454 59.2544C49.3504 59.2544 49.7281 59.3128 50.0785 59.4296C50.4313 59.5439 50.7481 59.7128 51.0289 59.9365C51.3097 60.1576 51.542 60.4285 51.7259 60.749C51.9098 61.0671 52.034 61.4311 52.0987 61.8411ZM54.5018 63.5929V66.9922H53.3874V59.3587H54.4869V62.1989H54.5577C54.6919 61.8908 54.8969 61.646 55.1727 61.4646C55.4485 61.2832 55.8088 61.1926 56.2536 61.1926C56.6462 61.1926 56.9891 61.2733 57.2824 61.4348C57.5781 61.5963 57.8067 61.8374 57.9682 62.1579C58.1322 62.476 58.2142 62.8736 58.2142 63.3506V66.9922H57.0997V63.4848C57.0997 63.0649 56.9916 62.7394 56.7754 62.5083C56.5593 62.2747 56.2586 62.1579 55.8734 62.1579C55.6101 62.1579 55.374 62.2138 55.1653 62.3256C54.959 62.4375 54.7963 62.6015 54.677 62.8176C54.5602 63.0313 54.5018 63.2898 54.5018 63.5929ZM62.1688 67.1077C61.6047 67.1077 61.119 66.9872 60.7114 66.7462C60.3064 66.5027 59.9933 66.161 59.7722 65.7212C59.5535 65.2789 59.4442 64.7608 59.4442 64.1669C59.4442 63.5805 59.5535 63.0636 59.7722 62.6164C59.9933 62.1691 60.3014 61.82 60.6965 61.569C61.0941 61.318 61.5588 61.1926 62.0905 61.1926C62.4136 61.1926 62.7267 61.246 63.0298 61.3528C63.333 61.4597 63.6051 61.6274 63.8461 61.856C64.0871 62.0846 64.2772 62.3816 64.4164 62.7468C64.5555 63.1096 64.6251 63.5507 64.6251 64.07V64.4651H60.0741V63.6302H63.533C63.533 63.337 63.4734 63.0773 63.3541 62.8512C63.2348 62.6226 63.0671 62.4424 62.8509 62.3107C62.6372 62.179 62.3862 62.1132 62.098 62.1132C61.7849 62.1132 61.5116 62.1902 61.278 62.3443C61.0469 62.4959 60.868 62.6946 60.7413 62.9406C60.617 63.1842 60.5549 63.4488 60.5549 63.7346V64.3868C60.5549 64.7695 60.622 65.095 60.7562 65.3634C60.8928 65.6317 61.0829 65.8367 61.3264 65.9784C61.57 66.1175 61.8545 66.1871 62.18 66.1871C62.3912 66.1871 62.5838 66.1573 62.7577 66.0976C62.9317 66.0355 63.082 65.9436 63.2087 65.8218C63.3354 65.7001 63.4324 65.5497 63.4994 65.3708L64.5543 65.5609C64.4698 65.8715 64.3182 66.1436 64.0995 66.3772C63.8834 66.6083 63.6113 66.7884 63.2833 66.9176C62.9577 67.0444 62.5863 67.1077 62.1688 67.1077ZM68.2732 67.1077C67.719 67.1077 67.2419 66.9822 66.8419 66.7313C66.4443 66.4778 66.1387 66.1287 65.925 65.6839C65.7113 65.2391 65.6044 64.7297 65.6044 64.1557C65.6044 63.5743 65.7138 63.0612 65.9324 62.6164C66.1511 62.1691 66.4592 61.82 66.8568 61.569C67.2544 61.318 67.7228 61.1926 68.262 61.1926C68.6968 61.1926 69.0845 61.2733 69.4249 61.4348C69.7653 61.5939 70.0399 61.8175 70.2486 62.1057C70.4598 62.394 70.5853 62.7307 70.6251 63.1158H69.5404C69.4808 62.8475 69.3441 62.6164 69.1304 62.4226C68.9192 62.2287 68.6359 62.1318 68.2806 62.1318C67.97 62.1318 67.6979 62.2138 67.4643 62.3778C67.2332 62.5393 67.0531 62.7704 66.9239 63.0711C66.7947 63.3693 66.7301 63.7221 66.7301 64.1296C66.7301 64.5471 66.7934 64.9074 66.9202 65.2106C67.0469 65.5137 67.2258 65.7485 67.4569 65.915C67.6905 66.0815 67.965 66.1647 68.2806 66.1647C68.4918 66.1647 68.6832 66.1262 68.8546 66.0492C69.0285 65.9697 69.1739 65.8566 69.2907 65.71C69.41 65.5634 69.4932 65.387 69.5404 65.1807H70.6251C70.5853 65.551 70.4648 65.8815 70.2635 66.1722C70.0622 66.4629 69.7926 66.6915 69.4547 66.858C69.1192 67.0245 68.7254 67.1077 68.2732 67.1077ZM72.8419 65.0503L72.8344 63.6898H73.0282L75.3093 61.2671H76.6437L74.042 64.0253H73.8669L72.8419 65.0503ZM71.8169 66.9922V59.3587H72.9313V66.9922H71.8169ZM75.4323 66.9922L73.3823 64.2713L74.1501 63.4923L76.8002 66.9922H75.4323ZM83.8103 62.6909V63.66H80.4259V62.6909H83.8103ZM89.3145 59.3587V66.9922H88.1628V59.3587H89.3145ZM92.0168 63.5929V66.9922H90.9024V61.2671H91.9721V62.1989H92.0429C92.1746 61.8958 92.3808 61.6522 92.6616 61.4684C92.9449 61.2845 93.3015 61.1926 93.7314 61.1926C94.1215 61.1926 94.4631 61.2746 94.7564 61.4386C95.0496 61.6001 95.2769 61.8411 95.4384 62.1616C95.6 62.4822 95.6807 62.8785 95.6807 63.3506V66.9922H94.5663V63.4848C94.5663 63.0699 94.4582 62.7456 94.242 62.512C94.0258 62.2759 93.7289 62.1579 93.3512 62.1579C93.0928 62.1579 92.8629 62.2138 92.6616 62.3256C92.4628 62.4375 92.3051 62.6015 92.1883 62.8176C92.074 63.0313 92.0168 63.2898 92.0168 63.5929Z" fill="#262626"/>
<path d="M32.2177 84.5428V92.1763H31.3231L27.1635 86.1828H27.089V92.1763H26.1646V84.5428H27.0591L31.2337 90.5512H31.3082V84.5428H32.2177ZM36.2739 92.2955C35.757 92.2955 35.3036 92.1725 34.9134 91.9265C34.5258 91.6805 34.2227 91.3364 34.004 90.8941C33.7878 90.4518 33.6797 89.9349 33.6797 89.3435C33.6797 88.7472 33.7878 88.2266 34.004 87.7818C34.2227 87.337 34.5258 86.9916 34.9134 86.7456C35.3036 86.4996 35.757 86.3766 36.2739 86.3766C36.7907 86.3766 37.243 86.4996 37.6306 86.7456C38.0207 86.9916 38.3239 87.337 38.5401 87.7818C38.7587 88.2266 38.8681 88.7472 38.8681 89.3435C38.8681 89.9349 38.7587 90.4518 38.5401 90.8941C38.3239 91.3364 38.0207 91.6805 37.6306 91.9265C37.243 92.1725 36.7907 92.2955 36.2739 92.2955ZM36.2739 91.5054C36.6665 91.5054 36.9895 91.4047 37.243 91.2035C37.4964 91.0022 37.684 90.7375 37.8058 90.4095C37.9276 90.0815 37.9884 89.7262 37.9884 89.3435C37.9884 88.9609 37.9276 88.6043 37.8058 88.2738C37.684 87.9433 37.4964 87.6762 37.243 87.4725C36.9895 87.2687 36.6665 87.1668 36.2739 87.1668C35.8813 87.1668 35.5583 87.2687 35.3048 87.4725C35.0513 87.6762 34.8637 87.9433 34.742 88.2738C34.6202 88.6043 34.5593 88.9609 34.5593 89.3435C34.5593 89.7262 34.6202 90.0815 34.742 90.4095C34.8637 90.7375 35.0513 91.0022 35.3048 91.2035C35.5583 91.4047 35.8813 91.5054 36.2739 91.5054ZM44.6873 86.4512L42.5702 92.1763H41.6756L39.5586 86.4512H40.5127L42.0931 91.0134H42.1527L43.7331 86.4512H44.6873ZM51.4691 84.5428V92.1763H50.5447V85.5119H50.5L48.6363 86.7494V85.8101L50.5447 84.5428H51.4691ZM53.6644 92.1763V91.5054L56.1841 88.7472C56.4798 88.4241 56.7233 88.1434 56.9146 87.9048C57.1059 87.6638 57.2476 87.4377 57.3395 87.2265C57.4339 87.0128 57.4811 86.7891 57.4811 86.5555C57.4811 86.2872 57.4165 86.0548 57.2873 85.8585C57.1606 85.6622 56.9867 85.5107 56.7655 85.4038C56.5444 85.297 56.2959 85.2435 56.0201 85.2435C55.7268 85.2435 55.4709 85.3044 55.2522 85.4262C55.0361 85.5455 54.8683 85.7132 54.7491 85.9294C54.6323 86.1455 54.5739 86.399 54.5739 86.6897H53.6942C53.6942 86.2425 53.7974 85.8498 54.0036 85.5119C54.2098 85.174 54.4906 84.9106 54.846 84.7217C55.2038 84.5329 55.6051 84.4385 56.0499 84.4385C56.4971 84.4385 56.8935 84.5329 57.2389 84.7217C57.5843 84.9106 57.8551 85.1653 58.0514 85.4858C58.2477 85.8064 58.3459 86.1629 58.3459 86.5555C58.3459 86.8363 58.2949 87.1109 58.1931 87.3793C58.0937 87.6451 57.9197 87.9421 57.6712 88.2701C57.4252 88.5956 57.0836 88.9932 56.6462 89.4628L54.9317 91.2966V91.3563H58.4801V92.1763H53.6644ZM61.3463 91.1326L61.2867 91.5352C61.2445 91.8185 61.1798 92.1216 61.0929 92.4446C61.0084 92.7677 60.9202 93.0721 60.8282 93.3578C60.7363 93.6436 60.6605 93.8709 60.6009 94.0399H59.93C59.9623 93.8809 60.0045 93.6709 60.0567 93.41C60.1089 93.1491 60.1611 92.8571 60.2132 92.5341C60.2679 92.2135 60.3126 91.8855 60.3474 91.5501L60.3921 91.1326H61.3463ZM65.9132 92.1763V91.5054L68.4328 88.7472C68.7285 88.4241 68.972 88.1434 69.1634 87.9048C69.3547 87.6638 69.4963 87.4377 69.5883 87.2265C69.6827 87.0128 69.7299 86.7891 69.7299 86.5555C69.7299 86.2872 69.6653 86.0548 69.5361 85.8585C69.4094 85.6622 69.2354 85.5107 69.0143 85.4038C68.7931 85.297 68.5446 85.2435 68.2688 85.2435C67.9756 85.2435 67.7197 85.3044 67.501 85.4262C67.2848 85.5455 67.1171 85.7132 66.9978 85.9294C66.881 86.1455 66.8226 86.399 66.8226 86.6897H65.943C65.943 86.2425 66.0461 85.8498 66.2524 85.5119C66.4586 85.174 66.7394 84.9106 67.0947 84.7217C67.4525 84.5329 67.8538 84.4385 68.2986 84.4385C68.7459 84.4385 69.1422 84.5329 69.4876 84.7217C69.833 84.9106 70.1039 85.1653 70.3002 85.4858C70.4965 85.8064 70.5946 86.1629 70.5946 86.5555C70.5946 86.8363 70.5437 87.1109 70.4418 87.3793C70.3424 87.6451 70.1685 87.9421 69.92 88.2701C69.674 88.5956 69.3323 88.9932 68.895 89.4628L67.1804 91.2966V91.3563H70.7288V92.1763H65.9132ZM74.758 92.2806C74.1964 92.2806 73.7181 92.1278 73.323 91.8222C72.9279 91.5141 72.626 91.068 72.4173 90.4841C72.2085 89.8977 72.1042 89.1895 72.1042 88.3595C72.1042 87.5346 72.2085 86.8301 72.4173 86.2462C72.6285 85.6598 72.9316 85.2125 73.3267 84.9044C73.7243 84.5938 74.2014 84.4385 74.758 84.4385C75.3146 84.4385 75.7904 84.5938 76.1855 84.9044C76.5831 85.2125 76.8863 85.6598 77.095 86.2462C77.3062 86.8301 77.4118 87.5346 77.4118 88.3595C77.4118 89.1895 77.3074 89.8977 77.0987 90.4841C76.89 91.068 76.5881 91.5141 76.193 91.8222C75.7979 92.1278 75.3196 92.2806 74.758 92.2806ZM74.758 91.4606C75.3146 91.4606 75.747 91.1923 76.0551 90.6555C76.3632 90.1188 76.5173 89.3535 76.5173 88.3595C76.5173 87.6986 76.4464 87.1358 76.3048 86.6711C76.1657 86.2064 75.9644 85.8523 75.701 85.6088C75.4401 85.3653 75.1257 85.2435 74.758 85.2435C74.2064 85.2435 73.7752 85.5156 73.4646 86.0598C73.154 86.6015 72.9987 87.3681 72.9987 88.3595C72.9987 89.0205 73.0683 89.5821 73.2074 90.0443C73.3466 90.5065 73.5466 90.8581 73.8075 91.0991C74.0709 91.3401 74.3877 91.4606 74.758 91.4606ZM78.8282 92.1763V91.5054L81.3478 88.7472C81.6435 88.4241 81.887 88.1434 82.0784 87.9048C82.2697 87.6638 82.4113 87.4377 82.5033 87.2265C82.5977 87.0128 82.6449 86.7891 82.6449 86.5555C82.6449 86.2872 82.5803 86.0548 82.4511 85.8585C82.3244 85.6622 82.1504 85.5107 81.9293 85.4038C81.7081 85.297 81.4596 85.2435 81.1838 85.2435C80.8906 85.2435 80.6347 85.3044 80.416 85.4262C80.1998 85.5455 80.0321 85.7132 79.9128 85.9294C79.796 86.1455 79.7376 86.399 79.7376 86.6897H78.858C78.858 86.2425 78.9611 85.8498 79.1674 85.5119C79.3736 85.174 79.6544 84.9106 80.0097 84.7217C80.3675 84.5329 80.7688 84.4385 81.2136 84.4385C81.6609 84.4385 82.0572 84.5329 82.4026 84.7217C82.748 84.9106 83.0189 85.1653 83.2152 85.4858C83.4115 85.8064 83.5096 86.1629 83.5096 86.5555C83.5096 86.8363 83.4587 87.1109 83.3568 87.3793C83.2574 87.6451 83.0835 87.9421 82.835 88.2701C82.589 88.5956 82.2473 88.9932 81.81 89.4628L80.0954 91.2966V91.3563H83.6438V92.1763H78.8282ZM87.7624 92.2806C87.2704 92.2806 86.8319 92.1961 86.4467 92.0272C86.0641 91.8582 85.7597 91.6234 85.5335 91.3227C85.3099 91.0196 85.1881 90.668 85.1683 90.2679H86.1075C86.1274 90.5139 86.2119 90.7264 86.361 90.9053C86.5101 91.0817 86.7051 91.2184 86.9462 91.3153C87.1872 91.4122 87.4543 91.4606 87.7475 91.4606C88.0755 91.4606 88.3663 91.4035 88.6197 91.2892C88.8732 91.1749 89.072 91.0158 89.2161 90.8121C89.3602 90.6083 89.4323 90.3723 89.4323 90.1039C89.4323 89.8231 89.3627 89.5759 89.2235 89.3622C89.0844 89.146 88.8806 88.977 88.6123 88.8553C88.3439 88.7335 88.0159 88.6726 87.6283 88.6726H87.017V87.8526H87.6283C87.9314 87.8526 88.1973 87.798 88.4259 87.6886C88.657 87.5793 88.8371 87.4252 88.9664 87.2265C89.0981 87.0277 89.1639 86.7941 89.1639 86.5257C89.1639 86.2673 89.1068 86.0424 88.9924 85.8511C88.8781 85.6598 88.7166 85.5107 88.5079 85.4038C88.3017 85.297 88.0581 85.2435 87.7774 85.2435C87.514 85.2435 87.2655 85.292 87.0319 85.3889C86.8008 85.4833 86.612 85.6212 86.4654 85.8026C86.3188 85.9815 86.2392 86.1977 86.2268 86.4512H85.3323C85.3472 86.0511 85.4677 85.7008 85.6938 85.4001C85.9199 85.0969 86.2156 84.8609 86.5809 84.6919C86.9487 84.5229 87.3524 84.4385 87.7923 84.4385C88.2644 84.4385 88.6694 84.5341 89.0074 84.7255C89.3453 84.9143 89.605 85.164 89.7864 85.4746C89.9678 85.7852 90.0584 86.1207 90.0584 86.481C90.0584 86.9109 89.9454 87.2774 89.7193 87.5805C89.4956 87.8837 89.1912 88.0937 88.8061 88.2105V88.2701C89.2881 88.3496 89.6646 88.5546 89.9354 88.8851C90.2063 89.2131 90.3417 89.6194 90.3417 90.1039C90.3417 90.5189 90.2287 90.8916 90.0025 91.2221C89.7789 91.5501 89.4733 91.8085 89.0856 91.9974C88.698 92.1862 88.2569 92.2806 87.7624 92.2806Z" fill="#737373"/>
<rect x="125.607" y="44.4961" width="103.648" height="62.176" rx="10.496" fill="#F7F7F7" fill-opacity="0.968627"/>
<path d="M140.476 57.5244V59.1644M144.849 57.5244V59.1644M138.016 61.4003H147.309M147.582 61.0778V65.7244C147.582 67.3644 146.762 68.4578 144.849 68.4578H140.476C138.562 68.4578 137.742 67.3644 137.742 65.7244V61.0778C137.742 59.4378 138.562 58.3444 140.476 58.3444H144.849C146.762 58.3444 147.582 59.4378 147.582 61.0778Z" stroke="#262626" stroke-width="0.82" stroke-miterlimit="10" stroke-linecap="round" stroke-linejoin="round"/>
<path d="M144.683 63.9202H144.688M144.683 65.5602H144.688M142.66 63.9202H142.665M142.66 65.5602H142.665M140.637 63.9202H140.642M140.637 65.5602H140.642" stroke="#262626" stroke-width="1.09333" stroke-linecap="round" stroke-linejoin="round"/>
<path d="M162.962 61.8411H161.799C161.754 61.5926 161.671 61.3739 161.549 61.1851C161.428 60.9962 161.278 60.836 161.102 60.7043C160.926 60.5726 160.728 60.4732 160.509 60.4061C160.293 60.339 160.063 60.3055 159.82 60.3055C159.38 60.3055 158.986 60.416 158.638 60.6372C158.293 60.8583 158.02 61.1826 157.818 61.61C157.62 62.0374 157.52 62.5592 157.52 63.1755C157.52 63.7967 157.62 64.321 157.818 64.7484C158.02 65.1758 158.294 65.4988 158.642 65.7175C158.99 65.9361 159.381 66.0455 159.816 66.0455C160.057 66.0455 160.286 66.0132 160.502 65.9486C160.721 65.8815 160.918 65.7833 161.095 65.6541C161.271 65.5249 161.42 65.3671 161.542 65.1807C161.666 64.9919 161.752 64.7757 161.799 64.5322L162.962 64.5359C162.9 64.9111 162.779 65.2565 162.6 65.5721C162.424 65.8852 162.197 66.156 161.918 66.3846C161.642 66.6108 161.327 66.7859 160.972 66.9102C160.616 67.0344 160.229 67.0966 159.809 67.0966C159.148 67.0966 158.559 66.94 158.042 66.6269C157.525 66.3113 157.118 65.8603 156.819 65.2739C156.524 64.6875 156.376 63.988 156.376 63.1755C156.376 62.3604 156.525 61.6609 156.823 61.077C157.121 60.4906 157.529 60.0408 158.046 59.7277C158.563 59.4122 159.15 59.2544 159.809 59.2544C160.214 59.2544 160.591 59.3128 160.942 59.4296C161.295 59.5439 161.611 59.7128 161.892 59.9365C162.173 60.1576 162.405 60.4285 162.589 60.749C162.773 61.0671 162.897 61.4311 162.962 61.8411ZM165.365 63.5929V66.9922H164.251V59.3587H165.35V62.1989H165.421C165.555 61.8908 165.76 61.646 166.036 61.4646C166.312 61.2832 166.672 61.1926 167.117 61.1926C167.51 61.1926 167.852 61.2733 168.146 61.4348C168.441 61.5963 168.67 61.8374 168.831 62.1579C168.995 62.476 169.077 62.8736 169.077 63.3506V66.9922H167.963V63.4848C167.963 63.0649 167.855 62.7394 167.639 62.5083C167.423 62.2747 167.122 62.1579 166.737 62.1579C166.473 62.1579 166.237 62.2138 166.029 62.3256C165.822 62.4375 165.66 62.6015 165.54 62.8176C165.423 63.0313 165.365 63.2898 165.365 63.5929ZM173.032 67.1077C172.468 67.1077 171.982 66.9872 171.575 66.7462C171.17 66.5027 170.857 66.161 170.635 65.7212C170.417 65.2789 170.307 64.7608 170.307 64.1669C170.307 63.5805 170.417 63.0636 170.635 62.6164C170.857 62.1691 171.165 61.82 171.56 61.569C171.957 61.318 172.422 61.1926 172.954 61.1926C173.277 61.1926 173.59 61.246 173.893 61.3528C174.196 61.4597 174.468 61.6274 174.709 61.856C174.95 62.0846 175.14 62.3816 175.28 62.7468C175.419 63.1096 175.488 63.5507 175.488 64.07V64.4651H170.937V63.6302H174.396C174.396 63.337 174.337 63.0773 174.217 62.8512C174.098 62.6226 173.93 62.4424 173.714 62.3107C173.5 62.179 173.25 62.1132 172.961 62.1132C172.648 62.1132 172.375 62.1902 172.141 62.3443C171.91 62.4959 171.731 62.6946 171.605 62.9406C171.48 63.1842 171.418 63.4488 171.418 63.7346V64.3868C171.418 64.7695 171.485 65.095 171.619 65.3634C171.756 65.6317 171.946 65.8367 172.19 65.9784C172.433 66.1175 172.718 66.1871 173.043 66.1871C173.254 66.1871 173.447 66.1573 173.621 66.0976C173.795 66.0355 173.945 65.9436 174.072 65.8218C174.199 65.7001 174.296 65.5497 174.363 65.3708L175.418 65.5609C175.333 65.8715 175.181 66.1436 174.963 66.3772C174.747 66.6083 174.475 66.7884 174.147 66.9176C173.821 67.0444 173.45 67.1077 173.032 67.1077ZM179.136 67.1077C178.582 67.1077 178.105 66.9822 177.705 66.7313C177.308 66.4778 177.002 66.1287 176.788 65.6839C176.575 65.2391 176.468 64.7297 176.468 64.1557C176.468 63.5743 176.577 63.0612 176.796 62.6164C177.014 62.1691 177.322 61.82 177.72 61.569C178.118 61.318 178.586 61.1926 179.125 61.1926C179.56 61.1926 179.948 61.2733 180.288 61.4348C180.629 61.5939 180.903 61.8175 181.112 62.1057C181.323 62.394 181.449 62.7307 181.488 63.1158H180.404C180.344 62.8475 180.207 62.6164 179.994 62.4226C179.782 62.2287 179.499 62.1318 179.144 62.1318C178.833 62.1318 178.561 62.2138 178.328 62.3778C178.097 62.5393 177.916 62.7704 177.787 63.0711C177.658 63.3693 177.593 63.7221 177.593 64.1296C177.593 64.5471 177.657 64.9074 177.783 65.2106C177.91 65.5137 178.089 65.7485 178.32 65.915C178.554 66.0815 178.828 66.1647 179.144 66.1647C179.355 66.1647 179.546 66.1262 179.718 66.0492C179.892 65.9697 180.037 65.8566 180.154 65.71C180.273 65.5634 180.356 65.387 180.404 65.1807H181.488C181.449 65.551 181.328 65.8815 181.127 66.1722C180.926 66.4629 180.656 66.6915 180.318 66.858C179.983 67.0245 179.589 67.1077 179.136 67.1077ZM183.705 65.0503L183.698 63.6898H183.892L186.173 61.2671H187.507L184.905 64.0253H184.73L183.705 65.0503ZM182.68 66.9922V59.3587H183.795V66.9922H182.68ZM186.296 66.9922L184.246 64.2713L185.013 63.4923L187.664 66.9922H186.296ZM194.674 62.6909V63.66H191.289V62.6909H194.674ZM205.657 63.1755C205.657 63.9905 205.508 64.6912 205.21 65.2776C204.911 65.8616 204.503 66.3113 203.983 66.6269C203.467 66.94 202.879 67.0966 202.22 67.0966C201.559 67.0966 200.969 66.94 200.45 66.6269C199.933 66.3113 199.526 65.8603 199.227 65.2739C198.929 64.6875 198.78 63.988 198.78 63.1755C198.78 62.3604 198.929 61.6609 199.227 61.077C199.526 60.4906 199.933 60.0408 200.45 59.7277C200.969 59.4122 201.559 59.2544 202.22 59.2544C202.879 59.2544 203.467 59.4122 203.983 59.7277C204.503 60.0408 204.911 60.4906 205.21 61.077C205.508 61.6609 205.657 62.3604 205.657 63.1755ZM204.516 63.1755C204.516 62.5542 204.416 62.0312 204.214 61.6063C204.016 61.1789 203.742 60.8559 203.394 60.6372C203.049 60.416 202.658 60.3055 202.22 60.3055C201.781 60.3055 201.388 60.416 201.043 60.6372C200.697 60.8559 200.424 61.1789 200.223 61.6063C200.024 62.0312 199.924 62.5542 199.924 63.1755C199.924 63.7967 200.024 64.321 200.223 64.7484C200.424 65.1733 200.697 65.4963 201.043 65.7175C201.388 65.9361 201.781 66.0455 202.22 66.0455C202.658 66.0455 203.049 65.9361 203.394 65.7175C203.742 65.4963 204.016 65.1733 204.214 64.7484C204.416 64.321 204.516 63.7967 204.516 63.1755ZM210.63 64.6179V61.2671H211.748V66.9922H210.652V66.0007H210.593C210.461 66.3064 210.25 66.5611 209.959 66.7648C209.671 66.9661 209.312 67.0667 208.882 67.0667C208.514 67.0667 208.189 66.986 207.905 66.8245C207.625 66.6605 207.403 66.4182 207.242 66.0976C207.083 65.7771 207.003 65.3808 207.003 64.9086V61.2671H208.118V64.7745C208.118 65.1646 208.226 65.4752 208.442 65.7063C208.658 65.9374 208.939 66.0529 209.284 66.0529C209.493 66.0529 209.701 66.0007 209.907 65.8964C210.116 65.792 210.288 65.6342 210.425 65.423C210.564 65.2118 210.633 64.9434 210.63 64.6179ZM215.918 61.2671V62.1616H212.791V61.2671H215.918ZM213.63 59.8955H214.744V65.3112C214.744 65.5274 214.776 65.6901 214.841 65.7995C214.906 65.9063 214.989 65.9796 215.091 66.0194C215.195 66.0566 215.308 66.0753 215.43 66.0753C215.519 66.0753 215.598 66.0691 215.665 66.0566C215.732 66.0442 215.784 66.0343 215.821 66.0268L216.022 66.9475C215.958 66.9723 215.866 66.9972 215.747 67.022C215.627 67.0493 215.478 67.0642 215.299 67.0667C215.006 67.0717 214.733 67.0195 214.479 66.9102C214.226 66.8009 214.021 66.6319 213.864 66.4033C213.708 66.1747 213.63 65.8877 213.63 65.5423V59.8955Z" fill="#262626"/>
<path d="M143.081 84.5428V92.1763H142.186L138.027 86.1828H137.952V92.1763H137.028V84.5428H137.922L142.097 90.5512H142.172V84.5428H143.081ZM147.137 92.2955C146.62 92.2955 146.167 92.1725 145.777 91.9265C145.389 91.6805 145.086 91.3364 144.867 90.8941C144.651 90.4518 144.543 89.9349 144.543 89.3435C144.543 88.7472 144.651 88.2266 144.867 87.7818C145.086 87.337 145.389 86.9916 145.777 86.7456C146.167 86.4996 146.62 86.3766 147.137 86.3766C147.654 86.3766 148.106 86.4996 148.494 86.7456C148.884 86.9916 149.187 87.337 149.403 87.7818C149.622 88.2266 149.731 88.7472 149.731 89.3435C149.731 89.9349 149.622 90.4518 149.403 90.8941C149.187 91.3364 148.884 91.6805 148.494 91.9265C148.106 92.1725 147.654 92.2955 147.137 92.2955ZM147.137 91.5054C147.53 91.5054 147.853 91.4047 148.106 91.2035C148.36 91.0022 148.547 90.7375 148.669 90.4095C148.791 90.0815 148.852 89.7262 148.852 89.3435C148.852 88.9609 148.791 88.6043 148.669 88.2738C148.547 87.9433 148.36 87.6762 148.106 87.4725C147.853 87.2687 147.53 87.1668 147.137 87.1668C146.745 87.1668 146.422 87.2687 146.168 87.4725C145.915 87.6762 145.727 87.9433 145.605 88.2738C145.484 88.6043 145.423 88.9609 145.423 89.3435C145.423 89.7262 145.484 90.0815 145.605 90.4095C145.727 90.7375 145.915 91.0022 146.168 91.2035C146.422 91.4047 146.745 91.5054 147.137 91.5054ZM155.551 86.4512L153.433 92.1763H152.539L150.422 86.4512H151.376L152.956 91.0134H153.016L154.596 86.4512H155.551ZM162.332 84.5428V92.1763H161.408V85.5119H161.363L159.5 86.7494V85.8101L161.408 84.5428H162.332ZM164.349 90.6108V89.8505L167.703 84.5428H168.255V85.7206H167.882L165.348 89.7312V89.7908H169.865V90.6108H164.349ZM167.942 92.1763V90.3797V90.0256V84.5428H168.822V92.1763H167.942ZM172.23 91.1326L172.17 91.5352C172.128 91.8185 172.064 92.1216 171.977 92.4446C171.892 92.7677 171.804 93.0721 171.712 93.3578C171.62 93.6436 171.544 93.8709 171.485 94.0399H170.814C170.846 93.8809 170.888 93.6709 170.94 93.41C170.993 93.1491 171.045 92.8571 171.097 92.5341C171.152 92.2135 171.196 91.8855 171.231 91.5501L171.276 91.1326H172.23ZM176.797 92.1763V91.5054L179.317 88.7472C179.612 88.4241 179.856 88.1434 180.047 87.9048C180.238 87.6638 180.38 87.4377 180.472 87.2265C180.566 87.0128 180.614 86.7891 180.614 86.5555C180.614 86.2872 180.549 86.0548 180.42 85.8585C180.293 85.6622 180.119 85.5107 179.898 85.4038C179.677 85.297 179.428 85.2435 179.153 85.2435C178.859 85.2435 178.603 85.3044 178.385 85.4262C178.169 85.5455 178.001 85.7132 177.882 85.9294C177.765 86.1455 177.706 86.399 177.706 86.6897H176.827C176.827 86.2425 176.93 85.8498 177.136 85.5119C177.342 85.174 177.623 84.9106 177.978 84.7217C178.336 84.5329 178.738 84.4385 179.182 84.4385C179.63 84.4385 180.026 84.5329 180.371 84.7217C180.717 84.9106 180.988 85.1653 181.184 85.4858C181.38 85.8064 181.478 86.1629 181.478 86.5555C181.478 86.8363 181.427 87.1109 181.326 87.3793C181.226 87.6451 181.052 87.9421 180.804 88.2701C180.558 88.5956 180.216 88.9932 179.779 89.4628L178.064 91.2966V91.3563H181.613V92.1763H176.797ZM185.642 92.2806C185.08 92.2806 184.602 92.1278 184.207 91.8222C183.812 91.5141 183.51 91.068 183.301 90.4841C183.092 89.8977 182.988 89.1895 182.988 88.3595C182.988 87.5346 183.092 86.8301 183.301 86.2462C183.512 85.6598 183.815 85.2125 184.21 84.9044C184.608 84.5938 185.085 84.4385 185.642 84.4385C186.198 84.4385 186.674 84.5938 187.069 84.9044C187.467 85.2125 187.77 85.6598 187.979 86.2462C188.19 86.8301 188.296 87.5346 188.296 88.3595C188.296 89.1895 188.191 89.8977 187.982 90.4841C187.774 91.068 187.472 91.5141 187.077 91.8222C186.682 92.1278 186.203 92.2806 185.642 92.2806ZM185.642 91.4606C186.198 91.4606 186.631 91.1923 186.939 90.6555C187.247 90.1188 187.401 89.3535 187.401 88.3595C187.401 87.6986 187.33 87.1358 187.189 86.6711C187.049 86.2064 186.848 85.8523 186.585 85.6088C186.324 85.3653 186.01 85.2435 185.642 85.2435C185.09 85.2435 184.659 85.5156 184.348 86.0598C184.038 86.6015 183.882 87.3681 183.882 88.3595C183.882 89.0205 183.952 89.5821 184.091 90.0443C184.23 90.5065 184.43 90.8581 184.691 91.0991C184.955 91.3401 185.272 91.4606 185.642 91.4606ZM189.712 92.1763V91.5054L192.232 88.7472C192.527 88.4241 192.771 88.1434 192.962 87.9048C193.153 87.6638 193.295 87.4377 193.387 87.2265C193.481 87.0128 193.529 86.7891 193.529 86.5555C193.529 86.2872 193.464 86.0548 193.335 85.8585C193.208 85.6622 193.034 85.5107 192.813 85.4038C192.592 85.297 192.343 85.2435 192.068 85.2435C191.774 85.2435 191.518 85.3044 191.3 85.4262C191.084 85.5455 190.916 85.7132 190.797 85.9294C190.68 86.1455 190.621 86.399 190.621 86.6897H189.742C189.742 86.2425 189.845 85.8498 190.051 85.5119C190.257 85.174 190.538 84.9106 190.893 84.7217C191.251 84.5329 191.653 84.4385 192.097 84.4385C192.545 84.4385 192.941 84.5329 193.286 84.7217C193.632 84.9106 193.903 85.1653 194.099 85.4858C194.295 85.8064 194.393 86.1629 194.393 86.5555C194.393 86.8363 194.342 87.1109 194.241 87.3793C194.141 87.6451 193.967 87.9421 193.719 88.2701C193.473 88.5956 193.131 88.9932 192.694 89.4628L190.979 91.2966V91.3563H194.528V92.1763H189.712ZM198.646 92.2806C198.154 92.2806 197.716 92.1961 197.33 92.0272C196.948 91.8582 196.643 91.6234 196.417 91.3227C196.194 91.0196 196.072 90.668 196.052 90.2679H196.991C197.011 90.5139 197.096 90.7264 197.245 90.9053C197.394 91.0817 197.589 91.2184 197.83 91.3153C198.071 91.4122 198.338 91.4606 198.631 91.4606C198.959 91.4606 199.25 91.4035 199.503 91.2892C199.757 91.1749 199.956 91.0158 200.1 90.8121C200.244 90.6083 200.316 90.3723 200.316 90.1039C200.316 89.8231 200.246 89.5759 200.107 89.3622C199.968 89.146 199.764 88.977 199.496 88.8553C199.228 88.7335 198.9 88.6726 198.512 88.6726H197.901V87.8526H198.512C198.815 87.8526 199.081 87.798 199.31 87.6886C199.541 87.5793 199.721 87.4252 199.85 87.2265C199.982 87.0277 200.048 86.7941 200.048 86.5257C200.048 86.2673 199.991 86.0424 199.876 85.8511C199.762 85.6598 199.6 85.5107 199.392 85.4038C199.185 85.297 198.942 85.2435 198.661 85.2435C198.398 85.2435 198.149 85.292 197.916 85.3889C197.685 85.4833 197.496 85.6212 197.349 85.8026C197.203 85.9815 197.123 86.1977 197.111 86.4512H196.216C196.231 86.0511 196.351 85.7008 196.578 85.4001C196.804 85.0969 197.099 84.8609 197.465 84.6919C197.832 84.5229 198.236 84.4385 198.676 84.4385C199.148 84.4385 199.553 84.5341 199.891 84.7255C200.229 84.9143 200.489 85.164 200.67 85.4746C200.852 85.7852 200.942 86.1207 200.942 86.481C200.942 86.9109 200.829 87.2774 200.603 87.5805C200.379 87.8837 200.075 88.0937 199.69 88.2105V88.2701C200.172 88.3496 200.548 88.5546 200.819 88.8851C201.09 89.2131 201.225 89.6194 201.225 90.1039C201.225 90.5189 201.112 90.8916 200.886 91.2221C200.663 91.5501 200.357 91.8085 199.969 91.9974C199.582 92.1862 199.141 92.2806 198.646 92.2806Z" fill="#737373"/>
</g>
</g>
<defs>
<clipPath id="clip0_1633_15182">
<rect width="243" height="132" rx="5" fill="white"/>
</clipPath>
<clipPath id="clip1_1633_15182">
<rect width="246" height="532.672" fill="white" transform="translate(-1 -94.6074)"/>
</clipPath>
</defs>
</svg>
