<svg width="243" height="132" viewBox="0 0 243 132" fill="none" xmlns="http://www.w3.org/2000/svg">
<g clip-path="url(#clip0_1633_15714)">
<rect width="243" height="132" rx="5" fill="#F4F4F4"/>
<g clip-path="url(#clip1_1633_15714)">
<rect width="246" height="532.672" transform="translate(-1 -94.6074)" fill="white"/>
</g>
<rect x="10.3011" y="12.3011" width="223.398" height="43.5155" rx="2.10753" fill="white"/>
<rect x="10.3011" y="12.3011" width="223.398" height="43.5155" rx="2.10753" stroke="#D6D6D6" stroke-width="0.602151"/>
<path d="M21.4561 29.3414C20.9294 29.3414 20.438 29.2483 19.982 29.062C19.526 28.8758 19.1278 28.6157 18.7873 28.2817C18.4469 27.9477 18.1804 27.5559 17.9877 27.1063C17.8014 26.6502 17.7083 26.1589 17.7083 25.6322C17.7083 25.0991 17.8014 24.6077 17.9877 24.1581C18.1739 23.7085 18.4373 23.3167 18.7777 22.9827C19.1181 22.6487 19.5163 22.3918 19.9724 22.212C20.4284 22.0257 20.923 21.9326 21.4561 21.9326C21.9892 21.9326 22.4837 22.0257 22.9398 22.212C23.3958 22.3982 23.794 22.6584 24.1344 22.9924C24.4748 23.3199 24.7382 23.7085 24.9245 24.1581C25.1171 24.6077 25.2135 25.0991 25.2135 25.6322C25.2135 26.1589 25.1171 26.6502 24.9245 27.1063C24.7318 27.5559 24.4652 27.9477 24.1248 28.2817C23.7844 28.6157 23.3862 28.8758 22.9301 29.062C22.4805 29.2483 21.9892 29.3414 21.4561 29.3414ZM21.4561 28.1468C21.8093 28.1468 22.1337 28.0858 22.4291 27.9637C22.7246 27.8353 22.9815 27.6586 23.1999 27.4338C23.4247 27.209 23.5949 26.9425 23.7105 26.6342C23.8326 26.3259 23.8936 25.9919 23.8936 25.6322C23.8936 25.2725 23.8326 24.9417 23.7105 24.6399C23.5949 24.3315 23.4247 24.065 23.1999 23.8402C22.9815 23.609 22.7246 23.4323 22.4291 23.3103C22.1337 23.1883 21.8093 23.1272 21.4561 23.1272C21.1092 23.1272 20.7881 23.1883 20.4926 23.3103C20.1972 23.4323 19.937 23.609 19.7122 23.8402C19.4939 24.065 19.3237 24.3315 19.2016 24.6399C19.0796 24.9417 19.0186 25.2725 19.0186 25.6322C19.0186 25.9919 19.0796 26.3259 19.2016 26.6342C19.3237 26.9425 19.4939 27.209 19.7122 27.4338C19.937 27.6586 20.1972 27.8353 20.4926 27.9637C20.7881 28.0858 21.1092 28.1468 21.4561 28.1468ZM26.2726 29.2258V23.9847H27.4576V25.1505L27.3613 24.9771C27.4833 24.5853 27.6728 24.3123 27.9297 24.1581C28.1931 24.004 28.5078 23.9269 28.8739 23.9269H29.1822V25.0445H28.7294C28.3697 25.0445 28.0807 25.1569 27.8623 25.3817C27.6439 25.6001 27.5347 25.9084 27.5347 26.3066V29.2258H26.2726ZM32.3136 29.3414C31.8062 29.3414 31.3534 29.2226 30.9551 28.985C30.5569 28.7409 30.2422 28.4101 30.011 27.9926C29.7797 27.5751 29.6641 27.1127 29.6641 26.6053C29.6641 26.0914 29.7797 25.629 30.011 25.2179C30.2422 24.8068 30.5569 24.4793 30.9551 24.2352C31.3598 23.9911 31.8094 23.8691 32.304 23.8691C32.7022 23.8691 33.0554 23.9494 33.3637 24.11C33.6785 24.2641 33.9258 24.4825 34.1056 24.7651L33.9129 25.0252V21.9326H35.175V29.2258H33.9803V28.2142L34.1152 28.4647C33.9354 28.7473 33.6849 28.9657 33.3637 29.1199C33.0426 29.2676 32.6925 29.3414 32.3136 29.3414ZM32.4485 28.1853C32.7375 28.1853 32.9912 28.1179 33.2096 27.983C33.428 27.8481 33.5982 27.6618 33.7202 27.4242C33.8487 27.1865 33.9129 26.9136 33.9129 26.6053C33.9129 26.3034 33.8487 26.0336 33.7202 25.796C33.5982 25.5519 33.428 25.3624 33.2096 25.2276C32.9912 25.0927 32.7375 25.0252 32.4485 25.0252C32.1659 25.0252 31.9122 25.0959 31.6874 25.2372C31.4626 25.3721 31.2859 25.5583 31.1575 25.796C31.0354 26.0272 30.9744 26.297 30.9744 26.6053C30.9744 26.9136 31.0354 27.1865 31.1575 27.4242C31.2859 27.6618 31.4626 27.8481 31.6874 27.983C31.9122 28.1179 32.1659 28.1853 32.4485 28.1853ZM38.8349 29.3414C38.2954 29.3414 37.8233 29.2194 37.4186 28.9753C37.014 28.7313 36.6993 28.4005 36.4745 27.983C36.2497 27.5655 36.1373 27.103 36.1373 26.5956C36.1373 26.069 36.2497 25.6033 36.4745 25.1986C36.7057 24.7876 37.0172 24.4632 37.409 24.2256C37.8072 23.9879 38.2504 23.8691 38.7385 23.8691C39.1496 23.8691 39.5093 23.9365 39.8176 24.0714C40.1323 24.2063 40.3989 24.3926 40.6173 24.6302C40.8356 24.8679 41.0026 25.1408 41.1182 25.4491C41.2339 25.751 41.2917 26.0786 41.2917 26.4319C41.2917 26.5218 41.2852 26.6149 41.2724 26.7112C41.266 26.8076 41.2499 26.8911 41.2242 26.9617H37.1778V25.9983H40.5113L39.9139 26.4511C39.9717 26.1557 39.9557 25.8923 39.8658 25.6611C39.7823 25.4299 39.641 25.2468 39.4419 25.1119C39.2492 24.9771 39.0147 24.9096 38.7385 24.9096C38.4752 24.9096 38.2408 24.9771 38.0352 25.1119C37.8297 25.2404 37.6723 25.4331 37.5631 25.69C37.4604 25.9405 37.4218 26.2456 37.4475 26.6053C37.4218 26.9264 37.4636 27.2122 37.5728 27.4627C37.6884 27.7068 37.8554 27.8963 38.0738 28.0312C38.2986 28.166 38.5555 28.2335 38.8445 28.2335C39.1336 28.2335 39.3776 28.1725 39.5767 28.0504C39.7823 27.9284 39.9428 27.7646 40.0585 27.5591L41.0797 28.0601C40.9769 28.3106 40.8164 28.5322 40.598 28.7248C40.3796 28.9175 40.1195 29.0685 39.8176 29.1777C39.5221 29.2868 39.1946 29.3414 38.8349 29.3414ZM42.2484 29.2258V23.9847H43.4334V25.0156L43.3371 24.8325C43.4591 24.5178 43.6582 24.2802 43.9344 24.1196C44.217 23.9526 44.5446 23.8691 44.9171 23.8691C45.3025 23.8691 45.6429 23.9526 45.9384 24.1196C46.2403 24.2866 46.4747 24.521 46.6417 24.8229C46.8087 25.1184 46.8922 25.462 46.8922 25.8538V29.2258H45.6301V26.1525C45.6301 25.9212 45.5851 25.7221 45.4952 25.5551C45.4053 25.3881 45.28 25.2597 45.1195 25.1697C44.9653 25.0734 44.7823 25.0252 44.5703 25.0252C44.3648 25.0252 44.1817 25.0734 44.0211 25.1697C43.8606 25.2597 43.7353 25.3881 43.6454 25.5551C43.5555 25.7221 43.5105 25.9212 43.5105 26.1525V29.2258H42.2484ZM50.3847 29.2258L50.8376 27.6458H49.6814V26.5378H51.1555L51.6854 24.7266H50.5293V23.6186H51.9937L52.4465 22.0482H53.7279L53.2751 23.6186H54.8647L55.3079 22.0482H56.5893L56.1365 23.6186H57.2926V24.7266H55.8185L55.2983 26.5378H56.4544V27.6458H54.9803L54.5275 29.2258H53.2558L53.699 27.6458H52.1189L51.6661 29.2258H50.3847ZM52.4369 26.5378H54.0265L54.5372 24.7266H52.9571L52.4369 26.5378ZM59.5667 29.2258V23.1658H58.1793V22.0482H60.877V29.2258H59.5667ZM62.2289 29.2258V28.2335L64.175 26.2006C64.5604 25.796 64.8559 25.4748 65.0614 25.2372C65.2734 24.9931 65.4211 24.7844 65.5046 24.6109C65.5881 24.4375 65.6298 24.2609 65.6298 24.0811C65.6298 23.7792 65.5335 23.5415 65.3408 23.3681C65.1545 23.1947 64.9137 23.108 64.6182 23.108C64.3099 23.108 64.0434 23.1979 63.8186 23.3777C63.5938 23.5512 63.43 23.8081 63.3272 24.1485L62.1807 23.792C62.2578 23.4131 62.4152 23.0855 62.6528 22.8093C62.8905 22.5267 63.1795 22.3115 63.5199 22.1638C63.8667 22.0097 64.2328 21.9326 64.6182 21.9326C65.0807 21.9326 65.4853 22.0161 65.8322 22.1831C66.1854 22.3501 66.4584 22.5845 66.6511 22.8864C66.8502 23.1883 66.9497 23.5415 66.9497 23.9462C66.9497 24.2031 66.9016 24.4568 66.8052 24.7073C66.7089 24.9578 66.5644 25.2147 66.3717 25.478C66.179 25.735 65.9285 26.024 65.6202 26.3451L63.9342 28.1179H67.0461V29.2258H62.2289ZM70.3572 29.3414C69.9654 29.3414 69.5929 29.2708 69.2396 29.1295C68.8928 28.9818 68.5941 28.7762 68.3436 28.5129C68.0996 28.2431 67.9326 27.9252 67.8427 27.5591L68.9892 27.1544C69.1048 27.482 69.2814 27.7325 69.519 27.9059C69.7567 28.0729 70.0361 28.1564 70.3572 28.1564C70.6142 28.1564 70.8357 28.1082 71.022 28.0119C71.2147 27.9156 71.3656 27.7775 71.4748 27.5976C71.584 27.4113 71.6386 27.193 71.6386 26.9425C71.6386 26.692 71.584 26.48 71.4748 26.3066C71.3721 26.1268 71.2243 25.9887 71.0316 25.8923C70.839 25.796 70.6109 25.7478 70.3476 25.7478C70.2256 25.7478 70.0971 25.7607 69.9622 25.7863C69.8338 25.812 69.7182 25.8506 69.6154 25.902L69.3167 25.2757L71.1762 23.1562H68.2473V22.0482H72.6502V23.0791L70.7812 25.2661L70.8004 24.7747C71.2308 24.7812 71.6065 24.8743 71.9276 25.0541C72.2488 25.234 72.4993 25.4813 72.6791 25.796C72.859 26.1107 72.9489 26.48 72.9489 26.9039C72.9489 27.3664 72.8365 27.7839 72.6117 28.1564C72.3869 28.5225 72.0786 28.8116 71.6868 29.0235C71.295 29.2355 70.8518 29.3414 70.3572 29.3414Z" fill="#292626"/>
<path d="M17.9684 46.8918V40.6114H18.6428V43.4355H22.0149V40.6114H22.6893V46.8918H22.0149V44.0678H18.6428V46.8918H17.9684ZM25.3897 46.993C25.103 46.993 24.8473 46.9396 24.6225 46.8328C24.3977 46.7204 24.2207 46.5687 24.0914 46.3776C23.9622 46.1865 23.8975 45.9673 23.8975 45.7201C23.8975 45.484 23.9481 45.2705 24.0493 45.0794C24.1504 44.8827 24.3078 44.7169 24.5214 44.582C24.7349 44.4471 25.0075 44.3516 25.3391 44.2954L27.1094 44.0003V44.5736L25.4908 44.8433C25.1649 44.8995 24.9288 45.0035 24.7827 45.1552C24.6422 45.307 24.572 45.4868 24.572 45.6948C24.572 45.8971 24.6506 46.0685 24.808 46.209C24.971 46.3495 25.1789 46.4198 25.4318 46.4198C25.7409 46.4198 26.0107 46.3551 26.2411 46.2259C26.4715 46.091 26.6514 45.9111 26.7806 45.6863C26.9099 45.4615 26.9745 45.2114 26.9745 44.9361V43.7896C26.9745 43.5198 26.8762 43.3006 26.6795 43.132C26.4828 42.9634 26.2271 42.8791 25.9123 42.8791C25.637 42.8791 25.3953 42.9494 25.1874 43.0899C24.9794 43.2247 24.8249 43.4018 24.7237 43.621L24.1504 43.309C24.2347 43.118 24.3668 42.9437 24.5467 42.7864C24.7321 42.629 24.9429 42.5054 25.1789 42.4155C25.415 42.3199 25.6594 42.2721 25.9123 42.2721C26.2439 42.2721 26.5362 42.3368 26.7891 42.466C27.0476 42.5953 27.2471 42.7751 27.3876 43.0056C27.5337 43.2304 27.6068 43.4917 27.6068 43.7896V46.8918H26.9745V45.9898L27.0673 46.0826C26.9886 46.2512 26.8649 46.4057 26.6963 46.5462C26.5334 46.6811 26.3395 46.7907 26.1147 46.875C25.8955 46.9537 25.6538 46.993 25.3897 46.993ZM31.1918 46.993C30.804 46.993 30.4528 46.9059 30.1381 46.7317C29.829 46.5518 29.5957 46.2989 29.4384 45.973L29.5395 45.8802V46.8918H28.9073V40.5103H29.5395V43.3849L29.4384 43.2079C29.6182 42.9213 29.8571 42.6937 30.1549 42.525C30.4584 42.3564 30.804 42.2721 31.1918 42.2721C31.619 42.2721 31.9983 42.3761 32.3299 42.5841C32.6671 42.7864 32.9312 43.0646 33.1223 43.4186C33.319 43.7727 33.4174 44.1774 33.4174 44.6326C33.4174 45.0822 33.319 45.4868 33.1223 45.8465C32.9312 46.2006 32.6671 46.4816 32.3299 46.6895C31.9983 46.8918 31.619 46.993 31.1918 46.993ZM31.1581 46.3607C31.4616 46.3607 31.7314 46.2849 31.9674 46.1331C32.2091 45.9814 32.3973 45.7763 32.5322 45.5177C32.6727 45.2536 32.743 44.9585 32.743 44.6326C32.743 44.301 32.6727 44.0059 32.5322 43.7474C32.3973 43.4889 32.2091 43.2838 31.9674 43.132C31.7314 42.9803 31.4616 42.9044 31.1581 42.9044C30.8546 42.9044 30.5792 42.9803 30.332 43.132C30.0903 43.2838 29.8964 43.4917 29.7503 43.7558C29.6098 44.0144 29.5395 44.3066 29.5395 44.6326C29.5395 44.9585 29.6098 45.2536 29.7503 45.5177C29.8964 45.7763 30.0903 45.9814 30.332 46.1331C30.5792 46.2849 30.8546 46.3607 31.1581 46.3607ZM34.5301 46.8918V42.3733H35.1623V46.8918H34.5301ZM34.5301 41.5387V40.6114H35.1623V41.5387H34.5301ZM38.1847 46.9424C37.78 46.9424 37.4681 46.8244 37.2489 46.5884C37.0297 46.3523 36.9202 46.0151 36.9202 45.5767V43.0056H36.0856V42.3733H36.2963C36.4874 42.3733 36.6391 42.3115 36.7515 42.1878C36.864 42.0586 36.9202 41.8984 36.9202 41.7073V41.328H37.5524V42.3733H38.5472V43.0056H37.5524V45.5767C37.5524 45.7285 37.5749 45.8634 37.6199 45.9814C37.6648 46.0938 37.7407 46.1837 37.8475 46.2512C37.9599 46.3186 38.1088 46.3523 38.2943 46.3523C38.3392 46.3523 38.3926 46.3495 38.4544 46.3439C38.5163 46.3383 38.5696 46.3326 38.6146 46.327V46.8918C38.5472 46.9087 38.4713 46.9199 38.387 46.9256C38.3027 46.9368 38.2352 46.9424 38.1847 46.9424ZM40.9491 46.993C40.6625 46.993 40.4068 46.9396 40.182 46.8328C39.9572 46.7204 39.7802 46.5687 39.6509 46.3776C39.5217 46.1865 39.457 45.9673 39.457 45.7201C39.457 45.484 39.5076 45.2705 39.6088 45.0794C39.7099 44.8827 39.8673 44.7169 40.0808 44.582C40.2944 44.4471 40.567 44.3516 40.8986 44.2954L42.6689 44.0003V44.5736L41.0503 44.8433C40.7243 44.8995 40.4883 45.0035 40.3422 45.1552C40.2017 45.307 40.1314 45.4868 40.1314 45.6948C40.1314 45.8971 40.2101 46.0685 40.3675 46.209C40.5305 46.3495 40.7384 46.4198 40.9913 46.4198C41.3004 46.4198 41.5702 46.3551 41.8006 46.2259C42.031 46.091 42.2109 45.9111 42.3401 45.6863C42.4694 45.4615 42.534 45.2114 42.534 44.9361V43.7896C42.534 43.5198 42.4357 43.3006 42.239 43.132C42.0423 42.9634 41.7865 42.8791 41.4718 42.8791C41.1964 42.8791 40.9548 42.9494 40.7468 43.0899C40.5389 43.2247 40.3843 43.4018 40.2832 43.621L39.7099 43.309C39.7942 43.118 39.9263 42.9437 40.1061 42.7864C40.2916 42.629 40.5024 42.5054 40.7384 42.4155C40.9744 42.3199 41.2189 42.2721 41.4718 42.2721C41.8034 42.2721 42.0956 42.3368 42.3485 42.466C42.6071 42.5953 42.8066 42.7751 42.9471 43.0056C43.0932 43.2304 43.1663 43.4917 43.1663 43.7896V46.8918H42.534V45.9898L42.6267 46.0826C42.5481 46.2512 42.4244 46.4057 42.2558 46.5462C42.0928 46.6811 41.8989 46.7907 41.6741 46.875C41.455 46.9537 41.2133 46.993 40.9491 46.993ZM46.5321 46.993C46.0881 46.993 45.6975 46.889 45.3603 46.6811C45.0231 46.4732 44.759 46.1921 44.5679 45.8381C44.3768 45.4784 44.2813 45.0738 44.2813 44.6241C44.2813 44.1745 44.3768 43.7727 44.5679 43.4186C44.759 43.0646 45.0231 42.7864 45.3603 42.5841C45.6975 42.3761 46.0881 42.2721 46.5321 42.2721C46.8131 42.2721 47.0773 42.3227 47.3246 42.4239C47.5718 42.525 47.791 42.6627 47.9821 42.837C48.1732 43.0056 48.3165 43.2023 48.412 43.4271L47.8388 43.7221C47.7264 43.4805 47.555 43.2838 47.3246 43.132C47.0941 42.9803 46.83 42.9044 46.5321 42.9044C46.2343 42.9044 45.9645 42.9803 45.7228 43.132C45.4868 43.2781 45.2985 43.4833 45.158 43.7474C45.0231 44.0059 44.9557 44.301 44.9557 44.6326C44.9557 44.9585 45.0231 45.2536 45.158 45.5177C45.2985 45.7763 45.4868 45.9814 45.7228 46.1331C45.9645 46.2849 46.2343 46.3607 46.5321 46.3607C46.83 46.3607 47.0913 46.2849 47.3161 46.1331C47.5465 45.9814 47.7208 45.7791 47.8388 45.5262L48.412 45.8381C48.3165 46.0573 48.1732 46.254 47.9821 46.4282C47.791 46.6024 47.5718 46.7401 47.3246 46.8413C47.0773 46.9424 46.8131 46.993 46.5321 46.993ZM49.5215 46.8918V42.3733H50.1538V46.8918H49.5215ZM49.5215 41.5387V40.6114H50.1538V41.5387H49.5215ZM53.5639 46.993C53.1368 46.993 52.749 46.8918 52.4005 46.6895C52.0521 46.4816 51.7739 46.2006 51.5659 45.8465C51.3636 45.4868 51.2625 45.0794 51.2625 44.6241C51.2625 44.1745 51.3636 43.7727 51.5659 43.4186C51.7683 43.0646 52.0408 42.7864 52.3837 42.5841C52.7321 42.3761 53.1255 42.2721 53.5639 42.2721C54.0023 42.2721 54.3928 42.3733 54.7357 42.5756C55.0841 42.778 55.3567 43.0561 55.5534 43.4102C55.7557 43.7643 55.8569 44.1689 55.8569 44.6241C55.8569 45.085 55.7529 45.4953 55.545 45.8549C55.337 46.209 55.0588 46.4872 54.7104 46.6895C54.3676 46.8918 53.9854 46.993 53.5639 46.993ZM53.5639 46.3607C53.8674 46.3607 54.1399 46.2849 54.3816 46.1331C54.6289 45.9814 54.8228 45.7735 54.9633 45.5093C55.1094 45.2452 55.1825 44.9501 55.1825 44.6241C55.1825 44.2982 55.1094 44.0059 54.9633 43.7474C54.8228 43.4889 54.6289 43.2838 54.3816 43.132C54.1399 42.9803 53.8674 42.9044 53.5639 42.9044C53.2604 42.9044 52.985 42.9803 52.7377 43.132C52.4961 43.2838 52.3022 43.4889 52.1561 43.7474C52.0099 44.0059 51.9369 44.2982 51.9369 44.6241C51.9369 44.9501 52.0099 45.2452 52.1561 45.5093C52.3022 45.7735 52.4961 45.9814 52.7377 46.1331C52.985 46.2849 53.2604 46.3607 53.5639 46.3607ZM53.2435 41.4966L53.977 40.2321H54.8453L53.8842 41.4966H53.2435ZM56.972 46.8918V42.3733H57.6042V43.25L57.4609 43.2163C57.5733 42.9241 57.756 42.6937 58.0089 42.525C58.2674 42.3564 58.5652 42.2721 58.9024 42.2721C59.2228 42.2721 59.5094 42.3452 59.7623 42.4913C60.0208 42.6375 60.2232 42.8398 60.3693 43.0983C60.521 43.3512 60.5969 43.6378 60.5969 43.9582V46.8918H59.9646V44.2026C59.9646 43.9273 59.9141 43.694 59.8129 43.5029C59.7174 43.3119 59.5797 43.1657 59.3998 43.0646C59.2256 42.9578 59.0233 42.9044 58.7929 42.9044C58.5624 42.9044 58.3573 42.9578 58.1775 43.0646C57.9976 43.1657 57.8571 43.3147 57.756 43.5114C57.6548 43.7025 57.6042 43.9329 57.6042 44.2026V46.8918H56.972ZM63.0767 46.8918V46.4703L64.8302 44.5398C65.173 44.1633 65.4512 43.8514 65.6648 43.6041C65.884 43.3568 66.0469 43.132 66.1537 42.9297C66.2605 42.7274 66.3139 42.5082 66.3139 42.2721C66.3139 41.8956 66.2043 41.6062 65.9851 41.4038C65.7659 41.2015 65.4737 41.1004 65.1084 41.1004C64.7318 41.1004 64.4143 41.2071 64.1558 41.4207C63.9029 41.6343 63.7315 41.9321 63.6416 42.3143L63.0262 42.1794C63.0992 41.8366 63.2313 41.5415 63.4224 41.2943C63.6135 41.047 63.8523 40.8559 64.1389 40.721C64.4256 40.5805 64.7459 40.5103 65.1 40.5103C65.4765 40.5103 65.8053 40.5861 66.0863 40.7379C66.3673 40.8896 66.5865 41.0976 66.7438 41.3617C66.9068 41.6258 66.9883 41.9293 66.9883 42.2721C66.9883 42.5082 66.9377 42.7358 66.8366 42.955C66.741 43.1742 66.5949 43.4102 66.3982 43.6631C66.2015 43.916 65.9486 44.2111 65.6395 44.5483L64.0462 46.3017H67.1569V46.8918H63.0767ZM70.7364 46.993C70.2418 46.993 69.8063 46.8581 69.4297 46.5884C69.0588 46.313 68.7694 45.9336 68.5614 45.4503C68.3535 44.9614 68.2495 44.3937 68.2495 43.7474C68.2495 43.1011 68.3535 42.5363 68.5614 42.053C68.7694 41.564 69.0588 41.1847 69.4297 40.9149C69.8007 40.6451 70.2334 40.5103 70.728 40.5103C71.2225 40.5103 71.6553 40.6451 72.0262 40.9149C72.3971 41.1847 72.6866 41.564 72.8945 42.053C73.1025 42.5363 73.2064 43.1011 73.2064 43.7474C73.2064 44.3937 73.1025 44.9614 72.8945 45.4503C72.6922 45.9392 72.4056 46.3186 72.0346 46.5884C71.6637 46.8581 71.231 46.993 70.7364 46.993ZM70.7364 46.3607C71.0961 46.3607 71.4108 46.2512 71.6806 46.032C71.9503 45.8128 72.1611 45.5093 72.3128 45.1215C72.4646 44.7281 72.5405 44.2701 72.5405 43.7474C72.5405 43.2247 72.4646 42.7695 72.3128 42.3817C72.1611 41.9883 71.9503 41.6848 71.6806 41.4713C71.4108 41.2521 71.0933 41.1425 70.728 41.1425C70.3683 41.1425 70.0536 41.2521 69.7838 41.4713C69.514 41.6848 69.3033 41.9883 69.1515 42.3817C68.9998 42.7695 68.9239 43.2247 68.9239 43.7474C68.9239 44.2645 68.9998 44.7197 69.1515 45.1131C69.3033 45.5065 69.514 45.8128 69.7838 46.032C70.0592 46.2512 70.3767 46.3607 70.7364 46.3607ZM76.2954 46.993C75.9694 46.993 75.6688 46.9368 75.3934 46.8244C75.118 46.712 74.8763 46.5518 74.6684 46.3439C74.4661 46.1359 74.3115 45.8887 74.2047 45.602L74.7443 45.3491C74.8735 45.6751 75.0759 45.9336 75.3512 46.1247C75.6266 46.3102 75.9413 46.4029 76.2954 46.4029C76.5764 46.4029 76.8265 46.3495 77.0457 46.2427C77.2649 46.1303 77.4363 45.9702 77.5599 45.7622C77.6836 45.5543 77.7454 45.3014 77.7454 45.0035C77.7454 44.7056 77.6808 44.4527 77.5515 44.2448C77.4279 44.0368 77.2564 43.8795 77.0373 43.7727C76.8181 43.6659 76.568 43.6125 76.287 43.6125C76.2139 43.6125 76.1324 43.6153 76.0425 43.621C75.9582 43.6266 75.888 43.635 75.8318 43.6463L75.6969 43.3512L77.3913 41.2015H74.4998V40.6114H78.15V41.2015L76.5652 43.1995L76.4809 43.0899C76.8574 43.1011 77.1918 43.191 77.4841 43.3596C77.7763 43.5226 78.0039 43.7446 78.1669 44.0256C78.3355 44.3066 78.4198 44.6326 78.4198 45.0035C78.4198 45.3744 78.3299 45.7116 78.15 46.0151C77.9702 46.313 77.7201 46.5518 77.3998 46.7317C77.0794 46.9059 76.7113 46.993 76.2954 46.993Z" fill="#292626"/>
<rect x="176.623" y="19.5269" width="49.8495" height="13.2151" rx="6.60753" fill="#EEEEEE"/>
<rect x="176.623" y="19.5269" width="49.8495" height="13.2151" rx="6.60753" stroke="#686767" stroke-width="0.602151"/>
<path d="M184.185 28.6345V23.2513H186.035C186.386 23.2513 186.694 23.3211 186.959 23.4608C187.224 23.5957 187.429 23.7884 187.574 24.0389C187.723 24.2846 187.798 24.5712 187.798 24.8988C187.798 25.2263 187.723 25.513 187.574 25.7587C187.429 26.0043 187.224 26.197 186.959 26.3367C186.699 26.4716 186.391 26.539 186.035 26.539H184.763V28.6345H184.185ZM184.763 25.9971H186.063C186.295 25.9971 186.497 25.9537 186.67 25.867C186.844 25.7755 186.979 25.6479 187.075 25.4841C187.171 25.3155 187.22 25.118 187.22 24.8916C187.22 24.6651 187.171 24.47 187.075 24.3063C186.979 24.1425 186.844 24.0172 186.67 23.9305C186.497 23.839 186.295 23.7932 186.063 23.7932H184.763V25.9971ZM190.37 28.7212C190.009 28.7212 189.681 28.6345 189.388 28.4611C189.099 28.2829 188.87 28.0396 188.701 27.7313C188.533 27.423 188.448 27.0737 188.448 26.6836C188.448 26.2934 188.53 25.9489 188.694 25.6503C188.858 25.3468 189.079 25.1083 189.359 24.9349C189.643 24.7615 189.961 24.6748 190.313 24.6748C190.592 24.6748 190.84 24.7278 191.057 24.8337C191.278 24.9349 191.466 25.0746 191.62 25.2528C191.775 25.4263 191.893 25.6238 191.974 25.8454C192.056 26.0621 192.097 26.2861 192.097 26.5174C192.097 26.5655 192.095 26.6209 192.09 26.6836C192.085 26.7414 192.078 26.8016 192.068 26.8642H188.795V26.3584H191.758L191.498 26.5752C191.541 26.3102 191.51 26.0742 191.404 25.867C191.302 25.6551 191.156 25.4889 190.963 25.3685C190.77 25.2432 190.553 25.1806 190.313 25.1806C190.072 25.1806 189.848 25.2432 189.641 25.3685C189.438 25.4937 189.279 25.6695 189.164 25.8959C189.048 26.1175 189.002 26.3825 189.026 26.6908C189.002 26.9991 189.05 27.2688 189.171 27.5001C189.296 27.7265 189.465 27.9023 189.677 28.0276C189.893 28.1528 190.125 28.2154 190.37 28.2154C190.655 28.2154 190.893 28.148 191.086 28.0131C191.278 27.8782 191.435 27.7096 191.555 27.5073L192.018 27.753C191.941 27.9264 191.823 28.0878 191.664 28.2371C191.505 28.3816 191.315 28.4996 191.093 28.5912C190.876 28.6779 190.635 28.7212 190.37 28.7212ZM193.053 28.6345V24.7615H193.595V25.513L193.472 25.4841C193.568 25.2336 193.725 25.0361 193.942 24.8916C194.163 24.747 194.418 24.6748 194.708 24.6748C194.982 24.6748 195.228 24.7374 195.445 24.8627C195.666 24.9879 195.84 25.1613 195.965 25.3829C196.095 25.5997 196.16 25.8454 196.16 26.1199V28.6345H195.618V26.3295C195.618 26.0934 195.575 25.8935 195.488 25.7297C195.406 25.566 195.288 25.4407 195.134 25.354C194.984 25.2625 194.811 25.2167 194.614 25.2167C194.416 25.2167 194.24 25.2625 194.086 25.354C193.932 25.4407 193.812 25.5684 193.725 25.737C193.638 25.9008 193.595 26.0983 193.595 26.3295V28.6345H193.053ZM198.944 28.7212C198.582 28.7212 198.257 28.6345 197.968 28.4611C197.679 28.2829 197.45 28.042 197.282 27.7385C197.118 27.4302 197.036 27.0834 197.036 26.698C197.036 26.3078 197.118 25.961 197.282 25.6575C197.45 25.354 197.677 25.1156 197.961 24.9421C198.25 24.7639 198.577 24.6748 198.944 24.6748C199.276 24.6748 199.572 24.747 199.832 24.8916C200.092 25.0361 200.297 25.2312 200.447 25.4768L200.36 25.6286V23.1646H200.902V28.6345H200.36V27.7674L200.447 27.8469C200.312 28.1263 200.109 28.3431 199.84 28.4972C199.575 28.6466 199.276 28.7212 198.944 28.7212ZM198.972 28.1793C199.233 28.1793 199.466 28.1143 199.673 27.9842C199.885 27.8541 200.052 27.6783 200.172 27.4567C200.297 27.2303 200.36 26.9774 200.36 26.698C200.36 26.4186 200.297 26.1681 200.172 25.9465C200.052 25.7201 199.885 25.5419 199.673 25.4118C199.466 25.2817 199.233 25.2167 198.972 25.2167C198.717 25.2167 198.486 25.2817 198.279 25.4118C198.072 25.5419 197.908 25.7177 197.787 25.9393C197.672 26.1609 197.614 26.4138 197.614 26.698C197.614 26.9774 197.672 27.2303 197.787 27.4567C197.908 27.6783 198.069 27.8541 198.272 27.9842C198.479 28.1143 198.712 28.1793 198.972 28.1793ZM202.014 28.6345V24.7615H202.556V28.6345H202.014ZM202.014 24.0461V23.2513H202.556V24.0461H202.014ZM205.429 28.7212C205.068 28.7212 204.74 28.6345 204.446 28.4611C204.157 28.2829 203.928 28.0396 203.76 27.7313C203.591 27.423 203.507 27.0737 203.507 26.6836C203.507 26.2934 203.589 25.9489 203.752 25.6503C203.916 25.3468 204.138 25.1083 204.417 24.9349C204.701 24.7615 205.019 24.6748 205.371 24.6748C205.65 24.6748 205.898 24.7278 206.115 24.8337C206.337 24.9349 206.525 25.0746 206.679 25.2528C206.833 25.4263 206.951 25.6238 207.033 25.8454C207.115 26.0621 207.156 26.2861 207.156 26.5174C207.156 26.5655 207.153 26.6209 207.149 26.6836C207.144 26.7414 207.136 26.8016 207.127 26.8642H203.854V26.3584H206.816L206.556 26.5752C206.599 26.3102 206.568 26.0742 206.462 25.867C206.361 25.6551 206.214 25.4889 206.021 25.3685C205.829 25.2432 205.612 25.1806 205.371 25.1806C205.13 25.1806 204.906 25.2432 204.699 25.3685C204.497 25.4937 204.338 25.6695 204.222 25.8959C204.106 26.1175 204.061 26.3825 204.085 26.6908C204.061 26.9991 204.109 27.2688 204.229 27.5001C204.355 27.7265 204.523 27.9023 204.735 28.0276C204.952 28.1528 205.183 28.2154 205.429 28.2154C205.713 28.2154 205.951 28.148 206.144 28.0131C206.337 27.8782 206.493 27.7096 206.614 27.5073L207.076 27.753C206.999 27.9264 206.881 28.0878 206.722 28.2371C206.563 28.3816 206.373 28.4996 206.151 28.5912C205.935 28.6779 205.694 28.7212 205.429 28.7212ZM208.111 28.6345V24.7615H208.653V25.513L208.53 25.4841C208.627 25.2336 208.783 25.0361 209 24.8916C209.222 24.747 209.477 24.6748 209.766 24.6748C210.041 24.6748 210.286 24.7374 210.503 24.8627C210.725 24.9879 210.898 25.1613 211.023 25.3829C211.153 25.5997 211.218 25.8454 211.218 26.1199V28.6345H210.676V26.3295C210.676 26.0934 210.633 25.8935 210.546 25.7297C210.464 25.566 210.346 25.4407 210.192 25.354C210.043 25.2625 209.87 25.2167 209.672 25.2167C209.475 25.2167 209.299 25.2625 209.145 25.354C208.99 25.4407 208.87 25.5684 208.783 25.737C208.697 25.9008 208.653 26.0983 208.653 26.3295V28.6345H208.111ZM213.735 28.6779C213.388 28.6779 213.12 28.5767 212.933 28.3744C212.745 28.1721 212.651 27.883 212.651 27.5073V25.3034H211.935V24.7615H212.116C212.28 24.7615 212.41 24.7085 212.506 24.6025C212.603 24.4917 212.651 24.3544 212.651 24.1907V23.8655H213.193V24.7615H214.045V25.3034H213.193V27.5073C213.193 27.6374 213.212 27.753 213.251 27.8541C213.289 27.9505 213.354 28.0276 213.446 28.0854C213.542 28.1432 213.67 28.1721 213.829 28.1721C213.867 28.1721 213.913 28.1697 213.966 28.1648C214.019 28.16 214.065 28.1552 214.103 28.1504V28.6345C214.045 28.649 213.98 28.6586 213.908 28.6634C213.836 28.6731 213.778 28.6779 213.735 28.6779ZM216.677 28.7212C216.315 28.7212 215.988 28.6345 215.694 28.4611C215.405 28.2829 215.176 28.0396 215.008 27.7313C214.839 27.423 214.755 27.0737 214.755 26.6836C214.755 26.2934 214.837 25.9489 215 25.6503C215.164 25.3468 215.386 25.1083 215.665 24.9349C215.949 24.7615 216.267 24.6748 216.619 24.6748C216.898 24.6748 217.146 24.7278 217.363 24.8337C217.585 24.9349 217.773 25.0746 217.927 25.2528C218.081 25.4263 218.199 25.6238 218.281 25.8454C218.363 26.0621 218.404 26.2861 218.404 26.5174C218.404 26.5655 218.401 26.6209 218.397 26.6836C218.392 26.7414 218.384 26.8016 218.375 26.8642H215.102V26.3584H218.064L217.804 26.5752C217.847 26.3102 217.816 26.0742 217.71 25.867C217.609 25.6551 217.462 25.4889 217.269 25.3685C217.077 25.2432 216.86 25.1806 216.619 25.1806C216.378 25.1806 216.154 25.2432 215.947 25.3685C215.745 25.4937 215.586 25.6695 215.47 25.8959C215.354 26.1175 215.309 26.3825 215.333 26.6908C215.309 26.9991 215.357 27.2688 215.477 27.5001C215.603 27.7265 215.771 27.9023 215.983 28.0276C216.2 28.1528 216.431 28.2154 216.677 28.2154C216.961 28.2154 217.199 28.148 217.392 28.0131C217.585 27.8782 217.741 27.7096 217.862 27.5073L218.324 27.753C218.247 27.9264 218.129 28.0878 217.97 28.2371C217.811 28.3816 217.621 28.4996 217.399 28.5912C217.183 28.6779 216.942 28.7212 216.677 28.7212Z" fill="#686767"/>
<rect x="10.3011" y="61.4183" width="223.398" height="43.5155" rx="2.10753" fill="white"/>
<rect x="10.3011" y="61.4183" width="223.398" height="43.5155" rx="2.10753" stroke="#D6D6D6" stroke-width="0.602151"/>
<path d="M21.4561 78.4586C20.9294 78.4586 20.438 78.3655 19.982 78.1792C19.526 77.993 19.1278 77.7328 18.7873 77.3988C18.4469 77.0649 18.1804 76.6731 17.9877 76.2234C17.8014 75.7674 17.7083 75.2761 17.7083 74.7494C17.7083 74.2163 17.8014 73.7249 17.9877 73.2753C18.1739 72.8257 18.4373 72.4339 18.7777 72.0999C19.1181 71.7659 19.5163 71.509 19.9724 71.3292C20.4284 71.1429 20.923 71.0498 21.4561 71.0498C21.9892 71.0498 22.4837 71.1429 22.9398 71.3292C23.3958 71.5154 23.794 71.7756 24.1344 72.1096C24.4748 72.4371 24.7382 72.8257 24.9245 73.2753C25.1171 73.7249 25.2135 74.2163 25.2135 74.7494C25.2135 75.2761 25.1171 75.7674 24.9245 76.2234C24.7318 76.6731 24.4652 77.0649 24.1248 77.3988C23.7844 77.7328 23.3862 77.993 22.9301 78.1792C22.4805 78.3655 21.9892 78.4586 21.4561 78.4586ZM21.4561 77.264C21.8093 77.264 22.1337 77.2029 22.4291 77.0809C22.7246 76.9525 22.9815 76.7758 23.1999 76.551C23.4247 76.3262 23.5949 76.0597 23.7105 75.7514C23.8326 75.4431 23.8936 75.1091 23.8936 74.7494C23.8936 74.3897 23.8326 74.0589 23.7105 73.757C23.5949 73.4487 23.4247 73.1822 23.1999 72.9574C22.9815 72.7262 22.7246 72.5495 22.4291 72.4275C22.1337 72.3055 21.8093 72.2444 21.4561 72.2444C21.1092 72.2444 20.7881 72.3055 20.4926 72.4275C20.1972 72.5495 19.937 72.7262 19.7122 72.9574C19.4939 73.1822 19.3237 73.4487 19.2016 73.757C19.0796 74.0589 19.0186 74.3897 19.0186 74.7494C19.0186 75.1091 19.0796 75.4431 19.2016 75.7514C19.3237 76.0597 19.4939 76.3262 19.7122 76.551C19.937 76.7758 20.1972 76.9525 20.4926 77.0809C20.7881 77.2029 21.1092 77.264 21.4561 77.264ZM26.2726 78.343V73.1019H27.4576V74.2677L27.3613 74.0942C27.4833 73.7024 27.6728 73.4295 27.9297 73.2753C28.1931 73.1212 28.5078 73.0441 28.8739 73.0441H29.1822V74.1617H28.7294C28.3697 74.1617 28.0807 74.2741 27.8623 74.4989C27.6439 74.7173 27.5347 75.0256 27.5347 75.4238V78.343H26.2726ZM32.3136 78.4586C31.8062 78.4586 31.3534 78.3398 30.9551 78.1022C30.5569 77.8581 30.2422 77.5273 30.011 77.1098C29.7797 76.6923 29.6641 76.2299 29.6641 75.7225C29.6641 75.2086 29.7797 74.7462 30.011 74.3351C30.2422 73.924 30.5569 73.5965 30.9551 73.3524C31.3598 73.1083 31.8094 72.9863 32.304 72.9863C32.7022 72.9863 33.0554 73.0666 33.3637 73.2271C33.6785 73.3813 33.9258 73.5997 34.1056 73.8823L33.9129 74.1424V71.0498H35.175V78.343H33.9803V77.3314L34.1152 77.5819C33.9354 77.8645 33.6849 78.0829 33.3637 78.237C33.0426 78.3848 32.6925 78.4586 32.3136 78.4586ZM32.4485 77.3025C32.7375 77.3025 32.9912 77.2351 33.2096 77.1002C33.428 76.9653 33.5982 76.779 33.7202 76.5414C33.8487 76.3037 33.9129 76.0308 33.9129 75.7225C33.9129 75.4206 33.8487 75.1508 33.7202 74.9132C33.5982 74.6691 33.428 74.4796 33.2096 74.3447C32.9912 74.2099 32.7375 74.1424 32.4485 74.1424C32.1659 74.1424 31.9122 74.2131 31.6874 74.3544C31.4626 74.4893 31.2859 74.6755 31.1575 74.9132C31.0354 75.1444 30.9744 75.4142 30.9744 75.7225C30.9744 76.0308 31.0354 76.3037 31.1575 76.5414C31.2859 76.779 31.4626 76.9653 31.6874 77.1002C31.9122 77.2351 32.1659 77.3025 32.4485 77.3025ZM38.8349 78.4586C38.2954 78.4586 37.8233 78.3366 37.4186 78.0925C37.014 77.8485 36.6993 77.5177 36.4745 77.1002C36.2497 76.6827 36.1373 76.2202 36.1373 75.7128C36.1373 75.1861 36.2497 74.7205 36.4745 74.3158C36.7057 73.9048 37.0172 73.5804 37.409 73.3428C37.8072 73.1051 38.2504 72.9863 38.7385 72.9863C39.1496 72.9863 39.5093 73.0537 39.8176 73.1886C40.1323 73.3235 40.3989 73.5098 40.6173 73.7474C40.8356 73.9851 41.0026 74.258 41.1182 74.5663C41.2339 74.8682 41.2917 75.1958 41.2917 75.549C41.2917 75.639 41.2852 75.7321 41.2724 75.8284C41.266 75.9248 41.2499 76.0083 41.2242 76.0789H37.1778V75.1155H40.5113L39.9139 75.5683C39.9717 75.2729 39.9557 75.0095 39.8658 74.7783C39.7823 74.5471 39.641 74.364 39.4419 74.2291C39.2492 74.0942 39.0147 74.0268 38.7385 74.0268C38.4752 74.0268 38.2408 74.0942 38.0352 74.2291C37.8297 74.3576 37.6723 74.5503 37.5631 74.8072C37.4604 75.0577 37.4218 75.3628 37.4475 75.7225C37.4218 76.0436 37.4636 76.3294 37.5728 76.5799C37.6884 76.824 37.8554 77.0135 38.0738 77.1484C38.2986 77.2832 38.5555 77.3507 38.8445 77.3507C39.1336 77.3507 39.3776 77.2897 39.5767 77.1676C39.7823 77.0456 39.9428 76.8818 40.0585 76.6763L41.0797 77.1773C40.9769 77.4277 40.8164 77.6493 40.598 77.842C40.3796 78.0347 40.1195 78.1857 39.8176 78.2948C39.5221 78.404 39.1946 78.4586 38.8349 78.4586ZM42.2484 78.343V73.1019H43.4334V74.1328L43.3371 73.9497C43.4591 73.635 43.6582 73.3974 43.9344 73.2368C44.217 73.0698 44.5446 72.9863 44.9171 72.9863C45.3025 72.9863 45.6429 73.0698 45.9384 73.2368C46.2403 73.4038 46.4747 73.6382 46.6417 73.9401C46.8087 74.2355 46.8922 74.5792 46.8922 74.971V78.343H45.6301V75.2696C45.6301 75.0384 45.5851 74.8393 45.4952 74.6723C45.4053 74.5053 45.28 74.3769 45.1195 74.2869C44.9653 74.1906 44.7823 74.1424 44.5703 74.1424C44.3648 74.1424 44.1817 74.1906 44.0211 74.2869C43.8606 74.3769 43.7353 74.5053 43.6454 74.6723C43.5555 74.8393 43.5105 75.0384 43.5105 75.2696V78.343H42.2484ZM50.3847 78.343L50.8376 76.763H49.6814V75.655H51.1555L51.6854 73.8437H50.5293V72.7358H51.9937L52.4465 71.1654H53.7279L53.2751 72.7358H54.8647L55.3079 71.1654H56.5893L56.1365 72.7358H57.2926V73.8437H55.8185L55.2983 75.655H56.4544V76.763H54.9803L54.5275 78.343H53.2558L53.699 76.763H52.1189L51.6661 78.343H50.3847ZM52.4369 75.655H54.0265L54.5372 73.8437H52.9571L52.4369 75.655ZM61.5418 78.343V76.763H58.2468V75.6647L61.4647 71.1654H62.8328V75.6647H63.8829V76.763H62.8328V78.343H61.5418ZM59.2102 76.1367L58.979 75.6647H61.5418V72.1963L61.879 72.3022L59.2102 76.1367ZM67.0651 78.4586C66.6862 78.4586 66.3233 78.388 65.9764 78.2467C65.636 78.1054 65.3406 77.9063 65.0901 77.6493C64.846 77.386 64.679 77.0745 64.5891 76.7148L65.726 76.3102C65.8351 76.6377 66.0118 76.8818 66.2558 77.0424C66.4999 77.1965 66.7697 77.2736 67.0651 77.2736C67.3092 77.2736 67.5244 77.2222 67.7106 77.1194C67.9033 77.0103 68.0511 76.8625 68.1538 76.6763C68.2566 76.4836 68.308 76.262 68.308 76.0115C68.308 75.761 68.2534 75.5426 68.1442 75.3564C68.0414 75.1701 67.8969 75.0256 67.7106 74.9228C67.5244 74.8136 67.3092 74.759 67.0651 74.759C66.8146 74.759 66.5866 74.8136 66.3811 74.9228C66.182 75.032 66.0375 75.1894 65.9475 75.3949L64.8781 75.154L65.4466 71.1654H69.3581V72.2733H65.9668L66.4582 71.7049L66.0535 74.7108L65.6778 74.4025C65.8576 74.1392 66.076 73.9465 66.3329 73.8245C66.5963 73.7024 66.9142 73.6414 67.2867 73.6414C67.762 73.6414 68.1731 73.7442 68.5199 73.9497C68.8732 74.1553 69.1462 74.4347 69.3389 74.7879C69.5315 75.1412 69.6279 75.549 69.6279 76.0115C69.6279 76.4739 69.5155 76.8914 69.2907 77.264C69.0659 77.6365 68.7608 77.9287 68.3754 78.1407C67.99 78.3527 67.5533 78.4586 67.0651 78.4586ZM73.0407 78.4586C72.5526 78.4586 72.119 78.3559 71.7401 78.1503C71.3675 77.9384 71.0753 77.6558 70.8633 77.3025C70.6514 76.9428 70.5454 76.535 70.5454 76.0789C70.5454 75.8477 70.5679 75.6165 70.6129 75.3853C70.6642 75.154 70.7542 74.9067 70.8826 74.6434C71.0175 74.3801 71.2102 74.0878 71.4607 73.7667L73.4646 71.1654H75.0254L72.5879 74.2966L72.376 74.0653C72.4659 73.9947 72.559 73.9401 72.6553 73.9016C72.7517 73.8566 72.848 73.8245 72.9444 73.8052C73.0471 73.7859 73.1531 73.7763 73.2623 73.7763C73.6991 73.7763 74.0877 73.8759 74.4281 74.075C74.7685 74.2741 75.035 74.5471 75.2277 74.8939C75.4268 75.2343 75.5264 75.6197 75.5264 76.05C75.5264 76.5125 75.4204 76.9268 75.2085 77.2929C74.9965 77.6526 74.7011 77.9384 74.3221 78.1503C73.9496 78.3559 73.5224 78.4586 73.0407 78.4586ZM73.0407 77.2736C73.2591 77.2736 73.455 77.2254 73.6284 77.1291C73.8083 77.0263 73.9496 76.8818 74.0523 76.6955C74.1615 76.5093 74.2161 76.3005 74.2161 76.0693C74.2161 75.8252 74.1615 75.6165 74.0523 75.4431C73.9496 75.2632 73.8115 75.1219 73.6381 75.0191C73.4646 74.9164 73.2655 74.865 73.0407 74.865C72.8223 74.865 72.6232 74.9164 72.4434 75.0191C72.2635 75.1219 72.119 75.2632 72.0098 75.4431C71.9071 75.6165 71.8557 75.8252 71.8557 76.0693C71.8557 76.3005 71.9071 76.5093 72.0098 76.6955C72.119 76.8818 72.2635 77.0263 72.4434 77.1291C72.6232 77.2254 72.8223 77.2736 73.0407 77.2736Z" fill="#292626"/>
<path d="M17.9684 96.009V89.7286H18.6428V92.5527H22.0149V89.7286H22.6893V96.009H22.0149V93.1849H18.6428V96.009H17.9684ZM25.3897 96.1102C25.103 96.1102 24.8473 96.0568 24.6225 95.95C24.3977 95.8376 24.2207 95.6859 24.0914 95.4948C23.9622 95.3037 23.8975 95.0845 23.8975 94.8372C23.8975 94.6012 23.9481 94.3876 24.0493 94.1966C24.1504 93.9999 24.3078 93.8341 24.5214 93.6992C24.7349 93.5643 25.0075 93.4688 25.3391 93.4126L27.1094 93.1175V93.6908L25.4908 93.9605C25.1649 94.0167 24.9288 94.1207 24.7827 94.2724C24.6422 94.4242 24.572 94.604 24.572 94.812C24.572 95.0143 24.6506 95.1857 24.808 95.3262C24.971 95.4667 25.1789 95.5369 25.4318 95.5369C25.7409 95.5369 26.0107 95.4723 26.2411 95.3431C26.4715 95.2082 26.6514 95.0283 26.7806 94.8035C26.9099 94.5787 26.9745 94.3286 26.9745 94.0532V92.9068C26.9745 92.637 26.8762 92.4178 26.6795 92.2492C26.4828 92.0806 26.2271 91.9963 25.9123 91.9963C25.637 91.9963 25.3953 92.0666 25.1874 92.2071C24.9794 92.3419 24.8249 92.519 24.7237 92.7382L24.1504 92.4262C24.2347 92.2352 24.3668 92.0609 24.5467 91.9036C24.7321 91.7462 24.9429 91.6226 25.1789 91.5326C25.415 91.4371 25.6594 91.3893 25.9123 91.3893C26.2439 91.3893 26.5362 91.454 26.7891 91.5832C27.0476 91.7125 27.2471 91.8923 27.3876 92.1228C27.5337 92.3476 27.6068 92.6089 27.6068 92.9068V96.009H26.9745V95.107L27.0673 95.1997C26.9886 95.3683 26.8649 95.5229 26.6963 95.6634C26.5334 95.7983 26.3395 95.9079 26.1147 95.9922C25.8955 96.0709 25.6538 96.1102 25.3897 96.1102ZM31.1918 96.1102C30.804 96.1102 30.4528 96.0231 30.1381 95.8489C29.829 95.669 29.5957 95.4161 29.4384 95.0902L29.5395 94.9974V96.009H28.9073V89.6274H29.5395V92.5021L29.4384 92.3251C29.6182 92.0385 29.8571 91.8108 30.1549 91.6422C30.4584 91.4736 30.804 91.3893 31.1918 91.3893C31.619 91.3893 31.9983 91.4933 32.3299 91.7012C32.6671 91.9036 32.9312 92.1818 33.1223 92.5358C33.319 92.8899 33.4174 93.2945 33.4174 93.7498C33.4174 94.1994 33.319 94.604 33.1223 94.9637C32.9312 95.3178 32.6671 95.5988 32.3299 95.8067C31.9983 96.009 31.619 96.1102 31.1918 96.1102ZM31.1581 95.4779C31.4616 95.4779 31.7314 95.4021 31.9674 95.2503C32.2091 95.0986 32.3973 94.8934 32.5322 94.6349C32.6727 94.3708 32.743 94.0757 32.743 93.7498C32.743 93.4182 32.6727 93.1231 32.5322 92.8646C32.3973 92.6061 32.2091 92.4009 31.9674 92.2492C31.7314 92.0975 31.4616 92.0216 31.1581 92.0216C30.8546 92.0216 30.5792 92.0975 30.332 92.2492C30.0903 92.4009 29.8964 92.6089 29.7503 92.873C29.6098 93.1316 29.5395 93.4238 29.5395 93.7498C29.5395 94.0757 29.6098 94.3708 29.7503 94.6349C29.8964 94.8934 30.0903 95.0986 30.332 95.2503C30.5792 95.4021 30.8546 95.4779 31.1581 95.4779ZM34.5301 96.009V91.4905H35.1623V96.009H34.5301ZM34.5301 90.6559V89.7286H35.1623V90.6559H34.5301ZM38.1847 96.0596C37.78 96.0596 37.4681 95.9416 37.2489 95.7055C37.0297 95.4695 36.9202 95.1323 36.9202 94.6939V92.1228H36.0856V91.4905H36.2963C36.4874 91.4905 36.6391 91.4287 36.7515 91.305C36.864 91.1758 36.9202 91.0156 36.9202 90.8245V90.4452H37.5524V91.4905H38.5472V92.1228H37.5524V94.6939C37.5524 94.8457 37.5749 94.9806 37.6199 95.0986C37.6648 95.211 37.7407 95.3009 37.8475 95.3683C37.9599 95.4358 38.1088 95.4695 38.2943 95.4695C38.3392 95.4695 38.3926 95.4667 38.4544 95.4611C38.5163 95.4555 38.5696 95.4498 38.6146 95.4442V96.009C38.5472 96.0259 38.4713 96.0371 38.387 96.0428C38.3027 96.054 38.2352 96.0596 38.1847 96.0596ZM40.9491 96.1102C40.6625 96.1102 40.4068 96.0568 40.182 95.95C39.9572 95.8376 39.7802 95.6859 39.6509 95.4948C39.5217 95.3037 39.457 95.0845 39.457 94.8372C39.457 94.6012 39.5076 94.3876 39.6088 94.1966C39.7099 93.9999 39.8673 93.8341 40.0808 93.6992C40.2944 93.5643 40.567 93.4688 40.8986 93.4126L42.6689 93.1175V93.6908L41.0503 93.9605C40.7243 94.0167 40.4883 94.1207 40.3422 94.2724C40.2017 94.4242 40.1314 94.604 40.1314 94.812C40.1314 95.0143 40.2101 95.1857 40.3675 95.3262C40.5305 95.4667 40.7384 95.5369 40.9913 95.5369C41.3004 95.5369 41.5702 95.4723 41.8006 95.3431C42.031 95.2082 42.2109 95.0283 42.3401 94.8035C42.4694 94.5787 42.534 94.3286 42.534 94.0532V92.9068C42.534 92.637 42.4357 92.4178 42.239 92.2492C42.0423 92.0806 41.7865 91.9963 41.4718 91.9963C41.1964 91.9963 40.9548 92.0666 40.7468 92.2071C40.5389 92.3419 40.3843 92.519 40.2832 92.7382L39.7099 92.4262C39.7942 92.2352 39.9263 92.0609 40.1061 91.9036C40.2916 91.7462 40.5024 91.6226 40.7384 91.5326C40.9744 91.4371 41.2189 91.3893 41.4718 91.3893C41.8034 91.3893 42.0956 91.454 42.3485 91.5832C42.6071 91.7125 42.8066 91.8923 42.9471 92.1228C43.0932 92.3476 43.1663 92.6089 43.1663 92.9068V96.009H42.534V95.107L42.6267 95.1997C42.5481 95.3683 42.4244 95.5229 42.2558 95.6634C42.0928 95.7983 41.8989 95.9079 41.6741 95.9922C41.455 96.0709 41.2133 96.1102 40.9491 96.1102ZM46.5321 96.1102C46.0881 96.1102 45.6975 96.0062 45.3603 95.7983C45.0231 95.5903 44.759 95.3093 44.5679 94.9553C44.3768 94.5956 44.2813 94.1909 44.2813 93.7413C44.2813 93.2917 44.3768 92.8899 44.5679 92.5358C44.759 92.1818 45.0231 91.9036 45.3603 91.7012C45.6975 91.4933 46.0881 91.3893 46.5321 91.3893C46.8131 91.3893 47.0773 91.4399 47.3246 91.5411C47.5718 91.6422 47.791 91.7799 47.9821 91.9542C48.1732 92.1228 48.3165 92.3195 48.412 92.5443L47.8388 92.8393C47.7264 92.5976 47.555 92.4009 47.3246 92.2492C47.0941 92.0975 46.83 92.0216 46.5321 92.0216C46.2343 92.0216 45.9645 92.0975 45.7228 92.2492C45.4868 92.3953 45.2985 92.6005 45.158 92.8646C45.0231 93.1231 44.9557 93.4182 44.9557 93.7498C44.9557 94.0757 45.0231 94.3708 45.158 94.6349C45.2985 94.8934 45.4868 95.0986 45.7228 95.2503C45.9645 95.4021 46.2343 95.4779 46.5321 95.4779C46.83 95.4779 47.0913 95.4021 47.3161 95.2503C47.5465 95.0986 47.7208 94.8963 47.8388 94.6434L48.412 94.9553C48.3165 95.1745 48.1732 95.3712 47.9821 95.5454C47.791 95.7196 47.5718 95.8573 47.3246 95.9585C47.0773 96.0596 46.8131 96.1102 46.5321 96.1102ZM49.5215 96.009V91.4905H50.1538V96.009H49.5215ZM49.5215 90.6559V89.7286H50.1538V90.6559H49.5215ZM53.5639 96.1102C53.1368 96.1102 52.749 96.009 52.4005 95.8067C52.0521 95.5988 51.7739 95.3178 51.5659 94.9637C51.3636 94.604 51.2625 94.1966 51.2625 93.7413C51.2625 93.2917 51.3636 92.8899 51.5659 92.5358C51.7683 92.1818 52.0408 91.9036 52.3837 91.7012C52.7321 91.4933 53.1255 91.3893 53.5639 91.3893C54.0023 91.3893 54.3928 91.4905 54.7357 91.6928C55.0841 91.8951 55.3567 92.1733 55.5534 92.5274C55.7557 92.8815 55.8569 93.2861 55.8569 93.7413C55.8569 94.2022 55.7529 94.6124 55.545 94.9721C55.337 95.3262 55.0588 95.6044 54.7104 95.8067C54.3676 96.009 53.9854 96.1102 53.5639 96.1102ZM53.5639 95.4779C53.8674 95.4779 54.1399 95.4021 54.3816 95.2503C54.6289 95.0986 54.8228 94.8906 54.9633 94.6265C55.1094 94.3624 55.1825 94.0673 55.1825 93.7413C55.1825 93.4154 55.1094 93.1231 54.9633 92.8646C54.8228 92.6061 54.6289 92.4009 54.3816 92.2492C54.1399 92.0975 53.8674 92.0216 53.5639 92.0216C53.2604 92.0216 52.985 92.0975 52.7377 92.2492C52.4961 92.4009 52.3022 92.6061 52.1561 92.8646C52.0099 93.1231 51.9369 93.4154 51.9369 93.7413C51.9369 94.0673 52.0099 94.3624 52.1561 94.6265C52.3022 94.8906 52.4961 95.0986 52.7377 95.2503C52.985 95.4021 53.2604 95.4779 53.5639 95.4779ZM53.2435 90.6138L53.977 89.3492H54.8453L53.8842 90.6138H53.2435ZM56.972 96.009V91.4905H57.6042V92.3672L57.4609 92.3335C57.5733 92.0413 57.756 91.8108 58.0089 91.6422C58.2674 91.4736 58.5652 91.3893 58.9024 91.3893C59.2228 91.3893 59.5094 91.4624 59.7623 91.6085C60.0208 91.7546 60.2232 91.957 60.3693 92.2155C60.521 92.4684 60.5969 92.755 60.5969 93.0754V96.009H59.9646V93.3198C59.9646 93.0444 59.9141 92.8112 59.8129 92.6201C59.7174 92.429 59.5797 92.2829 59.3998 92.1818C59.2256 92.075 59.0233 92.0216 58.7929 92.0216C58.5624 92.0216 58.3573 92.075 58.1775 92.1818C57.9976 92.2829 57.8571 92.4319 57.756 92.6286C57.6548 92.8196 57.6042 93.0501 57.6042 93.3198V96.009H56.972ZM63.0767 96.009V95.5875L64.8302 93.657C65.173 93.2805 65.4512 92.9686 65.6648 92.7213C65.884 92.474 66.0469 92.2492 66.1537 92.0469C66.2605 91.8446 66.3139 91.6254 66.3139 91.3893C66.3139 91.0128 66.2043 90.7234 65.9851 90.521C65.7659 90.3187 65.4737 90.2175 65.1084 90.2175C64.7318 90.2175 64.4143 90.3243 64.1558 90.5379C63.9029 90.7515 63.7315 91.0493 63.6416 91.4315L63.0262 91.2966C63.0992 90.9538 63.2313 90.6587 63.4224 90.4114C63.6135 90.1642 63.8523 89.9731 64.1389 89.8382C64.4256 89.6977 64.7459 89.6274 65.1 89.6274C65.4765 89.6274 65.8053 89.7033 66.0863 89.8551C66.3673 90.0068 66.5865 90.2147 66.7438 90.4789C66.9068 90.743 66.9883 91.0465 66.9883 91.3893C66.9883 91.6254 66.9377 91.853 66.8366 92.0722C66.741 92.2914 66.5949 92.5274 66.3982 92.7803C66.2015 93.0332 65.9486 93.3283 65.6395 93.6655L64.0462 95.4189H67.1569V96.009H63.0767ZM70.7364 96.1102C70.2418 96.1102 69.8063 95.9753 69.4297 95.7055C69.0588 95.4302 68.7694 95.0508 68.5614 94.5675C68.3535 94.0785 68.2495 93.5109 68.2495 92.8646C68.2495 92.2183 68.3535 91.6535 68.5614 91.1702C68.7694 90.6812 69.0588 90.3018 69.4297 90.0321C69.8007 89.7623 70.2334 89.6274 70.728 89.6274C71.2225 89.6274 71.6553 89.7623 72.0262 90.0321C72.3971 90.3018 72.6866 90.6812 72.8945 91.1702C73.1025 91.6535 73.2064 92.2183 73.2064 92.8646C73.2064 93.5109 73.1025 94.0785 72.8945 94.5675C72.6922 95.0564 72.4056 95.4358 72.0346 95.7055C71.6637 95.9753 71.231 96.1102 70.7364 96.1102ZM70.7364 95.4779C71.0961 95.4779 71.4108 95.3683 71.6806 95.1492C71.9503 94.93 72.1611 94.6265 72.3128 94.2387C72.4646 93.8453 72.5405 93.3873 72.5405 92.8646C72.5405 92.3419 72.4646 91.8867 72.3128 91.4989C72.1611 91.1055 71.9503 90.802 71.6806 90.5885C71.4108 90.3693 71.0933 90.2597 70.728 90.2597C70.3683 90.2597 70.0536 90.3693 69.7838 90.5885C69.514 90.802 69.3033 91.1055 69.1515 91.4989C68.9998 91.8867 68.9239 92.3419 68.9239 92.8646C68.9239 93.3816 68.9998 93.8369 69.1515 94.2303C69.3033 94.6237 69.514 94.93 69.7838 95.1492C70.0592 95.3683 70.3767 95.4779 70.7364 95.4779ZM74.3059 96.009V95.5875L76.0594 93.657C76.4022 93.2805 76.6804 92.9686 76.8939 92.7213C77.1131 92.474 77.2761 92.2492 77.3829 92.0469C77.4897 91.8446 77.5431 91.6254 77.5431 91.3893C77.5431 91.0128 77.4335 90.7234 77.2143 90.521C76.9951 90.3187 76.7029 90.2175 76.3376 90.2175C75.961 90.2175 75.6435 90.3243 75.385 90.5379C75.1321 90.7515 74.9606 91.0493 74.8707 91.4315L74.2553 91.2966C74.3284 90.9538 74.4605 90.6587 74.6515 90.4114C74.8426 90.1642 75.0815 89.9731 75.3681 89.8382C75.6547 89.6977 75.9751 89.6274 76.3291 89.6274C76.7057 89.6274 77.0344 89.7033 77.3155 89.8551C77.5965 90.0068 77.8156 90.2147 77.973 90.4789C78.136 90.743 78.2175 91.0465 78.2175 91.3893C78.2175 91.6254 78.1669 91.853 78.0657 92.0722C77.9702 92.2914 77.8241 92.5274 77.6274 92.7803C77.4307 93.0332 77.1778 93.3283 76.8687 93.6655L75.2754 95.4189H78.3861V96.009H74.3059Z" fill="#292626"/>
<rect x="176.623" y="68.6441" width="49.8495" height="13.2151" rx="6.60753" fill="#EEEEEE"/>
<rect x="176.623" y="68.6441" width="49.8495" height="13.2151" rx="6.60753" stroke="#686767" stroke-width="0.602151"/>
<path d="M184.185 77.7517V72.3685H186.035C186.386 72.3685 186.694 72.4383 186.959 72.578C187.224 72.7129 187.429 72.9056 187.574 73.1561C187.723 73.4018 187.798 73.6884 187.798 74.016C187.798 74.3435 187.723 74.6302 187.574 74.8758C187.429 75.1215 187.224 75.3142 186.959 75.4539C186.699 75.5888 186.391 75.6562 186.035 75.6562H184.763V77.7517H184.185ZM184.763 75.1143H186.063C186.295 75.1143 186.497 75.0709 186.67 74.9842C186.844 74.8927 186.979 74.765 187.075 74.6013C187.171 74.4327 187.22 74.2351 187.22 74.0087C187.22 73.7823 187.171 73.5872 187.075 73.4235C186.979 73.2597 186.844 73.1344 186.67 73.0477C186.497 72.9562 186.295 72.9104 186.063 72.9104H184.763V75.1143ZM190.37 77.8384C190.009 77.8384 189.681 77.7517 189.388 77.5783C189.099 77.4001 188.87 77.1568 188.701 76.8485C188.533 76.5402 188.448 76.1909 188.448 75.8007C188.448 75.4105 188.53 75.0661 188.694 74.7675C188.858 74.464 189.079 74.2255 189.359 74.0521C189.643 73.8787 189.961 73.792 190.313 73.792C190.592 73.792 190.84 73.845 191.057 73.9509C191.278 74.0521 191.466 74.1918 191.62 74.37C191.775 74.5435 191.893 74.741 191.974 74.9625C192.056 75.1793 192.097 75.4033 192.097 75.6345C192.097 75.6827 192.095 75.7381 192.09 75.8007C192.085 75.8585 192.078 75.9188 192.068 75.9814H188.795V75.4756H191.758L191.498 75.6924C191.541 75.4274 191.51 75.1914 191.404 74.9842C191.302 74.7723 191.156 74.6061 190.963 74.4856C190.77 74.3604 190.553 74.2978 190.313 74.2978C190.072 74.2978 189.848 74.3604 189.641 74.4856C189.438 74.6109 189.279 74.7867 189.164 75.0131C189.048 75.2347 189.002 75.4997 189.026 75.808C189.002 76.1163 189.05 76.386 189.171 76.6173C189.296 76.8437 189.465 77.0195 189.677 77.1447C189.893 77.27 190.125 77.3326 190.37 77.3326C190.655 77.3326 190.893 77.2652 191.086 77.1303C191.278 76.9954 191.435 76.8268 191.555 76.6245L192.018 76.8702C191.941 77.0436 191.823 77.205 191.664 77.3543C191.505 77.4988 191.315 77.6168 191.093 77.7084C190.876 77.7951 190.635 77.8384 190.37 77.8384ZM193.053 77.7517V73.8787H193.595V74.6302L193.472 74.6013C193.568 74.3508 193.725 74.1533 193.942 74.0087C194.163 73.8642 194.418 73.792 194.708 73.792C194.982 73.792 195.228 73.8546 195.445 73.9798C195.666 74.1051 195.84 74.2785 195.965 74.5001C196.095 74.7169 196.16 74.9625 196.16 75.2371V77.7517H195.618V75.4467C195.618 75.2106 195.575 75.0107 195.488 74.8469C195.406 74.6831 195.288 74.5579 195.134 74.4712C194.984 74.3797 194.811 74.3339 194.614 74.3339C194.416 74.3339 194.24 74.3797 194.086 74.4712C193.932 74.5579 193.812 74.6856 193.725 74.8542C193.638 75.0179 193.595 75.2155 193.595 75.4467V77.7517H193.053ZM198.944 77.8384C198.582 77.8384 198.257 77.7517 197.968 77.5783C197.679 77.4001 197.45 77.1592 197.282 76.8557C197.118 76.5474 197.036 76.2006 197.036 75.8152C197.036 75.425 197.118 75.0782 197.282 74.7747C197.45 74.4712 197.677 74.2327 197.961 74.0593C198.25 73.8811 198.577 73.792 198.944 73.792C199.276 73.792 199.572 73.8642 199.832 74.0087C200.092 74.1533 200.297 74.3484 200.447 74.594L200.36 74.7458V72.2818H200.902V77.7517H200.36V76.8846L200.447 76.9641C200.312 77.2435 200.109 77.4603 199.84 77.6144C199.575 77.7638 199.276 77.8384 198.944 77.8384ZM198.972 77.2965C199.233 77.2965 199.466 77.2315 199.673 77.1014C199.885 76.9713 200.052 76.7955 200.172 76.5739C200.297 76.3475 200.36 76.0946 200.36 75.8152C200.36 75.5358 200.297 75.2853 200.172 75.0637C200.052 74.8373 199.885 74.6591 199.673 74.529C199.466 74.3989 199.233 74.3339 198.972 74.3339C198.717 74.3339 198.486 74.3989 198.279 74.529C198.072 74.6591 197.908 74.8349 197.787 75.0565C197.672 75.2781 197.614 75.531 197.614 75.8152C197.614 76.0946 197.672 76.3475 197.787 76.5739C197.908 76.7955 198.069 76.9713 198.272 77.1014C198.479 77.2315 198.712 77.2965 198.972 77.2965ZM202.014 77.7517V73.8787H202.556V77.7517H202.014ZM202.014 73.1633V72.3685H202.556V73.1633H202.014ZM205.429 77.8384C205.068 77.8384 204.74 77.7517 204.446 77.5783C204.157 77.4001 203.928 77.1568 203.76 76.8485C203.591 76.5402 203.507 76.1909 203.507 75.8007C203.507 75.4105 203.589 75.0661 203.752 74.7675C203.916 74.464 204.138 74.2255 204.417 74.0521C204.701 73.8787 205.019 73.792 205.371 73.792C205.65 73.792 205.898 73.845 206.115 73.9509C206.337 74.0521 206.525 74.1918 206.679 74.37C206.833 74.5435 206.951 74.741 207.033 74.9625C207.115 75.1793 207.156 75.4033 207.156 75.6345C207.156 75.6827 207.153 75.7381 207.149 75.8007C207.144 75.8585 207.136 75.9188 207.127 75.9814H203.854V75.4756H206.816L206.556 75.6924C206.599 75.4274 206.568 75.1914 206.462 74.9842C206.361 74.7723 206.214 74.6061 206.021 74.4856C205.829 74.3604 205.612 74.2978 205.371 74.2978C205.13 74.2978 204.906 74.3604 204.699 74.4856C204.497 74.6109 204.338 74.7867 204.222 75.0131C204.106 75.2347 204.061 75.4997 204.085 75.808C204.061 76.1163 204.109 76.386 204.229 76.6173C204.355 76.8437 204.523 77.0195 204.735 77.1447C204.952 77.27 205.183 77.3326 205.429 77.3326C205.713 77.3326 205.951 77.2652 206.144 77.1303C206.337 76.9954 206.493 76.8268 206.614 76.6245L207.076 76.8702C206.999 77.0436 206.881 77.205 206.722 77.3543C206.563 77.4988 206.373 77.6168 206.151 77.7084C205.935 77.7951 205.694 77.8384 205.429 77.8384ZM208.111 77.7517V73.8787H208.653V74.6302L208.53 74.6013C208.627 74.3508 208.783 74.1533 209 74.0087C209.222 73.8642 209.477 73.792 209.766 73.792C210.041 73.792 210.286 73.8546 210.503 73.9798C210.725 74.1051 210.898 74.2785 211.023 74.5001C211.153 74.7169 211.218 74.9625 211.218 75.2371V77.7517H210.676V75.4467C210.676 75.2106 210.633 75.0107 210.546 74.8469C210.464 74.6831 210.346 74.5579 210.192 74.4712C210.043 74.3797 209.87 74.3339 209.672 74.3339C209.475 74.3339 209.299 74.3797 209.145 74.4712C208.99 74.5579 208.87 74.6856 208.783 74.8542C208.697 75.0179 208.653 75.2155 208.653 75.4467V77.7517H208.111ZM213.735 77.7951C213.388 77.7951 213.12 77.6939 212.933 77.4916C212.745 77.2893 212.651 77.0002 212.651 76.6245V74.4206H211.935V73.8787H212.116C212.28 73.8787 212.41 73.8257 212.506 73.7197C212.603 73.6089 212.651 73.4716 212.651 73.3078V72.9827H213.193V73.8787H214.045V74.4206H213.193V76.6245C213.193 76.7545 213.212 76.8702 213.251 76.9713C213.289 77.0677 213.354 77.1447 213.446 77.2025C213.542 77.2604 213.67 77.2893 213.829 77.2893C213.867 77.2893 213.913 77.2868 213.966 77.282C214.019 77.2772 214.065 77.2724 214.103 77.2676V77.7517C214.045 77.7662 213.98 77.7758 213.908 77.7806C213.836 77.7902 213.778 77.7951 213.735 77.7951ZM216.677 77.8384C216.315 77.8384 215.988 77.7517 215.694 77.5783C215.405 77.4001 215.176 77.1568 215.008 76.8485C214.839 76.5402 214.755 76.1909 214.755 75.8007C214.755 75.4105 214.837 75.0661 215 74.7675C215.164 74.464 215.386 74.2255 215.665 74.0521C215.949 73.8787 216.267 73.792 216.619 73.792C216.898 73.792 217.146 73.845 217.363 73.9509C217.585 74.0521 217.773 74.1918 217.927 74.37C218.081 74.5435 218.199 74.741 218.281 74.9625C218.363 75.1793 218.404 75.4033 218.404 75.6345C218.404 75.6827 218.401 75.7381 218.397 75.8007C218.392 75.8585 218.384 75.9188 218.375 75.9814H215.102V75.4756H218.064L217.804 75.6924C217.847 75.4274 217.816 75.1914 217.71 74.9842C217.609 74.7723 217.462 74.6061 217.269 74.4856C217.077 74.3604 216.86 74.2978 216.619 74.2978C216.378 74.2978 216.154 74.3604 215.947 74.4856C215.745 74.6109 215.586 74.7867 215.47 75.0131C215.354 75.2347 215.309 75.4997 215.333 75.808C215.309 76.1163 215.357 76.386 215.477 76.6173C215.603 76.8437 215.771 77.0195 215.983 77.1447C216.2 77.27 216.431 77.3326 216.677 77.3326C216.961 77.3326 217.199 77.2652 217.392 77.1303C217.585 76.9954 217.741 76.8268 217.862 76.6245L218.324 76.8702C218.247 77.0436 218.129 77.205 217.97 77.3543C217.811 77.4988 217.621 77.6168 217.399 77.7084C217.183 77.7951 216.942 77.8384 216.677 77.8384Z" fill="#686767"/>
<rect x="10.3011" y="110.535" width="223.398" height="43.5155" rx="2.10753" fill="white"/>
<rect x="10.3011" y="110.535" width="223.398" height="43.5155" rx="2.10753" stroke="#D6D6D6" stroke-width="0.602151"/>
<path d="M21.4561 127.576C20.9294 127.576 20.438 127.483 19.982 127.296C19.526 127.11 19.1278 126.85 18.7873 126.516C18.4469 126.182 18.1804 125.79 17.9877 125.341C17.8014 124.885 17.7083 124.393 17.7083 123.867C17.7083 123.333 17.8014 122.842 17.9877 122.393C18.1739 121.943 18.4373 121.551 18.7777 121.217C19.1181 120.883 19.5163 120.626 19.9724 120.446C20.4284 120.26 20.923 120.167 21.4561 120.167C21.9892 120.167 22.4837 120.26 22.9398 120.446C23.3958 120.633 23.794 120.893 24.1344 121.227C24.4748 121.554 24.7382 121.943 24.9245 122.393C25.1171 122.842 25.2135 123.333 25.2135 123.867C25.2135 124.393 25.1171 124.885 24.9245 125.341C24.7318 125.79 24.4652 126.182 24.1248 126.516C23.7844 126.85 23.3862 127.11 22.9301 127.296C22.4805 127.483 21.9892 127.576 21.4561 127.576ZM21.4561 126.381C21.8093 126.381 22.1337 126.32 22.4291 126.198C22.7246 126.07 22.9815 125.893 23.1999 125.668C23.4247 125.443 23.5949 125.177 23.7105 124.869C23.8326 124.56 23.8936 124.226 23.8936 123.867C23.8936 123.507 23.8326 123.176 23.7105 122.874C23.5949 122.566 23.4247 122.299 23.1999 122.075C22.9815 121.843 22.7246 121.667 22.4291 121.545C22.1337 121.423 21.8093 121.362 21.4561 121.362C21.1092 121.362 20.7881 121.423 20.4926 121.545C20.1972 121.667 19.937 121.843 19.7122 122.075C19.4939 122.299 19.3237 122.566 19.2016 122.874C19.0796 123.176 19.0186 123.507 19.0186 123.867C19.0186 124.226 19.0796 124.56 19.2016 124.869C19.3237 125.177 19.4939 125.443 19.7122 125.668C19.937 125.893 20.1972 126.07 20.4926 126.198C20.7881 126.32 21.1092 126.381 21.4561 126.381ZM26.2726 127.46V122.219H27.4576V123.385L27.3613 123.211C27.4833 122.82 27.6728 122.547 27.9297 122.393C28.1931 122.238 28.5078 122.161 28.8739 122.161H29.1822V123.279H28.7294C28.3697 123.279 28.0807 123.391 27.8623 123.616C27.6439 123.834 27.5347 124.143 27.5347 124.541V127.46H26.2726ZM32.3136 127.576C31.8062 127.576 31.3534 127.457 30.9551 127.219C30.5569 126.975 30.2422 126.644 30.011 126.227C29.7797 125.81 29.6641 125.347 29.6641 124.84C29.6641 124.326 29.7797 123.863 30.011 123.452C30.2422 123.041 30.5569 122.714 30.9551 122.47C31.3598 122.226 31.8094 122.103 32.304 122.103C32.7022 122.103 33.0554 122.184 33.3637 122.344C33.6785 122.498 33.9258 122.717 34.1056 122.999L33.9129 123.26V120.167H35.175V127.46H33.9803V126.449L34.1152 126.699C33.9354 126.982 33.6849 127.2 33.3637 127.354C33.0426 127.502 32.6925 127.576 32.3136 127.576ZM32.4485 126.42C32.7375 126.42 32.9912 126.352 33.2096 126.217C33.428 126.082 33.5982 125.896 33.7202 125.659C33.8487 125.421 33.9129 125.148 33.9129 124.84C33.9129 124.538 33.8487 124.268 33.7202 124.03C33.5982 123.786 33.428 123.597 33.2096 123.462C32.9912 123.327 32.7375 123.26 32.4485 123.26C32.1659 123.26 31.9122 123.33 31.6874 123.472C31.4626 123.606 31.2859 123.793 31.1575 124.03C31.0354 124.262 30.9744 124.531 30.9744 124.84C30.9744 125.148 31.0354 125.421 31.1575 125.659C31.2859 125.896 31.4626 126.082 31.6874 126.217C31.9122 126.352 32.1659 126.42 32.4485 126.42ZM38.8349 127.576C38.2954 127.576 37.8233 127.454 37.4186 127.21C37.014 126.966 36.6993 126.635 36.4745 126.217C36.2497 125.8 36.1373 125.337 36.1373 124.83C36.1373 124.303 36.2497 123.838 36.4745 123.433C36.7057 123.022 37.0172 122.698 37.409 122.46C37.8072 122.222 38.2504 122.103 38.7385 122.103C39.1496 122.103 39.5093 122.171 39.8176 122.306C40.1323 122.441 40.3989 122.627 40.6173 122.865C40.8356 123.102 41.0026 123.375 41.1182 123.684C41.2339 123.985 41.2917 124.313 41.2917 124.666C41.2917 124.756 41.2852 124.849 41.2724 124.946C41.266 125.042 41.2499 125.125 41.2242 125.196H37.1778V124.233H40.5113L39.9139 124.685C39.9717 124.39 39.9557 124.127 39.8658 123.895C39.7823 123.664 39.641 123.481 39.4419 123.346C39.2492 123.211 39.0147 123.144 38.7385 123.144C38.4752 123.144 38.2408 123.211 38.0352 123.346C37.8297 123.475 37.6723 123.667 37.5631 123.924C37.4604 124.175 37.4218 124.48 37.4475 124.84C37.4218 125.161 37.4636 125.447 37.5728 125.697C37.6884 125.941 37.8554 126.131 38.0738 126.266C38.2986 126.4 38.5555 126.468 38.8445 126.468C39.1336 126.468 39.3776 126.407 39.5767 126.285C39.7823 126.163 39.9428 125.999 40.0585 125.793L41.0797 126.294C40.9769 126.545 40.8164 126.767 40.598 126.959C40.3796 127.152 40.1195 127.303 39.8176 127.412C39.5221 127.521 39.1946 127.576 38.8349 127.576ZM42.2484 127.46V122.219H43.4334V123.25L43.3371 123.067C43.4591 122.752 43.6582 122.515 43.9344 122.354C44.217 122.187 44.5446 122.103 44.9171 122.103C45.3025 122.103 45.6429 122.187 45.9384 122.354C46.2403 122.521 46.4747 122.755 46.6417 123.057C46.8087 123.353 46.8922 123.696 46.8922 124.088V127.46H45.6301V124.387C45.6301 124.156 45.5851 123.956 45.4952 123.789C45.4053 123.622 45.28 123.494 45.1195 123.404C44.9653 123.308 44.7823 123.26 44.5703 123.26C44.3648 123.26 44.1817 123.308 44.0211 123.404C43.8606 123.494 43.7353 123.622 43.6454 123.789C43.5555 123.956 43.5105 124.156 43.5105 124.387V127.46H42.2484ZM50.3847 127.46L50.8376 125.88H49.6814V124.772H51.1555L51.6854 122.961H50.5293V121.853H51.9937L52.4465 120.283H53.7279L53.2751 121.853H54.8647L55.3079 120.283H56.5893L56.1365 121.853H57.2926V122.961H55.8185L55.2983 124.772H56.4544V125.88H54.9803L54.5275 127.46H53.2558L53.699 125.88H52.1189L51.6661 127.46H50.3847ZM52.4369 124.772H54.0265L54.5372 122.961H52.9571L52.4369 124.772ZM58.8056 127.46L61.2431 124.319L61.4647 124.551C61.3683 124.621 61.2752 124.679 61.1853 124.724C61.0954 124.769 60.999 124.801 60.8963 124.82C60.7935 124.84 60.6843 124.849 60.5687 124.849C60.1319 124.849 59.7433 124.75 59.4029 124.551C59.0625 124.352 58.7927 124.082 58.5936 123.741C58.4009 123.394 58.3046 123.003 58.3046 122.566C58.3046 122.103 58.4106 121.692 58.6225 121.333C58.8409 120.973 59.1364 120.69 59.5089 120.485C59.8879 120.273 60.3182 120.167 60.7999 120.167C61.2881 120.167 61.7184 120.27 62.0909 120.475C62.4635 120.681 62.7557 120.963 62.9677 121.323C63.186 121.676 63.2952 122.084 63.2952 122.547C63.2952 122.778 63.2695 123.009 63.2181 123.24C63.1668 123.472 63.0736 123.719 62.9387 123.982C62.8103 124.239 62.624 124.531 62.38 124.859L60.376 127.46H58.8056ZM60.7999 123.751C61.0247 123.751 61.2238 123.703 61.3972 123.606C61.5771 123.504 61.7184 123.362 61.8212 123.183C61.9239 122.996 61.9753 122.788 61.9753 122.556C61.9753 122.312 61.9207 122.1 61.8115 121.92C61.7088 121.741 61.5707 121.599 61.3972 121.497C61.2238 121.394 61.0247 121.342 60.7999 121.342C60.5815 121.342 60.3824 121.394 60.2026 121.497C60.0227 121.599 59.8782 121.741 59.769 121.92C59.6663 122.1 59.6149 122.312 59.6149 122.556C59.6149 122.788 59.6663 122.996 59.769 123.183C59.8782 123.362 60.0227 123.504 60.2026 123.606C60.3824 123.703 60.5815 123.751 60.7999 123.751ZM65.3624 127.46V121.4H63.975V120.283H66.6727V127.46H65.3624ZM70.992 127.576C70.4203 127.576 69.9194 127.422 69.489 127.113C69.0587 126.805 68.7215 126.372 68.4774 125.813C68.2398 125.254 68.1209 124.605 68.1209 123.867C68.1209 123.122 68.2398 122.473 68.4774 121.92C68.7151 121.368 69.049 120.938 69.4794 120.629C69.9097 120.321 70.4107 120.167 70.9823 120.167C71.5668 120.167 72.071 120.321 72.495 120.629C72.9253 120.938 73.2625 121.371 73.5066 121.93C73.7506 122.482 73.8727 123.128 73.8727 123.867C73.8727 124.605 73.7506 125.254 73.5066 125.813C73.2689 126.365 72.9349 126.799 72.5046 127.113C72.0742 127.422 71.57 127.576 70.992 127.576ZM71.0016 126.381C71.3292 126.381 71.6086 126.282 71.8398 126.082C72.071 125.877 72.2477 125.588 72.3697 125.215C72.4982 124.836 72.5624 124.387 72.5624 123.867C72.5624 123.346 72.4982 122.9 72.3697 122.527C72.2477 122.148 72.0678 121.859 71.8302 121.66C71.599 121.461 71.3163 121.362 70.9823 121.362C70.6612 121.362 70.385 121.461 70.1538 121.66C69.9226 121.859 69.7427 122.148 69.6143 122.527C69.4922 122.9 69.4312 123.346 69.4312 123.867C69.4312 124.38 69.4922 124.827 69.6143 125.206C69.7427 125.578 69.9226 125.867 70.1538 126.073C70.3914 126.278 70.674 126.381 71.0016 126.381Z" fill="#292626"/>
<rect x="182.623" y="117.761" width="43.8495" height="13.2151" rx="6.60753" fill="#00B8EC" fill-opacity="0.1"/>
<rect x="182.623" y="117.761" width="43.8495" height="13.2151" rx="6.60753" stroke="#00B8EC" stroke-width="0.602151"/>
<path d="M190.185 126.869V121.486H193.653V122.028H190.763V123.899H193.509V124.441H190.763V126.327H193.653V126.869H190.185ZM194.53 126.869V122.996H195.072V123.747L194.949 123.718C195.045 123.468 195.202 123.27 195.418 123.126C195.64 122.981 195.895 122.909 196.184 122.909C196.459 122.909 196.705 122.972 196.921 123.097C197.143 123.222 197.316 123.396 197.442 123.617C197.572 123.834 197.637 124.08 197.637 124.354V126.869H197.095V124.564C197.095 124.328 197.051 124.128 196.965 123.964C196.883 123.8 196.765 123.675 196.611 123.588C196.461 123.497 196.288 123.451 196.09 123.451C195.893 123.451 195.717 123.497 195.563 123.588C195.409 123.675 195.288 123.803 195.202 123.971C195.115 124.135 195.072 124.333 195.072 124.564V126.869H194.53ZM201.67 126.956C201.289 126.956 200.955 126.866 200.666 126.688C200.376 126.51 200.15 126.269 199.986 125.966C199.822 125.657 199.741 125.311 199.741 124.925C199.741 124.54 199.822 124.195 199.986 123.892C200.15 123.588 200.376 123.35 200.666 123.177C200.955 122.998 201.289 122.909 201.67 122.909C201.911 122.909 202.137 122.953 202.349 123.039C202.561 123.126 202.749 123.244 202.913 123.393C203.077 123.538 203.199 123.706 203.281 123.899L202.79 124.152C202.694 123.945 202.547 123.776 202.349 123.646C202.152 123.516 201.925 123.451 201.67 123.451C201.415 123.451 201.183 123.516 200.976 123.646C200.774 123.771 200.613 123.947 200.492 124.174C200.376 124.395 200.319 124.648 200.319 124.932C200.319 125.212 200.376 125.465 200.492 125.691C200.613 125.913 200.774 126.089 200.976 126.219C201.183 126.349 201.415 126.414 201.67 126.414C201.925 126.414 202.149 126.349 202.342 126.219C202.539 126.089 202.689 125.915 202.79 125.698L203.281 125.966C203.199 126.154 203.077 126.322 202.913 126.471C202.749 126.621 202.561 126.739 202.349 126.826C202.137 126.912 201.911 126.956 201.67 126.956ZM205.605 126.956C205.335 126.956 205.09 126.893 204.868 126.768C204.647 126.638 204.471 126.459 204.341 126.233C204.215 126.002 204.153 125.737 204.153 125.438V122.996H204.695V125.373C204.695 125.58 204.736 125.763 204.818 125.922C204.904 126.076 205.022 126.197 205.172 126.284C205.326 126.37 205.502 126.414 205.699 126.414C205.897 126.414 206.072 126.37 206.227 126.284C206.381 126.192 206.501 126.064 206.588 125.901C206.675 125.732 206.718 125.532 206.718 125.301V122.996H207.26V126.869H206.718V126.117L206.841 126.146C206.749 126.397 206.593 126.594 206.371 126.739C206.149 126.883 205.894 126.956 205.605 126.956ZM208.374 126.869V122.996H208.916V123.632L208.844 123.538C208.936 123.355 209.073 123.21 209.256 123.104C209.444 122.998 209.67 122.945 209.935 122.945H210.181V123.487H209.841C209.562 123.487 209.338 123.574 209.169 123.747C209.001 123.921 208.916 124.166 208.916 124.484V126.869H208.374ZM212.16 126.956C211.789 126.956 211.464 126.862 211.184 126.674C210.905 126.486 210.703 126.231 210.577 125.908L211.033 125.691C211.143 125.927 211.298 126.115 211.495 126.255C211.697 126.394 211.919 126.464 212.16 126.464C212.391 126.464 212.586 126.409 212.745 126.298C212.904 126.182 212.984 126.033 212.984 125.85C212.984 125.715 212.945 125.609 212.868 125.532C212.791 125.45 212.702 125.388 212.601 125.344C212.5 125.301 212.41 125.27 212.333 125.25L211.777 125.091C211.42 124.99 211.163 124.848 211.004 124.665C210.845 124.482 210.765 124.27 210.765 124.029C210.765 123.803 210.823 123.605 210.939 123.437C211.054 123.268 211.211 123.138 211.408 123.046C211.606 122.955 211.825 122.909 212.066 122.909C212.394 122.909 212.69 122.996 212.955 123.169C213.225 123.338 213.415 123.574 213.526 123.877L213.063 124.094C212.967 123.877 212.827 123.709 212.644 123.588C212.466 123.463 212.266 123.401 212.044 123.401C211.828 123.401 211.654 123.456 211.524 123.567C211.394 123.677 211.329 123.817 211.329 123.986C211.329 124.116 211.363 124.219 211.43 124.297C211.498 124.374 211.575 124.431 211.661 124.47C211.753 124.508 211.832 124.537 211.9 124.557L212.543 124.745C212.856 124.836 213.099 124.978 213.273 125.171C213.451 125.364 213.54 125.59 213.54 125.85C213.54 126.062 213.48 126.252 213.359 126.421C213.244 126.589 213.082 126.722 212.875 126.818C212.668 126.91 212.43 126.956 212.16 126.956ZM216.306 126.956C215.94 126.956 215.607 126.869 215.309 126.695C215.01 126.517 214.772 126.276 214.593 125.973C214.42 125.665 214.333 125.315 214.333 124.925C214.333 124.54 214.42 124.195 214.593 123.892C214.767 123.588 215.001 123.35 215.294 123.177C215.593 122.998 215.93 122.909 216.306 122.909C216.682 122.909 217.017 122.996 217.31 123.169C217.609 123.343 217.843 123.581 218.011 123.885C218.185 124.188 218.271 124.535 218.271 124.925C218.271 125.32 218.182 125.672 218.004 125.98C217.826 126.284 217.587 126.522 217.289 126.695C216.995 126.869 216.667 126.956 216.306 126.956ZM216.306 126.414C216.566 126.414 216.8 126.349 217.007 126.219C217.219 126.089 217.385 125.91 217.505 125.684C217.631 125.457 217.693 125.205 217.693 124.925C217.693 124.646 217.631 124.395 217.505 124.174C217.385 123.952 217.219 123.776 217.007 123.646C216.8 123.516 216.566 123.451 216.306 123.451C216.046 123.451 215.81 123.516 215.598 123.646C215.391 123.776 215.225 123.952 215.099 124.174C214.974 124.395 214.911 124.646 214.911 124.925C214.911 125.205 214.974 125.457 215.099 125.684C215.225 125.91 215.391 126.089 215.598 126.219C215.81 126.349 216.046 126.414 216.306 126.414Z" fill="#00B8EC"/>
</g>
<defs>
<clipPath id="clip0_1633_15714">
<rect width="243" height="132" rx="5" fill="white"/>
</clipPath>
<clipPath id="clip1_1633_15714">
<rect width="246" height="532.672" fill="white" transform="translate(-1 -94.6074)"/>
</clipPath>
</defs>
</svg>
