<svg width="243" height="132" viewBox="0 0 243 132" fill="none" xmlns="http://www.w3.org/2000/svg">
<rect width="243" height="132" rx="5" fill="#F4F4F4"/>
<rect x="24.7404" y="27.7404" width="75.5192" height="75.5192" rx="37.7596" stroke="#DADDDD" stroke-width="1.48077"/>
<path d="M73.3285 61.8269V60.6959C73.3285 54.4893 68.4774 49.4586 62.5002 49.4586C56.5231 49.4586 51.672 54.4893 51.672 60.6959V61.8269C51.6739 63.1769 51.2887 64.4991 50.5619 65.6368L48.7845 68.404C47.1627 70.9306 48.4011 74.3651 51.2228 75.164C58.5958 77.2542 66.4046 77.2542 73.7776 75.164C76.5994 74.3651 77.8378 70.9306 76.216 68.4056L74.4385 65.6384C73.7112 64.5009 73.3254 63.1786 73.3269 61.8285L73.3285 61.8269Z" stroke="#171621" stroke-width="2.40627"/>
<path d="M55.2812 76.7273C56.332 79.5314 59.1666 81.5398 62.5001 81.5398C65.8336 81.5398 68.6681 79.5314 69.7189 76.7273" stroke="#171621" stroke-width="2.40627" stroke-linecap="round"/>
<circle cx="70.5202" cy="55.8753" r="6.41673" fill="#FCFBFC"/>
<circle cx="70.52" cy="55.8755" r="4.27782" fill="#ED544E"/>
<path opacity="0.82" fill-rule="evenodd" clip-rule="evenodd" d="M98.9758 37C96.2276 37 93.9998 39.2278 93.9998 41.976V58.597L88 63.9505L93.9998 69.3039V87.024C93.9998 89.7722 96.2276 92 98.9758 92H214.253C217.001 92 219.229 89.7722 219.229 87.024V41.976C219.229 39.2278 217.001 37 214.253 37H98.9758Z" fill="#161616"/>
<path d="M108.26 53.6073V52.455H114.825V53.6073H112.243V61H110.967V53.6073H108.26ZM117.279 54.8897V61H116.062V54.8897H117.279ZM117.303 52.4609V53.7078H116.032V52.4609H117.303ZM120.052 58.2403C120.052 58.6067 120.111 58.9356 120.229 59.2272C120.351 59.5148 120.534 59.7433 120.779 59.9127C121.023 60.0781 121.326 60.1609 121.689 60.1609C122.051 60.1609 122.364 60.0781 122.628 59.9127C122.896 59.7472 123.072 59.501 123.154 59.174H124.324C124.253 59.5916 124.086 59.9462 123.822 60.2377C123.562 60.5292 123.247 60.7498 122.877 60.8995C122.506 61.0453 122.118 61.1182 121.712 61.1182C121.133 61.1182 120.623 60.9941 120.182 60.7459C119.741 60.4938 119.396 60.1353 119.148 59.6704C118.903 59.2055 118.781 58.652 118.781 58.0098C118.781 57.3756 118.894 56.8161 119.118 56.3316C119.343 55.843 119.668 55.4609 120.093 55.1851C120.519 54.9094 121.031 54.7715 121.63 54.7715C122.221 54.7715 122.717 54.8975 123.119 55.1497C123.525 55.4018 123.832 55.7564 124.041 56.2134C124.249 56.6664 124.354 57.2022 124.354 57.8207V58.2403H120.052ZM120.052 57.4189H123.148C123.148 57.0998 123.093 56.8102 122.983 56.5502C122.873 56.2862 122.703 56.0794 122.475 55.9297C122.25 55.7761 121.966 55.6992 121.624 55.6992C121.273 55.6992 120.982 55.7839 120.749 55.9534C120.517 56.1228 120.341 56.3394 120.223 56.6034C120.109 56.8673 120.052 57.1392 120.052 57.4189ZM125.766 61V54.8897H127.001V55.7702C127.099 55.6047 127.231 55.4491 127.397 55.3033C127.566 55.1575 127.773 55.0394 128.017 54.9487C128.265 54.8581 128.551 54.8128 128.874 54.8128C129.256 54.8128 129.609 54.8897 129.932 55.0433C130.259 55.193 130.521 55.4294 130.718 55.7524C130.915 56.0715 131.013 56.4852 131.013 56.9934V61H129.749V57.1293C129.749 56.692 129.63 56.367 129.394 56.1543C129.162 55.9415 128.86 55.8352 128.49 55.8352C128.242 55.8352 128.005 55.8765 127.781 55.9593C127.556 56.042 127.375 56.1681 127.237 56.3375C127.099 56.5029 127.03 56.7117 127.03 56.9639V61H125.766ZM133.59 58.2403C133.59 58.6067 133.649 58.9356 133.768 59.2272C133.89 59.5148 134.073 59.7433 134.317 59.9127C134.562 60.0781 134.865 60.1609 135.227 60.1609C135.59 60.1609 135.903 60.0781 136.167 59.9127C136.435 59.7472 136.61 59.501 136.693 59.174H137.863C137.792 59.5916 137.625 59.9462 137.361 60.2377C137.101 60.5292 136.785 60.7498 136.415 60.8995C136.045 61.0453 135.657 61.1182 135.251 61.1182C134.672 61.1182 134.162 60.9941 133.72 60.7459C133.279 60.4938 132.934 60.1353 132.686 59.6704C132.442 59.2055 132.32 58.652 132.32 58.0098C132.32 57.3756 132.432 56.8161 132.657 56.3316C132.881 55.843 133.206 55.4609 133.632 55.1851C134.057 54.9094 134.569 54.7715 135.168 54.7715C135.759 54.7715 136.256 54.8975 136.657 55.1497C137.063 55.4018 137.37 55.7564 137.579 56.2134C137.788 56.6664 137.892 57.2022 137.892 57.8207V58.2403H133.59ZM133.59 57.4189H136.687C136.687 57.0998 136.632 56.8102 136.521 56.5502C136.411 56.2862 136.242 56.0794 136.013 55.9297C135.789 55.7761 135.505 55.6992 135.162 55.6992C134.812 55.6992 134.52 55.7839 134.288 55.9534C134.055 56.1228 133.88 56.3394 133.762 56.6034C133.648 56.8673 133.59 57.1392 133.59 57.4189ZM141.509 61.1182C141.084 61.1182 140.684 61.0512 140.31 60.9173C139.939 60.7833 139.628 60.5726 139.376 60.285C139.128 59.9974 138.972 59.629 138.909 59.1799H140.038C140.089 59.4123 140.186 59.6054 140.327 59.759C140.473 59.9087 140.647 60.021 140.847 60.0959C141.052 60.1668 141.271 60.2022 141.503 60.2022C141.889 60.2022 142.201 60.1333 142.437 59.9954C142.677 59.8536 142.798 59.6369 142.798 59.3454C142.798 59.1366 142.733 58.9691 142.603 58.8431C142.476 58.717 142.276 58.6244 142 58.5653L140.782 58.2758C140.278 58.1576 139.874 57.9704 139.571 57.7144C139.268 57.4543 139.114 57.0919 139.11 56.627C139.11 56.2685 139.199 55.9494 139.376 55.6697C139.557 55.39 139.825 55.1713 140.18 55.0138C140.534 54.8522 140.975 54.7715 141.503 54.7715C142.193 54.7715 142.746 54.9251 143.164 55.2324C143.582 55.5397 143.798 55.9849 143.814 56.5679H142.721C142.681 56.2882 142.553 56.0696 142.337 55.912C142.124 55.7505 141.842 55.6697 141.492 55.6697C141.129 55.6697 140.832 55.7426 140.599 55.8883C140.367 56.0302 140.251 56.2488 140.251 56.5443C140.251 56.7452 140.335 56.9048 140.505 57.023C140.674 57.1372 140.928 57.2318 141.267 57.3066L142.425 57.5962C142.725 57.675 142.971 57.7794 143.164 57.9094C143.357 58.0354 143.509 58.1753 143.619 58.3289C143.729 58.4826 143.806 58.6421 143.849 58.8076C143.897 58.9731 143.92 59.1287 143.92 59.2744C143.92 59.6605 143.822 59.9915 143.625 60.2672C143.432 60.5391 143.154 60.7498 142.792 60.8995C142.433 61.0453 142.006 61.1182 141.509 61.1182ZM150.218 61.1182C149.91 61.1142 149.617 61.0689 149.337 60.9823C149.058 60.8956 148.807 60.7656 148.587 60.5922C148.37 60.4189 148.197 60.2042 148.067 59.9481C147.941 59.692 147.878 59.3946 147.878 59.0558V54.8897H149.148V58.9199C149.148 59.2863 149.262 59.5837 149.491 59.8122C149.719 60.0407 150.064 60.155 150.525 60.155C150.943 60.155 151.278 60.0466 151.53 59.8299C151.782 59.6093 151.908 59.2882 151.908 58.8667V54.8897H153.167V61H152.186L152.044 59.8181C151.973 60.1372 151.845 60.3933 151.66 60.5863C151.478 60.7754 151.262 60.9133 151.01 61C150.761 61.0827 150.497 61.1221 150.218 61.1182ZM154.863 61V54.8897H156.098V55.7702C156.196 55.6047 156.328 55.4491 156.494 55.3033C156.663 55.1575 156.87 55.0394 157.114 54.9487C157.362 54.8581 157.648 54.8128 157.971 54.8128C158.353 54.8128 158.706 54.8897 159.029 55.0433C159.356 55.193 159.618 55.4294 159.815 55.7524C160.012 56.0715 160.11 56.4852 160.11 56.9934V61H158.846V57.1293C158.846 56.692 158.727 56.367 158.491 56.1543C158.259 55.9415 157.957 55.8352 157.587 55.8352C157.339 55.8352 157.102 55.8765 156.878 55.9593C156.653 56.042 156.472 56.1681 156.334 56.3375C156.196 56.5029 156.127 56.7117 156.127 56.9639V61H154.863ZM164.396 61V54.8897H165.631V55.7702C165.73 55.6047 165.862 55.4491 166.027 55.3033C166.197 55.1575 166.403 55.0394 166.648 54.9487C166.896 54.8581 167.182 54.8128 167.505 54.8128C167.887 54.8128 168.239 54.8897 168.562 55.0433C168.889 55.193 169.151 55.4294 169.348 55.7524C169.545 56.0715 169.644 56.4852 169.644 56.9934V61H168.379V57.1293C168.379 56.692 168.261 56.367 168.025 56.1543C167.792 55.9415 167.491 55.8352 167.12 55.8352C166.872 55.8352 166.636 55.8765 166.411 55.9593C166.187 56.042 166.006 56.1681 165.868 56.3375C165.73 56.5029 165.661 56.7117 165.661 56.9639V61H164.396ZM173.417 61.1182C173.11 61.1142 172.816 61.0689 172.536 60.9823C172.257 60.8956 172.006 60.7656 171.786 60.5922C171.569 60.4189 171.396 60.2042 171.266 59.9481C171.14 59.692 171.077 59.3946 171.077 59.0558V54.8897H172.347V58.9199C172.347 59.2863 172.462 59.5837 172.69 59.8122C172.918 60.0407 173.263 60.155 173.724 60.155C174.142 60.155 174.477 60.0466 174.729 59.8299C174.981 59.6093 175.107 59.2882 175.107 58.8667V54.8897H176.366V61H175.385L175.243 59.8181C175.172 60.1372 175.044 60.3933 174.859 60.5863C174.678 60.7754 174.461 60.9133 174.209 61C173.961 61.0827 173.697 61.1221 173.417 61.1182ZM178.95 58.2403C178.95 58.6067 179.009 58.9356 179.127 59.2272C179.249 59.5148 179.432 59.7433 179.677 59.9127C179.921 60.0781 180.224 60.1609 180.587 60.1609C180.949 60.1609 181.262 60.0781 181.526 59.9127C181.794 59.7472 181.97 59.501 182.052 59.174H183.222C183.151 59.5916 182.984 59.9462 182.72 60.2377C182.46 60.5292 182.145 60.7498 181.775 60.8995C181.404 61.0453 181.016 61.1182 180.61 61.1182C180.031 61.1182 179.521 60.9941 179.08 60.7459C178.639 60.4938 178.294 60.1353 178.046 59.6704C177.801 59.2055 177.679 58.652 177.679 58.0098C177.679 57.3756 177.792 56.8161 178.016 56.3316C178.241 55.843 178.566 55.4609 178.991 55.1851C179.417 54.9094 179.929 54.7715 180.528 54.7715C181.119 54.7715 181.615 54.8975 182.017 55.1497C182.423 55.4018 182.73 55.7564 182.939 56.2134C183.147 56.6664 183.252 57.2022 183.252 57.8207V58.2403H178.95ZM178.95 57.4189H182.046C182.046 57.0998 181.991 56.8102 181.881 56.5502C181.771 56.2862 181.601 56.0794 181.373 55.9297C181.148 55.7761 180.864 55.6992 180.522 55.6992C180.171 55.6992 179.88 55.7839 179.647 55.9534C179.415 56.1228 179.239 56.3394 179.121 56.6034C179.007 56.8673 178.95 57.1392 178.95 57.4189ZM189.372 54.8897L187.15 61H186.081L183.853 54.8897H185.023L186.571 59.3985H186.654L188.202 54.8897H189.372ZM192.732 61.1182C192.161 61.1182 191.66 60.9961 191.231 60.7518C190.805 60.5036 190.475 60.1451 190.238 59.6763C190.006 59.2075 189.889 58.6402 189.889 57.9744C189.889 57.3322 190 56.7708 190.22 56.2902C190.445 55.8096 190.77 55.4373 191.195 55.1733C191.621 54.9054 192.135 54.7715 192.738 54.7715C193.313 54.7715 193.811 54.8975 194.233 55.1497C194.654 55.3979 194.981 55.7623 195.214 56.2429C195.446 56.7196 195.563 57.2968 195.563 57.9744C195.563 58.5929 195.452 59.1385 195.232 59.6113C195.015 60.084 194.696 60.4544 194.274 60.7223C193.857 60.9862 193.343 61.1182 192.732 61.1182ZM192.738 60.1431C193.085 60.1431 193.374 60.0525 193.607 59.8713C193.843 59.6861 194.02 59.4281 194.138 59.0972C194.257 58.7623 194.316 58.3762 194.316 57.9389C194.316 57.5331 194.262 57.1648 194.156 56.8339C194.054 56.499 193.886 56.2331 193.654 56.0361C193.421 55.8391 193.116 55.7406 192.738 55.7406C192.383 55.7406 192.088 55.8312 191.851 56.0124C191.615 56.1897 191.436 56.4438 191.314 56.7748C191.195 57.1017 191.136 57.4898 191.136 57.9389C191.136 58.3368 191.19 58.7032 191.296 59.0381C191.402 59.3729 191.574 59.6408 191.81 59.8418C192.046 60.0427 192.356 60.1431 192.738 60.1431ZM108.857 76V69.8897H110.086V70.7702C110.259 70.5023 110.496 70.2698 110.795 70.0728C111.095 69.8719 111.481 69.7715 111.953 69.7715C112.174 69.7715 112.397 69.8089 112.621 69.8837C112.85 69.9586 113.058 70.0709 113.248 70.2206C113.441 70.3663 113.592 70.5476 113.703 70.7643C113.896 70.4727 114.154 70.2344 114.477 70.0492C114.8 69.864 115.162 69.7715 115.564 69.7715C115.781 69.7715 116.005 69.8069 116.238 69.8778C116.47 69.9448 116.685 70.061 116.882 70.2265C117.083 70.388 117.244 70.6126 117.366 70.9002C117.493 71.1878 117.556 71.5522 117.556 71.9934V76H116.285V72.1293C116.285 71.7945 116.228 71.5325 116.114 71.3434C116.003 71.1543 115.858 71.0223 115.676 70.9474C115.499 70.8687 115.31 70.8293 115.109 70.8293C114.928 70.8293 114.739 70.8647 114.542 70.9356C114.345 71.0065 114.177 71.1247 114.039 71.2902C113.902 71.4557 113.833 71.6802 113.833 71.9639V76H112.568V71.8575C112.568 71.6329 112.507 71.4438 112.385 71.2902C112.267 71.1365 112.117 71.0223 111.936 70.9474C111.758 70.8687 111.581 70.8293 111.404 70.8293C111.207 70.8293 111.01 70.8687 110.813 70.9474C110.616 71.0262 110.45 71.1503 110.316 71.3197C110.186 71.4852 110.121 71.6999 110.121 71.9639V76H108.857ZM120.133 73.2403C120.133 73.6067 120.192 73.9356 120.31 74.2272C120.432 74.5148 120.615 74.7433 120.859 74.9127C121.104 75.0781 121.407 75.1609 121.77 75.1609C122.132 75.1609 122.445 75.0781 122.709 74.9127C122.977 74.7472 123.152 74.501 123.235 74.174H124.405C124.334 74.5916 124.167 74.9462 123.903 75.2377C123.643 75.5292 123.328 75.7498 122.957 75.8995C122.587 76.0453 122.199 76.1182 121.793 76.1182C121.214 76.1182 120.704 75.9941 120.263 75.7459C119.821 75.4938 119.477 75.1353 119.228 74.6704C118.984 74.2055 118.862 73.652 118.862 73.0098C118.862 72.3756 118.974 71.8161 119.199 71.3316C119.423 70.843 119.748 70.4609 120.174 70.1851C120.599 69.9094 121.112 69.7715 121.71 69.7715C122.301 69.7715 122.798 69.8975 123.2 70.1497C123.605 70.4018 123.913 70.7564 124.121 71.2134C124.33 71.6664 124.435 72.2022 124.435 72.8207V73.2403H120.133ZM120.133 72.4189H123.229C123.229 72.0998 123.174 71.8102 123.064 71.5502C122.953 71.2862 122.784 71.0794 122.555 70.9297C122.331 70.7761 122.047 70.6992 121.705 70.6992C121.354 70.6992 121.062 70.7839 120.83 70.9534C120.597 71.1228 120.422 71.3394 120.304 71.6034C120.19 71.8673 120.133 72.1392 120.133 72.4189ZM125.846 76V69.8897H127.082V70.7702C127.18 70.6047 127.312 70.4491 127.477 70.3033C127.647 70.1575 127.854 70.0394 128.098 69.9487C128.346 69.8581 128.632 69.8128 128.955 69.8128C129.337 69.8128 129.69 69.8897 130.013 70.0433C130.34 70.193 130.602 70.4294 130.799 70.7524C130.996 71.0715 131.094 71.4852 131.094 71.9934V76H129.829V72.1293C129.829 71.692 129.711 71.367 129.475 71.1543C129.242 70.9415 128.941 70.8352 128.571 70.8352C128.323 70.8352 128.086 70.8765 127.862 70.9593C127.637 71.042 127.456 71.1681 127.318 71.3375C127.18 71.5029 127.111 71.7117 127.111 71.9639V76H125.846ZM134.861 76.1182C134.436 76.1182 134.036 76.0512 133.662 75.9173C133.291 75.7833 132.98 75.5726 132.728 75.285C132.48 74.9974 132.324 74.629 132.261 74.1799H133.39C133.441 74.4123 133.537 74.6054 133.679 74.759C133.825 74.9087 133.998 75.021 134.199 75.0959C134.404 75.1668 134.623 75.2022 134.855 75.2022C135.241 75.2022 135.553 75.1333 135.789 74.9954C136.029 74.8536 136.149 74.6369 136.149 74.3454C136.149 74.1366 136.084 73.9691 135.954 73.8431C135.828 73.717 135.627 73.6244 135.352 73.5653L134.134 73.2758C133.63 73.1576 133.226 72.9704 132.923 72.7144C132.62 72.4543 132.466 72.0919 132.462 71.627C132.462 71.2685 132.551 70.9494 132.728 70.6697C132.909 70.39 133.177 70.1713 133.532 70.0138C133.886 69.8522 134.327 69.7715 134.855 69.7715C135.545 69.7715 136.098 69.9251 136.516 70.2324C136.933 70.5397 137.15 70.9849 137.166 71.5679H136.073C136.033 71.2882 135.905 71.0696 135.689 70.912C135.476 70.7505 135.194 70.6697 134.843 70.6697C134.481 70.6697 134.184 70.7426 133.951 70.8883C133.719 71.0302 133.602 71.2488 133.602 71.5443C133.602 71.7452 133.687 71.9048 133.857 72.023C134.026 72.1372 134.28 72.2318 134.619 72.3066L135.777 72.5962C136.077 72.675 136.323 72.7794 136.516 72.9094C136.709 73.0354 136.861 73.1753 136.971 73.3289C137.081 73.4826 137.158 73.6421 137.201 73.8076C137.249 73.9731 137.272 74.1287 137.272 74.2744C137.272 74.6605 137.174 74.9915 136.977 75.2672C136.784 75.5391 136.506 75.7498 136.144 75.8995C135.785 76.0453 135.358 76.1182 134.861 76.1182ZM140.441 76.1182C140.047 76.1182 139.696 76.0473 139.389 75.9054C139.086 75.7636 138.847 75.5588 138.674 75.2909C138.501 75.023 138.414 74.6999 138.414 74.3217C138.414 73.6441 138.654 73.1379 139.135 72.803C139.616 72.4681 140.382 72.2909 141.434 72.2712L142.438 72.2416V71.7984C142.438 71.4478 142.334 71.172 142.125 70.9711C141.916 70.7702 141.595 70.6717 141.162 70.6756C140.835 70.6756 140.543 70.7505 140.287 70.9002C140.035 71.0499 139.87 71.2961 139.791 71.6388H138.692C138.715 71.2331 138.832 70.8923 139.04 70.6165C139.253 70.3368 139.545 70.126 139.915 69.9842C140.285 69.8424 140.721 69.7715 141.221 69.7715C141.776 69.7715 142.233 69.8483 142.592 70.0019C142.95 70.1516 143.216 70.3723 143.39 70.6638C143.567 70.9553 143.656 71.3099 143.656 71.7275V76H142.586L142.486 74.8772C142.257 75.346 141.967 75.671 141.617 75.8523C141.27 76.0295 140.878 76.1182 140.441 76.1182ZM140.837 75.2377C141.03 75.2377 141.221 75.2042 141.41 75.1372C141.599 75.0663 141.771 74.9718 141.924 74.8536C142.078 74.7314 142.2 74.5955 142.291 74.4458C142.385 74.2961 142.434 74.1425 142.438 73.9849V72.9744L141.611 72.9921C141.189 72.996 140.831 73.0394 140.535 73.1221C140.244 73.2048 140.019 73.3329 139.862 73.5062C139.708 73.6796 139.631 73.91 139.631 74.1976C139.631 74.5246 139.746 74.7807 139.974 74.9659C140.203 75.1471 140.49 75.2377 140.837 75.2377ZM146.881 76.1891C146.881 76.784 146.747 77.2272 146.479 77.5187C146.211 77.8142 145.75 77.9619 145.096 77.9619C144.769 77.9619 144.56 77.9363 144.47 77.8851C144.375 77.8378 144.328 77.8142 144.328 77.8142V76.9691L144.895 76.9337C145.159 76.9101 145.344 76.8391 145.451 76.7209C145.561 76.6028 145.616 76.4137 145.616 76.1536V69.8897H146.881V76.1891ZM146.904 67.4609V68.7078H145.581V67.4609H146.904ZM149.576 73.2403C149.576 73.6067 149.635 73.9356 149.753 74.2272C149.875 74.5148 150.058 74.7433 150.303 74.9127C150.547 75.0781 150.85 75.1609 151.213 75.1609C151.575 75.1609 151.888 75.0781 152.152 74.9127C152.42 74.7472 152.596 74.501 152.678 74.174H153.848C153.777 74.5916 153.61 74.9462 153.346 75.2377C153.086 75.5292 152.771 75.7498 152.401 75.8995C152.03 76.0453 151.642 76.1182 151.236 76.1182C150.657 76.1182 150.147 75.9941 149.706 75.7459C149.265 75.4938 148.92 75.1353 148.672 74.6704C148.427 74.2055 148.305 73.652 148.305 73.0098C148.305 72.3756 148.418 71.8161 148.642 71.3316C148.867 70.843 149.192 70.4609 149.617 70.1851C150.043 69.9094 150.555 69.7715 151.154 69.7715C151.745 69.7715 152.241 69.8975 152.643 70.1497C153.049 70.4018 153.356 70.7564 153.565 71.2134C153.774 71.6664 153.878 72.2022 153.878 72.8207V73.2403H149.576ZM149.576 72.4189H152.672C152.672 72.0998 152.617 71.8102 152.507 71.5502C152.397 71.2862 152.227 71.0794 151.999 70.9297C151.774 70.7761 151.49 70.6992 151.148 70.6992C150.797 70.6992 150.506 70.7839 150.273 70.9534C150.041 71.1228 149.865 71.3394 149.747 71.6034C149.633 71.8673 149.576 72.1392 149.576 72.4189Z" fill="white"/>
</svg>
