<svg width="243" height="132" viewBox="0 0 243 132" fill="none" xmlns="http://www.w3.org/2000/svg">
<g clip-path="url(#clip0_1653_23301)">
<rect width="243" height="132" rx="5" fill="#F4F4F4"/>
<rect x="16" y="33" width="209.28" height="36.48" rx="5.12" fill="white"/>
<g clip-path="url(#clip1_1653_23301)">
<path d="M206.25 45.7502H201.138L198.804 44.5835H195.75C195.286 44.5835 194.841 44.7679 194.513 45.0961C194.184 45.4242 194 45.8694 194 46.3335V57.4168H208V47.5002C208 47.036 207.816 46.5909 207.487 46.2627C207.159 45.9345 206.714 45.7502 206.25 45.7502ZM195.75 45.7502H198.529L200.862 46.9168H206.25C206.405 46.9168 206.553 46.9783 206.662 47.0877C206.772 47.1971 206.833 47.3455 206.833 47.5002V48.0141L195.167 48.08V46.3335C195.167 46.1788 195.228 46.0304 195.338 45.921C195.447 45.8116 195.595 45.7502 195.75 45.7502ZM195.167 56.2502V49.2467L206.833 49.1807V56.2502H195.167Z" fill="#374957"/>
</g>
<path d="M52.2878 59.2795V54.6715H54.9758V55.2411H52.8574V56.6907H54.5918V57.2603H52.8574V59.2795H52.2878ZM55.6271 55.2123V54.6235H56.1967V55.2123H55.6271ZM55.6271 59.2795V55.8235H56.1967V59.2795H55.6271ZM59.6305 59.2795V57.5483C59.6305 57.3841 59.6156 57.2262 59.5857 57.0747C59.558 56.9233 59.5078 56.7878 59.4353 56.6683C59.3649 56.5467 59.2689 56.4507 59.1473 56.3803C59.0278 56.3099 58.8764 56.2747 58.6929 56.2747C58.55 56.2747 58.4198 56.2993 58.3025 56.3483C58.1873 56.3953 58.0881 56.4678 58.0049 56.5659C57.9217 56.6641 57.8566 56.7878 57.8097 56.9371C57.7649 57.0843 57.7425 57.2582 57.7425 57.4587L57.3681 57.3435C57.3681 57.0086 57.4278 56.7217 57.5473 56.4827C57.6689 56.2417 57.8385 56.0571 58.0561 55.9291C58.2758 55.799 58.534 55.7339 58.8305 55.7339C59.0545 55.7339 59.2454 55.7691 59.4033 55.8395C59.5612 55.9099 59.6924 56.0038 59.7969 56.1211C59.9014 56.2363 59.9836 56.3665 60.0433 56.5115C60.103 56.6545 60.1446 56.8006 60.1681 56.9499C60.1937 57.0971 60.2065 57.2369 60.2065 57.3691V59.2795H59.6305ZM57.1665 59.2795V55.8235H57.6785V56.7483H57.7425V59.2795H57.1665ZM62.0336 59.3755C61.7755 59.3755 61.559 59.3286 61.384 59.2347C61.2112 59.1387 61.08 59.0129 60.9904 58.8571C60.903 58.7014 60.8592 58.5307 60.8592 58.3451C60.8592 58.1638 60.8934 58.007 60.9616 57.8747C61.032 57.7403 61.1302 57.6294 61.256 57.5419C61.3819 57.4523 61.5323 57.3819 61.7072 57.3307C61.8715 57.2859 62.055 57.2475 62.2576 57.2155C62.4624 57.1814 62.6694 57.1505 62.8784 57.1227C63.0875 57.095 63.2827 57.0683 63.464 57.0427L63.2592 57.1611C63.2656 56.8539 63.2038 56.6267 63.0736 56.4795C62.9456 56.3323 62.7238 56.2587 62.408 56.2587C62.199 56.2587 62.0155 56.3067 61.8576 56.4027C61.7019 56.4966 61.592 56.6502 61.528 56.8635L60.9872 56.7003C61.0704 56.3974 61.2315 56.1595 61.4704 55.9867C61.7094 55.8139 62.024 55.7275 62.4144 55.7275C62.728 55.7275 62.9968 55.7841 63.2208 55.8971C63.447 56.0081 63.6091 56.1766 63.7072 56.4027C63.7563 56.5094 63.7872 56.6257 63.8 56.7515C63.8128 56.8753 63.8192 57.0054 63.8192 57.1419V59.2795H63.3136V58.4507L63.432 58.5275C63.3019 58.807 63.1195 59.0182 62.8848 59.1611C62.6523 59.3041 62.3686 59.3755 62.0336 59.3755ZM62.12 58.8987C62.3248 58.8987 62.5019 58.8625 62.6512 58.7899C62.8027 58.7153 62.9243 58.6182 63.016 58.4987C63.1078 58.3771 63.1675 58.2449 63.1952 58.1019C63.2272 57.9953 63.2443 57.8769 63.2464 57.7467C63.2507 57.6145 63.2528 57.5131 63.2528 57.4427L63.4512 57.5291C63.2656 57.5547 63.0832 57.5793 62.904 57.6027C62.7248 57.6262 62.5552 57.6518 62.3952 57.6795C62.2352 57.7051 62.0912 57.7361 61.9632 57.7723C61.8694 57.8022 61.7808 57.8406 61.6976 57.8875C61.6166 57.9345 61.5504 57.9953 61.4992 58.0699C61.4502 58.1425 61.4256 58.2331 61.4256 58.3419C61.4256 58.4358 61.4491 58.5254 61.496 58.6107C61.5451 58.6961 61.6198 58.7654 61.72 58.8187C61.8224 58.8721 61.9558 58.8987 62.12 58.8987ZM67.1248 59.2795V57.5483C67.1248 57.3841 67.1099 57.2262 67.08 57.0747C67.0523 56.9233 67.0022 56.7878 66.9296 56.6683C66.8592 56.5467 66.7632 56.4507 66.6416 56.3803C66.5222 56.3099 66.3707 56.2747 66.1872 56.2747C66.0443 56.2747 65.9142 56.2993 65.7968 56.3483C65.6816 56.3953 65.5824 56.4678 65.4992 56.5659C65.416 56.6641 65.351 56.7878 65.304 56.9371C65.2592 57.0843 65.2368 57.2582 65.2368 57.4587L64.8624 57.3435C64.8624 57.0086 64.9222 56.7217 65.0416 56.4827C65.1632 56.2417 65.3328 56.0571 65.5504 55.9291C65.7702 55.799 66.0283 55.7339 66.3248 55.7339C66.5488 55.7339 66.7398 55.7691 66.8976 55.8395C67.0555 55.9099 67.1867 56.0038 67.2912 56.1211C67.3958 56.2363 67.4779 56.3665 67.5376 56.5115C67.5974 56.6545 67.639 56.8006 67.6624 56.9499C67.688 57.0971 67.7008 57.2369 67.7008 57.3691V59.2795H67.1248ZM64.6608 59.2795V55.8235H65.1728V56.7483H65.2368V59.2795H64.6608ZM68.2256 59.2795V59.1771L70.3216 56.3419H68.3984V55.8235H71.24V55.9323L69.1472 58.7611H71.1312V59.2795H68.2256ZM72.747 59.3755C72.4889 59.3755 72.2724 59.3286 72.0974 59.2347C71.9246 59.1387 71.7934 59.0129 71.7038 58.8571C71.6164 58.7014 71.5726 58.5307 71.5726 58.3451C71.5726 58.1638 71.6068 58.007 71.675 57.8747C71.7454 57.7403 71.8436 57.6294 71.9694 57.5419C72.0953 57.4523 72.2457 57.3819 72.4206 57.3307C72.5849 57.2859 72.7684 57.2475 72.971 57.2155C73.1758 57.1814 73.3828 57.1505 73.5918 57.1227C73.8009 57.095 73.9961 57.0683 74.1774 57.0427L73.9726 57.1611C73.979 56.8539 73.9172 56.6267 73.787 56.4795C73.659 56.3323 73.4372 56.2587 73.1214 56.2587C72.9124 56.2587 72.7289 56.3067 72.571 56.4027C72.4153 56.4966 72.3054 56.6502 72.2414 56.8635L71.7006 56.7003C71.7838 56.3974 71.9449 56.1595 72.1838 55.9867C72.4228 55.8139 72.7374 55.7275 73.1278 55.7275C73.4414 55.7275 73.7102 55.7841 73.9342 55.8971C74.1604 56.0081 74.3225 56.1766 74.4206 56.4027C74.4697 56.5094 74.5006 56.6257 74.5134 56.7515C74.5262 56.8753 74.5326 57.0054 74.5326 57.1419V59.2795H74.027V58.4507L74.1454 58.5275C74.0153 58.807 73.8329 59.0182 73.5982 59.1611C73.3657 59.3041 73.082 59.3755 72.747 59.3755ZM72.8334 58.8987C73.0382 58.8987 73.2153 58.8625 73.3646 58.7899C73.5161 58.7153 73.6377 58.6182 73.7294 58.4987C73.8212 58.3771 73.8809 58.2449 73.9086 58.1019C73.9406 57.9953 73.9577 57.8769 73.9598 57.7467C73.9641 57.6145 73.9662 57.5131 73.9662 57.4427L74.1646 57.5291C73.979 57.5547 73.7966 57.5793 73.6174 57.6027C73.4382 57.6262 73.2686 57.6518 73.1086 57.6795C72.9486 57.7051 72.8046 57.7361 72.6766 57.7723C72.5828 57.8022 72.4942 57.8406 72.411 57.8875C72.33 57.9345 72.2638 57.9953 72.2126 58.0699C72.1636 58.1425 72.139 58.2331 72.139 58.3419C72.139 58.4358 72.1625 58.5254 72.2094 58.6107C72.2585 58.6961 72.3332 58.7654 72.4334 58.8187C72.5358 58.8721 72.6692 58.8987 72.8334 58.8987ZM76.683 59.3723C76.2713 59.3723 75.9332 59.2827 75.6686 59.1035C75.4062 58.9222 75.2452 58.6694 75.1854 58.3451L75.7678 58.2523C75.8148 58.4401 75.9225 58.5894 76.091 58.7003C76.2596 58.8091 76.4686 58.8635 76.7182 58.8635C76.955 58.8635 77.1406 58.8145 77.275 58.7163C77.4094 58.6182 77.4766 58.4849 77.4766 58.3163C77.4766 58.2182 77.4542 58.1393 77.4094 58.0795C77.3646 58.0177 77.2718 57.9601 77.131 57.9067C76.9924 57.8534 76.7822 57.7894 76.5006 57.7147C76.1956 57.6337 75.9556 57.5494 75.7806 57.4619C75.6057 57.3745 75.4809 57.2731 75.4062 57.1579C75.3316 57.0427 75.2942 56.903 75.2942 56.7387C75.2942 56.5361 75.3497 56.359 75.4606 56.2075C75.5716 56.0539 75.7262 55.9355 75.9246 55.8523C76.1252 55.7691 76.3577 55.7275 76.6222 55.7275C76.8846 55.7275 77.1193 55.7691 77.3262 55.8523C77.5332 55.9355 77.6996 56.0539 77.8254 56.2075C77.9534 56.359 78.0292 56.5361 78.0526 56.7387L77.4702 56.8443C77.4425 56.6587 77.3529 56.5126 77.2014 56.4059C77.0521 56.2993 76.859 56.2427 76.6222 56.2363C76.3982 56.2278 76.2158 56.2673 76.075 56.3547C75.9364 56.4422 75.867 56.5606 75.867 56.7099C75.867 56.7931 75.8926 56.8646 75.9438 56.9243C75.9972 56.9841 76.0942 57.0406 76.235 57.0939C76.378 57.1473 76.5849 57.2081 76.8558 57.2763C77.1609 57.3531 77.4009 57.4374 77.5758 57.5291C77.7529 57.6187 77.8788 57.7254 77.9534 57.8491C78.0281 57.9707 78.0654 58.1211 78.0654 58.3003C78.0654 58.6331 77.9428 58.8955 77.6974 59.0875C77.4521 59.2774 77.114 59.3723 76.683 59.3723Z" fill="#868686"/>
<path d="M52.5566 49.3997V42.9485H53.6363V48.3872H56.4856V49.3997H52.5566ZM59.0858 49.5385C58.7274 49.5385 58.4317 49.4788 58.1988 49.3593C57.9658 49.2399 57.7807 49.0876 57.6433 48.9024C57.5059 48.7172 57.4043 48.5201 57.3386 48.311C57.2729 48.102 57.2296 47.9048 57.2087 47.7197C57.1908 47.5315 57.1818 47.3792 57.1818 47.2627V44.5613H58.2749V46.8909C58.2749 47.0402 58.2854 47.2089 58.3063 47.3971C58.3272 47.5823 58.375 47.7615 58.4497 47.9347C58.5273 48.1049 58.6408 48.2453 58.7901 48.3558C58.9425 48.4663 59.1471 48.5216 59.4039 48.5216C59.5413 48.5216 59.6772 48.4992 59.8116 48.4544C59.946 48.4096 60.0669 48.3334 60.1745 48.2259C60.285 48.1154 60.3731 47.9646 60.4388 47.7734C60.5045 47.5823 60.5373 47.3404 60.5373 47.0477L61.178 47.3209C61.178 47.7331 61.0973 48.1064 60.9361 48.4409C60.7778 48.7754 60.5433 49.0428 60.2327 49.2429C59.9221 49.44 59.5398 49.5385 59.0858 49.5385ZM60.6673 49.3997V47.8989H60.5373V44.5613H61.6215V49.3997H60.6673ZM62.9967 43.8265V42.8365H64.0763V43.8265H62.9967ZM62.9967 49.3997V44.5613H64.0763V49.3997H62.9967ZM67.3133 49.5341C66.716 49.5341 66.2307 49.3997 65.8573 49.1309C65.484 48.8621 65.257 48.4842 65.1764 47.9974L66.2785 47.8272C66.3352 48.0661 66.4607 48.2543 66.6548 48.3917C66.8489 48.529 67.0938 48.5977 67.3895 48.5977C67.6493 48.5977 67.8495 48.547 67.9898 48.4454C68.1332 48.3409 68.2049 48.199 68.2049 48.0198C68.2049 47.9093 68.178 47.8212 68.1242 47.7555C68.0735 47.6868 67.96 47.6211 67.7837 47.5584C67.6075 47.4957 67.3372 47.4165 66.9729 47.3209C66.5667 47.2134 66.2441 47.0984 66.0052 46.976C65.7663 46.8505 65.5945 46.7027 65.49 46.5325C65.3855 46.3622 65.3332 46.1561 65.3332 45.9142C65.3332 45.6126 65.4123 45.3497 65.5706 45.1257C65.7289 44.9017 65.9499 44.73 66.2337 44.6105C66.5174 44.4881 66.8519 44.4269 67.2372 44.4269C67.6135 44.4269 67.9465 44.4851 68.2362 44.6016C68.5289 44.7181 68.7649 44.8838 68.9441 45.0989C69.1233 45.3139 69.2338 45.5663 69.2756 45.856L68.1735 46.0531C68.1466 45.847 68.0525 45.6842 67.8913 45.5648C67.733 45.4453 67.5209 45.3781 67.2551 45.3632C67.0012 45.3482 66.7967 45.3871 66.6413 45.4797C66.486 45.5693 66.4084 45.6962 66.4084 45.8605C66.4084 45.953 66.4397 46.0322 66.5025 46.0979C66.5652 46.1636 66.6906 46.2293 66.8788 46.295C67.0699 46.3607 67.3537 46.4414 67.73 46.5369C68.1153 46.6355 68.4229 46.749 68.6529 46.8774C68.8858 47.0029 69.0531 47.1537 69.1546 47.3299C69.2592 47.5061 69.3114 47.7197 69.3114 47.9705C69.3114 48.4574 69.1337 48.8397 68.7783 49.1174C68.4259 49.3952 67.9376 49.5341 67.3133 49.5341ZM74.8013 49.5341C74.3832 49.5341 73.9904 49.4609 73.6231 49.3145C73.2587 49.1652 72.9376 48.9472 72.6599 48.6605C72.3851 48.3737 72.1701 48.0228 72.0148 47.6077C71.8594 47.1895 71.7818 46.7117 71.7818 46.1741C71.7818 45.4692 71.9132 44.8674 72.176 44.3686C72.4389 43.8669 72.7988 43.4831 73.2557 43.2173C73.7127 42.9485 74.2279 42.8141 74.8013 42.8141C75.5958 42.8141 76.2245 42.9992 76.6874 43.3696C77.1533 43.7369 77.4684 44.2536 77.6327 44.9197L76.5306 45.0944C76.4081 44.7121 76.208 44.4074 75.9303 44.1805C75.6525 43.9505 75.2986 43.8355 74.8685 43.8355C74.4354 43.8295 74.0756 43.9236 73.7888 44.1177C73.5021 44.3119 73.2856 44.5852 73.1392 44.9376C72.9959 45.29 72.9242 45.7022 72.9242 46.1741C72.9242 46.646 72.9959 47.0566 73.1392 47.4061C73.2826 47.7525 73.4976 48.0228 73.7844 48.2169C74.0741 48.4111 74.4354 48.5111 74.8685 48.5171C75.1941 48.5201 75.4793 48.4618 75.7242 48.3424C75.9691 48.2199 76.1692 48.0362 76.3245 47.7913C76.4798 47.5434 76.5844 47.2343 76.6381 46.864H75.5002V46.0173H77.785C77.791 46.065 77.7954 46.1352 77.7984 46.2278C77.8014 46.3204 77.8029 46.3757 77.8029 46.3936C77.8029 47.0029 77.682 47.5449 77.44 48.0198C77.2011 48.4917 76.8576 48.8621 76.4096 49.1309C75.9616 49.3997 75.4255 49.5341 74.8013 49.5341ZM80.9293 49.5341C80.4394 49.5341 80.0094 49.428 79.639 49.216C79.2687 49.0039 78.979 48.7097 78.7699 48.3334C78.5638 47.9571 78.4608 47.524 78.4608 47.0342C78.4608 46.5056 78.5623 46.0471 78.7654 45.6589C78.9685 45.2676 79.2507 44.9645 79.6121 44.7494C79.9735 44.5344 80.3917 44.4269 80.8665 44.4269C81.3683 44.4269 81.7939 44.5448 82.1433 44.7808C82.4958 45.0137 82.7571 45.3438 82.9273 45.7709C83.0976 46.198 83.1618 46.7012 83.12 47.2806H82.0493V46.8864C82.0463 46.3607 81.9537 45.9769 81.7715 45.735C81.5893 45.4931 81.3026 45.3721 80.9113 45.3721C80.4693 45.3721 80.1408 45.5095 79.9257 45.7843C79.7107 46.0561 79.6032 46.4548 79.6032 46.9805C79.6032 47.4703 79.7107 47.8496 79.9257 48.1184C80.1408 48.3872 80.4544 48.5216 80.8665 48.5216C81.1323 48.5216 81.3608 48.4633 81.552 48.3469C81.7461 48.2274 81.8954 48.0557 82 47.8317L83.0662 48.1542C82.881 48.5903 82.5943 48.9293 82.2061 49.1712C81.8208 49.4131 81.3952 49.5341 80.9293 49.5341ZM79.2627 47.2806V46.4653H82.5913V47.2806H79.2627ZM84.1465 49.3997V44.5613H85.1007V45.7395L84.9842 45.5872C85.0439 45.4259 85.1231 45.2796 85.2217 45.1481C85.3232 45.0137 85.4442 44.9032 85.5845 44.8166C85.704 44.736 85.8354 44.6733 85.9788 44.6285C86.1251 44.5807 86.2745 44.5523 86.4268 44.5433C86.5791 44.5314 86.7269 44.5374 86.8703 44.5613V45.5693C86.7269 45.5274 86.5612 45.514 86.373 45.5289C86.1878 45.5439 86.0206 45.5961 85.8713 45.6857C85.7219 45.7664 85.5995 45.8694 85.5039 45.9949C85.4113 46.1203 85.3426 46.2637 85.2978 46.4249C85.253 46.5832 85.2306 46.755 85.2306 46.9401V49.3997H84.1465ZM88.9913 49.5341C88.6419 49.5341 88.3462 49.4684 88.1043 49.3369C87.8623 49.2025 87.6787 49.0248 87.5532 48.8038C87.4308 48.5828 87.3695 48.3394 87.3695 48.0736C87.3695 47.8406 87.4084 47.6316 87.486 47.4464C87.5637 47.2582 87.6831 47.0969 87.8444 46.9625C88.0057 46.8252 88.2148 46.7132 88.4716 46.6265C88.6657 46.5638 88.8927 46.5071 89.1526 46.4563C89.4154 46.4055 89.6991 46.3592 90.0038 46.3174C90.3114 46.2726 90.6325 46.2248 90.967 46.1741L90.5817 46.3936C90.5847 46.0591 90.51 45.8127 90.3577 45.6544C90.2054 45.4961 89.9485 45.4169 89.5871 45.4169C89.3691 45.4169 89.1585 45.4677 88.9555 45.5693C88.7524 45.6708 88.6105 45.8455 88.5299 46.0934L87.5443 45.7843C87.6637 45.3751 87.8907 45.0466 88.2252 44.7987C88.5627 44.5508 89.0167 44.4269 89.5871 44.4269C90.0172 44.4269 90.395 44.497 90.7206 44.6374C91.0491 44.7778 91.2925 45.0078 91.4508 45.3273C91.5374 45.4976 91.5897 45.6723 91.6076 45.8515C91.6255 46.0277 91.6345 46.2204 91.6345 46.4294V49.3997H90.6892V48.3513L90.846 48.5216C90.628 48.871 90.3726 49.1279 90.0799 49.2921C89.7902 49.4534 89.4273 49.5341 88.9913 49.5341ZM89.2063 48.6739C89.4512 48.6739 89.6603 48.6306 89.8335 48.544C90.0068 48.4574 90.1441 48.3513 90.2457 48.2259C90.3502 48.1005 90.4204 47.9825 90.4563 47.872C90.513 47.7346 90.5444 47.5778 90.5503 47.4016C90.5593 47.2224 90.5638 47.0775 90.5638 46.967L90.8953 47.0656C90.5697 47.1164 90.2905 47.1612 90.0575 47.2C89.8246 47.2388 89.6245 47.2761 89.4572 47.312C89.29 47.3448 89.1421 47.3822 89.0137 47.424C88.8883 47.4688 88.7822 47.521 88.6956 47.5808C88.609 47.6405 88.5418 47.7092 88.494 47.7869C88.4492 47.8645 88.4268 47.9556 88.4268 48.0601C88.4268 48.1796 88.4567 48.2856 88.5164 48.3782C88.5761 48.4678 88.6628 48.5395 88.7763 48.5933C88.8927 48.647 89.0361 48.6739 89.2063 48.6739ZM92.8277 49.3997V44.5613H93.782V45.7395L93.6655 45.5872C93.7252 45.4259 93.8044 45.2796 93.9029 45.1481C94.0045 45.0137 94.1254 44.9032 94.2658 44.8166C94.3853 44.736 94.5167 44.6733 94.66 44.6285C94.8064 44.5807 94.9557 44.5523 95.108 44.5433C95.2604 44.5314 95.4082 44.5374 95.5516 44.5613V45.5693C95.4082 45.5274 95.2424 45.514 95.0543 45.5289C94.8691 45.5439 94.7018 45.5961 94.5525 45.6857C94.4032 45.7664 94.2807 45.8694 94.1852 45.9949C94.0926 46.1203 94.0239 46.2637 93.9791 46.4249C93.9343 46.5832 93.9119 46.755 93.9119 46.9401V49.3997H92.8277ZM98.2857 49.5341C97.8407 49.5341 97.4524 49.4221 97.1209 49.1981C96.7894 48.9741 96.5325 48.6694 96.3503 48.2841C96.1681 47.8989 96.077 47.4643 96.077 46.9805C96.077 46.4906 96.1681 46.0546 96.3503 45.6723C96.5355 45.287 96.7968 44.9839 97.1343 44.7629C97.4718 44.5389 97.869 44.4269 98.326 44.4269C98.786 44.4269 99.1712 44.5389 99.4818 44.7629C99.7954 44.9839 100.033 45.287 100.194 45.6723C100.355 46.0576 100.436 46.4936 100.436 46.9805C100.436 47.4613 100.355 47.8959 100.194 48.2841C100.033 48.6694 99.7925 48.9741 99.4729 49.1981C99.1533 49.4221 98.7576 49.5341 98.2857 49.5341ZM98.4514 48.5664C98.7411 48.5664 98.9741 48.5007 99.1503 48.3693C99.3295 48.2349 99.4594 48.0482 99.5401 47.8093C99.6237 47.5703 99.6655 47.2941 99.6655 46.9805C99.6655 46.6639 99.6237 46.3876 99.5401 46.1517C99.4594 45.9127 99.3325 45.7276 99.1593 45.5961C98.9861 45.4617 98.7621 45.3945 98.4873 45.3945C98.1976 45.3945 97.9586 45.4662 97.7705 45.6096C97.5823 45.75 97.4434 45.9411 97.3538 46.183C97.2642 46.422 97.2194 46.6878 97.2194 46.9805C97.2194 47.2761 97.2627 47.5449 97.3494 47.7869C97.439 48.0258 97.5749 48.2154 97.757 48.3558C97.9392 48.4962 98.1707 48.5664 98.4514 48.5664ZM99.6655 49.3997V46.0038H99.5311V42.9485H100.62V49.3997H99.6655ZM104.04 49.5341C103.556 49.5341 103.133 49.425 102.772 49.207C102.41 48.989 102.13 48.6888 101.93 48.3065C101.732 47.9213 101.634 47.4792 101.634 46.9805C101.634 46.4727 101.735 46.0277 101.939 45.6454C102.142 45.2631 102.424 44.9645 102.785 44.7494C103.147 44.5344 103.565 44.4269 104.04 44.4269C104.527 44.4269 104.951 44.5359 105.312 44.7539C105.673 44.9719 105.954 45.2736 106.154 45.6589C106.354 46.0412 106.454 46.4817 106.454 46.9805C106.454 47.4822 106.353 47.9257 106.15 48.311C105.95 48.6933 105.669 48.9935 105.308 49.2115C104.946 49.4265 104.524 49.5341 104.04 49.5341ZM104.04 48.5216C104.47 48.5216 104.789 48.3782 104.998 48.0915C105.207 47.8048 105.312 47.4344 105.312 46.9805C105.312 46.5116 105.206 46.1382 104.994 45.8605C104.782 45.5797 104.464 45.4393 104.04 45.4393C103.75 45.4393 103.511 45.505 103.323 45.6365C103.138 45.7649 103 45.9456 102.911 46.1785C102.821 46.4085 102.776 46.6758 102.776 46.9805C102.776 47.4494 102.882 47.8242 103.094 48.1049C103.309 48.3827 103.625 48.5216 104.04 48.5216ZM109.379 49.3997V42.9485H110.458V48.3872H113.308V49.3997H109.379ZM116.656 43.8669H115.836L116.526 42.2093H117.346L116.656 43.8669ZM116.23 49.5341C115.746 49.5341 115.324 49.425 114.962 49.207C114.601 48.989 114.32 48.6888 114.12 48.3065C113.923 47.9213 113.825 47.4792 113.825 46.9805C113.825 46.4727 113.926 46.0277 114.129 45.6454C114.332 45.2631 114.615 44.9645 114.976 44.7494C115.337 44.5344 115.755 44.4269 116.23 44.4269C116.717 44.4269 117.141 44.5359 117.503 44.7539C117.864 44.9719 118.145 45.2736 118.345 45.6589C118.545 46.0412 118.645 46.4817 118.645 46.9805C118.645 47.4822 118.543 47.9257 118.34 48.311C118.14 48.6933 117.86 48.9935 117.498 49.2115C117.137 49.4265 116.714 49.5341 116.23 49.5341ZM116.23 48.5216C116.66 48.5216 116.98 48.3782 117.189 48.0915C117.398 47.8048 117.503 47.4344 117.503 46.9805C117.503 46.5116 117.397 46.1382 117.185 45.8605C116.973 45.5797 116.654 45.4393 116.23 45.4393C115.941 45.4393 115.702 45.505 115.514 45.6365C115.328 45.7649 115.191 45.9456 115.101 46.1785C115.012 46.4085 114.967 46.6758 114.967 46.9805C114.967 47.4494 115.073 47.8242 115.285 48.1049C115.5 48.3827 115.815 48.5216 116.23 48.5216ZM121.984 49.5341C121.512 49.5341 121.116 49.4221 120.797 49.1981C120.477 48.9741 120.237 48.6694 120.076 48.2841C119.914 47.8959 119.834 47.4613 119.834 46.9805C119.834 46.4936 119.914 46.0576 120.076 45.6723C120.237 45.287 120.473 44.9839 120.783 44.7629C121.097 44.5389 121.484 44.4269 121.944 44.4269C122.401 44.4269 122.796 44.5389 123.131 44.7629C123.468 44.9839 123.73 45.287 123.915 45.6723C124.1 46.0546 124.193 46.4906 124.193 46.9805C124.193 47.4643 124.102 47.8989 123.919 48.2841C123.737 48.6694 123.48 48.9741 123.149 49.1981C122.817 49.4221 122.429 49.5341 121.984 49.5341ZM119.65 51.5501V44.5613H120.604V47.9571H120.739V51.5501H119.65ZM121.818 48.5664C122.099 48.5664 122.331 48.4962 122.513 48.3558C122.695 48.2154 122.829 48.0258 122.916 47.7869C123.006 47.5449 123.05 47.2761 123.05 46.9805C123.05 46.6878 123.006 46.422 122.916 46.183C122.826 45.9411 122.687 45.75 122.499 45.6096C122.311 45.4662 122.072 45.3945 121.783 45.3945C121.508 45.3945 121.284 45.4617 121.111 45.5961C120.937 45.7276 120.809 45.9127 120.725 46.1517C120.645 46.3876 120.604 46.6639 120.604 46.9805C120.604 47.2941 120.645 47.5703 120.725 47.8093C120.809 48.0482 120.939 48.2349 121.115 48.3693C121.294 48.5007 121.529 48.5664 121.818 48.5664ZM127.407 49.5341C126.917 49.5341 126.487 49.428 126.117 49.216C125.746 49.0039 125.457 48.7097 125.247 48.3334C125.041 47.9571 124.938 47.524 124.938 47.0342C124.938 46.5056 125.04 46.0471 125.243 45.6589C125.446 45.2676 125.728 44.9645 126.09 44.7494C126.451 44.5344 126.869 44.4269 127.344 44.4269C127.846 44.4269 128.271 44.5448 128.621 44.7808C128.973 45.0137 129.235 45.3438 129.405 45.7709C129.575 46.198 129.639 46.7012 129.598 47.2806H128.527V46.8864C128.524 46.3607 128.431 45.9769 128.249 45.735C128.067 45.4931 127.78 45.3721 127.389 45.3721C126.947 45.3721 126.618 45.5095 126.403 45.7843C126.188 46.0561 126.081 46.4548 126.081 46.9805C126.081 47.4703 126.188 47.8496 126.403 48.1184C126.618 48.3872 126.932 48.5216 127.344 48.5216C127.61 48.5216 127.838 48.4633 128.03 48.3469C128.224 48.2274 128.373 48.0557 128.478 47.8317L129.544 48.1542C129.359 48.5903 129.072 48.9293 128.684 49.1712C128.298 49.4131 127.873 49.5341 127.407 49.5341ZM125.74 47.2806V46.4653H129.069V47.2806H125.74ZM130.176 49.3997V49.2518L132.739 45.5065H130.436V44.5613H134.419V44.7136L131.865 48.4544H134.311V49.3997H130.176Z" fill="black"/>
<rect x="26.6602" y="40.6584" width="20.48" height="20.4798" rx="10.2399" fill="#34977D"/>
<g clip-path="url(#clip2_1653_23301)">
<path d="M37 50.9983C37.5439 50.9983 38.0756 50.837 38.5278 50.5348C38.9801 50.2327 39.3325 49.8032 39.5407 49.3007C39.7488 48.7982 39.8033 48.2452 39.6972 47.7118C39.5911 47.1783 39.3291 46.6883 38.9445 46.3037C38.5599 45.9192 38.0699 45.6572 37.5365 45.5511C37.0031 45.445 36.4501 45.4995 35.9476 45.7076C35.4451 45.9158 35.0156 46.2682 34.7135 46.7205C34.4113 47.1727 34.25 47.7044 34.25 48.2483C34.2507 48.9774 34.5407 49.6765 35.0563 50.192C35.5718 50.7076 36.2709 50.9976 37 50.9983ZM37 46.415C37.3626 46.415 37.7171 46.5225 38.0185 46.7239C38.32 46.9254 38.555 47.2117 38.6938 47.5467C38.8325 47.8817 38.8688 48.2503 38.7981 48.606C38.7274 48.9616 38.5528 49.2883 38.2964 49.5447C38.04 49.8011 37.7133 49.9757 37.3577 50.0464C37.002 50.1171 36.6334 50.0808 36.2984 49.9421C35.9634 49.8033 35.6771 49.5683 35.4756 49.2668C35.2742 48.9653 35.1667 48.6109 35.1667 48.2483C35.1667 47.7621 35.3598 47.2957 35.7036 46.9519C36.0475 46.6081 36.5138 46.415 37 46.415Z" fill="white"/>
<path d="M37 51.9153C35.9064 51.9165 34.8578 52.3515 34.0845 53.1248C33.3112 53.8981 32.8762 54.9466 32.875 56.0403C32.875 56.1618 32.9233 56.2784 33.0092 56.3644C33.0952 56.4503 33.2118 56.4986 33.3333 56.4986C33.4549 56.4986 33.5715 56.4503 33.6574 56.3644C33.7434 56.2784 33.7917 56.1618 33.7917 56.0403C33.7917 55.1894 34.1297 54.3733 34.7314 53.7716C35.333 53.17 36.1491 52.8319 37 52.8319C37.8509 52.8319 38.667 53.17 39.2686 53.7716C39.8703 54.3733 40.2083 55.1894 40.2083 56.0403C40.2083 56.1618 40.2566 56.2784 40.3426 56.3644C40.4285 56.4503 40.5451 56.4986 40.6667 56.4986C40.7882 56.4986 40.9048 56.4503 40.9908 56.3644C41.0767 56.2784 41.125 56.1618 41.125 56.0403C41.1238 54.9466 40.6888 53.8981 39.9155 53.1248C39.1422 52.3515 38.0936 51.9165 37 51.9153Z" fill="white"/>
</g>
<path d="M16.6272 19.9993V13.5481H19.2928C19.3555 13.5481 19.4362 13.5511 19.5347 13.557C19.6333 13.56 19.7244 13.569 19.808 13.5839C20.1813 13.6407 20.489 13.7646 20.7309 13.9557C20.9758 14.1469 21.1565 14.3888 21.273 14.6815C21.3924 14.9712 21.4522 15.2938 21.4522 15.6492C21.4522 16.0016 21.3924 16.3242 21.273 16.6169C21.1535 16.9066 20.9713 17.147 20.7264 17.3381C20.4845 17.5293 20.1783 17.6532 19.808 17.71C19.7244 17.7219 19.6318 17.7309 19.5302 17.7369C19.4317 17.7428 19.3525 17.7458 19.2928 17.7458H17.7069V19.9993H16.6272ZM17.7069 16.7378H19.248C19.3077 16.7378 19.3749 16.7348 19.4496 16.7289C19.5243 16.7229 19.593 16.7109 19.6557 16.693C19.8349 16.6482 19.9753 16.5691 20.0768 16.4556C20.1813 16.3421 20.2545 16.2137 20.2963 16.0703C20.3411 15.9269 20.3635 15.7866 20.3635 15.6492C20.3635 15.5118 20.3411 15.3714 20.2963 15.2281C20.2545 15.0817 20.1813 14.9518 20.0768 14.8383C19.9753 14.7248 19.8349 14.6457 19.6557 14.6009C19.593 14.5829 19.5243 14.5725 19.4496 14.5695C19.3749 14.5635 19.3077 14.5605 19.248 14.5605H17.7069V16.7378ZM23.607 20.1337C23.2576 20.1337 22.9619 20.068 22.72 19.9365C22.4781 19.8021 22.2944 19.6244 22.169 19.4034C22.0465 19.1824 21.9853 18.939 21.9853 18.6732C21.9853 18.4402 22.0241 18.2312 22.1018 18.046C22.1794 17.8578 22.2989 17.6965 22.4602 17.5621C22.6214 17.4248 22.8305 17.3128 23.0874 17.2261C23.2815 17.1634 23.5085 17.1067 23.7683 17.0559C24.0311 17.0051 24.3149 16.9588 24.6195 16.917C24.9271 16.8722 25.2482 16.8244 25.5827 16.7737L25.1974 16.9932C25.2004 16.6587 25.1258 16.4123 24.9734 16.254C24.8211 16.0957 24.5643 16.0165 24.2029 16.0165C23.9849 16.0165 23.7743 16.0673 23.5712 16.1689C23.3681 16.2704 23.2262 16.4451 23.1456 16.693L22.16 16.3839C22.2795 15.9747 22.5065 15.6462 22.841 15.3983C23.1785 15.1504 23.6324 15.0265 24.2029 15.0265C24.633 15.0265 25.0108 15.0967 25.3363 15.237C25.6649 15.3774 25.9083 15.6074 26.0666 15.9269C26.1532 16.0972 26.2054 16.2719 26.2234 16.4511C26.2413 16.6273 26.2502 16.82 26.2502 17.029V19.9993H25.305V18.9509L25.4618 19.1212C25.2437 19.4706 24.9884 19.7275 24.6957 19.8917C24.406 20.053 24.0431 20.1337 23.607 20.1337ZM23.8221 19.2735C24.067 19.2735 24.2761 19.2302 24.4493 19.1436C24.6225 19.057 24.7599 18.9509 24.8614 18.8255C24.966 18.7001 25.0362 18.5821 25.072 18.4716C25.1287 18.3342 25.1601 18.1774 25.1661 18.0012C25.175 17.822 25.1795 17.6771 25.1795 17.5666L25.511 17.6652C25.1855 17.716 24.9062 17.7608 24.6733 17.7996C24.4403 17.8384 24.2402 17.8757 24.073 17.9116C23.9057 17.9444 23.7579 17.9818 23.6294 18.0236C23.504 18.0684 23.398 18.1207 23.3114 18.1804C23.2247 18.2401 23.1575 18.3088 23.1098 18.3865C23.065 18.4641 23.0426 18.5552 23.0426 18.6597C23.0426 18.7792 23.0724 18.8852 23.1322 18.9778C23.1919 19.0674 23.2785 19.1391 23.392 19.1929C23.5085 19.2466 23.6518 19.2735 23.8221 19.2735ZM29.5446 20.1337C29.0458 20.1337 28.6202 20.0232 28.2678 19.8021C27.9154 19.5781 27.6451 19.2735 27.4569 18.8882C27.2717 18.5029 27.1776 18.0669 27.1747 17.5801C27.1776 17.0843 27.2747 16.6452 27.4659 16.2629C27.66 15.8777 27.9348 15.576 28.2902 15.358C28.6456 15.137 29.0682 15.0265 29.558 15.0265C30.1076 15.0265 30.572 15.1653 30.9513 15.4431C31.3336 15.7179 31.583 16.0942 31.6995 16.5721L30.6243 16.8633C30.5406 16.6034 30.4018 16.4018 30.2076 16.2585C30.0135 16.1121 29.7925 16.0389 29.5446 16.0389C29.2638 16.0389 29.0324 16.1061 28.8502 16.2405C28.668 16.372 28.5336 16.5541 28.447 16.7871C28.3604 17.0201 28.3171 17.2844 28.3171 17.5801C28.3171 18.04 28.4201 18.4119 28.6262 18.6956C28.8323 18.9793 29.1384 19.1212 29.5446 19.1212C29.8313 19.1212 30.0568 19.0555 30.2211 18.9241C30.3883 18.7927 30.5138 18.603 30.5974 18.3551L31.6995 18.6015C31.5501 19.0943 31.2888 19.4736 30.9155 19.7394C30.5421 20.0023 30.0852 20.1337 29.5446 20.1337ZM32.5824 14.4261V13.4361H33.6621V14.4261H32.5824ZM32.5824 19.9993V15.1609H33.6621V19.9993H32.5824ZM37.2307 20.1337C36.7408 20.1337 36.3108 20.0276 35.9404 19.8156C35.5701 19.6035 35.2804 19.3093 35.0713 18.933C34.8652 18.5567 34.7622 18.1236 34.7622 17.6338C34.7622 17.1052 34.8637 16.6467 35.0668 16.2585C35.2699 15.8672 35.5521 15.5641 35.9135 15.349C36.2749 15.134 36.6931 15.0265 37.1679 15.0265C37.6697 15.0265 38.0953 15.1444 38.4447 15.3804C38.7972 15.6133 39.0585 15.9434 39.2287 16.3705C39.399 16.7976 39.4632 17.3008 39.4214 17.8802H38.3507V17.486C38.3477 16.9603 38.2551 16.5765 38.0729 16.3346C37.8907 16.0927 37.604 15.9717 37.2127 15.9717C36.7707 15.9717 36.4422 16.1091 36.2271 16.3839C36.0121 16.6557 35.9046 17.0544 35.9046 17.5801C35.9046 18.0699 36.0121 18.4492 36.2271 18.718C36.4422 18.9868 36.7558 19.1212 37.1679 19.1212C37.4337 19.1212 37.6622 19.0629 37.8534 18.9465C38.0475 18.827 38.1968 18.6553 38.3014 18.4313L39.3676 18.7538C39.1824 19.1899 38.8957 19.5289 38.5075 19.7708C38.1222 20.0127 37.6966 20.1337 37.2307 20.1337ZM35.5641 17.8802V17.0649H38.8927V17.8802H35.5641ZM43.6632 19.9993V17.6697C43.6632 17.5173 43.6527 17.3486 43.6318 17.1634C43.6109 16.9783 43.5616 16.8005 43.484 16.6303C43.4093 16.4571 43.2958 16.3152 43.1435 16.2047C42.9941 16.0942 42.7911 16.0389 42.5342 16.0389C42.3968 16.0389 42.2609 16.0613 42.1265 16.1061C41.9921 16.1509 41.8697 16.2286 41.7592 16.3391C41.6516 16.4466 41.565 16.596 41.4993 16.7871C41.4336 16.9753 41.4008 17.2172 41.4008 17.5129L40.7601 17.2396C40.7601 16.8274 40.8393 16.4541 40.9976 16.1196C41.1588 15.7851 41.3948 15.5193 41.7054 15.3221C42.016 15.122 42.3983 15.022 42.8523 15.022C43.2107 15.022 43.5064 15.0817 43.7393 15.2012C43.9723 15.3207 44.1575 15.473 44.2948 15.6581C44.4322 15.8433 44.5338 16.0404 44.5995 16.2495C44.6652 16.4586 44.707 16.6572 44.7249 16.8453C44.7458 17.0305 44.7563 17.1813 44.7563 17.2978V19.9993H43.6632ZM40.3076 19.9993V15.1609H41.2708V16.6617H41.4008V19.9993H40.3076ZM48.7881 19.9993C48.4685 20.059 48.1549 20.0844 47.8473 20.0754C47.5426 20.0695 47.2693 20.0142 47.0274 19.9097C46.7855 19.8021 46.6018 19.6334 46.4764 19.4034C46.3659 19.1944 46.3076 18.9808 46.3017 18.7628C46.2957 18.5448 46.2927 18.2984 46.2927 18.0236V13.8169H47.3679V17.9609C47.3679 18.155 47.3694 18.3252 47.3724 18.4716C47.3784 18.6179 47.4097 18.7374 47.4665 18.83C47.574 19.0092 47.7457 19.1092 47.9817 19.1301C48.2176 19.1511 48.4864 19.1391 48.7881 19.0943V19.9993ZM45.4146 16.0076V15.1609H48.7881V16.0076H45.4146ZM51.81 20.1337C51.3202 20.1337 50.8901 20.0276 50.5198 19.8156C50.1495 19.6035 49.8597 19.3093 49.6507 18.933C49.4446 18.5567 49.3416 18.1236 49.3416 17.6338C49.3416 17.1052 49.4431 16.6467 49.6462 16.2585C49.8493 15.8672 50.1315 15.5641 50.4929 15.349C50.8543 15.134 51.2724 15.0265 51.7473 15.0265C52.2491 15.0265 52.6747 15.1444 53.0241 15.3804C53.3765 15.6133 53.6379 15.9434 53.8081 16.3705C53.9784 16.7976 54.0426 17.3008 54.0008 17.8802H52.93V17.486C52.9271 16.9603 52.8345 16.5765 52.6523 16.3346C52.4701 16.0927 52.1834 15.9717 51.7921 15.9717C51.3501 15.9717 51.0216 16.1091 50.8065 16.3839C50.5915 16.6557 50.484 17.0544 50.484 17.5801C50.484 18.0699 50.5915 18.4492 50.8065 18.718C51.0216 18.9868 51.3352 19.1212 51.7473 19.1212C52.0131 19.1212 52.2416 19.0629 52.4328 18.9465C52.6269 18.827 52.7762 18.6553 52.8808 18.4313L53.947 18.7538C53.7618 19.1899 53.4751 19.5289 53.0868 19.7708C52.7016 20.0127 52.276 20.1337 51.81 20.1337ZM50.1435 17.8802V17.0649H53.4721V17.8802H50.1435ZM56.8954 20.1337C56.2981 20.1337 55.8127 19.9993 55.4394 19.7305C55.0661 19.4617 54.8391 19.0839 54.7584 18.597L55.8605 18.4268C55.9173 18.6657 56.0427 18.8539 56.2368 18.9913C56.431 19.1287 56.6759 19.1973 56.9716 19.1973C57.2314 19.1973 57.4315 19.1466 57.5719 19.045C57.7152 18.9405 57.7869 18.7986 57.7869 18.6194C57.7869 18.5089 57.76 18.4208 57.7063 18.3551C57.6555 18.2864 57.542 18.2207 57.3658 18.158C57.1896 18.0953 56.9193 18.0161 56.5549 17.9205C56.1487 17.813 55.8262 17.698 55.5872 17.5756C55.3483 17.4501 55.1766 17.3023 55.072 17.1321C54.9675 16.9618 54.9152 16.7557 54.9152 16.5138C54.9152 16.2122 54.9944 15.9493 55.1527 15.7253C55.311 15.5013 55.532 15.3296 55.8157 15.2101C56.0995 15.0877 56.434 15.0265 56.8192 15.0265C57.1956 15.0265 57.5286 15.0847 57.8183 15.2012C58.111 15.3177 58.3469 15.4834 58.5261 15.6985C58.7053 15.9135 58.8158 16.1659 58.8576 16.4556L57.7556 16.6527C57.7287 16.4466 57.6346 16.2839 57.4733 16.1644C57.315 16.0449 57.103 15.9777 56.8372 15.9628C56.5833 15.9479 56.3787 15.9867 56.2234 16.0793C56.0681 16.1689 55.9904 16.2958 55.9904 16.4601C55.9904 16.5527 56.0218 16.6318 56.0845 16.6975C56.1472 16.7632 56.2727 16.8289 56.4608 16.8946C56.652 16.9603 56.9357 17.041 57.312 17.1365C57.6973 17.2351 58.0049 17.3486 58.2349 17.477C58.4679 17.6025 58.6351 17.7533 58.7367 17.9295C58.8412 18.1057 58.8935 18.3193 58.8935 18.5701C58.8935 19.057 58.7158 19.4393 58.3604 19.717C58.0079 19.9948 57.5196 20.1337 56.8954 20.1337Z" fill="black"/>
<rect x="16" y="76" width="209.28" height="36.48" rx="5.12" fill="white"/>
<g clip-path="url(#clip3_1653_23301)">
<path d="M206.25 88.7502H201.138L198.804 87.5835H195.75C195.286 87.5835 194.841 87.7679 194.513 88.0961C194.184 88.4242 194 88.8694 194 89.3335V100.417H208V90.5002C208 90.036 207.816 89.5909 207.487 89.2627C207.159 88.9345 206.714 88.7502 206.25 88.7502ZM195.75 88.7502H198.529L200.862 89.9168H206.25C206.405 89.9168 206.553 89.9783 206.662 90.0877C206.772 90.1971 206.833 90.3455 206.833 90.5002V91.0141L195.167 91.08V89.3335C195.167 89.1788 195.228 89.0304 195.338 88.921C195.447 88.8116 195.595 88.7502 195.75 88.7502ZM195.167 99.2502V92.2467L206.833 92.1807V99.2502H195.167Z" fill="#374957"/>
</g>
<path d="M52.2878 102.281V97.6735H52.8062L54.547 101.344L56.2782 97.6735H56.803V102.278H56.2622V98.9247L54.6974 102.281H54.3934L52.8286 98.9247V102.281H52.2878ZM58.6955 102.377C58.4374 102.377 58.2209 102.331 58.0459 102.237C57.8731 102.141 57.7419 102.015 57.6523 101.859C57.5649 101.703 57.5211 101.533 57.5211 101.347C57.5211 101.166 57.5553 101.009 57.6235 100.877C57.6939 100.742 57.7921 100.631 57.9179 100.544C58.0438 100.454 58.1942 100.384 58.3691 100.333C58.5334 100.288 58.7169 100.249 58.9195 100.217C59.1243 100.183 59.3313 100.152 59.5403 100.125C59.7494 100.097 59.9446 100.07 60.1259 100.045L59.9211 100.163C59.9275 99.8559 59.8657 99.6287 59.7355 99.4815C59.6075 99.3343 59.3857 99.2607 59.0699 99.2607C58.8609 99.2607 58.6774 99.3087 58.5195 99.4047C58.3638 99.4986 58.2539 99.6522 58.1899 99.8655L57.6491 99.7023C57.7323 99.3994 57.8934 99.1615 58.1323 98.9887C58.3713 98.8159 58.6859 98.7295 59.0763 98.7295C59.3899 98.7295 59.6587 98.786 59.8827 98.8991C60.1089 99.01 60.271 99.1786 60.3691 99.4047C60.4182 99.5114 60.4491 99.6276 60.4619 99.7535C60.4747 99.8772 60.4811 100.007 60.4811 100.144V102.281H59.9755V101.453L60.0939 101.529C59.9638 101.809 59.7814 102.02 59.5467 102.163C59.3142 102.306 59.0305 102.377 58.6955 102.377ZM58.7819 101.901C58.9867 101.901 59.1638 101.864 59.3131 101.792C59.4646 101.717 59.5862 101.62 59.6779 101.501C59.7697 101.379 59.8294 101.247 59.8571 101.104C59.8891 100.997 59.9062 100.879 59.9083 100.749C59.9126 100.616 59.9147 100.515 59.9147 100.445L60.1131 100.531C59.9275 100.557 59.7451 100.581 59.5659 100.605C59.3867 100.628 59.2171 100.654 59.0571 100.681C58.8971 100.707 58.7531 100.738 58.6251 100.774C58.5313 100.804 58.4427 100.843 58.3595 100.889C58.2785 100.936 58.2123 100.997 58.1611 101.072C58.1121 101.144 58.0875 101.235 58.0875 101.344C58.0875 101.438 58.111 101.527 58.1579 101.613C58.207 101.698 58.2817 101.767 58.3819 101.821C58.4843 101.874 58.6177 101.901 58.7819 101.901ZM61.3259 102.281V98.8255H61.8347V99.6607L61.7515 99.5519C61.7921 99.4452 61.8443 99.3471 61.9083 99.2575C61.9745 99.1679 62.0481 99.0943 62.1291 99.0367C62.2187 98.9642 62.3201 98.9087 62.4331 98.8703C62.5462 98.8319 62.6614 98.8095 62.7787 98.8031C62.8961 98.7946 63.0059 98.802 63.1083 98.8255V99.3599C62.9889 99.3279 62.8577 99.3194 62.7147 99.3343C62.5718 99.3492 62.4395 99.4015 62.3179 99.4911C62.207 99.57 62.1206 99.666 62.0587 99.7791C61.999 99.8922 61.9574 100.015 61.9339 100.147C61.9105 100.277 61.8987 100.411 61.8987 100.547V102.281H61.3259ZM63.723 102.281L63.7262 97.6735H64.3022V100.489L65.7518 98.8255H66.491L64.9646 100.553L66.6702 102.281H65.8734L64.3022 100.617V102.281H63.723ZM68.4366 102.377C68.0974 102.377 67.8009 102.303 67.547 102.153C67.2953 102.002 67.099 101.792 66.9582 101.523C66.8174 101.252 66.747 100.936 66.747 100.576C66.747 100.198 66.8164 99.8719 66.955 99.5967C67.0937 99.3194 67.2868 99.106 67.5342 98.9567C67.7838 98.8052 68.0761 98.7295 68.411 98.7295C68.7588 98.7295 69.0542 98.8095 69.2974 98.9695C69.5428 99.1295 69.7262 99.3578 69.8478 99.6543C69.9716 99.9508 70.0249 100.304 70.0078 100.713H69.4318V100.509C69.4254 100.084 69.339 99.7674 69.1726 99.5583C69.0062 99.3471 68.7588 99.2415 68.4302 99.2415C68.0782 99.2415 67.8105 99.3546 67.627 99.5807C67.4436 99.8068 67.3518 100.131 67.3518 100.553C67.3518 100.961 67.4436 101.277 67.627 101.501C67.8105 101.725 68.0718 101.837 68.411 101.837C68.6393 101.837 68.8377 101.784 69.0062 101.68C69.1748 101.575 69.307 101.425 69.403 101.229L69.9502 101.417C69.8158 101.723 69.6132 101.959 69.3422 102.128C69.0734 102.294 68.7716 102.377 68.4366 102.377ZM67.1598 100.713V100.256H69.7134V100.713H67.1598ZM72.6627 102.281C72.4579 102.322 72.2552 102.338 72.0547 102.329C71.8563 102.323 71.6792 102.284 71.5235 102.211C71.3678 102.136 71.2494 102.021 71.1683 101.865C71.1 101.729 71.0627 101.591 71.0563 101.453C71.052 101.312 71.0499 101.153 71.0499 100.976V97.8655H71.6195V100.95C71.6195 101.091 71.6206 101.212 71.6227 101.312C71.627 101.412 71.6494 101.499 71.6899 101.571C71.7667 101.708 71.8883 101.788 72.0547 101.811C72.2232 101.835 72.4259 101.828 72.6627 101.792V102.281ZM70.3491 99.2959V98.8255H72.6627V99.2959H70.3491ZM73.4411 98.2143V97.6255H74.0107V98.2143H73.4411ZM73.4411 102.281V98.8255H74.0107V102.281H73.4411ZM77.4445 102.281V100.55C77.4445 100.386 77.4296 100.228 77.3997 100.077C77.372 99.9252 77.3218 99.7898 77.2493 99.6703C77.1789 99.5487 77.0829 99.4527 76.9613 99.3823C76.8418 99.3119 76.6904 99.2767 76.5069 99.2767C76.364 99.2767 76.2338 99.3012 76.1165 99.3503C76.0013 99.3972 75.9021 99.4698 75.8189 99.5679C75.7357 99.666 75.6706 99.7898 75.6237 99.9391C75.5789 100.086 75.5565 100.26 75.5565 100.461L75.1821 100.345C75.1821 100.011 75.2418 99.7236 75.3613 99.4847C75.4829 99.2436 75.6525 99.0591 75.8701 98.9311C76.0898 98.801 76.348 98.7359 76.6445 98.7359C76.8685 98.7359 77.0594 98.7711 77.2173 98.8415C77.3752 98.9119 77.5064 99.0058 77.6109 99.1231C77.7154 99.2383 77.7976 99.3684 77.8573 99.5135C77.917 99.6564 77.9586 99.8026 77.9821 99.9519C78.0077 100.099 78.0205 100.239 78.0205 100.371V102.281H77.4445ZM74.9805 102.281V98.8255H75.4925V99.7503H75.5565V102.281H74.9805ZM80.2636 103.913C80.0823 103.913 79.9052 103.886 79.7324 103.83C79.5596 103.775 79.4007 103.691 79.2556 103.577C79.1127 103.467 78.9932 103.326 78.8972 103.155L79.4188 102.88C79.5042 103.048 79.6247 103.171 79.7804 103.248C79.9383 103.325 80.1004 103.363 80.2668 103.363C80.4866 103.363 80.669 103.323 80.814 103.241C80.9591 103.163 81.0658 103.044 81.134 102.886C81.2044 102.728 81.2386 102.532 81.2364 102.297V101.353H81.3036V98.8255H81.8092V102.304C81.8092 102.398 81.806 102.488 81.7996 102.576C81.7954 102.663 81.7847 102.75 81.7676 102.835C81.7228 103.08 81.6343 103.282 81.502 103.44C81.3698 103.6 81.1991 103.718 80.99 103.795C80.781 103.874 80.5388 103.913 80.2636 103.913ZM80.222 102.377C79.8999 102.377 79.6236 102.297 79.3932 102.137C79.1628 101.975 78.9847 101.757 78.8588 101.481C78.7351 101.206 78.6732 100.896 78.6732 100.55C78.6732 100.205 78.7351 99.8943 78.8588 99.6191C78.9847 99.3439 79.1628 99.1274 79.3932 98.9695C79.6236 98.8095 79.8988 98.7295 80.2188 98.7295C80.5452 98.7295 80.8194 98.8084 81.0412 98.9663C81.2631 99.1242 81.4306 99.3407 81.5436 99.6159C81.6588 99.8911 81.7164 100.203 81.7164 100.55C81.7164 100.894 81.6588 101.204 81.5436 101.481C81.4306 101.757 81.2631 101.975 81.0412 102.137C80.8194 102.297 80.5463 102.377 80.222 102.377ZM80.2924 101.856C80.525 101.856 80.7159 101.8 80.8652 101.689C81.0146 101.576 81.1244 101.422 81.1948 101.225C81.2674 101.027 81.3036 100.802 81.3036 100.55C81.3036 100.294 81.2674 100.069 81.1948 99.8751C81.1244 99.6788 81.0156 99.5263 80.8684 99.4175C80.7212 99.3066 80.5346 99.2511 80.3084 99.2511C80.0738 99.2511 79.8796 99.3087 79.726 99.4239C79.5746 99.5391 79.4615 99.6948 79.3868 99.8911C79.3143 100.087 79.278 100.307 79.278 100.55C79.278 100.796 79.3154 101.017 79.39 101.216C79.4647 101.412 79.5767 101.568 79.726 101.683C79.8775 101.798 80.0663 101.856 80.2924 101.856Z" fill="#868686"/>
<path d="M52.019 92.2795L54.053 85.8283H55.6344L57.6683 92.2795H56.5573L54.7115 86.4914H54.9534L53.1301 92.2795H52.019ZM53.1525 90.8818V89.8738H56.5394V90.8818H53.1525ZM58.5948 92.2795V85.6939H59.6745V92.2795H58.5948ZM66.8539 92.2795V89.3407C66.8539 89.0091 66.7717 88.7508 66.6075 88.5656C66.4432 88.3775 66.2207 88.2834 65.9399 88.2834C65.7667 88.2834 65.6114 88.3237 65.474 88.4043C65.3366 88.482 65.2276 88.5985 65.147 88.7538C65.0663 88.9061 65.026 89.0883 65.026 89.3003L64.5467 89.0181C64.5437 88.6836 64.6183 88.3894 64.7707 88.1355C64.926 87.8787 65.135 87.6786 65.3979 87.5352C65.6607 87.3919 65.9534 87.3202 66.2759 87.3202C66.8106 87.3202 67.2197 87.4815 67.5035 87.804C67.7902 88.1236 67.9335 88.5447 67.9335 89.0674V92.2795H66.8539ZM61.0343 92.2795V87.4411H61.9886V88.9419H62.123V92.2795H61.0343ZM63.9508 92.2795V89.3541C63.9508 89.0166 63.8687 88.7538 63.7044 88.5656C63.5402 88.3775 63.3162 88.2834 63.0324 88.2834C62.7577 88.2834 62.5366 88.3775 62.3694 88.5656C62.2051 88.7538 62.123 88.9987 62.123 89.3003L61.6391 88.9778C61.6391 88.6642 61.7168 88.3819 61.8721 88.1311C62.0274 87.8802 62.2365 87.6831 62.4993 87.5397C62.7651 87.3934 63.0623 87.3202 63.3908 87.3202C63.7522 87.3202 64.0539 87.3978 64.2958 87.5531C64.5407 87.7055 64.7229 87.9145 64.8423 88.1803C64.9648 88.4432 65.026 88.7403 65.026 89.0719V92.2795H63.9508ZM70.4819 92.4139C70.1325 92.4139 69.8368 92.3482 69.5949 92.2168C69.3529 92.0824 69.1693 91.9047 69.0438 91.6837C68.9214 91.4627 68.8601 91.2193 68.8601 90.9535C68.8601 90.7205 68.899 90.5114 68.9766 90.3263C69.0543 90.1381 69.1737 89.9768 69.335 89.8424C69.4963 89.705 69.7054 89.593 69.9622 89.5064C70.1563 89.4437 70.3833 89.387 70.6432 89.3362C70.906 89.2854 71.1897 89.2391 71.4944 89.1973C71.802 89.1525 72.1231 89.1047 72.4576 89.0539L72.0723 89.2735C72.0753 88.939 72.0006 88.6926 71.8483 88.5343C71.696 88.376 71.4391 88.2968 71.0777 88.2968C70.8597 88.2968 70.6491 88.3476 70.4461 88.4491C70.243 88.5507 70.1011 88.7254 70.0205 88.9733L69.0349 88.6642C69.1543 88.255 69.3813 87.9265 69.7158 87.6786C70.0533 87.4307 70.5073 87.3067 71.0777 87.3067C71.5078 87.3067 71.8856 87.3769 72.2112 87.5173C72.5397 87.6577 72.7831 87.8876 72.9414 88.2072C73.028 88.3775 73.0803 88.5522 73.0982 88.7314C73.1161 88.9076 73.1251 89.1002 73.1251 89.3093V92.2795H72.1798V91.2312L72.3366 91.4015C72.1186 91.7509 71.8632 92.0078 71.5705 92.172C71.2808 92.3333 70.9179 92.4139 70.4819 92.4139ZM70.6969 91.5538C70.9418 91.5538 71.1509 91.5105 71.3241 91.4239C71.4974 91.3372 71.6347 91.2312 71.7363 91.1058C71.8408 90.9803 71.911 90.8624 71.9469 90.7519C72.0036 90.6145 72.035 90.4577 72.0409 90.2815C72.0499 90.1023 72.0544 89.9574 72.0544 89.8469L72.3859 89.9455C72.0603 89.9962 71.7811 90.041 71.5481 90.0799C71.3152 90.1187 71.1151 90.156 70.9478 90.1919C70.7806 90.2247 70.6327 90.262 70.5043 90.3039C70.3789 90.3487 70.2728 90.4009 70.1862 90.4607C70.0996 90.5204 70.0324 90.5891 69.9846 90.6667C69.9398 90.7444 69.9174 90.8355 69.9174 90.94C69.9174 91.0595 69.9473 91.1655 70.007 91.2581C70.0667 91.3477 70.1534 91.4194 70.2669 91.4731C70.3833 91.5269 70.5267 91.5538 70.6969 91.5538ZM74.3183 92.2795V87.4411H75.2726V88.6194L75.1561 88.4671C75.2158 88.3058 75.295 88.1594 75.3935 88.028C75.4951 87.8936 75.616 87.7831 75.7564 87.6965C75.8759 87.6159 76.0073 87.5531 76.1506 87.5083C76.297 87.4606 76.4463 87.4322 76.5986 87.4232C76.751 87.4113 76.8988 87.4172 77.0422 87.4411V88.4491C76.8988 88.4073 76.733 88.3939 76.5449 88.4088C76.3597 88.4238 76.1924 88.476 76.0431 88.5656C75.8938 88.6463 75.7713 88.7493 75.6758 88.8747C75.5832 89.0002 75.5145 89.1435 75.4697 89.3048C75.4249 89.4631 75.4025 89.6348 75.4025 89.82V92.2795H74.3183ZM79.1632 92.4139C78.8137 92.4139 78.518 92.3482 78.2761 92.2168C78.0342 92.0824 77.8505 91.9047 77.7251 91.6837C77.6026 91.4627 77.5414 91.2193 77.5414 90.9535C77.5414 90.7205 77.5802 90.5114 77.6579 90.3263C77.7355 90.1381 77.855 89.9768 78.0163 89.8424C78.1776 89.705 78.3866 89.593 78.6435 89.5064C78.8376 89.4437 79.0646 89.387 79.3244 89.3362C79.5873 89.2854 79.871 89.2391 80.1756 89.1973C80.4833 89.1525 80.8043 89.1047 81.1388 89.0539L80.7536 89.2735C80.7565 88.939 80.6819 88.6926 80.5296 88.5343C80.3772 88.376 80.1204 88.2968 79.759 88.2968C79.541 88.2968 79.3304 88.3476 79.1273 88.4491C78.9242 88.5507 78.7824 88.7254 78.7017 88.9733L77.7161 88.6642C77.8356 88.255 78.0626 87.9265 78.3971 87.6786C78.7346 87.4307 79.1885 87.3067 79.759 87.3067C80.1891 87.3067 80.5669 87.3769 80.8924 87.5173C81.221 87.6577 81.4644 87.8876 81.6227 88.2072C81.7093 88.3775 81.7616 88.5522 81.7795 88.7314C81.7974 88.9076 81.8064 89.1002 81.8064 89.3093V92.2795H80.8611V91.2312L81.0179 91.4015C80.7998 91.7509 80.5445 92.0078 80.2518 92.172C79.9621 92.3333 79.5992 92.4139 79.1632 92.4139ZM79.3782 91.5538C79.6231 91.5538 79.8322 91.5105 80.0054 91.4239C80.1786 91.3372 80.316 91.2312 80.4176 91.1058C80.5221 90.9803 80.5923 90.8624 80.6281 90.7519C80.6849 90.6145 80.7162 90.4577 80.7222 90.2815C80.7312 90.1023 80.7356 89.9574 80.7356 89.8469L81.0672 89.9455C80.7416 89.9962 80.4624 90.041 80.2294 90.0799C79.9964 90.1187 79.7963 90.156 79.6291 90.1919C79.4618 90.2247 79.314 90.262 79.1856 90.3039C79.0601 90.3487 78.9541 90.4009 78.8675 90.4607C78.7809 90.5204 78.7137 90.5891 78.6659 90.6667C78.6211 90.7444 78.5987 90.8355 78.5987 90.94C78.5987 91.0595 78.6285 91.1655 78.6883 91.2581C78.748 91.3477 78.8346 91.4194 78.9481 91.4731C79.0646 91.5269 79.208 91.5538 79.3782 91.5538ZM86.1104 92.4139C85.6176 92.4139 85.207 92.2855 84.8784 92.0287C84.5529 91.7718 84.3244 91.4254 84.193 90.9893L85.2592 90.7339C85.2921 90.9161 85.3877 91.0729 85.546 91.2043C85.7043 91.3358 85.879 91.4015 86.0701 91.4015C86.1956 91.4015 86.3285 91.3686 86.4688 91.3029C86.6092 91.2342 86.7138 91.1252 86.7824 90.9759C86.8243 90.8803 86.8482 90.7668 86.8541 90.6354C86.8631 90.501 86.8676 90.3457 86.8676 90.1695V85.8283H87.9607V90.1695C87.9607 90.3696 87.9592 90.5458 87.9562 90.6981C87.9562 90.8474 87.9413 90.9893 87.9114 91.1237C87.8845 91.2551 87.8293 91.391 87.7456 91.5314C87.5694 91.836 87.3395 92.06 87.0557 92.2034C86.772 92.3438 86.4569 92.4139 86.1104 92.4139ZM89.4254 86.7064V85.7163H90.5051V86.7064H89.4254ZM89.4254 92.2795V87.4411H90.5051V92.2795H89.4254ZM97.6845 92.2795V89.3407C97.6845 89.0091 97.6024 88.7508 97.4381 88.5656C97.2739 88.3775 97.0514 88.2834 96.7706 88.2834C96.5974 88.2834 96.4421 88.3237 96.3047 88.4043C96.1673 88.482 96.0583 88.5985 95.9776 88.7538C95.897 88.9061 95.8567 89.0883 95.8567 89.3003L95.3773 89.0181C95.3743 88.6836 95.449 88.3894 95.6013 88.1355C95.7566 87.8787 95.9657 87.6786 96.2285 87.5352C96.4914 87.3919 96.784 87.3202 97.1066 87.3202C97.6412 87.3202 98.0504 87.4815 98.3341 87.804C98.6208 88.1236 98.7642 88.5447 98.7642 89.0674V92.2795H97.6845ZM91.865 92.2795V87.4411H92.8192V88.9419H92.9536V92.2795H91.865ZM94.7815 92.2795V89.3541C94.7815 89.0166 94.6994 88.7538 94.5351 88.5656C94.3708 88.3775 94.1468 88.2834 93.8631 88.2834C93.5883 88.2834 93.3673 88.3775 93.2 88.5656C93.0358 88.7538 92.9536 88.9987 92.9536 89.3003L92.4698 88.9778C92.4698 88.6642 92.5475 88.3819 92.7028 88.1311C92.8581 87.8802 93.0671 87.6831 93.33 87.5397C93.5958 87.3934 93.893 87.3202 94.2215 87.3202C94.5829 87.3202 94.8845 87.3978 95.1264 87.5531C95.3714 87.7055 95.5535 87.9145 95.673 88.1803C95.7955 88.4432 95.8567 88.7403 95.8567 89.0719V92.2795H94.7815ZM102.607 86.7467H101.787L102.477 85.0891H103.297L102.607 86.7467ZM102.159 92.4139C101.669 92.4139 101.239 92.3079 100.869 92.0959C100.499 91.8838 100.209 91.5896 99.9999 91.2133C99.7938 90.837 99.6908 90.4039 99.6908 89.9141C99.6908 89.3855 99.7923 88.927 99.9954 88.5387C100.199 88.1475 100.481 87.8443 100.842 87.6293C101.204 87.4143 101.622 87.3067 102.097 87.3067C102.598 87.3067 103.024 87.4247 103.373 87.6607C103.726 87.8936 103.987 88.2236 104.157 88.6507C104.328 89.0778 104.392 89.5811 104.35 90.1605H103.279V89.7663C103.276 89.2406 103.184 88.8568 103.002 88.6149C102.819 88.373 102.533 88.252 102.141 88.252C101.699 88.252 101.371 88.3894 101.156 88.6642C100.941 88.936 100.833 89.3347 100.833 89.8603C100.833 90.3502 100.941 90.7295 101.156 90.9983C101.371 91.2671 101.684 91.4015 102.097 91.4015C102.362 91.4015 102.591 91.3432 102.782 91.2267C102.976 91.1073 103.125 90.9355 103.23 90.7115L104.296 91.0341C104.111 91.4702 103.824 91.8091 103.436 92.0511C103.051 92.293 102.625 92.4139 102.159 92.4139ZM100.493 90.1605V89.3451H103.821V90.1605H100.493ZM108.592 92.2795V89.9499C108.592 89.7976 108.581 89.6289 108.56 89.4437C108.54 89.2585 108.49 89.0808 108.413 88.9106C108.338 88.7374 108.224 88.5955 108.072 88.485C107.923 88.3745 107.72 88.3192 107.463 88.3192C107.325 88.3192 107.19 88.3416 107.055 88.3864C106.921 88.4312 106.798 88.5089 106.688 88.6194C106.58 88.7269 106.494 88.8762 106.428 89.0674C106.362 89.2555 106.329 89.4975 106.329 89.7931L105.689 89.5199C105.689 89.1077 105.768 88.7344 105.926 88.3999C106.087 88.0654 106.323 87.7995 106.634 87.6024C106.945 87.4023 107.327 87.3023 107.781 87.3023C108.139 87.3023 108.435 87.362 108.668 87.4815C108.901 87.6009 109.086 87.7532 109.223 87.9384C109.361 88.1236 109.462 88.3207 109.528 88.5298C109.594 88.7388 109.636 88.9375 109.654 89.1256C109.674 89.3108 109.685 89.4616 109.685 89.5781V92.2795H108.592ZM105.236 92.2795V87.4411H106.199V88.9419H106.329V92.2795H105.236ZM113.002 92.4139C112.512 92.4139 112.082 92.3079 111.712 92.0959C111.341 91.8838 111.051 91.5896 110.842 91.2133C110.636 90.837 110.533 90.4039 110.533 89.9141C110.533 89.3855 110.635 88.927 110.838 88.5387C111.041 88.1475 111.323 87.8443 111.685 87.6293C112.046 87.4143 112.464 87.3067 112.939 87.3067C113.441 87.3067 113.866 87.4247 114.216 87.6607C114.568 87.8936 114.83 88.2236 115 88.6507C115.17 89.0778 115.234 89.5811 115.193 90.1605H114.122V89.7663C114.119 89.2406 114.026 88.8568 113.844 88.6149C113.662 88.373 113.375 88.252 112.984 88.252C112.542 88.252 112.213 88.3894 111.998 88.6642C111.783 88.936 111.676 89.3347 111.676 89.8603C111.676 90.3502 111.783 90.7295 111.998 90.9983C112.213 91.2671 112.527 91.4015 112.939 91.4015C113.205 91.4015 113.433 91.3432 113.625 91.2267C113.819 91.1073 113.968 90.9355 114.073 90.7115L115.139 91.0341C114.954 91.4702 114.667 91.8091 114.279 92.0511C113.893 92.293 113.468 92.4139 113.002 92.4139ZM111.335 90.1605V89.3451H114.664V90.1605H111.335ZM115.771 92.2795V92.1317L118.334 88.3864H116.031V87.4411H120.014V87.5935L117.46 91.3343H119.906V92.2795H115.771Z" fill="black"/>
<rect x="25.9531" y="83.6606" width="20.48" height="20.4798" rx="10.2399" fill="#AEA1FF"/>
<g clip-path="url(#clip4_1653_23301)">
<path d="M36 94.0005C36.5439 94.0005 37.0756 93.8392 37.5278 93.537C37.9801 93.2349 38.3325 92.8054 38.5407 92.3029C38.7488 91.8004 38.8033 91.2474 38.6972 90.714C38.5911 90.1805 38.3291 89.6905 37.9445 89.3059C37.5599 88.9214 37.0699 88.6594 36.5365 88.5533C36.0031 88.4472 35.4501 88.5017 34.9476 88.7098C34.4451 88.918 34.0156 89.2704 33.7135 89.7227C33.4113 90.1749 33.25 90.7066 33.25 91.2505C33.2507 91.9796 33.5407 92.6787 34.0563 93.1942C34.5718 93.7098 35.2709 93.9998 36 94.0005ZM36 89.4172C36.3626 89.4172 36.7171 89.5247 37.0185 89.7261C37.32 89.9276 37.555 90.2139 37.6938 90.5489C37.8325 90.8839 37.8688 91.2525 37.7981 91.6082C37.7274 91.9638 37.5528 92.2905 37.2964 92.5469C37.04 92.8032 36.7133 92.9779 36.3577 93.0486C36.002 93.1193 35.6334 93.083 35.2984 92.9443C34.9634 92.8055 34.6771 92.5705 34.4756 92.269C34.2742 91.9675 34.1667 91.6131 34.1667 91.2505C34.1667 90.7643 34.3598 90.2979 34.7036 89.9541C35.0475 89.6103 35.5138 89.4172 36 89.4172Z" fill="white"/>
<path d="M36 94.9175C34.9064 94.9187 33.8578 95.3537 33.0845 96.127C32.3112 96.9003 31.8762 97.9488 31.875 99.0425C31.875 99.164 31.9233 99.2806 32.0092 99.3666C32.0952 99.4525 32.2118 99.5008 32.3333 99.5008C32.4549 99.5008 32.5715 99.4525 32.6574 99.3666C32.7434 99.2806 32.7917 99.164 32.7917 99.0425C32.7917 98.1916 33.1297 97.3755 33.7314 96.7738C34.333 96.1722 35.1491 95.8341 36 95.8341C36.8509 95.8341 37.667 96.1722 38.2686 96.7738C38.8703 97.3755 39.2083 98.1916 39.2083 99.0425C39.2083 99.164 39.2566 99.2806 39.3426 99.3666C39.4285 99.4525 39.5451 99.5008 39.6667 99.5008C39.7882 99.5008 39.9048 99.4525 39.9908 99.3666C40.0767 99.2806 40.125 99.164 40.125 99.0425C40.1238 97.9488 39.6888 96.9003 38.9155 96.127C38.1422 95.3537 37.0936 94.9187 36 94.9175Z" fill="white"/>
</g>
<rect x="16" y="119" width="209.28" height="36.48" rx="5.12" fill="white"/>
<path d="M52.5566 135.16V128.709H53.6363V134.147H56.4856V135.16H52.5566ZM59.0858 135.299C58.7274 135.299 58.4317 135.239 58.1988 135.12C57.9658 135 57.7807 134.848 57.6433 134.663C57.5059 134.477 57.4043 134.28 57.3386 134.071C57.2729 133.862 57.2296 133.665 57.2087 133.48C57.1908 133.292 57.1818 133.139 57.1818 133.023V130.322H58.2749V132.651C58.2749 132.8 58.2854 132.969 58.3063 133.157C58.3272 133.343 58.375 133.522 58.4497 133.695C58.5273 133.865 58.6408 134.006 58.7901 134.116C58.9425 134.227 59.1471 134.282 59.4039 134.282C59.5413 134.282 59.6772 134.259 59.8116 134.215C59.946 134.17 60.0669 134.094 60.1745 133.986C60.285 133.876 60.3731 133.725 60.4388 133.534C60.5045 133.343 60.5373 133.101 60.5373 132.808L61.178 133.081C61.178 133.493 61.0973 133.867 60.9361 134.201C60.7778 134.536 60.5433 134.803 60.2327 135.003C59.9221 135.2 59.5398 135.299 59.0858 135.299ZM60.6673 135.16V133.659H60.5373V130.322H61.6215V135.16H60.6673ZM65.0082 135.294C64.5094 135.294 64.0838 135.184 63.7314 134.963C63.3789 134.739 63.1087 134.434 62.9205 134.049C62.7353 133.664 62.6412 133.228 62.6383 132.741C62.6412 132.245 62.7383 131.806 62.9295 131.424C63.1236 131.038 63.3984 130.737 63.7538 130.519C64.1092 130.298 64.5318 130.187 65.0216 130.187C65.5712 130.187 66.0356 130.326 66.4149 130.604C66.7972 130.879 67.0466 131.255 67.1631 131.733L66.0879 132.024C66.0042 131.764 65.8653 131.562 65.6712 131.419C65.4771 131.273 65.2561 131.2 65.0082 131.2C64.7274 131.2 64.496 131.267 64.3138 131.401C64.1316 131.533 63.9972 131.715 63.9106 131.948C63.824 132.181 63.7807 132.445 63.7807 132.741C63.7807 133.201 63.8837 133.572 64.0898 133.856C64.2959 134.14 64.602 134.282 65.0082 134.282C65.2949 134.282 65.5204 134.216 65.6847 134.085C65.8519 133.953 65.9773 133.764 66.061 133.516L67.1631 133.762C67.0137 134.255 66.7524 134.634 66.3791 134.9C66.0057 135.163 65.5488 135.294 65.0082 135.294ZM69.0092 129.627H68.1894L68.8838 127.97H69.7036L69.0092 129.627ZM68.046 135.16V130.322H69.1257V135.16H68.046ZM71.8475 135.294C71.4981 135.294 71.2024 135.229 70.9605 135.097C70.7186 134.963 70.5349 134.785 70.4094 134.564C70.287 134.343 70.2258 134.1 70.2258 133.834C70.2258 133.601 70.2646 133.392 70.3422 133.207C70.4199 133.018 70.5394 132.857 70.7006 132.723C70.8619 132.585 71.071 132.473 71.3278 132.387C71.522 132.324 71.749 132.267 72.0088 132.217C72.2716 132.166 72.5554 132.119 72.86 132.078C73.1676 132.033 73.4887 131.985 73.8232 131.934L73.4379 132.154C73.4409 131.819 73.3662 131.573 73.2139 131.415C73.0616 131.256 72.8047 131.177 72.4434 131.177C72.2253 131.177 72.0148 131.228 71.8117 131.33C71.6086 131.431 71.4667 131.606 71.3861 131.854L70.4005 131.545C70.5199 131.135 70.7469 130.807 71.0814 130.559C71.4189 130.311 71.8729 130.187 72.4434 130.187C72.8734 130.187 73.2513 130.257 73.5768 130.398C73.9053 130.538 74.1487 130.768 74.307 131.088C74.3937 131.258 74.4459 131.433 74.4638 131.612C74.4818 131.788 74.4907 131.981 74.4907 132.19V135.16H73.5454V134.112L73.7022 134.282C73.4842 134.631 73.2289 134.888 72.9362 135.052C72.6465 135.214 72.2836 135.294 71.8475 135.294ZM72.0626 134.434C72.3075 134.434 72.5165 134.391 72.6898 134.304C72.863 134.218 73.0004 134.112 73.1019 133.986C73.2065 133.861 73.2766 133.743 73.3125 133.632C73.3692 133.495 73.4006 133.338 73.4066 133.162C73.4155 132.983 73.42 132.838 73.42 132.727L73.7515 132.826C73.426 132.877 73.1467 132.921 72.9138 132.96C72.6808 132.999 72.4807 133.036 72.3134 133.072C72.1462 133.105 71.9983 133.142 71.8699 133.184C71.7445 133.229 71.6385 133.281 71.5518 133.341C71.4652 133.401 71.398 133.469 71.3502 133.547C71.3054 133.625 71.283 133.716 71.283 133.82C71.283 133.94 71.3129 134.046 71.3726 134.138C71.4324 134.228 71.519 134.3 71.6325 134.354C71.749 134.407 71.8923 134.434 72.0626 134.434ZM80.2329 135.294C79.5878 135.294 79.0352 135.154 78.5753 134.873C78.1153 134.589 77.7614 134.195 77.5135 133.69C77.2686 133.186 77.1462 132.6 77.1462 131.934C77.1462 131.268 77.2686 130.683 77.5135 130.178C77.7614 129.673 78.1153 129.281 78.5753 129C79.0352 128.716 79.5878 128.574 80.2329 128.574C80.878 128.574 81.4305 128.716 81.8905 129C82.3534 129.281 82.7073 129.673 82.9523 130.178C83.2001 130.683 83.3241 131.268 83.3241 131.934C83.3241 132.6 83.2001 133.186 82.9523 133.69C82.7073 134.195 82.3534 134.589 81.8905 134.873C81.4305 135.154 80.878 135.294 80.2329 135.294ZM80.2329 134.277C80.666 134.28 81.0259 134.185 81.3126 133.991C81.6023 133.796 81.8188 133.523 81.9622 133.171C82.1085 132.818 82.1817 132.406 82.1817 131.934C82.1817 131.462 82.1085 131.053 81.9622 130.707C81.8188 130.357 81.6023 130.086 81.3126 129.891C81.0259 129.697 80.666 129.597 80.2329 129.591C79.7998 129.588 79.4399 129.684 79.1532 129.878C78.8665 130.072 78.65 130.345 78.5036 130.698C78.3603 131.05 78.2886 131.462 78.2886 131.934C78.2886 132.406 78.3603 132.817 78.5036 133.166C78.647 133.513 78.862 133.783 79.1487 133.977C79.4384 134.171 79.7998 134.271 80.2329 134.277ZM84.2427 135.16V130.322H85.1969V131.5L85.0805 131.347C85.1402 131.186 85.2193 131.04 85.3179 130.908C85.4195 130.774 85.5404 130.663 85.6808 130.577C85.8003 130.496 85.9317 130.434 86.075 130.389C86.2214 130.341 86.3707 130.313 86.523 130.304C86.6753 130.292 86.8232 130.298 86.9665 130.322V131.33C86.8232 131.288 86.6574 131.274 86.4693 131.289C86.2841 131.304 86.1168 131.356 85.9675 131.446C85.8182 131.527 85.6957 131.63 85.6001 131.755C85.5076 131.881 85.4389 132.024 85.3941 132.185C85.3493 132.343 85.3269 132.515 85.3269 132.7V135.16H84.2427ZM90.6842 135.16C90.3646 135.22 90.051 135.245 89.7434 135.236C89.4387 135.23 89.1655 135.175 88.9235 135.07C88.6816 134.963 88.4979 134.794 88.3725 134.564C88.262 134.355 88.2037 134.141 88.1978 133.923C88.1918 133.705 88.1888 133.459 88.1888 133.184V128.978H89.264V133.122C89.264 133.316 89.2655 133.486 89.2685 133.632C89.2745 133.779 89.3058 133.898 89.3626 133.991C89.4701 134.17 89.6418 134.27 89.8778 134.291C90.1137 134.312 90.3825 134.3 90.6842 134.255V135.16ZM87.3107 131.168V130.322H90.6842V131.168H87.3107ZM91.8411 129.587V128.597H92.9207V129.587H91.8411ZM91.8411 135.16V130.322H92.9207V135.16H91.8411ZM93.8416 135.16V135.012L96.4042 131.267H94.1014V130.322H98.0842V130.474L95.5306 134.215H97.9766V135.16H93.8416Z" fill="black"/>
<rect x="25.9531" y="126.659" width="20.48" height="20.4798" rx="10.2399" fill="#00B8EC"/>
<g clip-path="url(#clip5_1653_23301)">
<path d="M206.25 131.75H201.138L198.804 130.583H195.75C195.286 130.583 194.841 130.768 194.513 131.096C194.184 131.424 194 131.869 194 132.333V143.417H208V133.5C208 133.036 207.816 132.591 207.487 132.263C207.159 131.935 206.714 131.75 206.25 131.75ZM195.75 131.75H198.529L200.862 132.917H206.25C206.405 132.917 206.553 132.978 206.662 133.088C206.772 133.197 206.833 133.345 206.833 133.5V134.014L195.167 134.08V132.333C195.167 132.179 195.228 132.03 195.338 131.921C195.447 131.812 195.595 131.75 195.75 131.75ZM195.167 142.25V135.247L206.833 135.181V142.25H195.167Z" fill="#374957"/>
</g>
</g>
<defs>
<clipPath id="clip0_1653_23301">
<rect width="243" height="132" rx="5" fill="white"/>
</clipPath>
<clipPath id="clip1_1653_23301">
<rect width="14" height="14" fill="white" transform="translate(194 44)"/>
</clipPath>
<clipPath id="clip2_1653_23301">
<rect width="11" height="11" fill="white" transform="translate(31.5 45.4983)"/>
</clipPath>
<clipPath id="clip3_1653_23301">
<rect width="14" height="14" fill="white" transform="translate(194 87)"/>
</clipPath>
<clipPath id="clip4_1653_23301">
<rect width="11" height="11" fill="white" transform="translate(30.5 88.5005)"/>
</clipPath>
<clipPath id="clip5_1653_23301">
<rect width="14" height="14" fill="white" transform="translate(194 130)"/>
</clipPath>
</defs>
</svg>
