<svg width="243" height="132" viewBox="0 0 243 132" fill="none" xmlns="http://www.w3.org/2000/svg">
<g clip-path="url(#clip0_1665_27088)">
<rect width="243" height="132" rx="5" fill="#F4F4F4"/>
<rect x="46.3472" y="8.34722" width="149.306" height="70.1389" rx="13.5417" fill="white" stroke="#D6D6D6" stroke-width="0.694444" stroke-dasharray="2.08 2.08"/>
<path d="M82.9302 30.9722L84.3426 26.4922H85.4408L86.8533 30.9722H86.0817L84.8 26.9527H84.968L83.7017 30.9722H82.9302ZM83.7173 30.0016V29.3016H86.0693V30.0016H83.7173ZM87.4344 30.9722V27.6122H88.0971V28.4305L88.0162 28.3247C88.0577 28.2127 88.1127 28.111 88.1811 28.0198C88.2516 27.9265 88.3356 27.8497 88.4331 27.7896C88.5161 27.7336 88.6073 27.69 88.7069 27.6589C88.8085 27.6257 88.9122 27.606 89.018 27.5998C89.1238 27.5915 89.2264 27.5956 89.326 27.6122V28.3122C89.2264 28.2832 89.1113 28.2739 88.9807 28.2842C88.8521 28.2946 88.7359 28.3309 88.6322 28.3931C88.5285 28.4491 88.4435 28.5207 88.3771 28.6078C88.3128 28.6949 88.2651 28.7945 88.234 28.9065C88.2029 29.0164 88.1873 29.1356 88.1873 29.2642V30.9722H87.4344ZM89.9383 30.9722V27.6122H90.601V28.4305L90.5201 28.3247C90.5616 28.2127 90.6166 28.111 90.685 28.0198C90.7555 27.9265 90.8395 27.8497 90.937 27.7896C91.02 27.7336 91.1112 27.69 91.2108 27.6589C91.3124 27.6257 91.4161 27.606 91.5219 27.5998C91.6277 27.5915 91.7303 27.5956 91.8299 27.6122V28.3122C91.7303 28.2832 91.6152 28.2739 91.4846 28.2842C91.356 28.2946 91.2398 28.3309 91.1361 28.3931C91.0324 28.4491 90.9474 28.5207 90.881 28.6078C90.8167 28.6949 90.769 28.7945 90.7379 28.9065C90.7068 29.0164 90.6912 29.1356 90.6912 29.2642V30.9722H89.9383ZM93.3028 31.0656C93.0601 31.0656 92.8548 31.0199 92.6868 30.9287C92.5188 30.8353 92.3913 30.7119 92.3041 30.5585C92.2191 30.405 92.1766 30.2359 92.1766 30.0513C92.1766 29.8896 92.2036 29.7444 92.2575 29.6158C92.3114 29.4851 92.3944 29.3731 92.5064 29.2798C92.6184 29.1844 92.7636 29.1066 92.9419 29.0465C93.0767 29.0029 93.2344 28.9635 93.4148 28.9282C93.5973 28.893 93.7944 28.8608 94.0059 28.8318C94.2196 28.8007 94.4425 28.7675 94.6748 28.7322L94.4073 28.8847C94.4093 28.6524 94.3575 28.4813 94.2517 28.3713C94.1459 28.2614 93.9676 28.2065 93.7166 28.2065C93.5652 28.2065 93.419 28.2417 93.2779 28.3122C93.1369 28.3827 93.0384 28.5041 92.9824 28.6762L92.2979 28.4616C92.3809 28.1774 92.5385 27.9493 92.7708 27.7771C93.0052 27.605 93.3204 27.5189 93.7166 27.5189C94.0153 27.5189 94.2776 27.5676 94.5037 27.6651C94.7318 27.7626 94.9009 27.9223 95.0108 28.1442C95.071 28.2625 95.1073 28.3838 95.1197 28.5082C95.1321 28.6306 95.1384 28.7644 95.1384 28.9096V30.9722H94.4819V30.2442L94.5908 30.3625C94.4394 30.6051 94.2621 30.7835 94.0588 30.8976C93.8576 31.0096 93.6056 31.0656 93.3028 31.0656ZM93.4521 30.4682C93.6222 30.4682 93.7674 30.4382 93.8877 30.378C94.008 30.3179 94.1034 30.2442 94.1739 30.1571C94.2465 30.07 94.2953 29.9881 94.3201 29.9113C94.3596 29.8159 94.3813 29.707 94.3855 29.5847C94.3917 29.4602 94.3948 29.3596 94.3948 29.2829L94.625 29.3513C94.399 29.3866 94.205 29.4177 94.0433 29.4447C93.8815 29.4716 93.7425 29.4976 93.6264 29.5225C93.5102 29.5453 93.4076 29.5712 93.3184 29.6002C93.2313 29.6313 93.1576 29.6676 93.0975 29.7091C93.0373 29.7506 92.9907 29.7983 92.9575 29.8522C92.9264 29.9062 92.9108 29.9694 92.9108 30.042C92.9108 30.125 92.9316 30.1986 92.973 30.2629C93.0145 30.3251 93.0747 30.3749 93.1535 30.4122C93.2344 30.4496 93.3339 30.4682 93.4521 30.4682ZM97.2643 31.0656C96.8495 31.0656 96.5125 30.9722 96.2532 30.7856C95.994 30.5989 95.8363 30.3365 95.7803 29.9985L96.5457 29.8802C96.5851 30.0462 96.6722 30.1768 96.807 30.2722C96.9418 30.3676 97.1119 30.4153 97.3172 30.4153C97.4977 30.4153 97.6366 30.3801 97.7341 30.3096C97.8337 30.237 97.8834 30.1385 97.8834 30.014C97.8834 29.9373 97.8648 29.8761 97.8274 29.8305C97.7922 29.7827 97.7134 29.7371 97.591 29.6936C97.4686 29.65 97.2809 29.595 97.0279 29.5287C96.7458 29.454 96.5218 29.3742 96.3559 29.2891C96.19 29.202 96.0707 29.0993 95.9981 28.9811C95.9255 28.8629 95.8892 28.7198 95.8892 28.5518C95.8892 28.3423 95.9442 28.1598 96.0541 28.0042C96.164 27.8487 96.3175 27.7294 96.5145 27.6465C96.7116 27.5614 96.9439 27.5189 97.2114 27.5189C97.4728 27.5189 97.704 27.5593 97.9052 27.6402C98.1085 27.7211 98.2723 27.8362 98.3968 27.9856C98.5212 28.1349 98.598 28.3102 98.627 28.5113L97.8617 28.6482C97.843 28.5051 97.7777 28.3921 97.6657 28.3091C97.5557 28.2262 97.4085 28.1795 97.2239 28.1691C97.0476 28.1587 96.9055 28.1857 96.7977 28.25C96.6898 28.3122 96.6359 28.4004 96.6359 28.5145C96.6359 28.5787 96.6577 28.6337 96.7012 28.6793C96.7448 28.725 96.8319 28.7706 96.9625 28.8162C97.0953 28.8619 97.2923 28.9179 97.5537 28.9842C97.8212 29.0527 98.0348 29.1315 98.1945 29.2207C98.3563 29.3078 98.4725 29.4125 98.543 29.5349C98.6156 29.6573 98.6519 29.8056 98.6519 29.9798C98.6519 30.3179 98.5285 30.5833 98.2817 30.7762C98.0369 30.9691 97.6978 31.0656 97.2643 31.0656ZM101.321 30.9722C101.099 31.0137 100.882 31.0313 100.668 31.0251C100.456 31.021 100.267 30.9826 100.099 30.91C99.9306 30.8353 99.8031 30.7182 99.716 30.5585C99.6392 30.4133 99.5988 30.265 99.5946 30.1136C99.5905 29.9622 99.5884 29.791 99.5884 29.6002V26.6789H100.335V29.5567C100.335 29.6915 100.336 29.8097 100.338 29.9113C100.342 30.013 100.364 30.0959 100.404 30.1602C100.478 30.2847 100.597 30.3542 100.761 30.3687C100.925 30.3832 101.112 30.3749 101.321 30.3438V30.9722ZM98.9786 28.2002V27.6122H101.321V28.2002H98.9786ZM102.062 30.9722V27.6122H102.725V28.4305L102.644 28.3247C102.686 28.2127 102.741 28.111 102.809 28.0198C102.88 27.9265 102.964 27.8497 103.061 27.7896C103.144 27.7336 103.235 27.69 103.335 27.6589C103.437 27.6257 103.54 27.606 103.646 27.5998C103.752 27.5915 103.854 27.5956 103.954 27.6122V28.3122C103.854 28.2832 103.739 28.2739 103.609 28.2842C103.48 28.2946 103.364 28.3309 103.26 28.3931C103.157 28.4491 103.072 28.5207 103.005 28.6078C102.941 28.6949 102.893 28.7945 102.862 28.9065C102.831 29.0164 102.815 29.1356 102.815 29.2642V30.9722H102.062ZM105.427 31.0656C105.184 31.0656 104.979 31.0199 104.811 30.9287C104.643 30.8353 104.515 30.7119 104.428 30.5585C104.343 30.405 104.301 30.2359 104.301 30.0513C104.301 29.8896 104.328 29.7444 104.382 29.6158C104.436 29.4851 104.519 29.3731 104.631 29.2798C104.743 29.1844 104.888 29.1066 105.066 29.0465C105.201 29.0029 105.359 28.9635 105.539 28.9282C105.721 28.893 105.919 28.8608 106.13 28.8318C106.344 28.8007 106.567 28.7675 106.799 28.7322L106.531 28.8847C106.533 28.6524 106.482 28.4813 106.376 28.3713C106.27 28.2614 106.092 28.2065 105.841 28.2065C105.689 28.2065 105.543 28.2417 105.402 28.3122C105.261 28.3827 105.163 28.5041 105.107 28.6762L104.422 28.4616C104.505 28.1774 104.663 27.9493 104.895 27.7771C105.129 27.605 105.445 27.5189 105.841 27.5189C106.139 27.5189 106.402 27.5676 106.628 27.6651C106.856 27.7626 107.025 27.9223 107.135 28.1442C107.195 28.2625 107.231 28.3838 107.244 28.5082C107.256 28.6306 107.263 28.7644 107.263 28.9096V30.9722H106.606V30.2442L106.715 30.3625C106.564 30.6051 106.386 30.7835 106.183 30.8976C105.982 31.0096 105.73 31.0656 105.427 31.0656ZM105.576 30.4682C105.746 30.4682 105.892 30.4382 106.012 30.378C106.132 30.3179 106.228 30.2442 106.298 30.1571C106.371 30.07 106.419 29.9881 106.444 29.9113C106.484 29.8159 106.505 29.707 106.51 29.5847C106.516 29.4602 106.519 29.3596 106.519 29.2829L106.749 29.3513C106.523 29.3866 106.329 29.4177 106.167 29.4447C106.006 29.4716 105.867 29.4976 105.751 29.5225C105.634 29.5453 105.532 29.5712 105.443 29.6002C105.355 29.6313 105.282 29.6676 105.222 29.7091C105.161 29.7506 105.115 29.7983 105.082 29.8522C105.051 29.9062 105.035 29.9694 105.035 30.042C105.035 30.125 105.056 30.1986 105.097 30.2629C105.139 30.3251 105.199 30.3749 105.278 30.4122C105.359 30.4496 105.458 30.4682 105.576 30.4682ZM109.797 32.4656L110.444 30.6891L110.457 31.2118L108.991 27.6122H109.772L110.811 30.2753H110.612L111.623 27.6122H112.373L110.5 32.4656H109.797ZM115.418 31.0656C115.003 31.0656 114.666 30.9722 114.406 30.7856C114.147 30.5989 113.99 30.3365 113.934 29.9985L114.699 29.8802C114.738 30.0462 114.825 30.1768 114.96 30.2722C115.095 30.3676 115.265 30.4153 115.47 30.4153C115.651 30.4153 115.79 30.3801 115.887 30.3096C115.987 30.237 116.037 30.1385 116.037 30.014C116.037 29.9373 116.018 29.8761 115.981 29.8305C115.945 29.7827 115.867 29.7371 115.744 29.6936C115.622 29.65 115.434 29.595 115.181 29.5287C114.899 29.454 114.675 29.3742 114.509 29.2891C114.343 29.202 114.224 29.0993 114.151 28.9811C114.079 28.8629 114.042 28.7198 114.042 28.5518C114.042 28.3423 114.097 28.1598 114.207 28.0042C114.317 27.8487 114.471 27.7294 114.668 27.6465C114.865 27.5614 115.097 27.5189 115.365 27.5189C115.626 27.5189 115.857 27.5593 116.058 27.6402C116.262 27.7211 116.426 27.8362 116.55 27.9856C116.674 28.1349 116.751 28.3102 116.78 28.5113L116.015 28.6482C115.996 28.5051 115.931 28.3921 115.819 28.3091C115.709 28.2262 115.562 28.1795 115.377 28.1691C115.201 28.1587 115.059 28.1857 114.951 28.25C114.843 28.3122 114.789 28.4004 114.789 28.5145C114.789 28.5787 114.811 28.6337 114.854 28.6793C114.898 28.725 114.985 28.7706 115.116 28.8162C115.249 28.8619 115.446 28.9179 115.707 28.9842C115.974 29.0527 116.188 29.1315 116.348 29.2207C116.51 29.3078 116.626 29.4125 116.696 29.5349C116.769 29.6573 116.805 29.8056 116.805 29.9798C116.805 30.3179 116.682 30.5833 116.435 30.7762C116.19 30.9691 115.851 31.0656 115.418 31.0656ZM118.765 31.0687C118.516 31.0687 118.311 31.0272 118.149 30.9442C117.987 30.8613 117.859 30.7555 117.763 30.6269C117.668 30.4983 117.598 30.3614 117.552 30.2162C117.506 30.071 117.476 29.9342 117.462 29.8056C117.449 29.6749 117.443 29.5691 117.443 29.4882V27.6122H118.202V29.23C118.202 29.3337 118.209 29.4509 118.224 29.5816C118.238 29.7102 118.272 29.8346 118.323 29.9549C118.377 30.0731 118.456 30.1706 118.56 30.2473C118.666 30.3241 118.808 30.3625 118.986 30.3625C119.082 30.3625 119.176 30.3469 119.269 30.3158C119.363 30.2847 119.447 30.2318 119.521 30.1571C119.598 30.0804 119.659 29.9756 119.705 29.8429C119.75 29.7102 119.773 29.5422 119.773 29.3389L120.218 29.5287C120.218 29.8149 120.162 30.0742 120.05 30.3065C119.94 30.5387 119.777 30.7244 119.562 30.8633C119.346 31.0002 119.08 31.0687 118.765 31.0687ZM119.863 30.9722V29.93H119.773V27.6122H120.526V30.9722H119.863ZM122.946 31.0656C122.606 31.0656 122.308 30.9919 122.05 30.8447C121.793 30.6974 121.592 30.4931 121.447 30.2318C121.304 29.9705 121.232 29.6697 121.232 29.3296C121.232 28.9625 121.303 28.6441 121.444 28.3745C121.585 28.1027 121.781 27.8922 122.032 27.7429C122.283 27.5936 122.573 27.5189 122.903 27.5189C123.251 27.5189 123.547 27.6008 123.79 27.7647C124.034 27.9265 124.216 28.1556 124.334 28.4522C124.452 28.7488 124.497 29.0983 124.468 29.5007H123.724V29.2269C123.722 28.8619 123.658 28.5953 123.531 28.4273C123.405 28.2593 123.206 28.1753 122.934 28.1753C122.627 28.1753 122.399 28.2707 122.25 28.4616C122.1 28.6503 122.026 28.9272 122.026 29.2922C122.026 29.6324 122.1 29.8958 122.25 30.0825C122.399 30.2691 122.617 30.3625 122.903 30.3625C123.087 30.3625 123.246 30.322 123.379 30.2411C123.514 30.1582 123.617 30.0389 123.69 29.8833L124.43 30.1073C124.302 30.4102 124.103 30.6456 123.833 30.8136C123.566 30.9816 123.27 31.0656 122.946 31.0656ZM121.789 29.5007V28.9345H124.101V29.5007H121.789ZM125.243 30.9722V26.3989H125.993V30.9722H125.243ZM128.912 30.9722C128.691 31.0137 128.473 31.0313 128.259 31.0251C128.048 31.021 127.858 30.9826 127.69 30.91C127.522 30.8353 127.394 30.7182 127.307 30.5585C127.23 30.4133 127.19 30.265 127.186 30.1136C127.182 29.9622 127.18 29.791 127.18 29.6002V26.6789H127.926V29.5567C127.926 29.6915 127.927 29.8097 127.929 29.9113C127.934 30.013 127.955 30.0959 127.995 30.1602C128.069 30.2847 128.189 30.3542 128.352 30.3687C128.516 30.3832 128.703 30.3749 128.912 30.3438V30.9722ZM126.57 28.2002V27.6122H128.912V28.2002H126.57ZM130.593 31.0656C130.351 31.0656 130.145 31.0199 129.977 30.9287C129.809 30.8353 129.682 30.7119 129.595 30.5585C129.51 30.405 129.467 30.2359 129.467 30.0513C129.467 29.8896 129.494 29.7444 129.548 29.6158C129.602 29.4851 129.685 29.3731 129.797 29.2798C129.909 29.1844 130.054 29.1066 130.232 29.0465C130.367 29.0029 130.525 28.9635 130.705 28.9282C130.888 28.893 131.085 28.8608 131.296 28.8318C131.51 28.8007 131.733 28.7675 131.965 28.7322L131.698 28.8847C131.7 28.6524 131.648 28.4813 131.542 28.3713C131.436 28.2614 131.258 28.2065 131.007 28.2065C130.856 28.2065 130.709 28.2417 130.568 28.3122C130.427 28.3827 130.329 28.5041 130.273 28.6762L129.588 28.4616C129.671 28.1774 129.829 27.9493 130.061 27.7771C130.296 27.605 130.611 27.5189 131.007 27.5189C131.306 27.5189 131.568 27.5676 131.794 27.6651C132.022 27.7626 132.191 27.9223 132.301 28.1442C132.361 28.2625 132.398 28.3838 132.41 28.5082C132.423 28.6306 132.429 28.7644 132.429 28.9096V30.9722H131.772V30.2442L131.881 30.3625C131.73 30.6051 131.552 30.7835 131.349 30.8976C131.148 31.0096 130.896 31.0656 130.593 31.0656ZM130.743 30.4682C130.913 30.4682 131.058 30.4382 131.178 30.378C131.298 30.3179 131.394 30.2442 131.464 30.1571C131.537 30.07 131.586 29.9881 131.611 29.9113C131.65 29.8159 131.672 29.707 131.676 29.5847C131.682 29.4602 131.685 29.3596 131.685 29.2829L131.915 29.3513C131.689 29.3866 131.495 29.4177 131.334 29.4447C131.172 29.4716 131.033 29.4976 130.917 29.5225C130.801 29.5453 130.698 29.5712 130.609 29.6002C130.522 29.6313 130.448 29.6676 130.388 29.7091C130.328 29.7506 130.281 29.7983 130.248 29.8522C130.217 29.9062 130.201 29.9694 130.201 30.042C130.201 30.125 130.222 30.1986 130.263 30.2629C130.305 30.3251 130.365 30.3749 130.444 30.4122C130.525 30.4496 130.624 30.4682 130.743 30.4682ZM135.461 31.0656C135.219 31.0656 135.013 31.0199 134.845 30.9287C134.677 30.8353 134.55 30.7119 134.463 30.5585C134.378 30.405 134.335 30.2359 134.335 30.0513C134.335 29.8896 134.362 29.7444 134.416 29.6158C134.47 29.4851 134.553 29.3731 134.665 29.2798C134.777 29.1844 134.922 29.1066 135.1 29.0465C135.235 29.0029 135.393 28.9635 135.573 28.9282C135.756 28.893 135.953 28.8608 136.164 28.8318C136.378 28.8007 136.601 28.7675 136.833 28.7322L136.566 28.8847C136.568 28.6524 136.516 28.4813 136.41 28.3713C136.304 28.2614 136.126 28.2065 135.875 28.2065C135.724 28.2065 135.577 28.2417 135.436 28.3122C135.295 28.3827 135.197 28.5041 135.141 28.6762L134.456 28.4616C134.539 28.1774 134.697 27.9493 134.929 27.7771C135.164 27.605 135.479 27.5189 135.875 27.5189C136.174 27.5189 136.436 27.5676 136.662 27.6651C136.89 27.7626 137.059 27.9223 137.169 28.1442C137.229 28.2625 137.266 28.3838 137.278 28.5082C137.291 28.6306 137.297 28.7644 137.297 28.9096V30.9722H136.64V30.2442L136.749 30.3625C136.598 30.6051 136.421 30.7835 136.217 30.8976C136.016 31.0096 135.764 31.0656 135.461 31.0656ZM135.611 30.4682C135.781 30.4682 135.926 30.4382 136.046 30.378C136.166 30.3179 136.262 30.2442 136.332 30.1571C136.405 30.07 136.454 29.9881 136.479 29.9113C136.518 29.8159 136.54 29.707 136.544 29.5847C136.55 29.4602 136.553 29.3596 136.553 29.2829L136.784 29.3513C136.557 29.3866 136.364 29.4177 136.202 29.4447C136.04 29.4716 135.901 29.4976 135.785 29.5225C135.669 29.5453 135.566 29.5712 135.477 29.6002C135.39 29.6313 135.316 29.6676 135.256 29.7091C135.196 29.7506 135.149 29.7983 135.116 29.8522C135.085 29.9062 135.069 29.9694 135.069 30.042C135.069 30.125 135.09 30.1986 135.132 30.2629C135.173 30.3251 135.233 30.3749 135.312 30.4122C135.393 30.4496 135.492 30.4682 135.611 30.4682ZM139.473 31.0656C139.164 31.0656 138.894 30.9878 138.664 30.8322C138.433 30.6767 138.255 30.4651 138.129 30.1976C138.002 29.93 137.939 29.6282 137.939 29.2922C137.939 28.9521 138.002 28.6493 138.129 28.3838C138.257 28.1162 138.439 27.9057 138.673 27.7522C138.907 27.5967 139.183 27.5189 139.501 27.5189C139.82 27.5189 140.088 27.5967 140.303 27.7522C140.521 27.9057 140.686 28.1162 140.798 28.3838C140.91 28.6513 140.966 28.9542 140.966 29.2922C140.966 29.6262 140.91 29.9279 140.798 30.1976C140.686 30.4651 140.519 30.6767 140.297 30.8322C140.075 30.9878 139.8 31.0656 139.473 31.0656ZM139.588 30.3936C139.789 30.3936 139.951 30.3479 140.073 30.2567C140.197 30.1633 140.288 30.0337 140.344 29.8678C140.402 29.7019 140.431 29.51 140.431 29.2922C140.431 29.0724 140.402 28.8805 140.344 28.7167C140.288 28.5507 140.2 28.4222 140.079 28.3309C139.959 28.2376 139.803 28.1909 139.613 28.1909C139.411 28.1909 139.245 28.2407 139.115 28.3402C138.984 28.4377 138.888 28.5705 138.825 28.7385C138.763 28.9044 138.732 29.089 138.732 29.2922C138.732 29.4976 138.762 29.6842 138.822 29.8522C138.885 30.0182 138.979 30.1499 139.105 30.2473C139.232 30.3448 139.393 30.3936 139.588 30.3936ZM140.337 32.4656V29.9705H140.431V27.6122H141.093V32.4656H140.337ZM143.244 31.0687C142.996 31.0687 142.79 31.0272 142.628 30.9442C142.467 30.8613 142.338 30.7555 142.243 30.6269C142.147 30.4983 142.077 30.3614 142.031 30.2162C141.985 30.071 141.955 29.9342 141.941 29.8056C141.928 29.6749 141.922 29.5691 141.922 29.4882V27.6122H142.681V29.23C142.681 29.3337 142.689 29.4509 142.703 29.5816C142.718 29.7102 142.751 29.8346 142.803 29.9549C142.857 30.0731 142.935 30.1706 143.039 30.2473C143.145 30.3241 143.287 30.3625 143.465 30.3625C143.561 30.3625 143.655 30.3469 143.748 30.3158C143.842 30.2847 143.926 30.2318 144 30.1571C144.077 30.0804 144.138 29.9756 144.184 29.8429C144.23 29.7102 144.252 29.5422 144.252 29.3389L144.697 29.5287C144.697 29.8149 144.641 30.0742 144.529 30.3065C144.419 30.5387 144.257 30.7244 144.041 30.8633C143.825 31.0002 143.56 31.0687 143.244 31.0687ZM144.343 30.9722V29.93H144.252V27.6122H145.005V30.9722H144.343ZM146.629 27.13H146.06L146.542 25.9789H147.111L146.629 27.13ZM145.96 30.9722V27.6122H146.71V30.9722H145.96ZM150.894 30.9722C150.672 31.0137 150.455 31.0313 150.241 31.0251C150.029 31.021 149.84 30.9826 149.672 30.91C149.504 30.8353 149.376 30.7182 149.289 30.5585C149.212 30.4133 149.172 30.265 149.168 30.1136C149.163 29.9622 149.161 29.791 149.161 29.6002V26.6789H149.908V29.5567C149.908 29.6915 149.909 29.8097 149.911 29.9113C149.915 30.013 149.937 30.0959 149.977 30.1602C150.051 30.2847 150.17 30.3542 150.334 30.3687C150.498 30.3832 150.685 30.3749 150.894 30.3438V30.9722ZM148.552 28.2002V27.6122H150.894V28.2002H148.552ZM152.895 31.0687C152.647 31.0687 152.441 31.0272 152.279 30.9442C152.118 30.8613 151.989 30.7555 151.894 30.6269C151.798 30.4983 151.728 30.3614 151.682 30.2162C151.636 30.071 151.606 29.9342 151.592 29.8056C151.579 29.6749 151.573 29.5691 151.573 29.4882V27.6122H152.332V29.23C152.332 29.3337 152.34 29.4509 152.354 29.5816C152.369 29.7102 152.402 29.8346 152.454 29.9549C152.508 30.0731 152.586 30.1706 152.69 30.2473C152.796 30.3241 152.938 30.3625 153.116 30.3625C153.212 30.3625 153.306 30.3469 153.399 30.3158C153.493 30.2847 153.577 30.2318 153.651 30.1571C153.728 30.0804 153.789 29.9756 153.835 29.8429C153.881 29.7102 153.903 29.5422 153.903 29.3389L154.348 29.5287C154.348 29.8149 154.292 30.0742 154.18 30.3065C154.07 30.5387 153.908 30.7244 153.692 30.8633C153.476 31.0002 153.211 31.0687 152.895 31.0687ZM153.994 30.9722V29.93H153.903V27.6122H154.656V30.9722H153.994ZM156.846 31.0656C156.432 31.0656 156.095 30.9722 155.835 30.7856C155.576 30.5989 155.418 30.3365 155.362 29.9985L156.128 29.8802C156.167 30.0462 156.254 30.1768 156.389 30.2722C156.524 30.3676 156.694 30.4153 156.899 30.4153C157.08 30.4153 157.219 30.3801 157.316 30.3096C157.416 30.237 157.466 30.1385 157.466 30.014C157.466 29.9373 157.447 29.8761 157.41 29.8305C157.374 29.7827 157.295 29.7371 157.173 29.6936C157.051 29.65 156.863 29.595 156.61 29.5287C156.328 29.454 156.104 29.3742 155.938 29.2891C155.772 29.202 155.653 29.0993 155.58 28.9811C155.508 28.8629 155.471 28.7198 155.471 28.5518C155.471 28.3423 155.526 28.1598 155.636 28.0042C155.746 27.8487 155.9 27.7294 156.097 27.6465C156.294 27.5614 156.526 27.5189 156.794 27.5189C157.055 27.5189 157.286 27.5593 157.487 27.6402C157.691 27.7211 157.854 27.8362 157.979 27.9856C158.103 28.1349 158.18 28.3102 158.209 28.5113L157.444 28.6482C157.425 28.5051 157.36 28.3921 157.248 28.3091C157.138 28.2262 156.991 28.1795 156.806 28.1691C156.63 28.1587 156.488 28.1857 156.38 28.25C156.272 28.3122 156.218 28.4004 156.218 28.5145C156.218 28.5787 156.24 28.6337 156.283 28.6793C156.327 28.725 156.414 28.7706 156.545 28.8162C156.677 28.8619 156.874 28.9179 157.136 28.9842C157.403 29.0527 157.617 29.1315 157.777 29.2207C157.938 29.3078 158.055 29.4125 158.125 29.5349C158.198 29.6573 158.234 29.8056 158.234 29.9798C158.234 30.3179 158.111 30.5833 157.864 30.7762C157.619 30.9691 157.28 31.0656 156.846 31.0656ZM103.399 40.0656C103.089 40.0656 102.82 39.9878 102.59 39.8322C102.359 39.6767 102.181 39.4651 102.055 39.1976C101.928 38.93 101.865 38.6282 101.865 38.2922C101.865 37.9521 101.928 37.6493 102.055 37.3838C102.183 37.1162 102.365 36.9057 102.599 36.7522C102.833 36.5967 103.109 36.5189 103.427 36.5189C103.746 36.5189 104.013 36.5967 104.229 36.7522C104.447 36.9057 104.612 37.1162 104.724 37.3838C104.836 37.6513 104.892 37.9542 104.892 38.2922C104.892 38.6262 104.836 38.9279 104.724 39.1976C104.612 39.4651 104.445 39.6767 104.223 39.8322C104.001 39.9878 103.726 40.0656 103.399 40.0656ZM103.514 39.3936C103.715 39.3936 103.877 39.3479 103.999 39.2567C104.123 39.1633 104.214 39.0337 104.27 38.8678C104.328 38.7019 104.357 38.51 104.357 38.2922C104.357 38.0724 104.328 37.8805 104.27 37.7167C104.214 37.5507 104.125 37.4222 104.005 37.3309C103.885 37.2376 103.729 37.1909 103.539 37.1909C103.337 37.1909 103.171 37.2407 103.041 37.3402C102.91 37.4377 102.814 37.5705 102.751 37.7385C102.689 37.9044 102.658 38.089 102.658 38.2922C102.658 38.4976 102.688 38.6842 102.748 38.8522C102.811 39.0182 102.905 39.1499 103.031 39.2473C103.158 39.3448 103.319 39.3936 103.514 39.3936ZM104.357 39.9722V37.614H104.263V35.4922H105.019V39.9722H104.357ZM107.394 40.0656C107.058 40.0656 106.765 39.9899 106.514 39.8385C106.263 39.687 106.068 39.4786 105.929 39.2131C105.792 38.9456 105.724 38.6386 105.724 38.2922C105.724 37.9396 105.794 37.6306 105.935 37.3651C106.076 37.0996 106.272 36.8922 106.523 36.7429C106.774 36.5936 107.065 36.5189 107.394 36.5189C107.732 36.5189 108.027 36.5946 108.278 36.746C108.529 36.8974 108.724 37.1069 108.863 37.3745C109.002 37.6399 109.071 37.9459 109.071 38.2922C109.071 38.6407 109.001 38.9487 108.86 39.2162C108.721 39.4817 108.526 39.6902 108.275 39.8416C108.024 39.9909 107.73 40.0656 107.394 40.0656ZM107.394 39.3625C107.693 39.3625 107.915 39.2629 108.06 39.0638C108.205 38.8647 108.278 38.6075 108.278 38.2922C108.278 37.9666 108.204 37.7073 108.057 37.5145C107.91 37.3195 107.689 37.222 107.394 37.222C107.193 37.222 107.027 37.2676 106.897 37.3589C106.768 37.4481 106.673 37.5736 106.61 37.7353C106.548 37.895 106.517 38.0807 106.517 38.2922C106.517 38.6179 106.591 38.8782 106.738 39.0731C106.887 39.266 107.106 39.3625 107.394 39.3625ZM111.235 40.0656C110.888 40.0656 110.593 39.9888 110.348 39.8353C110.103 39.6798 109.915 39.4682 109.785 39.2007C109.656 38.9331 109.591 38.6303 109.589 38.2922C109.591 37.9479 109.658 37.643 109.791 37.3776C109.926 37.11 110.117 36.9005 110.363 36.7491C110.61 36.5956 110.904 36.5189 111.244 36.5189C111.625 36.5189 111.948 36.6153 112.211 36.8082C112.477 36.999 112.65 37.2604 112.731 37.5922L111.984 37.7945C111.926 37.614 111.83 37.474 111.695 37.3745C111.56 37.2728 111.407 37.222 111.235 37.222C111.04 37.222 110.879 37.2687 110.752 37.362C110.626 37.4533 110.532 37.5798 110.472 37.7416C110.412 37.9033 110.382 38.0869 110.382 38.2922C110.382 38.6116 110.454 38.8699 110.597 39.0669C110.74 39.2639 110.952 39.3625 111.235 39.3625C111.434 39.3625 111.59 39.3168 111.704 39.2256C111.82 39.1343 111.908 39.0026 111.966 38.8305L112.731 39.0016C112.627 39.3438 112.446 39.6072 112.187 39.7918C111.927 39.9743 111.61 40.0656 111.235 40.0656ZM114.633 40.0687C114.384 40.0687 114.179 40.0272 114.017 39.9442C113.855 39.8613 113.727 39.7555 113.631 39.6269C113.536 39.4983 113.465 39.3614 113.42 39.2162C113.374 39.071 113.344 38.9342 113.329 38.8056C113.317 38.6749 113.311 38.5691 113.311 38.4882V36.6122H114.07V38.23C114.07 38.3337 114.077 38.4509 114.092 38.5816C114.106 38.7102 114.139 38.8346 114.191 38.9549C114.245 39.0731 114.324 39.1706 114.428 39.2473C114.533 39.3241 114.676 39.3625 114.854 39.3625C114.949 39.3625 115.044 39.3469 115.137 39.3158C115.23 39.2847 115.314 39.2318 115.389 39.1571C115.466 39.0804 115.527 38.9756 115.573 38.8429C115.618 38.7102 115.641 38.5422 115.641 38.3389L116.086 38.5287C116.086 38.8149 116.03 39.0742 115.918 39.3065C115.808 39.5387 115.645 39.7244 115.429 39.8633C115.214 40.0002 114.948 40.0687 114.633 40.0687ZM115.731 39.9722V38.93H115.641V36.6122H116.394V39.9722H115.731ZM121.322 39.9722V37.9313C121.322 37.7011 121.265 37.5217 121.151 37.3931C121.037 37.2625 120.882 37.1971 120.687 37.1971C120.567 37.1971 120.459 37.2251 120.364 37.2811C120.268 37.335 120.192 37.4159 120.136 37.5238C120.08 37.6296 120.052 37.7561 120.052 37.9033L119.72 37.7073C119.717 37.475 119.769 37.2707 119.875 37.0945C119.983 36.9161 120.128 36.7771 120.311 36.6776C120.493 36.578 120.696 36.5282 120.92 36.5282C121.292 36.5282 121.576 36.6402 121.773 36.8642C121.972 37.0862 122.072 37.3786 122.072 37.7416V39.9722H121.322ZM117.28 39.9722V36.6122H117.943V37.6545H118.036V39.9722H117.28ZM119.306 39.9722V37.9407C119.306 37.7063 119.249 37.5238 119.135 37.3931C119.021 37.2625 118.865 37.1971 118.668 37.1971C118.477 37.1971 118.324 37.2625 118.208 37.3931C118.093 37.5238 118.036 37.6939 118.036 37.9033L117.7 37.6793C117.7 37.4616 117.754 37.2656 117.862 37.0913C117.97 36.9171 118.115 36.7802 118.298 36.6807C118.482 36.579 118.689 36.5282 118.917 36.5282C119.168 36.5282 119.377 36.5822 119.545 36.69C119.715 36.7958 119.842 36.941 119.925 37.1256C120.01 37.3081 120.052 37.5145 120.052 37.7447V39.9722H119.306ZM124.375 40.0656C124.034 40.0656 123.736 39.9919 123.479 39.8447C123.221 39.6974 123.02 39.4931 122.875 39.2318C122.732 38.9705 122.66 38.6697 122.66 38.3296C122.66 37.9625 122.731 37.6441 122.872 37.3745C123.013 37.1027 123.209 36.8922 123.46 36.7429C123.711 36.5936 124.001 36.5189 124.331 36.5189C124.679 36.5189 124.975 36.6008 125.218 36.7647C125.462 36.9265 125.644 37.1556 125.762 37.4522C125.88 37.7488 125.925 38.0983 125.896 38.5007H125.152V38.2269C125.15 37.8619 125.086 37.5953 124.959 37.4273C124.833 37.2593 124.634 37.1753 124.362 37.1753C124.055 37.1753 123.827 37.2707 123.678 37.4616C123.528 37.6503 123.454 37.9272 123.454 38.2922C123.454 38.6324 123.528 38.8958 123.678 39.0825C123.827 39.2691 124.045 39.3625 124.331 39.3625C124.516 39.3625 124.674 39.322 124.807 39.2411C124.942 39.1582 125.046 39.0389 125.118 38.8833L125.859 39.1073C125.73 39.4102 125.531 39.6456 125.261 39.8136C124.994 39.9816 124.698 40.0656 124.375 40.0656ZM123.217 38.5007V37.9345H125.529V38.5007H123.217ZM128.842 39.9722V38.3545C128.842 38.2487 128.834 38.1315 128.82 38.0029C128.805 37.8743 128.771 37.7509 128.717 37.6327C128.665 37.5124 128.586 37.4139 128.481 37.3371C128.377 37.2604 128.236 37.222 128.058 37.222C127.962 37.222 127.868 37.2376 127.774 37.2687C127.681 37.2998 127.596 37.3537 127.519 37.4305C127.445 37.5051 127.385 37.6088 127.339 37.7416C127.293 37.8722 127.27 38.0402 127.27 38.2456L126.826 38.0558C126.826 37.7696 126.881 37.5103 126.99 37.278C127.102 37.0457 127.266 36.8611 127.482 36.7242C127.698 36.5853 127.963 36.5158 128.278 36.5158C128.527 36.5158 128.733 36.5573 128.894 36.6402C129.056 36.7232 129.185 36.829 129.28 36.9576C129.376 37.0862 129.446 37.223 129.492 37.3682C129.537 37.5134 129.566 37.6513 129.579 37.782C129.593 37.9106 129.601 38.0153 129.601 38.0962V39.9722H128.842ZM126.511 39.9722V36.6122H127.18V37.6545H127.27V39.9722H126.511ZM132.401 39.9722C132.179 40.0137 131.961 40.0313 131.747 40.0251C131.536 40.021 131.346 39.9826 131.178 39.91C131.01 39.8353 130.882 39.7182 130.795 39.5585C130.718 39.4133 130.678 39.265 130.674 39.1136C130.67 38.9622 130.668 38.791 130.668 38.6002V35.6789H131.414V38.5567C131.414 38.6915 131.415 38.8097 131.417 38.9113C131.422 39.013 131.443 39.0959 131.483 39.1602C131.557 39.2847 131.677 39.3542 131.841 39.3687C132.004 39.3832 132.191 39.3749 132.401 39.3438V39.9722ZM130.058 37.2002V36.6122H132.401V37.2002H130.058ZM134.456 40.0656C134.12 40.0656 133.826 39.9899 133.575 39.8385C133.324 39.687 133.129 39.4786 132.99 39.2131C132.853 38.9456 132.785 38.6386 132.785 38.2922C132.785 37.9396 132.855 37.6306 132.996 37.3651C133.138 37.0996 133.334 36.8922 133.584 36.7429C133.835 36.5936 134.126 36.5189 134.456 36.5189C134.794 36.5189 135.088 36.5946 135.339 36.746C135.59 36.8974 135.785 37.1069 135.924 37.3745C136.063 37.6399 136.132 37.9459 136.132 38.2922C136.132 38.6407 136.062 38.9487 135.921 39.2162C135.782 39.4817 135.587 39.6902 135.336 39.8416C135.085 39.9909 134.792 40.0656 134.456 40.0656ZM134.456 39.3625C134.754 39.3625 134.976 39.2629 135.121 39.0638C135.267 38.8647 135.339 38.6075 135.339 38.2922C135.339 37.9666 135.266 37.7073 135.118 37.5145C134.971 37.3195 134.75 37.222 134.456 37.222C134.254 37.222 134.088 37.2676 133.958 37.3589C133.829 37.4481 133.734 37.5736 133.672 37.7353C133.609 37.895 133.578 38.0807 133.578 38.2922C133.578 38.6179 133.652 38.8782 133.799 39.0731C133.948 39.266 134.167 39.3625 134.456 39.3625ZM138.055 40.0656C137.64 40.0656 137.303 39.9722 137.044 39.7856C136.785 39.5989 136.627 39.3365 136.571 38.9985L137.336 38.8802C137.376 39.0462 137.463 39.1768 137.598 39.2722C137.732 39.3676 137.903 39.4153 138.108 39.4153C138.288 39.4153 138.427 39.3801 138.525 39.3096C138.624 39.237 138.674 39.1385 138.674 39.014C138.674 38.9373 138.655 38.8761 138.618 38.8305C138.583 38.7827 138.504 38.7371 138.382 38.6936C138.259 38.65 138.072 38.595 137.819 38.5287C137.536 38.454 137.312 38.3742 137.147 38.2891C136.981 38.202 136.861 38.0993 136.789 37.9811C136.716 37.8629 136.68 37.7198 136.68 37.5518C136.68 37.3423 136.735 37.1598 136.845 37.0042C136.955 36.8487 137.108 36.7294 137.305 36.6465C137.502 36.5614 137.735 36.5189 138.002 36.5189C138.263 36.5189 138.495 36.5593 138.696 36.6402C138.899 36.7211 139.063 36.8362 139.187 36.9856C139.312 37.1349 139.389 37.3102 139.418 37.5113L138.652 37.6482C138.634 37.5051 138.568 37.3921 138.456 37.3091C138.346 37.2262 138.199 37.1795 138.015 37.1691C137.838 37.1587 137.696 37.1857 137.588 37.25C137.48 37.3122 137.427 37.4004 137.427 37.5145C137.427 37.5787 137.448 37.6337 137.492 37.6793C137.535 37.725 137.623 37.7706 137.753 37.8162C137.886 37.8619 138.083 37.9179 138.344 37.9842C138.612 38.0527 138.825 38.1315 138.985 38.2207C139.147 38.3078 139.263 38.4125 139.334 38.5349C139.406 38.6573 139.443 38.8056 139.443 38.9798C139.443 39.3179 139.319 39.5833 139.072 39.7762C138.828 39.9691 138.488 40.0656 138.055 40.0656Z" fill="#424E4F"/>
<rect x="91.834" y="51.0555" width="58.3333" height="18.0556" rx="2.08333" fill="#424E4F"/>
<path d="M105.764 62.1666C105.48 62.1666 105.225 62.1185 104.997 62.0222C104.771 61.9259 104.584 61.7889 104.436 61.6111C104.289 61.4315 104.194 61.2194 104.15 60.975L104.661 60.8944C104.726 61.1463 104.86 61.3435 105.064 61.4861C105.269 61.6268 105.511 61.6972 105.789 61.6972C105.968 61.6972 106.13 61.6694 106.275 61.6139C106.421 61.5565 106.537 61.475 106.622 61.3694C106.707 61.2639 106.75 61.1389 106.75 60.9944C106.75 60.9055 106.734 60.8296 106.702 60.7666C106.673 60.7018 106.631 60.6472 106.577 60.6028C106.526 60.5565 106.466 60.5176 106.4 60.4861C106.333 60.4546 106.264 60.4287 106.191 60.4083L105.172 60.1055C105.061 60.0722 104.953 60.0305 104.85 59.9805C104.746 59.9287 104.653 59.8648 104.572 59.7889C104.49 59.7111 104.426 59.6185 104.377 59.5111C104.329 59.4018 104.305 59.2731 104.305 59.125C104.305 58.8879 104.366 58.6861 104.489 58.5194C104.613 58.3509 104.78 58.2222 104.991 58.1333C105.202 58.0444 105.44 58.0009 105.705 58.0028C105.974 58.0046 106.214 58.0528 106.425 58.1472C106.638 58.2398 106.814 58.3731 106.952 58.5472C107.093 58.7213 107.188 58.9296 107.236 59.1722L106.711 59.2639C106.683 59.1009 106.621 58.9611 106.525 58.8444C106.43 58.7259 106.312 58.6352 106.169 58.5722C106.027 58.5074 105.87 58.4741 105.7 58.4722C105.537 58.4703 105.389 58.4963 105.258 58.55C105.127 58.6037 105.022 58.6787 104.944 58.775C104.866 58.8694 104.827 58.9787 104.827 59.1028C104.827 59.225 104.863 59.3241 104.933 59.4C105.003 59.4741 105.089 59.5333 105.191 59.5778C105.295 59.6203 105.396 59.6555 105.494 59.6833L106.255 59.9028C106.342 59.9268 106.442 59.9602 106.555 60.0028C106.67 60.0454 106.781 60.1055 106.889 60.1833C106.996 60.2592 107.085 60.3611 107.155 60.4889C107.226 60.6148 107.261 60.7741 107.261 60.9666C107.261 61.1592 107.222 61.3305 107.144 61.4805C107.068 61.6305 106.962 61.7565 106.825 61.8583C106.688 61.9583 106.528 62.0342 106.347 62.0861C106.165 62.1398 105.971 62.1666 105.764 62.1666ZM108.999 62.1611C108.806 62.1611 108.641 62.1305 108.502 62.0694C108.365 62.0083 108.251 61.9268 108.16 61.825C108.069 61.7231 107.998 61.6102 107.946 61.4861C107.894 61.362 107.857 61.2352 107.835 61.1055C107.815 60.9759 107.805 60.8546 107.805 60.7416V59.0833H108.305V60.5861C108.305 60.7268 108.318 60.8629 108.343 60.9944C108.369 61.1259 108.413 61.2444 108.474 61.35C108.537 61.4555 108.62 61.5389 108.724 61.6C108.83 61.6611 108.961 61.6916 109.118 61.6916C109.243 61.6916 109.356 61.6704 109.457 61.6278C109.559 61.5852 109.646 61.5222 109.718 61.4389C109.791 61.3537 109.846 61.2463 109.885 61.1166C109.924 60.987 109.943 60.8361 109.943 60.6639L110.268 60.7639C110.268 61.0528 110.216 61.3018 110.11 61.5111C110.006 61.7204 109.859 61.8815 109.668 61.9944C109.48 62.1055 109.256 62.1611 108.999 62.1611ZM109.999 62.0833V61.2805H109.943V59.0833H110.441V62.0833H109.999ZM112.613 62.1666C112.331 62.1666 112.094 62.0972 111.902 61.9583C111.709 61.8176 111.563 61.6278 111.463 61.3889C111.365 61.1481 111.316 60.8787 111.316 60.5805C111.316 60.2787 111.365 60.0083 111.463 59.7694C111.563 59.5305 111.709 59.3426 111.902 59.2055C112.096 59.0685 112.334 59 112.616 59C112.893 59 113.132 59.0694 113.332 59.2083C113.534 59.3454 113.689 59.5333 113.796 59.7722C113.904 60.0111 113.957 60.2805 113.957 60.5805C113.957 60.8805 113.904 61.15 113.796 61.3889C113.689 61.6278 113.534 61.8176 113.332 61.9583C113.132 62.0972 112.892 62.1666 112.613 62.1666ZM111.232 62.0833V58.0833H111.73V59.875H111.674V62.0833H111.232ZM112.552 61.7139C112.75 61.7139 112.914 61.6639 113.043 61.5639C113.173 61.4639 113.27 61.3287 113.335 61.1583C113.4 60.9861 113.432 60.7935 113.432 60.5805C113.432 60.3694 113.4 60.1787 113.335 60.0083C113.272 59.8379 113.174 59.7028 113.041 59.6028C112.909 59.5028 112.742 59.4528 112.538 59.4528C112.343 59.4528 112.182 59.5009 112.055 59.5972C111.927 59.6916 111.831 59.8241 111.768 59.9944C111.705 60.1629 111.674 60.3583 111.674 60.5805C111.674 60.7991 111.705 60.9944 111.766 61.1666C111.829 61.337 111.925 61.4713 112.055 61.5694C112.184 61.6657 112.35 61.7139 112.552 61.7139ZM114.638 58.5528V58.0416H115.133V58.5528H114.638ZM114.638 62.0833V59.0833H115.133V62.0833H114.638ZM115.983 62.0833V59.0833H116.425V59.8083L116.352 59.7139C116.388 59.6213 116.433 59.5361 116.489 59.4583C116.546 59.3805 116.61 59.3166 116.68 59.2666C116.758 59.2037 116.846 59.1555 116.944 59.1222C117.042 59.0889 117.142 59.0694 117.244 59.0639C117.346 59.0565 117.441 59.0629 117.53 59.0833V59.5472C117.427 59.5194 117.313 59.512 117.189 59.525C117.065 59.5379 116.95 59.5833 116.844 59.6611C116.748 59.7296 116.673 59.8129 116.619 59.9111C116.567 60.0092 116.531 60.1157 116.511 60.2305C116.49 60.3435 116.48 60.4592 116.48 60.5778V62.0833H115.983ZM120.054 62.1666C119.83 62.1666 119.642 62.1259 119.49 62.0444C119.34 61.9611 119.226 61.8518 119.148 61.7166C119.072 61.5815 119.034 61.4333 119.034 61.2722C119.034 61.1148 119.064 60.9787 119.123 60.8639C119.184 60.7472 119.27 60.6509 119.379 60.575C119.488 60.4972 119.619 60.4361 119.771 60.3916C119.913 60.3528 120.072 60.3194 120.248 60.2916C120.426 60.262 120.606 60.2352 120.787 60.2111C120.969 60.187 121.138 60.1639 121.296 60.1416L121.118 60.2444C121.123 59.9778 121.07 59.7805 120.957 59.6528C120.846 59.525 120.653 59.4611 120.379 59.4611C120.197 59.4611 120.038 59.5028 119.901 59.5861C119.766 59.6676 119.671 59.8009 119.615 59.9861L119.146 59.8444C119.218 59.5815 119.358 59.375 119.565 59.225C119.772 59.075 120.046 59 120.384 59C120.657 59 120.89 59.0491 121.084 59.1472C121.281 59.2435 121.421 59.3898 121.507 59.5861C121.549 59.6787 121.576 59.7796 121.587 59.8889C121.598 59.9963 121.604 60.1092 121.604 60.2278V62.0833H121.165V61.3639L121.268 61.4305C121.155 61.6731 120.996 61.8565 120.793 61.9805C120.591 62.1046 120.345 62.1666 120.054 62.1666ZM120.129 61.7528C120.307 61.7528 120.46 61.7213 120.59 61.6583C120.721 61.5935 120.827 61.5092 120.907 61.4055C120.986 61.3 121.038 61.1852 121.062 61.0611C121.09 60.9685 121.105 60.8657 121.107 60.7528C121.11 60.6379 121.112 60.55 121.112 60.4889L121.284 60.5639C121.123 60.5861 120.965 60.6074 120.809 60.6278C120.654 60.6481 120.507 60.6704 120.368 60.6944C120.229 60.7166 120.104 60.7435 119.993 60.775C119.911 60.8009 119.834 60.8342 119.762 60.875C119.692 60.9157 119.634 60.9685 119.59 61.0333C119.547 61.0963 119.526 61.175 119.526 61.2694C119.526 61.3509 119.546 61.4287 119.587 61.5028C119.63 61.5768 119.695 61.637 119.782 61.6833C119.871 61.7296 119.986 61.7528 120.129 61.7528ZM122.343 62.0833V59.0833H122.784V59.8083L122.712 59.7139C122.747 59.6213 122.793 59.5361 122.848 59.4583C122.906 59.3805 122.97 59.3166 123.04 59.2666C123.118 59.2037 123.206 59.1555 123.304 59.1222C123.402 59.0889 123.502 59.0694 123.604 59.0639C123.706 59.0565 123.801 59.0629 123.89 59.0833V59.5472C123.786 59.5194 123.672 59.512 123.548 59.525C123.424 59.5379 123.309 59.5833 123.204 59.6611C123.108 59.7296 123.033 59.8129 122.979 59.9111C122.927 60.0092 122.891 60.1157 122.871 60.2305C122.85 60.3435 122.84 60.4592 122.84 60.5778V62.0833H122.343ZM125.642 62.1666C125.338 62.1666 125.079 62.0991 124.867 61.9639C124.655 61.8268 124.494 61.6389 124.383 61.4C124.272 61.1611 124.215 60.8889 124.211 60.5833C124.215 60.2703 124.273 59.9953 124.386 59.7583C124.501 59.5194 124.665 59.3333 124.878 59.2C125.091 59.0666 125.347 59 125.647 59C125.964 59 126.236 59.0778 126.464 59.2333C126.693 59.3889 126.847 59.6018 126.925 59.8722L126.436 60.0194C126.373 59.8454 126.27 59.7102 126.128 59.6139C125.987 59.5176 125.825 59.4694 125.642 59.4694C125.436 59.4694 125.267 59.5176 125.133 59.6139C125 59.7083 124.901 59.8398 124.836 60.0083C124.771 60.175 124.738 60.3666 124.736 60.5833C124.74 60.9166 124.817 61.1861 124.967 61.3916C125.118 61.5954 125.343 61.6972 125.642 61.6972C125.838 61.6972 126.001 61.6528 126.13 61.5639C126.26 61.4731 126.358 61.3426 126.425 61.1722L126.925 61.3028C126.821 61.5824 126.659 61.7963 126.439 61.9444C126.218 62.0926 125.953 62.1666 125.642 62.1666ZM129.645 62.0833V60.5805C129.645 60.4379 129.632 60.3009 129.606 60.1694C129.582 60.0379 129.538 59.9203 129.475 59.8166C129.414 59.7111 129.331 59.6278 129.225 59.5666C129.121 59.5055 128.99 59.475 128.831 59.475C128.707 59.475 128.594 59.4963 128.492 59.5389C128.392 59.5796 128.306 59.6426 128.233 59.7278C128.161 59.8129 128.105 59.9203 128.064 60.05C128.025 60.1778 128.006 60.3287 128.006 60.5028L127.681 60.4028C127.681 60.112 127.733 59.8629 127.836 59.6555C127.942 59.4463 128.089 59.2861 128.278 59.175C128.469 59.062 128.693 59.0055 128.95 59.0055C129.145 59.0055 129.31 59.0361 129.447 59.0972C129.584 59.1583 129.698 59.2398 129.789 59.3416C129.88 59.4416 129.951 59.5546 130.003 59.6805C130.055 59.8046 130.091 59.9315 130.111 60.0611C130.133 60.1889 130.145 60.3102 130.145 60.425V62.0833H129.645ZM127.506 62.0833V58.0833H127.95V60.2916H128.006V62.0833H127.506ZM130.939 58.5528V58.0416H131.433V58.5528H130.939ZM130.939 62.0833V59.0833H131.433V62.0833H130.939ZM133.095 62.0833L132.006 59.0833H132.506L133.347 61.4528L134.186 59.0833H134.689L133.6 62.0833H133.095ZM136.377 62.1666C136.079 62.1666 135.822 62.0991 135.605 61.9639C135.39 61.8287 135.225 61.6416 135.108 61.4028C134.991 61.1639 134.933 60.8898 134.933 60.5805C134.933 60.2657 134.992 59.9898 135.111 59.7528C135.229 59.5157 135.397 59.3315 135.614 59.2C135.83 59.0666 136.085 59 136.377 59C136.677 59 136.936 59.0676 137.152 59.2028C137.369 59.3361 137.535 59.5222 137.65 59.7611C137.766 59.9981 137.825 60.2713 137.825 60.5805C137.825 60.8935 137.766 61.1694 137.65 61.4083C137.533 61.6454 137.366 61.8315 137.15 61.9666C136.933 62.1 136.676 62.1666 136.377 62.1666ZM136.377 61.6972C136.689 61.6972 136.92 61.5935 137.072 61.3861C137.224 61.1787 137.3 60.9102 137.3 60.5805C137.3 60.2416 137.223 59.9722 137.069 59.7722C136.915 59.5704 136.685 59.4694 136.377 59.4694C136.168 59.4694 135.996 59.5166 135.861 59.6111C135.726 59.7055 135.625 59.8361 135.558 60.0028C135.491 60.1694 135.458 60.362 135.458 60.5805C135.458 60.9176 135.536 61.1879 135.691 61.3916C135.847 61.5954 136.076 61.6972 136.377 61.6972Z" fill="white"/>
<rect x="46.3472" y="85.4312" width="149.306" height="36.1111" rx="6.59722" fill="white" stroke="#D6D6D6" stroke-width="0.694444"/>
<path d="M83.8905 99.9624C83.5421 99.9624 83.2464 99.8855 83.0033 99.7315C82.7603 99.5776 82.5748 99.3637 82.4467 99.0899C82.3204 98.816 82.2572 98.4992 82.2572 98.1395C82.2572 97.7798 82.3204 97.463 82.4467 97.1892C82.5748 96.9153 82.7603 96.7014 83.0033 96.5475C83.2464 96.3936 83.5421 96.3166 83.8905 96.3166C84.2956 96.3166 84.6286 96.4195 84.8895 96.6253C85.152 96.8311 85.3326 97.1082 85.4315 97.4565L84.9915 97.5732C84.9202 97.3123 84.793 97.1065 84.6099 96.9558C84.4268 96.8052 84.187 96.7298 83.8905 96.7298C83.6296 96.7298 83.4125 96.7889 83.2391 96.9072C83.0657 97.0255 82.9353 97.1908 82.8478 97.4031C82.7603 97.6137 82.7157 97.8592 82.7141 98.1395C82.7125 98.4182 82.7554 98.6637 82.8429 98.876C82.9304 99.0866 83.0617 99.2519 83.2367 99.3718C83.4117 99.4901 83.6296 99.5492 83.8905 99.5492C84.187 99.5492 84.4268 99.4739 84.6099 99.3232C84.793 99.1709 84.9202 98.9651 84.9915 98.7058L85.4315 98.8225C85.3326 99.1693 85.152 99.4464 84.8895 99.6538C84.6286 99.8595 84.2956 99.9624 83.8905 99.9624ZM87.0972 99.9624C86.8363 99.9624 86.611 99.9033 86.4215 99.785C86.2335 99.6667 86.0885 99.5031 85.9864 99.294C85.8843 99.085 85.8333 98.8452 85.8333 98.5746C85.8333 98.2991 85.8851 98.0577 85.9888 97.8503C86.0925 97.6429 86.2392 97.4817 86.4288 97.3666C86.6183 97.2499 86.8411 97.1916 87.0972 97.1916C87.3597 97.1916 87.5857 97.2508 87.7753 97.369C87.9649 97.4857 88.1099 97.6486 88.2104 97.8576C88.3124 98.065 88.3635 98.304 88.3635 98.5746C88.3635 98.8484 88.3124 99.0899 88.2104 99.2989C88.1083 99.5063 87.9624 99.6692 87.7729 99.7874C87.5833 99.9041 87.358 99.9624 87.0972 99.9624ZM87.0972 99.5517C87.3694 99.5517 87.5719 99.4609 87.7048 99.2795C87.8377 99.098 87.9041 98.863 87.9041 98.5746C87.9041 98.2781 87.8369 98.0423 87.7024 97.8673C87.5679 97.6907 87.3661 97.6024 87.0972 97.6024C86.9141 97.6024 86.7634 97.6437 86.6451 97.7263C86.5268 97.809 86.4385 97.9232 86.3801 98.069C86.3218 98.2149 86.2926 98.3834 86.2926 98.5746C86.2926 98.8695 86.3607 99.1061 86.4968 99.2843C86.6329 99.4626 86.833 99.5517 87.0972 99.5517ZM92.051 99.8895L92.0535 98.21C92.0535 98.0139 92.0008 97.8608 91.8955 97.7506C91.7918 97.6388 91.6565 97.5829 91.4896 97.5829C91.3924 97.5829 91.3 97.6056 91.2125 97.651C91.125 97.6947 91.0537 97.7644 90.9986 97.86C90.9435 97.954 90.916 98.0747 90.916 98.2222L90.6875 98.1298C90.6843 97.9435 90.7223 97.7806 90.8017 97.6413C90.8828 97.5003 90.9929 97.3909 91.1323 97.3131C91.2716 97.2354 91.4288 97.1965 91.6038 97.1965C91.8777 97.1965 92.0932 97.2799 92.2504 97.4468C92.4075 97.6121 92.4861 97.8349 92.4861 98.1152L92.4837 99.8895H92.051ZM88.9108 99.8895V97.2645H89.2972V97.967H89.3458V99.8895H88.9108ZM90.4833 99.8895L90.4858 98.227C90.4858 98.0261 90.4339 97.8689 90.3302 97.7555C90.2265 97.6405 90.0888 97.5829 89.917 97.5829C89.7469 97.5829 89.6091 97.6413 89.5038 97.7579C89.3985 97.8746 89.3458 98.0293 89.3458 98.2222L89.1174 98.0861C89.1174 97.9159 89.1579 97.7636 89.2389 97.6291C89.3199 97.4946 89.4301 97.3893 89.5694 97.3131C89.7088 97.2354 89.8668 97.1965 90.0434 97.1965C90.22 97.1965 90.374 97.2337 90.5052 97.3083C90.6365 97.3828 90.7377 97.4898 90.809 97.6291C90.8803 97.7668 90.916 97.9313 90.916 98.1225L90.9135 99.8895H90.4833ZM94.3393 99.9624C94.093 99.9624 93.8856 99.9017 93.7171 99.7802C93.5486 99.657 93.4206 99.4909 93.3331 99.2819C93.2472 99.0712 93.2043 98.8355 93.2043 98.5746C93.2043 98.3105 93.2472 98.0739 93.3331 97.8649C93.4206 97.6558 93.5486 97.4914 93.7171 97.3715C93.8873 97.2516 94.0955 97.1916 94.3418 97.1916C94.5848 97.1916 94.7939 97.2524 94.9689 97.3739C95.1455 97.4938 95.2808 97.6583 95.3748 97.8673C95.4687 98.0763 95.5157 98.3121 95.5157 98.5746C95.5157 98.8371 95.4687 99.0729 95.3748 99.2819C95.2808 99.4909 95.1455 99.657 94.9689 99.7802C94.7939 99.9017 94.584 99.9624 94.3393 99.9624ZM93.1314 101.056V97.2645H93.5178V99.1968H93.5664V101.056H93.1314ZM94.2859 99.5663C94.4592 99.5663 94.6026 99.5225 94.7161 99.435C94.8295 99.3475 94.9146 99.2292 94.9713 99.0802C95.028 98.9295 95.0564 98.7609 95.0564 98.5746C95.0564 98.3899 95.028 98.223 94.9713 98.0739C94.9162 97.9248 94.8303 97.8065 94.7136 97.719C94.5986 97.6315 94.452 97.5878 94.2737 97.5878C94.1036 97.5878 93.9626 97.6299 93.8508 97.7142C93.739 97.7968 93.6555 97.9127 93.6004 98.0617C93.5454 98.2092 93.5178 98.3802 93.5178 98.5746C93.5178 98.7658 93.5445 98.9367 93.598 99.0874C93.6531 99.2365 93.7374 99.354 93.8508 99.4399C93.9642 99.5241 94.1092 99.5663 94.2859 99.5663ZM96.0631 99.8895V97.2645H96.4496V97.8989L96.3864 97.8163C96.4172 97.7352 96.4569 97.6607 96.5055 97.5927C96.5557 97.5246 96.6116 97.4687 96.6732 97.4249C96.7413 97.3699 96.8182 97.3277 96.9041 97.2986C96.99 97.2694 97.0775 97.2524 97.1666 97.2475C97.2557 97.241 97.3392 97.2467 97.417 97.2645V97.6704C97.3262 97.6461 97.2266 97.6396 97.118 97.651C97.0094 97.6623 96.909 97.702 96.8166 97.7701C96.7323 97.83 96.6667 97.903 96.6197 97.9888C96.5744 98.0747 96.5428 98.1679 96.5249 98.2683C96.5071 98.3672 96.4982 98.4685 96.4982 98.5722V99.8895H96.0631ZM98.9617 99.9624C98.7008 99.9624 98.4756 99.9033 98.286 99.785C98.0981 99.6667 97.953 99.5031 97.851 99.294C97.7489 99.085 97.6978 98.8452 97.6978 98.5746C97.6978 98.2991 97.7497 98.0577 97.8534 97.8503C97.9571 97.6429 98.1037 97.4817 98.2933 97.3666C98.4829 97.2499 98.7057 97.1916 98.9617 97.1916C99.2242 97.1916 99.4503 97.2508 99.6398 97.369C99.8294 97.4857 99.9745 97.6486 100.075 97.8576C100.177 98.065 100.228 98.304 100.228 98.5746C100.228 98.8484 100.177 99.0899 100.075 99.2989C99.9728 99.5063 99.827 99.6692 99.6374 99.7874C99.4478 99.9041 99.2226 99.9624 98.9617 99.9624ZM98.9617 99.5517C99.2339 99.5517 99.4365 99.4609 99.5694 99.2795C99.7022 99.098 99.7687 98.863 99.7687 98.5746C99.7687 98.2781 99.7014 98.0423 99.5669 97.8673C99.4324 97.6907 99.2307 97.6024 98.9617 97.6024C98.7786 97.6024 98.6279 97.6437 98.5096 97.7263C98.3914 97.809 98.303 97.9232 98.2447 98.069C98.1864 98.2149 98.1572 98.3834 98.1572 98.5746C98.1572 98.8695 98.2253 99.1061 98.3614 99.2843C98.4975 99.4626 98.6976 99.5517 98.9617 99.5517ZM101.983 99.9624C101.737 99.9624 101.53 99.9017 101.361 99.7802C101.193 99.657 101.065 99.4909 100.977 99.2819C100.891 99.0712 100.848 98.8355 100.848 98.5746C100.848 98.3105 100.891 98.0739 100.977 97.8649C101.065 97.6558 101.193 97.4914 101.361 97.3715C101.531 97.2516 101.739 97.1916 101.986 97.1916C102.229 97.1916 102.438 97.2524 102.613 97.3739C102.789 97.4938 102.925 97.6583 103.019 97.8673C103.113 98.0763 103.16 98.3121 103.16 98.5746C103.16 98.8371 103.113 99.0729 103.019 99.2819C102.925 99.4909 102.789 99.657 102.613 99.7802C102.438 99.9017 102.228 99.9624 101.983 99.9624ZM100.775 99.8895V96.3895H101.21V97.9572H101.162V99.8895H100.775ZM101.93 99.5663C102.103 99.5663 102.247 99.5225 102.36 99.435C102.473 99.3475 102.559 99.2292 102.615 99.0802C102.672 98.9295 102.7 98.7609 102.7 98.5746C102.7 98.3899 102.672 98.223 102.615 98.0739C102.56 97.9248 102.474 97.8065 102.358 97.719C102.243 97.6315 102.096 97.5878 101.918 97.5878C101.748 97.5878 101.607 97.6299 101.495 97.7142C101.383 97.7968 101.3 97.9127 101.244 98.0617C101.189 98.2092 101.162 98.3802 101.162 98.5746C101.162 98.7658 101.189 98.9367 101.242 99.0874C101.297 99.2365 101.381 99.354 101.495 99.4399C101.608 99.5241 101.753 99.5663 101.93 99.5663ZM104.453 99.9624C104.257 99.9624 104.093 99.9268 103.96 99.8555C103.829 99.7826 103.729 99.687 103.661 99.5687C103.595 99.4504 103.561 99.3208 103.561 99.1798C103.561 99.0421 103.587 98.923 103.639 98.8225C103.693 98.7204 103.767 98.6362 103.863 98.5697C103.958 98.5017 104.073 98.4482 104.205 98.4093C104.33 98.3753 104.47 98.3461 104.623 98.3218C104.779 98.2959 104.936 98.2724 105.095 98.2513C105.254 98.2303 105.402 98.21 105.54 98.1906L105.384 98.2805C105.389 98.0472 105.342 97.8746 105.243 97.7628C105.146 97.651 104.977 97.5951 104.738 97.5951C104.579 97.5951 104.44 97.6315 104.32 97.7045C104.201 97.7758 104.118 97.8924 104.069 98.0545L103.659 97.9305C103.722 97.7004 103.844 97.5197 104.026 97.3885C104.207 97.2572 104.446 97.1916 104.743 97.1916C104.981 97.1916 105.185 97.2345 105.355 97.3204C105.527 97.4047 105.65 97.5327 105.724 97.7045C105.762 97.7855 105.785 97.8738 105.795 97.9694C105.805 98.0634 105.81 98.1622 105.81 98.2659V99.8895H105.426V99.26L105.515 99.3183C105.417 99.5306 105.278 99.691 105.1 99.7996C104.923 99.9082 104.708 99.9624 104.453 99.9624ZM104.519 99.6003C104.674 99.6003 104.809 99.5727 104.922 99.5177C105.037 99.4609 105.13 99.3872 105.199 99.2965C105.269 99.2041 105.315 99.1036 105.336 98.9951C105.36 98.9141 105.373 98.8241 105.374 98.7253C105.378 98.6248 105.379 98.5479 105.379 98.4944L105.53 98.56C105.389 98.5795 105.251 98.5981 105.114 98.6159C104.978 98.6337 104.849 98.6532 104.728 98.6742C104.606 98.6937 104.497 98.7172 104.4 98.7447C104.329 98.7674 104.261 98.7966 104.198 98.8322C104.137 98.8679 104.086 98.9141 104.047 98.9708C104.01 99.0259 103.991 99.0947 103.991 99.1774C103.991 99.2487 104.009 99.3167 104.045 99.3815C104.082 99.4464 104.139 99.499 104.215 99.5395C104.293 99.58 104.394 99.6003 104.519 99.6003ZM108.325 99.8895V98.5746C108.325 98.4498 108.314 98.3299 108.291 98.2149C108.27 98.0998 108.232 97.9969 108.177 97.9062C108.123 97.8138 108.051 97.7409 107.958 97.6874C107.867 97.634 107.752 97.6072 107.613 97.6072C107.504 97.6072 107.406 97.6259 107.316 97.6631C107.229 97.6988 107.154 97.7539 107.09 97.8284C107.027 97.903 106.978 97.9969 106.942 98.1104C106.908 98.2222 106.891 98.3542 106.891 98.5065L106.607 98.419C106.607 98.1646 106.652 97.9467 106.743 97.7652C106.835 97.5821 106.964 97.442 107.129 97.3447C107.296 97.2459 107.492 97.1965 107.718 97.1965C107.888 97.1965 108.033 97.2232 108.153 97.2767C108.273 97.3302 108.372 97.4014 108.452 97.4906C108.531 97.5781 108.593 97.6769 108.639 97.7871C108.684 97.8957 108.716 98.0067 108.734 98.1201C108.753 98.2319 108.763 98.338 108.763 98.4385V99.8895H108.325ZM106.454 99.8895V97.2645H106.843V97.967H106.891V99.8895H106.454ZM110.875 99.8895C110.719 99.9203 110.565 99.9325 110.413 99.926C110.262 99.9211 110.128 99.8911 110.01 99.8361C109.891 99.7793 109.801 99.6918 109.74 99.5736C109.688 99.4699 109.66 99.3653 109.655 99.26C109.651 99.1531 109.65 99.0324 109.65 98.8979V96.5354H110.082V98.8784C110.082 98.9854 110.083 99.0769 110.085 99.1531C110.088 99.2292 110.105 99.2949 110.136 99.3499C110.194 99.4536 110.287 99.5144 110.413 99.5322C110.541 99.5501 110.695 99.5452 110.875 99.5177V99.8895ZM109.117 97.6218V97.2645H110.875V97.6218H109.117ZM112.451 99.9624C112.193 99.9624 111.968 99.9057 111.775 99.7923C111.584 99.6773 111.435 99.5177 111.328 99.3135C111.221 99.1077 111.167 98.8679 111.167 98.594C111.167 98.3072 111.22 98.0593 111.325 97.8503C111.431 97.6396 111.577 97.4776 111.765 97.3642C111.955 97.2491 112.177 97.1916 112.431 97.1916C112.695 97.1916 112.92 97.2524 113.104 97.3739C113.291 97.4954 113.43 97.6688 113.522 97.894C113.616 98.1193 113.657 98.3874 113.644 98.6986H113.207V98.543C113.202 98.2205 113.136 97.9799 113.01 97.8211C112.883 97.6607 112.695 97.5805 112.446 97.5805C112.178 97.5805 111.975 97.6664 111.836 97.8381C111.696 98.0099 111.627 98.2562 111.627 98.577C111.627 98.8865 111.696 99.1263 111.836 99.2965C111.975 99.4666 112.174 99.5517 112.431 99.5517C112.605 99.5517 112.755 99.512 112.883 99.4326C113.011 99.3532 113.112 99.2389 113.185 99.0899L113.6 99.2333C113.498 99.465 113.344 99.6449 113.138 99.7729C112.934 99.8992 112.705 99.9624 112.451 99.9624ZM111.481 98.6986V98.351H113.42V98.6986H111.481ZM116.218 99.9624C115.973 99.9624 115.764 99.9017 115.589 99.7802C115.414 99.657 115.278 99.4909 115.183 99.2819C115.089 99.0729 115.042 98.8371 115.042 98.5746C115.042 98.3121 115.089 98.0763 115.183 97.8673C115.278 97.6583 115.414 97.4938 115.589 97.3739C115.764 97.2524 115.973 97.1916 116.216 97.1916C116.464 97.1916 116.672 97.2516 116.84 97.3715C117.009 97.4914 117.136 97.6558 117.222 97.8649C117.309 98.0739 117.353 98.3105 117.353 98.5746C117.353 98.8355 117.309 99.0712 117.222 99.2819C117.136 99.4909 117.009 99.657 116.84 99.7802C116.672 99.9017 116.464 99.9624 116.218 99.9624ZM116.272 99.5663C116.448 99.5663 116.593 99.5241 116.707 99.4399C116.82 99.354 116.903 99.2365 116.957 99.0874C117.012 98.9367 117.04 98.7658 117.04 98.5746C117.04 98.3802 117.012 98.2092 116.957 98.0617C116.903 97.9127 116.821 97.7968 116.709 97.7142C116.597 97.6299 116.455 97.5878 116.284 97.5878C116.105 97.5878 115.958 97.6315 115.841 97.719C115.726 97.8065 115.64 97.9248 115.584 98.0739C115.529 98.223 115.501 98.3899 115.501 98.5746C115.501 98.7609 115.529 98.9295 115.586 99.0802C115.643 99.2292 115.728 99.3475 115.841 99.435C115.956 99.5225 116.1 99.5663 116.272 99.5663ZM117.04 99.8895V97.9572H116.991V96.3895H117.426V99.8895H117.04ZM119.259 99.9624C119.001 99.9624 118.776 99.9057 118.583 99.7923C118.392 99.6773 118.243 99.5177 118.136 99.3135C118.029 99.1077 117.976 98.8679 117.976 98.594C117.976 98.3072 118.028 98.0593 118.134 97.8503C118.239 97.6396 118.386 97.4776 118.574 97.3642C118.763 97.2491 118.985 97.1916 119.24 97.1916C119.504 97.1916 119.728 97.2524 119.913 97.3739C120.099 97.4954 120.239 97.6688 120.331 97.894C120.425 98.1193 120.465 98.3874 120.453 98.6986H120.015V98.543C120.01 98.2205 119.945 97.9799 119.818 97.8211C119.692 97.6607 119.504 97.5805 119.254 97.5805C118.987 97.5805 118.784 97.6664 118.644 97.8381C118.505 98.0099 118.435 98.2562 118.435 98.577C118.435 98.8865 118.505 99.1263 118.644 99.2965C118.784 99.4666 118.982 99.5517 119.24 99.5517C119.413 99.5517 119.564 99.512 119.692 99.4326C119.82 99.3532 119.92 99.2389 119.993 99.0899L120.409 99.2333C120.307 99.465 120.153 99.6449 119.947 99.7729C119.743 99.8992 119.513 99.9624 119.259 99.9624ZM118.289 98.6986V98.351H120.229V98.6986H118.289ZM123.027 99.9624C122.782 99.9624 122.572 99.9017 122.397 99.7802C122.222 99.657 122.087 99.4909 121.991 99.2819C121.897 99.0729 121.85 98.8371 121.85 98.5746C121.85 98.3121 121.897 98.0763 121.991 97.8673C122.087 97.6583 122.222 97.4938 122.397 97.3739C122.572 97.2524 122.781 97.1916 123.024 97.1916C123.272 97.1916 123.48 97.2516 123.649 97.3715C123.817 97.4914 123.944 97.6558 124.03 97.8649C124.118 98.0739 124.162 98.3105 124.162 98.5746C124.162 98.8355 124.118 99.0712 124.03 99.2819C123.944 99.4909 123.817 99.657 123.649 99.7802C123.48 99.9017 123.273 99.9624 123.027 99.9624ZM123.08 99.5663C123.257 99.5663 123.402 99.5241 123.515 99.4399C123.629 99.354 123.712 99.2365 123.765 99.0874C123.821 98.9367 123.848 98.7658 123.848 98.5746C123.848 98.3802 123.821 98.2092 123.765 98.0617C123.712 97.9127 123.629 97.7968 123.518 97.7142C123.406 97.6299 123.264 97.5878 123.092 97.5878C122.914 97.5878 122.766 97.6315 122.65 97.719C122.535 97.8065 122.449 97.9248 122.392 98.0739C122.337 98.223 122.31 98.3899 122.31 98.5746C122.31 98.7609 122.338 98.9295 122.395 99.0802C122.451 99.2292 122.536 99.3475 122.65 99.435C122.765 99.5225 122.908 99.5663 123.08 99.5663ZM123.848 99.8895V97.9572H123.799V96.3895H124.235V99.8895H123.848ZM126.048 99.9624C125.787 99.9624 125.562 99.9033 125.372 99.785C125.184 99.6667 125.039 99.5031 124.937 99.294C124.835 99.085 124.784 98.8452 124.784 98.5746C124.784 98.2991 124.836 98.0577 124.94 97.8503C125.044 97.6429 125.19 97.4817 125.38 97.3666C125.569 97.2499 125.792 97.1916 126.048 97.1916C126.311 97.1916 126.537 97.2508 126.726 97.369C126.916 97.4857 127.061 97.6486 127.161 97.8576C127.263 98.065 127.314 98.304 127.314 98.5746C127.314 98.8484 127.263 99.0899 127.161 99.2989C127.059 99.5063 126.913 99.6692 126.724 99.7874C126.534 99.9041 126.309 99.9624 126.048 99.9624ZM126.048 99.5517C126.32 99.5517 126.523 99.4609 126.656 99.2795C126.789 99.098 126.855 98.863 126.855 98.5746C126.855 98.2781 126.788 98.0423 126.653 97.8673C126.519 97.6907 126.317 97.6024 126.048 97.6024C125.865 97.6024 125.714 97.6437 125.596 97.7263C125.478 97.809 125.389 97.9232 125.331 98.069C125.273 98.2149 125.244 98.3834 125.244 98.5746C125.244 98.8695 125.312 99.1061 125.448 99.2843C125.584 99.4626 125.784 99.5517 126.048 99.5517ZM131.002 99.8895L131.004 98.21C131.004 98.0139 130.952 97.8608 130.846 97.7506C130.743 97.6388 130.607 97.5829 130.441 97.5829C130.343 97.5829 130.251 97.6056 130.163 97.651C130.076 97.6947 130.005 97.7644 129.95 97.86C129.895 97.954 129.867 98.0747 129.867 98.2222L129.638 98.1298C129.635 97.9435 129.673 97.7806 129.753 97.6413C129.834 97.5003 129.944 97.3909 130.083 97.3131C130.223 97.2354 130.38 97.1965 130.555 97.1965C130.829 97.1965 131.044 97.2799 131.201 97.4468C131.359 97.6121 131.437 97.8349 131.437 98.1152L131.435 99.8895H131.002ZM127.862 99.8895V97.2645H128.248V97.967H128.297V99.8895H127.862ZM129.434 99.8895L129.437 98.227C129.437 98.0261 129.385 97.8689 129.281 97.7555C129.177 97.6405 129.04 97.5829 128.868 97.5829C128.698 97.5829 128.56 97.6413 128.455 97.7579C128.349 97.8746 128.297 98.0293 128.297 98.2222L128.068 98.0861C128.068 97.9159 128.109 97.7636 128.19 97.6291C128.271 97.4946 128.381 97.3893 128.52 97.3131C128.66 97.2354 128.818 97.1965 128.994 97.1965C129.171 97.1965 129.325 97.2337 129.456 97.3083C129.587 97.3828 129.689 97.4898 129.76 97.6291C129.831 97.7668 129.867 97.9313 129.867 98.1225L129.865 99.8895H129.434ZM132.133 96.8003V96.3531H132.566V96.8003H132.133ZM132.133 99.8895V97.2645H132.566V99.8895H132.133ZM134.416 99.9624C134.15 99.9624 133.924 99.9033 133.738 99.785C133.553 99.6651 133.412 99.5006 133.315 99.2916C133.218 99.0826 133.167 98.8444 133.164 98.577C133.167 98.3032 133.218 98.0626 133.317 97.8552C133.418 97.6461 133.561 97.4833 133.747 97.3666C133.934 97.2499 134.158 97.1916 134.421 97.1916C134.698 97.1916 134.936 97.2597 135.135 97.3958C135.336 97.5319 135.471 97.7182 135.539 97.9548L135.111 98.0836C135.056 97.9313 134.966 97.813 134.841 97.7288C134.718 97.6445 134.576 97.6024 134.416 97.6024C134.236 97.6024 134.088 97.6445 133.971 97.7288C133.854 97.8114 133.768 97.9264 133.711 98.0739C133.654 98.2197 133.625 98.3874 133.623 98.577C133.627 98.8687 133.694 99.1045 133.825 99.2843C133.958 99.4626 134.155 99.5517 134.416 99.5517C134.588 99.5517 134.73 99.5128 134.844 99.435C134.957 99.3556 135.043 99.2414 135.101 99.0923L135.539 99.2065C135.448 99.4512 135.306 99.6384 135.113 99.768C134.921 99.8976 134.688 99.9624 134.416 99.9624ZM136.027 96.8003V96.3531H136.459V96.8003H136.027ZM136.027 99.8895V97.2645H136.459V99.8895H136.027ZM137.252 99.8895V96.3166H137.684V99.8895H137.252ZM138.477 96.8003V96.3531H138.91V96.8003H138.477ZM138.477 99.8895V97.2645H138.91V99.8895H138.477ZM140.772 99.9624C140.511 99.9624 140.285 99.9033 140.096 99.785C139.908 99.6667 139.763 99.5031 139.661 99.294C139.559 99.085 139.508 98.8452 139.508 98.5746C139.508 98.2991 139.559 98.0577 139.663 97.8503C139.767 97.6429 139.914 97.4817 140.103 97.3666C140.293 97.2499 140.516 97.1916 140.772 97.1916C141.034 97.1916 141.26 97.2508 141.45 97.369C141.639 97.4857 141.784 97.6486 141.885 97.8576C141.987 98.065 142.038 98.304 142.038 98.5746C142.038 98.8484 141.987 99.0899 141.885 99.2989C141.783 99.5063 141.637 99.6692 141.447 99.7874C141.258 99.9041 141.032 99.9624 140.772 99.9624ZM140.772 99.5517C141.044 99.5517 141.246 99.4609 141.379 99.2795C141.512 99.098 141.578 98.863 141.578 98.5746C141.578 98.2781 141.511 98.0423 141.377 97.8673C141.242 97.6907 141.041 97.6024 140.772 97.6024C140.588 97.6024 140.438 97.6437 140.319 97.7263C140.201 97.809 140.113 97.9232 140.055 98.069C139.996 98.2149 139.967 98.3834 139.967 98.5746C139.967 98.8695 140.035 99.1061 140.171 99.2843C140.307 99.4626 140.507 99.5517 140.772 99.5517Z" fill="#424E4F"/>
<path d="M65.7053 103.834C65.7053 103.949 65.6596 104.059 65.5782 104.141C65.4968 104.222 65.3864 104.268 65.2713 104.268H63.9692V105.136H64.8372C64.9524 105.136 65.0627 105.182 65.1441 105.263C65.2255 105.345 65.2713 105.455 65.2713 105.57C65.2713 105.685 65.2255 105.796 65.1441 105.877C65.0627 105.958 64.9524 106.004 64.8372 106.004H63.9692V106.872C63.9692 106.987 63.9235 107.098 63.8421 107.179C63.7607 107.26 63.6503 107.306 63.5352 107.306C63.42 107.306 63.3096 107.26 63.2283 107.179C63.1469 107.098 63.1011 106.987 63.1011 106.872V103.834C63.1011 103.719 63.1469 103.608 63.2283 103.527C63.3096 103.446 63.42 103.4 63.5352 103.4H65.2713C65.3864 103.4 65.4968 103.446 65.5782 103.527C65.6596 103.608 65.7053 103.719 65.7053 103.834ZM58.5438 104.919C58.5438 105.322 58.3838 105.708 58.0989 105.993C57.814 106.278 57.4276 106.438 57.0247 106.438H56.5907V106.872C56.5907 106.987 56.545 107.098 56.4636 107.179C56.3822 107.26 56.2718 107.306 56.1567 107.306C56.0416 107.306 55.9312 107.26 55.8498 107.179C55.7684 107.098 55.7227 106.987 55.7227 106.872V103.834C55.7227 103.719 55.7684 103.608 55.8498 103.527C55.9312 103.446 56.0416 103.4 56.1567 103.4H57.0247C57.4276 103.4 57.814 103.56 58.0989 103.845C58.3838 104.13 58.5438 104.516 58.5438 104.919ZM57.6758 104.919C57.6758 104.746 57.6072 104.581 57.4851 104.459C57.363 104.337 57.1974 104.268 57.0247 104.268H56.5907V105.57H57.0247C57.1974 105.57 57.363 105.501 57.4851 105.379C57.6072 105.257 57.6758 105.092 57.6758 104.919ZM62.4501 105.353C62.4501 105.871 62.2443 106.368 61.878 106.734C61.5117 107.1 61.015 107.306 60.497 107.306H59.6289C59.5138 107.306 59.4034 107.26 59.322 107.179C59.2406 107.098 59.1949 106.987 59.1949 106.872V103.834C59.1949 103.719 59.2406 103.608 59.322 103.527C59.4034 103.446 59.5138 103.4 59.6289 103.4H60.497C61.015 103.4 61.5117 103.606 61.878 103.972C62.2443 104.338 62.4501 104.835 62.4501 105.353ZM61.582 105.353C61.582 105.065 61.4677 104.789 61.2642 104.586C61.0607 104.382 60.7847 104.268 60.497 104.268H60.0629V106.438H60.497C60.7847 106.438 61.0607 106.324 61.2642 106.12C61.4677 105.917 61.582 105.641 61.582 105.353ZM55.7227 101.664V97.7576C55.7227 97.5274 55.8141 97.3066 55.9769 97.1438C56.1397 96.981 56.3605 96.8895 56.5907 96.8895H61.799C61.8561 96.8895 61.9125 96.9007 61.9652 96.9225C62.0179 96.9442 62.0658 96.9762 62.1061 97.0165L65.1443 100.055C65.1846 100.095 65.2166 100.143 65.2383 100.196C65.2601 100.248 65.2713 100.305 65.2713 100.362V101.664C65.2713 101.779 65.2255 101.889 65.1441 101.971C65.0627 102.052 64.9524 102.098 64.8372 102.098C64.7221 102.098 64.6117 102.052 64.5303 101.971C64.4489 101.889 64.4032 101.779 64.4032 101.664V100.796H61.799C61.6839 100.796 61.5735 100.75 61.4921 100.669C61.4107 100.587 61.365 100.477 61.365 100.362V97.7576H56.5907V101.664C56.5907 101.779 56.545 101.889 56.4636 101.971C56.3822 102.052 56.2718 102.098 56.1567 102.098C56.0416 102.098 55.9312 102.052 55.8498 101.971C55.7684 101.889 55.7227 101.779 55.7227 101.664ZM62.2331 99.9277H63.7896L62.2331 98.3712V99.9277Z" fill="#7B7B7B"/>
<rect x="81.416" y="105.918" width="95.1389" height="3.47222" rx="1.73611" fill="#E8E8E8"/>
<rect x="81.416" y="105.918" width="38.8889" height="3.47222" rx="1.73611" fill="#37B3BD"/>
<rect x="46.3472" y="128.486" width="149.306" height="36.1111" rx="6.59722" fill="white" stroke="#D6D6D6" stroke-width="0.694444"/>
</g>
<defs>
<clipPath id="clip0_1665_27088">
<rect width="243" height="132" rx="5" fill="white"/>
</clipPath>
</defs>
</svg>
