<svg width="243" height="132" viewBox="0 0 243 132" fill="none" xmlns="http://www.w3.org/2000/svg">
<g clip-path="url(#clip0_1665_27162)">
<rect width="243" height="132" rx="5" fill="#F4F4F4"/>
<g filter="url(#filter0_d_1665_27162)">
<rect x="44" y="82.0195" width="161" height="44.9417" rx="2" fill="white"/>
</g>
<path d="M64.3765 93.3787C63.641 93.3784 62.9179 93.5673 62.2766 93.9273C61.6196 93.56 60.878 93.3709 60.1254 93.3786C59.3728 93.3864 58.6353 93.5909 57.9861 93.9717C57.3368 94.3525 56.7985 94.8965 56.4244 95.5496C56.0503 96.2027 55.8535 96.9423 55.8535 97.695C55.8535 98.4477 56.0503 99.1873 56.4244 99.8404C56.7985 100.494 57.3368 101.037 57.9861 101.418C58.6353 101.799 59.3728 102.004 60.1254 102.011C60.878 102.019 61.6196 101.83 62.2766 101.463C62.8524 101.784 63.4941 101.969 64.1525 102.003C64.8109 102.038 65.4685 101.921 66.0747 101.662C66.681 101.403 67.2198 101.008 67.6498 100.509C68.0798 100.009 68.3896 99.4171 68.5554 98.779C68.7212 98.1408 68.7385 97.4732 68.6061 96.8273C68.4737 96.1815 68.195 95.5745 67.7915 95.0531C67.388 94.5317 66.8704 94.1096 66.2784 93.8194C65.6864 93.5291 65.0358 93.3784 64.3765 93.3787ZM61.1506 100.554C60.8379 100.666 60.5088 100.725 60.1767 100.729C59.3722 100.729 58.6006 100.409 58.0317 99.8403C57.4629 99.2714 57.1433 98.4998 57.1433 97.6953C57.1433 96.8908 57.4629 96.1192 58.0317 95.5504C58.6006 94.9815 59.3722 94.6619 60.1767 94.6619C60.5088 94.6659 60.8379 94.7251 61.1506 94.8371C60.4481 95.6234 60.0598 96.6409 60.0598 97.6953C60.0598 98.7497 60.4481 99.7672 61.1506 100.554ZM62.2766 99.8754C61.9815 99.5941 61.7467 99.2559 61.5862 98.8811C61.4257 98.5064 61.343 98.103 61.343 97.6953C61.343 97.2877 61.4257 96.8843 61.5862 96.5095C61.7467 96.1348 61.9815 95.7965 62.2766 95.5152C62.5716 95.7965 62.8065 96.1348 62.967 96.5095C63.1274 96.8843 63.2102 97.2877 63.2102 97.6953C63.2102 98.103 63.1274 98.5064 62.967 98.8811C62.8065 99.2559 62.5716 99.5941 62.2766 99.8754ZM64.3765 100.729C64.0442 100.725 63.7148 100.666 63.4019 100.554C64.1044 99.7672 64.4927 98.7497 64.4927 97.6953C64.4927 96.6409 64.1044 95.6234 63.4019 94.8371C63.7148 94.725 64.0442 94.6658 64.3765 94.6619C65.181 94.6619 65.9526 94.9815 66.5214 95.5504C67.0903 96.1192 67.4099 96.8908 67.4099 97.6953C67.4099 98.4998 67.0903 99.2714 66.5214 99.8403C65.9526 100.409 65.181 100.729 64.3765 100.729Z" fill="#0270C7"/>
<path d="M77.495 95.2872H78.5528L80.15 99.9681L80.551 100.037V100.452H78.5113V100.037L79.0299 99.9681L78.7603 99.0692H76.9695L76.6999 99.975L77.2599 100.037V100.452H75.4968L75.4899 100.037L75.9047 99.9681L77.495 95.2872ZM77.972 96.4557L77.8476 95.9164L77.7162 96.4626L77.1009 98.5852H78.622L77.972 96.4557ZM82.4465 102.319C81.8288 102.319 81.3817 102.222 81.1052 102.028C80.8286 101.835 80.6903 101.572 80.6903 101.24C80.6903 101.051 80.7525 100.872 80.877 100.701C81.0061 100.535 81.1605 100.411 81.3402 100.328C81.1282 100.203 81.0222 100.005 81.0222 99.733C81.0222 99.5763 81.0729 99.4288 81.1743 99.2905C81.2757 99.1476 81.4071 99.037 81.5684 98.9586C81.3149 98.8618 81.1259 98.7143 81.0015 98.5161C80.877 98.3179 80.8148 98.0828 80.8148 97.8109C80.8148 97.5481 80.8908 97.32 81.0429 97.1264C81.1997 96.9282 81.4071 96.7761 81.6652 96.67C81.9279 96.564 82.2114 96.511 82.5156 96.511C83.0549 96.511 83.456 96.6147 83.7187 96.8221C83.7786 96.7438 83.88 96.67 84.0229 96.6009C84.1658 96.5318 84.3133 96.4972 84.4654 96.4972H84.7074V97.2508H83.9953C84.0644 97.3983 84.099 97.555 84.099 97.721C84.1036 98.1404 83.9561 98.4769 83.6565 98.7304C83.3569 98.9794 82.9466 99.1038 82.4258 99.1038C82.2091 99.1038 82.027 99.0877 81.8795 99.0554C81.8335 99.1153 81.7966 99.1799 81.7689 99.249C81.7459 99.3135 81.7344 99.3712 81.7344 99.4219C81.7344 99.574 81.7874 99.6777 81.8934 99.733C82.004 99.7883 82.1999 99.816 82.4811 99.816H83.2209C84.1612 99.816 84.6314 100.157 84.6314 100.839C84.6314 101.125 84.53 101.381 84.3271 101.607C84.1243 101.833 83.8547 102.008 83.5182 102.132C83.1817 102.257 82.8245 102.319 82.4465 102.319ZM82.4949 98.6751C82.9236 98.6751 83.1379 98.3824 83.1379 97.797C83.1379 97.4974 83.0826 97.2785 82.972 97.1402C82.866 96.9973 82.7023 96.9259 82.4811 96.9259C82.2644 96.9259 82.0962 96.9973 81.9763 97.1402C81.8611 97.2785 81.8035 97.4882 81.8035 97.7694C81.8035 98.3732 82.034 98.6751 82.4949 98.6751ZM82.5502 101.842C82.8406 101.842 83.0918 101.77 83.3039 101.627C83.5159 101.489 83.6219 101.296 83.6219 101.047C83.6219 100.848 83.5689 100.706 83.4629 100.618C83.3615 100.53 83.1771 100.487 82.9097 100.487H82.1561C82.0409 100.487 81.9349 100.48 81.8381 100.466C81.7136 100.632 81.6514 100.83 81.6514 101.06C81.6514 101.314 81.7205 101.508 81.8588 101.641C81.9971 101.775 82.2276 101.842 82.5502 101.842ZM85.0744 100.044L85.5307 99.9888V97.2647L85.0882 97.1402V96.6631L86.1599 96.5179H86.1806L86.3535 96.6562V96.8083L86.3327 97.3684H86.3535C86.3857 97.2762 86.4618 97.1632 86.5816 97.0296C86.7015 96.8913 86.8513 96.7714 87.031 96.67C87.2154 96.564 87.4136 96.511 87.6257 96.511C87.7271 96.511 87.8146 96.5248 87.8884 96.5525V97.5896C87.7501 97.4928 87.5819 97.4444 87.3837 97.4444C87.0472 97.4444 86.7545 97.5343 86.5056 97.7141V99.9819L87.3076 100.044V100.452H85.0744V100.044ZM90.0712 100.528C89.4628 100.528 89.0087 100.351 88.7091 99.9957C88.4141 99.6362 88.2666 99.1476 88.2666 98.5299C88.2666 98.1151 88.3427 97.7556 88.4948 97.4513C88.6515 97.1471 88.8705 96.9143 89.1516 96.753C89.4328 96.5917 89.7578 96.511 90.1265 96.511C90.5875 96.511 90.9424 96.6332 91.1913 96.8775C91.4402 97.1172 91.5693 97.4606 91.5785 97.9077C91.5785 98.2119 91.56 98.4377 91.5232 98.5852H89.2761C89.2945 99.0047 89.3936 99.332 89.5734 99.5671C89.7532 99.7975 90.009 99.9128 90.3409 99.9128C90.5206 99.9128 90.705 99.8828 90.894 99.8229C91.0876 99.763 91.2397 99.6915 91.3503 99.6085L91.5232 99.9888C91.3987 100.122 91.1959 100.247 90.9147 100.362C90.6382 100.473 90.357 100.528 90.0712 100.528ZM90.6105 98.1704C90.6197 98.0413 90.6243 97.9422 90.6243 97.8731C90.6243 97.26 90.4192 96.9535 90.009 96.9535C89.7831 96.9535 89.608 97.0434 89.4835 97.2232C89.359 97.4029 89.2899 97.7187 89.2761 98.1704H90.6105ZM93.8035 102.319C93.1858 102.319 92.7387 102.222 92.4621 102.028C92.1856 101.835 92.0473 101.572 92.0473 101.24C92.0473 101.051 92.1095 100.872 92.234 100.701C92.363 100.535 92.5174 100.411 92.6972 100.328C92.4852 100.203 92.3792 100.005 92.3792 99.733C92.3792 99.5763 92.4299 99.4288 92.5313 99.2905C92.6327 99.1476 92.764 99.037 92.9254 98.9586C92.6719 98.8618 92.4829 98.7143 92.3584 98.5161C92.234 98.3179 92.1717 98.0828 92.1717 97.8109C92.1717 97.5481 92.2478 97.32 92.3999 97.1264C92.5566 96.9282 92.764 96.7761 93.0222 96.67C93.2849 96.564 93.5684 96.511 93.8726 96.511C94.4119 96.511 94.8129 96.6147 95.0757 96.8221C95.1356 96.7438 95.237 96.67 95.3799 96.6009C95.5228 96.5318 95.6703 96.4972 95.8224 96.4972H96.0644V97.2508H95.3522C95.4214 97.3983 95.4559 97.555 95.4559 97.721C95.4606 98.1404 95.3131 98.4769 95.0134 98.7304C94.7138 98.9794 94.3036 99.1038 93.7827 99.1038C93.5661 99.1038 93.384 99.0877 93.2365 99.0554C93.1904 99.1153 93.1535 99.1799 93.1259 99.249C93.1028 99.3135 93.0913 99.3712 93.0913 99.4219C93.0913 99.574 93.1443 99.6777 93.2503 99.733C93.361 99.7883 93.5569 99.816 93.838 99.816H94.5779C95.5182 99.816 95.9883 100.157 95.9883 100.839C95.9883 101.125 95.8869 101.381 95.6841 101.607C95.4813 101.833 95.2116 102.008 94.8752 102.132C94.5387 102.257 94.1814 102.319 93.8035 102.319ZM93.8519 98.6751C94.2805 98.6751 94.4949 98.3824 94.4949 97.797C94.4949 97.4974 94.4396 97.2785 94.3289 97.1402C94.2229 96.9973 94.0593 96.9259 93.838 96.9259C93.6214 96.9259 93.4532 96.9973 93.3333 97.1402C93.2181 97.2785 93.1605 97.4882 93.1605 97.7694C93.1605 98.3732 93.3909 98.6751 93.8519 98.6751ZM93.9072 101.842C94.1976 101.842 94.4488 101.77 94.6608 101.627C94.8729 101.489 94.9789 101.296 94.9789 101.047C94.9789 100.848 94.9259 100.706 94.8198 100.618C94.7184 100.53 94.5341 100.487 94.2667 100.487H93.5131C93.3978 100.487 93.2918 100.48 93.195 100.466C93.0706 100.632 93.0083 100.83 93.0083 101.06C93.0083 101.314 93.0775 101.508 93.2158 101.641C93.3541 101.775 93.5845 101.842 93.9072 101.842ZM96.3553 99.3735C96.3553 98.954 96.565 98.6383 96.9844 98.4262C97.4085 98.2142 97.9547 98.1059 98.6231 98.1013V97.9422C98.6231 97.7532 98.6023 97.6057 98.5609 97.4997C98.524 97.3937 98.4525 97.3154 98.3465 97.2647C98.2451 97.2093 98.0953 97.1817 97.8971 97.1817C97.6712 97.1817 97.4684 97.2116 97.2887 97.2716C97.1089 97.3269 96.9222 97.4006 96.7286 97.4928L96.5143 97.0503C96.5834 96.9904 96.6987 96.9189 96.86 96.836C97.0259 96.753 97.2218 96.6816 97.4477 96.6216C97.6736 96.5571 97.9063 96.5248 98.146 96.5248C98.5009 96.5248 98.7775 96.5709 98.9757 96.6631C99.1785 96.7553 99.3237 96.9028 99.4113 97.1056C99.4989 97.3084 99.5427 97.5804 99.5427 97.9215V100.037H99.916V100.424C99.8238 100.447 99.6925 100.47 99.5219 100.494C99.3514 100.517 99.2016 100.528 99.0725 100.528C98.9158 100.528 98.8098 100.505 98.7545 100.459C98.7038 100.413 98.6784 100.318 98.6784 100.175V99.9888C98.554 100.127 98.3926 100.252 98.1944 100.362C97.9962 100.473 97.7727 100.528 97.5237 100.528C97.3117 100.528 97.1158 100.484 96.936 100.397C96.7609 100.305 96.6203 100.173 96.5143 100.003C96.4083 99.8275 96.3553 99.6178 96.3553 99.3735ZM97.9663 99.9542C98.063 99.9542 98.1737 99.9266 98.2981 99.8713C98.4226 99.8113 98.5309 99.7399 98.6231 99.6569V98.523C98.2082 98.523 97.8971 98.5945 97.6897 98.7374C97.4869 98.8756 97.3855 99.0554 97.3855 99.2767C97.3855 99.4979 97.4362 99.6662 97.5376 99.7814C97.6436 99.8966 97.7865 99.9542 97.9663 99.9542ZM100.348 100.044L100.804 99.9888V97.2647L100.361 97.1402V96.6631L101.433 96.5179H101.454L101.627 96.6562V96.8083L101.606 97.3684H101.627C101.659 97.2762 101.735 97.1632 101.855 97.0296C101.975 96.8913 102.124 96.7714 102.304 96.67C102.489 96.564 102.687 96.511 102.899 96.511C103 96.511 103.088 96.5248 103.162 96.5525V97.5896C103.023 97.4928 102.855 97.4444 102.657 97.4444C102.32 97.4444 102.028 97.5343 101.779 97.7141V99.9819L102.581 100.044V100.452H100.348V100.044ZM107.552 100.528C106.768 100.528 106.169 100.295 105.754 99.8298C105.34 99.3596 105.132 98.7189 105.132 97.9077C105.132 97.373 105.24 96.9074 105.457 96.511C105.678 96.11 105.98 95.8012 106.363 95.5845C106.745 95.3679 107.179 95.2596 107.663 95.2596C107.866 95.2596 108.061 95.2734 108.25 95.301C108.439 95.3241 108.663 95.3564 108.921 95.3978C109.115 95.4301 109.221 95.4462 109.239 95.4462L109.163 96.8705H108.527L108.313 95.8818C108.262 95.8311 108.174 95.7896 108.05 95.7574C107.925 95.7251 107.766 95.709 107.573 95.709C107.181 95.709 106.865 95.891 106.626 96.2552C106.391 96.6147 106.273 97.1379 106.273 97.8247C106.273 98.4884 106.386 99.0301 106.612 99.4495C106.838 99.869 107.167 100.079 107.6 100.079C107.808 100.079 107.967 100.06 108.078 100.023C108.193 99.9819 108.29 99.9243 108.368 99.8505L108.672 99.1384L109.253 99.1937L109.115 100.265C109.018 100.275 108.921 100.293 108.824 100.321C108.732 100.344 108.674 100.358 108.651 100.362C108.467 100.413 108.294 100.452 108.133 100.48C107.976 100.512 107.783 100.528 107.552 100.528ZM112.912 100.521C112.76 100.521 112.649 100.489 112.58 100.424C112.511 100.36 112.476 100.263 112.476 100.134V99.9473C112.352 100.099 112.177 100.235 111.951 100.355C111.725 100.47 111.499 100.528 111.273 100.528C110.831 100.528 110.515 100.415 110.326 100.189C110.137 99.9589 110.043 99.5809 110.043 99.0554V97.1056L109.697 97.0088V96.6147L110.872 96.5248H110.879L111.017 96.6216V99.0554C111.017 99.3919 111.059 99.627 111.142 99.7606C111.225 99.8943 111.379 99.9612 111.605 99.9612C111.877 99.9612 112.131 99.8551 112.366 99.6431V97.1056L111.902 97.0019V96.6147L113.154 96.5248H113.168L113.334 96.6216V100.023H113.721L113.714 100.417C113.696 100.422 113.61 100.441 113.458 100.473C113.306 100.505 113.124 100.521 112.912 100.521ZM115.952 100.528C115.343 100.528 114.889 100.351 114.59 99.9957C114.295 99.6362 114.147 99.1476 114.147 98.5299C114.147 98.1151 114.223 97.7556 114.375 97.4513C114.532 97.1471 114.751 96.9143 115.032 96.753C115.313 96.5917 115.638 96.511 116.007 96.511C116.468 96.511 116.823 96.6332 117.072 96.8775C117.321 97.1172 117.45 97.4606 117.459 97.9077C117.459 98.2119 117.441 98.4377 117.404 98.5852H115.157C115.175 99.0047 115.274 99.332 115.454 99.5671C115.634 99.7975 115.89 99.9128 116.222 99.9128C116.401 99.9128 116.586 99.8828 116.775 99.8229C116.968 99.763 117.12 99.6915 117.231 99.6085L117.404 99.9888C117.279 100.122 117.077 100.247 116.795 100.362C116.519 100.473 116.238 100.528 115.952 100.528ZM116.491 98.1704C116.5 98.0413 116.505 97.9422 116.505 97.8731C116.505 97.26 116.3 96.9535 115.89 96.9535C115.664 96.9535 115.489 97.0434 115.364 97.2232C115.24 97.4029 115.171 97.7187 115.157 98.1704H116.491ZM118.398 97.2647L117.956 97.1402V96.6631L119.103 96.5179H119.124L119.297 96.6562V96.9259L119.29 97.0918C119.451 96.9397 119.661 96.8083 119.919 96.6977C120.177 96.5871 120.438 96.5318 120.7 96.5318C120.982 96.5318 121.201 96.5848 121.357 96.6908C121.519 96.7922 121.634 96.9535 121.703 97.1748C121.772 97.396 121.807 97.6956 121.807 98.0736V99.9819L122.229 100.037V100.452H120.445V100.037L120.818 99.9819V98.0736C120.818 97.8339 120.802 97.6472 120.77 97.5136C120.737 97.3753 120.677 97.2762 120.59 97.2163C120.507 97.1517 120.387 97.1195 120.23 97.1195C119.968 97.1195 119.686 97.2324 119.387 97.4582V99.975L119.802 100.037V100.452H117.997V100.037L118.398 99.975V97.2647ZM123.879 100.514C123.588 100.514 123.374 100.447 123.236 100.314C123.097 100.18 123.028 99.9681 123.028 99.6777V97.1402H122.579V96.7807C122.616 96.7668 122.683 96.7438 122.779 96.7115C122.876 96.6746 122.95 96.6447 123.001 96.6216C123.079 96.5617 123.146 96.458 123.201 96.3105C123.243 96.2137 123.319 95.974 123.429 95.5914H123.982L124.01 96.6078H125.068V97.1402H124.017V99.0831C124.017 99.3412 124.024 99.5233 124.038 99.6293C124.052 99.7353 124.081 99.8044 124.128 99.8367C124.174 99.8644 124.254 99.8782 124.37 99.8782C124.485 99.8782 124.605 99.8667 124.729 99.8436C124.854 99.816 124.957 99.7837 125.04 99.7468L125.172 100.134C125.043 100.231 124.854 100.318 124.605 100.397C124.356 100.475 124.114 100.514 123.879 100.514ZM125.463 99.3735C125.463 98.954 125.673 98.6383 126.093 98.4262C126.517 98.2142 127.063 98.1059 127.731 98.1013V97.9422C127.731 97.7532 127.71 97.6057 127.669 97.4997C127.632 97.3937 127.561 97.3154 127.455 97.2647C127.353 97.2093 127.203 97.1817 127.005 97.1817C126.779 97.1817 126.577 97.2116 126.397 97.2716C126.217 97.3269 126.03 97.4006 125.837 97.4928L125.622 97.0503C125.692 96.9904 125.807 96.9189 125.968 96.836C126.134 96.753 126.33 96.6816 126.556 96.6216C126.782 96.5571 127.014 96.5248 127.254 96.5248C127.609 96.5248 127.886 96.5709 128.084 96.6631C128.287 96.7553 128.432 96.9028 128.519 97.1056C128.607 97.3084 128.651 97.5804 128.651 97.9215V100.037H129.024V100.424C128.932 100.447 128.801 100.47 128.63 100.494C128.46 100.517 128.31 100.528 128.181 100.528C128.024 100.528 127.918 100.505 127.863 100.459C127.812 100.413 127.787 100.318 127.787 100.175V99.9888C127.662 100.127 127.501 100.252 127.303 100.362C127.104 100.473 126.881 100.528 126.632 100.528C126.42 100.528 126.224 100.484 126.044 100.397C125.869 100.305 125.728 100.173 125.622 100.003C125.516 99.8275 125.463 99.6178 125.463 99.3735ZM127.074 99.9542C127.171 99.9542 127.282 99.9266 127.406 99.8713C127.531 99.8113 127.639 99.7399 127.731 99.6569V98.523C127.316 98.523 127.005 98.5945 126.798 98.7374C126.595 98.8756 126.494 99.0554 126.494 99.2767C126.494 99.4979 126.544 99.6662 126.646 99.7814C126.752 99.8966 126.895 99.9542 127.074 99.9542Z" fill="#28262B"/>
<path d="M190.583 97.8357L188.591 99.8269C188.487 99.9323 188.428 100.075 188.428 100.223C188.428 100.372 188.487 100.515 188.591 100.62C188.644 100.673 188.706 100.715 188.774 100.743C188.843 100.772 188.916 100.786 188.991 100.786C189.065 100.786 189.138 100.772 189.207 100.743C189.276 100.715 189.338 100.673 189.39 100.62L191.775 98.235C191.828 98.1827 191.87 98.1205 191.898 98.052C191.927 97.9834 191.941 97.9099 191.941 97.8357C191.941 97.7614 191.927 97.6879 191.898 97.6193C191.87 97.5508 191.828 97.4886 191.775 97.4363L189.39 95.0232C189.337 94.971 189.275 94.9298 189.207 94.9018C189.138 94.8738 189.065 94.8596 188.991 94.86C188.917 94.8596 188.843 94.8738 188.775 94.9018C188.706 94.9298 188.644 94.971 188.591 95.0232C188.487 95.1286 188.428 95.2711 188.428 95.4197C188.428 95.5683 188.487 95.7109 188.591 95.8163L190.583 97.8357Z" fill="#BFDAEE"/>
<path d="M78.0224 109.972H76.5211L76.2445 110.737H75.7704L77.0149 107.315H77.5335L78.7731 110.737H78.299L78.0224 109.972ZM77.894 109.606L77.2717 107.868L76.6495 109.606H77.894ZM80.4316 107.987C80.6654 107.987 80.8695 108.038 81.044 108.14C81.2218 108.242 81.3535 108.37 81.4391 108.525V108.031H81.8935V110.797C81.8935 111.044 81.8408 111.262 81.7354 111.453C81.6301 111.648 81.4786 111.799 81.2811 111.908C81.0868 112.016 80.8597 112.071 80.5995 112.071C80.244 112.071 79.9476 111.987 79.7106 111.819C79.4735 111.651 79.3336 111.422 79.2908 111.132H79.7353C79.7847 111.297 79.8867 111.429 80.0415 111.528C80.1962 111.63 80.3822 111.681 80.5995 111.681C80.8465 111.681 81.0473 111.603 81.2021 111.449C81.3601 111.294 81.4391 111.076 81.4391 110.797V110.229C81.3502 110.387 81.2185 110.518 81.044 110.624C80.8695 110.729 80.6654 110.782 80.4316 110.782C80.1913 110.782 79.9723 110.723 79.7748 110.604C79.5805 110.485 79.4274 110.319 79.3155 110.105C79.2036 109.891 79.1476 109.648 79.1476 109.374C79.1476 109.098 79.2036 108.856 79.3155 108.648C79.4274 108.438 79.5805 108.275 79.7748 108.159C79.9723 108.044 80.1913 107.987 80.4316 107.987ZM81.4391 109.379C81.4391 109.175 81.398 108.997 81.3157 108.846C81.2333 108.694 81.1214 108.579 80.9798 108.5C80.8415 108.418 80.6884 108.377 80.5205 108.377C80.3526 108.377 80.1995 108.416 80.0612 108.495C79.923 108.574 79.8127 108.689 79.7303 108.841C79.648 108.992 79.6069 109.17 79.6069 109.374C79.6069 109.582 79.648 109.763 79.7303 109.918C79.8127 110.069 79.923 110.186 80.0612 110.268C80.1995 110.347 80.3526 110.387 80.5205 110.387C80.6884 110.387 80.8415 110.347 80.9798 110.268C81.1214 110.186 81.2333 110.069 81.3157 109.918C81.398 109.763 81.4391 109.583 81.4391 109.379ZM83.1024 108.47C83.1814 108.316 83.2933 108.196 83.4382 108.11C83.5864 108.024 83.7658 107.982 83.9765 107.982V108.446H83.858C83.3542 108.446 83.1024 108.719 83.1024 109.266V110.737H82.6529V108.031H83.1024V108.47ZM86.9646 109.28C86.9646 109.366 86.9597 109.457 86.9498 109.552H84.7867C84.8031 109.819 84.8937 110.028 85.0583 110.179C85.2262 110.327 85.4287 110.402 85.6658 110.402C85.86 110.402 86.0213 110.357 86.1497 110.268C86.2814 110.176 86.3736 110.054 86.4263 109.903H86.9103C86.8379 110.163 86.693 110.375 86.4757 110.54C86.2584 110.701 85.9884 110.782 85.6658 110.782C85.4089 110.782 85.1785 110.724 84.9743 110.609C84.7735 110.494 84.6155 110.331 84.5002 110.12C84.385 109.906 84.3274 109.659 84.3274 109.379C84.3274 109.099 84.3834 108.854 84.4953 108.643C84.6072 108.433 84.7636 108.271 84.9645 108.159C85.1686 108.044 85.4024 107.987 85.6658 107.987C85.9226 107.987 86.1497 108.042 86.3473 108.154C86.5448 108.266 86.6963 108.421 86.8016 108.619C86.9103 108.813 86.9646 109.034 86.9646 109.28ZM86.5004 109.187C86.5004 109.015 86.4625 108.869 86.3868 108.747C86.3111 108.622 86.2074 108.528 86.0757 108.466C85.9473 108.4 85.804 108.367 85.646 108.367C85.4188 108.367 85.2246 108.439 85.0632 108.584C84.9052 108.729 84.8147 108.93 84.7916 109.187H86.5004ZM88.674 107.987C88.9077 107.987 89.1119 108.038 89.2864 108.14C89.4642 108.242 89.5959 108.37 89.6815 108.525V108.031H90.1358V110.797C90.1358 111.044 90.0831 111.262 89.9778 111.453C89.8724 111.648 89.721 111.799 89.5234 111.908C89.3292 112.016 89.102 112.071 88.8419 112.071C88.4863 112.071 88.19 111.987 87.9529 111.819C87.7159 111.651 87.5759 111.422 87.5331 111.132H87.9776C88.027 111.297 88.1291 111.429 88.2838 111.528C88.4386 111.63 88.6246 111.681 88.8419 111.681C89.0888 111.681 89.2897 111.603 89.4444 111.449C89.6024 111.294 89.6815 111.076 89.6815 110.797V110.229C89.5926 110.387 89.4609 110.518 89.2864 110.624C89.1119 110.729 88.9077 110.782 88.674 110.782C88.4336 110.782 88.2147 110.723 88.0171 110.604C87.8229 110.485 87.6698 110.319 87.5578 110.105C87.4459 109.891 87.3899 109.648 87.3899 109.374C87.3899 109.098 87.4459 108.856 87.5578 108.648C87.6698 108.438 87.8229 108.275 88.0171 108.159C88.2147 108.044 88.4336 107.987 88.674 107.987ZM89.6815 109.379C89.6815 109.175 89.6403 108.997 89.558 108.846C89.4757 108.694 89.3637 108.579 89.2222 108.5C89.0839 108.418 88.9308 108.377 88.7629 108.377C88.595 108.377 88.4419 108.416 88.3036 108.495C88.1653 108.574 88.055 108.689 87.9727 108.841C87.8904 108.992 87.8492 109.17 87.8492 109.374C87.8492 109.582 87.8904 109.763 87.9727 109.918C88.055 110.069 88.1653 110.186 88.3036 110.268C88.4419 110.347 88.595 110.387 88.7629 110.387C88.9308 110.387 89.0839 110.347 89.2222 110.268C89.3637 110.186 89.4757 110.069 89.558 109.918C89.6403 109.763 89.6815 109.583 89.6815 109.379ZM90.7274 109.374C90.7274 109.098 90.7833 108.856 90.8953 108.648C91.0072 108.438 91.1603 108.275 91.3546 108.159C91.5521 108.044 91.7711 107.987 92.0114 107.987C92.2485 107.987 92.4543 108.038 92.6288 108.14C92.8033 108.242 92.9333 108.37 93.0189 108.525V108.031H93.4733V110.737H93.0189V110.234C92.93 110.392 92.7967 110.523 92.6189 110.629C92.4444 110.731 92.2402 110.782 92.0065 110.782C91.7661 110.782 91.5488 110.723 91.3546 110.604C91.1603 110.485 91.0072 110.319 90.8953 110.105C90.7833 109.891 90.7274 109.648 90.7274 109.374ZM93.0189 109.379C93.0189 109.175 92.9777 108.997 92.8954 108.846C92.8131 108.694 92.7012 108.579 92.5596 108.5C92.4213 108.418 92.2682 108.377 92.1003 108.377C91.9324 108.377 91.7793 108.416 91.641 108.495C91.5027 108.574 91.3924 108.689 91.3101 108.841C91.2278 108.992 91.1867 109.17 91.1867 109.374C91.1867 109.582 91.2278 109.763 91.3101 109.918C91.3924 110.069 91.5027 110.186 91.641 110.268C91.7793 110.347 91.9324 110.387 92.1003 110.387C92.2682 110.387 92.4213 110.347 92.5596 110.268C92.7012 110.186 92.8131 110.069 92.8954 109.918C92.9777 109.763 93.0189 109.583 93.0189 109.379ZM95.9889 107.295V109.473C95.9889 109.779 96.063 110.006 96.2112 110.155C96.3626 110.303 96.5717 110.377 96.8384 110.377C97.1018 110.377 97.3075 110.303 97.4557 110.155C97.6072 110.006 97.6829 109.779 97.6829 109.473V107.295H98.1323V109.468C98.1323 109.755 98.0747 109.997 97.9594 110.194C97.8442 110.388 97.6878 110.533 97.4903 110.629C97.296 110.724 97.0771 110.772 96.8334 110.772C96.5898 110.772 96.3692 110.724 96.1717 110.629C95.9774 110.533 95.8227 110.388 95.7074 110.194C95.5955 109.997 95.5395 109.755 95.5395 109.468V107.295H95.9889ZM100.201 107.982C100.53 107.982 100.797 108.082 101.001 108.283C101.205 108.48 101.307 108.767 101.307 109.142V110.737H100.862V109.206C100.862 108.936 100.795 108.731 100.66 108.589C100.525 108.444 100.341 108.372 100.107 108.372C99.8697 108.372 99.6804 108.446 99.5388 108.594C99.4006 108.742 99.3314 108.958 99.3314 109.241V110.737H98.882V108.031H99.3314V108.416C99.4203 108.278 99.5405 108.171 99.6919 108.095C99.8467 108.019 100.016 107.982 100.201 107.982ZM101.873 109.374C101.873 109.098 101.929 108.856 102.041 108.648C102.153 108.438 102.306 108.275 102.5 108.159C102.698 108.044 102.917 107.987 103.157 107.987C103.394 107.987 103.6 108.038 103.774 108.14C103.949 108.242 104.079 108.37 104.165 108.525V108.031H104.619V110.737H104.165V110.234C104.076 110.392 103.942 110.523 103.765 110.629C103.59 110.731 103.386 110.782 103.152 110.782C102.912 110.782 102.695 110.723 102.5 110.604C102.306 110.485 102.153 110.319 102.041 110.105C101.929 109.891 101.873 109.648 101.873 109.374ZM104.165 109.379C104.165 109.175 104.123 108.997 104.041 108.846C103.959 108.694 103.847 108.579 103.705 108.5C103.567 108.418 103.414 108.377 103.246 108.377C103.078 108.377 102.925 108.416 102.787 108.495C102.648 108.574 102.538 108.689 102.456 108.841C102.374 108.992 102.332 109.17 102.332 109.374C102.332 109.582 102.374 109.763 102.456 109.918C102.538 110.069 102.648 110.186 102.787 110.268C102.925 110.347 103.078 110.387 103.246 110.387C103.414 110.387 103.567 110.347 103.705 110.268C103.847 110.186 103.959 110.069 104.041 109.918C104.123 109.763 104.165 109.583 104.165 109.379ZM106.527 109.014C106.527 108.678 106.603 108.377 106.754 108.11C106.906 107.84 107.112 107.629 107.372 107.478C107.635 107.326 107.926 107.251 108.246 107.251C108.621 107.251 108.949 107.341 109.229 107.522C109.508 107.703 109.713 107.96 109.841 108.293H109.303C109.207 108.085 109.069 107.926 108.888 107.814C108.71 107.702 108.496 107.646 108.246 107.646C108.005 107.646 107.79 107.702 107.599 107.814C107.408 107.926 107.258 108.085 107.149 108.293C107.041 108.497 106.986 108.737 106.986 109.014C106.986 109.287 107.041 109.527 107.149 109.735C107.258 109.939 107.408 110.097 107.599 110.209C107.79 110.321 108.005 110.377 108.246 110.377C108.496 110.377 108.71 110.322 108.888 110.214C109.069 110.102 109.207 109.942 109.303 109.735H109.841C109.713 110.064 109.508 110.319 109.229 110.5C108.949 110.678 108.621 110.767 108.246 110.767C107.926 110.767 107.635 110.693 107.372 110.545C107.112 110.393 106.906 110.184 106.754 109.918C106.603 109.651 106.527 109.35 106.527 109.014ZM112.91 108.031V110.737H112.461V110.337C112.375 110.476 112.255 110.584 112.1 110.663C111.949 110.739 111.781 110.777 111.597 110.777C111.386 110.777 111.196 110.734 111.029 110.648C110.861 110.56 110.727 110.428 110.629 110.253C110.533 110.079 110.485 109.866 110.485 109.616V108.031H110.93V109.557C110.93 109.824 110.997 110.029 111.132 110.174C111.267 110.316 111.452 110.387 111.685 110.387C111.926 110.387 112.115 110.313 112.253 110.164C112.392 110.016 112.461 109.801 112.461 109.517V108.031H112.91ZM116.138 109.28C116.138 109.366 116.133 109.457 116.124 109.552H113.96C113.977 109.819 114.067 110.028 114.232 110.179C114.4 110.327 114.602 110.402 114.839 110.402C115.034 110.402 115.195 110.357 115.323 110.268C115.455 110.176 115.547 110.054 115.6 109.903H116.084C116.012 110.163 115.867 110.375 115.649 110.54C115.432 110.701 115.162 110.782 114.839 110.782C114.583 110.782 114.352 110.724 114.148 110.609C113.947 110.494 113.789 110.331 113.674 110.12C113.559 109.906 113.501 109.659 113.501 109.379C113.501 109.099 113.557 108.854 113.669 108.643C113.781 108.433 113.937 108.271 114.138 108.159C114.342 108.044 114.576 107.987 114.839 107.987C115.096 107.987 115.323 108.042 115.521 108.154C115.719 108.266 115.87 108.421 115.975 108.619C116.084 108.813 116.138 109.034 116.138 109.28ZM115.674 109.187C115.674 109.015 115.636 108.869 115.561 108.747C115.485 108.622 115.381 108.528 115.249 108.466C115.121 108.4 114.978 108.367 114.82 108.367C114.593 108.367 114.398 108.439 114.237 108.584C114.079 108.729 113.988 108.93 113.965 109.187H115.674ZM118.05 107.982C118.379 107.982 118.646 108.082 118.85 108.283C119.054 108.48 119.156 108.767 119.156 109.142V110.737H118.712V109.206C118.712 108.936 118.644 108.731 118.509 108.589C118.374 108.444 118.19 108.372 117.956 108.372C117.719 108.372 117.53 108.446 117.388 108.594C117.25 108.742 117.181 108.958 117.181 109.241V110.737H116.732V108.031H117.181V108.416C117.27 108.278 117.39 108.171 117.542 108.095C117.696 108.019 117.866 107.982 118.05 107.982ZM120.439 108.401V109.997C120.439 110.128 120.467 110.222 120.523 110.278C120.579 110.331 120.676 110.357 120.814 110.357H121.145V110.737H120.74C120.49 110.737 120.302 110.68 120.177 110.564C120.052 110.449 119.989 110.26 119.989 109.997V108.401H119.639V108.031H119.989V107.349H120.439V108.031H121.145V108.401H120.439ZM121.522 109.374C121.522 109.098 121.578 108.856 121.69 108.648C121.801 108.438 121.955 108.275 122.149 108.159C122.346 108.044 122.565 107.987 122.806 107.987C123.043 107.987 123.248 108.038 123.423 108.14C123.597 108.242 123.728 108.37 123.813 108.525V108.031H124.267V110.737H123.813V110.234C123.724 110.392 123.591 110.523 123.413 110.629C123.239 110.731 123.034 110.782 122.801 110.782C122.56 110.782 122.343 110.723 122.149 110.604C121.955 110.485 121.801 110.319 121.69 110.105C121.578 109.891 121.522 109.648 121.522 109.374ZM123.813 109.379C123.813 109.175 123.772 108.997 123.69 108.846C123.607 108.694 123.495 108.579 123.354 108.5C123.216 108.418 123.062 108.377 122.895 108.377C122.727 108.377 122.574 108.416 122.435 108.495C122.297 108.574 122.187 108.689 122.104 108.841C122.022 108.992 121.981 109.17 121.981 109.374C121.981 109.582 122.022 109.763 122.104 109.918C122.187 110.069 122.297 110.186 122.435 110.268C122.574 110.347 122.727 110.387 122.895 110.387C123.062 110.387 123.216 110.347 123.354 110.268C123.495 110.186 123.607 110.069 123.69 109.918C123.772 109.763 123.813 109.583 123.813 109.379ZM128.067 108.964C128.192 108.984 128.306 109.035 128.408 109.117C128.513 109.2 128.596 109.302 128.655 109.424C128.717 109.545 128.749 109.676 128.749 109.814C128.749 109.988 128.704 110.146 128.615 110.288C128.526 110.426 128.396 110.536 128.225 110.619C128.057 110.698 127.858 110.737 127.628 110.737H126.344V107.295H127.578C127.812 107.295 128.011 107.335 128.176 107.414C128.34 107.489 128.464 107.593 128.546 107.725C128.629 107.856 128.67 108.005 128.67 108.169C128.67 108.373 128.614 108.543 128.502 108.678C128.393 108.81 128.248 108.905 128.067 108.964ZM126.793 108.782H127.549C127.759 108.782 127.922 108.732 128.038 108.633C128.153 108.535 128.21 108.398 128.21 108.224C128.21 108.049 128.153 107.912 128.038 107.814C127.922 107.715 127.756 107.665 127.539 107.665H126.793V108.782ZM127.588 110.367C127.812 110.367 127.987 110.314 128.112 110.209C128.237 110.104 128.299 109.957 128.299 109.769C128.299 109.578 128.233 109.429 128.102 109.32C127.97 109.208 127.794 109.152 127.573 109.152H126.793V110.367H127.588ZM129.204 109.374C129.204 109.098 129.26 108.856 129.372 108.648C129.484 108.438 129.637 108.275 129.832 108.159C130.029 108.044 130.248 107.987 130.489 107.987C130.726 107.987 130.931 108.038 131.106 108.14C131.28 108.242 131.41 108.37 131.496 108.525V108.031H131.95V110.737H131.496V110.234C131.407 110.392 131.274 110.523 131.096 110.629C130.921 110.731 130.717 110.782 130.484 110.782C130.243 110.782 130.026 110.723 129.832 110.604C129.637 110.485 129.484 110.319 129.372 110.105C129.26 109.891 129.204 109.648 129.204 109.374ZM131.496 109.379C131.496 109.175 131.455 108.997 131.373 108.846C131.29 108.694 131.178 108.579 131.037 108.5C130.898 108.418 130.745 108.377 130.577 108.377C130.41 108.377 130.256 108.416 130.118 108.495C129.98 108.574 129.87 108.689 129.787 108.841C129.705 108.992 129.664 109.17 129.664 109.374C129.664 109.582 129.705 109.763 129.787 109.918C129.87 110.069 129.98 110.186 130.118 110.268C130.256 110.347 130.41 110.387 130.577 110.387C130.745 110.387 130.898 110.347 131.037 110.268C131.178 110.186 131.29 110.069 131.373 109.918C131.455 109.763 131.496 109.583 131.496 109.379ZM134.028 107.982C134.358 107.982 134.624 108.082 134.829 108.283C135.033 108.48 135.135 108.767 135.135 109.142V110.737H134.69V109.206C134.69 108.936 134.623 108.731 134.488 108.589C134.353 108.444 134.168 108.372 133.935 108.372C133.698 108.372 133.508 108.446 133.367 108.594C133.228 108.742 133.159 108.958 133.159 109.241V110.737H132.71V108.031H133.159V108.416C133.248 108.278 133.368 108.171 133.52 108.095C133.675 108.019 133.844 107.982 134.028 107.982ZM135.701 109.379C135.701 109.099 135.757 108.856 135.869 108.648C135.981 108.438 136.136 108.275 136.333 108.159C136.534 108.044 136.763 107.987 137.02 107.987C137.352 107.987 137.625 108.067 137.839 108.229C138.057 108.39 138.2 108.614 138.269 108.9H137.785C137.739 108.736 137.648 108.605 137.513 108.51C137.382 108.415 137.217 108.367 137.02 108.367C136.763 108.367 136.555 108.456 136.397 108.633C136.239 108.808 136.16 109.057 136.16 109.379C136.16 109.705 136.239 109.957 136.397 110.135C136.555 110.313 136.763 110.402 137.02 110.402C137.217 110.402 137.382 110.355 137.513 110.263C137.645 110.171 137.736 110.039 137.785 109.868H138.269C138.197 110.145 138.052 110.367 137.834 110.535C137.617 110.699 137.345 110.782 137.02 110.782C136.763 110.782 136.534 110.724 136.333 110.609C136.136 110.494 135.981 110.331 135.869 110.12C135.757 109.909 135.701 109.662 135.701 109.379ZM138.701 109.374C138.701 109.098 138.757 108.856 138.869 108.648C138.981 108.438 139.134 108.275 139.328 108.159C139.526 108.044 139.744 107.987 139.985 107.987C140.222 107.987 140.428 108.038 140.602 108.14C140.777 108.242 140.907 108.37 140.992 108.525V108.031H141.447V110.737H140.992V110.234C140.903 110.392 140.77 110.523 140.592 110.629C140.418 110.731 140.214 110.782 139.98 110.782C139.74 110.782 139.522 110.723 139.328 110.604C139.134 110.485 138.981 110.319 138.869 110.105C138.757 109.891 138.701 109.648 138.701 109.374ZM140.992 109.379C140.992 109.175 140.951 108.997 140.869 108.846C140.787 108.694 140.675 108.579 140.533 108.5C140.395 108.418 140.242 108.377 140.074 108.377C139.906 108.377 139.753 108.416 139.614 108.495C139.476 108.574 139.366 108.689 139.284 108.841C139.201 108.992 139.16 109.17 139.16 109.374C139.16 109.582 139.201 109.763 139.284 109.918C139.366 110.069 139.476 110.186 139.614 110.268C139.753 110.347 139.906 110.387 140.074 110.387C140.242 110.387 140.395 110.347 140.533 110.268C140.675 110.186 140.787 110.069 140.869 109.918C140.951 109.763 140.992 109.583 140.992 109.379ZM142.656 108.47C142.735 108.316 142.847 108.196 142.991 108.11C143.14 108.024 143.319 107.982 143.53 107.982V108.446H143.411C142.907 108.446 142.656 108.719 142.656 109.266V110.737H142.206V108.031H142.656V108.47ZM144.281 107.591C144.195 107.591 144.123 107.562 144.063 107.503C144.004 107.443 143.974 107.371 143.974 107.285C143.974 107.2 144.004 107.127 144.063 107.068C144.123 107.009 144.195 106.979 144.281 106.979C144.363 106.979 144.432 107.009 144.488 107.068C144.547 107.127 144.577 107.2 144.577 107.285C144.577 107.371 144.547 107.443 144.488 107.503C144.432 107.562 144.363 107.591 144.281 107.591ZM144.498 108.031V110.737H144.048V108.031H144.498ZM145.096 109.374C145.096 109.098 145.152 108.856 145.264 108.648C145.376 108.438 145.529 108.275 145.723 108.159C145.921 108.044 146.14 107.987 146.38 107.987C146.617 107.987 146.823 108.038 146.997 108.14C147.172 108.242 147.302 108.37 147.387 108.525V108.031H147.842V110.737H147.387V110.234C147.299 110.392 147.165 110.523 146.987 110.629C146.813 110.731 146.609 110.782 146.375 110.782C146.135 110.782 145.917 110.723 145.723 110.604C145.529 110.485 145.376 110.319 145.264 110.105C145.152 109.891 145.096 109.648 145.096 109.374ZM147.387 109.379C147.387 109.175 147.346 108.997 147.264 108.846C147.182 108.694 147.07 108.579 146.928 108.5C146.79 108.418 146.637 108.377 146.469 108.377C146.301 108.377 146.148 108.416 146.01 108.495C145.871 108.574 145.761 108.689 145.679 108.841C145.596 108.992 145.555 109.17 145.555 109.374C145.555 109.582 145.596 109.763 145.679 109.918C145.761 110.069 145.871 110.186 146.01 110.268C146.148 110.347 146.301 110.387 146.469 110.387C146.637 110.387 146.79 110.347 146.928 110.268C147.07 110.186 147.182 110.069 147.264 109.918C147.346 109.763 147.387 109.583 147.387 109.379ZM78.3978 115.295L77.2767 117.438V118.737H76.8273V117.438L75.7013 115.295H76.2001L77.0495 117.038L77.899 115.295H78.3978ZM81.7491 118.772C81.4297 118.772 81.1383 118.698 80.8749 118.55C80.6115 118.398 80.4025 118.189 80.2477 117.922C80.0963 117.652 80.0205 117.35 80.0205 117.014C80.0205 116.678 80.0963 116.377 80.2477 116.11C80.4025 115.84 80.6115 115.631 80.8749 115.483C81.1383 115.331 81.4297 115.256 81.7491 115.256C82.0717 115.256 82.3647 115.331 82.6281 115.483C82.8915 115.631 83.099 115.838 83.2504 116.105C83.4019 116.372 83.4776 116.675 83.4776 117.014C83.4776 117.353 83.4019 117.656 83.2504 117.922C83.099 118.189 82.8915 118.398 82.6281 118.55C82.3647 118.698 82.0717 118.772 81.7491 118.772ZM81.7491 118.382C81.9894 118.382 82.2051 118.326 82.396 118.214C82.5903 118.102 82.7417 117.942 82.8504 117.735C82.9623 117.527 83.0183 117.287 83.0183 117.014C83.0183 116.737 82.9623 116.497 82.8504 116.293C82.7417 116.085 82.5919 115.926 82.401 115.814C82.21 115.702 81.9927 115.646 81.7491 115.646C81.5054 115.646 81.2881 115.702 81.0972 115.814C80.9062 115.926 80.7547 116.085 80.6428 116.293C80.5342 116.497 80.4798 116.737 80.4798 117.014C80.4798 117.287 80.5342 117.527 80.6428 117.735C80.7547 117.942 80.9062 118.102 81.0972 118.214C81.2914 118.326 81.5087 118.382 81.7491 118.382ZM84.5203 116.535C84.6125 116.373 84.7475 116.242 84.9253 116.14C85.1031 116.038 85.3055 115.987 85.5327 115.987C85.7764 115.987 85.9953 116.044 86.1896 116.159C86.3838 116.275 86.5369 116.438 86.6489 116.648C86.7608 116.856 86.8168 117.098 86.8168 117.374C86.8168 117.648 86.7608 117.891 86.6489 118.105C86.5369 118.319 86.3822 118.485 86.1846 118.604C85.9904 118.723 85.7731 118.782 85.5327 118.782C85.299 118.782 85.0932 118.731 84.9154 118.629C84.7409 118.527 84.6092 118.397 84.5203 118.239V118.737H84.0709V115.083H84.5203V116.535ZM86.3575 117.374C86.3575 117.17 86.3163 116.992 86.234 116.841C86.1517 116.689 86.0398 116.574 85.8982 116.495C85.7599 116.416 85.6068 116.377 85.4389 116.377C85.2743 116.377 85.1212 116.418 84.9796 116.5C84.8413 116.579 84.7294 116.696 84.6438 116.851C84.5615 117.002 84.5203 117.178 84.5203 117.379C84.5203 117.583 84.5615 117.763 84.6438 117.918C84.7294 118.069 84.8413 118.186 84.9796 118.268C85.1212 118.347 85.2743 118.387 85.4389 118.387C85.6068 118.387 85.7599 118.347 85.8982 118.268C86.0398 118.186 86.1517 118.069 86.234 117.918C86.3163 117.763 86.3575 117.582 86.3575 117.374ZM87.9565 116.401V117.997C87.9565 118.128 87.9845 118.222 88.0405 118.278C88.0964 118.331 88.1936 118.357 88.3319 118.357H88.6627V118.737H88.2578C88.0076 118.737 87.8199 118.68 87.6948 118.564C87.5697 118.449 87.5071 118.26 87.5071 117.997V116.401H87.1565V116.031H87.5071V115.349H87.9565V116.031H88.6627V116.401H87.9565ZM91.6766 117.28C91.6766 117.366 91.6717 117.457 91.6618 117.552H89.4986C89.5151 117.819 89.6057 118.028 89.7703 118.179C89.9382 118.327 90.1407 118.402 90.3777 118.402C90.572 118.402 90.7333 118.357 90.8617 118.268C90.9934 118.176 91.0856 118.054 91.1383 117.903H91.6223C91.5498 118.163 91.405 118.375 91.1877 118.54C90.9704 118.701 90.7004 118.782 90.3777 118.782C90.1209 118.782 89.8904 118.724 89.6863 118.609C89.4855 118.494 89.3274 118.331 89.2122 118.12C89.097 117.906 89.0394 117.659 89.0394 117.379C89.0394 117.099 89.0953 116.854 89.2073 116.643C89.3192 116.433 89.4756 116.271 89.6764 116.159C89.8806 116.044 90.1143 115.987 90.3777 115.987C90.6345 115.987 90.8617 116.042 91.0593 116.154C91.2568 116.266 91.4083 116.421 91.5136 116.619C91.6223 116.813 91.6766 117.034 91.6766 117.28ZM91.2124 117.187C91.2124 117.015 91.1745 116.869 91.0988 116.747C91.023 116.622 90.9193 116.528 90.7876 116.466C90.6592 116.4 90.516 116.367 90.358 116.367C90.1308 116.367 89.9365 116.439 89.7752 116.584C89.6172 116.729 89.5266 116.93 89.5036 117.187H91.2124ZM90.842 115.265L89.79 115.828V115.493L90.842 114.875V115.265ZM93.5884 115.982C93.9177 115.982 94.1844 116.082 94.3885 116.283C94.5926 116.48 94.6947 116.767 94.6947 117.142V118.737H94.2502V117.206C94.2502 116.936 94.1827 116.731 94.0477 116.589C93.9127 116.444 93.7284 116.372 93.4946 116.372C93.2575 116.372 93.0682 116.446 92.9267 116.594C92.7884 116.742 92.7192 116.958 92.7192 117.241V118.737H92.2698V116.031H92.7192V116.416C92.8081 116.278 92.9283 116.171 93.0798 116.095C93.2345 116.019 93.4041 115.982 93.5884 115.982ZM98.3061 118.772C97.9867 118.772 97.6953 118.698 97.4319 118.55C97.1685 118.398 96.9595 118.189 96.8047 117.922C96.6533 117.652 96.5776 117.35 96.5776 117.014C96.5776 116.678 96.6533 116.377 96.8047 116.11C96.9595 115.84 97.1685 115.631 97.4319 115.483C97.6953 115.331 97.9867 115.256 98.3061 115.256C98.6287 115.256 98.9218 115.331 99.1852 115.483C99.4486 115.631 99.656 115.838 99.8074 116.105C99.9589 116.372 100.035 116.675 100.035 117.014C100.035 117.353 99.9589 117.656 99.8074 117.922C99.656 118.189 99.4486 118.398 99.1852 118.55C98.9218 118.698 98.6287 118.772 98.3061 118.772ZM98.3061 118.382C98.5464 118.382 98.7621 118.326 98.953 118.214C99.1473 118.102 99.2987 117.942 99.4074 117.735C99.5193 117.527 99.5753 117.287 99.5753 117.014C99.5753 116.737 99.5193 116.497 99.4074 116.293C99.2987 116.085 99.1489 115.926 98.958 115.814C98.767 115.702 98.5497 115.646 98.3061 115.646C98.0624 115.646 97.8451 115.702 97.6542 115.814C97.4632 115.926 97.3118 116.085 97.1998 116.293C97.0912 116.497 97.0368 116.737 97.0368 117.014C97.0368 117.287 97.0912 117.527 97.1998 117.735C97.3118 117.942 97.4632 118.102 97.6542 118.214C97.8484 118.326 98.0657 118.382 98.3061 118.382ZM101.729 116.401H101.161V118.737H100.712V116.401H100.361V116.031H100.712V115.838C100.712 115.535 100.789 115.315 100.944 115.177C101.102 115.035 101.354 114.964 101.7 114.964V115.34C101.502 115.34 101.362 115.379 101.28 115.458C101.201 115.534 101.161 115.661 101.161 115.838V116.031H101.729V116.401ZM104.723 117.28C104.723 117.366 104.718 117.457 104.708 117.552H102.545C102.561 117.819 102.652 118.028 102.816 118.179C102.984 118.327 103.187 118.402 103.424 118.402C103.618 118.402 103.779 118.357 103.908 118.268C104.039 118.176 104.132 118.054 104.184 117.903H104.668C104.596 118.163 104.451 118.375 104.234 118.54C104.016 118.701 103.746 118.782 103.424 118.782C103.167 118.782 102.936 118.724 102.732 118.609C102.531 118.494 102.373 118.331 102.258 118.12C102.143 117.906 102.085 117.659 102.085 117.379C102.085 117.099 102.141 116.854 102.253 116.643C102.365 116.433 102.522 116.271 102.722 116.159C102.927 116.044 103.16 115.987 103.424 115.987C103.68 115.987 103.908 116.042 104.105 116.154C104.303 116.266 104.454 116.421 104.56 116.619C104.668 116.813 104.723 117.034 104.723 117.28ZM104.258 117.187C104.258 117.015 104.22 116.869 104.145 116.747C104.069 116.622 103.965 116.528 103.834 116.466C103.705 116.4 103.562 116.367 103.404 116.367C103.177 116.367 102.982 116.439 102.821 116.584C102.663 116.729 102.573 116.93 102.55 117.187H104.258ZM105.765 116.47C105.844 116.316 105.956 116.196 106.101 116.11C106.249 116.024 106.429 115.982 106.639 115.982V116.446H106.521C106.017 116.446 105.765 116.719 105.765 117.266V118.737H105.316V116.031H105.765V116.47ZM107.706 116.401V117.997C107.706 118.128 107.734 118.222 107.79 118.278C107.846 118.331 107.943 118.357 108.082 118.357H108.413V118.737H108.008C107.757 118.737 107.57 118.68 107.445 118.564C107.319 118.449 107.257 118.26 107.257 117.997V116.401H106.906V116.031H107.257V115.349H107.706V116.031H108.413V116.401H107.706ZM108.789 117.374C108.789 117.098 108.845 116.856 108.957 116.648C109.069 116.438 109.222 116.275 109.416 116.159C109.614 116.044 109.833 115.987 110.073 115.987C110.31 115.987 110.516 116.038 110.691 116.14C110.865 116.242 110.995 116.37 111.081 116.525V116.031H111.535V118.737H111.081V118.234C110.992 118.392 110.858 118.523 110.681 118.629C110.506 118.731 110.302 118.782 110.068 118.782C109.828 118.782 109.611 118.723 109.416 118.604C109.222 118.485 109.069 118.319 108.957 118.105C108.845 117.891 108.789 117.648 108.789 117.374ZM111.081 117.379C111.081 117.175 111.04 116.997 110.957 116.846C110.875 116.694 110.763 116.579 110.621 116.5C110.483 116.418 110.33 116.377 110.162 116.377C109.994 116.377 109.841 116.416 109.703 116.495C109.565 116.574 109.454 116.689 109.372 116.841C109.29 116.992 109.248 117.17 109.248 117.374C109.248 117.582 109.29 117.763 109.372 117.918C109.454 118.069 109.565 118.186 109.703 118.268C109.841 118.347 109.994 118.387 110.162 118.387C110.33 118.387 110.483 118.347 110.621 118.268C110.763 118.186 110.875 118.069 110.957 117.918C111.04 117.763 111.081 117.583 111.081 117.379ZM113.253 118.782C113.045 118.782 112.859 118.747 112.695 118.678C112.53 118.606 112.4 118.507 112.304 118.382C112.209 118.253 112.156 118.107 112.146 117.942H112.611C112.624 118.077 112.686 118.187 112.798 118.273C112.913 118.359 113.063 118.402 113.248 118.402C113.419 118.402 113.554 118.364 113.653 118.288C113.751 118.212 113.801 118.117 113.801 118.001C113.801 117.883 113.748 117.796 113.643 117.74C113.537 117.68 113.374 117.623 113.154 117.567C112.953 117.514 112.788 117.462 112.66 117.409C112.535 117.353 112.426 117.272 112.334 117.167C112.245 117.058 112.201 116.917 112.201 116.742C112.201 116.604 112.242 116.477 112.324 116.362C112.406 116.247 112.523 116.156 112.675 116.09C112.826 116.021 112.999 115.987 113.193 115.987C113.493 115.987 113.735 116.062 113.919 116.214C114.104 116.365 114.202 116.573 114.216 116.836H113.766C113.756 116.694 113.699 116.581 113.593 116.495C113.491 116.41 113.353 116.367 113.179 116.367C113.017 116.367 112.889 116.401 112.793 116.47C112.698 116.54 112.65 116.63 112.65 116.742C112.65 116.831 112.678 116.905 112.734 116.964C112.793 117.02 112.866 117.066 112.951 117.103C113.04 117.136 113.162 117.173 113.317 117.216C113.511 117.269 113.669 117.322 113.791 117.374C113.913 117.424 114.016 117.499 114.102 117.601C114.191 117.704 114.237 117.837 114.24 118.001C114.24 118.15 114.199 118.283 114.117 118.402C114.035 118.52 113.918 118.614 113.766 118.683C113.618 118.749 113.447 118.782 113.253 118.782ZM116.641 115.661V116.811H117.895V117.182H116.641V118.367H118.043V118.737H116.191V115.29H118.043V115.661H116.641ZM120.136 118.737L119.494 117.73L118.877 118.737H118.407L119.281 117.394L118.407 116.031H118.916L119.558 117.034L120.17 116.031H120.64L119.77 117.369L120.645 118.737H120.136ZM120.919 117.379C120.919 117.099 120.975 116.856 121.087 116.648C121.199 116.438 121.353 116.275 121.551 116.159C121.752 116.044 121.981 115.987 122.237 115.987C122.57 115.987 122.843 116.067 123.057 116.229C123.274 116.39 123.418 116.614 123.487 116.9H123.003C122.957 116.736 122.866 116.605 122.731 116.51C122.6 116.415 122.435 116.367 122.237 116.367C121.981 116.367 121.773 116.456 121.615 116.633C121.457 116.808 121.378 117.057 121.378 117.379C121.378 117.705 121.457 117.957 121.615 118.135C121.773 118.313 121.981 118.402 122.237 118.402C122.435 118.402 122.6 118.355 122.731 118.263C122.863 118.171 122.953 118.039 123.003 117.868H123.487C123.414 118.145 123.27 118.367 123.052 118.535C122.835 118.699 122.563 118.782 122.237 118.782C121.981 118.782 121.752 118.724 121.551 118.609C121.353 118.494 121.199 118.331 121.087 118.12C120.975 117.909 120.919 117.662 120.919 117.379ZM124.536 115.083V118.737H124.086V115.083H124.536ZM127.702 116.031V118.737H127.253V118.337C127.167 118.476 127.047 118.584 126.892 118.663C126.741 118.739 126.573 118.777 126.388 118.777C126.178 118.777 125.988 118.734 125.82 118.648C125.653 118.56 125.519 118.428 125.42 118.253C125.325 118.079 125.277 117.866 125.277 117.616V116.031H125.722V117.557C125.722 117.824 125.789 118.029 125.924 118.174C126.059 118.316 126.243 118.387 126.477 118.387C126.718 118.387 126.907 118.313 127.045 118.164C127.183 118.016 127.253 117.801 127.253 117.517V116.031H127.702ZM129.419 118.782C129.212 118.782 129.026 118.747 128.861 118.678C128.696 118.606 128.566 118.507 128.471 118.382C128.375 118.253 128.323 118.107 128.313 117.942H128.777C128.79 118.077 128.853 118.187 128.965 118.273C129.08 118.359 129.23 118.402 129.414 118.402C129.585 118.402 129.72 118.364 129.819 118.288C129.918 118.212 129.967 118.117 129.967 118.001C129.967 117.883 129.914 117.796 129.809 117.74C129.704 117.68 129.541 117.623 129.32 117.567C129.119 117.514 128.955 117.462 128.826 117.409C128.701 117.353 128.593 117.272 128.5 117.167C128.411 117.058 128.367 116.917 128.367 116.742C128.367 116.604 128.408 116.477 128.49 116.362C128.573 116.247 128.69 116.156 128.841 116.09C128.993 116.021 129.165 115.987 129.36 115.987C129.659 115.987 129.901 116.062 130.086 116.214C130.27 116.365 130.369 116.573 130.382 116.836H129.933C129.923 116.694 129.865 116.581 129.76 116.495C129.658 116.41 129.519 116.367 129.345 116.367C129.184 116.367 129.055 116.401 128.96 116.47C128.864 116.54 128.816 116.63 128.816 116.742C128.816 116.831 128.844 116.905 128.9 116.964C128.96 117.02 129.032 117.066 129.118 117.103C129.207 117.136 129.328 117.173 129.483 117.216C129.677 117.269 129.835 117.322 129.957 117.374C130.079 117.424 130.183 117.499 130.268 117.601C130.357 117.704 130.403 117.837 130.407 118.001C130.407 118.15 130.366 118.283 130.283 118.402C130.201 118.52 130.084 118.614 129.933 118.683C129.784 118.749 129.613 118.782 129.419 118.782ZM131.273 115.591C131.188 115.591 131.115 115.562 131.056 115.503C130.997 115.443 130.967 115.371 130.967 115.285C130.967 115.2 130.997 115.127 131.056 115.068C131.115 115.009 131.188 114.979 131.273 114.979C131.356 114.979 131.425 115.009 131.481 115.068C131.54 115.127 131.57 115.2 131.57 115.285C131.57 115.371 131.54 115.443 131.481 115.503C131.425 115.562 131.356 115.591 131.273 115.591ZM131.491 116.031V118.737H131.041V116.031H131.491ZM133.264 118.322L134.104 116.031H134.583L133.521 118.737H132.997L131.935 116.031H132.419L133.264 118.322ZM134.857 117.374C134.857 117.098 134.913 116.856 135.025 116.648C135.137 116.438 135.29 116.275 135.484 116.159C135.682 116.044 135.901 115.987 136.141 115.987C136.378 115.987 136.584 116.038 136.758 116.14C136.933 116.242 137.063 116.37 137.148 116.525V116.031H137.603V118.737H137.148V118.234C137.06 118.392 136.926 118.523 136.748 118.629C136.574 118.731 136.37 118.782 136.136 118.782C135.896 118.782 135.678 118.723 135.484 118.604C135.29 118.485 135.137 118.319 135.025 118.105C134.913 117.891 134.857 117.648 134.857 117.374ZM137.148 117.379C137.148 117.175 137.107 116.997 137.025 116.846C136.943 116.694 136.831 116.579 136.689 116.5C136.551 116.418 136.398 116.377 136.23 116.377C136.062 116.377 135.909 116.416 135.771 116.495C135.632 116.574 135.522 116.689 135.44 116.841C135.357 116.992 135.316 117.17 135.316 117.374C135.316 117.582 135.357 117.763 135.44 117.918C135.522 118.069 135.632 118.186 135.771 118.268C135.909 118.347 136.062 118.387 136.23 118.387C136.398 118.387 136.551 118.347 136.689 118.268C136.831 118.186 136.943 118.069 137.025 117.918C137.107 117.763 137.148 117.583 137.148 117.379ZM139.32 118.782C139.113 118.782 138.927 118.747 138.762 118.678C138.598 118.606 138.468 118.507 138.372 118.382C138.277 118.253 138.224 118.107 138.214 117.942H138.678C138.692 118.077 138.754 118.187 138.866 118.273C138.981 118.359 139.131 118.402 139.315 118.402C139.487 118.402 139.622 118.364 139.72 118.288C139.819 118.212 139.869 118.117 139.869 118.001C139.869 117.883 139.816 117.796 139.711 117.74C139.605 117.68 139.442 117.623 139.222 117.567C139.021 117.514 138.856 117.462 138.728 117.409C138.603 117.353 138.494 117.272 138.402 117.167C138.313 117.058 138.268 116.917 138.268 116.742C138.268 116.604 138.31 116.477 138.392 116.362C138.474 116.247 138.591 116.156 138.743 116.09C138.894 116.021 139.067 115.987 139.261 115.987C139.561 115.987 139.803 116.062 139.987 116.214C140.171 116.365 140.27 116.573 140.283 116.836H139.834C139.824 116.694 139.766 116.581 139.661 116.495C139.559 116.41 139.421 116.367 139.246 116.367C139.085 116.367 138.957 116.401 138.861 116.47C138.766 116.54 138.718 116.63 138.718 116.742C138.718 116.831 138.746 116.905 138.802 116.964C138.861 117.02 138.934 117.066 139.019 117.103C139.108 117.136 139.23 117.173 139.385 117.216C139.579 117.269 139.737 117.322 139.859 117.374C139.981 117.424 140.084 117.499 140.17 117.601C140.259 117.704 140.305 117.837 140.308 118.001C140.308 118.15 140.267 118.283 140.185 118.402C140.102 118.52 139.985 118.614 139.834 118.683C139.686 118.749 139.515 118.782 139.32 118.782Z" fill="#0270C7"/>
<g filter="url(#filter1_d_1665_27162)">
<rect x="44" y="42.5078" width="161" height="31.6074" rx="2" fill="white"/>
</g>
<path d="M78.2279 61.0164C77.4443 61.0164 76.845 60.7836 76.4302 60.3181C76.0154 59.8479 75.8079 59.2072 75.8079 58.3959C75.8079 57.8613 75.9163 57.3957 76.1329 56.9993C76.3541 56.5983 76.6561 56.2894 77.0386 56.0728C77.4212 55.8562 77.8545 55.7478 78.3385 55.7478C78.5413 55.7478 78.7372 55.7617 78.9262 55.7893C79.1152 55.8124 79.3387 55.8446 79.5969 55.8861C79.7905 55.9184 79.8965 55.9345 79.9149 55.9345L79.8389 57.3588H79.2028L78.9884 56.3701C78.9377 56.3194 78.8501 56.2779 78.7257 56.2457C78.6012 56.2134 78.4422 56.1973 78.2486 56.1973C77.8568 56.1973 77.5411 56.3793 77.3014 56.7435C77.0663 57.103 76.9488 57.6262 76.9488 58.313C76.9488 58.9767 77.0617 59.5183 77.2876 59.9378C77.5134 60.3572 77.843 60.567 78.2763 60.567C78.4837 60.567 78.6427 60.5485 78.7533 60.5117C78.8686 60.4702 78.9654 60.4126 79.0437 60.3388L79.348 59.6267L79.9287 59.682L79.7905 60.7537C79.6937 60.7629 79.5969 60.7813 79.5001 60.809C79.4079 60.832 79.3503 60.8458 79.3272 60.8505C79.1428 60.9012 78.97 60.9403 78.8087 60.968C78.6519 61.0003 78.4583 61.0164 78.2279 61.0164ZM83.5877 61.0095C83.4356 61.0095 83.325 60.9772 83.2558 60.9127C83.1867 60.8481 83.1521 60.7514 83.1521 60.6223V60.4356C83.0277 60.5877 82.8525 60.7237 82.6266 60.8435C82.4008 60.9588 82.1749 61.0164 81.9491 61.0164C81.5066 61.0164 81.1908 60.9035 81.0018 60.6776C80.8128 60.4471 80.7184 60.0692 80.7184 59.5437V57.5939L80.3726 57.4971V57.103L81.548 57.0131H81.555L81.6932 57.1099V59.5437C81.6932 59.8802 81.7347 60.1153 81.8177 60.2489C81.9007 60.3826 82.0551 60.4494 82.2809 60.4494C82.5529 60.4494 82.8064 60.3434 83.0415 60.1314V57.5939L82.5782 57.4902V57.103L83.8297 57.0131H83.8435L84.0095 57.1099V60.5117H84.3967L84.3897 60.9058C84.3713 60.9104 84.286 60.9288 84.1339 60.9611C83.9818 60.9933 83.7997 61.0095 83.5877 61.0095ZM86.6277 61.0164C86.0192 61.0164 85.5652 60.8389 85.2656 60.484C84.9706 60.1245 84.8231 59.6359 84.8231 59.0182C84.8231 58.6034 84.8991 58.2438 85.0512 57.9396C85.208 57.6354 85.4269 57.4026 85.7081 57.2413C85.9892 57.08 86.3142 56.9993 86.683 56.9993C87.1439 56.9993 87.4988 57.1214 87.7477 57.3657C87.9966 57.6054 88.1257 57.9488 88.1349 58.3959C88.1349 58.7002 88.1165 58.926 88.0796 59.0735H85.8325C85.851 59.493 85.9501 59.8203 86.1298 60.0553C86.3096 60.2858 86.5654 60.401 86.8973 60.401C87.0771 60.401 87.2614 60.3711 87.4504 60.3112C87.644 60.2512 87.7961 60.1798 87.9068 60.0968L88.0796 60.4771C87.9552 60.6108 87.7523 60.7352 87.4712 60.8505C87.1946 60.9611 86.9134 61.0164 86.6277 61.0164ZM87.167 58.6587C87.1762 58.5296 87.1808 58.4305 87.1808 58.3614C87.1808 57.7483 86.9757 57.4418 86.5654 57.4418C86.3396 57.4418 86.1644 57.5317 86.04 57.7114C85.9155 57.8912 85.8464 58.207 85.8325 58.6587H87.167ZM89.0739 57.7529L88.6314 57.6285V57.1514L89.7791 57.0062H89.7999L89.9727 57.1445V57.4141L89.9658 57.5801C90.1271 57.428 90.3369 57.2966 90.595 57.186C90.8531 57.0754 91.1136 57.02 91.3763 57.02C91.6575 57.02 91.8764 57.073 92.0331 57.1791C92.1945 57.2805 92.3097 57.4418 92.3788 57.663C92.448 57.8843 92.4826 58.1839 92.4826 58.5619V60.4702L92.9043 60.5255V60.9403H91.1205V60.5255L91.4938 60.4702V58.5619C91.4938 58.3222 91.4777 58.1355 91.4454 58.0018C91.4132 57.8636 91.3532 57.7645 91.2657 57.7045C91.1827 57.64 91.0629 57.6077 90.9061 57.6077C90.6434 57.6077 90.3622 57.7207 90.0626 57.9465V60.4633L90.4775 60.5255V60.9403H88.6729V60.5255L89.0739 60.4633V57.7529ZM94.5545 61.0026C94.2641 61.0026 94.0497 60.9357 93.9114 60.8021C93.7732 60.6684 93.704 60.4564 93.704 60.166V57.6285H93.2546V57.2689C93.2915 57.2551 93.3583 57.2321 93.4551 57.1998C93.5519 57.1629 93.6257 57.133 93.6764 57.1099C93.7547 57.05 93.8216 56.9463 93.8769 56.7988C93.9184 56.702 93.9944 56.4623 94.105 56.0797H94.6582L94.6858 57.0961H95.7437V57.6285H94.6927V59.5713C94.6927 59.8295 94.6997 60.0115 94.7135 60.1176C94.7273 60.2236 94.7573 60.2927 94.8034 60.325C94.8495 60.3526 94.9301 60.3665 95.0454 60.3665C95.1606 60.3665 95.2804 60.3549 95.4049 60.3319C95.5294 60.3042 95.6331 60.272 95.716 60.2351L95.8474 60.6223C95.7183 60.7191 95.5294 60.8067 95.2804 60.885C95.0315 60.9634 94.7895 61.0026 94.5545 61.0026ZM96.1392 59.8617C96.1392 59.4423 96.3489 59.1265 96.7684 58.9145C97.1924 58.7025 97.7387 58.5941 98.407 58.5895V58.4305C98.407 58.2415 98.3863 58.094 98.3448 57.988C98.3079 57.882 98.2365 57.8036 98.1305 57.7529C98.0291 57.6976 97.8792 57.67 97.681 57.67C97.4552 57.67 97.2524 57.6999 97.0726 57.7598C96.8928 57.8152 96.7062 57.8889 96.5126 57.9811L96.2982 57.5386C96.3674 57.4787 96.4826 57.4072 96.6439 57.3243C96.8099 57.2413 97.0058 57.1698 97.2316 57.1099C97.4575 57.0454 97.6903 57.0131 97.93 57.0131C98.2849 57.0131 98.5614 57.0592 98.7596 57.1514C98.9625 57.2436 99.1077 57.3911 99.1952 57.5939C99.2828 57.7967 99.3266 58.0687 99.3266 58.4098V60.5255H99.7V60.9127C99.6078 60.9357 99.4764 60.9588 99.3059 60.9818C99.1353 61.0049 98.9855 61.0164 98.8564 61.0164C98.6997 61.0164 98.5937 60.9933 98.5384 60.9473C98.4877 60.9012 98.4623 60.8067 98.4623 60.6638V60.4771C98.3379 60.6154 98.1766 60.7398 97.9784 60.8505C97.7801 60.9611 97.5566 61.0164 97.3077 61.0164C97.0956 61.0164 96.8997 60.9726 96.72 60.885C96.5448 60.7928 96.4042 60.6615 96.2982 60.4909C96.1922 60.3158 96.1392 60.106 96.1392 59.8617ZM97.7502 60.4425C97.847 60.4425 97.9576 60.4149 98.0821 60.3596C98.2065 60.2996 98.3148 60.2282 98.407 60.1452V59.0113C97.9922 59.0113 97.681 59.0827 97.4736 59.2256C97.2708 59.3639 97.1694 59.5437 97.1694 59.7649C97.1694 59.9862 97.2201 60.1544 97.3215 60.2697C97.4275 60.3849 97.5704 60.4425 97.7502 60.4425ZM102.277 56.3217L101.738 56.2318V55.8032H102.768C102.925 55.8032 103.127 55.7939 103.376 55.7755C103.436 55.7709 103.508 55.7663 103.591 55.7617C103.674 55.7571 103.77 55.7548 103.881 55.7548C104.577 55.7548 105.063 55.8539 105.34 56.0521C105.621 56.2457 105.762 56.536 105.762 56.9232C105.762 57.2643 105.658 57.5501 105.451 57.7806C105.248 58.0065 104.98 58.1447 104.648 58.1954C105.105 58.1908 105.462 58.2945 105.72 58.5066C105.983 58.7186 106.114 59.0136 106.114 59.3916C106.114 59.871 105.946 60.2558 105.61 60.5462C105.273 60.8366 104.711 60.9818 103.922 60.9818C103.715 60.9818 103.524 60.9749 103.349 60.9611C103.303 60.9611 103.224 60.9565 103.114 60.9473C103.003 60.9426 102.89 60.9403 102.775 60.9403H101.731V60.5255L102.277 60.4564V56.3217ZM103.279 58.0433C103.33 58.0479 103.434 58.0502 103.591 58.0502H103.916C104.197 58.0502 104.406 57.9627 104.545 57.7875C104.683 57.6123 104.752 57.3657 104.752 57.0477C104.752 56.7435 104.681 56.5222 104.538 56.3839C104.395 56.2457 104.158 56.1765 103.826 56.1765C103.738 56.1765 103.556 56.1857 103.279 56.2042V58.0433ZM103.279 60.484C103.385 60.5255 103.588 60.5462 103.888 60.5462C104.28 60.5462 104.563 60.454 104.738 60.2697C104.914 60.0853 105.001 59.8179 105.001 59.4676C105.001 59.1311 104.92 58.8915 104.759 58.7486C104.602 58.6011 104.351 58.5273 104.005 58.5273C103.618 58.5273 103.376 58.5319 103.279 58.5411V60.484ZM106.571 59.8617C106.571 59.4423 106.781 59.1265 107.2 58.9145C107.624 58.7025 108.171 58.5941 108.839 58.5895V58.4305C108.839 58.2415 108.818 58.094 108.777 57.988C108.74 57.882 108.668 57.8036 108.562 57.7529C108.461 57.6976 108.311 57.67 108.113 57.67C107.887 57.67 107.684 57.6999 107.505 57.7598C107.325 57.8152 107.138 57.8889 106.944 57.9811L106.73 57.5386C106.799 57.4787 106.915 57.4072 107.076 57.3243C107.242 57.2413 107.438 57.1698 107.664 57.1099C107.889 57.0454 108.122 57.0131 108.362 57.0131C108.717 57.0131 108.993 57.0592 109.192 57.1514C109.394 57.2436 109.54 57.3911 109.627 57.5939C109.715 57.7967 109.759 58.0687 109.759 58.4098V60.5255H110.132V60.9127C110.04 60.9357 109.908 60.9588 109.738 60.9818C109.567 61.0049 109.417 61.0164 109.288 61.0164C109.132 61.0164 109.026 60.9933 108.97 60.9473C108.92 60.9012 108.894 60.8067 108.894 60.6638V60.4771C108.77 60.6154 108.608 60.7398 108.41 60.8505C108.212 60.9611 107.989 61.0164 107.74 61.0164C107.528 61.0164 107.332 60.9726 107.152 60.885C106.977 60.7928 106.836 60.6615 106.73 60.4909C106.624 60.3158 106.571 60.106 106.571 59.8617ZM108.182 60.4425C108.279 60.4425 108.39 60.4149 108.514 60.3596C108.638 60.2996 108.747 60.2282 108.839 60.1452V59.0113C108.424 59.0113 108.113 59.0827 107.906 59.2256C107.703 59.3639 107.601 59.5437 107.601 59.7649C107.601 59.9862 107.652 60.1544 107.753 60.2697C107.859 60.3849 108.002 60.4425 108.182 60.4425ZM110.951 57.7529L110.508 57.6285V57.1514L111.656 57.0062H111.677L111.849 57.1445V57.4141L111.842 57.5801C112.004 57.428 112.214 57.2966 112.472 57.186C112.73 57.0754 112.99 57.02 113.253 57.02C113.534 57.02 113.753 57.073 113.91 57.1791C114.071 57.2805 114.186 57.4418 114.256 57.663C114.325 57.8843 114.359 58.1839 114.359 58.5619V60.4702L114.781 60.5255V60.9403H112.997V60.5255L113.371 60.4702V58.5619C113.371 58.3222 113.354 58.1355 113.322 58.0018C113.29 57.8636 113.23 57.7645 113.142 57.7045C113.059 57.64 112.94 57.6077 112.783 57.6077C112.52 57.6077 112.239 57.7207 111.939 57.9465V60.4633L112.354 60.5255V60.9403H110.55V60.5255L110.951 60.4633V57.7529ZM115.18 59.039C115.18 58.6425 115.258 58.2899 115.415 57.9811C115.576 57.6723 115.804 57.4326 116.099 57.262C116.399 57.0869 116.747 56.9993 117.143 56.9993C117.328 56.9993 117.487 57.0131 117.62 57.0408C117.754 57.0684 117.904 57.1053 118.07 57.1514L118.27 57.2067L118.229 58.389H117.627L117.454 57.6285C117.427 57.5086 117.291 57.4487 117.046 57.4487C116.788 57.4487 116.586 57.5616 116.438 57.7875C116.295 58.0134 116.221 58.366 116.217 58.8454C116.217 59.3524 116.304 59.7419 116.48 60.0138C116.655 60.2812 116.887 60.4149 117.178 60.4149C117.528 60.4149 117.851 60.3204 118.146 60.1314L118.305 60.4909C118.185 60.62 118.001 60.7398 117.752 60.8505C117.507 60.9611 117.242 61.0164 116.957 61.0164C116.367 61.0164 115.922 60.8343 115.622 60.4702C115.327 60.106 115.18 59.629 115.18 59.039ZM118.779 59.8617C118.779 59.4423 118.989 59.1265 119.408 58.9145C119.832 58.7025 120.378 58.5941 121.047 58.5895V58.4305C121.047 58.2415 121.026 58.094 120.984 57.988C120.948 57.882 120.876 57.8036 120.77 57.7529C120.669 57.6976 120.519 57.67 120.321 57.67C120.095 57.67 119.892 57.6999 119.712 57.7598C119.532 57.8152 119.346 57.8889 119.152 57.9811L118.938 57.5386C119.007 57.4787 119.122 57.4072 119.284 57.3243C119.45 57.2413 119.645 57.1698 119.871 57.1099C120.097 57.0454 120.33 57.0131 120.57 57.0131C120.925 57.0131 121.201 57.0592 121.399 57.1514C121.602 57.2436 121.747 57.3911 121.835 57.5939C121.922 57.7967 121.966 58.0687 121.966 58.4098V60.5255H122.34V60.9127C122.247 60.9357 122.116 60.9588 121.946 60.9818C121.775 61.0049 121.625 61.0164 121.496 61.0164C121.339 61.0164 121.233 60.9933 121.178 60.9473C121.127 60.9012 121.102 60.8067 121.102 60.6638V60.4771C120.978 60.6154 120.816 60.7398 120.618 60.8505C120.42 60.9611 120.196 61.0164 119.947 61.0164C119.735 61.0164 119.539 60.9726 119.36 60.885C119.184 60.7928 119.044 60.6615 118.938 60.4909C118.832 60.3158 118.779 60.106 118.779 59.8617ZM120.39 60.4425C120.487 60.4425 120.597 60.4149 120.722 60.3596C120.846 60.2996 120.954 60.2282 121.047 60.1452V59.0113C120.632 59.0113 120.321 59.0827 120.113 59.2256C119.91 59.3639 119.809 59.5437 119.809 59.7649C119.809 59.9862 119.86 60.1544 119.961 60.2697C120.067 60.3849 120.21 60.4425 120.39 60.4425ZM122.771 60.5324L123.227 60.4771V57.7529L122.785 57.6285V57.1514L123.857 57.0062H123.877L124.05 57.1445V57.2966L124.029 57.8566H124.05C124.082 57.7645 124.159 57.6515 124.278 57.5179C124.398 57.3796 124.548 57.2597 124.728 57.1583C124.912 57.0523 125.11 56.9993 125.322 56.9993C125.424 56.9993 125.511 57.0131 125.585 57.0408V58.0779C125.447 57.9811 125.279 57.9327 125.08 57.9327C124.744 57.9327 124.451 58.0226 124.202 58.2024V60.4702L125.004 60.5324V60.9403H122.771V60.5324ZM126.848 56.4669C126.682 56.4669 126.551 56.4185 126.454 56.3217C126.357 56.2249 126.309 56.1005 126.309 55.9483C126.309 55.7732 126.364 55.628 126.475 55.5128C126.586 55.3975 126.733 55.3399 126.918 55.3399C127.102 55.3399 127.242 55.3906 127.339 55.492C127.436 55.5888 127.484 55.711 127.484 55.8585C127.484 56.0428 127.429 56.1903 127.319 56.301C127.208 56.4116 127.053 56.4669 126.855 56.4669H126.848ZM126.482 57.7529L125.991 57.6216V57.1583L127.256 57.0062H127.27L127.464 57.1445V60.4702L127.927 60.5255V60.9403H125.998V60.5255L126.482 60.4633V57.7529ZM128.347 59.8617C128.347 59.4423 128.556 59.1265 128.976 58.9145C129.4 58.7025 129.946 58.5941 130.614 58.5895V58.4305C130.614 58.2415 130.594 58.094 130.552 57.988C130.515 57.882 130.444 57.8036 130.338 57.7529C130.236 57.6976 130.087 57.67 129.888 57.67C129.663 57.67 129.46 57.6999 129.28 57.7598C129.1 57.8152 128.913 57.8889 128.72 57.9811L128.506 57.5386C128.575 57.4787 128.69 57.4072 128.851 57.3243C129.017 57.2413 129.213 57.1698 129.439 57.1099C129.665 57.0454 129.898 57.0131 130.137 57.0131C130.492 57.0131 130.769 57.0592 130.967 57.1514C131.17 57.2436 131.315 57.3911 131.403 57.5939C131.49 57.7967 131.534 58.0687 131.534 58.4098V60.5255H131.907V60.9127C131.815 60.9357 131.684 60.9588 131.513 60.9818C131.343 61.0049 131.193 61.0164 131.064 61.0164C130.907 61.0164 130.801 60.9933 130.746 60.9473C130.695 60.9012 130.67 60.8067 130.67 60.6638V60.4771C130.545 60.6154 130.384 60.7398 130.186 60.8505C129.987 60.9611 129.764 61.0164 129.515 61.0164C129.303 61.0164 129.107 60.9726 128.927 60.885C128.752 60.7928 128.612 60.6615 128.506 60.4909C128.4 60.3158 128.347 60.106 128.347 59.8617ZM129.958 60.4425C130.054 60.4425 130.165 60.4149 130.289 60.3596C130.414 60.2996 130.522 60.2282 130.614 60.1452V59.0113C130.2 59.0113 129.888 59.0827 129.681 59.2256C129.478 59.3639 129.377 59.5437 129.377 59.7649C129.377 59.9862 129.427 60.1544 129.529 60.2697C129.635 60.3849 129.778 60.4425 129.958 60.4425Z" fill="#28262B"/>
<path d="M67.9638 56.7825C68.1259 56.7825 68.2815 56.7181 68.3962 56.6034C68.5108 56.4888 68.5752 56.3332 68.5752 56.171V54.3366C68.5752 54.2083 68.5348 54.0833 68.4598 53.9792C68.3847 53.8752 68.2788 53.7974 68.157 53.7569L62.6537 51.9225C62.5283 51.8808 62.3927 51.8808 62.2672 51.9225L56.764 53.7569C56.6422 53.7974 56.5363 53.8752 56.4612 53.9792C56.3861 54.0833 56.3457 54.2083 56.3457 54.3366V56.171C56.3457 56.3332 56.4101 56.4888 56.5248 56.6034C56.6395 56.7181 56.795 56.7825 56.9572 56.7825H57.5687V61.1754C57.212 61.301 56.9029 61.534 56.684 61.8423C56.465 62.1506 56.3468 62.5191 56.3457 62.8973V64.1202C56.3457 64.2824 56.4101 64.438 56.5248 64.5526C56.6395 64.6673 56.795 64.7317 56.9572 64.7317H67.9638C68.1259 64.7317 68.2815 64.6673 68.3962 64.5526C68.5108 64.438 68.5752 64.2824 68.5752 64.1202V62.8973C68.5741 62.5191 68.456 62.1506 68.237 61.8423C68.018 61.534 67.709 61.301 67.3523 61.1754V56.7825H67.9638ZM67.3523 63.5088H57.5687V62.8973C57.5688 62.7352 57.6333 62.5797 57.7479 62.4651C57.8626 62.3505 58.018 62.286 58.1801 62.2858H66.7408C66.9029 62.286 67.0584 62.3505 67.173 62.4651C67.2877 62.5797 67.3521 62.7352 67.3523 62.8973V63.5088ZM58.7916 61.0629V56.7825H60.0146V61.0629H58.7916ZM61.2375 61.0629V56.7825H63.6834V61.0629H61.2375ZM64.9064 61.0629V56.7825H66.1293V61.0629H64.9064ZM57.5687 55.5596V54.7769L62.4605 53.1467L67.3523 54.7775V55.5596H57.5687Z" fill="#0270C7"/>
<path d="M190.583 58.105L188.591 60.0962C188.487 60.2016 188.428 60.3442 188.428 60.4928C188.428 60.6414 188.487 60.7839 188.591 60.8893C188.644 60.9421 188.706 60.9839 188.774 61.0125C188.843 61.041 188.916 61.0557 188.991 61.0557C189.065 61.0557 189.138 61.041 189.207 61.0125C189.276 60.9839 189.338 60.9421 189.39 60.8893L191.775 58.5043C191.828 58.4521 191.87 58.3898 191.898 58.3213C191.927 58.2527 191.941 58.1792 191.941 58.105C191.941 58.0307 191.927 57.9572 191.898 57.8886C191.87 57.8201 191.828 57.7579 191.775 57.7056L189.39 55.2925C189.337 55.2403 189.275 55.1991 189.207 55.1711C189.138 55.1431 189.065 55.1289 188.991 55.1294C188.917 55.1289 188.843 55.1431 188.775 55.1711C188.706 55.1991 188.644 55.2403 188.591 55.2925C188.487 55.3979 188.428 55.5404 188.428 55.689C188.428 55.8376 188.487 55.9802 188.591 56.0856L190.583 58.105Z" fill="#BFDAEE"/>
<g filter="url(#filter2_d_1665_27162)">
<rect x="44" y="3" width="161" height="31.6074" rx="2" fill="white"/>
</g>
<path d="M76.7137 16.8139L75.967 16.724V16.2953H78.1242L78.9469 19.2684L79.1405 20.0774L79.3065 19.2684L80.1223 16.2953H82.2588V16.724L81.5052 16.8139L82.0583 20.9416L82.6183 21.0177V21.4325H80.4127V21.0177L81.0212 20.9485L80.7169 17.9202L80.5856 16.6549L80.3298 17.7196L79.3272 21.2182H78.5943L77.571 17.8994L77.2184 16.6549L77.1147 17.9202L76.852 20.9485L77.5503 21.0177V21.4325H75.6282V21.0177L76.2089 20.9485L76.7137 16.8139ZM82.8714 20.3539C82.8714 19.9345 83.0811 19.6187 83.5006 19.4067C83.9246 19.1947 84.4709 19.0863 85.1392 19.0817V18.9227C85.1392 18.7337 85.1185 18.5862 85.077 18.4802C85.0401 18.3742 84.9687 18.2958 84.8627 18.2451C84.7613 18.1898 84.6114 18.1622 84.4132 18.1622C84.1874 18.1622 83.9846 18.1921 83.8048 18.252C83.625 18.3073 83.4384 18.3811 83.2448 18.4733L83.0304 18.0308C83.0996 17.9709 83.2148 17.8994 83.3761 17.8164C83.5421 17.7335 83.738 17.662 83.9638 17.6021C84.1897 17.5376 84.4225 17.5053 84.6622 17.5053C85.0171 17.5053 85.2936 17.5514 85.4918 17.6436C85.6947 17.7358 85.8399 17.8833 85.9274 18.0861C86.015 18.2889 86.0588 18.5609 86.0588 18.902V21.0177H86.4322V21.4049C86.34 21.4279 86.2086 21.451 86.0381 21.474C85.8675 21.4971 85.7177 21.5086 85.5886 21.5086C85.4319 21.5086 85.3259 21.4855 85.2706 21.4394C85.2199 21.3933 85.1945 21.2989 85.1945 21.156V20.9693C85.0701 21.1076 84.9088 21.232 84.7106 21.3426C84.5123 21.4533 84.2888 21.5086 84.0399 21.5086C83.8278 21.5086 83.6319 21.4648 83.4522 21.3772C83.277 21.285 83.1364 21.1537 83.0304 20.9831C82.9244 20.808 82.8714 20.5982 82.8714 20.3539ZM84.4824 20.9347C84.5792 20.9347 84.6898 20.9071 84.8143 20.8517C84.9387 20.7918 85.047 20.7204 85.1392 20.6374V19.5035C84.7244 19.5035 84.4132 19.5749 84.2058 19.7178C84.003 19.8561 83.9016 20.0359 83.9016 20.2571C83.9016 20.4784 83.9523 20.6466 84.0537 20.7619C84.1597 20.8771 84.3026 20.9347 84.4824 20.9347ZM87.6311 20.8656C87.668 20.9209 87.751 20.9739 87.88 21.0246C88.0137 21.0707 88.1474 21.0937 88.281 21.0937C88.4977 21.0937 88.659 21.0499 88.765 20.9624C88.8757 20.8702 88.931 20.7503 88.931 20.6028C88.931 20.4507 88.8641 20.3286 88.7305 20.2364C88.5968 20.1396 88.3709 20.022 88.0529 19.8838L87.8593 19.8008C87.5412 19.6671 87.3038 19.5058 87.1471 19.3168C86.9904 19.1278 86.912 18.8835 86.912 18.5839C86.912 18.3765 86.9743 18.1921 87.0987 18.0308C87.2232 17.8648 87.3983 17.7358 87.6242 17.6436C87.8501 17.5514 88.1105 17.5053 88.4055 17.5053C88.6221 17.5053 88.8065 17.5191 88.9586 17.5468C89.1153 17.5745 89.279 17.6113 89.4495 17.6574C89.5417 17.6897 89.6109 17.7081 89.6569 17.7127V18.6185H89.1107L88.9517 18.093C88.9241 18.0469 88.8618 18.0054 88.765 17.9686C88.6682 17.9317 88.5576 17.9132 88.4332 17.9132C88.2442 17.9132 88.0921 17.9547 87.9768 18.0377C87.8662 18.1161 87.8109 18.2267 87.8109 18.3696C87.8109 18.4986 87.8501 18.607 87.9284 18.6945C88.0068 18.7775 88.0921 18.842 88.1842 18.8881C88.2764 18.9342 88.447 19.0103 88.6959 19.1163C88.9448 19.2223 89.1499 19.3237 89.3112 19.4205C89.4772 19.5173 89.6132 19.6441 89.7192 19.8008C89.8298 19.9529 89.8851 20.1396 89.8851 20.3608C89.8851 20.7019 89.7514 20.9785 89.4841 21.1905C89.2168 21.4026 88.8319 21.5086 88.3294 21.5086C88.0944 21.5086 87.8823 21.4878 87.6933 21.4464C87.509 21.4049 87.2946 21.3496 87.0503 21.2804L86.8982 21.232V20.3194H87.4721L87.6311 20.8656ZM91.6106 21.4948C91.3202 21.4948 91.1058 21.4279 90.9676 21.2942C90.8293 21.1606 90.7601 20.9485 90.7601 20.6581V18.1207H90.3107V17.7611C90.3476 17.7473 90.4144 17.7243 90.5112 17.692C90.608 17.6551 90.6818 17.6252 90.7325 17.6021C90.8108 17.5422 90.8777 17.4385 90.933 17.291C90.9745 17.1942 91.0505 16.9545 91.1611 16.5719H91.7143L91.7419 17.5883H92.7998V18.1207H91.7488V20.0635C91.7488 20.3217 91.7558 20.5037 91.7696 20.6097C91.7834 20.7158 91.8134 20.7849 91.8595 20.8172C91.9056 20.8448 91.9862 20.8587 92.1015 20.8587C92.2167 20.8587 92.3365 20.8471 92.461 20.8241C92.5855 20.7964 92.6892 20.7642 92.7721 20.7273L92.9035 21.1145C92.7744 21.2113 92.5855 21.2989 92.3365 21.3772C92.0876 21.4556 91.8456 21.4948 91.6106 21.4948ZM95.0137 21.5086C94.4053 21.5086 93.9512 21.3311 93.6516 20.9762C93.3566 20.6167 93.2091 20.1281 93.2091 19.5104C93.2091 19.0956 93.2852 18.736 93.4373 18.4318C93.594 18.1276 93.813 17.8948 94.0941 17.7335C94.3753 17.5721 94.7003 17.4915 95.069 17.4915C95.53 17.4915 95.8849 17.6136 96.1338 17.8579C96.3827 18.0976 96.5118 18.441 96.521 18.8881C96.521 19.1924 96.5025 19.4182 96.4657 19.5657H94.2186C94.237 19.9852 94.3361 20.3124 94.5159 20.5475C94.6957 20.778 94.9515 20.8932 95.2834 20.8932C95.4631 20.8932 95.6475 20.8633 95.8365 20.8033C96.0301 20.7434 96.1822 20.672 96.2928 20.589L96.4657 20.9693C96.3412 21.103 96.1384 21.2274 95.8572 21.3426C95.5807 21.4533 95.2995 21.5086 95.0137 21.5086ZM95.553 19.1509C95.5622 19.0218 95.5668 18.9227 95.5668 18.8536C95.5668 18.2405 95.3617 17.934 94.9515 17.934C94.7256 17.934 94.5505 18.0239 94.426 18.2036C94.3016 18.3834 94.2324 18.6991 94.2186 19.1509H95.553ZM97.0728 21.0246L97.5291 20.9693V18.2451L97.0866 18.1207V17.6436L98.1583 17.4984H98.179L98.3519 17.6367V17.7888L98.3311 18.3488H98.3519C98.3841 18.2566 98.4602 18.1437 98.58 18.01C98.6999 17.8718 98.8497 17.7519 99.0295 17.6505C99.2138 17.5445 99.412 17.4915 99.6241 17.4915C99.7255 17.4915 99.8131 17.5053 99.8868 17.533V18.5701C99.7485 18.4733 99.5803 18.4249 99.3821 18.4249C99.0456 18.4249 98.7529 18.5148 98.504 18.6945V20.9624L99.306 21.0246V21.4325H97.0728V21.0246ZM100.237 19.5311C100.237 19.1347 100.316 18.7821 100.472 18.4733C100.634 18.1645 100.862 17.9248 101.157 17.7542C101.457 17.5791 101.805 17.4915 102.201 17.4915C102.385 17.4915 102.544 17.5053 102.678 17.533C102.812 17.5606 102.962 17.5975 103.127 17.6436L103.328 17.6989L103.286 18.8812H102.685L102.512 18.1207C102.484 18.0008 102.348 17.9409 102.104 17.9409C101.846 17.9409 101.643 18.0538 101.496 18.2797C101.353 18.5056 101.279 18.8582 101.274 19.3376C101.274 19.8446 101.362 20.2341 101.537 20.506C101.712 20.7734 101.945 20.9071 102.236 20.9071C102.586 20.9071 102.909 20.8126 103.204 20.6236L103.363 20.9831C103.243 21.1122 103.058 21.232 102.809 21.3426C102.565 21.4533 102.3 21.5086 102.014 21.5086C101.424 21.5086 100.979 21.3265 100.68 20.9624C100.385 20.5982 100.237 20.1211 100.237 19.5311ZM103.837 20.3539C103.837 19.9345 104.046 19.6187 104.466 19.4067C104.89 19.1947 105.436 19.0863 106.104 19.0817V18.9227C106.104 18.7337 106.084 18.5862 106.042 18.4802C106.005 18.3742 105.934 18.2958 105.828 18.2451C105.726 18.1898 105.577 18.1622 105.378 18.1622C105.153 18.1622 104.95 18.1921 104.77 18.252C104.59 18.3073 104.404 18.3811 104.21 18.4733L103.996 18.0308C104.065 17.9709 104.18 17.8994 104.341 17.8164C104.507 17.7335 104.703 17.662 104.929 17.6021C105.155 17.5376 105.388 17.5053 105.627 17.5053C105.982 17.5053 106.259 17.5514 106.457 17.6436C106.66 17.7358 106.805 17.8833 106.893 18.0861C106.98 18.2889 107.024 18.5609 107.024 18.902V21.0177H107.397V21.4049C107.305 21.4279 107.174 21.451 107.003 21.474C106.833 21.4971 106.683 21.5086 106.554 21.5086C106.397 21.5086 106.291 21.4855 106.236 21.4394C106.185 21.3933 106.16 21.2989 106.16 21.156V20.9693C106.035 21.1076 105.874 21.232 105.676 21.3426C105.477 21.4533 105.254 21.5086 105.005 21.5086C104.793 21.5086 104.597 21.4648 104.417 21.3772C104.242 21.285 104.102 21.1537 103.996 20.9831C103.89 20.808 103.837 20.5982 103.837 20.3539ZM105.448 20.9347C105.544 20.9347 105.655 20.9071 105.779 20.8517C105.904 20.7918 106.012 20.7204 106.104 20.6374V19.5035C105.69 19.5035 105.378 19.5749 105.171 19.7178C104.968 19.8561 104.867 20.0359 104.867 20.2571C104.867 20.4784 104.917 20.6466 105.019 20.7619C105.125 20.8771 105.268 20.9347 105.448 20.9347ZM107.829 21.0246L108.285 20.9693V18.2451L107.843 18.1207V17.6436L108.914 17.4984H108.935L109.108 17.6367V17.7888L109.087 18.3488H109.108C109.14 18.2566 109.216 18.1437 109.336 18.01C109.456 17.8718 109.606 17.7519 109.785 17.6505C109.97 17.5445 110.168 17.4915 110.38 17.4915C110.482 17.4915 110.569 17.5053 110.643 17.533V18.5701C110.505 18.4733 110.336 18.4249 110.138 18.4249C109.802 18.4249 109.509 18.5148 109.26 18.6945V20.9624L110.062 21.0246V21.4325H107.829V21.0246ZM112.528 21.5086C112.243 21.5086 111.987 21.4417 111.761 21.3081C111.535 21.1698 111.355 20.9578 111.222 20.672C111.088 20.3862 111.021 20.029 111.021 19.6003C111.021 19.2131 111.099 18.8605 111.256 18.5424C111.417 18.2198 111.653 17.9639 111.961 17.775C112.27 17.586 112.641 17.4915 113.075 17.4915C113.25 17.4915 113.416 17.5099 113.572 17.5468V16.3783L112.895 16.2815V15.9012L114.319 15.763H114.34L114.533 15.9082V21.0108H114.907V21.4049C114.575 21.474 114.301 21.5086 114.084 21.5086C113.937 21.5086 113.83 21.4832 113.766 21.4325C113.706 21.3864 113.676 21.2919 113.676 21.149V20.9555C113.556 21.1168 113.393 21.2505 113.185 21.3565C112.978 21.4579 112.759 21.5086 112.528 21.5086ZM112.888 20.9347C113.04 20.9347 113.174 20.9047 113.289 20.8448C113.409 20.7803 113.503 20.7042 113.572 20.6167V18.0999C113.54 18.0538 113.471 18.0147 113.365 17.9824C113.264 17.9501 113.153 17.934 113.033 17.934C112.738 17.934 112.501 18.063 112.321 18.3212C112.146 18.5747 112.058 18.9826 112.058 19.545C112.058 20.0151 112.134 20.3654 112.286 20.5959C112.438 20.8218 112.639 20.9347 112.888 20.9347Z" fill="#28262B"/>
<path d="M190.583 18.5972L188.591 20.5884C188.487 20.6938 188.428 20.8364 188.428 20.985C188.428 21.1336 188.487 21.2761 188.591 21.3815C188.644 21.4342 188.706 21.4761 188.774 21.5047C188.843 21.5332 188.916 21.5479 188.991 21.5479C189.065 21.5479 189.138 21.5332 189.207 21.5047C189.276 21.4761 189.338 21.4342 189.39 21.3815L191.775 18.9965C191.828 18.9442 191.87 18.882 191.898 18.8135C191.927 18.7449 191.941 18.6714 191.941 18.5972C191.941 18.5229 191.927 18.4494 191.898 18.3808C191.87 18.3123 191.828 18.2501 191.775 18.1978L189.39 15.7847C189.337 15.7325 189.275 15.6913 189.207 15.6633C189.138 15.6353 189.065 15.6211 188.991 15.6215C188.917 15.6211 188.843 15.6353 188.775 15.6633C188.706 15.6913 188.644 15.7325 188.591 15.7847C188.487 15.8901 188.428 16.0326 188.428 16.1812C188.428 16.3298 188.487 16.4724 188.591 16.5778L190.583 18.5972Z" fill="#BFDAEE"/>
<path d="M62.2738 14.9515C62.1035 14.9515 61.9402 15.0192 61.8198 15.1396C61.6994 15.26 61.6317 15.4233 61.6317 15.5935V22.0138C61.6317 22.1841 61.6994 22.3474 61.8198 22.4678C61.9402 22.5882 62.1035 22.6558 62.2738 22.6558C62.444 22.6558 62.6073 22.5882 62.7277 22.4678C62.8481 22.3474 62.9158 22.1841 62.9158 22.0138V15.5935C62.9158 15.4233 62.8481 15.26 62.7277 15.1396C62.6073 15.0192 62.444 14.9515 62.2738 14.9515ZM59.0636 18.8037C58.8934 18.8037 58.7301 18.8713 58.6097 18.9917C58.4893 19.1121 58.4216 19.2754 58.4216 19.4457V22.0138C58.4216 22.1841 58.4893 22.3474 58.6097 22.4678C58.7301 22.5882 58.8934 22.6558 59.0636 22.6558C59.2339 22.6558 59.3972 22.5882 59.5176 22.4678C59.638 22.3474 59.7057 22.1841 59.7057 22.0138V19.4457C59.7057 19.2754 59.638 19.1121 59.5176 18.9917C59.3972 18.8713 59.2339 18.8037 59.0636 18.8037ZM65.4839 17.5196C65.3136 17.5196 65.1503 17.5873 65.0299 17.7077C64.9095 17.8281 64.8419 17.9914 64.8419 18.1616V22.0138C64.8419 22.1841 64.9095 22.3474 65.0299 22.4678C65.1503 22.5882 65.3136 22.6558 65.4839 22.6558C65.6542 22.6558 65.8175 22.5882 65.9379 22.4678C66.0583 22.3474 66.1259 22.1841 66.1259 22.0138V18.1616C66.1259 17.9914 66.0583 17.8281 65.9379 17.7077C65.8175 17.5873 65.6542 17.5196 65.4839 17.5196ZM66.7679 12.3834H57.7796C57.2688 12.3834 56.7789 12.5863 56.4176 12.9476C56.0564 13.3088 55.8535 13.7987 55.8535 14.3095V23.2978C55.8535 23.8087 56.0564 24.2986 56.4176 24.6598C56.7789 25.021 57.2688 25.2239 57.7796 25.2239H66.7679C67.2788 25.2239 67.7687 25.021 68.1299 24.6598C68.4911 24.2986 68.694 23.8087 68.694 23.2978V14.3095C68.694 13.7987 68.4911 13.3088 68.1299 12.9476C67.7687 12.5863 67.2788 12.3834 66.7679 12.3834ZM67.41 23.2978C67.41 23.4681 67.3423 23.6314 67.2219 23.7518C67.1015 23.8722 66.9382 23.9399 66.7679 23.9399H57.7796C57.6093 23.9399 57.446 23.8722 57.3256 23.7518C57.2052 23.6314 57.1376 23.4681 57.1376 23.2978V14.3095C57.1376 14.1392 57.2052 13.9759 57.3256 13.8555C57.446 13.7351 57.6093 13.6675 57.7796 13.6675H66.7679C66.9382 13.6675 67.1015 13.7351 67.2219 13.8555C67.3423 13.9759 67.41 14.1392 67.41 14.3095V23.2978Z" fill="#0270C7"/>
</g>
<defs>
<filter id="filter0_d_1665_27162" x="26.7147" y="64.7343" width="205.448" height="89.3896" filterUnits="userSpaceOnUse" color-interpolation-filters="sRGB">
<feFlood flood-opacity="0" result="BackgroundImageFix"/>
<feColorMatrix in="SourceAlpha" type="matrix" values="0 0 0 0 0 0 0 0 0 0 0 0 0 0 0 0 0 0 127 0" result="hardAlpha"/>
<feOffset dx="4.93865" dy="4.93865"/>
<feGaussianBlur stdDeviation="11.112"/>
<feColorMatrix type="matrix" values="0 0 0 0 0.0666667 0 0 0 0 0.0666667 0 0 0 0 0.0666667 0 0 0 0.06 0"/>
<feBlend mode="normal" in2="BackgroundImageFix" result="effect1_dropShadow_1665_27162"/>
<feBlend mode="normal" in="SourceGraphic" in2="effect1_dropShadow_1665_27162" result="shape"/>
</filter>
<filter id="filter1_d_1665_27162" x="26.7147" y="25.2225" width="205.448" height="76.0552" filterUnits="userSpaceOnUse" color-interpolation-filters="sRGB">
<feFlood flood-opacity="0" result="BackgroundImageFix"/>
<feColorMatrix in="SourceAlpha" type="matrix" values="0 0 0 0 0 0 0 0 0 0 0 0 0 0 0 0 0 0 127 0" result="hardAlpha"/>
<feOffset dx="4.93865" dy="4.93865"/>
<feGaussianBlur stdDeviation="11.112"/>
<feColorMatrix type="matrix" values="0 0 0 0 0.0666667 0 0 0 0 0.0666667 0 0 0 0 0.0666667 0 0 0 0.06 0"/>
<feBlend mode="normal" in2="BackgroundImageFix" result="effect1_dropShadow_1665_27162"/>
<feBlend mode="normal" in="SourceGraphic" in2="effect1_dropShadow_1665_27162" result="shape"/>
</filter>
<filter id="filter2_d_1665_27162" x="26.7147" y="-14.2853" width="205.448" height="76.0552" filterUnits="userSpaceOnUse" color-interpolation-filters="sRGB">
<feFlood flood-opacity="0" result="BackgroundImageFix"/>
<feColorMatrix in="SourceAlpha" type="matrix" values="0 0 0 0 0 0 0 0 0 0 0 0 0 0 0 0 0 0 127 0" result="hardAlpha"/>
<feOffset dx="4.93865" dy="4.93865"/>
<feGaussianBlur stdDeviation="11.112"/>
<feColorMatrix type="matrix" values="0 0 0 0 0.0666667 0 0 0 0 0.0666667 0 0 0 0 0.0666667 0 0 0 0.06 0"/>
<feBlend mode="normal" in2="BackgroundImageFix" result="effect1_dropShadow_1665_27162"/>
<feBlend mode="normal" in="SourceGraphic" in2="effect1_dropShadow_1665_27162" result="shape"/>
</filter>
<clipPath id="clip0_1665_27162">
<rect width="243" height="132" rx="5" fill="white"/>
</clipPath>
</defs>
</svg>
