<svg width="243" height="132" viewBox="0 0 243 132" fill="none" xmlns="http://www.w3.org/2000/svg">
<g clip-path="url(#clip0_1665_27179)">
<rect y="-3.05176e-05" width="243" height="132" rx="5" fill="#F4F4F4"/>
<g clip-path="url(#clip1_1665_27179)">
<rect width="188" height="406.879" transform="translate(27 -215)" fill="#FDFDFD"/>
<g clip-path="url(#clip2_1665_27179)">
<g filter="url(#filter0_d_1665_27179)">
<rect x="33.3574" y="-1.11659" width="175.285" height="160.754" rx="5.44928" fill="white"/>
</g>
<g clip-path="url(#clip3_1665_27179)">
<path d="M40.0009 8.26682V7.60564H41.3233V12.2402H40.5922V8.26682H40.0009ZM42.773 9.86255C42.773 9.12932 42.8959 8.55714 43.1418 8.14603C43.3918 7.73067 43.8199 7.52299 44.426 7.52299C45.0321 7.52299 45.458 7.73067 45.7038 8.14603C45.9539 8.55714 46.0789 9.12932 46.0789 9.86255C46.0789 10.6043 45.9539 11.1849 45.7038 11.6045C45.458 12.0199 45.0321 12.2275 44.426 12.2275C43.8199 12.2275 43.3918 12.0199 43.1418 11.6045C42.8959 11.1849 42.773 10.6043 42.773 9.86255ZM45.3669 9.86255C45.3669 9.51924 45.3436 9.22892 45.297 8.99157C45.2546 8.75423 45.1656 8.56138 45.0299 8.41304C44.8943 8.26046 44.693 8.18417 44.426 8.18417C44.159 8.18417 43.9576 8.26046 43.822 8.41304C43.6864 8.56138 43.5953 8.75423 43.5487 8.99157C43.5063 9.22892 43.4851 9.51924 43.4851 9.86255C43.4851 10.2186 43.5063 10.5174 43.5487 10.759C43.591 11.0005 43.68 11.1955 43.8157 11.3438C43.9555 11.4922 44.159 11.5664 44.426 11.5664C44.693 11.5664 44.8943 11.4922 45.0299 11.3438C45.1698 11.1955 45.2609 11.0005 45.3033 10.759C45.3457 10.5174 45.3669 10.2186 45.3669 9.86255ZM49.8302 12.2402L48.12 10.2631V12.2402H47.3953V7.8218H48.12V9.83712L49.8365 7.8218H50.7457L48.8257 10.0342L50.7775 12.2402H49.8302Z" fill="#96928E"/>
<path d="M40.8783 35.248C40.4375 35.0276 40.2171 34.6801 40.2171 34.2054C40.2171 33.9765 40.2743 33.7667 40.3887 33.576C40.5032 33.3852 40.6748 33.2348 40.9037 33.1246C41.1326 33.0102 41.4123 32.9529 41.7429 32.9529C42.0692 32.9529 42.3468 33.0102 42.5757 33.1246C42.8088 33.2348 42.9826 33.3852 43.097 33.576C43.2115 33.7667 43.2687 33.9765 43.2687 34.2054C43.2687 34.4427 43.2072 34.6525 43.0843 34.8348C42.9656 35.0128 42.8067 35.1505 42.6075 35.248C42.8491 35.337 43.0398 35.4832 43.1797 35.6867C43.3195 35.8859 43.3895 36.1211 43.3895 36.3923C43.3895 36.6678 43.3195 36.9115 43.1797 37.1235C43.0398 37.3354 42.8448 37.4985 42.5948 37.613C42.3447 37.7274 42.0608 37.7846 41.7429 37.7846C41.425 37.7846 41.141 37.7274 40.891 37.613C40.6452 37.4985 40.4523 37.3354 40.3124 37.1235C40.1726 36.9115 40.1027 36.6678 40.1027 36.3923C40.1027 36.1169 40.1726 35.8795 40.3124 35.6803C40.4523 35.4811 40.6409 35.337 40.8783 35.248ZM42.5757 34.2944C42.5757 34.057 42.5015 33.8748 42.3532 33.7476C42.2049 33.6205 42.0014 33.5569 41.7429 33.5569C41.4886 33.5569 41.2873 33.6205 41.1389 33.7476C40.9906 33.8748 40.9164 34.0591 40.9164 34.3007C40.9164 34.5126 40.9927 34.6864 41.1453 34.822C41.3021 34.9534 41.5013 35.0191 41.7429 35.0191C41.9845 35.0191 42.1837 34.9513 42.3405 34.8157C42.4973 34.6801 42.5757 34.5063 42.5757 34.2944ZM41.7429 35.5659C41.4632 35.5659 41.2343 35.6358 41.0563 35.7757C40.8825 35.9113 40.7956 36.1084 40.7956 36.3669C40.7956 36.6085 40.8804 36.8056 41.0499 36.9582C41.2194 37.1065 41.4504 37.1807 41.7429 37.1807C42.0311 37.1807 42.2578 37.1044 42.4231 36.9518C42.5927 36.7992 42.6774 36.6043 42.6774 36.3669C42.6774 36.1126 42.5905 35.9155 42.4168 35.7757C42.2472 35.6358 42.0226 35.5659 41.7429 35.5659ZM47.1348 37.6702L45.4247 35.693V37.6702H44.6999V33.2517H45.4247V35.2671L47.1412 33.2517H48.0503L46.1303 35.4641L48.0821 37.6702H47.1348Z" fill="#96928E"/>
<path d="M42.5884 59.54C42.5418 59.345 42.457 59.1988 42.3341 59.1013C42.2112 59.0038 42.0396 58.9551 41.8192 58.9551C41.4843 58.9551 41.2343 59.0843 41.069 59.3429C40.9037 59.5972 40.8168 60.021 40.8083 60.6144C40.9185 60.4279 41.0796 60.2838 41.2915 60.1821C41.5034 60.0803 41.7323 60.0295 41.9781 60.0295C42.2578 60.0295 42.5037 60.0909 42.7156 60.2139C42.9317 60.3325 43.0991 60.5063 43.2178 60.7352C43.3407 60.964 43.4022 61.2374 43.4022 61.5553C43.4022 61.852 43.3429 62.1169 43.2242 62.35C43.1097 62.5831 42.9381 62.7674 42.7092 62.9031C42.4804 63.0345 42.2049 63.1002 41.8827 63.1002C41.4462 63.1002 41.1029 63.0048 40.8528 62.8141C40.607 62.6191 40.4332 62.3457 40.3315 61.9939C40.234 61.6422 40.1853 61.2035 40.1853 60.6779C40.1853 59.1267 40.732 58.3511 41.8255 58.3511C42.2494 58.3511 42.5821 58.4655 42.8237 58.6944C43.0695 58.9233 43.2136 59.2051 43.256 59.54H42.5884ZM41.8192 60.6398C41.5606 60.6398 41.3402 60.7182 41.158 60.875C40.98 61.0276 40.891 61.2501 40.891 61.5426C40.891 61.835 40.9736 62.0681 41.1389 62.2419C41.3085 62.4114 41.5437 62.4962 41.8446 62.4962C42.1116 62.4962 42.3214 62.4135 42.474 62.2482C42.6308 62.083 42.7092 61.8626 42.7092 61.5871C42.7092 61.2989 42.6329 61.07 42.4804 60.9005C42.332 60.7267 42.1116 60.6398 41.8192 60.6398ZM47.1597 63.1002L45.4495 61.123V63.1002H44.7247V58.6817H45.4495V60.697L47.166 58.6817H48.0751L46.1552 60.8941L48.1069 63.1002H47.1597Z" fill="#96928E"/>
<path d="M40.0073 87.5638V87.017L42.1434 83.9527H43.0207V86.9344H43.612V87.5638H43.0207V88.5301H42.3087V87.5638H40.0073ZM42.3405 84.6902L40.8401 86.9344H42.3405V84.6902ZM47.1969 88.5301L45.4867 86.5529V88.5301H44.762V84.1117H45.4867V86.127L47.2033 84.1117H48.1124L46.1924 86.3241L48.1442 88.5301H47.1969Z" fill="#96928E"/>
<path d="M40.4968 112.975C40.9037 112.623 41.2237 112.335 41.4568 112.11C41.6941 111.881 41.8912 111.644 42.048 111.398C42.2049 111.152 42.2833 110.906 42.2833 110.661C42.2833 110.406 42.2218 110.207 42.0989 110.063C41.9802 109.919 41.7916 109.847 41.5331 109.847C41.283 109.847 41.0881 109.927 40.9482 110.088C40.8126 110.245 40.7405 110.457 40.732 110.724H40.0327C40.0454 110.241 40.1895 109.872 40.465 109.618C40.7448 109.359 41.0987 109.23 41.5267 109.23C41.9887 109.23 42.349 109.357 42.6075 109.612C42.8703 109.866 43.0017 110.205 43.0017 110.629C43.0017 110.934 42.9233 111.228 42.7664 111.512C42.6139 111.792 42.4295 112.044 42.2133 112.269C42.0014 112.489 41.7302 112.746 41.3996 113.038L41.1135 113.293H43.1288V113.896H40.0391V113.369L40.4968 112.975ZM46.7499 113.96L45.0397 111.983V113.96H44.315V109.542H45.0397V111.557L46.7563 109.542H47.6654L45.7454 111.754L47.6972 113.96H46.7499Z" fill="#96928E"/>
</g>
<path d="M60.1489 6.14911V140.565" stroke="#F5F5F5" stroke-width="0.454106" stroke-linecap="square"/>
<path d="M88.3052 6.14911V140.565" stroke="#F5F5F5" stroke-width="0.454106" stroke-linecap="square"/>
<path d="M116.459 6.14911V140.565" stroke="#F5F5F5" stroke-width="0.454106" stroke-linecap="square"/>
<path d="M144.614 6.14911V140.565" stroke="#F5F5F5" stroke-width="0.454106" stroke-linecap="square"/>
<path d="M172.768 6.14911V140.565" stroke="#F5F5F5" stroke-width="0.454106" stroke-linecap="square"/>
<path d="M200.922 6.14911V140.565" stroke="#F5F5F5" stroke-width="0.454106" stroke-linecap="square"/>
<path fill-rule="evenodd" clip-rule="evenodd" d="M60.1504 82.439L70.5741 59.5741C72.6098 55.1087 77.8246 53.0681 82.3503 54.966L86.3931 56.6614C87.6515 57.1891 88.7748 57.9936 89.6796 59.0151L95.2991 65.3597C99.0116 69.5512 105.596 69.4177 109.135 65.079L116.46 56.1008L125.299 42.4835C128.142 38.1045 134.082 37.0179 138.291 40.1071L143.232 43.7336C144.145 44.404 145.176 44.8976 146.271 45.1889L157.436 48.1589C158.269 48.3803 159.066 48.7191 159.803 49.165L165.223 52.4441C169.426 54.9866 174.888 53.7269 177.553 49.6006L181.568 43.3848C184.422 38.9649 190.424 37.8879 194.637 41.0394L200.923 45.7415V140.565H60.1504V82.439Z" fill="url(#paint0_linear_1665_27179)"/>
<path d="M60.1504 82.4391L70.5741 59.5742C72.6098 55.1088 77.8246 53.0682 82.3503 54.9661L86.3931 56.6615C87.6515 57.1892 88.7748 57.9937 89.6796 59.0152L95.3923 65.4651C99.073 69.6207 105.588 69.5312 109.153 65.276L116.46 56.555L125.299 42.9377C128.142 38.5587 134.082 37.4721 138.291 40.5613L143.116 44.103C144.105 44.8284 145.23 45.3462 146.423 45.6252L157.289 48.1651C158.218 48.3822 159.107 48.7443 159.923 49.2381L165.223 52.4442C169.426 54.9867 174.888 53.727 177.553 49.6007L181.568 43.3849C184.422 38.965 190.424 37.8879 194.637 41.0395L200.923 45.7416" stroke="#16555C" stroke-width="1.36232"/>
<rect x="116.459" y="20.6805" width="28.1546" height="119.884" fill="url(#paint1_linear_1665_27179)"/>
<circle cx="130.535" cy="37.0283" r="3.63285" fill="white" stroke="#16555C" stroke-width="1.81643"/>
<g clip-path="url(#clip4_1665_27179)">
<mask id="path-18-inside-1_1665_27179" fill="white">
<path fill-rule="evenodd" clip-rule="evenodd" d="M122.816 7.96431C118.552 7.96431 115.096 11.4206 115.096 15.6841C115.096 19.9476 118.552 23.4039 122.816 23.4039H127.811L129.723 27.2285C130.058 27.8979 131.013 27.8979 131.348 27.2285L133.26 23.4039H138.255C142.519 23.4039 145.975 19.9476 145.975 15.6841C145.975 11.4206 142.519 7.96431 138.255 7.96431H122.816Z"/>
</mask>
<path fill-rule="evenodd" clip-rule="evenodd" d="M122.816 7.96431C118.552 7.96431 115.096 11.4206 115.096 15.6841C115.096 19.9476 118.552 23.4039 122.816 23.4039H127.811L129.723 27.2285C130.058 27.8979 131.013 27.8979 131.348 27.2285L133.26 23.4039H138.255C142.519 23.4039 145.975 19.9476 145.975 15.6841C145.975 11.4206 142.519 7.96431 138.255 7.96431H122.816Z" fill="white"/>
<path d="M127.811 23.4039L128.217 23.2008L128.091 22.9498H127.811V23.4039ZM129.723 27.2285L130.129 27.0255V27.0255L129.723 27.2285ZM131.348 27.2285L131.754 27.4316L131.348 27.2285ZM133.26 23.4039V22.9498H132.979L132.854 23.2008L133.26 23.4039ZM115.55 15.6841C115.55 11.6714 118.803 8.41842 122.816 8.41842V7.5102C118.301 7.5102 114.642 11.1698 114.642 15.6841H115.55ZM122.816 22.9498C118.803 22.9498 115.55 19.6968 115.55 15.6841H114.642C114.642 20.1984 118.301 23.858 122.816 23.858V22.9498ZM127.811 22.9498H122.816V23.858H127.811V22.9498ZM130.129 27.0255L128.217 23.2008L127.405 23.607L129.317 27.4316L130.129 27.0255ZM130.941 27.0255C130.774 27.3602 130.297 27.3602 130.129 27.0255L129.317 27.4316C129.819 28.4357 131.252 28.4357 131.754 27.4316L130.941 27.0255ZM132.854 23.2008L130.941 27.0255L131.754 27.4316L133.666 23.607L132.854 23.2008ZM138.255 22.9498H133.26V23.858H138.255V22.9498ZM145.521 15.6841C145.521 19.6969 142.268 22.9498 138.255 22.9498V23.858C142.769 23.858 146.429 20.1984 146.429 15.6841H145.521ZM138.255 8.41842C142.268 8.41842 145.521 11.6714 145.521 15.6841H146.429C146.429 11.1698 142.769 7.5102 138.255 7.5102V8.41842ZM122.816 8.41842H138.255V7.5102H122.816V8.41842Z" fill="#F4F4F4" mask="url(#path-18-inside-1_1665_27179)"/>
<path d="M123.833 17.427C123.833 17.6087 123.787 17.7794 123.697 17.9393C123.609 18.0991 123.479 18.2335 123.304 18.3425C123.133 18.4515 122.93 18.5169 122.694 18.5387V18.9801H122.34V18.5387C121.998 18.506 121.722 18.3988 121.511 18.2172C121.301 18.0355 121.195 17.7958 121.195 17.4979H121.86C121.871 17.6395 121.916 17.7576 121.996 17.8521C122.076 17.9429 122.191 18.001 122.34 18.0264V16.8276C122.096 16.7658 121.898 16.7041 121.746 16.6423C121.593 16.5769 121.462 16.4752 121.353 16.3372C121.248 16.1991 121.195 16.0102 121.195 15.7704C121.195 15.4689 121.301 15.2201 121.511 15.0239C121.722 14.8241 121.998 14.7078 122.34 14.6751V14.2337H122.694V14.6751C123.014 14.7042 123.27 14.8059 123.462 14.9803C123.658 15.151 123.769 15.3872 123.795 15.6887H123.13C123.119 15.5761 123.075 15.4762 122.999 15.389C122.923 15.2982 122.821 15.2364 122.694 15.2037V16.3808C122.937 16.4389 123.135 16.5006 123.288 16.566C123.44 16.6278 123.569 16.7277 123.675 16.8657C123.78 17.0002 123.833 17.1873 123.833 17.427ZM121.827 15.7377C121.827 15.8867 121.871 16.0029 121.958 16.0865C122.049 16.1701 122.176 16.2373 122.34 16.2881V15.1874C122.183 15.2055 122.058 15.2618 121.964 15.3563C121.873 15.4508 121.827 15.5779 121.827 15.7377ZM122.694 18.0264C122.854 18.001 122.979 17.9374 123.07 17.8357C123.161 17.7304 123.206 17.605 123.206 17.4597C123.206 17.3144 123.161 17.2018 123.07 17.1219C122.983 17.0383 122.857 16.9711 122.694 16.9202V18.0264ZM125.864 16.4298C125.486 16.2409 125.297 15.943 125.297 15.5361C125.297 15.34 125.346 15.1601 125.444 14.9966C125.542 14.8332 125.689 14.7042 125.886 14.6097C126.082 14.5117 126.322 14.4626 126.605 14.4626C126.885 14.4626 127.123 14.5117 127.319 14.6097C127.519 14.7042 127.668 14.8332 127.766 14.9966C127.864 15.1601 127.913 15.34 127.913 15.5361C127.913 15.7396 127.86 15.9194 127.755 16.0756C127.653 16.2282 127.517 16.3463 127.346 16.4298C127.553 16.5061 127.717 16.6314 127.836 16.8058C127.956 16.9766 128.016 17.1782 128.016 17.4107C128.016 17.6468 127.956 17.8557 127.836 18.0373C127.717 18.219 127.549 18.3589 127.335 18.4569C127.121 18.555 126.877 18.6041 126.605 18.6041C126.332 18.6041 126.089 18.555 125.875 18.4569C125.664 18.3589 125.499 18.219 125.379 18.0373C125.259 17.8557 125.199 17.6468 125.199 17.4107C125.199 17.1745 125.259 16.9711 125.379 16.8004C125.499 16.6296 125.66 16.5061 125.864 16.4298ZM127.319 15.6124C127.319 15.409 127.255 15.2528 127.128 15.1438C127.001 15.0348 126.827 14.9803 126.605 14.9803C126.387 14.9803 126.214 15.0348 126.087 15.1438C125.96 15.2528 125.897 15.4108 125.897 15.6179C125.897 15.7995 125.962 15.9485 126.093 16.0647C126.227 16.1773 126.398 16.2336 126.605 16.2336C126.812 16.2336 126.983 16.1755 127.117 16.0593C127.252 15.943 127.319 15.7941 127.319 15.6124ZM126.605 16.7023C126.365 16.7023 126.169 16.7622 126.016 16.8821C125.867 16.9983 125.793 17.1673 125.793 17.3889C125.793 17.596 125.866 17.7649 126.011 17.8957C126.156 18.0228 126.354 18.0864 126.605 18.0864C126.852 18.0864 127.046 18.021 127.188 17.8902C127.333 17.7594 127.406 17.5923 127.406 17.3889C127.406 17.1709 127.331 17.002 127.183 16.8821C127.037 16.7622 126.845 16.7023 126.605 16.7023ZM129.886 17.7594L129.226 19.2634H128.823L129.21 17.7594H129.886ZM130.79 15.5143C130.812 15.1765 130.941 14.9131 131.177 14.7242C131.416 14.5353 131.722 14.4408 132.092 14.4408C132.346 14.4408 132.566 14.4862 132.752 14.5771C132.937 14.6679 133.077 14.7914 133.171 14.9476C133.266 15.1038 133.313 15.28 133.313 15.4762C133.313 15.7014 133.253 15.894 133.133 16.0538C133.013 16.2137 132.87 16.3208 132.702 16.3753V16.3971C132.917 16.4625 133.084 16.5824 133.204 16.7568C133.324 16.9275 133.384 17.1473 133.384 17.4161C133.384 17.6305 133.335 17.8212 133.237 17.9883C133.138 18.1554 132.993 18.288 132.801 18.3861C132.608 18.4806 132.377 18.5278 132.109 18.5278C131.716 18.5278 131.393 18.4279 131.139 18.2281C130.888 18.0246 130.753 17.734 130.735 17.3562H131.335C131.349 17.5487 131.424 17.7068 131.558 17.8303C131.693 17.9502 131.874 18.0101 132.103 18.0101C132.325 18.0101 132.495 17.9502 132.615 17.8303C132.735 17.7068 132.795 17.5487 132.795 17.3562C132.795 17.1019 132.713 16.9221 132.55 16.8167C132.39 16.7077 132.143 16.6532 131.809 16.6532H131.667V16.141H131.814C132.109 16.1374 132.332 16.0883 132.485 15.9939C132.641 15.8994 132.719 15.7505 132.719 15.547C132.719 15.3726 132.663 15.2346 132.55 15.1329C132.437 15.0275 132.277 14.9749 132.07 14.9749C131.867 14.9749 131.709 15.0275 131.596 15.1329C131.484 15.2346 131.416 15.3617 131.395 15.5143H130.79ZM134.834 17.6613C135.182 17.3598 135.457 17.1128 135.656 16.9202C135.86 16.7241 136.029 16.5206 136.163 16.3099C136.298 16.0992 136.365 15.8885 136.365 15.6778C136.365 15.4598 136.312 15.2891 136.207 15.1656C136.105 15.0421 135.943 14.9803 135.722 14.9803C135.508 14.9803 135.34 15.0493 135.221 15.1874C135.104 15.3218 135.043 15.5034 135.035 15.7323H134.436C134.447 15.3182 134.57 15.0021 134.806 14.7841C135.046 14.5625 135.349 14.4517 135.716 14.4517C136.112 14.4517 136.421 14.5607 136.643 14.7787C136.868 14.9966 136.981 15.2873 136.981 15.6506C136.981 15.9121 136.913 16.1646 136.779 16.408C136.648 16.6478 136.49 16.8639 136.305 17.0565C136.123 17.2454 135.891 17.4652 135.607 17.7158L135.362 17.9338H137.09V18.4515H134.441V17.9992L134.834 17.6613ZM138.863 17.427C138.9 17.6087 138.978 17.7467 139.098 17.8412C139.217 17.9356 139.379 17.9829 139.583 17.9829C139.84 17.9829 140.029 17.8811 140.149 17.6777C140.269 17.4743 140.329 17.1273 140.329 16.6369C140.242 16.7604 140.118 16.8567 139.959 16.9257C139.802 16.9911 139.632 17.0238 139.446 17.0238C139.21 17.0238 138.996 16.9766 138.803 16.8821C138.611 16.784 138.458 16.6405 138.346 16.4516C138.237 16.2591 138.182 16.0266 138.182 15.7541C138.182 15.3545 138.298 15.0366 138.531 14.8005C138.767 14.5607 139.09 14.4408 139.501 14.4408C139.995 14.4408 140.345 14.6061 140.553 14.9367C140.763 15.2637 140.869 15.7668 140.869 16.4462C140.869 16.9148 140.829 17.2981 140.749 17.596C140.672 17.8938 140.538 18.1191 140.345 18.2717C140.153 18.4242 139.886 18.5005 139.544 18.5005C139.156 18.5005 138.856 18.3988 138.645 18.1954C138.435 17.9919 138.317 17.7358 138.291 17.427H138.863ZM139.555 16.5006C139.773 16.5006 139.944 16.4334 140.068 16.299C140.195 16.161 140.258 15.9793 140.258 15.7541C140.258 15.5034 140.191 15.3091 140.057 15.171C139.926 15.0293 139.746 14.9585 139.517 14.9585C139.288 14.9585 139.107 15.0312 138.972 15.1765C138.841 15.3182 138.776 15.5052 138.776 15.7377C138.776 15.9594 138.84 16.1428 138.967 16.2881C139.098 16.4298 139.294 16.5006 139.555 16.5006Z" fill="#363431"/>
</g>
</g>
</g>
</g>
<defs>
<filter id="filter0_d_1665_27179" x="11.5603" y="-22.0055" width="218.879" height="204.348" filterUnits="userSpaceOnUse" color-interpolation-filters="sRGB">
<feFlood flood-opacity="0" result="BackgroundImageFix"/>
<feColorMatrix in="SourceAlpha" type="matrix" values="0 0 0 0 0 0 0 0 0 0 0 0 0 0 0 0 0 0 127 0" result="hardAlpha"/>
<feOffset dy="0.908213"/>
<feGaussianBlur stdDeviation="10.8986"/>
<feColorMatrix type="matrix" values="0 0 0 0 0 0 0 0 0 0 0 0 0 0 0 0 0 0 0.04 0"/>
<feBlend mode="normal" in2="BackgroundImageFix" result="effect1_dropShadow_1665_27179"/>
<feBlend mode="normal" in="SourceGraphic" in2="effect1_dropShadow_1665_27179" result="shape"/>
</filter>
<linearGradient id="paint0_linear_1665_27179" x1="60.1504" y1="34.4155" x2="60.1504" y2="140.565" gradientUnits="userSpaceOnUse">
<stop stop-color="#167D33" stop-opacity="0.6"/>
<stop offset="1" stop-color="#738C7D" stop-opacity="0.01"/>
</linearGradient>
<linearGradient id="paint1_linear_1665_27179" x1="116.459" y1="20.6805" x2="116.459" y2="140.565" gradientUnits="userSpaceOnUse">
<stop stop-color="#256F3A" stop-opacity="0.08"/>
<stop offset="1" stop-color="#26762E" stop-opacity="0.294061"/>
</linearGradient>
<clipPath id="clip0_1665_27179">
<rect y="-3.05176e-05" width="243" height="132" rx="5" fill="white"/>
</clipPath>
<clipPath id="clip1_1665_27179">
<rect width="188" height="406.879" fill="white" transform="translate(27 -215)"/>
</clipPath>
<clipPath id="clip2_1665_27179">
<rect width="175.285" height="178.464" fill="white" transform="translate(33.3574 -18.8261)"/>
</clipPath>
<clipPath id="clip3_1665_27179">
<rect width="13.1691" height="134.415" fill="white" transform="translate(39.7148 5.24089)"/>
</clipPath>
<clipPath id="clip4_1665_27179">
<rect width="30.8792" height="19.7665" fill="white" transform="translate(115.096 7.96553)"/>
</clipPath>
</defs>
</svg>
