<svg width="243" height="132" viewBox="0 0 243 132" fill="none" xmlns="http://www.w3.org/2000/svg">
<g clip-path="url(#clip0_1665_27276)">
<rect y="-9.15527e-05" width="243" height="132" rx="5" fill="#F4F4F4"/>
<path d="M23.9622 14.6739C23.9363 14.4545 23.8309 14.2841 23.6461 14.1629C23.4613 14.0416 23.2347 13.981 22.9662 13.981C22.7698 13.981 22.5981 14.0127 22.4508 14.0762C22.305 14.1398 22.191 14.2271 22.1087 14.3382C22.0278 14.4494 21.9874 14.5757 21.9874 14.7172C21.9874 14.8356 22.0156 14.9373 22.0719 15.0225C22.1296 15.1062 22.2032 15.1762 22.2927 15.2325C22.3822 15.2874 22.4761 15.3329 22.5742 15.369C22.6724 15.4036 22.7626 15.4318 22.8449 15.4534L23.2953 15.5747C23.4108 15.605 23.5393 15.6469 23.6807 15.7003C23.8237 15.7537 23.9601 15.8266 24.09 15.919C24.2214 16.0099 24.3296 16.1269 24.4148 16.2698C24.5 16.4127 24.5426 16.5881 24.5426 16.796C24.5426 17.0356 24.4798 17.2521 24.3542 17.4456C24.23 17.639 24.0481 17.7928 23.8085 17.9068C23.5703 18.0208 23.2809 18.0779 22.9402 18.0779C22.6226 18.0779 22.3476 18.0266 22.1152 17.9241C21.8842 17.8216 21.7023 17.6787 21.5695 17.4954C21.4381 17.312 21.3638 17.0991 21.3465 16.8566H21.9008C21.9152 17.024 21.9715 17.1626 22.0697 17.2723C22.1693 17.3806 22.2949 17.4615 22.4465 17.5149C22.5995 17.5668 22.7641 17.5928 22.9402 17.5928C23.1452 17.5928 23.3292 17.5596 23.4924 17.4932C23.6555 17.4254 23.7847 17.3315 23.88 17.2117C23.9752 17.0904 24.0229 16.949 24.0229 16.7873C24.0229 16.64 23.9817 16.5202 23.8994 16.4278C23.8172 16.3355 23.7089 16.2604 23.5746 16.2026C23.4404 16.1449 23.2953 16.0944 23.1394 16.0511L22.5937 15.8952C22.2473 15.7955 21.973 15.6534 21.7709 15.4686C21.5688 15.2838 21.4677 15.042 21.4677 14.7432C21.4677 14.4949 21.5348 14.2783 21.6691 14.0936C21.8048 13.9073 21.9867 13.763 22.2148 13.6605C22.4443 13.5565 22.7005 13.5046 22.9835 13.5046C23.2693 13.5046 23.5234 13.5558 23.7457 13.6583C23.968 13.7594 24.1441 13.898 24.2741 14.0741C24.4054 14.2502 24.4747 14.4501 24.4819 14.6739H23.9622ZM26.335 18.0779C26.1242 18.0779 25.9329 18.0382 25.7611 17.9588C25.5893 17.8779 25.4529 17.7617 25.3519 17.6101C25.2508 17.4571 25.2003 17.2723 25.2003 17.0558C25.2003 16.8652 25.2378 16.7108 25.3129 16.5924C25.388 16.4726 25.4883 16.3788 25.6139 16.3109C25.7395 16.2431 25.8781 16.1925 26.0296 16.1593C26.1827 16.1247 26.3364 16.0973 26.4909 16.077C26.693 16.0511 26.8568 16.0316 26.9824 16.0186C27.1094 16.0041 27.2018 15.9803 27.2596 15.9471C27.3188 15.9139 27.3484 15.8562 27.3484 15.7739V15.7566C27.3484 15.5429 27.2899 15.3769 27.173 15.2585C27.0575 15.1402 26.8821 15.081 26.6468 15.081C26.4028 15.081 26.2115 15.1344 26.0729 15.2412C25.9344 15.348 25.8369 15.4621 25.7806 15.5833L25.2956 15.4101C25.3822 15.208 25.4977 15.0507 25.642 14.9381C25.7878 14.824 25.9466 14.7446 26.1184 14.6999C26.2917 14.6537 26.462 14.6306 26.6295 14.6306C26.7363 14.6306 26.859 14.6436 26.9976 14.6696C27.1376 14.6941 27.2726 14.7453 27.4025 14.8233C27.5339 14.9012 27.6429 15.0189 27.7295 15.1762C27.8161 15.3336 27.8594 15.5444 27.8594 15.8085V17.9999H27.3484V17.5495H27.3224C27.2877 17.6217 27.23 17.6989 27.1491 17.7812C27.0683 17.8635 26.9608 17.9335 26.8265 17.9912C26.6922 18.049 26.5284 18.0779 26.335 18.0779ZM26.4129 17.6188C26.615 17.6188 26.7854 17.5791 26.9239 17.4997C27.064 17.4203 27.1694 17.3178 27.2401 17.1922C27.3123 17.0666 27.3484 16.9345 27.3484 16.796V16.3282C27.3267 16.3542 27.2791 16.378 27.2054 16.3997C27.1333 16.4199 27.0495 16.4379 26.9543 16.4538C26.8604 16.4683 26.7688 16.4813 26.6793 16.4928C26.5912 16.5029 26.5197 16.5116 26.4649 16.5188C26.3321 16.5361 26.2079 16.5643 26.0924 16.6032C25.9784 16.6408 25.886 16.6978 25.8153 16.7743C25.746 16.8494 25.7113 16.9519 25.7113 17.0818C25.7113 17.2593 25.777 17.3936 25.9084 17.4845C26.0412 17.574 26.2094 17.6188 26.4129 17.6188ZM29.3032 13.5652V17.9999H28.7921V13.5652H29.3032ZM32.3352 16.64V14.6739H32.8463V17.9999H32.3352V17.4369H32.3006C32.2226 17.6058 32.1014 17.7494 31.9368 17.8678C31.7722 17.9848 31.5644 18.0432 31.3132 18.0432C31.1053 18.0432 30.9205 17.9977 30.7588 17.9068C30.5972 17.8144 30.4701 17.6758 30.3777 17.491C30.2853 17.3048 30.2391 17.0702 30.2391 16.7873V14.6739H30.7502V16.7526C30.7502 16.9952 30.818 17.1886 30.9537 17.333C31.0909 17.4773 31.2655 17.5495 31.4777 17.5495C31.6048 17.5495 31.734 17.517 31.8653 17.4521C31.9982 17.3871 32.1093 17.2875 32.1988 17.1532C32.2898 17.019 32.3352 16.8479 32.3352 16.64ZM35.0382 18.0692C34.761 18.0692 34.5163 17.9992 34.3041 17.8592C34.0919 17.7177 33.9259 17.5185 33.8061 17.2615C33.6863 17.0031 33.6263 16.6978 33.6263 16.3456C33.6263 15.9962 33.6863 15.6931 33.8061 15.4361C33.9259 15.1791 34.0926 14.9806 34.3063 14.8406C34.5199 14.7006 34.7668 14.6306 35.0468 14.6306C35.2634 14.6306 35.4344 14.6667 35.56 14.7388C35.6871 14.8096 35.7838 14.8904 35.8502 14.9814C35.918 15.0709 35.9707 15.1445 36.0083 15.2022H36.0516V13.5652H36.5626V17.9999H36.0689V17.4889H36.0083C35.9707 17.5495 35.9173 17.626 35.848 17.7184C35.7787 17.8094 35.6798 17.8909 35.5514 17.9631C35.4229 18.0338 35.2518 18.0692 35.0382 18.0692ZM35.1075 17.6101C35.3125 17.6101 35.4857 17.5567 35.6272 17.4499C35.7686 17.3416 35.8762 17.1922 35.9498 17.0017C36.0234 16.8097 36.0602 16.5881 36.0602 16.3369C36.0602 16.0886 36.0241 15.8713 35.952 15.6851C35.8798 15.4974 35.773 15.3516 35.6315 15.2477C35.49 15.1423 35.3153 15.0896 35.1075 15.0896C34.8909 15.0896 34.7105 15.1452 34.5661 15.2564C34.4232 15.3661 34.3157 15.5155 34.2435 15.7046C34.1727 15.8923 34.1374 16.103 34.1374 16.3369C34.1374 16.5736 34.1735 16.7887 34.2456 16.9822C34.3193 17.1742 34.4275 17.3272 34.5705 17.4412C34.7148 17.5538 34.8938 17.6101 35.1075 17.6101ZM40.7656 14.6739V15.107H38.9727V14.6739H40.7656ZM39.5097 17.9999V14.2148C39.5097 14.0243 39.5544 13.8655 39.6439 13.7384C39.7334 13.6114 39.8497 13.5161 39.9926 13.4526C40.1355 13.3891 40.2863 13.3573 40.4451 13.3573C40.5707 13.3573 40.6732 13.3674 40.7526 13.3876C40.832 13.4079 40.8912 13.4266 40.9302 13.4439L40.7829 13.8857C40.7569 13.877 40.7209 13.8662 40.6747 13.8532C40.6299 13.8402 40.5707 13.8337 40.4971 13.8337C40.3282 13.8337 40.2062 13.8763 40.1312 13.9615C40.0575 14.0466 40.0207 14.1715 40.0207 14.3361V17.9999H39.5097ZM41.4818 17.9999V14.6739H41.9928V17.9999H41.4818ZM41.7417 14.1195C41.642 14.1195 41.5562 14.0856 41.484 14.0178C41.4132 13.9499 41.3779 13.8684 41.3779 13.7731C41.3779 13.6778 41.4132 13.5962 41.484 13.5284C41.5562 13.4605 41.642 13.4266 41.7417 13.4266C41.8413 13.4266 41.9264 13.4605 41.9972 13.5284C42.0694 13.5962 42.1054 13.6778 42.1054 13.7731C42.1054 13.8684 42.0694 13.9499 41.9972 14.0178C41.9264 14.0856 41.8413 14.1195 41.7417 14.1195ZM43.4399 15.9991V17.9999H42.9288V14.6739H43.4225V15.1936H43.4658C43.5438 15.0247 43.6622 14.889 43.821 14.7865C43.9798 14.6825 44.1847 14.6306 44.4359 14.6306C44.6611 14.6306 44.8582 14.6768 45.0271 14.7692C45.196 14.8601 45.3273 14.9987 45.4212 15.1849C45.515 15.3697 45.5619 15.6036 45.5619 15.8865V17.9999H45.0509V15.9211C45.0509 15.6599 44.9831 15.4563 44.8474 15.3105C44.7117 15.1633 44.5254 15.0896 44.2887 15.0896C44.1256 15.0896 43.9798 15.125 43.8513 15.1957C43.7242 15.2665 43.6239 15.3697 43.5503 15.5054C43.4767 15.6411 43.4399 15.8057 43.4399 15.9991ZM47.4745 18.0779C47.2637 18.0779 47.0725 18.0382 46.9007 17.9588C46.7289 17.8779 46.5925 17.7617 46.4914 17.6101C46.3904 17.4571 46.3398 17.2723 46.3398 17.0558C46.3398 16.8652 46.3774 16.7108 46.4524 16.5924C46.5275 16.4726 46.6278 16.3788 46.7534 16.3109C46.879 16.2431 47.0176 16.1925 47.1692 16.1593C47.3222 16.1247 47.4759 16.0973 47.6304 16.077C47.8325 16.0511 47.9964 16.0316 48.122 16.0186C48.249 16.0041 48.3414 15.9803 48.3991 15.9471C48.4583 15.9139 48.4879 15.8562 48.4879 15.7739V15.7566C48.4879 15.5429 48.4294 15.3769 48.3125 15.2585C48.197 15.1402 48.0216 15.081 47.7863 15.081C47.5424 15.081 47.3511 15.1344 47.2125 15.2412C47.0739 15.348 46.9765 15.4621 46.9202 15.5833L46.4351 15.4101C46.5217 15.208 46.6372 15.0507 46.7816 14.9381C46.9274 14.824 47.0862 14.7446 47.258 14.6999C47.4312 14.6537 47.6015 14.6306 47.769 14.6306C47.8758 14.6306 47.9985 14.6436 48.1371 14.6696C48.2771 14.6941 48.4121 14.7453 48.542 14.8233C48.6734 14.9012 48.7824 15.0189 48.869 15.1762C48.9556 15.3336 48.9989 15.5444 48.9989 15.8085V17.9999H48.4879V17.5495H48.4619C48.4273 17.6217 48.3695 17.6989 48.2887 17.7812C48.2078 17.8635 48.1003 17.9335 47.966 17.9912C47.8318 18.049 47.6679 18.0779 47.4745 18.0779ZM47.5525 17.6188C47.7546 17.6188 47.9249 17.5791 48.0635 17.4997C48.2035 17.4203 48.3089 17.3178 48.3796 17.1922C48.4518 17.0666 48.4879 16.9345 48.4879 16.796V16.3282C48.4662 16.3542 48.4186 16.378 48.345 16.3997C48.2728 16.4199 48.1891 16.4379 48.0938 16.4538C48 16.4683 47.9083 16.4813 47.8188 16.4928C47.7307 16.5029 47.6593 16.5116 47.6044 16.5188C47.4716 16.5361 47.3475 16.5643 47.232 16.6032C47.1179 16.6408 47.0255 16.6978 46.9548 16.7743C46.8855 16.8494 46.8509 16.9519 46.8509 17.0818C46.8509 17.2593 46.9166 17.3936 47.0479 17.4845C47.1807 17.574 47.3489 17.6188 47.5525 17.6188ZM50.4427 15.9991V17.9999H49.9317V14.6739H50.4254V15.1936H50.4687C50.5466 15.0247 50.665 14.889 50.8238 14.7865C50.9826 14.6825 51.1876 14.6306 51.4388 14.6306C51.664 14.6306 51.861 14.6768 52.0299 14.7692C52.1988 14.8601 52.3302 14.9987 52.424 15.1849C52.5179 15.3697 52.5648 15.6036 52.5648 15.8865V17.9999H52.0537V15.9211C52.0537 15.6599 51.9859 15.4563 51.8502 15.3105C51.7145 15.1633 51.5283 15.0896 51.2915 15.0896C51.1284 15.0896 50.9826 15.125 50.8541 15.1957C50.7271 15.2665 50.6268 15.3697 50.5531 15.5054C50.4795 15.6411 50.4427 15.8057 50.4427 15.9991ZM54.8498 18.0692C54.538 18.0692 54.2695 17.9956 54.0443 17.8483C53.8191 17.7011 53.6458 17.4983 53.5246 17.2399C53.4033 16.9815 53.3427 16.6862 53.3427 16.3542C53.3427 16.0164 53.4048 15.7183 53.5289 15.4599C53.6545 15.2001 53.8292 14.9972 54.0529 14.8514C54.2781 14.7042 54.5409 14.6306 54.8411 14.6306C55.075 14.6306 55.2858 14.6739 55.4734 14.7605C55.6611 14.8471 55.8148 14.9684 55.9347 15.1243C56.0545 15.2802 56.1288 15.4621 56.1577 15.67H55.6467C55.6077 15.5184 55.5211 15.3841 55.3868 15.2672C55.254 15.1488 55.075 15.0896 54.8498 15.0896C54.6506 15.0896 54.4759 15.1416 54.3258 15.2455C54.1771 15.348 54.0609 15.4931 53.9771 15.6808C53.8949 15.867 53.8537 16.0857 53.8537 16.3369C53.8537 16.5939 53.8941 16.8176 53.975 17.0082C54.0573 17.1987 54.1728 17.3467 54.3214 17.4521C54.4716 17.5574 54.6477 17.6101 54.8498 17.6101C54.9826 17.6101 55.1031 17.587 55.2114 17.5408C55.3197 17.4947 55.4114 17.4282 55.4864 17.3416C55.5615 17.255 55.6149 17.1511 55.6467 17.0298H56.1577C56.1288 17.2261 56.0574 17.403 55.9433 17.5603C55.8307 17.7162 55.6813 17.8404 55.4951 17.9328C55.3103 18.0237 55.0952 18.0692 54.8498 18.0692ZM56.9047 17.9999V14.6739H57.4158V17.9999H56.9047ZM57.1646 14.1195C57.065 14.1195 56.9791 14.0856 56.9069 14.0178C56.8362 13.9499 56.8008 13.8684 56.8008 13.7731C56.8008 13.6778 56.8362 13.5962 56.9069 13.5284C56.9791 13.4605 57.065 13.4266 57.1646 13.4266C57.2642 13.4266 57.3494 13.4605 57.4201 13.5284C57.4923 13.5962 57.5284 13.6778 57.5284 13.7731C57.5284 13.8684 57.4923 13.9499 57.4201 14.0178C57.3494 14.0856 57.2642 14.1195 57.1646 14.1195ZM59.7463 18.0692C59.4258 18.0692 59.1493 17.9985 58.9169 17.857C58.686 17.7141 58.5077 17.5149 58.3821 17.2593C58.2579 17.0024 58.1959 16.7036 58.1959 16.3629C58.1959 16.0222 58.2579 15.7219 58.3821 15.4621C58.5077 15.2008 58.6823 14.9972 58.9061 14.8514C59.1313 14.7042 59.394 14.6306 59.6943 14.6306C59.8675 14.6306 60.0386 14.6594 60.2075 14.7172C60.3764 14.7749 60.5301 14.8688 60.6687 14.9987C60.8073 15.1272 60.9177 15.2975 61 15.5097C61.0823 15.7219 61.1234 15.9832 61.1234 16.2936V16.5101H58.5596V16.0684H60.6038C60.6038 15.8807 60.5662 15.7133 60.4912 15.566C60.4175 15.4188 60.3122 15.3026 60.175 15.2174C60.0393 15.1322 59.8791 15.0896 59.6943 15.0896C59.4908 15.0896 59.3146 15.1402 59.1659 15.2412C59.0187 15.3408 58.9054 15.4707 58.826 15.631C58.7466 15.7912 58.7069 15.963 58.7069 16.1463V16.4408C58.7069 16.692 58.7502 16.9049 58.8368 17.0796C58.9249 17.2529 59.0468 17.3849 59.2028 17.4759C59.3587 17.5654 59.5398 17.6101 59.7463 17.6101C59.8805 17.6101 60.0018 17.5914 60.1101 17.5538C60.2198 17.5149 60.3143 17.4571 60.3937 17.3806C60.4731 17.3027 60.5345 17.2059 60.5778 17.0904L61.0715 17.229C61.0195 17.3965 60.9322 17.5437 60.8095 17.6708C60.6868 17.7964 60.5352 17.8945 60.3547 17.9653C60.1743 18.0346 59.9715 18.0692 59.7463 18.0692ZM61.9008 17.9999V14.6739H62.3945V15.1762H62.4292C62.4898 15.0117 62.5995 14.8781 62.7583 14.7757C62.9171 14.6732 63.0961 14.6219 63.2953 14.6219C63.3329 14.6219 63.3798 14.6226 63.4361 14.6241C63.4924 14.6255 63.535 14.6277 63.5638 14.6306V15.1503C63.5465 15.1459 63.5068 15.1394 63.4447 15.1308C63.3841 15.1207 63.3199 15.1156 63.252 15.1156C63.0903 15.1156 62.946 15.1495 62.8189 15.2174C62.6934 15.2838 62.5937 15.3762 62.5201 15.4946C62.4479 15.6115 62.4119 15.745 62.4119 15.8952V17.9999H61.9008ZM65.1484 18.0779C64.9376 18.0779 64.7463 18.0382 64.5745 17.9588C64.4027 17.8779 64.2663 17.7617 64.1653 17.6101C64.0642 17.4571 64.0137 17.2723 64.0137 17.0558C64.0137 16.8652 64.0512 16.7108 64.1263 16.5924C64.2014 16.4726 64.3017 16.3788 64.4273 16.3109C64.5529 16.2431 64.6915 16.1925 64.843 16.1593C64.9961 16.1247 65.1498 16.0973 65.3043 16.077C65.5064 16.0511 65.6702 16.0316 65.7958 16.0186C65.9228 16.0041 66.0152 15.9803 66.073 15.9471C66.1322 15.9139 66.1618 15.8562 66.1618 15.7739V15.7566C66.1618 15.5429 66.1033 15.3769 65.9864 15.2585C65.8709 15.1402 65.6955 15.081 65.4602 15.081C65.2162 15.081 65.0249 15.1344 64.8863 15.2412C64.7478 15.348 64.6503 15.4621 64.594 15.5833L64.109 15.4101C64.1956 15.208 64.3111 15.0507 64.4554 14.9381C64.6012 14.824 64.76 14.7446 64.9318 14.6999C65.105 14.6537 65.2754 14.6306 65.4428 14.6306C65.5497 14.6306 65.6724 14.6436 65.811 14.6696C65.951 14.6941 66.086 14.7453 66.2159 14.8233C66.3473 14.9012 66.4562 15.0189 66.5429 15.1762C66.6295 15.3336 66.6728 15.5444 66.6728 15.8085V17.9999H66.1618V17.5495H66.1358C66.1011 17.6217 66.0434 17.6989 65.9625 17.7812C65.8817 17.8635 65.7741 17.9335 65.6399 17.9912C65.5056 18.049 65.3418 18.0779 65.1484 18.0779ZM65.2263 17.6188C65.4284 17.6188 65.5988 17.5791 65.7373 17.4997C65.8774 17.4203 65.9827 17.3178 66.0535 17.1922C66.1257 17.0666 66.1618 16.9345 66.1618 16.796V16.3282C66.1401 16.3542 66.0925 16.378 66.0188 16.3997C65.9467 16.4199 65.8629 16.4379 65.7677 16.4538C65.6738 16.4683 65.5822 16.4813 65.4926 16.4928C65.4046 16.5029 65.3331 16.5116 65.2783 16.5188C65.1455 16.5361 65.0213 16.5643 64.9058 16.6032C64.7918 16.6408 64.6994 16.6978 64.6287 16.7743C64.5594 16.8494 64.5247 16.9519 64.5247 17.0818C64.5247 17.2593 64.5904 17.3936 64.7218 17.4845C64.8546 17.574 65.0228 17.6188 65.2263 17.6188Z" fill="#232F4E"/>
<path d="M22.352 84.3012C21.6058 84.3012 20.9991 83.6962 21.0176 82.9502C21.1837 76.261 22.5816 69.6556 25.1452 63.4664C27.8812 56.861 31.8915 50.8592 36.9471 45.8036C42.0027 40.748 48.0046 36.7377 54.61 34.0016C60.7991 31.438 67.4045 30.0401 74.0938 29.8741C74.8398 29.8556 75.4448 30.4622 75.4448 31.2084C75.4448 31.9546 74.8397 32.5577 74.0938 32.5772C67.7595 32.7426 61.5053 34.0703 55.6441 36.4981C49.3665 39.0984 43.6625 42.9097 38.8579 47.7143C34.0532 52.519 30.242 58.2229 27.6417 64.5005C25.2139 70.3618 23.8862 76.6159 23.7207 82.9502C23.7012 83.6962 23.0982 84.3012 22.352 84.3012Z" fill="#C53C68"/>
<path d="M78.4154 31.2916C78.4571 30.5466 79.0952 29.9747 79.8389 30.0349C85.3114 30.4781 90.6855 31.7465 95.7786 33.797C96.4708 34.0757 96.7858 34.8725 96.49 35.5576C96.1943 36.2427 95.3997 36.5565 94.7072 36.2787C89.9061 34.3529 84.8432 33.158 79.6877 32.7338C78.944 32.6726 78.3736 32.0366 78.4154 31.2916Z" fill="#F9CD09"/>
<path d="M98.9108 36.6757C99.2406 36.0063 100.051 35.7296 100.712 36.0759C107.734 39.7549 113.868 44.9231 118.685 51.2189C119.138 51.8115 119.003 52.6576 118.399 53.0962C117.796 53.5348 116.952 53.3997 116.498 52.8076C111.94 46.8661 106.146 41.9846 99.5177 38.5006C98.8572 38.1534 98.581 37.345 98.9108 36.6757Z" fill="#E27B04"/>
<circle cx="109.854" cy="43.7949" r="3.91996" fill="#E27B04"/>
<circle cx="109.854" cy="43.7948" r="1.7422" fill="white"/>
<path d="M119.685 54.9478C120.307 54.5353 121.147 54.7041 121.544 55.3359C126.748 63.6182 129.625 73.1505 129.871 82.9289C129.89 83.6749 129.284 84.2803 128.538 84.2805C127.791 84.2808 127.188 83.6759 127.168 82.93C126.923 73.6827 124.203 64.6694 119.292 56.8304C118.896 56.198 119.064 55.3604 119.685 54.9478Z" fill="#3CC599"/>
<path d="M44.5845 67.0908V56.1817H45.2834V67.0908H44.5845ZM46.4382 59.7826C46.4041 59.4388 46.2578 59.1718 45.9993 58.9814C45.7408 58.7911 45.3899 58.6959 44.9467 58.6959C44.6456 58.6959 44.3913 58.7385 44.1839 58.8238C43.9766 58.9062 43.8175 59.0212 43.7067 59.1689C43.5987 59.3167 43.5447 59.4843 43.5447 59.6718C43.5391 59.828 43.5717 59.9644 43.6428 60.0809C43.7166 60.1974 43.8175 60.2982 43.9453 60.3834C44.0732 60.4658 44.2209 60.5383 44.3885 60.6008C44.5561 60.6604 44.7351 60.7116 44.9254 60.7542L45.7095 60.9417C46.0902 61.0269 46.4396 61.1405 46.7578 61.2826C47.076 61.4246 47.3516 61.5993 47.5845 61.8067C47.8175 62.0141 47.9979 62.2584 48.1257 62.5397C48.2564 62.8209 48.3232 63.1434 48.326 63.507C48.3232 64.0411 48.1868 64.5042 47.9169 64.8962C47.6499 65.2854 47.2635 65.588 46.7578 65.8039C46.255 66.017 45.6484 66.1235 44.9382 66.1235C44.2337 66.1235 43.62 66.0155 43.0973 65.7996C42.5774 65.5837 42.1712 65.2641 41.8786 64.8408C41.5888 64.4147 41.4368 63.8877 41.4226 63.2599H43.2081C43.228 63.5525 43.3118 63.7968 43.4595 63.9928C43.6101 64.186 43.8104 64.3323 44.0604 64.4317C44.3132 64.5283 44.5987 64.5766 44.9169 64.5766C45.2294 64.5766 45.5007 64.5312 45.7308 64.4402C45.9638 64.3493 46.1442 64.2229 46.272 64.061C46.3999 63.8991 46.4638 63.713 46.4638 63.5027C46.4638 63.3067 46.4055 63.142 46.2891 63.0084C46.1754 62.8749 46.0078 62.7613 45.7862 62.6675C45.5675 62.5738 45.299 62.4885 44.9808 62.4118L44.0305 62.1732C43.2947 61.9942 42.7138 61.7144 42.2876 61.3337C41.8615 60.953 41.6499 60.4402 41.6527 59.7954C41.6499 59.267 41.7905 58.8053 42.0746 58.4104C42.3615 58.0155 42.755 57.7073 43.255 57.4857C43.755 57.2641 44.3232 57.1533 44.9595 57.1533C45.6072 57.1533 46.1726 57.2641 46.6555 57.4857C47.1413 57.7073 47.5192 58.0155 47.7891 58.4104C48.0589 58.8053 48.1982 59.2627 48.2067 59.7826H46.4382ZM49.3839 64.4658V63.0127L53.0273 57.2726H54.2802V59.284H53.5387L51.2418 62.9189V62.9871H56.4194V64.4658H49.3839ZM53.5728 65.9999V64.0226L53.6069 63.3792V57.2726H55.337V65.9999H53.5728ZM59.4748 64.8067L59.4279 65.2755C59.391 65.6505 59.32 66.0241 59.2148 66.3962C59.1126 66.7712 59.0046 67.1107 58.891 67.4147C58.7802 67.7187 58.6907 67.9573 58.6225 68.1306H57.4464C57.489 67.963 57.5472 67.7286 57.6211 67.4275C57.695 67.1292 57.7646 66.7939 57.8299 66.4218C57.8952 66.0496 57.9364 65.6704 57.9535 65.284L57.9748 64.8067H59.4748ZM64.0217 66.1192C63.3654 66.1192 62.7816 66.0127 62.2702 65.7996C61.7617 65.5837 61.3626 65.2897 61.0728 64.9175C60.783 64.5454 60.6381 64.1235 60.6381 63.6519C60.6381 63.2883 60.7205 62.9545 60.8853 62.6505C61.0529 62.3437 61.2802 62.0894 61.5671 61.8877C61.854 61.6831 62.1751 61.5525 62.5302 61.4956V61.436C62.0643 61.3422 61.6864 61.1164 61.3967 60.7584C61.1069 60.3976 60.962 59.9786 60.962 59.5013C60.962 59.0496 61.0941 58.6476 61.3583 58.2954C61.6225 57.9402 61.9847 57.6618 62.445 57.4601C62.908 57.2556 63.4336 57.1533 64.0217 57.1533C64.6097 57.1533 65.1339 57.2556 65.5941 57.4601C66.0572 57.6647 66.4208 57.9445 66.685 58.2996C66.9492 58.6519 67.0827 59.0525 67.0856 59.5013C67.0827 59.9814 66.935 60.4005 66.6424 60.7584C66.3498 61.1164 65.9748 61.3422 65.5174 61.436V61.4956C65.8668 61.5525 66.1836 61.6831 66.4677 61.8877C66.7546 62.0894 66.9819 62.3437 67.1495 62.6505C67.32 62.9545 67.4066 63.2883 67.4094 63.6519C67.4066 64.1235 67.2603 64.5454 66.9705 64.9175C66.6808 65.2897 66.2802 65.5837 65.7688 65.7996C65.2603 66.0127 64.6779 66.1192 64.0217 66.1192ZM64.0217 64.7641C64.3143 64.7641 64.57 64.7116 64.7887 64.6064C65.0075 64.4985 65.1779 64.3508 65.3001 64.1633C65.4251 63.9729 65.4876 63.7542 65.4876 63.507C65.4876 63.2542 65.4237 63.0312 65.2958 62.838C65.168 62.642 64.9947 62.4885 64.7759 62.3777C64.5572 62.2641 64.3058 62.2073 64.0217 62.2073C63.7404 62.2073 63.489 62.2641 63.2674 62.3777C63.0458 62.4885 62.8711 62.642 62.7433 62.838C62.6183 63.0312 62.5558 63.2542 62.5558 63.507C62.5558 63.7542 62.6168 63.9729 62.739 64.1633C62.8612 64.3508 63.033 64.4985 63.2546 64.6064C63.4762 64.7116 63.7319 64.7641 64.0217 64.7641ZM64.0217 60.865C64.266 60.865 64.4833 60.8152 64.6737 60.7158C64.864 60.6164 65.0131 60.4786 65.1211 60.3025C65.229 60.1263 65.283 59.9232 65.283 59.6931C65.283 59.4658 65.229 59.267 65.1211 59.0965C65.0131 58.9232 64.8654 58.7883 64.6779 58.6917C64.4904 58.5922 64.2717 58.5425 64.0217 58.5425C63.7745 58.5425 63.5558 58.5922 63.3654 58.6917C63.1751 58.7883 63.0259 58.9232 62.918 59.0965C62.8129 59.267 62.7603 59.4658 62.7603 59.6931C62.7603 59.9232 62.8143 60.1263 62.9222 60.3025C63.0302 60.4786 63.1793 60.6164 63.3697 60.7158C63.56 60.8152 63.7773 60.865 64.0217 60.865ZM72.4964 57.2726V65.9999H70.6513V59.0241H70.6001L68.6016 60.2769V58.6405L70.7621 57.2726H72.4964ZM77.9925 66.1917C77.2596 66.1888 76.6289 66.0084 76.1005 65.6505C75.5749 65.2925 75.1701 64.7741 74.886 64.0951C74.6048 63.4161 74.4656 62.5993 74.4684 61.6448C74.4684 60.6931 74.609 59.882 74.8903 59.2116C75.1744 58.5411 75.5792 58.0312 76.1048 57.6817C76.6332 57.3295 77.2624 57.1533 77.9925 57.1533C78.7227 57.1533 79.3505 57.3295 79.8761 57.6817C80.4045 58.034 80.8107 58.5454 81.0948 59.2158C81.3789 59.8834 81.5195 60.6931 81.5167 61.6448C81.5167 62.6022 81.3746 63.4204 81.0906 64.0993C80.8093 64.7783 80.4059 65.2968 79.8803 65.6547C79.3548 66.0127 78.7255 66.1917 77.9925 66.1917ZM77.9925 64.6618C78.4925 64.6618 78.8917 64.4104 79.19 63.9076C79.4883 63.4047 79.636 62.6505 79.6332 61.6448C79.6332 60.9829 79.565 60.4317 79.4286 59.9914C79.2951 59.551 79.1048 59.2201 78.8576 58.9985C78.6133 58.7769 78.3249 58.6661 77.9925 58.6661C77.4954 58.6661 77.0977 58.9147 76.7994 59.4118C76.5011 59.909 76.3505 60.6533 76.3477 61.6448C76.3477 62.3152 76.4144 62.8749 76.5479 63.3238C76.6843 63.7698 76.8761 64.105 77.1232 64.3295C77.3704 64.551 77.6602 64.6618 77.9925 64.6618ZM84.4709 64.8067L84.424 65.2755C84.3871 65.6505 84.3161 66.0241 84.2109 66.3962C84.1087 66.7712 84.0007 67.1107 83.8871 67.4147C83.7763 67.7187 83.6868 67.9573 83.6186 68.1306H82.4425C82.4851 67.963 82.5433 67.7286 82.6172 67.4275C82.6911 67.1292 82.7607 66.7939 82.826 66.4218C82.8913 66.0496 82.9325 65.6704 82.9496 65.284L82.9709 64.8067H84.4709ZM89.1839 66.1917C88.451 66.1888 87.8203 66.0084 87.2919 65.6505C86.7663 65.2925 86.3615 64.7741 86.0774 64.0951C85.7962 63.4161 85.657 62.5993 85.6598 61.6448C85.6598 60.6931 85.8004 59.882 86.0817 59.2116C86.3658 58.5411 86.7706 58.0312 87.2962 57.6817C87.8246 57.3295 88.4538 57.1533 89.1839 57.1533C89.9141 57.1533 90.5419 57.3295 91.0675 57.6817C91.5959 58.034 92.0021 58.5454 92.2862 59.2158C92.5703 59.8834 92.7109 60.6931 92.7081 61.6448C92.7081 62.6022 92.5661 63.4204 92.282 64.0993C92.0007 64.7783 91.5973 65.2968 91.0717 65.6547C90.5462 66.0127 89.9169 66.1917 89.1839 66.1917ZM89.1839 64.6618C89.6839 64.6618 90.0831 64.4104 90.3814 63.9076C90.6797 63.4047 90.8274 62.6505 90.8246 61.6448C90.8246 60.9829 90.7564 60.4317 90.62 59.9914C90.4865 59.551 90.2962 59.2201 90.049 58.9985C89.8047 58.7769 89.5163 58.6661 89.1839 58.6661C88.6868 58.6661 88.2891 58.9147 87.9908 59.4118C87.6925 59.909 87.5419 60.6533 87.5391 61.6448C87.5391 62.3152 87.6058 62.8749 87.7393 63.3238C87.8757 63.7698 88.0675 64.105 88.3146 64.3295C88.5618 64.551 88.8516 64.6618 89.1839 64.6618ZM97.4457 66.1917C96.7127 66.1888 96.082 66.0084 95.5536 65.6505C95.0281 65.2925 94.6232 64.7741 94.3391 64.0951C94.0579 63.4161 93.9187 62.5993 93.9215 61.6448C93.9215 60.6931 94.0621 59.882 94.3434 59.2116C94.6275 58.5411 95.0323 58.0312 95.5579 57.6817C96.0863 57.3295 96.7156 57.1533 97.4457 57.1533C98.1758 57.1533 98.8036 57.3295 99.3292 57.6817C99.8576 58.034 100.264 58.5454 100.548 59.2158C100.832 59.8834 100.973 60.6931 100.97 61.6448C100.97 62.6022 100.828 63.4204 100.544 64.0993C100.262 64.7783 99.859 65.2968 99.3335 65.6547C98.8079 66.0127 98.1786 66.1917 97.4457 66.1917ZM97.4457 64.6618C97.9457 64.6618 98.3448 64.4104 98.6431 63.9076C98.9414 63.4047 99.0891 62.6505 99.0863 61.6448C99.0863 60.9829 99.0181 60.4317 98.8817 59.9914C98.7482 59.551 98.5579 59.2201 98.3107 58.9985C98.0664 58.7769 97.7781 58.6661 97.4457 58.6661C96.9485 58.6661 96.5508 58.9147 96.2525 59.4118C95.9542 59.909 95.8036 60.6533 95.8008 61.6448C95.8008 62.3152 95.8675 62.8749 96.0011 63.3238C96.1374 63.7698 96.3292 64.105 96.5763 64.3295C96.8235 64.551 97.1133 64.6618 97.4457 64.6618ZM105.707 66.1917C104.974 66.1888 104.344 66.0084 103.815 65.6505C103.29 65.2925 102.885 64.7741 102.601 64.0951C102.32 63.4161 102.18 62.5993 102.183 61.6448C102.183 60.6931 102.324 59.882 102.605 59.2116C102.889 58.5411 103.294 58.0312 103.82 57.6817C104.348 57.3295 104.977 57.1533 105.707 57.1533C106.438 57.1533 107.065 57.3295 107.591 57.6817C108.119 58.034 108.526 58.5454 108.81 59.2158C109.094 59.8834 109.234 60.6931 109.232 61.6448C109.232 62.6022 109.089 63.4204 108.805 64.0993C108.524 64.7783 108.121 65.2968 107.595 65.6547C107.07 66.0127 106.44 66.1917 105.707 66.1917ZM105.707 64.6618C106.207 64.6618 106.607 64.4104 106.905 63.9076C107.203 63.4047 107.351 62.6505 107.348 61.6448C107.348 60.9829 107.28 60.4317 107.143 59.9914C107.01 59.551 106.82 59.2201 106.572 58.9985C106.328 58.7769 106.04 58.6661 105.707 58.6661C105.21 58.6661 104.813 58.9147 104.514 59.4118C104.216 59.909 104.065 60.6533 104.062 61.6448C104.062 62.3152 104.129 62.8749 104.263 63.3238C104.399 63.7698 104.591 64.105 104.838 64.3295C105.085 64.551 105.375 64.6618 105.707 64.6618Z" fill="#232F4E"/>
<path d="M36.6399 75.1864V74.6515H39.8269V75.1864H38.542V78.7694H37.9227V75.1864H36.6399ZM42.019 77.4886V75.681H42.6223V78.7694H42.0311V78.2346H41.9989C41.9279 78.3995 41.814 78.5369 41.6571 78.6468C41.5016 78.7554 41.3079 78.8097 41.076 78.8097C40.8776 78.8097 40.702 78.7661 40.5492 78.679C40.3977 78.5905 40.2784 78.4598 40.1913 78.2869C40.1055 78.1139 40.0626 77.9001 40.0626 77.6455V75.681H40.6638V77.5731C40.6638 77.7835 40.7221 77.9511 40.8388 78.0757C40.9554 78.2004 41.1069 78.2627 41.2932 78.2627C41.4058 78.2627 41.5177 78.2346 41.629 78.1783C41.7416 78.122 41.8347 78.0369 41.9085 77.9229C41.9835 77.809 42.0204 77.6642 42.019 77.4886ZM47.2429 76.435L46.698 76.5315C46.6752 76.4618 46.639 76.3955 46.5894 76.3325C46.5411 76.2695 46.4755 76.2178 46.3923 76.1776C46.3092 76.1374 46.2053 76.1173 46.0807 76.1173C45.9104 76.1173 45.7684 76.1555 45.6544 76.2319C45.5405 76.307 45.4835 76.4042 45.4835 76.5235C45.4835 76.6267 45.5217 76.7098 45.5981 76.7728C45.6745 76.8358 45.7978 76.8874 45.9681 76.9276L46.4587 77.0402C46.7429 77.1059 46.9547 77.2071 47.0941 77.3438C47.2335 77.4806 47.3032 77.6582 47.3032 77.8767C47.3032 78.0617 47.2496 78.2265 47.1423 78.3713C47.0364 78.5147 46.8883 78.6273 46.698 78.7091C46.509 78.7909 46.2898 78.8318 46.0405 78.8318C45.6946 78.8318 45.4125 78.758 45.194 78.6106C44.9755 78.4618 44.8414 78.2507 44.7918 77.9772L45.3729 77.8887C45.4091 78.0402 45.4835 78.1548 45.5961 78.2326C45.7087 78.309 45.8555 78.3472 46.0364 78.3472C46.2335 78.3472 46.391 78.3063 46.509 78.2245C46.6269 78.1414 46.6859 78.0402 46.6859 77.9209C46.6859 77.8244 46.6497 77.7433 46.5773 77.6776C46.5063 77.6119 46.397 77.5623 46.2496 77.5288L45.7268 77.4142C45.4386 77.3485 45.2255 77.244 45.0874 77.1005C44.9507 76.9571 44.8823 76.7755 44.8823 76.5556C44.8823 76.3733 44.9332 76.2138 45.0351 76.0771C45.137 75.9404 45.2777 75.8338 45.4574 75.7574C45.637 75.6796 45.8428 75.6408 46.0747 75.6408C46.4084 75.6408 46.6712 75.7132 46.8629 75.8579C47.0545 76.0014 47.1812 76.1937 47.2429 76.435ZM48.863 78.8378C48.6673 78.8378 48.4904 78.8016 48.3322 78.7292C48.174 78.6555 48.0487 78.5489 47.9562 78.4095C47.865 78.2701 47.8194 78.0992 47.8194 77.8968C47.8194 77.7225 47.853 77.5791 47.92 77.4665C47.987 77.3539 48.0775 77.2648 48.1914 77.1991C48.3054 77.1334 48.4327 77.0838 48.5735 77.0503C48.7142 77.0168 48.8576 76.9913 49.0038 76.9739C49.1887 76.9524 49.3389 76.935 49.4542 76.9216C49.5694 76.9069 49.6532 76.8834 49.7055 76.8512C49.7578 76.819 49.7839 76.7668 49.7839 76.6944V76.6803C49.7839 76.5047 49.7343 76.3686 49.6351 76.2721C49.5373 76.1756 49.3912 76.1274 49.1968 76.1274C48.9944 76.1274 48.8349 76.1723 48.7182 76.2621C48.603 76.3506 48.5232 76.4491 48.479 76.5577L47.914 76.429C47.981 76.2413 48.0788 76.0898 48.2075 75.9745C48.3375 75.8579 48.487 75.7735 48.6559 75.7212C48.8248 75.6676 49.0024 75.6408 49.1887 75.6408C49.3121 75.6408 49.4428 75.6555 49.5808 75.685C49.7202 75.7132 49.8503 75.7654 49.9709 75.8418C50.0929 75.9182 50.1928 76.0275 50.2705 76.1696C50.3483 76.3103 50.3871 76.4933 50.3871 76.7185V78.7694H49.8V78.3472H49.7759C49.737 78.4249 49.6787 78.5013 49.6009 78.5764C49.5232 78.6515 49.4233 78.7138 49.3013 78.7634C49.1794 78.813 49.0332 78.8378 48.863 78.8378ZM48.9937 78.3552C49.1599 78.3552 49.302 78.3224 49.42 78.2567C49.5393 78.191 49.6298 78.1052 49.6914 77.9993C49.7544 77.8921 49.7859 77.7775 49.7859 77.6555V77.2574C49.7645 77.2788 49.7229 77.2989 49.6613 77.3177C49.6009 77.3351 49.5319 77.3505 49.4542 77.364C49.3764 77.376 49.3007 77.3874 49.2269 77.3981C49.1532 77.4075 49.0916 77.4156 49.042 77.4223C48.9253 77.437 48.8188 77.4618 48.7223 77.4967C48.6271 77.5315 48.5507 77.5818 48.493 77.6475C48.4367 77.7118 48.4086 77.7976 48.4086 77.9048C48.4086 78.0536 48.4635 78.1662 48.5735 78.2426C48.6834 78.3177 48.8235 78.3552 48.9937 78.3552ZM51.7891 74.6515V78.7694H51.1879V74.6515H51.7891ZM54.5543 77.4886V75.681H55.1575V78.7694H54.5664V78.2346H54.5342C54.4632 78.3995 54.3492 78.5369 54.1924 78.6468C54.0369 78.7554 53.8432 78.8097 53.6113 78.8097C53.4129 78.8097 53.2373 78.7661 53.0845 78.679C52.933 78.5905 52.8137 78.4598 52.7266 78.2869C52.6408 78.1139 52.5979 77.9001 52.5979 77.6455V75.681H53.1991V77.5731C53.1991 77.7835 53.2574 77.9511 53.374 78.0757C53.4907 78.2004 53.6421 78.2627 53.8285 78.2627C53.9411 78.2627 54.053 78.2346 54.1643 78.1783C54.2768 78.122 54.37 78.0369 54.4437 77.9229C54.5188 77.809 54.5557 77.6642 54.5543 77.4886ZM57.1215 78.8298C56.8722 78.8298 56.6497 78.7661 56.4539 78.6387C56.2596 78.5101 56.1068 78.3271 55.9955 78.0898C55.8856 77.8512 55.8306 77.565 55.8306 77.2312C55.8306 76.8975 55.8863 76.6119 55.9975 76.3747C56.1101 76.1374 56.2643 75.9558 56.46 75.8298C56.6557 75.7038 56.8775 75.6408 57.1255 75.6408C57.3172 75.6408 57.4714 75.6729 57.588 75.7373C57.706 75.8003 57.7971 75.874 57.8614 75.9585C57.9271 76.0429 57.9781 76.1173 58.0143 76.1817H58.0505V74.6515H58.6517V78.7694H58.0645V78.2889H58.0143C57.9781 78.3546 57.9258 78.4296 57.8574 78.5141C57.7904 78.5985 57.6979 78.6723 57.5799 78.7353C57.462 78.7983 57.3092 78.8298 57.1215 78.8298ZM57.2542 78.317C57.4271 78.317 57.5732 78.2715 57.6925 78.1803C57.8132 78.0878 57.9043 77.9598 57.966 77.7963C58.029 77.6327 58.0605 77.4424 58.0605 77.2252C58.0605 77.0107 58.0297 76.8231 57.968 76.6622C57.9064 76.5014 57.8159 76.376 57.6966 76.2862C57.5773 76.1964 57.4298 76.1515 57.2542 76.1515C57.0732 76.1515 56.9224 76.1984 56.8018 76.2922C56.6812 76.3861 56.59 76.5141 56.5283 76.6763C56.468 76.8385 56.4379 77.0215 56.4379 77.2252C56.4379 77.4316 56.4687 77.6173 56.5304 77.7822C56.592 77.9471 56.6832 78.0778 56.8038 78.1743C56.9258 78.2694 57.0759 78.317 57.2542 78.317ZM62.478 75.681V76.1636H60.7327V75.681H62.478ZM61.2113 78.7694V75.3231C61.2113 75.1301 61.2535 74.9699 61.338 74.8425C61.4224 74.7138 61.5343 74.618 61.6738 74.555C61.8132 74.4906 61.9646 74.4585 62.1282 74.4585C62.2488 74.4585 62.352 74.4685 62.4378 74.4886C62.5236 74.5074 62.5873 74.5248 62.6288 74.5409L62.4881 75.0275C62.4599 75.0195 62.4238 75.0101 62.3795 74.9994C62.3353 74.9873 62.2817 74.9813 62.2187 74.9813C62.0725 74.9813 61.968 75.0175 61.905 75.0898C61.8433 75.1622 61.8125 75.2668 61.8125 75.4035V78.7694H61.2113ZM63.0983 78.7694V75.681H63.6995V78.7694H63.0983ZM63.402 75.2044C63.2974 75.2044 63.2076 75.1696 63.1325 75.0999C63.0588 75.0288 63.0219 74.9444 63.0219 74.8465C63.0219 74.7473 63.0588 74.6629 63.1325 74.5932C63.2076 74.5221 63.2974 74.4866 63.402 74.4866C63.5065 74.4866 63.5957 74.5221 63.6694 74.5932C63.7445 74.6629 63.782 74.7473 63.782 74.8465C63.782 74.9444 63.7445 75.0288 63.6694 75.0999C63.5957 75.1696 63.5065 75.2044 63.402 75.2044ZM65.1096 76.9357V78.7694H64.5084V75.681H65.0854V76.1837H65.1236C65.1947 76.0201 65.3059 75.8888 65.4574 75.7896C65.6102 75.6904 65.8026 75.6408 66.0345 75.6408C66.2449 75.6408 66.4293 75.685 66.5874 75.7735C66.7456 75.8606 66.8683 75.9906 66.9554 76.1636C67.0425 76.3365 67.0861 76.5503 67.0861 76.805V78.7694H66.4849V76.8774C66.4849 76.6535 66.4266 76.4786 66.31 76.3526C66.1933 76.2252 66.0331 76.1615 65.8294 76.1615C65.69 76.1615 65.566 76.1917 65.4574 76.252C65.3502 76.3123 65.2651 76.4008 65.2021 76.5174C65.1404 76.6327 65.1096 76.7721 65.1096 76.9357ZM68.7912 78.8378C68.5955 78.8378 68.4185 78.8016 68.2603 78.7292C68.1022 78.6555 67.9768 78.5489 67.8843 78.4095C67.7932 78.2701 67.7476 78.0992 67.7476 77.8968C67.7476 77.7225 67.7811 77.5791 67.8481 77.4665C67.9152 77.3539 68.0057 77.2648 68.1196 77.1991C68.2335 77.1334 68.3609 77.0838 68.5016 77.0503C68.6424 77.0168 68.7858 76.9913 68.9319 76.9739C69.1169 76.9524 69.267 76.935 69.3823 76.9216C69.4976 76.9069 69.5814 76.8834 69.6337 76.8512C69.6859 76.819 69.7121 76.7668 69.7121 76.6944V76.6803C69.7121 76.5047 69.6625 76.3686 69.5633 76.2721C69.4654 76.1756 69.3193 76.1274 69.125 76.1274C68.9225 76.1274 68.763 76.1723 68.6464 76.2621C68.5311 76.3506 68.4514 76.4491 68.4071 76.5577L67.8421 76.429C67.9091 76.2413 68.007 76.0898 68.1357 75.9745C68.2657 75.8579 68.4152 75.7735 68.5841 75.7212C68.753 75.6676 68.9306 75.6408 69.1169 75.6408C69.2402 75.6408 69.3709 75.6555 69.509 75.685C69.6484 75.7132 69.7784 75.7654 69.8991 75.8418C70.0211 75.9182 70.1209 76.0275 70.1987 76.1696C70.2764 76.3103 70.3153 76.4933 70.3153 76.7185V78.7694H69.7282V78.3472H69.704C69.6652 78.4249 69.6069 78.5013 69.5291 78.5764C69.4514 78.6515 69.3515 78.7138 69.2295 78.7634C69.1075 78.813 68.9614 78.8378 68.7912 78.8378ZM68.9219 78.3552C69.0881 78.3552 69.2302 78.3224 69.3481 78.2567C69.4674 78.191 69.5579 78.1052 69.6196 77.9993C69.6826 77.8921 69.7141 77.7775 69.7141 77.6555V77.2574C69.6926 77.2788 69.6511 77.2989 69.5894 77.3177C69.5291 77.3351 69.4601 77.3505 69.3823 77.364C69.3046 77.376 69.2288 77.3874 69.1551 77.3981C69.0814 77.4075 69.0197 77.4156 68.9701 77.4223C68.8535 77.437 68.7469 77.4618 68.6504 77.4967C68.5552 77.5315 68.4788 77.5818 68.4212 77.6475C68.3649 77.7118 68.3368 77.7976 68.3368 77.9048C68.3368 78.0536 68.3917 78.1662 68.5016 78.2426C68.6115 78.3177 68.7516 78.3552 68.9219 78.3552ZM71.7173 76.9357V78.7694H71.1161V75.681H71.6931V76.1837H71.7313C71.8024 76.0201 71.9136 75.8888 72.0651 75.7896C72.2179 75.6904 72.4103 75.6408 72.6422 75.6408C72.8526 75.6408 73.037 75.685 73.1951 75.7735C73.3533 75.8606 73.476 75.9906 73.5631 76.1636C73.6502 76.3365 73.6938 76.5503 73.6938 76.805V78.7694H73.0926V76.8774C73.0926 76.6535 73.0343 76.4786 72.9177 76.3526C72.801 76.2252 72.6408 76.1615 72.4371 76.1615C72.2977 76.1615 72.1737 76.1917 72.0651 76.252C71.9579 76.3123 71.8728 76.4008 71.8098 76.5174C71.7481 76.6327 71.7173 76.7721 71.7173 76.9357ZM75.801 78.8318C75.5021 78.8318 75.2447 78.7641 75.0289 78.6287C74.8144 78.492 74.6496 78.3036 74.5343 78.0637C74.419 77.8237 74.3613 77.5489 74.3613 77.2393C74.3613 76.9256 74.4203 76.6488 74.5383 76.4089C74.6563 76.1676 74.8225 75.9792 75.0369 75.8439C75.2514 75.7085 75.5041 75.6408 75.795 75.6408C76.0296 75.6408 76.2387 75.6843 76.4223 75.7715C76.606 75.8573 76.7541 75.9779 76.8667 76.1334C76.9806 76.2889 77.0483 76.4705 77.0698 76.6783H76.4847C76.4525 76.5335 76.3788 76.4089 76.2635 76.3043C76.1495 76.1997 75.9967 76.1475 75.805 76.1475C75.6375 76.1475 75.4907 76.1917 75.3647 76.2802C75.24 76.3673 75.1428 76.492 75.0731 76.6542C75.0034 76.815 74.9686 77.0054 74.9686 77.2252C74.9686 77.4504 75.0028 77.6448 75.0711 77.8083C75.1395 77.9719 75.236 78.0985 75.3607 78.1883C75.4867 78.2782 75.6348 78.3231 75.805 78.3231C75.919 78.3231 76.0222 78.3023 76.1147 78.2607C76.2085 78.2178 76.2869 78.1568 76.3499 78.0778C76.4143 77.9987 76.4592 77.9035 76.4847 77.7922H77.0698C77.0483 77.992 76.9833 78.1702 76.8747 78.3271C76.7662 78.4839 76.6207 78.6072 76.4384 78.6971C76.2575 78.7869 76.045 78.8318 75.801 78.8318ZM77.7127 78.7694V75.681H78.3139V78.7694H77.7127ZM78.0163 75.2044C77.9118 75.2044 77.822 75.1696 77.7469 75.0999C77.6732 75.0288 77.6363 74.9444 77.6363 74.8465C77.6363 74.7473 77.6732 74.6629 77.7469 74.5932C77.822 74.5221 77.9118 74.4866 78.0163 74.4866C78.1209 74.4866 78.21 74.5221 78.2837 74.5932C78.3588 74.6629 78.3963 74.7473 78.3963 74.8465C78.3963 74.9444 78.3588 75.0288 78.2837 75.0999C78.21 75.1696 78.1209 75.2044 78.0163 75.2044ZM80.4538 78.8318C80.1495 78.8318 79.8875 78.7668 79.6676 78.6367C79.4491 78.5054 79.2802 78.3211 79.1609 78.0838C79.043 77.8452 78.984 77.5657 78.984 77.2453C78.984 76.929 79.043 76.6501 79.1609 76.4089C79.2802 76.1676 79.4464 75.9792 79.6596 75.8439C79.8741 75.7085 80.1247 75.6408 80.4116 75.6408C80.5858 75.6408 80.7547 75.6696 80.9183 75.7272C81.0818 75.7849 81.2286 75.8754 81.3586 75.9987C81.4887 76.122 81.5912 76.2822 81.6663 76.4792C81.7413 76.6749 81.7789 76.9129 81.7789 77.193V77.4062H79.3238V76.9558H81.1897C81.1897 76.7976 81.1576 76.6575 81.0932 76.5355C81.0289 76.4122 80.9384 76.315 80.8218 76.244C80.7065 76.1729 80.5711 76.1374 80.4156 76.1374C80.2467 76.1374 80.0993 76.179 79.9732 76.2621C79.8486 76.3439 79.7521 76.4511 79.6837 76.5838C79.6167 76.7152 79.5832 76.8579 79.5832 77.0121V77.364C79.5832 77.5704 79.6194 77.746 79.6917 77.8908C79.7655 78.0355 79.868 78.1461 79.9994 78.2225C80.1308 78.2976 80.2842 78.3351 80.4598 78.3351C80.5738 78.3351 80.6777 78.319 80.7715 78.2869C80.8653 78.2534 80.9464 78.2038 81.0148 78.1381C81.0832 78.0724 81.1354 77.9913 81.1716 77.8948L81.7407 77.9973C81.6951 78.1649 81.6133 78.3117 81.4954 78.4377C81.3787 78.5623 81.232 78.6595 81.055 78.7292C80.8794 78.7976 80.679 78.8318 80.4538 78.8318ZM82.4459 78.7694V75.681H83.027V76.1716H83.0592C83.1155 76.0054 83.2147 75.8747 83.3568 75.7795C83.5002 75.683 83.6624 75.6347 83.8434 75.6347C83.8809 75.6347 83.9251 75.6361 83.9761 75.6388C84.0284 75.6414 84.0692 75.6448 84.0987 75.6488V76.2239C84.0746 76.2172 84.0317 76.2098 83.97 76.2018C83.9084 76.1924 83.8467 76.1877 83.7851 76.1877C83.643 76.1877 83.5163 76.2178 83.405 76.2782C83.2951 76.3371 83.208 76.4196 83.1436 76.5255C83.0793 76.63 83.0471 76.7493 83.0471 76.8834V78.7694H82.4459ZM85.4901 78.8378C85.2944 78.8378 85.1175 78.8016 84.9593 78.7292C84.8011 78.6555 84.6758 78.5489 84.5833 78.4095C84.4922 78.2701 84.4466 78.0992 84.4466 77.8968C84.4466 77.7225 84.4801 77.5791 84.5471 77.4665C84.6141 77.3539 84.7046 77.2648 84.8186 77.1991C84.9325 77.1334 85.0598 77.0838 85.2006 77.0503C85.3413 77.0168 85.4848 76.9913 85.6309 76.9739C85.8159 76.9524 85.966 76.935 86.0813 76.9216C86.1966 76.9069 86.2803 76.8834 86.3326 76.8512C86.3849 76.819 86.411 76.7668 86.411 76.6944V76.6803C86.411 76.5047 86.3614 76.3686 86.2622 76.2721C86.1644 76.1756 86.0183 76.1274 85.8239 76.1274C85.6215 76.1274 85.462 76.1723 85.3454 76.2621C85.2301 76.3506 85.1503 76.4491 85.1061 76.5577L84.5411 76.429C84.6081 76.2413 84.706 76.0898 84.8346 75.9745C84.9647 75.8579 85.1141 75.7735 85.283 75.7212C85.4519 75.6676 85.6295 75.6408 85.8159 75.6408C85.9392 75.6408 86.0699 75.6555 86.208 75.685C86.3474 75.7132 86.4774 75.7654 86.598 75.8418C86.72 75.9182 86.8199 76.0275 86.8976 76.1696C86.9754 76.3103 87.0143 76.4933 87.0143 76.7185V78.7694H86.4271V78.3472H86.403C86.3641 78.4249 86.3058 78.5013 86.2281 78.5764C86.1503 78.6515 86.0505 78.7138 85.9285 78.7634C85.8065 78.813 85.6604 78.8378 85.4901 78.8378ZM85.6208 78.3552C85.7871 78.3552 85.9291 78.3224 86.0471 78.2567C86.1664 78.191 86.2569 78.1052 86.3185 77.9993C86.3816 77.8921 86.4131 77.7775 86.4131 77.6555V77.2574C86.3916 77.2788 86.3501 77.2989 86.2884 77.3177C86.2281 77.3351 86.159 77.3505 86.0813 77.364C86.0035 77.376 85.9278 77.3874 85.8541 77.3981C85.7803 77.4075 85.7187 77.4156 85.6691 77.4223C85.5525 77.437 85.4459 77.4618 85.3494 77.4967C85.2542 77.5315 85.1778 77.5818 85.1202 77.6475C85.0639 77.7118 85.0357 77.7976 85.0357 77.9048C85.0357 78.0536 85.0907 78.1662 85.2006 78.2426C85.3105 78.3177 85.4506 78.3552 85.6208 78.3552ZM90.6446 78.8318C90.3403 78.8318 90.0782 78.7668 89.8584 78.6367C89.6399 78.5054 89.471 78.3211 89.3517 78.0838C89.2338 77.8452 89.1748 77.5657 89.1748 77.2453C89.1748 76.929 89.2338 76.6501 89.3517 76.4089C89.471 76.1676 89.6372 75.9792 89.8504 75.8439C90.0648 75.7085 90.3155 75.6408 90.6024 75.6408C90.7766 75.6408 90.9455 75.6696 91.1091 75.7272C91.2726 75.7849 91.4194 75.8754 91.5494 75.9987C91.6794 76.122 91.782 76.2822 91.8571 76.4792C91.9321 76.6749 91.9697 76.9129 91.9697 77.193V77.4062H89.5146V76.9558H91.3805C91.3805 76.7976 91.3483 76.6575 91.284 76.5355C91.2197 76.4122 91.1292 76.315 91.0126 76.244C90.8973 76.1729 90.7619 76.1374 90.6064 76.1374C90.4375 76.1374 90.29 76.179 90.164 76.2621C90.0394 76.3439 89.9429 76.4511 89.8745 76.5838C89.8075 76.7152 89.774 76.8579 89.774 77.0121V77.364C89.774 77.5704 89.8102 77.746 89.8825 77.8908C89.9563 78.0355 90.0588 78.1461 90.1902 78.2225C90.3215 78.2976 90.475 78.3351 90.6506 78.3351C90.7646 78.3351 90.8685 78.319 90.9623 78.2869C91.0561 78.2534 91.1372 78.2038 91.2056 78.1381C91.274 78.0724 91.3262 77.9913 91.3624 77.8948L91.9315 77.9973C91.8859 78.1649 91.8041 78.3117 91.6861 78.4377C91.5695 78.5623 91.4227 78.6595 91.2458 78.7292C91.0702 78.7976 90.8698 78.8318 90.6446 78.8318ZM94.951 76.435L94.4061 76.5315C94.3834 76.4618 94.3472 76.3955 94.2976 76.3325C94.2493 76.2695 94.1836 76.2178 94.1005 76.1776C94.0174 76.1374 93.9135 76.1173 93.7889 76.1173C93.6186 76.1173 93.4765 76.1555 93.3626 76.2319C93.2486 76.307 93.1917 76.4042 93.1917 76.5235C93.1917 76.6267 93.2299 76.7098 93.3063 76.7728C93.3827 76.8358 93.506 76.8874 93.6763 76.9276L94.1669 77.0402C94.451 77.1059 94.6628 77.2071 94.8022 77.3438C94.9417 77.4806 95.0114 77.6582 95.0114 77.8767C95.0114 78.0617 94.9577 78.2265 94.8505 78.3713C94.7446 78.5147 94.5965 78.6273 94.4061 78.7091C94.2171 78.7909 93.998 78.8318 93.7486 78.8318C93.4028 78.8318 93.1206 78.758 92.9021 78.6106C92.6836 78.4618 92.5496 78.2507 92.5 77.9772L93.0811 77.8887C93.1173 78.0402 93.1917 78.1548 93.3043 78.2326C93.4169 78.309 93.5637 78.3472 93.7446 78.3472C93.9417 78.3472 94.0992 78.3063 94.2171 78.2245C94.3351 78.1414 94.3941 78.0402 94.3941 77.9209C94.3941 77.8244 94.3579 77.7433 94.2855 77.6776C94.2145 77.6119 94.1052 77.5623 93.9578 77.5288L93.435 77.4142C93.1468 77.3485 92.9336 77.244 92.7956 77.1005C92.6588 76.9571 92.5905 76.7755 92.5905 76.5556C92.5905 76.3733 92.6414 76.2138 92.7433 76.0771C92.8452 75.9404 92.9859 75.8338 93.1655 75.7574C93.3452 75.6796 93.5509 75.6408 93.7828 75.6408C94.1166 75.6408 94.3793 75.7132 94.571 75.8579C94.7627 76.0014 94.8894 76.1937 94.951 76.435ZM97.2191 78.7694V74.6515H97.8203V76.1817H97.8565C97.8914 76.1173 97.9416 76.0429 98.0073 75.9585C98.073 75.874 98.1642 75.8003 98.2808 75.7373C98.3974 75.6729 98.5516 75.6408 98.7432 75.6408C98.9926 75.6408 99.2151 75.7038 99.4108 75.8298C99.6065 75.9558 99.76 76.1374 99.8713 76.3747C99.9839 76.6119 100.04 76.8975 100.04 77.2312C100.04 77.565 99.9845 77.8512 99.8733 78.0898C99.762 78.3271 99.6092 78.5101 99.4148 78.6387C99.2205 78.7661 98.9986 78.8298 98.7493 78.8298C98.5616 78.8298 98.4081 78.7983 98.2888 78.7353C98.1709 78.6723 98.0784 78.5985 98.0113 78.5141C97.9443 78.4296 97.8927 78.3546 97.8565 78.2889H97.8063V78.7694H97.2191ZM97.8083 77.2252C97.8083 77.4424 97.8398 77.6327 97.9028 77.7963C97.9658 77.9598 98.0569 78.0878 98.1762 78.1803C98.2955 78.2715 98.4416 78.317 98.6146 78.317C98.7942 78.317 98.9443 78.2694 99.065 78.1743C99.1856 78.0778 99.2768 77.9471 99.3384 77.7822C99.4014 77.6173 99.4329 77.4316 99.4329 77.2252C99.4329 77.0215 99.4021 76.8385 99.3404 76.6763C99.2801 76.5141 99.1889 76.3861 99.067 76.2922C98.9463 76.1984 98.7955 76.1515 98.6146 76.1515C98.4403 76.1515 98.2928 76.1964 98.1722 76.2862C98.0529 76.376 97.9624 76.5014 97.9008 76.6622C97.8391 76.8231 97.8083 77.0107 97.8083 77.2252ZM102.672 77.4886V75.681H103.275V78.7694H102.684V78.2346H102.652C102.581 78.3995 102.467 78.5369 102.31 78.6468C102.154 78.7554 101.961 78.8097 101.729 78.8097C101.53 78.8097 101.355 78.7661 101.202 78.679C101.05 78.5905 100.931 78.4598 100.844 78.2869C100.758 78.1139 100.715 77.9001 100.715 77.6455V75.681H101.316V77.5731C101.316 77.7835 101.375 77.9511 101.491 78.0757C101.608 78.2004 101.759 78.2627 101.946 78.2627C102.058 78.2627 102.17 78.2346 102.282 78.1783C102.394 78.122 102.487 78.0369 102.561 77.9229C102.636 77.809 102.673 77.6642 102.672 77.4886ZM105.414 78.8318C105.109 78.8318 104.847 78.7668 104.628 78.6367C104.409 78.5054 104.24 78.3211 104.121 78.0838C104.003 77.8452 103.944 77.5657 103.944 77.2453C103.944 76.929 104.003 76.6501 104.121 76.4089C104.24 76.1676 104.406 75.9792 104.62 75.8439C104.834 75.7085 105.085 75.6408 105.372 75.6408C105.546 75.6408 105.715 75.6696 105.878 75.7272C106.042 75.7849 106.189 75.8754 106.319 75.9987C106.449 76.122 106.551 76.2822 106.626 76.4792C106.701 76.6749 106.739 76.9129 106.739 77.193V77.4062H104.284V76.9558H106.15C106.15 76.7976 106.118 76.6575 106.053 76.5355C105.989 76.4122 105.898 76.315 105.782 76.244C105.666 76.1729 105.531 76.1374 105.376 76.1374C105.207 76.1374 105.059 76.179 104.933 76.2621C104.809 76.3439 104.712 76.4511 104.644 76.5838C104.577 76.7152 104.543 76.8579 104.543 77.0121V77.364C104.543 77.5704 104.579 77.746 104.652 77.8908C104.725 78.0355 104.828 78.1461 104.959 78.2225C105.091 78.2976 105.244 78.3351 105.42 78.3351C105.534 78.3351 105.638 78.319 105.731 78.2869C105.825 78.2534 105.906 78.2038 105.975 78.1381C106.043 78.0724 106.095 77.9913 106.132 77.8948L106.701 77.9973C106.655 78.1649 106.573 78.3117 106.455 78.4377C106.339 78.5623 106.192 78.6595 106.015 78.7292C105.839 78.7976 105.639 78.8318 105.414 78.8318ZM108.007 76.9357V78.7694H107.406V75.681H107.983V76.1837H108.021C108.092 76.0201 108.203 75.8888 108.355 75.7896C108.508 75.6904 108.7 75.6408 108.932 75.6408C109.142 75.6408 109.327 75.685 109.485 75.7735C109.643 75.8606 109.766 75.9906 109.853 76.1636C109.94 76.3365 109.984 76.5503 109.984 76.805V78.7694H109.382V76.8774C109.382 76.6535 109.324 76.4786 109.207 76.3526C109.091 76.2252 108.931 76.1615 108.727 76.1615C108.588 76.1615 108.464 76.1917 108.355 76.252C108.248 76.3123 108.163 76.4008 108.1 76.5174C108.038 76.6327 108.007 76.7721 108.007 76.9357ZM111.689 78.8378C111.493 78.8378 111.316 78.8016 111.158 78.7292C111 78.6555 110.874 78.5489 110.782 78.4095C110.691 78.2701 110.645 78.0992 110.645 77.8968C110.645 77.7225 110.679 77.5791 110.746 77.4665C110.813 77.3539 110.903 77.2648 111.017 77.1991C111.131 77.1334 111.258 77.0838 111.399 77.0503C111.54 77.0168 111.683 76.9913 111.829 76.9739C112.014 76.9524 112.165 76.935 112.28 76.9216C112.395 76.9069 112.479 76.8834 112.531 76.8512C112.583 76.819 112.61 76.7668 112.61 76.6944V76.6803C112.61 76.5047 112.56 76.3686 112.461 76.2721C112.363 76.1756 112.217 76.1274 112.022 76.1274C111.82 76.1274 111.661 76.1723 111.544 76.2621C111.429 76.3506 111.349 76.4491 111.305 76.5577L110.74 76.429C110.807 76.2413 110.905 76.0898 111.033 75.9745C111.163 75.8579 111.313 75.7735 111.482 75.7212C111.651 75.6676 111.828 75.6408 112.014 75.6408C112.138 75.6408 112.268 75.6555 112.407 75.685C112.546 75.7132 112.676 75.7654 112.797 75.8418C112.919 75.9182 113.018 76.0275 113.096 76.1696C113.174 76.3103 113.213 76.4933 113.213 76.7185V78.7694H112.626V78.3472H112.602C112.563 78.4249 112.504 78.5013 112.427 78.5764C112.349 78.6515 112.249 78.7138 112.127 78.7634C112.005 78.813 111.859 78.8378 111.689 78.8378ZM111.819 78.3552C111.986 78.3552 112.128 78.3224 112.246 78.2567C112.365 78.191 112.455 78.1052 112.517 77.9993C112.58 77.8921 112.612 77.7775 112.612 77.6555V77.2574C112.59 77.2788 112.549 77.2989 112.487 77.3177C112.427 77.3351 112.358 77.3505 112.28 77.364C112.202 77.376 112.126 77.3874 112.053 77.3981C111.979 77.4075 111.917 77.4156 111.868 77.4223C111.751 77.437 111.644 77.4618 111.548 77.4967C111.453 77.5315 111.376 77.5818 111.319 77.6475C111.262 77.7118 111.234 77.7976 111.234 77.9048C111.234 78.0536 111.289 78.1662 111.399 78.2426C111.509 78.3177 111.649 78.3552 111.819 78.3552Z" fill="#232F4E"/>
<path d="M42.8605 88.9999H42.378L43.7737 85.1987H44.2489L45.6446 88.9999H45.162L44.0261 85.8001H43.9964L42.8605 88.9999ZM43.0387 87.5151H44.9839V87.9234H43.0387V87.5151ZM47.3355 89.0593C47.0682 89.0593 46.838 88.9962 46.645 88.87C46.452 88.7438 46.3035 88.5699 46.1996 88.3484C46.0956 88.127 46.0437 87.8739 46.0437 87.5893C46.0437 87.2998 46.0969 87.0443 46.2033 86.8228C46.3109 86.6 46.4606 86.4262 46.6524 86.3012C46.8455 86.175 47.0707 86.1119 47.328 86.1119C47.5285 86.1119 47.7091 86.149 47.87 86.2233C48.0309 86.2975 48.1626 86.4014 48.2653 86.5351C48.368 86.6687 48.4318 86.8246 48.4565 87.0028H48.0185C47.9851 86.8729 47.9108 86.7578 47.7958 86.6576C47.6819 86.5561 47.5285 86.5054 47.3355 86.5054C47.1647 86.5054 47.015 86.5499 46.8863 86.639C46.7589 86.7269 46.6592 86.8512 46.5875 87.0121C46.5169 87.1717 46.4817 87.3592 46.4817 87.5745C46.4817 87.7947 46.5163 87.9865 46.5856 88.1498C46.6562 88.3132 46.7551 88.44 46.8826 88.5303C47.0113 88.6207 47.1622 88.6658 47.3355 88.6658C47.4493 88.6658 47.5526 88.646 47.6454 88.6064C47.7382 88.5668 47.8168 88.5099 47.8811 88.4357C47.9455 88.3614 47.9913 88.2723 48.0185 88.1684H48.4565C48.4318 88.3367 48.3705 88.4883 48.2728 88.6231C48.1762 88.7568 48.0482 88.8632 47.8886 88.9424C47.7302 89.0203 47.5458 89.0593 47.3355 89.0593ZM50.3367 86.149V86.5202H48.8593V86.149H50.3367ZM49.2899 85.466H49.7279V88.1833C49.7279 88.307 49.7458 88.3998 49.7817 88.4617C49.8188 88.5223 49.8659 88.5631 49.9228 88.5842C49.9809 88.604 50.0422 88.6139 50.1065 88.6139C50.1548 88.6139 50.1944 88.6114 50.2253 88.6064C50.2563 88.6002 50.281 88.5953 50.2996 88.5916L50.3887 88.9851C50.359 88.9962 50.3175 89.0073 50.2643 89.0185C50.2111 89.0308 50.1437 89.037 50.062 89.037C49.9383 89.037 49.817 89.0104 49.6982 88.9572C49.5807 88.904 49.4829 88.823 49.4049 88.7141C49.3282 88.6052 49.2899 88.4678 49.2899 88.302V85.466ZM52.7922 87.8343V86.149H53.2303V88.9999H52.7922V88.5173H52.7625C52.6957 88.6621 52.5918 88.7852 52.4507 88.8867C52.3097 88.9869 52.1315 89.037 51.9162 89.037C51.738 89.037 51.5796 88.9981 51.441 88.9201C51.3024 88.8409 51.1936 88.7221 51.1144 88.5637C51.0352 88.4041 50.9956 88.203 50.9956 87.9605V86.149H51.4336V87.9308C51.4336 88.1387 51.4918 88.3045 51.6081 88.4282C51.7256 88.552 51.8753 88.6139 52.0572 88.6139C52.1661 88.6139 52.2769 88.586 52.3895 88.5303C52.5033 88.4746 52.5986 88.3893 52.6753 88.2742C52.7532 88.1591 52.7922 88.0125 52.7922 87.8343ZM54.8715 89.0667C54.6908 89.0667 54.5269 89.0327 54.3796 88.9646C54.2324 88.8954 54.1154 88.7957 54.0288 88.6658C53.9422 88.5347 53.8989 88.3763 53.8989 88.1907C53.8989 88.0273 53.9311 87.8949 53.9954 87.7935C54.0597 87.6908 54.1457 87.6104 54.2534 87.5522C54.361 87.494 54.4798 87.4507 54.6098 87.4223C54.7409 87.3926 54.8727 87.3691 55.0051 87.3517C55.1783 87.3295 55.3188 87.3128 55.4264 87.3016C55.5353 87.2893 55.6145 87.2688 55.664 87.2404C55.7147 87.2119 55.7401 87.1624 55.7401 87.0919V87.077C55.7401 86.8939 55.69 86.7516 55.5897 86.6502C55.4908 86.5487 55.3404 86.498 55.1387 86.498C54.9296 86.498 54.7657 86.5437 54.6469 86.6353C54.5281 86.7269 54.4446 86.8246 54.3963 86.9286L53.9806 86.7801C54.0548 86.6069 54.1538 86.472 54.2775 86.3755C54.4025 86.2777 54.5386 86.2097 54.6859 86.1713C54.8343 86.1317 54.9803 86.1119 55.1239 86.1119C55.2154 86.1119 55.3206 86.123 55.4394 86.1453C55.5594 86.1664 55.6751 86.2103 55.7865 86.2771C55.8991 86.3439 55.9925 86.4448 56.0667 86.5796C56.141 86.7145 56.1781 86.8952 56.1781 87.1216V88.9999H55.7401V88.6139H55.7178C55.6881 88.6757 55.6386 88.7419 55.5693 88.8124C55.5 88.883 55.4079 88.943 55.2928 88.9925C55.1777 89.042 55.0373 89.0667 54.8715 89.0667ZM54.9383 88.6732C55.1115 88.6732 55.2575 88.6392 55.3763 88.5712C55.4963 88.5031 55.5867 88.4153 55.6473 88.3076C55.7091 88.2 55.7401 88.0867 55.7401 87.9679V87.567C55.7215 87.5893 55.6807 87.6097 55.6176 87.6283C55.5557 87.6456 55.484 87.6611 55.4023 87.6747C55.3219 87.6871 55.2433 87.6982 55.1666 87.7081C55.0911 87.7168 55.0298 87.7242 54.9828 87.7304C54.869 87.7452 54.7626 87.7694 54.6636 87.8028C54.5658 87.8349 54.4866 87.8838 54.426 87.9494C54.3666 88.0137 54.3369 88.1016 54.3369 88.2129C54.3369 88.3651 54.3932 88.4802 54.5058 88.5582C54.6197 88.6349 54.7638 88.6732 54.9383 88.6732ZM57.4156 85.1987V88.9999H56.9776V85.1987H57.4156ZM58.2179 88.9999V86.149H58.6559V88.9999H58.2179ZM58.4406 85.6739C58.3552 85.6739 58.2816 85.6448 58.2198 85.5866C58.1591 85.5285 58.1288 85.4586 58.1288 85.3769C58.1288 85.2952 58.1591 85.2253 58.2198 85.1672C58.2816 85.109 58.3552 85.0799 58.4406 85.0799C58.526 85.0799 58.599 85.109 58.6596 85.1672C58.7215 85.2253 58.7524 85.2952 58.7524 85.3769C58.7524 85.4586 58.7215 85.5285 58.6596 85.5866C58.599 85.6448 58.526 85.6739 58.4406 85.6739ZM59.3765 88.9999V88.6658L60.995 86.5871V86.5574H59.4285V86.149H61.5592V86.498L59.9853 88.5619V88.5916H61.6112V88.9999H59.3765ZM63.1248 89.0667C62.9442 89.0667 62.7802 89.0327 62.633 88.9646C62.4857 88.8954 62.3688 88.7957 62.2822 88.6658C62.1956 88.5347 62.1522 88.3763 62.1522 88.1907C62.1522 88.0273 62.1844 87.8949 62.2488 87.7935C62.3131 87.6908 62.3991 87.6104 62.5067 87.5522C62.6144 87.494 62.7332 87.4507 62.8631 87.4223C62.9943 87.3926 63.126 87.3691 63.2584 87.3517C63.4317 87.3295 63.5721 87.3128 63.6798 87.3016C63.7887 87.2893 63.8678 87.2688 63.9173 87.2404C63.9681 87.2119 63.9934 87.1624 63.9934 87.0919V87.077C63.9934 86.8939 63.9433 86.7516 63.8431 86.6502C63.7441 86.5487 63.5938 86.498 63.3921 86.498C63.183 86.498 63.019 86.5437 62.9002 86.6353C62.7814 86.7269 62.6979 86.8246 62.6497 86.9286L62.2339 86.7801C62.3082 86.6069 62.4071 86.472 62.5309 86.3755C62.6559 86.2777 62.792 86.2097 62.9392 86.1713C63.0877 86.1317 63.2337 86.1119 63.3772 86.1119C63.4688 86.1119 63.574 86.123 63.6928 86.1453C63.8128 86.1664 63.9285 86.2103 64.0398 86.2771C64.1524 86.3439 64.2459 86.4448 64.3201 86.5796C64.3943 86.7145 64.4315 86.8952 64.4315 87.1216V88.9999H63.9934V88.6139H63.9712C63.9415 88.6757 63.892 88.7419 63.8227 88.8124C63.7534 88.883 63.6612 88.943 63.5461 88.9925C63.4311 89.042 63.2906 89.0667 63.1248 89.0667ZM63.1916 88.6732C63.3649 88.6732 63.5109 88.6392 63.6297 88.5712C63.7497 88.5031 63.84 88.4153 63.9006 88.3076C63.9625 88.2 63.9934 88.0867 63.9934 87.9679V87.567C63.9749 87.5893 63.934 87.6097 63.8709 87.6283C63.8091 87.6456 63.7373 87.6611 63.6556 87.6747C63.5752 87.6871 63.4966 87.6982 63.4199 87.7081C63.3444 87.7168 63.2832 87.7242 63.2362 87.7304C63.1223 87.7452 63.0159 87.7694 62.9169 87.8028C62.8192 87.8349 62.74 87.8838 62.6794 87.9494C62.62 88.0137 62.5903 88.1016 62.5903 88.2129C62.5903 88.3651 62.6466 88.4802 62.7592 88.5582C62.873 88.6349 63.0172 88.6732 63.1916 88.6732ZM66.3075 89.0593C66.0699 89.0593 65.8602 88.9993 65.6783 88.8793C65.4964 88.758 65.3541 88.5872 65.2514 88.367C65.1487 88.1455 65.0973 87.8838 65.0973 87.5819C65.0973 87.2825 65.1487 87.0226 65.2514 86.8024C65.3541 86.5821 65.497 86.412 65.6801 86.2919C65.8632 86.1719 66.0748 86.1119 66.3149 86.1119C66.5005 86.1119 66.6471 86.1428 66.7548 86.2047C66.8637 86.2653 66.9466 86.3346 67.0035 86.4126C67.0616 86.4893 67.1068 86.5524 67.139 86.6019H67.1761V85.1987H67.6141V88.9999H67.1909V88.5619H67.139C67.1068 88.6139 67.061 88.6794 67.0016 88.7586C66.9422 88.8366 66.8575 88.9065 66.7473 88.9684C66.6372 89.029 66.4906 89.0593 66.3075 89.0593ZM66.3669 88.6658C66.5426 88.6658 66.691 88.62 66.8123 88.5285C66.9336 88.4357 67.0257 88.3076 67.0889 88.1443C67.152 87.9797 67.1835 87.7898 67.1835 87.5745C67.1835 87.3616 67.1526 87.1754 67.0907 87.0158C67.0288 86.8549 66.9373 86.73 66.816 86.6409C66.6948 86.5506 66.545 86.5054 66.3669 86.5054C66.1812 86.5054 66.0266 86.553 65.9028 86.6483C65.7803 86.7423 65.6882 86.8704 65.6263 87.0325C65.5657 87.1934 65.5353 87.374 65.5353 87.5745C65.5353 87.7774 65.5663 87.9618 65.6281 88.1276C65.6913 88.2921 65.7841 88.4233 65.9066 88.521C66.0303 88.6176 66.1837 88.6658 66.3669 88.6658ZM69.6353 89.0593C69.378 89.0593 69.1522 88.9981 68.9579 88.8756C68.7649 88.7531 68.6139 88.5817 68.505 88.3614C68.3974 88.1412 68.3435 87.8838 68.3435 87.5893C68.3435 87.2923 68.3974 87.0331 68.505 86.8116C68.6139 86.5901 68.7649 86.4182 68.9579 86.2957C69.1522 86.1732 69.378 86.1119 69.6353 86.1119C69.8927 86.1119 70.1179 86.1732 70.3109 86.2957C70.5052 86.4182 70.6562 86.5901 70.7638 86.8116C70.8727 87.0331 70.9271 87.2923 70.9271 87.5893C70.9271 87.8838 70.8727 88.1412 70.7638 88.3614C70.6562 88.5817 70.5052 88.7531 70.3109 88.8756C70.1179 88.9981 69.8927 89.0593 69.6353 89.0593ZM69.6353 88.6658C69.8308 88.6658 69.9917 88.6157 70.1179 88.5155C70.2441 88.4153 70.3375 88.2835 70.3982 88.1201C70.4588 87.9568 70.4891 87.7799 70.4891 87.5893C70.4891 87.3988 70.4588 87.2212 70.3982 87.0566C70.3375 86.8921 70.2441 86.759 70.1179 86.6576C69.9917 86.5561 69.8308 86.5054 69.6353 86.5054C69.4398 86.5054 69.279 86.5561 69.1528 86.6576C69.0266 86.759 68.9331 86.8921 68.8725 87.0566C68.8119 87.2212 68.7816 87.3988 68.7816 87.5893C68.7816 87.7799 68.8119 87.9568 68.8725 88.1201C68.9331 88.2835 69.0266 88.4153 69.1528 88.5155C69.279 88.6157 69.4398 88.6658 69.6353 88.6658ZM71.915 89.0296C71.8235 89.0296 71.7449 88.9968 71.6793 88.9312C71.6137 88.8657 71.5809 88.7871 71.5809 88.6955C71.5809 88.604 71.6137 88.5254 71.6793 88.4598C71.7449 88.3942 71.8235 88.3614 71.915 88.3614C72.0066 88.3614 72.0852 88.3942 72.1507 88.4598C72.2163 88.5254 72.2491 88.604 72.2491 88.6955C72.2491 88.7561 72.2336 88.8118 72.2027 88.8626C72.173 88.9133 72.1328 88.9541 72.0821 88.9851C72.0326 89.0148 71.9769 89.0296 71.915 89.0296ZM71.915 86.9137C71.8235 86.9137 71.7449 86.8809 71.6793 86.8153C71.6137 86.7498 71.5809 86.6712 71.5809 86.5796C71.5809 86.4881 71.6137 86.4095 71.6793 86.3439C71.7449 86.2783 71.8235 86.2455 71.915 86.2455C72.0066 86.2455 72.0852 86.2783 72.1507 86.3439C72.2163 86.4095 72.2491 86.4881 72.2491 86.5796C72.2491 86.6403 72.2336 86.6959 72.2027 86.7467C72.173 86.7974 72.1328 86.8382 72.0821 86.8692C72.0326 86.8989 71.9769 86.9137 71.915 86.9137ZM77.5787 85.1987V88.9999H77.1333L75.0619 86.0154H75.0248V88.9999H74.5645V85.1987H75.01L77.0887 88.1907H77.1259V85.1987H77.5787ZM79.5986 89.0593C79.3412 89.0593 79.1154 88.9981 78.9211 88.8756C78.7281 88.7531 78.5771 88.5817 78.4682 88.3614C78.3606 88.1412 78.3068 87.8838 78.3068 87.5893C78.3068 87.2923 78.3606 87.0331 78.4682 86.8116C78.5771 86.5901 78.7281 86.4182 78.9211 86.2957C79.1154 86.1732 79.3412 86.1119 79.5986 86.1119C79.8559 86.1119 80.0811 86.1732 80.2742 86.2957C80.4684 86.4182 80.6194 86.5901 80.727 86.8116C80.8359 87.0331 80.8904 87.2923 80.8904 87.5893C80.8904 87.8838 80.8359 88.1412 80.727 88.3614C80.6194 88.5817 80.4684 88.7531 80.2742 88.8756C80.0811 88.9981 79.8559 89.0593 79.5986 89.0593ZM79.5986 88.6658C79.7941 88.6658 79.9549 88.6157 80.0811 88.5155C80.2074 88.4153 80.3008 88.2835 80.3614 88.1201C80.422 87.9568 80.4524 87.7799 80.4524 87.5893C80.4524 87.3988 80.422 87.2212 80.3614 87.0566C80.3008 86.8921 80.2074 86.759 80.0811 86.6576C79.9549 86.5561 79.7941 86.5054 79.5986 86.5054C79.4031 86.5054 79.2422 86.5561 79.116 86.6576C78.9898 86.759 78.8964 86.8921 78.8357 87.0566C78.7751 87.2212 78.7448 87.3988 78.7448 87.5893C78.7448 87.7799 78.7751 87.9568 78.8357 88.1201C78.8964 88.2835 78.9898 88.4153 79.116 88.5155C79.2422 88.6157 79.4031 88.6658 79.5986 88.6658ZM83.7881 86.149L82.7339 88.9999H82.2884L81.2342 86.149H81.7094L82.4963 88.4208H82.526L83.313 86.149H83.7881ZM87.1132 89.0519C86.8682 89.0519 86.6498 89.0098 86.458 88.9257C86.2675 88.8415 86.1159 88.7246 86.0033 88.5749C85.892 88.4239 85.8313 88.2488 85.8214 88.0496H86.2891C86.299 88.1721 86.3411 88.2779 86.4154 88.367C86.4896 88.4549 86.5867 88.5229 86.7068 88.5712C86.8268 88.6194 86.9598 88.6435 87.1058 88.6435C87.2691 88.6435 87.4139 88.6151 87.5401 88.5582C87.6663 88.5013 87.7653 88.4221 87.8371 88.3206C87.9088 88.2191 87.9447 88.1016 87.9447 87.9679C87.9447 87.8281 87.9101 87.705 87.8408 87.5986C87.7715 87.4909 87.67 87.4068 87.5364 87.3462C87.4028 87.2855 87.2394 87.2552 87.0464 87.2552H86.742V86.8469H87.0464C87.1974 86.8469 87.3298 86.8197 87.4436 86.7652C87.5587 86.7108 87.6484 86.6341 87.7127 86.5351C87.7783 86.4361 87.8111 86.3198 87.8111 86.1861C87.8111 86.0575 87.7826 85.9455 87.7257 85.8502C87.6688 85.7549 87.5884 85.6807 87.4844 85.6275C87.3817 85.5743 87.2605 85.5477 87.1206 85.5477C86.9895 85.5477 86.8658 85.5718 86.7494 85.6201C86.6344 85.6671 86.5403 85.7357 86.4673 85.8261C86.3943 85.9152 86.3547 86.0228 86.3485 86.149H85.9031C85.9105 85.9498 85.9705 85.7753 86.0831 85.6256C86.1957 85.4747 86.343 85.3571 86.5249 85.273C86.708 85.1888 86.9091 85.1468 87.1281 85.1468C87.3632 85.1468 87.5649 85.1944 87.7331 85.2897C87.9014 85.3837 88.0307 85.5081 88.1211 85.6627C88.2114 85.8174 88.2565 85.9845 88.2565 86.1639C88.2565 86.3779 88.2002 86.5605 88.0876 86.7114C87.9763 86.8624 87.8247 86.9669 87.6329 87.0251V87.0548C87.873 87.0944 88.0604 87.1965 88.1953 87.361C88.3302 87.5244 88.3976 87.7267 88.3976 87.9679C88.3976 88.1746 88.3413 88.3602 88.2287 88.5248C88.1173 88.6881 87.9651 88.8168 87.7721 88.9108C87.5791 89.0049 87.3595 89.0519 87.1132 89.0519ZM90.3966 89.0519C90.1169 89.0519 89.8787 88.9758 89.682 88.8236C89.4852 88.6702 89.3349 88.448 89.231 88.1573C89.127 87.8652 89.0751 87.5126 89.0751 87.0993C89.0751 86.6885 89.127 86.3377 89.231 86.0469C89.3361 85.7549 89.4871 85.5322 89.6838 85.3788C89.8818 85.2241 90.1194 85.1468 90.3966 85.1468C90.6737 85.1468 90.9107 85.2241 91.1074 85.3788C91.3054 85.5322 91.4564 85.7549 91.5603 86.0469C91.6655 86.3377 91.7181 86.6885 91.7181 87.0993C91.7181 87.5126 91.6661 87.8652 91.5622 88.1573C91.4582 88.448 91.3079 88.6702 91.1111 88.8236C90.9144 88.9758 90.6762 89.0519 90.3966 89.0519ZM90.3966 88.6435C90.6737 88.6435 90.889 88.5099 91.0425 88.2426C91.1959 87.9754 91.2726 87.5943 91.2726 87.0993C91.2726 86.7702 91.2373 86.4899 91.1668 86.2585C91.0975 86.0271 90.9973 85.8508 90.8661 85.7296C90.7362 85.6083 90.5797 85.5477 90.3966 85.5477C90.1219 85.5477 89.9072 85.6832 89.7525 85.9541C89.5978 86.2239 89.5205 86.6056 89.5205 87.0993C89.5205 87.4285 89.5552 87.7081 89.6244 87.9383C89.6937 88.1684 89.7933 88.3435 89.9233 88.4635C90.0544 88.5835 90.2122 88.6435 90.3966 88.6435ZM92.9514 88.4802L92.9217 88.6807C92.9007 88.8217 92.8685 88.9727 92.8252 89.1335C92.7831 89.2944 92.7392 89.446 92.6934 89.5883C92.6476 89.7306 92.6099 89.8438 92.5802 89.9279H92.2461C92.2622 89.8487 92.2832 89.7442 92.3092 89.6143C92.3352 89.4843 92.3612 89.3389 92.3872 89.1781C92.4144 89.0185 92.4367 88.8551 92.454 88.6881L92.4763 88.4802H92.9514ZM95.2255 88.9999V88.6658L96.4802 87.2923C96.6275 87.1315 96.7487 86.9917 96.844 86.8729C96.9393 86.7529 97.0098 86.6403 97.0556 86.5351C97.1026 86.4287 97.1261 86.3173 97.1261 86.201C97.1261 86.0674 97.0939 85.9517 97.0296 85.8539C96.9665 85.7562 96.8799 85.6807 96.7697 85.6275C96.6596 85.5743 96.5359 85.5477 96.3985 85.5477C96.2525 85.5477 96.1251 85.578 96.0162 85.6386C95.9085 85.698 95.825 85.7815 95.7656 85.8892C95.7075 85.9968 95.6784 86.123 95.6784 86.2678H95.2404C95.2404 86.0451 95.2917 85.8496 95.3944 85.6813C95.4971 85.513 95.6369 85.3819 95.8139 85.2878C95.9921 85.1938 96.1919 85.1468 96.4134 85.1468C96.6361 85.1468 96.8335 85.1938 97.0055 85.2878C97.1775 85.3819 97.3123 85.5087 97.4101 85.6683C97.5078 85.8279 97.5567 86.0055 97.5567 86.201C97.5567 86.3408 97.5313 86.4775 97.4806 86.6112C97.4311 86.7436 97.3445 86.8914 97.2208 87.0548C97.0983 87.2169 96.9281 87.4148 96.7104 87.6487L95.8566 88.5619V88.5916H97.6235V88.9999H95.2255ZM99.6299 89.0519C99.3503 89.0519 99.1121 88.9758 98.9153 88.8236C98.7186 88.6702 98.5683 88.448 98.4643 88.1573C98.3604 87.8652 98.3084 87.5126 98.3084 87.0993C98.3084 86.6885 98.3604 86.3377 98.4643 86.0469C98.5695 85.7549 98.7204 85.5322 98.9172 85.3788C99.1152 85.2241 99.3527 85.1468 99.6299 85.1468C99.9071 85.1468 100.144 85.2241 100.341 85.3788C100.539 85.5322 100.69 85.7549 100.794 86.0469C100.899 86.3377 100.951 86.6885 100.951 87.0993C100.951 87.5126 100.899 87.8652 100.796 88.1573C100.692 88.448 100.541 88.6702 100.344 88.8236C100.148 88.9758 99.9096 89.0519 99.6299 89.0519ZM99.6299 88.6435C99.9071 88.6435 100.122 88.5099 100.276 88.2426C100.429 87.9754 100.506 87.5943 100.506 87.0993C100.506 86.7702 100.471 86.4899 100.4 86.2585C100.331 86.0271 100.231 85.8508 100.099 85.7296C99.9696 85.6083 99.813 85.5477 99.6299 85.5477C99.3552 85.5477 99.1405 85.6832 98.9859 85.9541C98.8312 86.2239 98.7539 86.6056 98.7539 87.0993C98.7539 87.4285 98.7885 87.7081 98.8578 87.9383C98.9271 88.1684 99.0267 88.3435 99.1566 88.4635C99.2878 88.5835 99.4455 88.6435 99.6299 88.6435ZM101.657 88.9999V88.6658L102.911 87.2923C103.059 87.1315 103.18 86.9917 103.275 86.8729C103.37 86.7529 103.441 86.6403 103.487 86.5351C103.534 86.4287 103.557 86.3173 103.557 86.201C103.557 86.0674 103.525 85.9517 103.461 85.8539C103.398 85.7562 103.311 85.6807 103.201 85.6275C103.091 85.5743 102.967 85.5477 102.83 85.5477C102.684 85.5477 102.556 85.578 102.447 85.6386C102.34 85.698 102.256 85.7815 102.197 85.8892C102.139 85.9968 102.11 86.123 102.11 86.2678H101.672C101.672 86.0451 101.723 85.8496 101.826 85.6813C101.928 85.513 102.068 85.3819 102.245 85.2878C102.423 85.1938 102.623 85.1468 102.845 85.1468C103.067 85.1468 103.265 85.1938 103.437 85.2878C103.609 85.3819 103.744 85.5087 103.841 85.6683C103.939 85.8279 103.988 86.0055 103.988 86.201C103.988 86.3408 103.963 86.4775 103.912 86.6112C103.862 86.7436 103.776 86.8914 103.652 87.0548C103.529 87.2169 103.359 87.4148 103.142 87.6487L102.288 88.5619V88.5916H104.055V88.9999H101.657ZM106.106 89.0519C105.861 89.0519 105.642 89.0098 105.45 88.9257C105.26 88.8415 105.108 88.7246 104.996 88.5749C104.884 88.4239 104.824 88.2488 104.814 88.0496H105.282C105.291 88.1721 105.334 88.2779 105.408 88.367C105.482 88.4549 105.579 88.5229 105.699 88.5712C105.819 88.6194 105.952 88.6435 106.098 88.6435C106.262 88.6435 106.406 88.6151 106.533 88.5582C106.659 88.5013 106.758 88.4221 106.829 88.3206C106.901 88.2191 106.937 88.1016 106.937 87.9679C106.937 87.8281 106.902 87.705 106.833 87.5986C106.764 87.4909 106.662 87.4068 106.529 87.3462C106.395 87.2855 106.232 87.2552 106.039 87.2552H105.734V86.8469H106.039C106.19 86.8469 106.322 86.8197 106.436 86.7652C106.551 86.7108 106.641 86.6341 106.705 86.5351C106.771 86.4361 106.804 86.3198 106.804 86.1861C106.804 86.0575 106.775 85.9455 106.718 85.8502C106.661 85.7549 106.581 85.6807 106.477 85.6275C106.374 85.5743 106.253 85.5477 106.113 85.5477C105.982 85.5477 105.858 85.5718 105.742 85.6201C105.627 85.6671 105.533 85.7357 105.46 85.8261C105.387 85.9152 105.347 86.0228 105.341 86.149H104.895C104.903 85.9498 104.963 85.7753 105.076 85.6256C105.188 85.4747 105.335 85.3571 105.517 85.273C105.7 85.1888 105.901 85.1468 106.12 85.1468C106.356 85.1468 106.557 85.1944 106.726 85.2897C106.894 85.3837 107.023 85.5081 107.113 85.6627C107.204 85.8174 107.249 85.9845 107.249 86.1639C107.249 86.3779 107.193 86.5605 107.08 86.7114C106.969 86.8624 106.817 86.9669 106.625 87.0251V87.0548C106.865 87.0944 107.053 87.1965 107.188 87.361C107.323 87.5244 107.39 87.7267 107.39 87.9679C107.39 88.1746 107.334 88.3602 107.221 88.5248C107.11 88.6881 106.958 88.8168 106.765 88.9108C106.572 89.0049 106.352 89.0519 106.106 89.0519Z" fill="#9AA2AC"/>
<rect x="78.0586" y="115.662" width="10.4532" height="2.17776" rx="1.08888" fill="#F9CD09"/>
<rect x="91.125" y="115.662" width="13.9376" height="2.17776" rx="1.08888" fill="#E27B04"/>
<rect x="21" y="115.662" width="54.4439" height="2.17776" rx="1.08888" fill="#C53C68"/>
<rect x="107.676" y="115.662" width="22.2131" height="2.17776" rx="1.08888" fill="#3CC599"/>
<circle cx="100.27" cy="116.533" r="3.04886" fill="#E27B04"/>
<circle cx="100.27" cy="116.533" r="1.30665" fill="white"/>
<path d="M22.7298 106.408V110.209H22.2695V106.89H22.2473L21.3192 107.506V107.039L22.2695 106.408H22.7298ZM25.0629 110.261C24.7832 110.261 24.545 110.185 24.3483 110.033C24.1516 109.879 24.0012 109.657 23.8973 109.366C23.7933 109.074 23.7414 108.722 23.7414 108.308C23.7414 107.898 23.7933 107.547 23.8973 107.256C24.0025 106.964 24.1534 106.741 24.3502 106.588C24.5481 106.433 24.7857 106.356 25.0629 106.356C25.34 106.356 25.577 106.433 25.7737 106.588C25.9717 106.741 26.1227 106.964 26.2266 107.256C26.3318 107.547 26.3844 107.898 26.3844 108.308C26.3844 108.722 26.3324 109.074 26.2285 109.366C26.1245 109.657 25.9742 109.879 25.7775 110.033C25.5807 110.185 25.3425 110.261 25.0629 110.261ZM25.0629 109.853C25.34 109.853 25.5553 109.719 25.7088 109.452C25.8622 109.184 25.9389 108.803 25.9389 108.308C25.9389 107.979 25.9037 107.699 25.8331 107.468C25.7638 107.236 25.6636 107.06 25.5325 106.939C25.4025 106.817 25.246 106.757 25.0629 106.757C24.7882 106.757 24.5735 106.892 24.4188 107.163C24.2642 107.433 24.1868 107.815 24.1868 108.308C24.1868 108.637 24.2215 108.917 24.2908 109.147C24.3601 109.377 24.4597 109.552 24.5896 109.672C24.7207 109.793 24.8785 109.853 25.0629 109.853ZM28.3295 110.261C28.0499 110.261 27.8117 110.185 27.6149 110.033C27.4182 109.879 27.2679 109.657 27.1639 109.366C27.06 109.074 27.008 108.722 27.008 108.308C27.008 107.898 27.06 107.547 27.1639 107.256C27.2691 106.964 27.42 106.741 27.6168 106.588C27.8148 106.433 28.0523 106.356 28.3295 106.356C28.6067 106.356 28.8436 106.433 29.0404 106.588C29.2384 106.741 29.3893 106.964 29.4932 107.256C29.5984 107.547 29.651 107.898 29.651 108.308C29.651 108.722 29.599 109.074 29.4951 109.366C29.3912 109.657 29.2408 109.879 29.0441 110.033C28.8473 110.185 28.6092 110.261 28.3295 110.261ZM28.3295 109.853C28.6067 109.853 28.822 109.719 28.9754 109.452C29.1288 109.184 29.2056 108.803 29.2056 108.308C29.2056 107.979 29.1703 107.699 29.0998 107.468C29.0305 107.236 28.9302 107.06 28.7991 106.939C28.6692 106.817 28.5126 106.757 28.3295 106.757C28.0548 106.757 27.8401 106.892 27.6855 107.163C27.5308 107.433 27.4535 107.815 27.4535 108.308C27.4535 108.637 27.4881 108.917 27.5574 109.147C27.6267 109.377 27.7263 109.552 27.8562 109.672C27.9874 109.793 28.1451 109.853 28.3295 109.853Z" fill="#9AA2AC"/>
<path d="M78.4521 110.209V109.875L79.7068 108.501C79.854 108.34 79.9753 108.201 80.0705 108.082C80.1658 107.962 80.2363 107.849 80.2821 107.744C80.3292 107.638 80.3527 107.526 80.3527 107.41C80.3527 107.276 80.3205 107.161 80.2561 107.063C80.193 106.965 80.1064 106.89 79.9963 106.836C79.8862 106.783 79.7624 106.757 79.6251 106.757C79.4791 106.757 79.3516 106.787 79.2427 106.848C79.1351 106.907 79.0516 106.991 78.9922 107.098C78.934 107.206 78.9049 107.332 78.9049 107.477H78.4669C78.4669 107.254 78.5183 107.059 78.621 106.89C78.7237 106.722 78.8635 106.591 79.0404 106.497C79.2186 106.403 79.4185 106.356 79.6399 106.356C79.8627 106.356 80.06 106.403 80.232 106.497C80.404 106.591 80.5389 106.718 80.6366 106.877C80.7344 107.037 80.7833 107.214 80.7833 107.41C80.7833 107.55 80.7579 107.687 80.7072 107.82C80.6577 107.953 80.5711 108.1 80.4473 108.264C80.3248 108.426 80.1547 108.624 79.9369 108.858L79.0831 109.771V109.801H80.8501V110.209H78.4521ZM82.953 106.408V110.209H82.4927V106.89H82.4704L81.5424 107.506V107.039L82.4927 106.408H82.953ZM85.3825 106.408V110.209H84.9222V106.89H84.9L83.9719 107.506V107.039L84.9222 106.408H85.3825Z" fill="#9AA2AC"/>
<path d="M96.2204 109.429V109.051L97.8908 106.408H98.1655V106.994H97.9799L96.7178 108.991V109.021H98.9673V109.429H96.2204ZM98.0096 110.209V109.314V109.138V106.408H98.4477V110.209H98.0096ZM100.88 110.261C100.626 110.261 100.4 110.216 100.205 110.125C100.011 110.034 99.859 109.908 99.7501 109.749C99.6412 109.588 99.5874 109.405 99.5887 109.199C99.5874 109.038 99.619 108.89 99.6833 108.754C99.7477 108.616 99.8355 108.502 99.9469 108.41C100.059 108.318 100.185 108.259 100.324 108.234V108.212C100.142 108.165 99.997 108.063 99.8893 107.906C99.7817 107.747 99.7285 107.567 99.7297 107.365C99.7285 107.172 99.7774 107 99.8763 106.848C99.9753 106.695 100.111 106.575 100.285 106.488C100.459 106.4 100.658 106.356 100.88 106.356C101.101 106.356 101.297 106.4 101.471 106.488C101.644 106.575 101.78 106.695 101.879 106.848C101.979 107 102.03 107.172 102.031 107.365C102.03 107.567 101.975 107.747 101.866 107.906C101.758 108.063 101.615 108.165 101.437 108.212V108.234C101.575 108.259 101.698 108.318 101.808 108.41C101.919 108.502 102.006 108.616 102.072 108.754C102.138 108.89 102.171 109.038 102.172 109.199C102.171 109.405 102.115 109.588 102.005 109.749C101.896 109.908 101.745 110.034 101.55 110.125C101.357 110.216 101.134 110.261 100.88 110.261ZM100.88 109.853C101.052 109.853 101.201 109.825 101.326 109.769C101.451 109.713 101.547 109.635 101.615 109.533C101.684 109.432 101.718 109.313 101.719 109.177C101.718 109.033 101.681 108.907 101.608 108.796C101.535 108.686 101.435 108.6 101.309 108.537C101.184 108.473 101.041 108.442 100.88 108.442C100.718 108.442 100.574 108.473 100.446 108.537C100.32 108.6 100.22 108.686 100.147 108.796C100.076 108.907 100.04 109.033 100.042 109.177C100.04 109.313 100.073 109.432 100.14 109.533C100.208 109.635 100.305 109.713 100.431 109.769C100.558 109.825 100.707 109.853 100.88 109.853ZM100.88 108.048C101.017 108.048 101.137 108.021 101.242 107.967C101.349 107.912 101.432 107.836 101.493 107.739C101.554 107.641 101.585 107.526 101.586 107.395C101.585 107.266 101.554 107.154 101.495 107.059C101.435 106.963 101.353 106.888 101.248 106.836C101.143 106.783 101.02 106.757 100.88 106.757C100.738 106.757 100.614 106.783 100.507 106.836C100.401 106.888 100.319 106.963 100.261 107.059C100.202 107.154 100.174 107.266 100.175 107.395C100.174 107.526 100.203 107.641 100.262 107.739C100.323 107.836 100.407 107.912 100.513 107.967C100.619 108.021 100.742 108.048 100.88 108.048ZM104.22 106.408V110.209H103.76V106.89H103.737L102.809 107.506V107.039L103.76 106.408H104.22Z" fill="#9AA2AC"/>
<path d="M121.732 110.261C121.576 110.258 121.42 110.229 121.264 110.172C121.108 110.115 120.966 110.019 120.837 109.884C120.709 109.748 120.605 109.564 120.527 109.333C120.449 109.1 120.41 108.808 120.41 108.457C120.41 108.12 120.442 107.822 120.505 107.562C120.568 107.301 120.66 107.081 120.78 106.903C120.9 106.724 121.045 106.588 121.214 106.495C121.385 106.402 121.577 106.356 121.791 106.356C122.004 106.356 122.193 106.398 122.359 106.484C122.526 106.568 122.662 106.686 122.768 106.836C122.873 106.987 122.941 107.161 122.972 107.358H122.519C122.477 107.187 122.395 107.046 122.274 106.933C122.153 106.82 121.992 106.764 121.791 106.764C121.497 106.764 121.265 106.892 121.095 107.148C120.927 107.404 120.842 107.764 120.841 108.227H120.871C120.94 108.121 121.022 108.032 121.118 107.958C121.214 107.882 121.32 107.824 121.437 107.783C121.553 107.742 121.676 107.722 121.806 107.722C122.024 107.722 122.223 107.776 122.404 107.885C122.584 107.993 122.729 108.142 122.838 108.332C122.947 108.522 123.001 108.739 123.001 108.984C123.001 109.219 122.949 109.434 122.844 109.63C122.738 109.824 122.591 109.979 122.4 110.094C122.211 110.208 121.988 110.263 121.732 110.261ZM121.732 109.853C121.888 109.853 122.028 109.814 122.151 109.736C122.276 109.658 122.375 109.553 122.446 109.422C122.519 109.291 122.556 109.145 122.556 108.984C122.556 108.827 122.521 108.684 122.45 108.555C122.381 108.425 122.285 108.322 122.162 108.245C122.041 108.168 121.903 108.13 121.747 108.13C121.629 108.13 121.52 108.154 121.418 108.201C121.317 108.246 121.228 108.31 121.151 108.39C121.075 108.47 121.016 108.563 120.973 108.667C120.929 108.769 120.908 108.877 120.908 108.991C120.908 109.142 120.943 109.283 121.014 109.415C121.085 109.546 121.183 109.651 121.307 109.732C121.432 109.812 121.574 109.853 121.732 109.853ZM124.971 110.261C124.691 110.261 124.453 110.185 124.257 110.033C124.06 109.879 123.909 109.657 123.806 109.366C123.702 109.074 123.65 108.722 123.65 108.308C123.65 107.898 123.702 107.547 123.806 107.256C123.911 106.964 124.062 106.741 124.258 106.588C124.456 106.433 124.694 106.356 124.971 106.356C125.248 106.356 125.485 106.433 125.682 106.588C125.88 106.741 126.031 106.964 126.135 107.256C126.24 107.547 126.293 107.898 126.293 108.308C126.293 108.722 126.241 109.074 126.137 109.366C126.033 109.657 125.882 109.879 125.686 110.033C125.489 110.185 125.251 110.261 124.971 110.261ZM124.971 109.853C125.248 109.853 125.464 109.719 125.617 109.452C125.77 109.184 125.847 108.803 125.847 108.308C125.847 107.979 125.812 107.699 125.741 107.468C125.672 107.236 125.572 107.06 125.441 106.939C125.311 106.817 125.154 106.757 124.971 106.757C124.696 106.757 124.482 106.892 124.327 107.163C124.172 107.433 124.095 107.815 124.095 108.308C124.095 108.637 124.13 108.917 124.199 109.147C124.268 109.377 124.368 109.552 124.498 109.672C124.629 109.793 124.787 109.853 124.971 109.853ZM128.238 110.261C127.958 110.261 127.72 110.185 127.523 110.033C127.326 109.879 127.176 109.657 127.072 109.366C126.968 109.074 126.916 108.722 126.916 108.308C126.916 107.898 126.968 107.547 127.072 107.256C127.177 106.964 127.328 106.741 127.525 106.588C127.723 106.433 127.961 106.356 128.238 106.356C128.515 106.356 128.752 106.433 128.949 106.588C129.147 106.741 129.298 106.964 129.402 107.256C129.507 107.547 129.559 107.898 129.559 108.308C129.559 108.722 129.507 109.074 129.403 109.366C129.299 109.657 129.149 109.879 128.952 110.033C128.756 110.185 128.517 110.261 128.238 110.261ZM128.238 109.853C128.515 109.853 128.73 109.719 128.884 109.452C129.037 109.184 129.114 108.803 129.114 108.308C129.114 107.979 129.079 107.699 129.008 107.468C128.939 107.236 128.839 107.06 128.707 106.939C128.577 106.817 128.421 106.757 128.238 106.757C127.963 106.757 127.748 106.892 127.594 107.163C127.439 107.433 127.362 107.815 127.362 108.308C127.362 108.637 127.396 108.917 127.466 109.147C127.535 109.377 127.635 109.552 127.764 109.672C127.896 109.793 128.053 109.853 128.238 109.853Z" fill="#9AA2AC"/>
<rect x="152" y="56.9999" width="73" height="18" rx="2.08333" fill="#008EFF"/>
<path d="M158.152 66.8437V68.8124C158.152 68.9616 158.212 69.1047 158.317 69.2102C158.423 69.3156 158.566 69.3749 158.715 69.3749H164.34C164.489 69.3749 164.632 69.3156 164.738 69.2102C164.843 69.1047 164.902 68.9616 164.902 68.8124V66.8437C164.902 66.7691 164.873 66.6975 164.82 66.6448C164.767 66.592 164.696 66.5624 164.621 66.5624C164.547 66.5624 164.475 66.592 164.422 66.6448C164.369 66.6975 164.34 66.7691 164.34 66.8437V68.8124H158.715V66.8437C158.715 66.7691 158.685 66.6975 158.632 66.6448C158.58 66.592 158.508 66.5624 158.434 66.5624C158.359 66.5624 158.287 66.592 158.235 66.6448C158.182 66.6975 158.152 66.7691 158.152 66.8437ZM161.726 67.0426C161.7 67.0688 161.669 67.0895 161.635 67.1037C161.601 67.1178 161.564 67.1251 161.527 67.1251C161.49 67.1251 161.454 67.1178 161.42 67.1037C161.385 67.0895 161.354 67.0688 161.328 67.0426L159.922 65.6364C159.896 65.6103 159.875 65.5792 159.861 65.5451C159.847 65.511 159.84 65.4744 159.84 65.4374C159.84 65.4005 159.847 65.3639 159.861 65.3297C159.875 65.2956 159.896 65.2646 159.922 65.2384C159.948 65.2123 159.979 65.1916 160.013 65.1774C160.048 65.1633 160.084 65.156 160.121 65.156C160.158 65.156 160.195 65.1633 160.229 65.1774C160.263 65.1916 160.294 65.2123 160.32 65.2384L161.246 66.1648V62.9062C161.246 62.8316 161.276 62.76 161.328 62.7073C161.381 62.6545 161.453 62.6249 161.527 62.6249C161.602 62.6249 161.673 62.6545 161.726 62.7073C161.779 62.76 161.809 62.8316 161.809 62.9062V66.1648L162.735 65.2384C162.787 65.1857 162.859 65.156 162.934 65.156C163.008 65.156 163.08 65.1857 163.133 65.2384C163.185 65.2912 163.215 65.3628 163.215 65.4374C163.215 65.512 163.185 65.5836 163.133 65.6364L161.726 67.0426Z" fill="white"/>
<path d="M173.747 67.9999V63.9999H174.98C175.021 63.9999 175.092 64.0008 175.194 64.0027C175.296 64.0045 175.393 64.0119 175.486 64.0249C175.795 64.0656 176.053 64.1786 176.261 64.3638C176.47 64.5471 176.627 64.7805 176.733 65.0638C176.838 65.3471 176.891 65.6592 176.891 65.9999C176.891 66.3406 176.838 66.6527 176.733 66.936C176.627 67.2194 176.47 67.4536 176.261 67.6388C176.053 67.8221 175.795 67.9342 175.486 67.9749C175.393 67.986 175.295 67.9934 175.191 67.9971C175.089 67.999 175.019 67.9999 174.98 67.9999H173.747ZM174.255 67.5277H174.98C175.05 67.5277 175.129 67.5258 175.216 67.5221C175.303 67.5166 175.379 67.5082 175.444 67.4971C175.662 67.4564 175.839 67.3647 175.974 67.2221C176.11 67.0795 176.209 66.9018 176.272 66.6888C176.335 66.4758 176.366 66.2462 176.366 65.9999C176.366 65.7481 176.334 65.5156 176.269 65.3027C176.206 65.0897 176.107 64.9129 175.972 64.7721C175.836 64.6314 175.661 64.5416 175.444 64.5027C175.379 64.4897 175.302 64.4814 175.213 64.4777C175.124 64.474 175.047 64.4721 174.98 64.4721H174.255V67.5277ZM178.845 68.0832C178.55 68.0832 178.293 68.0184 178.073 67.8888C177.854 67.7573 177.684 67.5749 177.561 67.3416C177.439 67.1064 177.378 66.8323 177.378 66.5194C177.378 66.1916 177.438 65.9082 177.559 65.6694C177.679 65.4286 177.847 65.2434 178.061 65.1138C178.278 64.9823 178.532 64.9166 178.823 64.9166C179.124 64.9166 179.381 64.986 179.592 65.1249C179.805 65.2638 179.964 65.4619 180.07 65.7194C180.177 65.9768 180.223 66.2832 180.209 66.6388H179.709V66.461C179.703 66.0925 179.628 65.8175 179.484 65.636C179.339 65.4527 179.124 65.361 178.839 65.361C178.534 65.361 178.301 65.4592 178.142 65.6555C177.983 65.8518 177.903 66.1332 177.903 66.4999C177.903 66.8536 177.983 67.1277 178.142 67.3221C178.301 67.5166 178.528 67.6138 178.823 67.6138C179.021 67.6138 179.193 67.5684 179.339 67.4777C179.486 67.3869 179.6 67.2564 179.684 67.086L180.159 67.2499C180.042 67.5147 179.866 67.7203 179.631 67.8666C179.398 68.011 179.136 68.0832 178.845 68.0832ZM177.736 66.6388V66.2416H179.953V66.6388H177.736ZM181.977 68.0805C181.62 68.0805 181.326 68.0027 181.097 67.8471C180.869 67.6897 180.729 67.4703 180.677 67.1888L181.183 67.1082C181.223 67.2712 181.317 67.4008 181.463 67.4971C181.61 67.5916 181.791 67.6388 182.008 67.6388C182.213 67.6388 182.374 67.5962 182.491 67.511C182.608 67.4258 182.666 67.3101 182.666 67.1638C182.666 67.0786 182.647 67.0101 182.608 66.9582C182.569 66.9045 182.488 66.8545 182.366 66.8082C182.246 66.7619 182.063 66.7064 181.819 66.6416C181.554 66.5712 181.346 66.4981 181.194 66.4221C181.042 66.3462 180.934 66.2582 180.869 66.1582C180.804 66.0582 180.772 65.9369 180.772 65.7944C180.772 65.6184 180.82 65.4647 180.916 65.3332C181.012 65.1999 181.147 65.0971 181.319 65.0249C181.493 64.9527 181.695 64.9166 181.924 64.9166C182.152 64.9166 182.356 64.9527 182.535 65.0249C182.715 65.0971 182.86 65.1999 182.969 65.3332C183.08 65.4647 183.146 65.6184 183.166 65.7944L182.66 65.886C182.636 65.7249 182.559 65.5981 182.427 65.5055C182.297 65.4129 182.13 65.3638 181.924 65.3582C181.73 65.3508 181.572 65.3851 181.449 65.461C181.329 65.5369 181.269 65.6397 181.269 65.7694C181.269 65.8416 181.291 65.9036 181.335 65.9555C181.382 66.0073 181.466 66.0564 181.588 66.1027C181.712 66.149 181.892 66.2018 182.127 66.261C182.392 66.3277 182.6 66.4008 182.752 66.4805C182.906 66.5582 183.015 66.6508 183.08 66.7582C183.145 66.8638 183.177 66.9944 183.177 67.1499C183.177 67.4388 183.071 67.6666 182.858 67.8332C182.645 67.9981 182.351 68.0805 181.977 68.0805ZM185.07 68.0832C184.767 68.0832 184.508 68.0156 184.295 67.8805C184.084 67.7434 183.923 67.5555 183.812 67.3166C183.701 67.0777 183.643 66.8055 183.64 66.4999C183.643 66.1869 183.702 65.9119 183.815 65.6749C183.93 65.436 184.093 65.2499 184.306 65.1166C184.519 64.9832 184.776 64.9166 185.076 64.9166C185.393 64.9166 185.665 64.9944 185.893 65.1499C186.122 65.3055 186.276 65.5184 186.354 65.7888L185.865 65.936C185.802 65.7619 185.699 65.6268 185.556 65.5305C185.416 65.4342 185.254 65.386 185.07 65.386C184.865 65.386 184.695 65.4342 184.562 65.5305C184.429 65.6249 184.33 65.7564 184.265 65.9249C184.2 66.0916 184.167 66.2832 184.165 66.4999C184.168 66.8332 184.245 67.1027 184.395 67.3082C184.547 67.5119 184.772 67.6138 185.07 67.6138C185.267 67.6138 185.43 67.5694 185.559 67.4805C185.689 67.3897 185.787 67.2592 185.854 67.0888L186.354 67.2194C186.25 67.499 186.088 67.7129 185.868 67.861C185.647 68.0092 185.381 68.0832 185.07 68.0832ZM187.763 68.0832C187.539 68.0832 187.351 68.0425 187.199 67.961C187.049 67.8777 186.935 67.7684 186.857 67.6332C186.781 67.4981 186.743 67.3499 186.743 67.1888C186.743 67.0314 186.773 66.8953 186.832 66.7805C186.893 66.6638 186.979 66.5675 187.088 66.4916C187.197 66.4138 187.328 66.3527 187.48 66.3082C187.622 66.2694 187.781 66.236 187.957 66.2082C188.135 66.1786 188.315 66.1518 188.496 66.1277C188.678 66.1036 188.847 66.0805 189.005 66.0582L188.827 66.161C188.832 65.8944 188.779 65.6971 188.666 65.5694C188.555 65.4416 188.362 65.3777 188.088 65.3777C187.906 65.3777 187.747 65.4194 187.61 65.5027C187.475 65.5842 187.38 65.7175 187.324 65.9027L186.855 65.761C186.927 65.4981 187.067 65.2916 187.274 65.1416C187.481 64.9916 187.755 64.9166 188.093 64.9166C188.366 64.9166 188.599 64.9656 188.793 65.0638C188.99 65.1601 189.13 65.3064 189.216 65.5027C189.258 65.5953 189.285 65.6962 189.296 65.8055C189.307 65.9129 189.313 66.0258 189.313 66.1444V67.9999H188.874V67.2805L188.977 67.3471C188.864 67.5897 188.705 67.7731 188.502 67.8971C188.3 68.0212 188.054 68.0832 187.763 68.0832ZM187.838 67.6694C188.016 67.6694 188.169 67.6379 188.299 67.5749C188.43 67.5101 188.536 67.4258 188.616 67.3221C188.695 67.2166 188.747 67.1018 188.771 66.9777C188.799 66.8851 188.814 66.7823 188.816 66.6694C188.819 66.5545 188.821 66.4666 188.821 66.4055L188.993 66.4805C188.832 66.5027 188.674 66.524 188.518 66.5444C188.363 66.5647 188.216 66.5869 188.077 66.611C187.938 66.6332 187.813 66.6601 187.702 66.6916C187.62 66.7175 187.543 66.7508 187.471 66.7916C187.401 66.8323 187.343 66.8851 187.299 66.9499C187.256 67.0129 187.235 67.0916 187.235 67.186C187.235 67.2675 187.255 67.3453 187.296 67.4194C187.339 67.4934 187.404 67.5536 187.491 67.5999C187.58 67.6462 187.695 67.6694 187.838 67.6694ZM191.266 69.4166C191.108 69.4166 190.955 69.3925 190.805 69.3444C190.655 69.2962 190.517 69.2231 190.391 69.1249C190.267 69.0286 190.163 68.9064 190.08 68.7582L190.532 68.5194C190.606 68.6656 190.711 68.7721 190.846 68.8388C190.983 68.9055 191.124 68.9388 191.268 68.9388C191.459 68.9388 191.617 68.9036 191.743 68.8332C191.869 68.7647 191.962 68.6619 192.021 68.5249C192.082 68.3879 192.112 68.2175 192.11 68.0138V67.1944H192.168V64.9999H192.607V68.0194C192.607 68.1008 192.605 68.1795 192.599 68.2555C192.595 68.3314 192.586 68.4064 192.571 68.4805C192.532 68.6934 192.455 68.8684 192.341 69.0055C192.226 69.1444 192.078 69.2471 191.896 69.3138C191.715 69.3823 191.505 69.4166 191.266 69.4166ZM191.23 68.0832C190.95 68.0832 190.71 68.0138 190.51 67.8749C190.31 67.7342 190.155 67.5444 190.046 67.3055C189.939 67.0666 189.885 66.7971 189.885 66.4971C189.885 66.1971 189.939 65.9277 190.046 65.6888C190.155 65.4499 190.31 65.2619 190.51 65.1249C190.71 64.986 190.949 64.9166 191.227 64.9166C191.51 64.9166 191.748 64.9851 191.941 65.1221C192.133 65.2592 192.279 65.4471 192.377 65.686C192.477 65.9249 192.527 66.1953 192.527 66.4971C192.527 66.7953 192.477 67.0647 192.377 67.3055C192.279 67.5444 192.133 67.7342 191.941 67.8749C191.748 68.0138 191.511 68.0832 191.23 68.0832ZM191.291 67.6305C191.492 67.6305 191.658 67.5823 191.788 67.486C191.917 67.3879 192.013 67.2536 192.074 67.0832C192.137 66.911 192.168 66.7156 192.168 66.4971C192.168 66.2749 192.137 66.0795 192.074 65.911C192.013 65.7406 191.918 65.6082 191.791 65.5138C191.663 65.4175 191.501 65.3694 191.305 65.3694C191.101 65.3694 190.932 65.4194 190.799 65.5194C190.667 65.6194 190.569 65.7545 190.505 65.9249C190.442 66.0953 190.41 66.286 190.41 66.4971C190.41 66.7101 190.442 66.9027 190.507 67.0749C190.572 67.2453 190.669 67.3805 190.799 67.4805C190.93 67.5805 191.094 67.6305 191.291 67.6305ZM194.252 68.0832C194.028 68.0832 193.84 68.0425 193.688 67.961C193.538 67.8777 193.425 67.7684 193.347 67.6332C193.271 67.4981 193.233 67.3499 193.233 67.1888C193.233 67.0314 193.263 66.8953 193.322 66.7805C193.383 66.6638 193.468 66.5675 193.577 66.4916C193.687 66.4138 193.817 66.3527 193.969 66.3082C194.112 66.2694 194.271 66.236 194.447 66.2082C194.625 66.1786 194.804 66.1518 194.986 66.1277C195.167 66.1036 195.337 66.0805 195.494 66.0582L195.316 66.161C195.322 65.8944 195.268 65.6971 195.155 65.5694C195.044 65.4416 194.851 65.3777 194.577 65.3777C194.396 65.3777 194.237 65.4194 194.1 65.5027C193.964 65.5842 193.869 65.7175 193.813 65.9027L193.344 65.761C193.416 65.4981 193.556 65.2916 193.763 65.1416C193.971 64.9916 194.244 64.9166 194.583 64.9166C194.855 64.9166 195.088 64.9656 195.283 65.0638C195.479 65.1601 195.62 65.3064 195.705 65.5027C195.748 65.5953 195.775 65.6962 195.786 65.8055C195.797 65.9129 195.802 66.0258 195.802 66.1444V67.9999H195.363V67.2805L195.466 67.3471C195.353 67.5897 195.195 67.7731 194.991 67.8971C194.789 68.0212 194.543 68.0832 194.252 68.0832ZM194.327 67.6694C194.505 67.6694 194.659 67.6379 194.788 67.5749C194.92 67.5101 195.026 67.4258 195.105 67.3221C195.185 67.2166 195.237 67.1018 195.261 66.9777C195.288 66.8851 195.303 66.7823 195.305 66.6694C195.309 66.5545 195.311 66.4666 195.311 66.4055L195.483 66.4805C195.322 66.5027 195.163 66.524 195.008 66.5444C194.852 66.5647 194.705 66.5869 194.566 66.611C194.427 66.6332 194.302 66.6601 194.191 66.6916C194.11 66.7175 194.033 66.7508 193.961 66.7916C193.89 66.8323 193.833 66.8851 193.788 66.9499C193.746 67.0129 193.725 67.0916 193.725 67.186C193.725 67.2675 193.745 67.3453 193.786 67.4194C193.828 67.4934 193.893 67.5536 193.98 67.5999C194.069 67.6462 194.185 67.6694 194.327 67.6694ZM196.541 67.9999V64.9999H196.983V65.7249L196.911 65.6305C196.946 65.5379 196.991 65.4527 197.047 65.3749C197.104 65.2971 197.168 65.2332 197.238 65.1832C197.316 65.1203 197.404 65.0721 197.502 65.0388C197.601 65.0055 197.701 64.986 197.802 64.9805C197.904 64.9731 198 64.9795 198.088 64.9999V65.4638C197.985 65.436 197.871 65.4286 197.747 65.4416C197.623 65.4545 197.508 65.4999 197.402 65.5777C197.306 65.6462 197.231 65.7295 197.177 65.8277C197.126 65.9258 197.089 66.0323 197.069 66.1471C197.049 66.2601 197.038 66.3758 197.038 66.4944V67.9999H196.541ZM199.815 64.4694V63.9582H200.309V64.4694H199.815ZM199.815 67.9999V64.9999H200.309V67.9999H199.815ZM203.296 67.9999V66.4971C203.296 66.3545 203.283 66.2175 203.257 66.086C203.233 65.9545 203.189 65.8369 203.126 65.7332C203.065 65.6277 202.982 65.5444 202.876 65.4832C202.772 65.4221 202.641 65.3916 202.482 65.3916C202.358 65.3916 202.245 65.4129 202.143 65.4555C202.043 65.4962 201.957 65.5592 201.884 65.6444C201.812 65.7295 201.756 65.8369 201.715 65.9666C201.676 66.0944 201.657 66.2453 201.657 66.4194L201.332 66.3194C201.332 66.0286 201.383 65.7795 201.487 65.5721C201.593 65.3629 201.74 65.2027 201.929 65.0916C202.12 64.9786 202.344 64.9221 202.601 64.9221C202.796 64.9221 202.961 64.9527 203.098 65.0138C203.235 65.0749 203.349 65.1564 203.44 65.2582C203.531 65.3582 203.602 65.4712 203.654 65.5971C203.706 65.7212 203.742 65.8481 203.762 65.9777C203.784 66.1055 203.796 66.2268 203.796 66.3416V67.9999H203.296ZM201.157 67.9999V64.9999H201.601V65.8027H201.657V67.9999H201.157ZM204.82 67.9999V64.836C204.82 64.7582 204.824 64.6795 204.832 64.5999C204.839 64.5184 204.856 64.4397 204.882 64.3638C204.908 64.286 204.95 64.2147 205.009 64.1499C205.078 64.074 205.153 64.0203 205.234 63.9888C205.316 63.9555 205.398 63.9351 205.482 63.9277C205.567 63.9203 205.647 63.9166 205.723 63.9166H206.104V64.3277H205.751C205.605 64.3277 205.495 64.3638 205.423 64.436C205.351 64.5064 205.315 64.6138 205.315 64.7582V67.9999H204.82ZM204.312 65.4082V64.9999H206.104V65.4082H204.312ZM207.733 68.0832C207.435 68.0832 207.178 68.0156 206.961 67.8805C206.746 67.7453 206.58 67.5582 206.464 67.3194C206.347 67.0805 206.289 66.8064 206.289 66.4971C206.289 66.1823 206.348 65.9064 206.466 65.6694C206.585 65.4323 206.753 65.2481 206.969 65.1166C207.186 64.9832 207.441 64.9166 207.733 64.9166C208.033 64.9166 208.291 64.9842 208.508 65.1194C208.725 65.2527 208.891 65.4388 209.005 65.6777C209.122 65.9147 209.18 66.1879 209.18 66.4971C209.18 66.8101 209.122 67.086 209.005 67.3249C208.889 67.5619 208.722 67.7481 208.505 67.8832C208.289 68.0166 208.031 68.0832 207.733 68.0832ZM207.733 67.6138C208.044 67.6138 208.276 67.5101 208.428 67.3027C208.579 67.0953 208.655 66.8268 208.655 66.4971C208.655 66.1582 208.578 65.8888 208.425 65.6888C208.271 65.4869 208.041 65.386 207.733 65.386C207.524 65.386 207.352 65.4332 207.216 65.5277C207.081 65.6221 206.98 65.7527 206.914 65.9194C206.847 66.086 206.814 66.2786 206.814 66.4971C206.814 66.8342 206.891 67.1045 207.047 67.3082C207.203 67.5119 207.431 67.6138 207.733 67.6138ZM209.809 67.9999V64.9999H210.25V65.7249L210.178 65.6305C210.213 65.5379 210.259 65.4527 210.314 65.3749C210.372 65.2971 210.435 65.2332 210.506 65.1832C210.584 65.1203 210.672 65.0721 210.77 65.0388C210.868 65.0055 210.968 64.986 211.07 64.9805C211.172 64.9731 211.267 64.9795 211.356 64.9999V65.4638C211.252 65.436 211.138 65.4286 211.014 65.4416C210.89 65.4545 210.775 65.4999 210.67 65.5777C210.573 65.6462 210.498 65.7295 210.445 65.8277C210.393 65.9258 210.357 66.0323 210.336 66.1471C210.316 66.2601 210.306 66.3758 210.306 66.4944V67.9999H209.809ZM215.484 67.9999L215.487 66.0805C215.487 65.8564 215.426 65.6814 215.306 65.5555C215.188 65.4277 215.033 65.3638 214.842 65.3638C214.731 65.3638 214.626 65.3897 214.526 65.4416C214.426 65.4916 214.344 65.5712 214.281 65.6805C214.218 65.7879 214.187 65.9258 214.187 66.0944L213.926 65.9888C213.922 65.7758 213.965 65.5897 214.056 65.4305C214.149 65.2694 214.275 65.1444 214.434 65.0555C214.593 64.9666 214.773 64.9221 214.973 64.9221C215.286 64.9221 215.532 65.0175 215.712 65.2082C215.891 65.3971 215.981 65.6518 215.981 65.9721L215.978 67.9999H215.484ZM211.895 67.9999V64.9999H212.337V65.8027H212.392V67.9999H211.895ZM213.692 67.9999L213.695 66.0999C213.695 65.8703 213.636 65.6906 213.517 65.561C213.399 65.4295 213.241 65.3638 213.045 65.3638C212.851 65.3638 212.693 65.4305 212.573 65.5638C212.452 65.6971 212.392 65.874 212.392 66.0944L212.131 65.9388C212.131 65.7444 212.177 65.5703 212.27 65.4166C212.363 65.2629 212.488 65.1425 212.648 65.0555C212.807 64.9666 212.988 64.9221 213.189 64.9221C213.391 64.9221 213.567 64.9647 213.717 65.0499C213.867 65.1351 213.983 65.2573 214.064 65.4166C214.146 65.574 214.187 65.7619 214.187 65.9805L214.184 67.9999H213.692ZM217.994 68.0832C217.7 68.0832 217.442 68.0184 217.222 67.8888C217.003 67.7573 216.833 67.5749 216.711 67.3416C216.589 67.1064 216.527 66.8323 216.527 66.5194C216.527 66.1916 216.588 65.9082 216.708 65.6694C216.828 65.4286 216.996 65.2434 217.211 65.1138C217.427 64.9823 217.681 64.9166 217.972 64.9166C218.274 64.9166 218.53 64.986 218.741 65.1249C218.954 65.2638 219.114 65.4619 219.219 65.7194C219.327 65.9768 219.373 66.2832 219.358 66.6388H218.858V66.461C218.852 66.0925 218.777 65.8175 218.633 65.636C218.489 65.4527 218.274 65.361 217.989 65.361C217.683 65.361 217.451 65.4592 217.291 65.6555C217.132 65.8518 217.052 66.1332 217.052 66.4999C217.052 66.8536 217.132 67.1277 217.291 67.3221C217.451 67.5166 217.677 67.6138 217.972 67.6138C218.17 67.6138 218.342 67.5684 218.489 67.4777C218.635 67.3869 218.75 67.2564 218.833 67.086L219.308 67.2499C219.191 67.5147 219.015 67.7203 218.78 67.8666C218.547 68.011 218.285 68.0832 217.994 68.0832ZM216.886 66.6388V66.2416H219.102V66.6388H216.886Z" fill="white"/>
</g>
<defs>
<clipPath id="clip0_1665_27276">
<rect y="-9.15527e-05" width="243" height="132" rx="5" fill="white"/>
</clipPath>
</defs>
</svg>
