<svg width="243" height="132" viewBox="0 0 243 132" fill="none" xmlns="http://www.w3.org/2000/svg">
<g clip-path="url(#clip0_1665_27307)">
<rect y="-0.00012207" width="243" height="132" rx="5" fill="#F4F4F4"/>
<g filter="url(#filter0_d_1665_27307)">
<rect x="184.373" y="47.0195" width="46.6271" height="44.371" rx="3.76025" fill="#38B9A9"/>
<mask id="mask0_1665_27307" style="mask-type:alpha" maskUnits="userSpaceOnUse" x="184" y="47" width="47" height="45">
<rect x="184.373" y="47.0186" width="46.6271" height="44.371" rx="3.76025" fill="#9ECCFA"/>
</mask>
<g mask="url(#mask0_1665_27307)">
<path d="M218.729 62.5389C218.664 62.5389 218.601 62.5129 218.554 62.4664C218.508 62.42 218.482 62.357 218.482 62.2913V60.7065C218.44 57.9906 217.331 55.4001 215.396 53.4944C213.46 51.5886 210.853 50.5205 208.137 50.5205C205.421 50.5205 202.813 51.5886 200.878 53.4944C198.943 55.4001 197.834 57.9906 197.792 60.7065V62.2913C197.792 62.357 197.766 62.42 197.72 62.4664C197.673 62.5129 197.61 62.5389 197.545 62.5389C197.479 62.5389 197.416 62.5129 197.369 62.4664C197.323 62.42 197.297 62.357 197.297 62.2913V60.7065C197.34 57.8599 198.501 55.1444 200.529 53.1466C202.557 51.1488 205.29 50.029 208.137 50.029C210.984 50.029 213.717 51.1488 215.745 53.1466C217.773 55.1444 218.934 57.8599 218.977 60.7065V62.2913C218.977 62.3238 218.971 62.356 218.958 62.3861C218.946 62.4161 218.928 62.4434 218.905 62.4664C218.882 62.4894 218.854 62.5077 218.824 62.5201C218.794 62.5325 218.762 62.5389 218.729 62.5389Z" fill="#161616"/>
<path d="M217.787 92.1822C217.787 92.1822 219.043 92.6007 219.32 93.1108C219.597 93.6209 219.833 95.7605 220.528 95.5748C221.224 95.389 220.622 93.252 221.18 93.2966C221.737 93.3411 225.573 95.2033 225.479 94.2276C225.384 93.252 223.644 91.7167 222.155 90.9738C220.667 90.2309 218.131 89.904 218.131 89.904L217.787 92.1822Z" fill="#FFC9B0"/>
<path d="M220.442 95.8345C220.342 95.8336 220.244 95.8062 220.157 95.7552C219.766 95.5274 219.571 94.8786 219.335 93.9871C219.28 93.7281 219.201 93.4745 219.1 93.2294C218.932 92.9198 218.157 92.5682 217.706 92.4171C217.651 92.3986 217.604 92.361 217.573 92.3112C217.543 92.2614 217.531 92.2024 217.54 92.1447L217.887 89.8665C217.896 89.8029 217.931 89.7457 217.982 89.7068C218.033 89.668 218.098 89.6507 218.162 89.6585C218.268 89.6585 220.757 89.9978 222.265 90.7506C223.642 91.4415 225.61 93.0238 225.732 94.2026C225.743 94.2835 225.733 94.366 225.702 94.4417C225.671 94.5174 225.621 94.5835 225.556 94.6334C225.113 94.9727 223.914 94.5542 222.27 93.9252C221.856 93.7692 221.393 93.5909 221.212 93.5513C221.171 93.785 221.154 94.0224 221.163 94.2595C221.163 94.9207 221.163 95.6685 220.601 95.8146C220.549 95.8281 220.496 95.8348 220.442 95.8345ZM218.06 92.0185C218.454 92.167 219.283 92.5286 219.546 92.9941C219.668 93.273 219.761 93.5633 219.826 93.8608C219.954 94.3561 220.172 95.1857 220.417 95.3268C220.426 95.3314 220.435 95.3337 220.445 95.3337C220.454 95.3337 220.464 95.3314 220.472 95.3268C220.658 95.2773 220.665 94.6062 220.668 94.2471C220.668 93.7519 220.668 93.3433 220.893 93.1452C220.935 93.106 220.984 93.0765 221.039 93.0585C221.093 93.0405 221.151 93.0346 221.207 93.0412C221.633 93.1365 222.048 93.2751 222.446 93.4547C223.188 93.737 224.902 94.3908 225.239 94.2397C225.145 93.4324 223.607 91.9615 222.054 91.1839C220.883 90.5995 219.008 90.2751 218.34 90.1736L218.06 92.0185Z" fill="#161616"/>
<path d="M209.746 61.9541C206.202 61.5183 201.663 62.4321 199.07 64.995C198.655 65.3526 198.344 65.8154 198.169 66.3347C197.726 68.0434 198.129 69.7124 196.621 70.9976C196.238 71.327 195.797 71.592 195.445 71.9584C194.306 73.1471 194.541 75.356 195.908 76.2771C195.138 77.02 195.019 78.2384 195.254 79.2834C195.678 81.1753 197.087 82.7502 198.766 83.7086C200.445 84.6669 202.379 85.1151 204.3 85.3727C207.096 85.7466 209.974 85.7639 212.7 85.0458C215.427 84.3277 218.004 82.8295 219.696 80.5711C220.271 79.8662 220.653 79.024 220.805 78.127C220.978 76.7377 220.31 75.403 219.668 74.1649C220.609 73.0579 220.84 71.4632 220.505 70.0517C220.171 68.6402 219.327 67.3896 218.336 66.3372C216.069 63.9221 213.032 62.3723 209.746 61.9541Z" fill="#725858"/>
<path d="M207.924 85.8773C206.701 85.8752 205.479 85.7925 204.266 85.6296C201.845 85.3052 200.111 84.7827 198.643 83.9358C196.743 82.8388 195.424 81.1673 195.012 79.3497C194.748 78.166 194.946 77.0591 195.542 76.3236C194.938 75.7958 194.561 75.055 194.49 74.2559C194.433 73.8145 194.473 73.366 194.607 72.9417C194.742 72.5175 194.967 72.1276 195.268 71.7994C195.497 71.5697 195.746 71.3593 196.01 71.1704C196.166 71.054 196.315 70.9426 196.459 70.8212C197.449 69.9867 197.546 68.9937 197.675 67.8497C197.719 67.3251 197.802 66.8046 197.922 66.292C198.107 65.7291 198.44 65.2267 198.888 64.8384C201.651 62.1145 206.344 61.3072 209.769 61.7257C213.11 62.1574 216.199 63.7324 218.51 66.1831C219.682 67.4361 220.432 68.7263 220.739 70.0164C221.108 71.5641 220.813 73.1193 219.956 74.2262C220.543 75.3603 221.224 76.7471 221.046 78.2007C220.944 79.0179 220.566 79.8573 219.887 80.7612C218.27 82.9205 215.737 84.5425 212.758 85.3275C211.177 85.7179 209.552 85.9027 207.924 85.8773ZM207.892 62.0897C204.091 62.0897 200.894 63.5433 199.245 65.1728C198.861 65.5036 198.573 65.9311 198.41 66.4109C198.292 66.8996 198.209 67.3962 198.162 67.8967C198.034 69.0482 197.915 70.2368 196.773 71.1976C196.62 71.3289 196.459 71.4453 196.3 71.5691C196.057 71.7412 195.827 71.9325 195.614 72.1411C195.373 72.4232 195.191 72.7516 195.081 73.1063C194.972 73.461 194.935 73.8345 194.975 74.2037C195.015 74.5729 195.129 74.9301 195.312 75.2533C195.495 75.5766 195.742 75.8591 196.038 76.0834C196.068 76.1042 196.093 76.1314 196.112 76.1631C196.13 76.1948 196.141 76.2301 196.144 76.2667C196.148 76.3035 196.143 76.3407 196.13 76.3754C196.117 76.4101 196.096 76.4415 196.07 76.4672C195.451 77.0715 195.233 78.1066 195.485 79.2407C195.864 80.9246 197.102 82.4797 198.88 83.5074C200.29 84.3196 201.968 84.8223 204.328 85.1393C207.491 85.5628 210.207 85.4563 212.634 84.8174C215.506 84.0745 217.941 82.5045 219.493 80.4343C220.117 79.5998 220.467 78.8396 220.556 78.109C220.712 76.8486 220.145 75.6327 219.444 74.2807C219.421 74.2368 219.412 74.1873 219.418 74.1383C219.424 74.0893 219.444 74.0432 219.476 74.0058C220.301 73.0375 220.6 71.5443 220.261 70.1105C219.974 68.9046 219.27 67.6912 218.151 66.5001C215.917 64.1397 212.936 62.6245 209.712 62.2111C209.108 62.1334 208.5 62.0929 207.892 62.0897Z" fill="#161616"/>
<path d="M208.025 52.2003H208.414C210.812 52.2003 213.111 53.1528 214.807 54.8483C216.502 56.5438 217.455 58.8435 217.455 61.2413V63.9132H198.986V61.2413C198.986 58.8435 199.939 56.5438 201.634 54.8483C203.33 53.1528 205.63 52.2003 208.027 52.2003H208.025Z" fill="#725858"/>
<path d="M217.469 64.1637H198.986C198.92 64.1637 198.857 64.1376 198.811 64.0911C198.764 64.0447 198.738 63.9817 198.738 63.916V61.2416C198.741 58.7793 199.72 56.4186 201.461 54.6773C203.202 52.936 205.562 51.9562 208.024 51.9529H208.416C210.88 51.9529 213.244 52.9312 214.988 54.6728C216.732 56.4144 217.714 58.777 217.717 61.2416V63.916C217.717 63.9817 217.691 64.0447 217.644 64.0911C217.598 64.1376 217.535 64.1637 217.469 64.1637ZM199.246 63.6684H217.222V61.2416C217.219 58.9103 216.292 56.6751 214.643 55.0266C212.995 53.3781 210.759 52.4508 208.428 52.4482H208.037C205.706 52.4508 203.471 53.3782 201.823 55.0268C200.175 56.6754 199.248 58.9105 199.246 61.2416V63.6684Z" fill="#161616"/>
<path d="M206.434 77.5376V75.5665H209.861V77.5376" fill="#FFC9B0"/>
<path d="M209.86 77.7867C209.795 77.7867 209.732 77.7606 209.685 77.7141C209.639 77.6677 209.613 77.6047 209.613 77.5391V75.8056H206.681V77.5391C206.681 77.6047 206.655 77.6677 206.608 77.7141C206.562 77.7606 206.499 77.7867 206.433 77.7867C206.368 77.7867 206.305 77.7606 206.258 77.7141C206.212 77.6677 206.186 77.6047 206.186 77.5391V75.558C206.186 75.4923 206.212 75.4293 206.258 75.3829C206.305 75.3365 206.368 75.3104 206.433 75.3104H209.86C209.926 75.3104 209.989 75.3365 210.036 75.3829C210.082 75.4293 210.108 75.4923 210.108 75.558V77.5391C210.108 77.6047 210.082 77.6677 210.036 77.7141C209.989 77.7606 209.926 77.7867 209.86 77.7867Z" fill="#161616"/>
<path d="M208.139 76.0147C203.082 76.0147 198.977 73.006 198.977 67.459V63.5762C204.372 64.589 205.195 58.9875 205.195 58.9875C210.09 67.5011 217.279 61.87 217.279 61.87V67.459C217.289 73.006 213.193 76.0147 208.139 76.0147Z" fill="#FFC9B0"/>
<path d="M208.139 76.2627C202.515 76.2627 198.729 72.7266 198.729 67.4594V63.5766C198.728 63.5399 198.735 63.5036 198.751 63.4702C198.766 63.4369 198.788 63.4073 198.816 63.3836C198.844 63.3599 198.877 63.3427 198.912 63.3333C198.948 63.3238 198.985 63.3223 199.021 63.3289C200.507 63.6088 201.782 63.3884 202.785 62.6702C204.57 61.3974 204.947 58.9706 204.949 58.9557C204.957 58.9052 204.98 58.8584 205.016 58.8216C205.051 58.7848 205.097 58.7598 205.147 58.7502C205.198 58.7402 205.25 58.7462 205.297 58.7675C205.345 58.7888 205.384 58.8244 205.41 58.8691C206.876 61.4222 208.693 62.9253 210.813 63.3264C214.134 63.9728 217.098 61.6921 217.128 61.6698C217.164 61.6409 217.208 61.6229 217.255 61.6179C217.301 61.6129 217.348 61.6211 217.39 61.6415C217.432 61.6619 217.467 61.6938 217.491 61.7334C217.516 61.773 217.529 61.8188 217.529 61.8654V67.4545C217.539 72.7266 213.755 76.2627 208.139 76.2627ZM199.224 63.8811V67.4693C199.224 73.2094 203.696 75.7774 208.139 75.7774C212.581 75.7774 217.053 73.2094 217.053 67.4693V62.3458C216.1 62.9748 213.586 64.3715 210.739 63.8316C208.626 63.4205 206.806 62.0165 205.321 59.659C205.073 60.5257 204.481 62.1007 203.092 63.0912C202.032 63.8291 200.737 64.0941 199.234 63.8712L199.224 63.8811Z" fill="#161616"/>
<path d="M197.603 60.7203H198.987V69.7688H197.603C197.116 69.7688 196.649 69.5755 196.305 69.2314C195.961 68.8872 195.768 68.4205 195.768 67.9339V62.5553C195.768 62.0686 195.961 61.6019 196.305 61.2578C196.649 60.9137 197.116 60.7203 197.603 60.7203Z" fill="#292626"/>
<path d="M198.986 70.016H197.602C197.05 70.016 196.521 69.797 196.13 69.4069C195.74 69.0169 195.52 68.4878 195.52 67.9359V62.5574C195.52 62.0052 195.74 61.4759 196.13 61.0855C196.521 60.6951 197.05 60.4754 197.602 60.4748H198.986C199.052 60.4748 199.115 60.5009 199.161 60.5473C199.208 60.5938 199.234 60.6567 199.234 60.7224V69.7684C199.234 69.8341 199.208 69.8971 199.161 69.9435C199.115 69.99 199.052 70.016 198.986 70.016ZM197.602 60.9701C197.181 60.9701 196.777 61.1373 196.48 61.435C196.182 61.7327 196.015 62.1364 196.015 62.5574V67.9359C196.015 68.3565 196.183 68.7596 196.481 69.0567C196.778 69.3539 197.182 69.5208 197.602 69.5208H198.739V60.9701H197.602Z" fill="#161616"/>
<path d="M218.675 69.7665H217.291V60.7181H218.675C219.161 60.7181 219.628 60.9114 219.972 61.2555C220.316 61.5996 220.51 62.0664 220.51 62.553V67.9316C220.51 68.4182 220.316 68.885 219.972 69.2291C219.628 69.5732 219.161 69.7665 218.675 69.7665Z" fill="#292626"/>
<path d="M218.672 70.016H217.291C217.225 70.016 217.162 69.99 217.115 69.9435C217.069 69.8971 217.043 69.8341 217.043 69.7684V60.7224C217.043 60.6567 217.069 60.5938 217.115 60.5473C217.162 60.5009 217.225 60.4748 217.291 60.4748H218.672C219.225 60.4754 219.754 60.6951 220.144 61.0855C220.535 61.4759 220.754 62.0052 220.755 62.5574V67.9359C220.754 68.4878 220.535 69.0169 220.144 69.4069C219.754 69.797 219.224 70.016 218.672 70.016ZM217.538 69.5208H218.672C219.093 69.5208 219.496 69.3539 219.794 69.0567C220.092 68.7596 220.259 68.3565 220.26 67.9359V62.5574C220.26 62.1364 220.092 61.7327 219.795 61.435C219.497 61.1373 219.093 60.9701 218.672 60.9701H217.538V69.5208Z" fill="#161616"/>
<path d="M202.132 74.4643C200.933 74.4643 199.314 74.3256 198.494 73.6644C197.112 72.5451 197.164 69.9029 197.167 69.7915C197.167 69.7258 197.193 69.6628 197.239 69.6164C197.286 69.5699 197.349 69.5438 197.414 69.5438C197.48 69.5438 197.543 69.5699 197.59 69.6164C197.636 69.6628 197.662 69.7258 197.662 69.7915C197.662 69.8162 197.615 72.3024 198.804 73.2583C199.992 74.2142 203.509 73.8873 203.548 73.8848C203.613 73.8786 203.678 73.8982 203.729 73.9395C203.779 73.9808 203.811 74.0403 203.818 74.1052C203.822 74.1376 203.819 74.1703 203.809 74.2015C203.8 74.2327 203.785 74.2618 203.764 74.2871C203.744 74.3124 203.719 74.3334 203.69 74.3489C203.662 74.3645 203.63 74.3742 203.598 74.3776C203.538 74.4024 202.927 74.4643 202.132 74.4643Z" fill="#161616"/>
<path d="M204.164 73.1918H201.791C201.321 73.1918 200.939 73.5732 200.939 74.0436C200.939 74.5141 201.321 74.8955 201.791 74.8955H204.164C204.634 74.8955 205.015 74.5141 205.015 74.0436C205.015 73.5732 204.634 73.1918 204.164 73.1918Z" fill="#292626"/>
<path d="M204.165 75.1434H201.793C201.501 75.1434 201.222 75.0276 201.015 74.8214C200.809 74.6152 200.693 74.3355 200.693 74.0439C200.693 73.7523 200.809 73.4727 201.015 73.2665C201.222 73.0603 201.501 72.9445 201.793 72.9445H204.165C204.457 72.9445 204.736 73.0603 204.943 73.2665C205.149 73.4727 205.265 73.7523 205.265 74.0439C205.265 74.3355 205.149 74.6152 204.943 74.8214C204.736 75.0276 204.457 75.1434 204.165 75.1434ZM201.793 73.4348C201.633 73.4348 201.479 73.4984 201.366 73.6117C201.252 73.7251 201.189 73.8787 201.189 74.039C201.189 74.1992 201.252 74.3529 201.366 74.4662C201.479 74.5796 201.633 74.6432 201.793 74.6432H204.165C204.325 74.6432 204.479 74.5796 204.592 74.4662C204.706 74.3529 204.769 74.1992 204.769 74.039C204.769 73.8787 204.706 73.7251 204.592 73.6117C204.479 73.4984 204.325 73.4348 204.165 73.4348H201.793Z" fill="#161616"/>
<path d="M203.984 77.5377H212.307C213.733 77.5377 215.1 78.1041 216.108 79.1123C217.116 80.1205 217.683 81.488 217.683 82.9138V94.6367H198.615V82.9163C198.615 81.4913 199.18 80.1244 200.186 79.1158C201.193 78.1073 202.559 77.5397 203.984 77.5377Z" fill="#38B9A9"/>
<path d="M217.684 94.8872H198.617C198.551 94.8872 198.488 94.8611 198.442 94.8147C198.395 94.7682 198.369 94.7052 198.369 94.6396V82.9167C198.37 81.4253 198.963 79.9954 200.018 78.9407C201.072 77.8859 202.502 77.2924 203.993 77.2905H212.316C213.808 77.2918 215.238 77.885 216.293 78.9398C217.347 79.9946 217.941 81.4249 217.942 82.9167V94.6396C217.942 94.6729 217.935 94.706 217.922 94.7367C217.909 94.7674 217.89 94.7951 217.866 94.8183C217.842 94.8414 217.813 94.8594 217.782 94.8713C217.751 94.8831 217.718 94.8885 217.684 94.8872ZM198.864 94.3919H217.437V82.9167C217.435 81.5565 216.894 80.2525 215.932 79.2907C214.97 78.3289 213.666 77.7877 212.306 77.7857H203.983C202.623 77.7877 201.319 78.329 200.358 79.2909C199.396 80.2527 198.856 81.5567 198.855 82.9167L198.864 94.3919Z" fill="#161616"/>
<path d="M208.146 81.9951C206.068 81.9951 203.074 77.5377 203.074 77.5377H213.215C213.215 77.5377 210.221 81.9951 208.146 81.9951Z" fill="white"/>
<path d="M208.146 82.2427C205.962 82.2427 202.995 77.8621 202.869 77.6764C202.847 77.6387 202.836 77.596 202.836 77.5526C202.836 77.5091 202.847 77.4664 202.869 77.4287C202.89 77.3892 202.922 77.3561 202.96 77.333C202.998 77.3099 203.042 77.2976 203.087 77.2975H213.228C213.273 77.2972 213.317 77.3092 213.356 77.3324C213.395 77.3555 213.427 77.3888 213.448 77.4287C213.467 77.4677 213.476 77.5111 213.474 77.5545C213.471 77.598 213.457 77.64 213.433 77.6764C213.297 77.8621 210.328 82.2427 208.146 82.2427ZM203.55 77.7853C204.541 79.1696 206.7 81.7474 208.146 81.7474C209.592 81.7474 211.744 79.1696 212.742 77.7853H203.55Z" fill="#161616"/>
<path d="M204.461 77.5377C204.461 77.5377 205.924 79.0235 206.598 78.8353C207.272 78.6471 208.118 77.5377 208.118 77.5377H204.461Z" fill="white"/>
<path d="M206.481 79.0982C205.693 79.0982 204.524 77.9591 204.284 77.7139C204.249 77.6793 204.225 77.635 204.216 77.5868C204.206 77.5386 204.211 77.4886 204.23 77.4431C204.249 77.3977 204.281 77.3589 204.322 77.3317C204.363 77.3045 204.411 77.2902 204.46 77.2905H208.118C208.164 77.2904 208.209 77.3033 208.249 77.3278C208.288 77.3524 208.32 77.3875 208.34 77.4291C208.361 77.4705 208.369 77.5167 208.365 77.5627C208.361 77.6086 208.344 77.6524 208.316 77.6892C208.224 77.8105 207.397 78.8728 206.664 79.0734C206.604 79.0905 206.543 79.0988 206.481 79.0982ZM205.087 77.7857C205.659 78.281 206.273 78.6673 206.533 78.598C206.86 78.5063 207.276 78.1176 207.585 77.7857H205.087Z" fill="#161616"/>
<path d="M211.83 77.5377C211.83 77.5377 210.364 79.0235 209.69 78.8353C209.017 78.6471 208.17 77.5377 208.17 77.5377H211.83Z" fill="white"/>
<path d="M209.808 79.0982C209.747 79.0988 209.686 79.0905 209.627 79.0734C208.884 78.8728 208.067 77.8105 207.975 77.6891C207.947 77.6525 207.93 77.6088 207.925 77.5628C207.92 77.5168 207.929 77.4705 207.949 77.429C207.97 77.3875 208.001 77.3526 208.04 77.3281C208.079 77.3036 208.125 77.2906 208.171 77.2905H211.831C211.88 77.2907 211.927 77.3054 211.968 77.3327C212.009 77.3601 212.04 77.3988 212.059 77.444C212.078 77.4891 212.083 77.5388 212.074 77.5868C212.064 77.6349 212.041 77.6791 212.007 77.7139C211.774 77.9566 210.595 79.0982 209.808 79.0982ZM208.706 77.7857C209.01 78.1176 209.429 78.5063 209.758 78.598C210.006 78.6673 210.632 78.2785 211.202 77.7857H208.706Z" fill="#161616"/>
<path d="M208.171 82.2431C208.106 82.2431 208.043 82.217 207.996 82.1706C207.95 82.1241 207.924 82.0611 207.924 81.9955V77.5381C207.924 77.4724 207.95 77.4094 207.996 77.363C208.043 77.3166 208.106 77.2905 208.171 77.2905C208.237 77.2905 208.3 77.3166 208.347 77.363C208.393 77.4094 208.419 77.4724 208.419 77.5381V81.9955C208.419 82.0611 208.393 82.1241 208.347 82.1706C208.3 82.217 208.237 82.2431 208.171 82.2431Z" fill="#161616"/>
<path d="M196.588 76.5468C196.588 76.5468 190.335 88.3861 192.626 90.8847C194.916 93.3833 197.784 91.7093 198.621 89.8942C199.458 88.079 199.842 77.8915 199.842 77.8915L196.588 76.5468Z" fill="#38B9A9"/>
<path d="M195.237 92.3977C194.44 92.3977 193.429 92.1154 192.451 91.0531C190.059 88.4529 196.109 76.9207 196.366 76.4304C196.395 76.376 196.444 76.3344 196.502 76.3138C196.56 76.2932 196.624 76.295 196.681 76.319L199.935 77.6661C199.983 77.6858 200.024 77.7205 200.052 77.7649C200.079 77.8094 200.092 77.8615 200.088 77.9137C200.071 78.3322 199.702 88.1731 198.85 90.0105C198.557 90.618 198.125 91.1479 197.589 91.557C197.053 91.9662 196.428 92.2432 195.764 92.3655C195.59 92.3894 195.413 92.4001 195.237 92.3977ZM196.701 76.8613C194.93 80.2613 191.062 88.812 192.815 90.7163C193.657 91.6325 194.653 92.0287 195.693 91.8653C196.274 91.7544 196.822 91.5093 197.292 91.1494C197.763 90.7896 198.143 90.325 198.402 89.7926C199.145 88.1731 199.528 79.3921 199.583 78.0574L196.701 76.8613Z" fill="#161616"/>
<path d="M198.537 71.9904C198.537 71.9904 202.675 71.5743 203.047 72.503C203.418 73.4316 202.116 73.6644 200.583 73.4786C200.583 73.4786 201.838 74.177 201.838 75.3854C201.838 76.5938 199.84 77.8914 199.84 77.8914L196.586 76.5443C196.586 76.5443 196.631 73.0601 198.537 71.9904Z" fill="#FFC9B0"/>
<path d="M199.841 78.1399C199.808 78.1402 199.776 78.1343 199.745 78.1226L196.491 76.773C196.446 76.7539 196.407 76.7218 196.38 76.6808C196.354 76.6398 196.339 76.5917 196.34 76.5427C196.34 76.3941 196.412 72.9001 198.417 71.7733C198.447 71.7561 198.48 71.7459 198.514 71.7436C199.529 71.6421 202.87 71.387 203.278 72.4097C203.346 72.5454 203.374 72.697 203.36 72.8477C203.347 72.9985 203.292 73.1425 203.202 73.2641C202.867 73.7024 202.08 73.7965 201.369 73.7841C201.588 73.9905 201.764 74.238 201.887 74.5125C202.011 74.787 202.079 75.0831 202.087 75.3838C202.087 76.7111 200.062 78.0434 199.975 78.1078C199.934 78.1309 199.888 78.1421 199.841 78.1399ZM196.843 76.3818L199.814 77.6199C200.396 77.2163 201.595 76.2158 201.595 75.3912C201.595 74.3388 200.478 73.7073 200.465 73.7024C200.415 73.6748 200.375 73.6302 200.353 73.5764C200.332 73.5226 200.33 73.463 200.348 73.4079C200.366 73.3529 200.403 73.3059 200.452 73.2751C200.501 73.2443 200.559 73.2316 200.616 73.2393C201.959 73.4027 202.64 73.1972 202.813 72.9694C202.855 72.9124 202.905 72.8134 202.813 72.6004C202.627 72.1373 200.5 72.0532 198.603 72.2389C197.125 73.118 196.88 75.7032 196.843 76.3842V76.3818Z" fill="#161616"/>
<path d="M217.469 98.2495H198.085C197.634 98.2502 197.199 98.0804 196.868 97.774C196.537 97.4677 196.334 97.0476 196.299 96.5978L195.435 85.4544C195.416 85.2083 195.448 84.9609 195.529 84.7277C195.61 84.4946 195.738 84.2807 195.906 84.0996C196.074 83.9184 196.277 83.7739 196.503 83.6751C196.729 83.5763 196.974 83.5253 197.22 83.5253H218.331C218.578 83.5253 218.822 83.5763 219.048 83.6751C219.275 83.7739 219.478 83.9184 219.645 84.0996C219.813 84.2807 219.942 84.4946 220.023 84.7277C220.104 84.9609 220.136 85.2083 220.117 85.4544L219.252 96.5978C219.218 97.0471 219.015 97.467 218.685 97.7732C218.354 98.0795 217.92 98.2496 217.469 98.2495Z" fill="white"/>
<path d="M217.47 98.4975H198.085C197.572 98.4955 197.079 98.3013 196.703 97.9533C196.326 97.6053 196.094 97.1288 196.052 96.6179L195.188 85.4745C195.166 85.1943 195.203 84.9128 195.295 84.6474C195.388 84.3821 195.534 84.1387 195.725 83.9324C195.916 83.7262 196.147 83.5617 196.404 83.4491C196.662 83.3364 196.94 83.2782 197.221 83.278H218.331C218.612 83.2782 218.89 83.3364 219.148 83.4491C219.405 83.5617 219.636 83.7262 219.827 83.9324C220.018 84.1387 220.164 84.3821 220.257 84.6474C220.349 84.9128 220.386 85.1943 220.364 85.4745L219.5 96.6179C219.458 97.1284 219.226 97.6046 218.85 97.9525C218.474 98.3004 217.982 98.4949 217.47 98.4975ZM197.223 83.7659C197.01 83.7659 196.8 83.8099 196.605 83.8952C196.41 83.9805 196.235 84.1053 196.09 84.2616C195.946 84.4178 195.835 84.6023 195.766 84.8034C195.696 85.0045 195.669 85.2178 195.685 85.4299L196.547 96.5734C196.579 96.9605 196.755 97.3217 197.04 97.5854C197.325 97.8491 197.699 97.9961 198.087 97.9973H217.47C217.858 97.9961 218.232 97.8491 218.517 97.5854C218.802 97.3217 218.978 96.9605 219.01 96.5734L219.872 85.4299C219.888 85.2178 219.861 85.0045 219.791 84.8034C219.722 84.6023 219.611 84.4178 219.467 84.2616C219.322 84.1053 219.147 83.9805 218.952 83.8952C218.757 83.8099 218.547 83.7659 218.334 83.7659H197.223Z" fill="#161616"/>
<path d="M207.774 92.9117C207.373 92.9117 206.981 92.7929 206.648 92.5703C206.315 92.3477 206.056 92.0314 205.902 91.6612C205.749 91.2911 205.709 90.8838 205.787 90.4909C205.865 90.0979 206.058 89.737 206.341 89.4537C206.625 89.1704 206.986 88.9775 207.378 88.8993C207.771 88.8212 208.179 88.8613 208.549 89.0146C208.919 89.1679 209.235 89.4275 209.458 89.7607C209.681 90.0938 209.799 90.4854 209.799 90.886C209.799 91.4231 209.585 91.9379 209.205 92.3177C208.826 92.6974 208.311 92.911 207.774 92.9117ZM207.774 89.3557C207.471 89.3557 207.175 89.4454 206.923 89.6136C206.672 89.7817 206.476 90.0208 206.36 90.3004C206.244 90.58 206.214 90.8877 206.273 91.1846C206.332 91.4815 206.478 91.7541 206.692 91.9682C206.906 92.1822 207.178 92.328 207.475 92.387C207.772 92.4461 208.08 92.4157 208.359 92.2999C208.639 92.1841 208.878 91.9879 209.046 91.7363C209.214 91.4846 209.304 91.1887 209.304 90.886C209.303 90.4804 209.142 90.0915 208.855 89.8046C208.568 89.5178 208.179 89.3563 207.774 89.3557Z" fill="#DFEAEF"/>
</g>
</g>
<path fill-rule="evenodd" clip-rule="evenodd" d="M14.9107 39.9999C12.7509 39.9999 11 41.7507 11 43.9105V86.9278C11 89.0876 12.7509 90.8385 14.9107 90.8385H176.551C178.711 90.8385 180.462 89.0876 180.462 86.9278V84.1539L185.703 79.4326L180.462 74.8014V43.9105C180.462 41.7507 178.711 39.9999 176.551 39.9999H14.9107Z" fill="#161616"/>
<path d="M24.9224 57.1727V55.7336H26.3563V57.1727H24.9224ZM28.0509 61.2815C27.8319 61.796 27.4982 62.1957 27.0498 62.4808C26.6048 62.7658 26.0799 62.9083 25.4751 62.9083C24.9537 62.9083 24.5139 62.8284 24.1559 62.6685C23.8013 62.512 23.5319 62.2983 23.3477 62.0271C23.1635 61.756 23.0713 61.4501 23.0713 61.1094C23.0713 60.8244 23.12 60.5828 23.2173 60.3846C23.3182 60.183 23.445 60.0057 23.598 59.8528C23.7509 59.6964 23.9143 59.5521 24.0881 59.42C24.2654 59.2879 24.4305 59.1506 24.5835 59.0081C24.7364 58.8621 24.8616 58.697 24.9589 58.5127C25.0597 58.325 25.1101 58.1043 25.1101 57.8505H26.1582C26.1582 58.153 26.1147 58.4171 26.0278 58.6431C25.9409 58.8656 25.8279 59.062 25.6889 59.2323C25.5533 59.4026 25.4073 59.5573 25.2509 59.6964C25.0979 59.8319 24.9519 59.9675 24.8129 60.1031C24.6738 60.2352 24.5609 60.3777 24.474 60.5306C24.3871 60.6801 24.3436 60.8522 24.3436 61.0468C24.3436 61.3249 24.4496 61.5492 24.6617 61.7195C24.8772 61.8898 25.1518 61.975 25.4855 61.975C25.6906 61.975 25.8905 61.9333 26.0852 61.8498C26.2833 61.7664 26.4588 61.65 26.6118 61.5005C26.7648 61.3545 26.8795 61.1859 26.9559 60.9947L28.0509 61.2815ZM34.1278 53.5853H35.3949V61.1251H34.253L30.4623 55.5928V61.1251H29.1952V53.5853H30.4362L34.1278 58.9716V53.5853ZM37.9112 58.7213C37.9077 59.0272 37.9564 59.2983 38.0572 59.5347C38.158 59.7711 38.3075 59.9571 38.5056 60.0926C38.7037 60.2247 38.9488 60.2908 39.2408 60.2908C39.5397 60.2908 39.7987 60.2247 40.0177 60.0926C40.2402 59.9571 40.3879 59.752 40.4609 59.4774H41.6237C41.5611 59.8528 41.4116 60.1709 41.1753 60.4316C40.9389 60.6923 40.6521 60.8904 40.3149 61.026C39.9812 61.1616 39.6336 61.2293 39.2721 61.2293C38.7507 61.2293 38.2918 61.1198 37.8955 60.9008C37.5027 60.6784 37.1951 60.362 36.9726 59.9519C36.7536 59.5417 36.6441 59.0533 36.6441 58.4867C36.6441 57.934 36.7449 57.4438 36.9465 57.0163C37.1482 56.5852 37.4384 56.2463 37.8173 55.9995C38.1997 55.7527 38.6585 55.6293 39.1939 55.6293C39.7257 55.6293 40.1724 55.7423 40.5339 55.9682C40.8989 56.1941 41.1735 56.5105 41.3578 56.9172C41.5455 57.3204 41.6393 57.7932 41.6393 58.3355V58.7213H37.9112ZM37.9112 57.934H40.4401C40.4401 57.6732 40.3949 57.4386 40.3045 57.23C40.2141 57.018 40.0751 56.8511 39.8874 56.7295C39.7031 56.6043 39.4702 56.5418 39.1887 56.5418C38.9106 56.5418 38.6759 56.6095 38.4847 56.7451C38.2935 56.8807 38.1493 57.0562 38.052 57.2718C37.9546 57.4838 37.9077 57.7045 37.9112 57.934ZM45.0589 55.6293C45.4795 55.6293 45.8497 55.7127 46.1695 55.8796C46.4893 56.0464 46.7448 56.2776 46.936 56.573C47.1307 56.8685 47.2471 57.204 47.2854 57.5794H46.2008C46.1765 57.416 46.1174 57.2613 46.0235 57.1153C45.9297 56.9659 45.8028 56.8459 45.6429 56.7555C45.483 56.6617 45.29 56.6148 45.0641 56.6148C44.6609 56.6148 44.3324 56.7642 44.0786 57.0632C43.8283 57.3621 43.7032 57.821 43.7032 58.4397C43.7032 59.0098 43.8231 59.4635 44.063 59.8006C44.3028 60.1378 44.6452 60.3064 45.0902 60.3064C45.3126 60.3064 45.5021 60.2578 45.6585 60.1604C45.8184 60.0596 45.9436 59.9362 46.0339 59.7902C46.1278 59.6407 46.1886 59.4913 46.2164 59.3418H47.2697C47.2384 59.7068 47.1237 60.0318 46.9256 60.3169C46.7309 60.6019 46.4737 60.8261 46.1539 60.9895C45.8375 61.1494 45.4725 61.2293 45.0589 61.2293C44.5653 61.2293 44.1255 61.1216 43.7397 60.9061C43.3573 60.6871 43.0566 60.3707 42.8376 59.9571C42.6186 59.5399 42.5091 59.0376 42.5091 58.4502C42.5091 57.8905 42.6117 57.4004 42.8168 56.9798C43.0219 56.5557 43.3156 56.2254 43.698 55.9891C44.0804 55.7492 44.534 55.6293 45.0589 55.6293ZM49.4497 58.7213C49.4462 59.0272 49.4949 59.2983 49.5957 59.5347C49.6965 59.7711 49.8459 59.9571 50.0441 60.0926C50.2422 60.2247 50.4873 60.2908 50.7793 60.2908C51.0782 60.2908 51.3372 60.2247 51.5562 60.0926C51.7787 59.9571 51.9264 59.752 51.9994 59.4774H53.1622C53.0996 59.8528 52.9501 60.1709 52.7138 60.4316C52.4774 60.6923 52.1906 60.8904 51.8534 61.026C51.5197 61.1616 51.1721 61.2293 50.8106 61.2293C50.2892 61.2293 49.8303 61.1198 49.434 60.9008C49.0412 60.6784 48.7336 60.362 48.5111 59.9519C48.2921 59.5417 48.1826 59.0533 48.1826 58.4867C48.1826 57.934 48.2834 57.4438 48.485 57.0163C48.6866 56.5852 48.9769 56.2463 49.3558 55.9995C49.7382 55.7527 50.197 55.6293 50.7324 55.6293C51.2642 55.6293 51.7109 55.7423 52.0724 55.9682C52.4374 56.1941 52.712 56.5105 52.8963 56.9172C53.084 57.3204 53.1778 57.7932 53.1778 58.3355V58.7213H49.4497ZM49.4497 57.934H51.9786C51.9786 57.6732 51.9334 57.4386 51.843 57.23C51.7526 57.018 51.6136 56.8511 51.4259 56.7295C51.2416 56.6043 51.0087 56.5418 50.7271 56.5418C50.4491 56.5418 50.2144 56.6095 50.0232 56.7451C49.832 56.8807 49.6878 57.0562 49.5904 57.2718C49.4931 57.4838 49.4462 57.7045 49.4497 57.934ZM56.3684 61.2293C55.993 61.2293 55.6367 61.1703 55.2995 61.0521C54.9658 60.9304 54.6842 60.7409 54.4548 60.4837C54.2289 60.2265 54.0864 59.8945 54.0273 59.4878H55.1431C55.1918 59.6859 55.2769 59.8476 55.3986 59.9727C55.5237 60.0979 55.6715 60.19 55.8418 60.2491C56.0121 60.3047 56.1859 60.3325 56.3632 60.3325C56.6865 60.3325 56.9472 60.2769 57.1454 60.1656C57.347 60.0544 57.4478 59.8823 57.4478 59.6494C57.4478 59.4791 57.3922 59.3435 57.2809 59.2427C57.1697 59.1419 56.9924 59.0654 56.7491 59.0133L55.7219 58.7787C55.2665 58.6779 54.8998 58.511 54.6217 58.2781C54.3471 58.0452 54.208 57.7167 54.2045 57.2926C54.2011 56.9728 54.281 56.6878 54.4444 56.4375C54.6078 56.1872 54.8511 55.9908 55.1744 55.8483C55.4977 55.7023 55.8974 55.6293 56.3737 55.6293C57.0028 55.6293 57.5069 55.7701 57.8858 56.0516C58.2647 56.3297 58.4593 56.7277 58.4698 57.2457H57.3904C57.3522 57.0128 57.2427 56.832 57.0619 56.7034C56.8812 56.5713 56.6465 56.5053 56.358 56.5053C56.0591 56.5053 55.814 56.5626 55.6228 56.6773C55.4316 56.792 55.336 56.9676 55.336 57.204C55.336 57.3673 55.409 57.496 55.555 57.5898C55.701 57.6837 55.92 57.7636 56.212 57.8297L57.1819 58.0643C57.46 58.1338 57.6876 58.2277 57.8649 58.3459C58.0422 58.4641 58.1813 58.5944 58.2821 58.7369C58.3829 58.876 58.4524 59.0203 58.4906 59.1697C58.5323 59.3157 58.5532 59.4513 58.5532 59.5764C58.5532 59.9241 58.4628 60.2213 58.2821 60.4681C58.1048 60.7114 57.8528 60.8991 57.526 61.0312C57.1992 61.1633 56.8134 61.2293 56.3684 61.2293ZM61.0566 55.7336V61.1251H59.8365V55.7336H61.0566ZM61.0722 53.5905V54.7898H59.8156V53.5905H61.0722ZM65.6551 56.6304H64.4506L64.4559 59.7224C64.4559 59.8823 64.4732 60.0005 64.508 60.077C64.5462 60.15 64.6053 60.1987 64.6853 60.223C64.7687 60.2439 64.8799 60.2543 65.019 60.2543H65.6812V61.0573C65.6117 61.0851 65.5056 61.1094 65.3631 61.1303C65.2241 61.1546 65.0364 61.1668 64.8 61.1668C64.3724 61.1668 64.0405 61.1112 63.8041 60.9999C63.5712 60.8852 63.4095 60.7236 63.3192 60.515C63.2288 60.3064 63.1836 60.0579 63.1836 59.7694V56.6304H62.3076V55.7336H63.2201L63.5382 54.1328H64.4506V55.7283H65.6551V56.6304ZM68.4044 61.2293C68.0603 61.2293 67.7509 61.1668 67.4763 61.0416C67.2051 60.913 66.9913 60.7305 66.8349 60.4941C66.682 60.2543 66.6055 59.964 66.6055 59.6234C66.6055 59.0289 66.8193 58.5805 67.2468 58.2781C67.6779 57.9757 68.3644 57.8175 69.3065 57.8036L70.1095 57.7827V57.4178C70.1095 57.1327 70.0243 56.9102 69.854 56.7503C69.6871 56.587 69.4264 56.507 69.0718 56.5105C68.8111 56.514 68.5713 56.5765 68.3523 56.6982C68.1367 56.8164 67.9942 57.0163 67.9247 57.2978H66.8454C66.8662 56.9294 66.9722 56.6217 67.1634 56.3749C67.3581 56.1246 67.624 55.9387 67.9612 55.817C68.2984 55.6918 68.6877 55.6293 69.1292 55.6293C69.6436 55.6293 70.0625 55.6971 70.3858 55.8326C70.7091 55.9682 70.9472 56.1646 71.1002 56.4218C71.2531 56.6756 71.3296 56.9832 71.3296 57.3448V61.1251H70.2607L70.1616 60.1552C69.9669 60.5619 69.7201 60.8435 69.4212 60.9999C69.1257 61.1529 68.7868 61.2293 68.4044 61.2293ZM68.8163 60.369C68.9728 60.369 69.1274 60.3412 69.2804 60.2856C69.4333 60.2265 69.5724 60.1483 69.6975 60.0509C69.8227 59.9501 69.9217 59.8389 69.9947 59.7172C70.0712 59.5956 70.1095 59.4687 70.1095 59.3366V58.4867L69.4472 58.4971C69.1205 58.5006 68.8354 58.5353 68.5921 58.6014C68.3488 58.6674 68.1576 58.7734 68.0185 58.9194C67.883 59.062 67.8152 59.2532 67.8152 59.493C67.8152 59.7676 67.9108 59.9831 68.102 60.1396C68.2932 60.2925 68.5313 60.369 68.8163 60.369ZM74.771 61.2293C74.3955 61.2293 74.0392 61.1703 73.702 61.0521C73.3683 60.9304 73.0868 60.7409 72.8573 60.4837C72.6314 60.2265 72.4889 59.8945 72.4298 59.4878H73.5456C73.5943 59.6859 73.6795 59.8476 73.8011 59.9727C73.9263 60.0979 74.074 60.19 74.2443 60.2491C74.4147 60.3047 74.5885 60.3325 74.7657 60.3325C75.089 60.3325 75.3497 60.2769 75.5479 60.1656C75.7495 60.0544 75.8503 59.8823 75.8503 59.6494C75.8503 59.4791 75.7947 59.3435 75.6834 59.2427C75.5722 59.1419 75.3949 59.0654 75.1516 59.0133L74.1244 58.7787C73.669 58.6779 73.3023 58.511 73.0242 58.2781C72.7496 58.0452 72.6105 57.7167 72.6071 57.2926C72.6036 56.9728 72.6835 56.6878 72.8469 56.4375C73.0103 56.1872 73.2536 55.9908 73.5769 55.8483C73.9002 55.7023 74.2999 55.6293 74.7762 55.6293C75.4054 55.6293 75.9094 55.7701 76.2883 56.0516C76.6672 56.3297 76.8619 56.7277 76.8723 57.2457H75.7929C75.7547 57.0128 75.6452 56.832 75.4645 56.7034C75.2837 56.5713 75.0491 56.5053 74.7605 56.5053C74.4616 56.5053 74.2165 56.5626 74.0253 56.6773C73.8341 56.792 73.7385 56.9676 73.7385 57.204C73.7385 57.3673 73.8115 57.496 73.9575 57.5898C74.1035 57.6837 74.3225 57.7636 74.6145 57.8297L75.5844 58.0643C75.8625 58.1338 76.0902 58.2277 76.2674 58.3459C76.4447 58.4641 76.5838 58.5944 76.6846 58.7369C76.7854 58.876 76.8549 59.0203 76.8931 59.1697C76.9349 59.3157 76.9557 59.4513 76.9557 59.5764C76.9557 59.9241 76.8653 60.2213 76.6846 60.4681C76.5073 60.7114 76.2553 60.8991 75.9285 61.0312C75.6018 61.1633 75.2159 61.2293 74.771 61.2293ZM81.9288 61.2293C81.5846 61.2293 81.2753 61.1668 81.0006 61.0416C80.7295 60.913 80.5157 60.7305 80.3593 60.4941C80.2063 60.2543 80.1299 59.964 80.1299 59.6234C80.1299 59.0289 80.3437 58.5805 80.7712 58.2781C81.2023 57.9757 81.8888 57.8175 82.8308 57.8036L83.6338 57.7827V57.4178C83.6338 57.1327 83.5487 56.9102 83.3783 56.7503C83.2115 56.587 82.9508 56.507 82.5962 56.5105C82.3355 56.514 82.0956 56.5765 81.8766 56.6982C81.6611 56.8164 81.5186 57.0163 81.4491 57.2978H80.3697C80.3906 56.9294 80.4966 56.6217 80.6878 56.3749C80.8825 56.1246 81.1484 55.9387 81.4856 55.817C81.8228 55.6918 82.2121 55.6293 82.6536 55.6293C83.168 55.6293 83.5869 55.6971 83.9102 55.8326C84.2335 55.9682 84.4716 56.1646 84.6245 56.4218C84.7775 56.6756 84.854 56.9832 84.854 57.3448V61.1251H83.785L83.686 60.1552C83.4913 60.5619 83.2445 60.8435 82.9456 60.9999C82.6501 61.1529 82.3112 61.2293 81.9288 61.2293ZM82.3407 60.369C82.4971 60.369 82.6518 60.3412 82.8048 60.2856C82.9577 60.2265 83.0968 60.1483 83.2219 60.0509C83.347 59.9501 83.4461 59.8389 83.5191 59.7172C83.5956 59.5956 83.6338 59.4687 83.6338 59.3366V58.4867L82.9716 58.4971C82.6449 58.5006 82.3598 58.5353 82.1165 58.6014C81.8732 58.6674 81.682 58.7734 81.5429 58.9194C81.4074 59.062 81.3396 59.2532 81.3396 59.493C81.3396 59.7676 81.4352 59.9831 81.6264 60.1396C81.8175 60.2925 82.0557 60.369 82.3407 60.369ZM86.8537 62.8458C86.5095 62.8458 86.268 62.8179 86.1289 62.7623C85.9933 62.7102 85.9256 62.6841 85.9256 62.6841V61.8707L86.4678 61.8863C86.6868 61.8968 86.8641 61.8846 86.9997 61.8498C87.1387 61.8151 87.2465 61.7664 87.323 61.7038C87.3994 61.6447 87.4551 61.5804 87.4898 61.5109C87.5281 61.4449 87.5576 61.3875 87.5785 61.3388L87.7192 60.9426L85.6179 55.7336H86.885L88.3137 59.5452L89.7424 55.7336H90.9833L88.7621 61.3232C88.5952 61.7299 88.4145 62.0428 88.2198 62.2618C88.0286 62.4842 87.8183 62.6372 87.5889 62.7206C87.3629 62.804 87.1179 62.8458 86.8537 62.8458ZM93.87 61.2293C93.6058 61.2293 93.3503 61.1911 93.1035 61.1146C92.8602 61.0347 92.6412 60.92 92.4465 60.7705C92.2518 60.6175 92.0972 60.4298 91.9824 60.2074C91.8677 59.9849 91.8104 59.7259 91.8104 59.4304V55.7336H93.0826V59.2844C93.0826 59.5764 93.1748 59.8163 93.359 60.004C93.5467 60.1917 93.8283 60.2856 94.2037 60.2856C94.5444 60.2856 94.8172 60.1969 95.0223 60.0196C95.2274 59.8389 95.33 59.5799 95.33 59.2427V55.7336H96.5918V61.1251H95.6167L95.476 60.0718C95.4099 60.3673 95.2935 60.6002 95.1266 60.7705C94.9632 60.9373 94.7703 61.0555 94.5478 61.1251C94.3288 61.1946 94.1029 61.2293 93.87 61.2293ZM99.9243 61.2293C99.2117 61.2293 98.652 60.9843 98.2453 60.4941C97.8386 60.004 97.6352 59.307 97.6352 58.4032C97.6352 57.8401 97.7169 57.3517 97.8803 56.938C98.0471 56.5209 98.2905 56.1994 98.6103 55.9734C98.9336 55.744 99.3333 55.6293 99.8096 55.6293C100.032 55.6293 100.234 55.6571 100.414 55.7127C100.599 55.7648 100.762 55.8344 100.905 55.9213C101.047 56.0082 101.167 56.1038 101.264 56.2081C101.365 56.3123 101.443 56.4166 101.499 56.5209V53.3767H102.771V61.1251H101.833L101.692 60.0196C101.65 60.1483 101.588 60.2838 101.504 60.4264C101.424 60.5654 101.315 60.6958 101.176 60.8174C101.04 60.9391 100.87 61.0382 100.665 61.1146C100.46 61.1911 100.213 61.2293 99.9243 61.2293ZM100.185 60.296C100.64 60.296 100.972 60.1483 101.181 59.8528C101.393 59.5538 101.499 59.0602 101.499 58.372C101.495 57.9791 101.447 57.6489 101.353 57.3813C101.263 57.1136 101.122 56.912 100.931 56.7764C100.743 56.6408 100.5 56.573 100.201 56.573C99.8182 56.573 99.5037 56.7138 99.2568 56.9954C99.01 57.277 98.8866 57.7358 98.8866 58.372C98.8866 59.0046 98.9996 59.4843 99.2256 59.8111C99.4515 60.1344 99.7713 60.296 100.185 60.296ZM105.739 61.2293C105.395 61.2293 105.085 61.1668 104.811 61.0416C104.54 60.913 104.326 60.7305 104.17 60.4941C104.017 60.2543 103.94 59.964 103.94 59.6234C103.94 59.0289 104.154 58.5805 104.581 58.2781C105.012 57.9757 105.699 57.8175 106.641 57.8036L107.444 57.7827V57.4178C107.444 57.1327 107.359 56.9102 107.189 56.7503C107.022 56.587 106.761 56.507 106.406 56.5105C106.146 56.514 105.906 56.5765 105.687 56.6982C105.471 56.8164 105.329 57.0163 105.259 57.2978H104.18C104.201 56.9294 104.307 56.6217 104.498 56.3749C104.693 56.1246 104.959 55.9387 105.296 55.817C105.633 55.6918 106.022 55.6293 106.464 55.6293C106.978 55.6293 107.397 55.6971 107.72 55.8326C108.044 55.9682 108.282 56.1646 108.435 56.4218C108.588 56.6756 108.664 56.9832 108.664 57.3448V61.1251H107.595L107.496 60.1552C107.302 60.5619 107.055 60.8435 106.756 60.9999C106.46 61.1529 106.121 61.2293 105.739 61.2293ZM106.151 60.369C106.307 60.369 106.462 60.3412 106.615 60.2856C106.768 60.2265 106.907 60.1483 107.032 60.0509C107.157 59.9501 107.256 59.8389 107.329 59.7172C107.406 59.5956 107.444 59.4687 107.444 59.3366V58.4867L106.782 58.4971C106.455 58.5006 106.17 58.5353 105.927 58.6014C105.683 58.6674 105.492 58.7734 105.353 58.9194C105.218 59.062 105.15 59.2532 105.15 59.493C105.15 59.7676 105.245 59.9831 105.437 60.1396C105.628 60.2925 105.866 60.369 106.151 60.369ZM112.73 59.6859V61.1251H111.301V59.6859H112.73ZM109.601 55.1026C109.824 54.5847 110.157 54.1849 110.602 53.9034C111.051 53.6218 111.575 53.481 112.177 53.481C112.66 53.481 113.081 53.561 113.439 53.7209C113.8 53.8773 114.08 54.0911 114.278 54.3622C114.48 54.6299 114.581 54.9323 114.581 55.2695C114.581 55.6171 114.511 55.9161 114.372 56.1663C114.233 56.4131 114.063 56.6374 113.861 56.839C113.659 57.0406 113.456 57.2405 113.251 57.4386C113.049 57.6367 112.879 57.8575 112.74 58.1008C112.604 58.3407 112.537 58.6275 112.537 58.9612H111.494C111.494 58.5718 111.555 58.2346 111.676 57.9496C111.798 57.6646 111.949 57.4125 112.13 57.1935C112.311 56.9711 112.49 56.766 112.667 56.5783C112.848 56.3871 112.999 56.1924 113.121 55.9943C113.246 55.7961 113.308 55.5754 113.308 55.3321C113.308 55.0401 113.201 54.8089 112.985 54.6386C112.773 54.4682 112.5 54.3831 112.166 54.3831C111.961 54.3831 111.76 54.4265 111.562 54.5134C111.367 54.5969 111.193 54.715 111.04 54.868C110.887 55.0175 110.773 55.1913 110.696 55.3894L109.601 55.1026ZM26.4606 69.481C26.982 69.481 27.4443 69.5905 27.8476 69.8095C28.2508 70.0285 28.5741 70.3188 28.8174 70.6803C29.0607 71.0418 29.205 71.4346 29.2502 71.8587H28.3742C28.3151 71.5563 28.2039 71.2799 28.0405 71.0296C27.8806 70.7794 27.6668 70.5795 27.3991 70.43C27.1315 70.2805 26.8134 70.2058 26.4449 70.2058C25.9583 70.2058 25.5481 70.3188 25.2144 70.5447C24.8842 70.7707 24.6339 71.1165 24.4635 71.5823C24.2967 72.0447 24.2133 72.6339 24.2133 73.35C24.2133 74.4276 24.401 75.2219 24.7764 75.7329C25.1553 76.2439 25.7115 76.4994 26.4449 76.4994C26.8134 76.4994 27.1315 76.4229 27.3991 76.2699C27.6668 76.1135 27.8806 75.9084 28.0405 75.6547C28.2039 75.3974 28.3151 75.1176 28.3742 74.8152H29.2502C29.212 75.1245 29.1251 75.4252 28.9895 75.7172C28.8574 76.0057 28.6749 76.2647 28.442 76.4941C28.2126 76.7201 27.931 76.8991 27.5973 77.0312C27.2671 77.1633 26.8882 77.2293 26.4606 77.2293C25.7897 77.2293 25.2196 77.0781 24.7503 76.7757C24.2845 76.4698 23.9282 76.0283 23.6814 75.4513C23.4346 74.8708 23.3112 74.1669 23.3112 73.3395C23.3112 72.5122 23.4329 71.8118 23.6762 71.2382C23.923 70.6646 24.281 70.2284 24.7503 69.9294C25.2196 69.6305 25.7897 69.481 26.4606 69.481ZM32.7407 77.2293C32.254 77.2293 31.8265 77.1251 31.458 76.9165C31.093 76.7044 30.8097 76.3916 30.6081 75.9779C30.4065 75.5643 30.3057 75.055 30.3057 74.4502C30.3057 73.887 30.3978 73.3934 30.582 72.9693C30.7697 72.5452 31.0443 72.2167 31.4059 71.9838C31.7674 71.7475 32.2141 71.6293 32.7459 71.6293C33.2326 71.6293 33.6549 71.737 34.013 71.9526C34.3745 72.1646 34.6543 72.4809 34.8525 72.9015C35.0541 73.3187 35.1549 73.8349 35.1549 74.4502C35.1549 74.9994 35.0645 75.4826 34.8837 75.8997C34.703 76.3169 34.4336 76.6436 34.0755 76.88C33.721 77.1129 33.276 77.2293 32.7407 77.2293ZM32.7459 76.5724C33.0831 76.5724 33.3699 76.4889 33.6063 76.3221C33.8461 76.1552 34.0286 75.9119 34.1538 75.5921C34.2824 75.2723 34.3467 74.8847 34.3467 74.4293C34.3467 74.0191 34.2911 73.6524 34.1798 73.3291C34.0686 73.0058 33.8948 72.7521 33.6584 72.5678C33.422 72.3801 33.1179 72.2863 32.7459 72.2863C32.4018 72.2863 32.108 72.3697 31.8647 72.5365C31.6249 72.6999 31.4406 72.9415 31.312 73.2613C31.1834 73.5811 31.1191 73.9705 31.1191 74.4293C31.1191 74.8395 31.1747 75.2062 31.2859 75.5295C31.4007 75.8493 31.5779 76.1031 31.8178 76.2908C32.0576 76.4785 32.367 76.5724 32.7459 76.5724ZM36.48 77.1251V71.7336H37.2622V72.5209C37.3525 72.3645 37.4759 72.2202 37.6324 72.0881C37.7923 71.956 37.9852 71.85 38.2112 71.7701C38.4406 71.6901 38.6978 71.6501 38.9829 71.6501C39.3305 71.6501 39.6468 71.7197 39.9318 71.8587C40.2204 71.9943 40.4498 72.2063 40.6201 72.4948C40.7905 72.7834 40.8756 73.1536 40.8756 73.6055V77.1251H40.0622V73.6785C40.0622 73.2196 39.9457 72.8807 39.7128 72.6617C39.4799 72.4427 39.1723 72.3332 38.7899 72.3332C38.5292 72.3332 38.2841 72.3749 38.0547 72.4583C37.8253 72.5418 37.6411 72.6686 37.502 72.839C37.363 73.0093 37.2934 73.2231 37.2934 73.4803V77.1251H36.48ZM44.7767 72.3436H43.5566V75.8215C43.5566 76.0301 43.5757 76.183 43.614 76.2804C43.6557 76.3742 43.727 76.435 43.8278 76.4629C43.932 76.4872 44.0763 76.4994 44.2605 76.4994H44.8132V77.0625C44.7472 77.0868 44.6481 77.1077 44.516 77.1251C44.3874 77.139 44.2327 77.1459 44.052 77.1459C43.7078 77.1459 43.4402 77.0973 43.249 76.9999C43.0613 76.9026 42.9292 76.7583 42.8527 76.5671C42.7762 76.376 42.738 76.1361 42.738 75.8476V72.3436H41.862V71.7336H42.7588L42.9518 70.1797H43.5566V71.7283H44.7767V72.3436ZM47.6712 77.2293C47.3201 77.2293 47.0125 77.1685 46.7483 77.0468C46.4841 76.9217 46.2773 76.7444 46.1278 76.515C45.9818 76.2856 45.9088 76.0092 45.9088 75.6859C45.9088 75.088 46.1122 74.6448 46.5189 74.3563C46.9291 74.0678 47.5913 73.9114 48.5055 73.887L49.5483 73.8557V73.4073C49.5483 73.0562 49.4406 72.7764 49.225 72.5678C49.013 72.3558 48.6845 72.2515 48.2396 72.255C47.9058 72.255 47.6156 72.3332 47.3688 72.4896C47.1255 72.6426 46.9708 72.8894 46.9047 73.23H46.1643C46.1852 72.8929 46.2807 72.6061 46.4511 72.3697C46.6214 72.1298 46.8613 71.9473 47.1706 71.8222C47.48 71.6936 47.8502 71.6293 48.2813 71.6293C48.7262 71.6293 49.0999 71.6953 49.4023 71.8274C49.7082 71.956 49.9394 72.1507 50.0958 72.4114C50.2522 72.6686 50.3305 72.9884 50.3305 73.3708V77.1251H49.6318L49.5744 76.0874C49.3589 76.515 49.0843 76.8122 48.7506 76.9791C48.4203 77.1459 48.0605 77.2293 47.6712 77.2293ZM47.9006 76.6193C48.0953 76.6193 48.2882 76.5845 48.4794 76.515C48.6741 76.4455 48.8514 76.3499 49.0113 76.2282C49.1712 76.1066 49.2998 75.971 49.3971 75.8215C49.4944 75.672 49.5448 75.5191 49.5483 75.3627V74.4032L48.6776 74.4189C48.2222 74.4258 47.8485 74.471 47.5565 74.5545C47.268 74.6379 47.0525 74.7665 46.9099 74.9403C46.7709 75.1106 46.7014 75.3348 46.7014 75.6129C46.7014 75.9293 46.8126 76.1761 47.0351 76.3534C47.2575 76.5306 47.5461 76.6193 47.9006 76.6193ZM49.0113 69.5853H49.9811L48.5837 71.1026H47.9371L49.0113 69.5853ZM54.1579 71.6293C54.5299 71.6293 54.8671 71.6988 55.1695 71.8378C55.4719 71.9769 55.7222 72.1768 55.9203 72.4375C56.1185 72.6947 56.2454 73.0058 56.301 73.3708H55.5553C55.5206 73.1692 55.4424 72.9884 55.3207 72.8285C55.199 72.6652 55.0391 72.5365 54.841 72.4427C54.6463 72.3488 54.4204 72.3019 54.1632 72.3019C53.673 72.3019 53.2733 72.4775 52.9639 72.8285C52.658 73.1762 52.505 73.7132 52.505 74.4397C52.505 75.0898 52.6441 75.6112 52.9222 76.004C53.2037 76.3933 53.6209 76.588 54.1736 76.588C54.4308 76.588 54.6568 76.5411 54.8514 76.4472C55.0496 76.3499 55.2095 76.2213 55.3311 76.0614C55.4528 75.898 55.5293 75.719 55.5606 75.5243H56.2958C56.2436 75.8789 56.1167 76.1848 55.9151 76.442C55.7135 76.6958 55.4615 76.8904 55.1591 77.026C54.8601 77.1616 54.5264 77.2293 54.1579 77.2293C53.6782 77.2293 53.2541 77.1251 52.8857 76.9165C52.5172 76.7079 52.2287 76.3968 52.0201 75.9831C51.815 75.5695 51.7125 75.0568 51.7125 74.445C51.7125 73.8853 51.8063 73.3952 51.994 72.9745C52.1817 72.5505 52.4564 72.2202 52.8179 71.9838C53.1829 71.7475 53.6296 71.6293 54.1579 71.6293ZM60.0935 72.3436H58.8734V75.8215C58.8734 76.0301 58.8925 76.183 58.9307 76.2804C58.9725 76.3742 59.0437 76.435 59.1445 76.4629C59.2488 76.4872 59.3931 76.4994 59.5773 76.4994H60.13V77.0625C60.064 77.0868 59.9649 77.1077 59.8328 77.1251C59.7042 77.139 59.5495 77.1459 59.3687 77.1459C59.0246 77.1459 58.7569 77.0973 58.5657 76.9999C58.378 76.9026 58.2459 76.7583 58.1695 76.5671C58.093 76.376 58.0548 76.1361 58.0548 75.8476V72.3436H57.1788V71.7336H58.0756L58.2685 70.1797H58.8734V71.7283H60.0935V72.3436ZM62.988 77.2293C62.6369 77.2293 62.3292 77.1685 62.0651 77.0468C61.8009 76.9217 61.594 76.7444 61.4446 76.515C61.2986 76.2856 61.2256 76.0092 61.2256 75.6859C61.2256 75.088 61.4289 74.6448 61.8356 74.3563C62.2458 74.0678 62.908 73.9114 63.8222 73.887L64.8651 73.8557V73.4073C64.8651 73.0562 64.7573 72.7764 64.5418 72.5678C64.3298 72.3558 64.0013 72.2515 63.5563 72.255C63.2226 72.255 62.9324 72.3332 62.6855 72.4896C62.4422 72.6426 62.2875 72.8894 62.2215 73.23H61.4811C61.5019 72.8929 61.5975 72.6061 61.7678 72.3697C61.9382 72.1298 62.178 71.9473 62.4874 71.8222C62.7968 71.6936 63.167 71.6293 63.598 71.6293C64.043 71.6293 64.4167 71.6953 64.7191 71.8274C65.025 71.956 65.2562 72.1507 65.4126 72.4114C65.569 72.6686 65.6472 72.9884 65.6472 73.3708V77.1251H64.9485L64.8912 76.0874C64.6756 76.515 64.401 76.8122 64.0673 76.9791C63.7371 77.1459 63.3773 77.2293 62.988 77.2293ZM63.2174 76.6193C63.4121 76.6193 63.605 76.5845 63.7962 76.515C63.9908 76.4455 64.1681 76.3499 64.328 76.2282C64.4879 76.1066 64.6165 75.971 64.7139 75.8215C64.8112 75.672 64.8616 75.5191 64.8651 75.3627V74.4032L63.9943 74.4189C63.5389 74.4258 63.1653 74.471 62.8733 74.5545C62.5847 74.6379 62.3692 74.7665 62.2267 74.9403C62.0877 75.1106 62.0181 75.3348 62.0181 75.6129C62.0181 75.9293 62.1294 76.1761 62.3518 76.3534C62.5743 76.5306 62.8628 76.6193 63.2174 76.6193ZM67.3682 77.1251V71.7336H68.1503V72.5209C68.2407 72.3645 68.3641 72.2202 68.5205 72.0881C68.6804 71.956 68.8733 71.85 69.0993 71.7701C69.3287 71.6901 69.5859 71.6501 69.871 71.6501C70.2186 71.6501 70.5349 71.7197 70.82 71.8587C71.1085 71.9943 71.3379 72.2063 71.5082 72.4948C71.6786 72.7834 71.7637 73.1536 71.7637 73.6055V77.1251H70.9503V73.6785C70.9503 73.2196 70.8339 72.8807 70.601 72.6617C70.3681 72.4427 70.0604 72.3332 69.6781 72.3332C69.4173 72.3332 69.1723 72.3749 68.9429 72.4583C68.7134 72.5418 68.5292 72.6686 68.3901 72.839C68.2511 73.0093 68.1816 73.2231 68.1816 73.4803V77.1251H67.3682ZM75.4321 77.2293C74.9454 77.2293 74.5179 77.1251 74.1494 76.9165C73.7844 76.7044 73.5011 76.3916 73.2995 75.9779C73.0979 75.5643 72.9971 75.055 72.9971 74.4502C72.9971 73.887 73.0892 73.3934 73.2734 72.9693C73.4611 72.5452 73.7357 72.2167 74.0973 71.9838C74.4588 71.7475 74.9055 71.6293 75.4373 71.6293C75.924 71.6293 76.3463 71.737 76.7044 71.9526C77.0659 72.1646 77.3457 72.4809 77.5439 72.9015C77.7455 73.3187 77.8463 73.8349 77.8463 74.4502C77.8463 74.9994 77.7559 75.4826 77.5752 75.8997C77.3944 76.3169 77.125 76.6436 76.7669 76.88C76.4124 77.1129 75.9674 77.2293 75.4321 77.2293ZM75.4373 76.5724C75.7745 76.5724 76.0613 76.4889 76.2977 76.3221C76.5375 76.1552 76.72 75.9119 76.8452 75.5921C76.9738 75.2723 77.0381 74.8847 77.0381 74.4293C77.0381 74.0191 76.9825 73.6524 76.8712 73.3291C76.76 73.0058 76.5862 72.7521 76.3498 72.5678C76.1134 72.3801 75.8093 72.2863 75.4373 72.2863C75.0932 72.2863 74.7994 72.3697 74.5561 72.5365C74.3163 72.6999 74.132 72.9415 74.0034 73.2613C73.8748 73.5811 73.8105 73.9705 73.8105 74.4293C73.8105 74.8395 73.8661 75.2062 73.9773 75.5295C74.0921 75.8493 74.2693 76.1031 74.5092 76.2908C74.749 76.4785 75.0584 76.5724 75.4373 76.5724ZM80.987 77.2293C80.6115 77.2293 80.2657 77.172 79.9493 77.0573C79.6365 76.9391 79.3775 76.7601 79.1724 76.5202C78.9708 76.2769 78.8439 75.9675 78.7918 75.5921H79.5478C79.5965 75.8076 79.6851 75.9901 79.8138 76.1396C79.9424 76.289 80.1058 76.4038 80.3039 76.4837C80.5055 76.5602 80.7332 76.5984 80.987 76.5984C81.3693 76.5984 81.677 76.5254 81.9099 76.3794C82.1428 76.23 82.2592 76.0023 82.2592 75.6964C82.2592 75.4843 82.1984 75.314 82.0767 75.1854C81.9585 75.0568 81.7778 74.9629 81.5345 74.9038L80.3717 74.6066C79.9476 74.4988 79.6104 74.3372 79.3601 74.1217C79.1098 73.9027 78.983 73.5985 78.9795 73.2092C78.9795 72.8998 79.0525 72.6269 79.1985 72.3906C79.348 72.1542 79.5704 71.9682 79.8659 71.8326C80.1614 71.6971 80.5316 71.6293 80.9765 71.6293C81.5431 71.6293 82.0003 71.7562 82.3479 72.0099C82.6955 72.2637 82.8797 72.6426 82.9006 73.1466H82.1602C82.1254 72.872 82.0072 72.6547 81.8056 72.4948C81.604 72.3315 81.3259 72.2498 80.9713 72.2498C80.6063 72.2498 80.3091 72.3245 80.0797 72.474C79.8537 72.6235 79.7408 72.8546 79.7408 73.1675C79.7408 73.376 79.819 73.5394 79.9754 73.6576C80.1318 73.7723 80.3595 73.8679 80.6585 73.9444L81.7952 74.2416C82.0315 74.3042 82.2262 74.3876 82.3792 74.4919C82.5356 74.5927 82.659 74.7074 82.7494 74.836C82.8432 74.9612 82.9093 75.095 82.9475 75.2375C82.9892 75.38 83.0101 75.5173 83.0101 75.6494C83.0101 75.9727 82.9319 76.2525 82.7754 76.4889C82.619 76.7253 82.3896 76.9078 82.0872 77.0364C81.7882 77.165 81.4215 77.2293 80.987 77.2293ZM86.8502 78.804V71.7336H87.6584L87.674 72.719C87.7262 72.6113 87.7992 72.4948 87.893 72.3697C87.9904 72.2446 88.112 72.1264 88.258 72.0151C88.404 71.9004 88.5761 71.8083 88.7742 71.7388C88.9758 71.6658 89.207 71.6293 89.4677 71.6293C89.9057 71.6293 90.2916 71.7266 90.6253 71.9213C90.959 72.1159 91.218 72.4149 91.4022 72.8181C91.5899 73.2214 91.6838 73.7323 91.6838 74.3511C91.6838 74.9559 91.5951 75.4739 91.4178 75.9049C91.244 76.3325 90.9885 76.661 90.6513 76.8904C90.3142 77.1164 89.9022 77.2293 89.4156 77.2293C89.1549 77.2293 88.9272 77.1928 88.7325 77.1198C88.5379 77.0468 88.371 76.9513 88.2319 76.8331C88.0929 76.7149 87.9782 76.5932 87.8878 76.4681C87.7974 76.3395 87.7244 76.2178 87.6688 76.1031V78.804H86.8502ZM89.28 76.5776C89.7562 76.5776 90.1421 76.3985 90.4376 76.0405C90.7365 75.6825 90.886 75.1298 90.886 74.3824C90.886 73.7428 90.7504 73.2335 90.4793 72.8546C90.2116 72.4722 89.8119 72.2811 89.28 72.2811C88.7516 72.2811 88.3484 72.474 88.0703 72.8598C87.7957 73.2457 87.6584 73.7532 87.6584 74.3824C87.6584 74.7926 87.7192 75.1645 87.8409 75.4982C87.966 75.8285 88.1485 76.0909 88.3884 76.2856C88.6282 76.4802 88.9254 76.5776 89.28 76.5776ZM95.1076 77.2293C94.621 77.2293 94.1934 77.1251 93.8249 76.9165C93.4599 76.7044 93.1766 76.3916 92.975 75.9779C92.7734 75.5643 92.6726 75.055 92.6726 74.4502C92.6726 73.887 92.7647 73.3934 92.9489 72.9693C93.1367 72.5452 93.4113 72.2167 93.7728 71.9838C94.1343 71.7475 94.581 71.6293 95.1128 71.6293C95.5995 71.6293 96.0219 71.737 96.3799 71.9526C96.7414 72.1646 97.0212 72.4809 97.2194 72.9015C97.421 73.3187 97.5218 73.8349 97.5218 74.4502C97.5218 74.9994 97.4314 75.4826 97.2507 75.8997C97.0699 76.3169 96.8005 76.6436 96.4425 76.88C96.0879 77.1129 95.643 77.2293 95.1076 77.2293ZM95.1128 76.5724C95.45 76.5724 95.7368 76.4889 95.9732 76.3221C96.213 76.1552 96.3955 75.9119 96.5207 75.5921C96.6493 75.2723 96.7136 74.8847 96.7136 74.4293C96.7136 74.0191 96.658 73.6524 96.5468 73.3291C96.4355 73.0058 96.2617 72.7521 96.0253 72.5678C95.789 72.3801 95.4848 72.2863 95.1128 72.2863C94.7687 72.2863 94.475 72.3697 94.2316 72.5365C93.9918 72.6999 93.8076 72.9415 93.6789 73.2613C93.5503 73.5811 93.486 73.9705 93.486 74.4293C93.486 74.8395 93.5416 75.2062 93.6529 75.5295C93.7676 75.8493 93.9449 76.1031 94.1847 76.2908C94.4246 76.4785 94.7339 76.5724 95.1128 76.5724ZM98.847 77.1251V71.7336H99.6187V72.7086C99.709 72.4549 99.8359 72.2498 99.9993 72.0933C100.166 71.9334 100.352 71.817 100.557 71.744C100.766 71.6675 100.976 71.6293 101.188 71.6293C101.275 71.6293 101.36 71.6362 101.444 71.6501C101.527 71.6606 101.593 71.6797 101.642 71.7075V72.5001C101.586 72.4722 101.511 72.4531 101.418 72.4427C101.327 72.4323 101.251 72.4271 101.188 72.4271C100.997 72.4166 100.811 72.4305 100.63 72.4688C100.449 72.507 100.284 72.5748 100.135 72.6721C99.9889 72.7695 99.8724 72.8998 99.7855 73.0632C99.7021 73.2266 99.6604 73.4264 99.6604 73.6628V77.1251H98.847ZM105.683 74.617C105.683 74.9785 105.742 75.307 105.86 75.6025C105.978 75.898 106.161 76.1344 106.408 76.3116C106.655 76.4889 106.967 76.5776 107.346 76.5776C107.711 76.5776 108.026 76.4924 108.29 76.3221C108.554 76.1483 108.719 75.9032 108.785 75.5869H109.568C109.502 75.9484 109.357 76.2508 109.135 76.4941C108.916 76.7375 108.65 76.9217 108.337 77.0468C108.028 77.1685 107.701 77.2293 107.357 77.2293C106.863 77.2293 106.427 77.1216 106.048 76.9061C105.673 76.6871 105.379 76.3725 105.167 75.9623C104.958 75.5521 104.854 75.0585 104.854 74.4815C104.854 73.9079 104.949 73.4073 105.141 72.9798C105.332 72.5487 105.608 72.2167 105.97 71.9838C106.335 71.7475 106.774 71.6293 107.289 71.6293C107.786 71.6293 108.207 71.737 108.551 71.9526C108.895 72.1646 109.157 72.4688 109.338 72.865C109.519 73.2613 109.609 73.7341 109.609 74.2833V74.617H105.683ZM105.688 74.0382H108.817C108.817 73.7045 108.761 73.4038 108.65 73.1362C108.539 72.8685 108.37 72.6565 108.144 72.5001C107.918 72.3436 107.631 72.2654 107.284 72.2654C106.915 72.2654 106.613 72.3541 106.376 72.5313C106.144 72.7051 105.97 72.9276 105.855 73.1988C105.74 73.4699 105.685 73.7497 105.688 74.0382ZM112.812 77.2293C112.437 77.2293 112.091 77.172 111.774 77.0573C111.462 76.9391 111.203 76.7601 110.997 76.5202C110.796 76.2769 110.669 75.9675 110.617 75.5921H111.373C111.422 75.8076 111.51 75.9901 111.639 76.1396C111.767 76.289 111.931 76.4038 112.129 76.4837C112.331 76.5602 112.558 76.5984 112.812 76.5984C113.194 76.5984 113.502 76.5254 113.735 76.3794C113.968 76.23 114.084 76.0023 114.084 75.6964C114.084 75.4843 114.023 75.314 113.902 75.1854C113.784 75.0568 113.603 74.9629 113.36 74.9038L112.197 74.6066C111.773 74.4988 111.435 74.3372 111.185 74.1217C110.935 73.9027 110.808 73.5985 110.805 73.2092C110.805 72.8998 110.878 72.6269 111.024 72.3906C111.173 72.1542 111.395 71.9682 111.691 71.8326C111.986 71.6971 112.357 71.6293 112.802 71.6293C113.368 71.6293 113.825 71.7562 114.173 72.0099C114.521 72.2637 114.705 72.6426 114.726 73.1466H113.985C113.95 72.872 113.832 72.6547 113.631 72.4948C113.429 72.3315 113.151 72.2498 112.796 72.2498C112.431 72.2498 112.134 72.3245 111.905 72.474C111.679 72.6235 111.566 72.8546 111.566 73.1675C111.566 73.376 111.644 73.5394 111.8 73.6576C111.957 73.7723 112.185 73.8679 112.484 73.9444L113.62 74.2416C113.857 74.3042 114.051 74.3876 114.204 74.4919C114.361 74.5927 114.484 74.7074 114.574 74.836C114.668 74.9612 114.734 75.095 114.773 75.2375C114.814 75.38 114.835 75.5173 114.835 75.6494C114.835 75.9727 114.757 76.2525 114.6 76.4889C114.444 76.7253 114.215 76.9078 113.912 77.0364C113.613 77.165 113.247 77.2293 112.812 77.2293ZM118.713 72.3436H117.493V75.8215C117.493 76.0301 117.512 76.183 117.55 76.2804C117.592 76.3742 117.663 76.435 117.764 76.4629C117.868 76.4872 118.012 76.4994 118.197 76.4994H118.749V77.0625C118.683 77.0868 118.584 77.1077 118.452 77.1251C118.323 77.139 118.169 77.1459 117.988 77.1459C117.644 77.1459 117.376 77.0973 117.185 76.9999C116.997 76.9026 116.865 76.7583 116.789 76.5671C116.712 76.376 116.674 76.1361 116.674 75.8476V72.3436H115.798V71.7336H116.695L116.888 70.1797H117.493V71.7283H118.713V72.3436ZM120.582 74.617C120.582 74.9785 120.641 75.307 120.759 75.6025C120.878 75.898 121.06 76.1344 121.307 76.3116C121.554 76.4889 121.867 76.5776 122.246 76.5776C122.611 76.5776 122.925 76.4924 123.189 76.3221C123.453 76.1483 123.619 75.9032 123.685 75.5869H124.467C124.401 75.9484 124.256 76.2508 124.034 76.4941C123.815 76.7375 123.549 76.9217 123.236 77.0468C122.927 77.1685 122.6 77.2293 122.256 77.2293C121.762 77.2293 121.326 77.1216 120.947 76.9061C120.572 76.6871 120.278 76.3725 120.066 75.9623C119.857 75.5521 119.753 75.0585 119.753 74.4815C119.753 73.9079 119.849 73.4073 120.04 72.9798C120.231 72.5487 120.507 72.2167 120.869 71.9838C121.234 71.7475 121.674 71.6293 122.188 71.6293C122.685 71.6293 123.106 71.737 123.45 71.9526C123.794 72.1646 124.057 72.4688 124.237 72.865C124.418 73.2613 124.508 73.7341 124.508 74.2833V74.617H120.582ZM120.587 74.0382H123.716C123.716 73.7045 123.66 73.4038 123.549 73.1362C123.438 72.8685 123.269 72.6565 123.043 72.5001C122.817 72.3436 122.531 72.2654 122.183 72.2654C121.814 72.2654 121.512 72.3541 121.276 72.5313C121.043 72.7051 120.869 72.9276 120.754 73.1988C120.64 73.4699 120.584 73.7497 120.587 74.0382ZM128.279 77.1251V71.7336H129.061V72.5209C129.203 72.2811 129.402 72.0725 129.655 71.8952C129.913 71.7179 130.25 71.6293 130.667 71.6293C130.868 71.6293 131.072 71.6623 131.277 71.7283C131.482 71.7944 131.67 71.8935 131.84 72.0256C132.01 72.1576 132.141 72.321 132.231 72.5157C132.398 72.2446 132.624 72.029 132.909 71.8691C133.194 71.7092 133.517 71.6293 133.879 71.6293C134.067 71.6293 134.261 71.6571 134.463 71.7127C134.668 71.7683 134.859 71.8674 135.036 72.0099C135.214 72.149 135.356 72.3488 135.464 72.6095C135.575 72.8668 135.631 73.1988 135.631 73.6055V77.1251H134.817V73.6785C134.817 73.3204 134.762 73.0458 134.651 72.8546C134.539 72.66 134.395 72.5244 134.218 72.4479C134.04 72.3714 133.851 72.3332 133.649 72.3332C133.469 72.3332 133.277 72.368 133.076 72.4375C132.878 72.5035 132.707 72.62 132.565 72.7868C132.426 72.9537 132.356 73.1849 132.356 73.4803V77.1251H131.543V73.3552C131.543 73.1292 131.482 72.9415 131.36 72.792C131.242 72.6391 131.094 72.5244 130.917 72.4479C130.74 72.3714 130.563 72.3332 130.385 72.3332C130.191 72.3332 129.993 72.3714 129.791 72.4479C129.593 72.5244 129.426 72.6478 129.29 72.8181C129.158 72.9884 129.092 73.2092 129.092 73.4803V77.1251H128.279ZM137.752 74.617C137.752 74.9785 137.812 75.307 137.93 75.6025C138.048 75.898 138.23 76.1344 138.477 76.3116C138.724 76.4889 139.037 76.5776 139.416 76.5776C139.781 76.5776 140.095 76.4924 140.36 76.3221C140.624 76.1483 140.789 75.9032 140.855 75.5869H141.637C141.571 75.9484 141.427 76.2508 141.204 76.4941C140.985 76.7375 140.719 76.9217 140.406 77.0468C140.097 77.1685 139.77 77.2293 139.426 77.2293C138.933 77.2293 138.496 77.1216 138.117 76.9061C137.742 76.6871 137.448 76.3725 137.236 75.9623C137.028 75.5521 136.923 75.0585 136.923 74.4815C136.923 73.9079 137.019 73.4073 137.21 72.9798C137.401 72.5487 137.678 72.2167 138.039 71.9838C138.404 71.7475 138.844 71.6293 139.358 71.6293C139.855 71.6293 140.276 71.737 140.62 71.9526C140.964 72.1646 141.227 72.4688 141.408 72.865C141.588 73.2613 141.679 73.7341 141.679 74.2833V74.617H137.752ZM137.758 74.0382H140.886C140.886 73.7045 140.831 73.4038 140.719 73.1362C140.608 72.8685 140.439 72.6565 140.214 72.5001C139.988 72.3436 139.701 72.2654 139.353 72.2654C138.985 72.2654 138.682 72.3541 138.446 72.5313C138.213 72.7051 138.039 72.9276 137.924 73.1988C137.81 73.4699 137.754 73.7497 137.758 74.0382ZM145 77.2293C144.305 77.2293 143.753 76.993 143.342 76.5202C142.932 76.044 142.727 75.3401 142.727 74.4085C142.727 73.8488 142.809 73.3621 142.972 72.9485C143.135 72.5313 143.381 72.2081 143.707 71.9786C144.038 71.7457 144.449 71.6293 144.943 71.6293C145.221 71.6293 145.465 71.6658 145.673 71.7388C145.882 71.8083 146.059 71.8969 146.205 72.0047C146.351 72.1125 146.469 72.222 146.559 72.3332C146.65 72.4444 146.714 72.54 146.752 72.62V69.3767H147.576V77.1251H146.935L146.851 76.0196C146.82 76.1135 146.768 76.2282 146.695 76.3638C146.622 76.4994 146.516 76.6332 146.377 76.7653C146.238 76.8974 146.055 77.0086 145.829 77.099C145.604 77.1859 145.327 77.2293 145 77.2293ZM145.126 76.5828C145.717 76.5828 146.135 76.409 146.382 76.0614C146.629 75.7103 146.752 75.1419 146.752 74.3563C146.749 73.9218 146.693 73.5498 146.586 73.2405C146.478 72.9311 146.307 72.6947 146.075 72.5313C145.845 72.3645 145.538 72.2811 145.152 72.2811C144.675 72.2811 144.29 72.4479 143.994 72.7816C143.702 73.1153 143.556 73.6402 143.556 74.3563C143.556 75.0515 143.686 75.5973 143.947 75.9936C144.211 76.3864 144.604 76.5828 145.126 76.5828ZM150.231 71.7336V77.1251H149.439V71.7336H150.231ZM150.258 69.5905V70.4874H149.402V69.5905H150.258ZM154.104 77.2293C153.617 77.2293 153.189 77.1251 152.821 76.9165C152.456 76.7044 152.173 76.3916 151.971 75.9779C151.769 75.5643 151.669 75.055 151.669 74.4502C151.669 73.887 151.761 73.3934 151.945 72.9693C152.133 72.5452 152.407 72.2167 152.769 71.9838C153.13 71.7475 153.577 71.6293 154.109 71.6293C154.596 71.6293 155.018 71.737 155.376 71.9526C155.737 72.1646 156.017 72.4809 156.215 72.9015C156.417 73.3187 156.518 73.8349 156.518 74.4502C156.518 74.9994 156.427 75.4826 156.247 75.8997C156.066 76.3169 155.797 76.6436 155.438 76.88C155.084 77.1129 154.639 77.2293 154.104 77.2293ZM154.109 76.5724C154.446 76.5724 154.733 76.4889 154.969 76.3221C155.209 76.1552 155.392 75.9119 155.517 75.5921C155.645 75.2723 155.71 74.8847 155.71 74.4293C155.71 74.0191 155.654 73.6524 155.543 73.3291C155.432 73.0058 155.258 72.7521 155.021 72.5678C154.785 72.3801 154.481 72.2863 154.109 72.2863C153.765 72.2863 153.471 72.3697 153.228 72.5365C152.988 72.6999 152.804 72.9415 152.675 73.2613C152.546 73.5811 152.482 73.9705 152.482 74.4293C152.482 74.8395 152.538 75.2062 152.649 75.5295C152.764 75.8493 152.941 76.1031 153.181 76.2908C153.421 76.4785 153.73 76.5724 154.109 76.5724Z" fill="white"/>
</g>
<defs>
<filter id="filter0_d_1665_27307" x="169.332" y="31.9785" width="76.709" height="74.453" filterUnits="userSpaceOnUse" color-interpolation-filters="sRGB">
<feFlood flood-opacity="0" result="BackgroundImageFix"/>
<feColorMatrix in="SourceAlpha" type="matrix" values="0 0 0 0 0 0 0 0 0 0 0 0 0 0 0 0 0 0 127 0" result="hardAlpha"/>
<feOffset/>
<feGaussianBlur stdDeviation="7.52051"/>
<feComposite in2="hardAlpha" operator="out"/>
<feColorMatrix type="matrix" values="0 0 0 0 0 0 0 0 0 0 0 0 0 0 0 0 0 0 0.3 0"/>
<feBlend mode="normal" in2="BackgroundImageFix" result="effect1_dropShadow_1665_27307"/>
<feBlend mode="normal" in="SourceGraphic" in2="effect1_dropShadow_1665_27307" result="shape"/>
</filter>
<clipPath id="clip0_1665_27307">
<rect y="-0.00012207" width="243" height="132" rx="5" fill="white"/>
</clipPath>
</defs>
</svg>
