<svg width="191" height="203" viewBox="0 0 191 203" fill="none" xmlns="http://www.w3.org/2000/svg">
<path d="M95.5002 194C148.243 194 191 151.243 191 98.4999C191 45.7567 148.243 2.99988 95.5002 2.99988C42.757 2.99988 0.000244141 45.7567 0.000244141 98.4999C0.000244141 151.243 42.757 194 95.5002 194Z" fill="#9ECCFA" fill-opacity="0.2"/>
<path d="M81.214 123.786H40.3282C37.7227 123.786 35.6106 125.899 35.6106 128.504C35.6106 131.11 37.7227 133.222 40.3282 133.222H81.214C83.8194 133.222 85.9316 131.11 85.9316 128.504C85.9316 125.899 83.8194 123.786 81.214 123.786Z" fill="#D6D6D6"/>
<path d="M109.52 144.229H40.3282C37.7227 144.229 35.6106 146.342 35.6106 148.947C35.6106 151.552 37.7227 153.665 40.3282 153.665H109.52C112.125 153.665 114.237 151.552 114.237 148.947C114.237 146.342 112.125 144.229 109.52 144.229Z" fill="#D6D6D6"/>
<path d="M29.3209 70.4999H164.559C168.625 70.4999 171.921 73.7962 171.921 77.8625V125.038C171.921 129.105 168.625 132.401 164.559 132.401H29.3209C25.2546 132.401 21.9583 129.105 21.9583 125.038V77.8625C21.9583 73.7962 25.2546 70.4999 29.3209 70.4999Z" fill="white" stroke="#9ECCFA"/>
<path d="M81.2142 87.2979H40.3284C37.723 87.2979 35.6108 89.41 35.6108 92.0154C35.6108 94.6209 37.723 96.733 40.3284 96.733H81.2142C83.8197 96.733 85.9318 94.6209 85.9318 92.0154C85.9318 89.41 83.8197 87.2979 81.2142 87.2979Z" fill="#00B8EC"/>
<path opacity="0.3" d="M109.52 107.741H40.3284C37.723 107.741 35.6108 109.853 35.6108 112.458C35.6108 115.064 37.723 117.176 40.3284 117.176H109.52C112.125 117.176 114.237 115.064 114.237 112.458C114.237 109.853 112.125 107.741 109.52 107.741Z" fill="#9ECCFA"/>
<ellipse cx="145.5" cy="101.5" rx="14.5" ry="14.5002" fill="#24DE9C"/>
<path d="M150.892 102.189H146.189V106.892H144.622V102.189H139.919V100.622H144.622V95.9188H146.189V100.622H150.892V102.189Z" fill="white"/>
<path d="M29.3209 140.5H164.559C168.625 140.5 171.921 143.796 171.921 147.863V195.039C171.921 199.105 168.625 202.401 164.559 202.401H29.3209C25.2546 202.401 21.9583 199.105 21.9583 195.039V147.863C21.9583 143.796 25.2546 140.5 29.3209 140.5Z" fill="white" stroke="#9ECCFA"/>
<path d="M81.2142 157.298H40.3284C37.723 157.298 35.6108 159.41 35.6108 162.016C35.6108 164.621 37.723 166.733 40.3284 166.733H81.2142C83.8197 166.733 85.9318 164.621 85.9318 162.016C85.9318 159.41 83.8197 157.298 81.2142 157.298Z" fill="#00B8EC"/>
<path opacity="0.3" d="M109.52 177.741H40.3284C37.723 177.741 35.6108 179.853 35.6108 182.458C35.6108 185.064 37.723 187.176 40.3284 187.176H109.52C112.125 187.176 114.237 185.064 114.237 182.458C114.237 179.853 112.125 177.741 109.52 177.741Z" fill="#9ECCFA"/>
<ellipse cx="145.5" cy="171.5" rx="14.5" ry="14.5002" fill="#24DE9C"/>
<path d="M150.892 172.189H146.189V176.892H144.622V172.189H139.919V170.622H144.622V165.919H146.189V170.622H150.892V172.189Z" fill="white"/>
<path d="M29.3209 0.5H164.559C168.625 0.5 171.921 3.79637 171.921 7.86265V55.0386C171.921 59.1048 168.625 62.4012 164.559 62.4012H29.3209C25.2546 62.4012 21.9583 59.1048 21.9583 55.0386V7.86265C21.9583 3.79637 25.2546 0.5 29.3209 0.5Z" fill="white" stroke="#9ECCFA"/>
<path d="M81.2142 17.298H40.3284C37.723 17.298 35.6108 19.4101 35.6108 22.0156C35.6108 24.621 37.723 26.7332 40.3284 26.7332H81.2142C83.8197 26.7332 85.9318 24.621 85.9318 22.0156C85.9318 19.4101 83.8197 17.298 81.2142 17.298Z" fill="#00B8EC"/>
<path opacity="0.3" d="M109.52 37.7408H40.3284C37.723 37.7408 35.6108 39.853 35.6108 42.4584C35.6108 45.0639 37.723 47.176 40.3284 47.176H109.52C112.125 47.176 114.237 45.0639 114.237 42.4584C114.237 39.853 112.125 37.7408 109.52 37.7408Z" fill="#9ECCFA"/>
<ellipse cx="145.5" cy="31.5002" rx="14.5" ry="14.5002" fill="#24DE9C"/>
<path d="M150.892 32.1892H146.189V36.8919H144.622V32.1892H139.919V30.6217H144.622V25.9189H146.189V30.6217H150.892V32.1892Z" fill="white"/>
</svg>
