<svg width="191" height="203" viewBox="0 0 191 203" fill="none" xmlns="http://www.w3.org/2000/svg">
<path d="M95.5 194C148.243 194 191 151.243 191 98.5C191 45.7568 148.243 3 95.5 3C42.7568 3 0 45.7568 0 98.5C0 151.243 42.7568 194 95.5 194Z" fill="#9ECCFA" fill-opacity="0.2"/>
<path d="M81.2137 123.786H40.3279C37.7225 123.786 35.6104 125.898 35.6104 128.504C35.6104 131.109 37.7225 133.221 40.3279 133.221H81.2137C83.8192 133.221 85.9313 131.109 85.9313 128.504C85.9313 125.898 83.8192 123.786 81.2137 123.786Z" fill="#D6D6D6"/>
<path d="M109.519 144.229H40.3279C37.7225 144.229 35.6104 146.341 35.6104 148.946C35.6104 151.552 37.7225 153.664 40.3279 153.664H109.519C112.125 153.664 114.237 151.552 114.237 148.946C114.237 146.341 112.125 144.229 109.519 144.229Z" fill="#D6D6D6"/>
<path d="M29.3207 70.5H164.558C168.625 70.5 171.921 73.7964 171.921 77.8626V125.039C171.921 129.105 168.625 132.401 164.558 132.401H29.3207C25.2544 132.401 21.958 129.105 21.958 125.039V77.8626C21.958 73.7964 25.2544 70.5 29.3207 70.5Z" fill="white" stroke="#9ECCFA"/>
<ellipse cx="48" cy="101" rx="15" ry="15" fill="#00B8EC"/>
<g clip-path="url(#clip0_443_984)">
<path d="M55.2908 98.7144C55.1047 98.5441 54.887 98.4122 54.6501 98.3265C54.4133 98.2407 54.1619 98.2027 53.9104 98.2145C53.6589 98.2264 53.4122 98.288 53.1844 98.3957C52.9566 98.5034 52.7522 98.6552 52.5828 98.8423L50.535 101.103C50.357 100.807 50.1058 100.561 49.8058 100.391C49.5058 100.221 49.1672 100.131 48.8226 100.131H42.5479C42.0414 100.131 41.5557 100.333 41.1975 100.693C40.8394 101.053 40.6382 101.541 40.6382 102.05V106.527C40.6382 107.036 40.8394 107.524 41.1975 107.883C41.5557 108.243 42.0414 108.445 42.5479 108.445H49.1988L55.4289 101.42C55.7634 101.041 55.9364 100.545 55.9105 100.039C55.8847 99.5327 55.6621 99.0572 55.2908 98.7144ZM54.4785 100.569L48.6284 107.166H42.5479C42.3791 107.166 42.2172 107.099 42.0978 106.979C41.9784 106.859 41.9113 106.696 41.9113 106.527V102.05C41.9113 101.88 41.9784 101.717 42.0978 101.597C42.2172 101.478 42.3791 101.41 42.5479 101.41H48.8226C49.0069 101.409 49.1847 101.479 49.3199 101.605C49.4551 101.731 49.5377 101.904 49.5508 102.088C49.564 102.273 49.5069 102.456 49.3909 102.6C49.275 102.744 49.1089 102.838 48.9263 102.864L45.6404 103.335L45.8211 104.602L49.1065 104.13C49.4668 104.076 49.806 103.926 50.0878 103.694C50.3696 103.462 50.5833 103.158 50.7062 102.813L53.5243 99.7025C53.5809 99.6395 53.6495 99.5884 53.726 99.5523C53.8025 99.5162 53.8854 99.4957 53.9699 99.4921C54.1402 99.4853 54.3064 99.5454 54.4333 99.6597C54.5579 99.775 54.6325 99.9348 54.6409 100.105C54.6494 100.275 54.5911 100.441 54.4785 100.569V100.569ZM47.2732 98.9479L47.6405 99.2094L48.0078 98.9479C48.2961 98.7432 50.8233 96.8961 50.8233 95.1425C50.839 94.617 50.6468 94.1067 50.2889 93.7231C49.9311 93.3396 49.4366 93.1141 48.9136 93.0959C48.447 93.0899 47.9943 93.2552 47.6405 93.5608C47.2866 93.2552 46.8339 93.0899 46.3673 93.0959C45.8444 93.1141 45.3499 93.3396 44.992 93.7231C44.6341 94.1067 44.442 94.617 44.4576 95.1425C44.4576 96.8961 46.9848 98.7432 47.2732 98.9479ZM46.3673 94.375C46.4524 94.3693 46.5377 94.382 46.6174 94.4121C46.6972 94.4423 46.7697 94.4892 46.8299 94.5498C46.8902 94.6103 46.9369 94.6831 46.9669 94.7633C46.9969 94.8434 47.0095 94.9291 47.0039 95.0145H48.277C48.2714 94.9291 48.284 94.8434 48.314 94.7633C48.344 94.6831 48.3907 94.6103 48.451 94.5498C48.5113 94.4892 48.5837 94.4423 48.6635 94.4121C48.7433 94.382 48.8286 94.3693 48.9136 94.375C49.0986 94.3936 49.269 94.4845 49.388 94.628C49.5071 94.7715 49.5653 94.9563 49.5502 95.1425C49.5502 95.8293 48.5317 96.9128 47.6405 97.6246C46.8511 96.985 45.7308 95.8805 45.7308 95.1425C45.7157 94.9563 45.7739 94.7715 45.8929 94.628C46.012 94.4845 46.1823 94.3936 46.3673 94.375Z" fill="white"/>
</g>
<path opacity="0.3" d="M122.214 87.2979H81.3279C78.7225 87.2979 76.6104 89.41 76.6104 92.0154C76.6104 94.6209 78.7225 96.733 81.3279 96.733H122.214C124.819 96.733 126.931 94.6209 126.931 92.0154C126.931 89.41 124.819 87.2979 122.214 87.2979Z" fill="#9ECCFA"/>
<path opacity="0.3" d="M150.519 107.74H81.3279C78.7225 107.74 76.6104 109.852 76.6104 112.458C76.6104 115.063 78.7225 117.175 81.3279 117.175H150.519C153.125 117.175 155.237 115.063 155.237 112.458C155.237 109.852 153.125 107.74 150.519 107.74Z" fill="#9ECCFA"/>
<path d="M29.3207 140.5H164.558C168.625 140.5 171.921 143.796 171.921 147.863V195.039C171.921 199.105 168.625 202.401 164.558 202.401H29.3207C25.2544 202.401 21.958 199.105 21.958 195.039V147.863C21.958 143.796 25.2544 140.5 29.3207 140.5Z" fill="white" stroke="#9ECCFA"/>
<ellipse cx="48" cy="171" rx="15" ry="15" fill="#00B8EC"/>
<g clip-path="url(#clip1_443_984)">
<path d="M42.8482 171.644H44.78V172.932H42.8482V171.644ZM46.0679 172.932H47.9997V171.644H46.0679V172.932ZM42.8482 175.507H44.78V174.219H42.8482V175.507ZM46.0679 175.507H47.9997V174.219H46.0679V175.507ZM42.8482 167.78H44.78V166.492H42.8482V167.78ZM46.0679 167.78H47.9997V166.492H46.0679V167.78ZM42.8482 170.356H44.78V169.068H42.8482V170.356ZM46.0679 170.356H47.9997V169.068H46.0679V170.356ZM55.727 168.424V178.727H40.2725V165.204C40.2725 164.692 40.476 164.201 40.8383 163.838C41.2006 163.476 41.6919 163.272 42.2043 163.272H48.6437C49.156 163.272 49.6474 163.476 50.0097 163.838C50.3719 164.201 50.5755 164.692 50.5755 165.204V166.492H53.7952C54.3075 166.492 54.7989 166.696 55.1612 167.058C55.5235 167.42 55.727 167.912 55.727 168.424ZM49.2876 165.204C49.2876 165.033 49.2198 164.87 49.099 164.749C48.9782 164.628 48.8144 164.56 48.6437 164.56H42.2043C42.0335 164.56 41.8697 164.628 41.7489 164.749C41.6282 164.87 41.5603 165.033 41.5603 165.204V177.439H49.2876V165.204ZM54.4391 168.424C54.4391 168.253 54.3713 168.089 54.2505 167.969C54.1297 167.848 53.966 167.78 53.7952 167.78H50.5755V177.439H54.4391V168.424ZM51.8634 172.932H53.1512V171.644H51.8634V172.932ZM51.8634 175.507H53.1512V174.219H51.8634V175.507ZM51.8634 170.356H53.1512V169.068H51.8634V170.356Z" fill="white"/>
</g>
<path opacity="0.3" d="M122.214 157.298H81.3279C78.7225 157.298 76.6104 159.41 76.6104 162.015C76.6104 164.621 78.7225 166.733 81.3279 166.733H122.214C124.819 166.733 126.931 164.621 126.931 162.015C126.931 159.41 124.819 157.298 122.214 157.298Z" fill="#9ECCFA"/>
<path opacity="0.3" d="M150.519 177.74H81.3279C78.7225 177.74 76.6104 179.852 76.6104 182.458C76.6104 185.063 78.7225 187.175 81.3279 187.175H150.519C153.125 187.175 155.237 185.063 155.237 182.458C155.237 179.852 153.125 177.74 150.519 177.74Z" fill="#9ECCFA"/>
<path d="M29.3207 0.5H164.558C168.625 0.5 171.921 3.79637 171.921 7.86265V55.0386C171.921 59.1048 168.625 62.4012 164.558 62.4012H29.3207C25.2544 62.4012 21.958 59.1048 21.958 55.0386V7.86265C21.958 3.79637 25.2544 0.5 29.3207 0.5Z" fill="white" stroke="#9ECCFA"/>
<ellipse cx="48" cy="30.9999" rx="15" ry="14.9999" fill="#00B8EC"/>
<g clip-path="url(#clip2_443_984)">
<path d="M55.9164 32.6325C55.9156 32.3643 55.8585 32.0992 55.7488 31.8547C55.6391 31.6101 55.4793 31.3916 55.2798 31.2133V29.4309C55.2781 27.9048 54.674 26.4417 53.5999 25.3626C52.5259 24.2835 51.0696 23.6765 49.5507 23.6748H47.0044C45.4855 23.6765 44.0292 24.2835 42.9551 25.3626C41.8811 26.4417 41.2769 27.9048 41.2753 29.4309V31.2133C41.0758 31.3916 40.9159 31.6101 40.8062 31.8547C40.6966 32.0992 40.6395 32.3643 40.6387 32.6325V32.7419C40.6375 33.0132 40.6937 33.2817 40.8034 33.5297C40.9131 33.7776 41.074 33.9993 41.2753 34.1802V36.466C41.2753 37.1445 41.5435 37.7952 42.0211 38.275C42.4986 38.7548 43.1462 39.0243 43.8215 39.0243H52.7335C53.4089 39.0243 54.0565 38.7548 54.534 38.275C55.0116 37.7952 55.2798 37.1445 55.2798 36.466V34.0523C55.4794 33.874 55.6393 33.6554 55.749 33.4107C55.8587 33.166 55.9157 32.9008 55.9164 32.6325ZM42.5484 29.4309C42.5498 28.2439 43.0197 27.106 43.855 26.2667C44.6904 25.4274 45.823 24.9553 47.0044 24.9539H49.5507C50.7321 24.9553 51.8647 25.4274 52.7001 26.2667C53.5354 27.106 54.0053 28.2439 54.0067 29.4309V30.7138H42.5484V29.4309ZM54.0067 33.2721H51.4604C49.773 33.2731 48.1427 33.8863 46.8694 34.9989C46.7309 35.1212 46.5527 35.1887 46.3681 35.1887C46.1836 35.1887 46.0054 35.1212 45.8668 34.9989C44.8861 34.1417 43.6873 33.5756 42.4045 33.3642C42.2629 33.3348 42.1359 33.2565 42.0459 33.1428C41.9559 33.029 41.9084 32.8871 41.9118 32.7419V32.6325C41.9118 32.4629 41.9789 32.3002 42.0983 32.1803C42.2177 32.0603 42.3796 31.9929 42.5484 31.9929H54.0067C54.1755 31.9929 54.3374 32.0603 54.4568 32.1803C54.5762 32.3002 54.6433 32.4629 54.6433 32.6325C54.6433 32.8021 54.5762 32.9648 54.4568 33.0847C54.3374 33.2047 54.1755 33.2721 54.0067 33.2721ZM54.0067 36.466C54.0067 36.8053 53.8725 37.1306 53.6338 37.3705C53.395 37.6104 53.0712 37.7452 52.7335 37.7452H43.8215C43.4839 37.7452 43.1601 37.6104 42.9213 37.3705C42.6825 37.1306 42.5484 36.8053 42.5484 36.466V34.7092C43.4657 34.9151 44.3184 35.345 45.031 35.9608C45.4003 36.2878 45.8756 36.4682 46.3678 36.4682C46.8601 36.4682 47.3354 36.2878 47.7046 35.9608C48.7471 35.0527 50.0807 34.5531 51.4604 34.5537H54.0067V36.466ZM47.641 26.8726C47.641 27.0422 47.5739 27.2049 47.4545 27.3249C47.3351 27.4448 47.1732 27.5122 47.0044 27.5122C46.8356 27.5122 46.6737 27.4448 46.5543 27.3249C46.4349 27.2049 46.3678 27.0422 46.3678 26.8726C46.3678 26.703 46.4349 26.5403 46.5543 26.4204C46.6737 26.3004 46.8356 26.2331 47.0044 26.2331C47.1732 26.2331 47.3351 26.3004 47.4545 26.4204C47.5739 26.5403 47.641 26.703 47.641 26.8726ZM45.7313 28.7913C45.7313 28.9609 45.6642 29.1236 45.5448 29.2435C45.4254 29.3635 45.2635 29.4309 45.0947 29.4309C44.9259 29.4309 44.7639 29.3635 44.6446 29.2435C44.5252 29.1236 44.4581 28.9609 44.4581 28.7913C44.4581 28.6217 44.5252 28.459 44.6446 28.3391C44.7639 28.2191 44.9259 28.1517 45.0947 28.1517C45.2635 28.1517 45.4254 28.2191 45.5448 28.3391C45.6642 28.459 45.7313 28.6217 45.7313 28.7913Z" fill="white"/>
</g>
<path opacity="0.3" d="M122.214 17.2979H81.3279C78.7225 17.2979 76.6104 19.41 76.6104 22.0154C76.6104 24.6209 78.7225 26.733 81.3279 26.733H122.214C124.819 26.733 126.931 24.6209 126.931 22.0154C126.931 19.41 124.819 17.2979 122.214 17.2979Z" fill="#9ECCFA"/>
<path opacity="0.3" d="M150.519 37.7402H81.3279C78.7225 37.7402 76.6104 39.8524 76.6104 42.4578C76.6104 45.0633 78.7225 47.1754 81.3279 47.1754H150.519C153.125 47.1754 155.237 45.0633 155.237 42.4578C155.237 39.8524 153.125 37.7402 150.519 37.7402Z" fill="#9ECCFA"/>
<defs>
<clipPath id="clip0_443_984">
<rect width="15.2777" height="15.3495" fill="white" transform="translate(40.6382 93.0967)"/>
</clipPath>
<clipPath id="clip1_443_984">
<rect width="15.4545" height="15.4545" fill="white" transform="translate(40.2725 163.272)"/>
</clipPath>
<clipPath id="clip2_443_984">
<rect width="15.2777" height="15.3495" fill="white" transform="translate(40.6387 23.6748)"/>
</clipPath>
</defs>
</svg>
