<svg width="177" height="201" viewBox="0 0 177 201" fill="none" xmlns="http://www.w3.org/2000/svg">
<circle cx="86.8262" cy="103.235" r="82.7245" stroke="#00B8EC" stroke-width="2.73469" stroke-dasharray="12.31 12.31"/>
<circle cx="153.828" cy="138.786" r="22.5612" fill="#00B8EC"/>
<g clip-path="url(#clip0_414_1158)">
<path d="M163.094 137.499H159.891L155.778 129.289C155.528 128.829 155.159 128.445 154.71 128.177C154.261 127.91 153.749 127.768 153.227 127.768H149.661L152.469 137.499H148.954L146.726 135.266C146.474 135.013 146.168 134.822 145.83 134.707C145.493 134.592 145.134 134.556 144.781 134.603C144.428 134.649 144.09 134.777 143.794 134.975C143.497 135.174 143.25 135.438 143.072 135.748C142.865 136.101 142.755 136.504 142.753 136.914C142.752 137.325 142.859 137.728 143.064 138.083L146.055 143.338H152.459L149.553 151.123H153.227C153.74 151.125 154.244 150.991 154.688 150.732C155.132 150.473 155.498 150.099 155.75 149.65L159.67 143.338H166V140.419C166 139.644 165.694 138.902 165.149 138.354C164.604 137.807 163.865 137.499 163.094 137.499ZM152.239 129.715H153.227C153.396 129.713 153.562 129.757 153.709 129.84C153.856 129.924 153.978 130.046 154.063 130.192L157.724 137.499H154.484L152.239 129.715ZM164.063 141.392H158.595L154.077 148.669C153.994 148.823 153.871 148.951 153.721 149.04C153.572 149.129 153.401 149.176 153.227 149.176H152.344L155.249 141.392H147.178L144.745 137.11C144.711 137.051 144.693 136.983 144.693 136.914C144.694 136.846 144.712 136.778 144.746 136.719C144.781 136.66 144.831 136.611 144.89 136.577C144.95 136.543 145.017 136.525 145.085 136.526C145.137 136.526 145.187 136.536 145.235 136.556C145.282 136.576 145.325 136.604 145.361 136.641L148.153 139.445H163.094C163.351 139.445 163.598 139.548 163.779 139.73C163.961 139.913 164.063 140.16 164.063 140.419V141.392Z" fill="white"/>
</g>
<circle cx="22.5612" cy="138.786" r="22.5612" fill="#00B8EC"/>
<path d="M22.5611 128.132C20.454 128.132 18.3942 128.757 16.6421 129.927C14.8901 131.098 13.5246 132.762 12.7182 134.709C11.9118 136.656 11.7009 138.798 12.1119 140.864C12.523 142.931 13.5377 144.829 15.0277 146.319C16.5177 147.809 18.416 148.824 20.4827 149.235C22.5493 149.646 24.6915 149.435 26.6382 148.629C28.585 147.822 30.2489 146.457 31.4195 144.705C32.5902 142.953 33.2151 140.893 33.2151 138.786C33.2151 135.96 32.0926 133.25 30.0946 131.252C28.0966 129.254 25.3867 128.132 22.5611 128.132ZM22.5611 147.503C20.8371 147.503 19.1518 146.991 17.7183 146.034C16.2849 145.076 15.1676 143.714 14.5078 142.122C13.8481 140.529 13.6755 138.776 14.0118 137.085C14.3481 135.394 15.1783 133.841 16.3974 132.622C17.6165 131.403 19.1697 130.573 20.8606 130.237C22.5515 129.9 24.3041 130.073 25.8969 130.733C27.4897 131.392 28.8511 132.51 29.8089 133.943C30.7667 135.377 31.278 137.062 31.278 138.786C31.278 141.098 30.3596 143.315 28.7249 144.95C27.0902 146.584 24.873 147.503 22.5611 147.503ZM24.4982 133.943V132.975C24.4982 132.718 24.3962 132.471 24.2145 132.29C24.0329 132.108 23.7866 132.006 23.5297 132.006C23.2728 132.006 23.0265 132.108 22.8448 132.29C22.6632 132.471 22.5611 132.718 22.5611 132.975V133.943H21.5926V132.975C21.5926 132.718 21.4906 132.471 21.3089 132.29C21.1273 132.108 20.8809 132.006 20.6241 132.006C20.3672 132.006 20.1208 132.108 19.9392 132.29C19.7576 132.471 19.6555 132.718 19.6555 132.975V133.943H18.687C18.4301 133.943 18.1838 134.045 18.0021 134.227C17.8205 134.408 17.7185 134.655 17.7185 134.912C17.7185 135.169 17.8205 135.415 18.0021 135.597C18.1838 135.778 18.4301 135.88 18.687 135.88H19.6555V141.691H18.687C18.4301 141.691 18.1838 141.794 18.0021 141.975C17.8205 142.157 17.7185 142.403 17.7185 142.66C17.7185 142.917 17.8205 143.163 18.0021 143.345C18.1838 143.527 18.4301 143.629 18.687 143.629H19.6555V144.597C19.6555 144.854 19.7576 145.1 19.9392 145.282C20.1208 145.464 20.3672 145.566 20.6241 145.566C20.8809 145.566 21.1273 145.464 21.3089 145.282C21.4906 145.1 21.5926 144.854 21.5926 144.597V143.629H22.5611V144.597C22.5611 144.854 22.6632 145.1 22.8448 145.282C23.0265 145.464 23.2728 145.566 23.5297 145.566C23.7866 145.566 24.0329 145.464 24.2145 145.282C24.3962 145.1 24.4982 144.854 24.4982 144.597V143.629C25.2688 143.629 26.0079 143.322 26.5528 142.778C27.0977 142.233 27.4038 141.494 27.4038 140.723C27.4022 140.007 27.1367 139.318 26.6581 138.786C27.1367 138.254 27.4022 137.564 27.4038 136.849C27.4038 136.078 27.0977 135.339 26.5528 134.794C26.0079 134.249 25.2688 133.943 24.4982 133.943ZM24.4982 141.691H21.5926V139.754H24.4982C24.7551 139.754 25.0014 139.856 25.1831 140.038C25.3647 140.22 25.4668 140.466 25.4668 140.723C25.4668 140.98 25.3647 141.226 25.1831 141.408C25.0014 141.589 24.7551 141.691 24.4982 141.691ZM24.4982 137.817H21.5926V135.88H24.4982C24.7551 135.88 25.0014 135.982 25.1831 136.164C25.3647 136.346 25.4668 136.592 25.4668 136.849C25.4668 137.106 25.3647 137.352 25.1831 137.534C25.0014 137.715 24.7551 137.817 24.4982 137.817Z" fill="white"/>
<circle cx="85.4599" cy="178.439" r="22.5612" fill="#00B8EC"/>
<g clip-path="url(#clip1_414_1158)">
<path d="M77.7113 179.407H80.6169V181.344H77.7113V179.407ZM82.554 181.344H85.4596V179.407H82.554V181.344ZM77.7113 185.218H80.6169V183.281H77.7113V185.218ZM82.554 185.218H85.4596V183.281H82.554V185.218ZM77.7113 173.596H80.6169V171.659H77.7113V173.596ZM82.554 173.596H85.4596V171.659H82.554V173.596ZM77.7113 177.47H80.6169V175.533H77.7113V177.47ZM82.554 177.47H85.4596V175.533H82.554V177.47ZM97.0821 174.564V190.061H73.8372V169.722C73.8372 168.951 74.1433 168.212 74.6882 167.667C75.2331 167.122 75.9722 166.816 76.7428 166.816H86.4281C87.1988 166.816 87.9378 167.122 88.4827 167.667C89.0276 168.212 89.3338 168.951 89.3338 169.722V171.659H94.1764C94.9471 171.659 95.6861 171.965 96.231 172.51C96.7759 173.055 97.0821 173.794 97.0821 174.564ZM87.3967 169.722C87.3967 169.465 87.2946 169.219 87.113 169.037C86.9314 168.855 86.685 168.753 86.4281 168.753H76.7428C76.4859 168.753 76.2395 168.855 76.0579 169.037C75.8763 169.219 75.7742 169.465 75.7742 169.722V188.124H87.3967V169.722ZM95.145 174.564C95.145 174.308 95.0429 174.061 94.8613 173.88C94.6797 173.698 94.4333 173.596 94.1764 173.596H89.3338V188.124H95.145V174.564ZM91.2708 181.344H93.2079V179.407H91.2708V181.344ZM91.2708 185.218H93.2079V183.281H91.2708V185.218ZM91.2708 177.47H93.2079V175.533H91.2708V177.47Z" fill="white"/>
</g>
<circle cx="85.4597" cy="22.5612" r="22.5612" fill="#00B8EC"/>
<g clip-path="url(#clip2_414_1158)">
<path d="M97.3667 25.0163C97.3655 24.6129 97.2797 24.2142 97.1147 23.8464C96.9497 23.4786 96.7093 23.1499 96.4092 22.8818V20.2008C96.4067 17.9054 95.498 15.7048 93.8825 14.0818C92.2671 12.4587 90.0767 11.5458 87.7921 11.5432H83.9623C81.6777 11.5458 79.4873 12.4587 77.8719 14.0818C76.2564 15.7048 75.3477 17.9054 75.3452 20.2008V22.8818C75.0451 23.1499 74.8047 23.4786 74.6397 23.8464C74.4748 24.2142 74.3889 24.6129 74.3877 25.0163V25.1808C74.386 25.589 74.4704 25.9928 74.6355 26.3658C74.8005 26.7387 75.0424 27.0722 75.3452 27.3443V30.7823C75.3452 31.8028 75.7487 32.7815 76.4669 33.5031C77.1851 34.2247 78.1593 34.6301 79.175 34.6301H92.5794C93.5951 34.6301 94.5693 34.2247 95.2875 33.5031C96.0057 32.7815 96.4092 31.8028 96.4092 30.7823V27.1519C96.7094 26.8837 96.9499 26.5548 97.1149 26.1868C97.2799 25.8188 97.3657 25.42 97.3667 25.0163ZM77.2601 20.2008C77.2621 18.4155 77.9689 16.704 79.2254 15.4416C80.4818 14.1793 82.1854 13.4692 83.9623 13.4671H87.7921C89.569 13.4692 91.2726 14.1793 92.529 15.4416C93.7855 16.704 94.4923 18.4155 94.4943 20.2008V22.1305H77.2601V20.2008ZM94.4943 25.9783H90.6645C88.1265 25.9799 85.6744 26.9022 83.7593 28.5756C83.5508 28.7596 83.2828 28.8611 83.0053 28.8611C82.7278 28.8611 82.4598 28.7596 82.2513 28.5756C80.7763 27.2862 78.9731 26.4349 77.0437 26.1168C76.8306 26.0727 76.6397 25.9549 76.5043 25.7838C76.3689 25.6128 76.2975 25.3994 76.3026 25.1808V25.0163C76.3026 24.7612 76.4035 24.5165 76.5831 24.3361C76.7626 24.1557 77.0062 24.0544 77.2601 24.0544H94.4943C94.7482 24.0544 94.9918 24.1557 95.1713 24.3361C95.3509 24.5165 95.4518 24.7612 95.4518 25.0163C95.4518 25.2715 95.3509 25.5162 95.1713 25.6966C94.9918 25.877 94.7482 25.9783 94.4943 25.9783ZM94.4943 30.7823C94.4943 31.2926 94.2926 31.7819 93.9334 32.1427C93.5743 32.5035 93.0873 32.7062 92.5794 32.7062H79.175C78.6671 32.7062 78.1801 32.5035 77.821 32.1427C77.4618 31.7819 77.2601 31.2926 77.2601 30.7823V28.1398C78.6398 28.4496 79.9223 29.0961 80.9942 30.0224C81.5496 30.5142 82.2645 30.7855 83.0048 30.7855C83.7452 30.7855 84.4601 30.5142 85.0155 30.0224C86.5834 28.6565 88.5893 27.9051 90.6645 27.9061H94.4943V30.7823ZM84.9197 16.353C84.9197 16.6081 84.8189 16.8528 84.6393 17.0332C84.4598 17.2136 84.2162 17.3149 83.9623 17.3149C83.7084 17.3149 83.4648 17.2136 83.2853 17.0332C83.1057 16.8528 83.0048 16.6081 83.0048 16.353C83.0048 16.0979 83.1057 15.8532 83.2853 15.6728C83.4648 15.4924 83.7084 15.391 83.9623 15.391C84.2162 15.391 84.4598 15.4924 84.6393 15.6728C84.8189 15.8532 84.9197 16.0979 84.9197 16.353ZM82.0474 19.2388C82.0474 19.494 81.9465 19.7387 81.7669 19.9191C81.5874 20.0995 81.3439 20.2008 81.0899 20.2008C80.836 20.2008 80.5925 20.0995 80.4129 19.9191C80.2333 19.7387 80.1325 19.494 80.1325 19.2388C80.1325 18.9837 80.2333 18.739 80.4129 18.5586C80.5925 18.3782 80.836 18.2769 81.0899 18.2769C81.3439 18.2769 81.5874 18.3782 81.7669 18.5586C81.9465 18.739 82.0474 18.9837 82.0474 19.2388Z" fill="white"/>
</g>
<circle cx="153.828" cy="58.1123" r="22.5612" fill="#00B8EC"/>
<g clip-path="url(#clip3_414_1158)">
<path d="M164.793 54.675C164.513 54.4188 164.186 54.2205 163.83 54.0915C163.474 53.9625 163.095 53.9053 162.717 53.9232C162.339 53.941 161.968 54.0336 161.625 54.1956C161.283 54.3576 160.975 54.5859 160.72 54.8674L157.64 58.2679C157.373 57.822 156.995 57.4532 156.544 57.197C156.092 56.9409 155.583 56.8061 155.065 56.8057H145.627C144.865 56.8057 144.135 57.1098 143.596 57.651C143.057 58.1922 142.755 58.9262 142.755 59.6916V66.4253C142.755 67.1907 143.057 67.9247 143.596 68.4659C144.135 69.0071 144.865 69.3111 145.627 69.3111H155.631L165.001 58.7441C165.504 58.1738 165.764 57.4279 165.726 56.6669C165.687 55.9058 165.352 55.1905 164.793 54.675ZM163.572 57.4647L154.773 67.3872H145.627C145.373 67.3872 145.13 67.2859 144.95 67.1055C144.77 66.9251 144.67 66.6804 144.67 66.4253V59.6916C144.67 59.4365 144.77 59.1918 144.95 59.0114C145.13 58.831 145.373 58.7296 145.627 58.7296H155.065C155.342 58.7284 155.609 58.8331 155.813 59.0225C156.016 59.2118 156.14 59.4718 156.16 59.7496C156.18 60.0275 156.094 60.3025 155.919 60.5191C155.745 60.7357 155.495 60.8776 155.221 60.9162L150.278 61.6251L150.55 63.5298L155.492 62.8199C156.034 62.74 156.544 62.5136 156.968 62.1649C157.391 61.8162 157.713 61.3583 157.898 60.8402L162.136 56.1612C162.222 56.0664 162.325 55.9896 162.44 55.9352C162.555 55.8809 162.68 55.8501 162.807 55.8447C163.063 55.8345 163.313 55.9249 163.504 56.0968C163.691 56.2702 163.803 56.5106 163.816 56.7663C163.829 57.0219 163.741 57.2724 163.572 57.4637V57.4647ZM152.734 55.0261L153.287 55.4196L153.839 55.0261C154.273 54.7183 158.074 51.9402 158.074 49.3025C158.097 48.5121 157.808 47.7446 157.27 47.1677C156.732 46.5908 155.988 46.2516 155.202 46.2242C154.5 46.2152 153.819 46.4639 153.287 46.9236C152.754 46.4639 152.074 46.2152 151.372 46.2242C150.585 46.2516 149.841 46.5908 149.303 47.1677C148.765 47.7446 148.476 48.5121 148.499 49.3025C148.499 51.9402 152.3 54.7183 152.734 55.0261ZM151.372 48.1481C151.5 48.1396 151.628 48.1587 151.748 48.204C151.868 48.2494 151.977 48.3199 152.068 48.411C152.158 48.5021 152.228 48.6116 152.274 48.7322C152.319 48.8527 152.338 48.9816 152.329 49.1101H154.244C154.236 48.9816 154.255 48.8527 154.3 48.7322C154.345 48.6116 154.415 48.5021 154.506 48.411C154.596 48.3199 154.705 48.2494 154.825 48.204C154.945 48.1587 155.074 48.1396 155.202 48.1481C155.48 48.1762 155.736 48.3129 155.915 48.5287C156.094 48.7446 156.182 49.0224 156.159 49.3025C156.159 50.3356 154.627 51.9652 153.287 53.0358C152.099 52.0739 150.414 50.4126 150.414 49.3025C150.392 49.0224 150.479 48.7446 150.658 48.5287C150.837 48.3129 151.093 48.1762 151.372 48.1481Z" fill="white"/>
</g>
<circle cx="22.5612" cy="58.1121" r="22.5612" fill="#00B8EC"/>
<g clip-path="url(#clip4_414_1158)">
<path d="M21.0629 57.7684C20.6841 57.7684 20.3139 57.8813 19.999 58.0927C19.6841 58.3041 19.4386 58.6045 19.2937 58.9561C19.1488 59.3076 19.1109 59.6945 19.1847 60.0677C19.2586 60.4409 19.441 60.7837 19.7088 61.0527C19.9766 61.3218 20.3178 61.505 20.6893 61.5793C21.0607 61.6535 21.4458 61.6154 21.7957 61.4698C22.1456 61.3242 22.4446 61.0776 22.6551 60.7612C22.8655 60.4448 22.9778 60.0728 22.9778 59.6923C22.9778 59.1821 22.776 58.6927 22.4169 58.3319C22.0578 57.9711 21.5707 57.7684 21.0629 57.7684Z" fill="white"/>
<path d="M16.7127 61.6574L15.3586 63.0178L17.7526 65.423L19.1067 64.0626L16.7127 61.6574Z" fill="white"/>
<path d="M32.0738 51.0351L33.9714 49.1285C34.2804 48.8079 34.4515 48.3781 34.4479 47.9318C34.4443 47.4855 34.2662 47.0586 33.9522 46.743C33.6381 46.4274 33.2131 46.2486 32.7689 46.2449C32.3247 46.2413 31.8969 46.4132 31.5778 46.7236L29.6801 48.6302V49.7384L27.0749 52.327C26.0239 51.4634 24.6984 51.009 23.3412 51.047C21.984 51.0849 20.6858 51.6128 19.6843 52.5338C19.3091 52.9103 18.9986 53.3465 18.7651 53.8248C18.7355 53.8724 18.6905 53.9083 18.6378 53.9268C17.6866 53.8781 16.7357 54.0288 15.8456 54.3693C14.9555 54.7098 14.1456 55.2326 13.4675 55.9045C10.6373 58.749 10.8824 63.6242 14.018 66.7746C15.5768 68.3717 17.7013 69.284 19.9275 69.3123C20.8583 69.3311 21.783 69.1563 22.6434 68.7987C23.5037 68.441 24.2811 67.9084 24.9266 67.2343C25.5721 66.5602 26.0718 65.7592 26.3942 64.8816C26.7166 64.004 26.8548 63.0689 26.8001 62.1351C26.8036 62.1073 26.8143 62.0808 26.8311 62.0584C26.8479 62.036 26.8702 62.0183 26.8958 62.0072C27.3729 61.7729 27.808 61.4608 28.1836 61.0837C29.0983 60.0845 29.6258 58.7888 29.6702 57.4321C29.7147 56.0753 29.2731 54.7475 28.4258 53.6901L31.0981 51.0351H32.0738ZM26.8326 59.7196C26.6051 59.9475 26.3414 60.1358 26.0523 60.2766C25.6947 60.451 25.3946 60.7251 25.1879 61.0663C24.9813 61.4075 24.8768 61.8013 24.8871 62.2005C24.925 62.8925 24.8192 63.5849 24.5764 64.2336C24.3336 64.8823 23.9591 65.4731 23.4767 65.9685C21.3943 68.0608 17.7559 67.8155 15.369 65.4163C12.9821 63.0172 12.7331 59.3608 14.8194 57.2676C15.2871 56.806 15.8415 56.4424 16.4503 56.1982C17.0592 55.9539 17.7103 55.8338 18.3658 55.8449C18.4338 55.8449 18.5018 55.8449 18.5707 55.8449C18.9689 55.8578 19.3621 55.7538 19.7022 55.5455C20.0424 55.3372 20.3146 55.0337 20.4857 54.6723C20.6259 54.3822 20.8133 54.1175 21.04 53.8892C21.6758 53.3224 22.4865 52.9928 23.3357 52.956C24.1849 52.9192 25.0209 53.1775 25.7028 53.6872L23.9794 55.3957L25.3256 56.7636L27.049 55.0522C27.5513 55.7371 27.8039 56.5747 27.7645 57.4245C27.7251 58.2743 27.3961 59.0846 26.8326 59.7196Z" fill="white"/>
</g>
<defs>
<clipPath id="clip0_414_1158">
<rect width="23.2449" height="23.3541" fill="white" transform="translate(142.755 127.768)"/>
</clipPath>
<clipPath id="clip1_414_1158">
<rect width="23.2449" height="23.2449" fill="white" transform="translate(73.8372 166.816)"/>
</clipPath>
<clipPath id="clip2_414_1158">
<rect width="22.979" height="23.0869" fill="white" transform="translate(74.3877 11.5432)"/>
</clipPath>
<clipPath id="clip3_414_1158">
<rect width="22.979" height="23.0869" fill="white" transform="translate(142.755 46.2246)"/>
</clipPath>
<clipPath id="clip4_414_1158">
<rect width="22.979" height="23.0869" fill="white" transform="translate(11.4883 46.225)"/>
</clipPath>
</defs>
</svg>
