<svg width="180" height="71" viewBox="0 0 180 71" fill="none" xmlns="http://www.w3.org/2000/svg">
<g id="logo-opfin" clip-path="url(#clip0_260_1589)">
<g id="Group">
<path id="Vector" d="M17.5291 6.35499C1.88315 14.1644 -4.46958 33.1778 3.33982 48.8222C11.1492 64.4682 30.1627 70.8209 45.807 63.0115C61.4514 55.2037 67.8058 36.1903 59.9964 20.5443C52.187 4.89832 33.1735 -1.45281 17.5291 6.35499Z" fill="url(#paint0_radial_260_1589)"/>
<g id="Group_2">
<path id="Vector_2" d="M8.14706 50.8866C8.30216 50.5268 17.2181 35.0999 17.5506 34.6234C18.0207 33.9502 18.5596 33.2787 19.4342 33.2787C20.5791 33.2787 21.0748 34.2205 21.345 34.6234C21.6136 35.0279 25.2753 45.5284 25.4096 45.8658C25.5439 46.2016 25.691 47.0778 26.1659 47.0778C26.4521 47.0778 26.6376 46.6717 26.8391 46.1344C27.0406 45.5972 33.9753 27.9589 34.1096 27.6231C34.244 27.2873 34.85 25.8738 35.8589 25.8738C36.8679 25.8738 37.0709 26.8156 37.2724 27.6231C37.4755 28.4306 38.9306 35.6467 39.0217 35.9697C39.156 36.4398 39.156 37.1146 39.6277 37.1146C40.368 37.1146 47.2021 13.6736 47.3012 13.3522C47.5698 12.4776 48.243 12.3433 48.849 12.3433C49.455 12.3433 50.3984 12.4776 50.061 13.7552C49.7253 15.0359 41.2347 42.0027 41.0412 42.7014C40.7038 43.9135 40.0994 44.1837 39.5606 44.1165C38.8714 44.0302 38.2158 44.3852 37.8784 42.7014C37.5091 40.8594 35.8014 34.2876 35.7326 33.8831C35.6654 33.4785 35.5215 33.0756 35.0498 33.0756C34.5781 33.0756 34.5126 33.6145 34.3783 34.1533C34.2424 34.6906 27.9152 50.9154 27.645 51.3855C27.3764 51.8556 27.242 52.3273 26.2986 52.3944C25.424 52.4568 25.0195 52.1258 24.6837 51.1152C24.455 50.4277 20.4432 38.7951 20.3089 38.3922C20.1746 37.9877 19.9043 36.5758 19.3671 36.5758C18.8298 36.5758 18.4253 37.3161 18.1551 37.8549C17.8848 38.3938 10.3169 52.3145 10.0307 52.6359C9.4934 53.2403 8.63315 52.8134 8.34853 52.6359C7.80967 52.2985 7.94399 51.3567 8.14706 50.885V50.8866Z" fill="#221E20"/>
<path id="Vector_3" d="M34.1293 27.6643C34.2636 27.3286 34.8696 25.9151 35.8786 25.9151C36.8875 25.9151 37.0906 26.8569 37.2921 27.6643C37.4952 28.4718 38.9502 35.688 39.0414 36.011C39.1757 36.4811 39.1757 37.1559 39.6474 37.1559C40.3877 37.1559 47.2217 13.7149 47.3209 13.3935C47.5895 12.5188 48.2627 12.3845 48.8687 12.3845C49.4747 12.3845 50.4021 12.5188 50.0647 13.7964C49.7289 15.0772 41.2511 41.9816 41.0577 42.6803C40.7203 43.8924 40.1159 44.1626 39.577 44.0954C38.8879 44.0091 38.2323 44.3641 37.8949 42.6803C37.5255 40.8383 35.8194 34.2937 35.7507 33.8892C35.6835 33.4846 35.5396 33.0897 35.0679 33.0897C34.5962 33.0897 34.5163 33.6557 34.3819 34.1946C34.246 34.7318 27.9221 50.9007 27.6535 51.3724C27.3848 51.8425 27.2537 52.3142 26.3103 52.3813C25.4357 52.4437 25.0311 52.1127 24.6953 51.1021C24.4667 50.4146 20.4581 38.7932 20.3221 38.3887C20.1878 37.9841 19.9176 36.601 19.3787 36.601C18.8399 36.601 18.4274 37.3589 18.1571 37.8962C17.8869 38.4351 10.3189 52.3557 10.0327 52.6771C9.49547 53.2815 8.65121 52.8546 8.36499 52.6771C7.82614 52.3398 7.96205 51.398 8.16352 50.9263C8.31862 50.5665 17.2345 35.1396 17.5671 34.6631C18.0372 33.9899 18.5761 33.3183 19.4507 33.3183C20.5956 33.3183 21.0913 34.2601 21.3615 34.6631C21.6301 35.0676 25.2918 45.5681 25.4261 45.9055C25.5604 46.2413 25.7075 47.1191 26.1824 47.1175C26.4686 47.1175 26.6541 46.7114 26.8556 46.1741C27.057 45.6368 33.9918 27.9985 34.1261 27.6627L34.1293 27.6643Z" fill="#2B2729"/>
<path id="Vector_4" d="M34.1524 27.7046C34.2867 27.3688 34.8927 25.9553 35.9016 25.9553C36.9106 25.9553 37.1137 26.8971 37.3151 27.7046C37.5182 28.5121 38.9733 35.7283 39.0644 36.0513C39.1987 36.5214 39.1987 37.1962 39.6704 37.1962C40.4108 37.1962 47.2448 13.7552 47.3439 13.4338C47.6125 12.5591 48.2857 12.4248 48.8917 12.4248C49.4977 12.4248 50.4108 12.5591 50.0734 13.8367C49.7376 15.1159 41.271 41.9595 41.0775 42.6567C40.7401 43.8687 40.1357 44.1389 39.5969 44.0718C38.9077 43.9854 38.2521 44.3404 37.9148 42.6567C37.5454 40.8146 35.8409 34.2956 35.7721 33.8911C35.705 33.4865 35.5627 33.1012 35.091 33.1012C34.6193 33.1012 34.5249 33.696 34.3906 34.2332C34.2547 34.7705 27.9355 50.8834 27.6653 51.3551C27.3967 51.8252 27.2704 52.2969 26.327 52.364C25.4523 52.4264 25.0478 52.0954 24.712 51.0849C24.4834 50.3973 20.4779 38.7855 20.342 38.381C20.2077 37.9765 19.9359 36.6221 19.3986 36.6221C18.8613 36.6221 18.4376 37.3976 18.1674 37.9349C17.8972 38.4737 10.3292 52.3944 10.043 52.7158C9.50574 53.3202 8.67587 52.8933 8.38965 52.7158C7.8508 52.3784 7.98671 51.4366 8.18818 50.9649C8.34328 50.6052 17.2592 35.1782 17.5918 34.7017C18.0619 34.0286 18.6007 33.357 19.4754 33.357C20.6202 33.357 21.1159 34.2988 21.3861 34.7017C21.6548 35.1063 25.3164 45.6068 25.4507 45.9442C25.585 46.2799 25.7322 47.1578 26.207 47.1562C26.4933 47.1562 26.6787 46.75 26.8802 46.2128C27.0817 45.6755 34.0164 28.0372 34.1508 27.7014L34.1524 27.7046Z" fill="#343032"/>
<path id="Vector_5" d="M34.1746 27.7446C34.3089 27.4088 34.9149 25.9937 35.9239 25.9937C36.9328 25.9937 37.1359 26.9355 37.3374 27.743C37.5404 28.5504 38.9955 35.7666 39.0866 36.0896C39.221 36.5597 39.221 37.2345 39.6927 37.2345C40.433 37.2345 47.267 13.7935 47.3661 13.4721C47.6348 12.5974 48.3079 12.4631 48.914 12.4631C49.52 12.4631 50.4186 12.5974 50.0812 13.875C49.7454 15.1542 41.2916 41.9355 41.0966 42.6326C40.7592 43.8447 40.1548 44.1149 39.6159 44.0477C38.9267 43.9614 38.2712 44.3164 37.9338 42.6326C37.5644 40.7906 35.8615 34.2972 35.7943 33.8926C35.7272 33.4881 35.5849 33.1107 35.1132 33.1107C34.6415 33.1107 34.5328 33.7327 34.3984 34.2716C34.2625 34.8088 27.9466 50.8674 27.6763 51.3375C27.4077 51.8092 27.2846 52.2793 26.3412 52.3464C25.4666 52.4088 25.062 52.0778 24.7262 51.0672C24.4976 50.3797 20.4937 38.7775 20.3594 38.3746C20.2251 37.97 19.9533 36.6429 19.4144 36.6429C18.8756 36.6429 18.4438 37.436 18.1736 37.9732C17.9034 38.5121 10.3354 52.4328 10.0492 52.7542C9.51196 53.3586 8.69649 52.9316 8.41187 52.7542C7.87301 52.4168 8.00893 51.475 8.2104 51.0033C8.3655 50.6435 17.2814 35.2166 17.614 34.7401C18.0841 34.0669 18.6229 33.3953 19.4976 33.3953C20.6424 33.3953 21.1381 34.3371 21.4084 34.7401C21.677 35.1446 25.3386 45.6451 25.473 45.9825C25.6073 46.3183 25.7544 47.1961 26.2293 47.1945C26.5155 47.1945 26.701 46.79 26.9024 46.2511C27.1039 45.7139 34.0387 28.0755 34.173 27.7398L34.1746 27.7446Z" fill="#3D393B"/>
<path id="Vector_6" d="M34.195 27.7861C34.3293 27.4503 34.9353 26.0352 35.9442 26.0352C36.9532 26.0352 37.1563 26.977 37.3577 27.7845C37.5608 28.5919 39.0159 35.8081 39.107 36.1311C39.2413 36.6012 39.2413 37.276 39.713 37.276C40.4533 37.276 47.2874 13.835 47.3865 13.5136C47.6551 12.639 48.3283 12.5046 48.9343 12.5046C49.5403 12.5046 50.4246 12.639 50.0872 13.9165C49.7514 15.1957 41.3088 41.9146 41.1153 42.6118C40.7779 43.8238 40.1735 44.094 39.6347 44.0269C38.9455 43.9405 38.2899 44.2955 37.9525 42.6118C37.5832 40.7697 35.8819 34.3019 35.8147 33.8973C35.7476 33.4928 35.6052 33.125 35.1335 33.125C34.6619 33.125 34.5387 33.7742 34.4044 34.3131C34.2685 34.8503 27.9557 50.8529 27.6871 51.323C27.4185 51.7947 27.2986 52.2648 26.3552 52.332C25.4805 52.3943 25.076 52.0633 24.7402 51.0528C24.5115 50.3652 20.5109 38.7726 20.3766 38.3697C20.2423 37.9651 19.9689 36.6668 19.4316 36.6668C18.8943 36.6668 18.4514 37.4759 18.1812 38.0147C17.911 38.5536 10.343 52.4743 10.0568 52.7957C9.51955 53.4001 8.71846 52.9747 8.43384 52.7957C7.89499 52.4583 8.0309 51.5165 8.23237 51.0448C8.38747 50.685 17.3034 35.2581 17.636 34.7816C18.106 34.1084 18.6449 33.4368 19.5195 33.4368C20.6644 33.4368 21.1601 34.3786 21.4303 34.7816C21.6989 35.1861 25.3606 45.6866 25.4949 46.024C25.6292 46.3598 25.7763 47.2376 26.2512 47.236C26.5375 47.236 26.7229 46.8315 26.9244 46.2926C27.1259 45.7554 34.0606 28.117 34.195 27.7813V27.7861Z" fill="#454244"/>
<path id="Vector_7" d="M34.2169 27.8259C34.3512 27.4901 34.9573 26.075 35.9662 26.075C36.9752 26.075 37.1782 27.0168 37.3797 27.8243C37.5828 28.6317 39.0378 35.8479 39.129 36.1709C39.2633 36.641 39.2633 37.3158 39.735 37.3158C40.4753 37.3158 47.3093 13.8748 47.4085 13.5534C47.6771 12.6787 48.3503 12.5444 48.9563 12.5444C49.5623 12.5444 50.4305 12.6787 50.0932 13.9563C49.7574 15.2355 41.3276 41.8905 41.1325 42.5892C40.7951 43.8012 40.1907 44.0715 39.6518 44.0043C38.9627 43.918 38.3055 44.2729 37.9697 42.5892C37.6004 40.7472 35.9007 34.3065 35.8335 33.902C35.7663 33.4974 35.6256 33.1377 35.1539 33.1377C34.6822 33.1377 34.5447 33.8156 34.4104 34.3529C34.2745 34.8901 27.9665 50.8367 27.6963 51.3084C27.4277 51.7801 27.3109 52.2502 26.3692 52.3174C25.4945 52.3797 25.09 52.0488 24.7542 51.0382C24.5255 50.3506 20.5281 38.7677 20.3938 38.3647C20.2595 37.9602 19.986 36.6906 19.4488 36.6906C18.9115 36.6906 18.459 37.5173 18.1888 38.0561C17.9186 38.595 10.3506 52.5157 10.0644 52.837C9.52713 53.4415 8.74203 53.0161 8.45581 52.837C7.91696 52.5013 8.05287 51.5579 8.25434 51.0862C8.40944 50.7264 17.3253 35.2995 17.6579 34.823C18.128 34.1498 18.6669 33.4782 19.5415 33.4782C20.6864 33.4782 21.1821 34.42 21.4523 34.823C21.7209 35.2275 25.3826 45.728 25.5169 46.0654C25.6512 46.4012 25.7983 47.279 26.2732 47.2774C26.5594 47.2774 26.7449 46.8729 26.9464 46.334C27.1479 45.7968 34.0826 28.1584 34.2169 27.8227V27.8259Z" fill="#4E4B4D"/>
<path id="Vector_8" d="M34.2399 27.8656C34.3742 27.5299 34.9802 26.1148 35.9892 26.1148C36.9981 26.1148 37.2012 27.0566 37.4027 27.864C37.6057 28.6715 39.0608 35.8877 39.152 36.2107C39.2863 36.6808 39.2863 37.3556 39.758 37.3556C40.4983 37.3556 47.3323 13.9146 47.4315 13.5932C47.7001 12.7185 48.3733 12.5842 48.9793 12.5842C49.5853 12.5842 50.4391 12.7185 50.1017 13.9961C49.766 15.2753 41.3474 41.8679 41.1539 42.5666C40.8165 43.7787 40.2121 44.0489 39.6732 43.9817C38.9841 43.8954 38.3269 44.2504 37.9911 42.5666C37.6217 40.7246 35.9252 34.3095 35.8565 33.905C35.7893 33.5004 35.6486 33.1503 35.1769 33.1503C34.7052 33.1503 34.5533 33.8554 34.419 34.3943C34.2831 34.9315 27.9783 50.8222 27.7081 51.2939C27.4395 51.7655 27.3275 52.2357 26.3841 52.3028C25.5095 52.3652 25.1049 52.0342 24.7692 51.0236C24.5405 50.3361 20.5463 38.7643 20.4104 38.3597C20.276 37.9552 20.0026 36.7128 19.4638 36.7128C18.9249 36.7128 18.4644 37.557 18.1942 38.0959C17.9239 38.6348 10.356 52.5555 10.0698 52.8768C9.53251 53.4813 8.76181 53.0559 8.47559 52.8768C7.93673 52.5411 8.07265 51.5977 8.27412 51.126C8.42922 50.7662 17.3451 35.3393 17.6777 34.8628C18.1478 34.1896 18.6867 33.518 19.5613 33.518C20.7062 33.518 21.2018 34.4598 21.4721 34.8628C21.7407 35.2673 25.4024 45.7678 25.5367 46.1052C25.671 46.441 25.8181 47.3188 26.293 47.3172C26.5792 47.3172 26.7647 46.9127 26.9662 46.3738C27.1676 45.8365 34.1024 28.1982 34.2367 27.8624L34.2399 27.8656Z" fill="#575456"/>
<path id="Vector_9" d="M34.2603 27.9057C34.3946 27.5699 35.0006 26.1548 36.0096 26.1548C37.0185 26.1548 37.2216 27.0966 37.423 27.9041C37.6261 28.7116 39.0812 35.9278 39.1723 36.2507C39.3066 36.7208 39.3066 37.3956 39.7783 37.3956C40.5187 37.3956 47.3527 13.9546 47.4518 13.6332C47.7205 12.7586 48.3936 12.6243 48.9996 12.6243C49.6057 12.6243 50.4451 12.7586 50.1077 14.0362C49.7719 15.3153 41.3645 41.8456 41.1711 42.5443C40.8337 43.7563 40.2293 44.0266 39.6904 43.9594C39.0012 43.8731 38.3441 44.228 38.0083 42.5443C37.6389 40.7023 35.944 34.3128 35.8752 33.9082C35.8081 33.5037 35.6674 33.1615 35.1957 33.1615C34.724 33.1615 34.5577 33.8939 34.4234 34.4327C34.2875 34.9716 27.9875 50.8062 27.7173 51.2763C27.4486 51.748 27.3399 52.2181 26.3965 52.2853C25.5219 52.3476 25.1173 52.0167 24.7815 51.0061C24.5529 50.3185 20.5602 38.7563 20.4259 38.3518C20.2916 37.9473 20.0166 36.7336 19.4793 36.7336C18.9421 36.7336 18.4704 37.5955 18.2002 38.1327C17.9299 38.6716 10.362 52.5923 10.0758 52.9137C9.5369 53.5181 8.78218 53.0928 8.49756 52.9137C7.95871 52.5779 8.09462 51.6345 8.29609 51.1628C8.45119 50.803 17.3671 35.3761 17.6997 34.8996C18.1698 34.2264 18.7086 33.5549 19.5833 33.5549C20.7281 33.5549 21.2238 34.4967 21.4924 34.8996C21.7611 35.3041 25.4227 45.8046 25.557 46.142C25.6914 46.4778 25.8385 47.3556 26.3134 47.354C26.5996 47.354 26.7851 46.9495 26.9865 46.4106C27.188 45.8734 34.1228 28.2351 34.2571 27.8993L34.2603 27.9057Z" fill="#605D5E"/>
<path id="Vector_10" d="M34.2801 27.9457C34.4144 27.6099 35.0204 26.1948 36.0293 26.1948C37.0383 26.1948 37.2414 27.1366 37.4428 27.9441C37.6459 28.7516 39.101 35.9678 39.1921 36.2908C39.3264 36.7609 39.3264 37.4357 39.7981 37.4357C40.5384 37.4357 47.3725 13.9947 47.4716 13.6733C47.7402 12.7986 48.4134 12.6643 49.0194 12.6643C49.6254 12.6643 50.4489 12.7986 50.1115 14.0762C49.7757 15.3554 41.3811 41.8232 41.1876 42.522C40.8502 43.734 40.2458 44.0042 39.707 43.9371C39.0178 43.8507 38.3606 44.2057 38.0249 42.522C37.6555 40.68 35.9622 34.316 35.8934 33.9131C35.8263 33.5086 35.6856 33.176 35.2155 33.176C34.7454 33.176 34.5631 33.9371 34.4288 34.4743C34.2928 35.0132 27.9961 50.7919 27.7258 51.262C27.4572 51.7337 27.3517 52.2038 26.4099 52.271C25.5352 52.3333 25.1307 52.0023 24.7949 50.9918C24.5663 50.3042 20.5768 38.7516 20.4425 38.3487C20.3082 37.9441 20.0332 36.7593 19.4943 36.7593C18.9555 36.7593 18.4758 37.6387 18.2055 38.176C17.9353 38.7148 10.3674 52.6355 10.0811 52.9569C9.54228 53.5613 8.80195 53.136 8.51734 52.9569C7.97848 52.6211 8.11439 51.6777 8.31587 51.206C8.47097 50.8463 17.3869 35.4193 17.7194 34.9429C18.1895 34.2697 18.7284 33.5981 19.603 33.5981C20.7479 33.5981 21.2436 34.5399 21.5122 34.9429C21.7808 35.3474 25.4425 45.8479 25.5768 46.1853C25.7111 46.521 25.8582 47.3989 26.3331 47.3973C26.6194 47.3973 26.8048 46.9927 27.0063 46.4539C27.2078 45.9166 34.1425 28.2783 34.2769 27.9425L34.2801 27.9457Z" fill="#696667"/>
<path id="Vector_11" d="M34.3031 27.9877C34.4374 27.6519 35.0434 26.2368 36.0524 26.2368C37.0613 26.2368 37.2644 27.1786 37.4659 27.9861C37.669 28.7936 39.124 36.0098 39.2152 36.3328C39.3495 36.8029 39.3495 37.4776 39.8212 37.4776C40.5615 37.4776 47.3955 14.0366 47.4947 13.7153C47.7633 12.8406 48.4365 12.7063 49.0425 12.7063C49.6485 12.7063 50.4576 12.8406 50.1202 14.1198C49.7844 15.399 41.401 41.8045 41.2075 42.5016C40.8701 43.7137 40.2657 43.9839 39.7268 43.9167C39.0377 43.8304 38.3805 44.1854 38.0447 42.5016C37.6753 40.6596 35.9836 34.3229 35.9149 33.9183C35.8477 33.5138 35.7086 33.1892 35.2369 33.1892C34.7652 33.1892 34.5701 33.9775 34.4374 34.5163C34.3015 35.0552 28.0079 50.7779 27.7393 51.2496C27.4707 51.7213 27.3699 52.1914 26.4265 52.2586C25.5519 52.3209 25.1474 51.99 24.8116 50.9794C24.5829 50.2918 20.5967 38.7488 20.4624 38.3459C20.3281 37.9413 20.0514 36.7837 19.5142 36.7837C18.9769 36.7837 18.486 37.6807 18.2158 38.218C17.9456 38.7568 10.3776 52.6775 10.0914 52.9989C9.55255 53.6033 8.82821 53.178 8.54199 52.9989C8.00314 52.6631 8.13905 51.7197 8.34052 51.248C8.49562 50.8883 17.4115 35.4613 17.7441 34.9848C18.2142 34.3117 18.7531 33.6401 19.6277 33.6401C20.7726 33.6401 21.2683 34.5819 21.5369 34.9848C21.8055 35.3894 25.4672 45.8899 25.6015 46.2272C25.7358 46.563 25.8829 47.4409 26.3578 47.4393C26.644 47.4393 26.8295 47.0347 27.031 46.4959C27.2324 45.9586 34.1656 28.3203 34.3015 27.9845L34.3031 27.9877Z" fill="#726F70"/>
<path id="Vector_12" d="M34.324 28.0275C34.4583 27.6917 35.0643 26.2766 36.0732 26.2766C37.0822 26.2766 37.2853 27.2184 37.4867 28.0259C37.6898 28.8334 39.1449 36.0496 39.236 36.3726C39.3703 36.8427 39.3703 37.5174 39.842 37.5174C40.5824 37.5174 47.4164 14.0764 47.5155 13.755C47.7842 12.8804 48.4573 12.7461 49.0633 12.7461C49.6693 12.7461 50.464 12.8804 50.1267 14.1596C49.7909 15.4388 41.4202 41.7819 41.2267 42.4791C40.8894 43.6911 40.285 43.9613 39.7461 43.8942C39.0569 43.8078 38.3998 44.1628 38.064 42.4791C37.6946 40.6386 36.0045 34.3259 35.9373 33.9213C35.8702 33.5168 35.7311 33.2018 35.2594 33.2018C34.7877 33.2018 34.5782 34.0173 34.4455 34.5561C34.3096 35.095 28.0208 50.7618 27.7506 51.2335C27.4819 51.7052 27.3844 52.1753 26.441 52.2424C25.5664 52.3048 25.1618 51.9738 24.826 50.9632C24.5974 50.2757 20.6143 38.7439 20.48 38.3393C20.3457 37.9348 20.0691 36.8059 19.5318 36.8059C18.9946 36.8059 18.4941 37.7205 18.2239 38.2578C17.9536 38.7966 10.3857 52.7173 10.0995 53.0387C9.56062 53.6431 8.85067 53.2178 8.56446 53.0387C8.0256 52.7029 8.16151 51.7595 8.36298 51.2878C8.51809 50.9281 17.434 35.5011 17.7666 35.0246C18.2367 34.3515 18.7771 33.6799 19.6518 33.6799C20.7966 33.6799 21.2923 34.6217 21.5609 35.0246C21.8296 35.4292 25.4912 45.9297 25.6255 46.267C25.7598 46.6028 25.907 47.4791 26.3819 47.4791C26.6681 47.4791 26.8535 47.0745 27.055 46.5357C27.2565 45.9984 34.1897 28.3601 34.3256 28.0243L34.324 28.0275Z" fill="#7A7879"/>
<path id="Vector_13" d="M34.3462 28.0676C34.4805 27.7318 35.0865 26.3167 36.0955 26.3167C37.1044 26.3167 37.3075 27.2585 37.509 28.066C37.7121 28.8734 39.1671 36.0896 39.2583 36.4126C39.3926 36.8827 39.3926 37.5575 39.8643 37.5575C40.6046 37.5575 47.4386 14.1165 47.5378 13.7951C47.8064 12.9204 48.4796 12.7861 49.0856 12.7861C49.6916 12.7861 50.4719 12.9204 50.1345 14.1996C49.7987 15.4788 41.4393 41.7596 41.2458 42.4567C40.9084 43.6688 40.304 43.939 39.7651 43.8718C39.076 43.7855 38.4188 44.1405 38.083 42.4567C37.7137 40.6163 36.0251 34.3291 35.958 33.9246C35.8908 33.5201 35.7517 33.2131 35.2816 33.2131C34.8115 33.2131 34.5877 34.0573 34.4533 34.5946C34.3174 35.1334 28.0319 50.7458 27.7616 51.2159C27.493 51.6876 27.3987 52.1577 26.4553 52.2249C25.5806 52.2873 25.1761 51.9563 24.8403 50.9457C24.6116 50.2582 20.6318 38.7359 20.4959 38.3314C20.3616 37.9268 20.0849 36.8267 19.5461 36.8267C19.0072 36.8267 18.4988 37.7574 18.2285 38.2962C17.9583 38.8351 10.3903 52.7558 10.1041 53.0771C9.56527 53.6832 8.86972 53.2562 8.5835 53.0771C8.04464 52.7414 8.18056 51.798 8.38203 51.3263C8.53713 50.9665 17.453 35.5396 17.7856 35.0631C18.2557 34.3899 18.7962 33.7183 19.6708 33.7183C20.8157 33.7183 21.3114 34.6601 21.58 35.0631C21.8486 35.4676 25.5103 45.9681 25.6446 46.3055C25.7789 46.6413 25.926 47.5175 26.4009 47.5175C26.6871 47.5175 26.8726 47.113 27.0741 46.5741C27.2755 46.0369 34.2087 28.3985 34.3446 28.0628L34.3462 28.0676Z" fill="#838182"/>
<path id="Vector_14" d="M34.3679 28.1076C34.5022 27.7718 35.1082 26.3567 36.1172 26.3567C37.1261 26.3567 37.3292 27.2985 37.5307 28.106C37.7338 28.9135 39.1888 36.1297 39.28 36.4527C39.4143 36.9228 39.4143 37.5975 39.886 37.5975C40.6263 37.5975 47.4603 14.1565 47.5595 13.8351C47.8281 12.9605 48.5013 12.8262 49.1073 12.8262C49.7133 12.8262 50.4776 12.9605 50.1402 14.2397C49.8044 15.5188 41.4578 41.7357 41.2643 42.4344C40.9269 43.6465 40.3225 43.9167 39.7836 43.8495C39.0945 43.7632 38.4373 44.1181 38.1015 42.4344C37.7322 40.594 36.0468 34.3324 35.9781 33.9295C35.9109 33.5249 35.7734 33.2275 35.3017 33.2275C34.83 33.2275 34.5934 34.099 34.4591 34.6378C34.3231 35.1767 28.0408 50.7331 27.7721 51.2032C27.5035 51.6749 27.4124 52.145 26.4706 52.2122C25.5959 52.2745 25.1914 51.9435 24.8556 50.933C24.6269 50.2454 20.6487 38.7328 20.5144 38.3282C20.3801 37.9237 20.1018 36.8524 19.5646 36.8524C19.0273 36.8524 18.5061 37.8006 18.2374 38.3394C17.9672 38.8783 10.3993 52.799 10.113 53.1204C9.57418 53.7264 8.89302 53.2995 8.6084 53.1204C8.06955 52.7846 8.20546 51.8412 8.40693 51.3695C8.56203 51.0097 17.4779 35.5828 17.8105 35.1063C18.2806 34.4331 18.8211 33.7616 19.6957 33.7616C20.8406 33.7616 21.3363 34.7034 21.6049 35.1063C21.8735 35.5109 25.5352 46.0129 25.6695 46.3487C25.8038 46.6845 25.9509 47.5607 26.4258 47.5607C26.712 47.5607 26.8975 47.1562 27.099 46.6173C27.3004 46.0801 34.2336 28.4418 34.3695 28.106L34.3679 28.1076Z" fill="#8C8A8B"/>
<path id="Vector_15" d="M34.3893 28.1491C34.5236 27.8133 35.1296 26.3982 36.1386 26.3982C37.1475 26.3982 37.3506 27.34 37.5521 28.1475C37.7551 28.955 39.2102 36.1712 39.3013 36.4942C39.4357 36.9643 39.4357 37.639 39.9074 37.639C40.6477 37.639 47.4817 14.198 47.5809 13.8766C47.8495 13.002 48.5226 12.8677 49.1287 12.8677C49.7347 12.8677 50.4846 13.002 50.1472 14.2812C49.8114 15.5604 41.476 41.7148 41.2825 42.4136C40.9451 43.6256 40.3407 43.8958 39.8018 43.8287C39.1127 43.7423 38.4555 44.0973 38.1197 42.4136C37.7503 40.5731 36.0666 34.3387 35.9979 33.9342C35.9307 33.5297 35.7932 33.2402 35.3215 33.2402C34.8498 33.2402 34.5988 34.1389 34.4644 34.6777C34.3285 35.2166 28.0509 50.7171 27.7807 51.1872C27.5121 51.6589 27.4257 52.129 26.4824 52.1961C25.6077 52.2585 25.2032 51.9275 24.8674 50.9169C24.6387 50.2294 20.6637 38.7263 20.5294 38.3234C20.395 37.9188 20.1168 36.8747 19.5796 36.8747C19.0423 36.8747 18.5115 37.8405 18.2428 38.3777C17.9726 38.9166 10.4046 52.8373 10.1184 53.1587C9.57957 53.7647 8.91439 53.3378 8.62818 53.1587C8.08932 52.8229 8.22523 51.8795 8.42671 51.4078C8.58181 51.048 17.4977 35.6211 17.8303 35.1446C18.3004 34.4714 18.8408 33.7999 19.7155 33.7999C20.8604 33.7999 21.356 34.7417 21.6247 35.1446C21.8933 35.5492 25.5549 46.0512 25.6893 46.387C25.8236 46.7228 25.9707 47.599 26.4456 47.599C26.7318 47.599 26.9173 47.1945 27.1187 46.6557C27.3202 46.1184 34.2534 28.4801 34.3893 28.1443V28.1491Z" fill="#959394"/>
<path id="Vector_16" d="M34.4099 28.1889C34.5442 27.8531 35.1503 26.438 36.1592 26.438C37.1682 26.438 37.3712 27.3798 37.5727 28.1873C37.7758 28.9948 39.2308 36.211 39.322 36.5339C39.4563 37.004 39.4563 37.6788 39.928 37.6788C40.6683 37.6788 47.5023 14.2378 47.6015 13.9164C47.8701 13.0418 48.5433 12.9075 49.1493 12.9075C49.7553 12.9075 50.4908 13.0418 50.1535 14.321C49.8177 15.6001 41.495 41.6922 41.3015 42.391C40.9641 43.603 40.3597 43.8717 39.8209 43.8061C39.1317 43.7197 38.4745 44.0747 38.1387 42.391C37.7694 40.5506 36.0873 34.3418 36.0185 33.9372C35.9513 33.5327 35.8138 33.2528 35.3421 33.2528C34.8704 33.2528 34.605 34.1803 34.4707 34.7175C34.3348 35.2564 28.0604 50.7009 27.7902 51.1726C27.5215 51.6443 27.4384 52.1144 26.495 52.1815C25.6204 52.2439 25.2158 51.9129 24.88 50.9024C24.6514 50.2148 20.6795 38.7213 20.5452 38.3184C20.4109 37.9139 20.1327 36.8985 19.5938 36.8985C19.055 36.8985 18.5161 37.8819 18.2475 38.4191C17.9772 38.958 10.4093 52.8787 10.1231 53.2001C9.58422 53.8061 8.93344 53.3792 8.64722 53.2001C8.10836 52.8643 8.24428 51.9209 8.44575 51.4492C8.60085 51.0894 17.5167 35.6625 17.8493 35.186C18.3194 34.5128 18.8599 33.8413 19.7345 33.8413C20.8794 33.8413 21.3751 34.7831 21.6437 35.186C21.9123 35.5906 25.574 46.0926 25.7083 46.4284C25.8426 46.7642 25.9897 47.6404 26.4646 47.6404C26.7508 47.6404 26.9363 47.2359 27.1378 46.697C27.3393 46.1598 34.2724 28.5215 34.4083 28.1857L34.4099 28.1889Z" fill="#9E9C9D"/>
<path id="Vector_17" d="M34.4319 28.2289C34.5662 27.8931 35.1722 26.4781 36.1812 26.4781C37.1901 26.4781 37.3932 27.4198 37.5947 28.2273C37.7977 29.0348 39.2528 36.251 39.3439 36.574C39.4783 37.0441 39.4783 37.7189 39.95 37.7189C40.6903 37.7189 47.5243 14.2779 47.6234 13.9565C47.8921 13.0818 48.5652 12.9475 49.1712 12.9475C49.7773 12.9475 50.4968 13.0818 50.161 14.361C49.8252 15.6402 41.5138 41.6699 41.3203 42.3687C40.9829 43.5807 40.3785 43.8493 39.8396 43.7838C39.1505 43.6958 38.4933 44.0524 38.1575 42.3687C37.7881 40.5283 36.1076 34.345 36.0389 33.9405C35.9717 33.5359 35.8342 33.2641 35.3641 33.2641C34.894 33.2641 34.6126 34.2187 34.4783 34.7576C34.3423 35.2964 28.0712 50.6866 27.8025 51.1567C27.5323 51.6284 27.4539 52.0984 26.5121 52.1656C25.6375 52.228 25.233 51.897 24.8972 50.8864C24.6685 50.1989 20.6999 38.7166 20.5656 38.3121C20.4312 37.9075 20.1514 36.921 19.6142 36.921C19.0769 36.921 18.5269 37.9219 18.2582 38.4592C17.988 38.998 10.42 52.9187 10.1338 53.2401C9.59498 53.8461 8.95858 53.4192 8.67237 53.2401C8.13351 52.9043 8.26942 51.9609 8.47089 51.4892C8.626 51.1295 17.5419 35.7025 17.8745 35.226C18.3446 34.5529 18.885 33.8813 19.7597 33.8813C20.9045 33.8813 21.4002 34.8231 21.6688 35.226C21.9391 35.6306 25.5991 46.1327 25.7334 46.4685C25.8678 46.8042 26.0149 47.6805 26.4898 47.6805C26.776 47.6805 26.9615 47.2759 27.1629 46.7371C27.3644 46.1998 34.2976 28.5615 34.4335 28.2257L34.4319 28.2289Z" fill="#A7A5A6"/>
<path id="Vector_18" d="M34.4522 28.2687C34.5865 27.9329 35.1925 26.5178 36.2015 26.5178C37.2104 26.5178 37.4135 27.4596 37.6149 28.2671C37.818 29.0746 39.2731 36.2908 39.3642 36.6138C39.4985 37.0839 39.4985 37.7587 39.9702 37.7587C40.7106 37.7587 47.5462 14.3177 47.6437 13.9963C47.914 13.1216 48.5855 12.9873 49.1931 12.9873C49.8008 12.9873 50.5043 13.1216 50.1669 14.4008C49.8311 15.68 41.5324 41.6474 41.3374 42.3445C41 43.5565 40.3956 43.8252 39.8567 43.7596C39.1676 43.6717 38.5104 44.0282 38.1746 42.3445C37.8052 40.5041 36.1263 34.3464 36.0575 33.9435C35.9904 33.539 35.8545 33.2767 35.3828 33.2767C34.9111 33.2767 34.6169 34.2585 34.4826 34.7973C34.3466 35.3362 28.0802 50.6704 27.81 51.1405C27.5398 51.6122 27.4662 52.0823 26.5228 52.1494C25.6482 52.2118 25.2437 51.8808 24.9079 50.8703C24.6792 50.1827 20.7122 38.71 20.5778 38.3055C20.4435 37.901 20.1637 36.9416 19.6249 36.9416C19.086 36.9416 18.528 37.9601 18.2593 38.4974C17.9891 39.0362 10.4211 52.9569 10.1349 53.2783C9.59608 53.8843 8.97407 53.4574 8.68946 53.2783C8.1506 52.9425 8.28651 51.9991 8.48798 51.5274C8.64309 51.1677 17.559 35.7407 17.8916 35.2642C18.3617 34.5911 18.9021 33.9195 19.7768 33.9195C20.9216 33.9195 21.4173 34.8613 21.6859 35.2642C21.9562 35.6688 25.6162 46.1709 25.7505 46.5067C25.8849 46.8424 26.032 47.7187 26.5069 47.7187C26.7931 47.7187 26.9786 47.3141 27.18 46.7753C27.3815 46.238 34.3147 28.5997 34.4506 28.2639L34.4522 28.2687Z" fill="#AFAEAF"/>
<path id="Vector_19" d="M34.4752 28.3088C34.6095 27.973 35.2156 26.5579 36.2245 26.5579C37.2335 26.5579 37.4365 27.4997 37.638 28.3072C37.8411 29.1147 39.2961 36.3308 39.3873 36.6538C39.5216 37.1239 39.5216 37.7987 39.9933 37.7987C40.7336 37.7987 47.5692 14.3577 47.6668 14.0363C47.937 13.1617 48.6086 13.0273 49.2162 13.0273C49.8238 13.0273 50.513 13.1617 50.1756 14.4408C49.8398 15.72 41.5523 41.625 41.3588 42.3222C41.0214 43.5342 40.417 43.8029 39.8782 43.7373C39.189 43.6493 38.5318 44.0059 38.196 42.3222C37.8267 40.4818 36.1494 34.3513 36.0822 33.9468C36.015 33.5422 35.8791 33.288 35.4074 33.288C34.9357 33.288 34.6271 34.2985 34.4928 34.8358C34.3585 35.3746 28.0937 50.6529 27.8235 51.123C27.5533 51.5947 27.4829 52.0648 26.5395 52.1319C25.6649 52.1943 25.2603 51.8633 24.9245 50.8527C24.6959 50.1652 20.732 38.7021 20.5977 38.2992C20.4634 37.8946 20.182 36.964 19.6447 36.964C19.1075 36.964 18.5382 37.9986 18.2696 38.5374C17.9994 39.0763 10.4314 52.997 10.1452 53.3184C9.60634 53.9244 9.00033 53.4974 8.71411 53.3184C8.17526 52.9826 8.31117 52.0392 8.51264 51.5675C8.66774 51.2077 17.5836 35.7808 17.9162 35.3043C18.3863 34.6311 18.9268 33.9596 19.8014 33.9596C20.9463 33.9596 21.442 34.9013 21.7106 35.3043C21.9808 35.7088 25.6409 46.2109 25.7752 46.5467C25.9095 46.8825 26.0566 47.7587 26.5315 47.7587C26.8177 47.7587 27.0032 47.3542 27.2047 46.8153C27.4062 46.2781 34.3393 28.6398 34.4752 28.304V28.3088Z" fill="#B8B7B8"/>
<path id="Vector_20" d="M34.4958 28.3508C34.6302 28.015 35.2362 26.5999 36.2451 26.5999C37.2541 26.5999 37.4571 27.5417 37.6586 28.3492C37.8617 29.1566 39.3168 36.3728 39.4079 36.6958C39.5422 37.1659 39.5422 37.8407 40.0139 37.8407C40.7542 37.8407 47.5899 14.3997 47.6874 14.0783C47.9576 13.2036 48.6292 13.0693 49.2368 13.0693C49.8444 13.0693 50.5192 13.2036 50.1818 14.4828C49.846 15.762 41.5713 41.6047 41.3762 42.3018C41.0389 43.5139 40.4344 43.7825 39.8956 43.7169C39.2064 43.629 38.5493 43.9855 38.2135 42.3018C37.8441 40.4614 36.17 34.3565 36.1012 33.952C36.0341 33.5474 35.8981 33.3028 35.428 33.3028C34.958 33.3028 34.6334 34.3405 34.499 34.8794C34.3647 35.4182 28.1031 50.6405 27.8345 51.1122C27.5643 51.5839 27.4971 52.054 26.5553 52.1211C25.6807 52.1835 25.2761 51.8525 24.9404 50.842C24.7117 50.1544 20.751 38.7009 20.6167 38.298C20.4824 37.8934 20.201 36.9916 19.6637 36.9916C19.1265 36.9916 18.5477 38.0438 18.2774 38.5826C18.0072 39.1215 10.4392 53.0422 10.153 53.3635C9.61417 53.9696 9.02255 53.5426 8.73633 53.3635C8.19748 53.0278 8.33339 52.0844 8.53486 51.6127C8.68996 51.2529 17.6059 35.826 17.9384 35.3495C18.4085 34.6763 18.949 34.0047 19.8236 34.0047C20.9685 34.0047 21.4642 34.9465 21.7328 35.3495C22.003 35.754 25.6631 46.2561 25.7974 46.5919C25.9317 46.9277 26.0788 47.8039 26.5537 47.8039C26.8399 47.8039 27.0254 47.3994 27.2269 46.8605C27.4284 46.3233 34.3615 28.6849 34.4974 28.3492L34.4958 28.3508Z" fill="#C1C0C1"/>
<path id="Vector_21" d="M34.5188 28.3905C34.6532 28.0532 35.2592 26.6397 36.2681 26.6397C37.2771 26.6397 37.4801 27.5815 37.6816 28.389C37.8847 29.1964 39.3398 36.4126 39.4309 36.7356C39.5652 37.2057 39.5652 37.8805 40.0369 37.8805C40.7772 37.8805 47.6129 14.4395 47.7104 14.1181C47.9806 13.2434 48.6522 13.1091 49.2598 13.1091C49.8674 13.1091 50.5262 13.2434 50.1904 14.5226C49.8546 15.8018 41.5911 41.5821 41.3976 42.2793C41.0603 43.4913 40.4558 43.7599 39.917 43.6944C39.2278 43.6064 38.5706 43.963 38.2349 42.2793C37.8655 40.4388 36.193 34.3595 36.1242 33.9566C36.0571 33.552 35.9227 33.3154 35.451 33.3154C34.9793 33.3154 34.642 34.3803 34.5076 34.9192C34.3733 35.458 28.1165 50.6243 27.8463 51.096C27.5761 51.5677 27.5121 52.0378 26.5703 52.105C25.6957 52.1673 25.2911 51.8363 24.9554 50.8258C24.7267 50.1382 20.7692 38.6944 20.6349 38.2914C20.5006 37.8869 20.2192 37.0138 19.6803 37.0138C19.1415 37.0138 18.5547 38.0835 18.2844 38.6208C18.0142 39.1597 10.4463 53.0803 10.16 53.4017C9.62118 54.0078 9.04395 53.5808 8.75773 53.4017C8.22048 53.066 8.35479 52.1226 8.55626 51.6509C8.71136 51.2911 17.6273 35.8642 17.9598 35.3877C18.4299 34.7145 18.9704 34.0429 19.845 34.0429C20.9899 34.0429 21.4856 34.9847 21.7542 35.3877C22.0244 35.7922 25.6845 46.2943 25.8188 46.6301C25.9531 46.9675 26.1002 47.8421 26.5751 47.8421C26.8613 47.8421 27.0468 47.4376 27.2483 46.8987C27.4498 46.3614 34.3829 28.7231 34.5188 28.3874V28.3905Z" fill="#CAC9C9"/>
<path id="Vector_22" d="M34.5402 28.4306C34.6745 28.0932 35.2805 26.6797 36.2895 26.6797C37.2985 26.6797 37.5015 27.6215 37.703 28.429C37.9061 29.2365 39.3611 36.4527 39.4523 36.7756C39.5866 37.2457 39.5866 37.9205 40.0583 37.9205C40.7986 37.9205 47.6342 14.4795 47.7318 14.1581C48.002 13.2835 48.6736 13.1492 49.2812 13.1492C49.8888 13.1492 50.5332 13.2835 50.1958 14.5627C49.8584 15.8418 41.6077 41.5582 41.4142 42.2569C41.0768 43.4706 40.4724 43.7376 39.9336 43.672C39.2444 43.5841 38.5872 43.9407 38.2514 42.2569C37.8821 40.4165 36.2111 34.3628 36.1424 33.9599C36.0752 33.5553 35.9409 33.3283 35.4692 33.3283C34.9975 33.3283 34.6457 34.422 34.513 34.9592C34.3787 35.4981 28.1251 50.61 27.8549 51.0801C27.5847 51.5518 27.5255 52.0219 26.5821 52.089C25.7075 52.1514 25.3029 51.8204 24.9671 50.8099C24.7385 50.1223 20.7842 38.6896 20.6499 38.2851C20.5156 37.8805 20.2326 37.0347 19.6953 37.0347C19.1581 37.0347 18.56 38.122 18.2898 38.6592C18.0196 39.1981 10.4516 53.1188 10.1654 53.4402C9.62656 54.0462 9.06372 53.6193 8.77751 53.4402C8.24025 53.1044 8.37457 52.161 8.57604 51.6893C8.73114 51.3295 17.647 35.9026 17.9796 35.4261C18.4497 34.7529 18.9902 34.0814 19.8648 34.0814C21.0097 34.0814 21.5054 35.0232 21.774 35.4261C22.0442 35.8307 25.7043 46.3327 25.8386 46.6685C25.9729 47.0059 26.12 47.8805 26.5949 47.8805C26.8811 47.8805 27.0666 47.476 27.2681 46.9371C27.4695 46.3999 34.4027 28.7616 34.5386 28.4258L34.5402 28.4306Z" fill="#D3D2D2"/>
<path id="Vector_23" d="M34.5633 28.4706C34.6976 28.1332 35.3036 26.7197 36.3126 26.7197C37.3215 26.7197 37.5246 27.6615 37.7261 28.469C37.9291 29.2765 39.3842 36.4927 39.4753 36.8157C39.6096 37.2858 39.6097 37.9606 40.0813 37.9606C40.8217 37.9606 47.6573 14.5196 47.7548 14.1982C48.0251 13.3235 48.6966 13.1892 49.3042 13.1892C49.9119 13.1892 50.5419 13.3235 50.2045 14.6027C49.8671 15.8819 41.6292 41.5359 41.4357 42.2346C41.0983 43.4482 40.4939 43.7153 39.955 43.6497C39.2659 43.5618 38.6087 43.9183 38.2729 42.2346C37.9035 40.3942 36.2342 34.3677 36.1655 33.9631C36.0983 33.5586 35.964 33.3395 35.4939 33.3395C35.0238 33.3395 34.656 34.4604 34.5233 34.9976C34.389 35.5365 28.1386 50.5925 27.87 51.0626C27.5997 51.5343 27.5438 52.0044 26.602 52.0715C25.7273 52.1339 25.3228 51.8029 24.9854 50.7923C24.7568 50.1048 20.8041 38.6817 20.6698 38.2772C20.5355 37.8726 20.2524 37.0555 19.7136 37.0555C19.1747 37.0555 18.5687 38.1604 18.2985 38.6977C18.0283 39.2365 10.4603 53.1572 10.1741 53.4786C9.63523 54.0846 9.08678 53.6577 8.80217 53.4786C8.26491 53.1428 8.39922 52.1994 8.60069 51.7277C8.7558 51.368 17.6717 35.941 18.0043 35.4645C18.4744 34.7914 19.0148 34.1198 19.8895 34.1198C21.0343 34.1198 21.53 35.0616 21.7986 35.4645C22.0689 35.8691 25.7289 46.3712 25.8632 46.707C25.9976 47.0443 26.1447 47.9206 26.6196 47.919C26.9058 47.919 27.0913 47.5144 27.2927 46.9772C27.4942 46.4399 34.4274 28.8016 34.5633 28.4658V28.4706Z" fill="#DCDBDB"/>
<path id="Vector_24" d="M34.582 28.5107C34.7163 28.1733 35.3223 26.7598 36.3312 26.7598C37.3402 26.7598 37.5433 27.7016 37.7447 28.5091C37.9478 29.3166 39.4029 36.5327 39.494 36.8557C39.6283 37.3258 39.6283 38.0006 40.1 38.0006C40.8404 38.0006 47.676 14.5596 47.7735 14.2382C48.0438 13.3636 48.7153 13.2292 49.3229 13.2292C49.9305 13.2292 50.5446 13.3636 50.2088 14.6427C49.8714 15.9219 41.6446 41.5135 41.4512 42.2123C41.1138 43.4259 40.5094 43.693 39.9705 43.6274C39.2814 43.5394 38.6242 43.896 38.2884 42.2123C37.919 40.3719 36.2513 34.3709 36.1825 33.9664C36.1154 33.5618 35.9811 33.3524 35.511 33.3524C35.0409 33.3524 34.6603 34.5004 34.526 35.0393C34.3917 35.5781 28.1461 50.5781 27.8759 51.0498C27.6056 51.5215 27.5529 51.9916 26.6111 52.0588C25.7364 52.1212 25.3319 51.7902 24.9945 50.7796C24.7659 50.0921 20.8164 38.6786 20.6821 38.2756C20.5478 37.8711 20.2631 37.0828 19.7259 37.0828C19.1886 37.0828 18.5714 38.2053 18.3012 38.7425C18.031 39.2814 10.463 53.2021 10.1768 53.5235C9.63793 54.1295 9.10547 53.7025 8.81926 53.5235C8.282 53.1877 8.41631 52.2443 8.61778 51.7742C8.77289 51.4144 17.6888 35.9875 18.0214 35.511C18.4915 34.8378 19.0319 34.1662 19.9066 34.1662C21.0514 34.1662 21.5471 35.108 21.8157 35.511C22.086 35.9155 25.746 46.4176 25.8803 46.7534C26.0147 47.0908 26.1618 47.967 26.6367 47.9654C26.9229 47.9654 27.1084 47.5609 27.3098 47.0236C27.5113 46.4864 34.4445 28.8481 34.5804 28.5123L34.582 28.5107Z" fill="#E4E4E4"/>
<path id="Vector_25" d="M34.6042 28.5519C34.7385 28.2145 35.3445 26.801 36.3535 26.801C37.3624 26.801 37.5655 27.7428 37.767 28.5503C37.97 29.3578 39.4251 36.574 39.5162 36.897C39.6506 37.3671 39.6506 38.0419 40.1223 38.0419C40.8626 38.0419 47.6982 14.6009 47.7957 14.2795C48.066 13.4048 48.7375 13.2705 49.3451 13.2705C49.9528 13.2705 50.5524 13.4048 50.2166 14.684C49.8792 15.9632 41.6653 41.4924 41.4718 42.1912C41.1344 43.4048 40.53 43.6718 39.9911 43.6063C39.302 43.5183 38.6448 43.8749 38.309 42.1912C37.9397 40.3508 36.2735 34.3754 36.2048 33.9725C36.1376 33.5679 36.0049 33.3664 35.5332 33.3664C35.0615 33.3664 34.6681 34.5433 34.5338 35.0805C34.3995 35.6194 28.1571 50.5634 27.8869 51.0351C27.6167 51.5068 27.5687 51.9769 26.6253 52.0441C25.7507 52.1064 25.3461 51.7755 25.0087 50.7649C24.7801 50.0773 20.8338 38.6734 20.6995 38.2705C20.5652 37.866 20.2806 37.1049 19.7433 37.1049C19.206 37.1049 18.5792 38.2433 18.309 38.7822C18.0388 39.321 10.4708 53.2417 10.1846 53.5631C9.64576 54.1691 9.12769 53.7422 8.84147 53.5631C8.30422 53.2273 8.43853 52.2839 8.64 51.8138C8.7951 51.4541 17.711 36.0271 18.0436 35.5506C18.5137 34.8775 19.0541 34.2059 19.9288 34.2059C21.0736 34.2059 21.5693 35.1477 21.838 35.5506C22.1082 35.9552 25.7682 46.4573 25.9026 46.793C26.0369 47.1304 26.184 48.0067 26.6589 48.0051C26.9451 48.0051 27.1306 47.6005 27.332 47.0633C27.5335 46.526 34.4667 28.8877 34.6026 28.5519H34.6042Z" fill="#EDEDED"/>
<path id="Vector_26" d="M34.6272 28.5917C34.7616 28.2543 35.3676 26.8408 36.3765 26.8408C37.3855 26.8408 37.5885 27.7826 37.79 28.5901C37.9931 29.3976 39.4482 36.6138 39.5393 36.9368C39.6736 37.4069 39.6736 38.0817 40.1453 38.0817C40.8856 38.0817 47.7213 14.6407 47.8188 14.3193C48.089 13.4446 48.7606 13.3103 49.3682 13.3103C49.9758 13.3103 50.561 13.4446 50.2237 14.7238C49.8863 16.003 41.6835 41.4699 41.4901 42.167C41.1527 43.3807 40.5483 43.6477 40.0094 43.5821C39.3202 43.4942 38.6631 43.8508 38.3273 42.167C37.9579 40.3266 36.295 34.3768 36.2262 33.9739C36.1591 33.5693 36.0263 33.3775 35.5562 33.3775C35.0861 33.3775 34.6768 34.5815 34.5425 35.1187C34.4082 35.6576 28.169 50.5473 27.9003 51.0174C27.6301 51.4891 27.5853 51.9592 26.6436 52.0263C25.7689 52.0887 25.3644 51.7577 25.027 50.7471C24.7983 50.0596 20.8553 38.6669 20.7209 38.2623C20.5866 37.8578 20.302 37.1255 19.7632 37.1255C19.2243 37.1255 18.5895 38.2815 18.3193 38.8204C18.0491 39.3592 10.4811 53.2799 10.1949 53.6013C9.65603 54.2073 9.15235 53.7804 8.86613 53.6013C8.32887 53.2655 8.46319 52.3221 8.66466 51.852C8.81976 51.4923 17.7357 36.0653 18.0682 35.5888C18.5383 34.9157 19.0788 34.2441 19.9534 34.2441C21.0983 34.2441 21.594 35.1859 21.8626 35.5888C22.1328 35.9934 25.7929 46.4955 25.9272 46.8313C26.0615 47.1686 26.2086 48.0449 26.6835 48.0433C26.9697 48.0433 27.1552 47.6387 27.3567 47.1015C27.5582 46.5642 34.4913 28.9259 34.6256 28.5901L34.6272 28.5917Z" fill="#F6F6F6"/>
<path id="Vector_27" d="M8.68579 51.8939C8.84089 51.5341 17.7568 36.1072 18.0894 35.6307C18.5595 34.9576 19.0999 34.286 19.9746 34.286C21.1194 34.286 21.6151 35.2278 21.8837 35.6307C22.154 36.0353 25.814 46.5373 25.9483 46.8731C26.0827 47.2105 26.2298 48.0867 26.7047 48.0851C26.9909 48.0851 27.1764 47.6806 27.3778 47.1433C27.5793 46.6061 34.5125 28.9678 34.6468 28.632C34.7811 28.2946 35.3871 26.8811 36.3961 26.8811C37.405 26.8811 37.6081 27.8229 37.8096 28.6304C38.0126 29.4379 39.4677 36.6541 39.5588 36.9771C39.6931 37.4472 39.6931 38.1219 40.1648 38.1219C40.9052 38.1219 47.7408 14.6809 47.8383 14.3595C48.1086 13.4849 48.7801 13.3506 49.3877 13.3506C49.9954 13.3506 50.5662 13.4849 50.2288 14.7641C49.8914 16.0433 41.7015 41.4478 41.508 42.1449C41.1706 43.3586 40.5662 43.6256 40.0273 43.56C39.3382 43.4721 38.681 43.8287 38.3436 42.1449C37.9743 40.3045 36.3129 34.3819 36.2442 33.9774C36.177 33.5728 36.0443 33.389 35.5742 33.389C35.1041 33.389 34.6804 34.6202 34.546 35.159C34.4117 35.6979 28.1773 50.5316 27.9071 51.0017C27.6369 51.4734 27.5953 51.9435 26.6535 52.0106C25.7789 52.073 25.3727 51.742 25.0369 50.7315C24.8083 50.0439 20.8668 38.6608 20.7341 38.2562C20.5998 37.8517 20.3135 37.1481 19.7763 37.1481C19.239 37.1481 18.5931 38.3218 18.3228 38.8591C18.0526 39.3979 10.4846 53.3186 10.1984 53.64C9.65957 54.246 9.17028 53.8191 8.88566 53.64C8.34841 53.3042 8.48272 52.3608 8.68419 51.8907L8.68579 51.8939Z" fill="white"/>
</g>
</g>
<g id="Group_3">
<path id="Vector_28" d="M69.499 49.7786H180.001" stroke="#B82756" stroke-width="0.639591"/>
<g id="Group_4">
<path id="Vector_29" d="M78.3666 15.0311C80.7842 15.0311 82.703 15.6931 84.1229 16.9963C85.6179 18.373 86.3678 20.1431 86.3678 22.3161C86.3678 23.6464 86.0065 24.8904 85.2853 26.0449C83.8862 28.2947 81.5853 29.4251 78.3874 29.4251C75.9873 29.4251 74.0829 28.7679 72.6694 27.46C71.9067 26.7612 71.3295 25.9202 70.9377 24.94C70.5923 24.0797 70.4229 23.1747 70.4229 22.2249C70.4229 20.8322 70.7762 19.5578 71.4846 18.4018C72.8485 16.1984 75.1398 15.0711 78.3682 15.0295L78.3666 15.0311ZM78.381 17.3864C77.0634 17.3864 75.9633 17.7782 75.0887 18.5665C74.0509 19.4987 73.5297 20.7235 73.5297 22.2329C73.5297 23.7424 74.0509 24.964 75.0887 25.8946C75.9617 26.6829 77.0666 27.0794 78.3969 27.0794C79.7273 27.0794 80.8274 26.6813 81.6972 25.8946C82.2153 25.4261 82.6166 24.8505 82.8901 24.1677C83.1363 23.5681 83.2578 22.9413 83.2578 22.2921C83.2578 20.7155 82.7366 19.4747 81.6988 18.5665C80.8146 17.7942 79.7081 17.3992 78.3826 17.3864H78.381Z" fill="#B82756"/>
<path id="Vector_30" d="M89.9057 25.2662V28.3011C89.9057 28.477 89.9456 28.6129 90.0224 28.7072C90.1023 28.7968 90.2446 28.8767 90.4493 28.9423V29.1757H87.0867V28.9423C87.2833 28.8895 87.4257 28.8128 87.5056 28.7184C87.5855 28.6209 87.6335 28.485 87.6335 28.3107V20.5397C87.6335 20.3686 87.5903 20.2375 87.5104 20.1431C87.4336 20.0536 87.2913 19.9768 87.0867 19.9177V19.6826H93.2651C94.4931 19.6826 95.4173 19.8665 96.0409 20.2327C96.3991 20.4453 96.6821 20.7475 96.8836 21.1441C97.0899 21.539 97.1922 21.9835 97.1922 22.4728C97.1922 23.4146 96.8676 24.1134 96.228 24.5787C95.5852 25.0344 94.6003 25.2646 93.2747 25.2646H89.9057V25.2662ZM89.9057 23.5489H93.134C93.7256 23.5489 94.1398 23.493 94.37 23.3826C94.7042 23.2164 94.8769 22.9141 94.8769 22.4744C94.8769 22.0347 94.7058 21.7341 94.37 21.571C94.1446 21.4543 93.7288 21.3999 93.134 21.3999H89.9057V23.5489Z" fill="#B82756"/>
<path id="Vector_31" d="M106.822 25.7697L108.253 27.8548L108.056 27.9987C107.922 27.906 107.813 27.8548 107.738 27.8548C107.642 27.8548 107.42 27.9555 107.065 28.1698C106.294 28.6175 105.602 28.9357 105.01 29.1068C104.419 29.2843 103.729 29.3706 102.96 29.3706C101.408 29.3706 100.148 28.9997 99.1675 28.2625C98.6127 27.8388 98.1698 27.3079 97.842 26.6668C97.4918 25.9808 97.3159 25.2341 97.3159 24.425C97.3159 23.3137 97.6421 22.3319 98.2833 21.4797C99.2954 20.1461 100.85 19.481 102.943 19.481C103.72 19.481 104.406 19.5657 105.01 19.7448C105.61 19.9159 106.297 20.2309 107.065 20.6802C107.42 20.8881 107.642 20.9952 107.738 20.9952C107.815 20.9952 107.922 20.944 108.056 20.8497L108.253 20.9968L106.822 23.0739L106.628 22.9411C106.638 22.8724 106.643 22.8292 106.649 22.8132C106.652 22.7605 106.656 22.7285 106.656 22.7061C106.656 22.4295 106.273 22.1177 105.511 21.7675C104.786 21.4349 104.057 21.2686 103.32 21.2686C102.294 21.2686 101.44 21.5372 100.771 22.0793C100.009 22.6885 99.6232 23.4736 99.6232 24.4234C99.6232 25.3732 100.007 26.1679 100.771 26.7771C101.448 27.3127 102.297 27.5782 103.32 27.5782C104.12 27.5782 104.925 27.3767 105.72 26.977C106.342 26.662 106.656 26.3837 106.656 26.1503C106.656 26.1343 106.649 26.0559 106.627 25.912L106.82 25.7665L106.822 25.7697Z" fill="#B82756"/>
<path id="Vector_32" d="M111.579 20.5397V28.3011C111.579 28.4802 111.617 28.6129 111.698 28.7072C111.775 28.8016 111.919 28.8767 112.119 28.9423V29.1757H108.755V28.9423C108.955 28.8895 109.097 28.8128 109.177 28.7184C109.258 28.6209 109.3 28.485 109.3 28.3107V20.5397C109.3 20.3686 109.258 20.2375 109.178 20.1431C109.099 20.0536 108.959 19.9768 108.753 19.9177V19.6826H112.117V19.9177C111.918 19.972 111.772 20.0488 111.697 20.1383C111.615 20.2327 111.577 20.3686 111.577 20.5397H111.579Z" fill="#B82756"/>
<path id="Vector_33" d="M118.255 19.4827C119.766 19.4827 121.023 19.8664 122.029 20.6339C123.233 21.5597 123.837 22.8501 123.837 24.5035C123.837 26.0545 123.233 27.2953 122.029 28.2211C121.034 28.9886 119.781 29.3723 118.27 29.3723C116.759 29.3723 115.505 28.9886 114.515 28.2211C113.303 27.2953 112.699 26.0305 112.699 24.4267C112.699 22.8229 113.303 21.5405 114.515 20.6339C115.516 19.884 116.765 19.4987 118.255 19.4827ZM118.267 21.2719C117.283 21.2719 116.482 21.5869 115.87 22.2137C115.297 22.8021 115.013 23.5393 115.013 24.4267C115.013 25.3141 115.299 26.0465 115.87 26.6349C116.482 27.2649 117.288 27.5815 118.27 27.5815C119.252 27.5815 120.046 27.2649 120.659 26.6349C121.234 26.0465 121.521 25.3301 121.521 24.4699C121.521 23.5409 121.234 22.7846 120.659 22.2137C120.043 21.5965 119.24 21.2847 118.267 21.2719Z" fill="#B82756"/>
<path id="Vector_34" d="M127.027 22.9189V28.3011C127.027 28.4802 127.065 28.6129 127.15 28.7104C127.23 28.8048 127.372 28.8815 127.567 28.9423V29.1757H124.424V28.9423C124.623 28.8895 124.758 28.8128 124.846 28.7184C124.926 28.6209 124.967 28.485 124.967 28.3107V20.5397C124.967 20.3686 124.926 20.2375 124.846 20.1431C124.769 20.0536 124.627 19.9768 124.424 19.9177V19.6826H128.063V19.9177C127.815 19.9768 127.692 20.0872 127.692 20.2455C127.692 20.3814 127.78 20.5397 127.965 20.7236L133.068 25.7747V20.5397C133.068 20.3686 133.024 20.2327 132.948 20.1383C132.866 20.0488 132.727 19.972 132.527 19.9177V19.6826H135.671V19.9177C135.466 19.972 135.327 20.0488 135.245 20.1383C135.164 20.2327 135.127 20.3686 135.127 20.5397V28.3011C135.127 28.4802 135.164 28.6129 135.245 28.7072C135.327 28.8016 135.466 28.8767 135.671 28.9423V29.1757H132.275V28.9423C132.521 28.8895 132.646 28.7824 132.646 28.6257C132.646 28.5489 132.614 28.4674 132.543 28.3826C132.479 28.2963 132.319 28.1348 132.078 27.8886L127.027 22.9189Z" fill="#B82756"/>
<path id="Vector_35" d="M74.4324 40.455V45.4629C74.4324 45.6772 74.4835 45.8339 74.5827 45.9506C74.6802 46.061 74.8449 46.1457 75.0847 46.2049V46.5327H70.7451V46.2049C70.9866 46.1361 71.1593 46.0514 71.2536 45.9394C71.3463 45.8323 71.3927 45.6756 71.3927 45.4613V33.7089C71.3927 33.4994 71.3463 33.3427 71.2536 33.2324C71.1593 33.1252 70.9866 33.0357 70.7451 32.9669V32.6455H83.0301C83.2347 32.6455 83.3898 32.5976 83.4986 32.5032C83.6073 32.4105 83.6936 32.2442 83.7624 31.9932H84.087V35.5733H83.7624C83.6936 35.3254 83.6073 35.1559 83.4986 35.0616C83.3898 34.9673 83.2347 34.9241 83.0301 34.9241H74.4324V38.2484H80.056C80.2638 38.2484 80.4269 38.2036 80.5325 38.1045C80.6412 38.0069 80.7291 37.839 80.7979 37.596H81.1257V41.1057H80.7979C80.7307 40.8675 80.6428 40.6964 80.5325 40.5973C80.4269 40.5029 80.2638 40.4533 80.056 40.4533H74.4324V40.455Z" fill="#B82756"/>
<path id="Vector_36" d="M87.2454 37.8997V45.6595C87.2454 45.837 87.2838 45.9697 87.3638 46.064C87.4405 46.1584 87.5828 46.2351 87.7843 46.2975V46.5325H84.4216V46.2975C84.6183 46.2431 84.759 46.1744 84.839 46.0768C84.9205 45.9777 84.9621 45.8418 84.9621 45.6659V37.8997C84.9621 37.7254 84.9253 37.5927 84.8422 37.5031C84.7654 37.4136 84.6279 37.3368 84.4216 37.2745V37.041H87.7843V37.2745C87.5828 37.3304 87.4405 37.4056 87.3638 37.4999C87.2838 37.5911 87.2454 37.727 87.2454 37.9013V37.8997Z" fill="#B82756"/>
<path id="Vector_37" d="M91.1811 40.2757V45.6611C91.1811 45.8386 91.2259 45.9761 91.3043 46.0704C91.3858 46.168 91.5265 46.2399 91.7232 46.2991V46.5341H88.5764V46.2991C88.7731 46.2447 88.917 46.176 89.0001 46.0784C89.0801 45.9793 89.1201 45.8434 89.1201 45.6675V37.9013C89.1201 37.727 89.0849 37.5943 89.0001 37.5047C88.9234 37.4152 88.7811 37.3384 88.5764 37.2761V37.0426H92.2221V37.2761C91.971 37.3384 91.8479 37.4504 91.8479 37.6039C91.8479 37.743 91.9375 37.8981 92.1213 38.082L97.2237 43.1363V37.9013C97.2237 37.727 97.1837 37.5911 97.1038 37.4999C97.0254 37.4072 96.8799 37.3304 96.6768 37.2745V37.041H99.8268V37.2745C99.6237 37.3304 99.4814 37.4056 99.4015 37.4999C99.3247 37.5911 99.2816 37.727 99.2816 37.9013V45.6611C99.2816 45.8386 99.3247 45.9713 99.4015 46.0656C99.4814 46.16 99.6237 46.2367 99.8268 46.2991V46.5341H96.429V46.2991C96.6768 46.2447 96.8 46.1424 96.8 45.9889C96.8 45.9089 96.7712 45.8274 96.7008 45.741C96.6337 45.6611 96.4754 45.4948 96.2323 45.247L91.1811 40.2757Z" fill="#B82756"/>
<path id="Vector_38" d="M107.812 44.1645H103.444L102.951 45.1942C102.838 45.4452 102.776 45.6371 102.776 45.7778C102.776 46.0512 102.956 46.2207 103.319 46.2975V46.5325H99.8191V46.2975C100.037 46.2639 100.195 46.1952 100.297 46.1024C100.401 46.0049 100.526 45.8178 100.667 45.5364L104.138 38.5089C104.266 38.2466 104.327 38.0116 104.327 37.8149C104.327 37.5847 104.17 37.4008 103.853 37.2745V37.041H107.542V37.2745C107.229 37.3976 107.075 37.5895 107.075 37.8485C107.075 38.0372 107.146 38.2626 107.285 38.5361L110.878 45.3477C111.074 45.7139 111.231 45.9537 111.343 46.064C111.453 46.1744 111.628 46.2511 111.859 46.2975V46.5325H107.99V46.2975C108.359 46.2351 108.546 46.064 108.546 45.7826C108.546 45.6083 108.474 45.3909 108.334 45.135L107.809 44.1645H107.812ZM107.126 42.8245L105.575 39.7721L104.096 42.8245H107.126Z" fill="#B82756"/>
<path id="Vector_39" d="M114.396 40.2757V45.6611C114.396 45.8386 114.436 45.9761 114.524 46.0704C114.601 46.168 114.741 46.2399 114.941 46.2991V46.5341H111.796V46.2991C111.991 46.2447 112.132 46.176 112.213 46.0784C112.295 45.9793 112.336 45.8434 112.336 45.6675V37.9013C112.336 37.727 112.298 37.5943 112.218 37.5047C112.141 37.4152 111.996 37.3384 111.794 37.2761V37.0426H115.434V37.2761C115.184 37.3384 115.06 37.4504 115.06 37.6039C115.06 37.743 115.149 37.8981 115.331 38.082L120.439 43.1363V37.9013C120.439 37.727 120.397 37.5911 120.315 37.4999C120.239 37.4072 120.098 37.3304 119.895 37.2745V37.041H123.038V37.2745C122.834 37.3304 122.693 37.4056 122.612 37.4999C122.535 37.5911 122.5 37.727 122.5 37.9013V45.6611C122.5 45.8386 122.535 45.9713 122.612 46.0656C122.695 46.16 122.834 46.2367 123.038 46.2991V46.5341H119.642V46.2991C119.893 46.2447 120.018 46.1424 120.018 45.9889C120.018 45.9089 119.981 45.8274 119.914 45.741C119.847 45.6611 119.689 45.4948 119.45 45.247L114.396 40.2757Z" fill="#B82756"/>
<path id="Vector_40" d="M133.122 43.1252L134.556 45.2118L134.36 45.3574C134.225 45.2598 134.112 45.2118 134.035 45.2118C133.945 45.2118 133.717 45.3174 133.367 45.5236C132.591 45.9794 131.905 46.2943 131.314 46.4686C130.722 46.6445 130.033 46.7293 129.257 46.7293C127.706 46.7293 126.445 46.3631 125.465 45.6212C124.91 45.1991 124.468 44.6666 124.145 44.0318C123.795 43.3394 123.615 42.5927 123.615 41.7884C123.615 40.6707 123.939 39.6906 124.582 38.8383C125.599 37.5048 127.15 36.8396 129.241 36.8396C130.018 36.8396 130.704 36.9243 131.307 37.1034C131.915 37.2745 132.601 37.5847 133.367 38.0372C133.717 38.2467 133.945 38.3474 134.035 38.3474C134.112 38.3474 134.224 38.3011 134.36 38.2083L134.556 38.357L133.122 40.4325L132.933 40.3014C132.945 40.2326 132.946 40.1895 132.951 40.1735C132.957 40.1255 132.957 40.0871 132.957 40.0631C132.957 39.7897 132.58 39.4795 131.812 39.1277C131.091 38.7951 130.357 38.6305 129.627 38.6305C128.597 38.6305 127.748 38.8991 127.078 39.4443C126.315 40.0487 125.935 40.8338 125.935 41.7884C125.935 42.743 126.314 43.5265 127.078 44.1373C127.753 44.673 128.6 44.94 129.627 44.94C130.428 44.94 131.229 44.7401 132.027 44.3388C132.649 44.0238 132.959 43.7456 132.959 43.5073C132.959 43.5009 132.953 43.4194 132.935 43.2739L133.124 43.1284L133.122 43.1252Z" fill="#B82756"/>
<path id="Vector_41" d="M137.881 37.8997V45.6595C137.881 45.837 137.921 45.9697 138.001 46.064C138.078 46.1584 138.218 46.2351 138.423 46.2975V46.5325H135.059V46.2975C135.259 46.2431 135.396 46.1744 135.478 46.0768C135.564 45.9777 135.601 45.8418 135.601 45.6659V37.8997C135.601 37.7254 135.563 37.5927 135.484 37.5031C135.404 37.4136 135.264 37.3368 135.059 37.2745V37.041H138.423V37.2745C138.218 37.3304 138.078 37.4056 138.001 37.4999C137.921 37.5911 137.881 37.727 137.881 37.9013V37.8997Z" fill="#B82756"/>
<path id="Vector_42" d="M142.037 42.4823V44.8152H148.049C148.225 44.8152 148.359 44.7768 148.45 44.6953C148.543 44.6185 148.62 44.4778 148.676 44.2699H148.909V47.0745H148.676C148.625 46.8779 148.551 46.7388 148.454 46.6572C148.359 46.5725 148.225 46.5341 148.049 46.5341H139.221V46.299C139.416 46.2447 139.552 46.1759 139.639 46.0784C139.718 45.9792 139.76 45.8433 139.76 45.6674V37.9012C139.76 37.7269 139.718 37.5942 139.642 37.5047C139.559 37.4151 139.421 37.3384 139.221 37.276V37.0426H147.773C147.952 37.0426 148.086 36.9978 148.175 36.9226C148.275 36.8427 148.347 36.702 148.401 36.4973H148.639V39.3019H148.401C148.347 39.0972 148.275 38.9533 148.175 38.875C148.086 38.7966 147.95 38.7599 147.773 38.7599H142.037V40.8369H145.603C145.779 40.8369 145.905 40.7986 146.002 40.7202C146.098 40.6403 146.174 40.5012 146.233 40.2949H146.468V43.0259H146.233C146.178 42.8261 146.105 42.6854 146.009 42.6038C145.916 42.5223 145.78 42.4839 145.601 42.4839H142.035L142.037 42.4823Z" fill="#B82756"/>
<path id="Vector_43" d="M152.308 42.623V45.6595C152.308 45.837 152.351 45.9697 152.427 46.064C152.504 46.1584 152.65 46.2351 152.851 46.2975V46.5325H149.485V46.2975C149.687 46.2431 149.828 46.1744 149.907 46.0768C149.989 45.9777 150.031 45.8418 150.031 45.6659V37.8997C150.031 37.7254 149.989 37.5927 149.911 37.5031C149.831 37.4136 149.692 37.3368 149.485 37.2745V37.041H155.713C156.519 37.041 157.138 37.0778 157.56 37.1609C157.986 37.2457 158.361 37.3896 158.699 37.6039C159.38 38.0516 159.727 38.7807 159.727 39.7849C159.727 40.5524 159.511 41.1536 159.089 41.5805C158.665 42.0154 157.99 42.3256 157.053 42.5175L158.852 45.0343C159.18 45.498 159.439 45.813 159.634 45.9793C159.831 46.1456 160.053 46.2527 160.301 46.2991V46.5341H156.318V46.2991C156.612 46.2191 156.757 46.0912 156.757 45.9169C156.757 45.7906 156.668 45.6051 156.49 45.3493L154.597 42.6246H152.309L152.308 42.623ZM152.308 40.9105H155.729C156.251 40.9105 156.633 40.8498 156.881 40.7394C157.231 40.5859 157.405 40.2821 157.405 39.8312C157.405 39.4315 157.285 39.1533 157.039 38.9918C156.791 38.8319 156.358 38.7567 155.731 38.7567H152.309V40.9105H152.308Z" fill="#B82756"/>
<path id="Vector_44" d="M168.167 44.1645H163.794L163.31 45.1942C163.19 45.4452 163.13 45.6371 163.13 45.7778C163.13 46.0512 163.31 46.2207 163.671 46.2975V46.5325H160.172V46.2975C160.39 46.2639 160.548 46.1952 160.655 46.1024C160.758 46.0049 160.882 45.8178 161.021 45.5364L164.49 38.5089C164.624 38.2466 164.686 38.0116 164.686 37.8149C164.686 37.5847 164.53 37.4008 164.21 37.2745V37.041H167.895V37.2745C167.585 37.3976 167.432 37.5895 167.432 37.8485C167.432 38.0372 167.499 38.2626 167.64 38.5361L171.234 45.3477C171.434 45.7139 171.586 45.9537 171.699 46.064C171.811 46.1744 171.984 46.2511 172.214 46.2975V46.5325H168.348V46.2975C168.714 46.2351 168.898 46.064 168.898 45.7826C168.898 45.6083 168.831 45.3909 168.689 45.135L168.167 44.1645ZM167.478 42.8245L165.927 39.7721L164.448 42.8245H167.478Z" fill="#B82756"/>
</g>
<path id="Vector_45" d="M73.7379 55.1669C73.7379 55.2485 73.7091 55.3204 73.6499 55.3828C73.5908 55.4451 73.522 55.4755 73.4405 55.4755C73.3813 55.4755 73.2901 55.4307 73.167 55.3396C72.9544 55.1845 72.7641 55.0806 72.5962 55.0294C72.4299 54.9782 72.254 54.951 72.0701 54.951C71.5776 54.951 71.1811 55.1365 70.8773 55.5043C70.5735 55.8737 70.4216 56.3709 70.4216 56.9977C70.4216 57.6245 70.5687 58.1234 70.8629 58.4928C71.1571 58.8605 71.5521 59.0444 72.0445 59.0444C72.4443 59.0444 72.8248 58.9037 73.1846 58.6207C73.3077 58.5248 73.4005 58.4768 73.4612 58.4768C73.546 58.4768 73.6147 58.512 73.6691 58.5807C73.7235 58.6495 73.7491 58.723 73.7491 58.7982C73.7491 58.9565 73.57 59.1356 73.2102 59.337C72.852 59.5385 72.4555 59.6376 72.0222 59.6376C71.3522 59.6376 70.8149 59.3962 70.4072 58.9149C69.9995 58.432 69.7964 57.794 69.7964 56.9977C69.7964 56.2014 70.0122 55.5635 70.4424 55.079C70.8741 54.5961 71.4209 54.353 72.0877 54.353C72.5434 54.353 72.932 54.449 73.2518 54.6408C73.5748 54.8327 73.7347 55.007 73.7347 55.1637L73.7379 55.1669Z" fill="#221E20"/>
<path id="Vector_46" d="M75.4527 55.0775C75.5822 54.8392 75.7485 54.6585 75.9516 54.537C76.1547 54.4155 76.3945 54.3547 76.6743 54.3547C76.9174 54.3547 77.098 54.3899 77.2164 54.4571C77.3347 54.5242 77.3939 54.609 77.3939 54.7113C77.3939 54.7977 77.3747 54.8728 77.3379 54.9368C77.3011 55.0007 77.2452 55.0327 77.1748 55.0327C77.1316 55.0327 77.0821 55.0215 77.0229 55.0007C76.9126 54.9655 76.7926 54.948 76.6631 54.948C76.297 54.948 76.0028 55.0775 75.7837 55.3381C75.563 55.5971 75.4527 55.9393 75.4527 56.3631V59.2588C75.4527 59.4635 75.3488 59.5658 75.1377 59.5658C74.9266 59.5658 74.8291 59.4635 74.8291 59.2588V54.7257C74.8291 54.5242 74.9314 54.4235 75.1377 54.4235C75.344 54.4235 75.4527 54.5258 75.4527 54.7273V55.0759V55.0775Z" fill="#221E20"/>
<path id="Vector_47" d="M78.3766 57.1881C78.3766 57.7286 78.5317 58.1731 78.8419 58.5216C79.1521 58.8702 79.5455 59.0445 80.0236 59.0445C80.2267 59.0445 80.4345 59.0125 80.644 58.9454C80.8551 58.8782 81.0357 58.7951 81.186 58.6943C81.29 58.6256 81.3651 58.592 81.4147 58.592C81.493 58.592 81.5586 58.6272 81.6114 58.6959C81.6657 58.7647 81.6913 58.8382 81.6913 58.9166C81.6913 59.0637 81.517 59.222 81.1701 59.3899C80.8231 59.5578 80.4377 59.6409 80.0156 59.6409C79.3216 59.6409 78.7716 59.4059 78.3638 58.9358C77.9577 58.4641 77.7546 57.8373 77.7546 57.0506C77.7546 56.2639 77.9561 55.6291 78.3559 55.1206C78.7572 54.6122 79.3025 54.3579 79.9916 54.3579C80.5992 54.3579 81.0773 54.5626 81.4259 54.9735C81.7729 55.3845 81.9472 55.9329 81.9472 56.6205C81.9472 56.8059 81.9056 56.9467 81.8224 57.0442C81.7409 57.1417 81.6258 57.1897 81.4803 57.1897H78.3782L78.3766 57.1881ZM81.322 56.5933C81.322 56.1072 81.202 55.7122 80.9606 55.4068C80.7191 55.103 80.3882 54.9495 79.9644 54.9495C79.5407 54.9495 79.1585 55.0998 78.8739 55.3988C78.5893 55.6979 78.4294 56.096 78.3942 56.5917H81.3204L81.322 56.5933Z" fill="#221E20"/>
<path id="Vector_48" d="M87.0158 59.2604C87.0158 59.465 86.9135 59.5674 86.712 59.5674C86.5105 59.5674 86.3938 59.465 86.3938 59.2572V58.8638C86.2483 59.1069 86.0452 59.2971 85.7862 59.4346C85.5272 59.5706 85.2474 59.6393 84.9499 59.6393C84.2608 59.6393 83.7235 59.4091 83.3414 58.9486C82.9592 58.4881 82.7673 57.8469 82.7673 57.0298C82.7673 56.2127 82.9656 55.5827 83.3622 55.0918C83.7603 54.6025 84.288 54.3563 84.9499 54.3563C85.2585 54.3563 85.5384 54.4251 85.7878 54.5594C86.0388 54.6953 86.2403 54.8888 86.3938 55.1414V52.3608C86.3938 52.1625 86.4993 52.0618 86.712 52.0618C86.9247 52.0618 87.0158 52.1609 87.0158 52.3592V59.262V59.2604ZM86.3922 56.5069C86.3922 56.048 86.2563 55.6739 85.9845 55.3844C85.7126 55.095 85.3689 54.9495 84.9499 54.9495C84.4942 54.9495 84.1201 55.1398 83.8275 55.5204C83.5348 55.9009 83.3877 56.4014 83.3877 57.0266C83.3877 57.6518 83.5253 58.1715 83.8019 58.52C84.0785 58.8686 84.4607 59.0429 84.9483 59.0429C85.3657 59.0429 85.711 58.8958 85.9829 58.6C86.2531 58.3042 86.3906 57.9284 86.3906 57.4727V56.5069H86.3922Z" fill="#221E20"/>
<path id="Vector_49" d="M88.7326 53.1938C88.6094 53.1938 88.5087 53.1522 88.4288 53.0675C88.3488 52.9828 88.3088 52.8868 88.3088 52.7749C88.3088 52.663 88.3504 52.5638 88.4336 52.4807C88.5151 52.3975 88.6158 52.356 88.7326 52.356C88.8493 52.356 88.9484 52.3975 89.0332 52.4759C89.1179 52.5558 89.1595 52.655 89.1595 52.7749C89.1595 52.8948 89.1179 52.9987 89.038 53.0771C88.9564 53.1554 88.8541 53.1938 88.7326 53.1938ZM89.046 59.2619C89.046 59.4666 88.9372 59.5689 88.723 59.5689C88.5231 59.5689 88.4224 59.4666 88.4224 59.2619V54.7288C88.4224 54.5274 88.5263 54.4266 88.7326 54.4266C88.9388 54.4266 89.046 54.5274 89.046 54.7288V59.2619Z" fill="#221E20"/>
<path id="Vector_50" d="M91.3645 55.0199V58.1875C91.3645 58.4721 91.4125 58.6864 91.5116 58.8287C91.6091 58.971 91.7562 59.0413 91.9545 59.0413C92.0329 59.0413 92.1 59.035 92.156 59.0206C92.2103 59.0062 92.3031 58.9694 92.4342 58.9102C92.4726 58.8958 92.511 58.8862 92.5461 58.8862C92.6101 58.8862 92.6692 58.9166 92.7188 58.9742C92.77 59.0334 92.7956 59.1005 92.7956 59.1757C92.7956 59.2924 92.7092 59.3995 92.5365 59.4939C92.3639 59.5882 92.164 59.6362 91.9353 59.6362C91.5116 59.6362 91.2062 59.521 91.0207 59.2908C90.8352 59.0605 90.7425 58.7104 90.7425 58.2435V55.0183H90.1844C89.9798 55.0183 89.8774 54.9256 89.8774 54.7401C89.8774 54.5546 89.9798 54.4507 90.1844 54.4507H90.7425V53.2802C90.7425 53.0788 90.8448 52.978 91.0511 52.978C91.2574 52.978 91.3661 53.0788 91.3661 53.2802V54.4507H92.2183C92.4246 54.4507 92.5269 54.5466 92.5269 54.7401C92.5269 54.9336 92.4246 55.0183 92.2183 55.0183H91.3661L91.3645 55.0199Z" fill="#221E20"/>
<path id="Vector_51" d="M95.4921 59.6376C94.8429 59.6376 94.3088 59.401 93.8947 58.9245C93.4806 58.4496 93.2727 57.8068 93.2727 56.9977C93.2727 56.1887 93.4806 55.5059 93.8947 55.0454C94.3088 54.5849 94.8413 54.353 95.4921 54.353C96.1429 54.353 96.6849 54.5881 97.0991 55.055C97.5132 55.5219 97.7211 56.1695 97.7211 56.9977C97.7211 57.826 97.5132 58.4448 97.0975 58.9213C96.6817 59.3978 96.1461 59.636 95.4921 59.636V59.6376ZM95.4921 54.9494C95.0412 54.9494 94.6622 55.1189 94.3568 55.4595C94.0498 55.7985 93.8979 56.3118 93.8979 56.9961C93.8979 57.6805 94.0578 58.1874 94.3792 58.5296C94.699 58.8717 95.0716 59.0428 95.4921 59.0428C95.9126 59.0428 96.2916 58.8717 96.6146 58.5296C96.936 58.1874 97.0975 57.6757 97.0975 56.9961C97.0975 56.3166 96.9471 55.8145 96.6449 55.4691C96.3443 55.1237 95.959 54.9494 95.4921 54.9494Z" fill="#221E20"/>
<path id="Vector_52" d="M102.818 59.2604C102.818 59.4651 102.718 59.5674 102.515 59.5674C102.302 59.5674 102.195 59.4651 102.195 59.2604V56.3343C102.195 55.8833 102.094 55.5396 101.891 55.3045C101.688 55.0679 101.389 54.9495 100.994 54.9495C100.548 54.9495 100.183 55.1094 99.902 55.426C99.6189 55.7442 99.4766 56.1744 99.4766 56.718V59.2588C99.4766 59.4635 99.3727 59.5658 99.1632 59.5658C98.9538 59.5658 98.853 59.4635 98.853 59.2588V52.3656C98.853 52.1609 98.957 52.0586 99.1632 52.0586C99.3695 52.0586 99.4766 52.1609 99.4766 52.3672V55.2661C99.6317 54.9863 99.8524 54.7641 100.135 54.5994C100.418 54.4363 100.732 54.3547 101.076 54.3547C101.642 54.3547 102.075 54.5162 102.374 54.8392C102.671 55.1622 102.82 55.6019 102.82 56.16V59.2604H102.818Z" fill="#221E20"/>
<path id="Vector_53" d="M104.527 53.1938C104.405 53.1938 104.303 53.1522 104.224 53.0675C104.144 52.9828 104.104 52.8868 104.104 52.7749C104.104 52.663 104.146 52.5638 104.228 52.4807C104.311 52.3975 104.41 52.356 104.527 52.356C104.643 52.356 104.742 52.3975 104.827 52.4759C104.912 52.5558 104.954 52.655 104.954 52.7749C104.954 52.8948 104.914 52.9987 104.832 53.0771C104.752 53.1554 104.65 53.1938 104.527 53.1938ZM104.842 59.2619C104.842 59.4666 104.733 59.5689 104.517 59.5689C104.317 59.5689 104.218 59.4666 104.218 59.2619V54.7288C104.218 54.5274 104.32 54.4266 104.527 54.4266C104.733 54.4266 104.842 54.5274 104.842 54.7288V59.2619Z" fill="#221E20"/>
<path id="Vector_54" d="M108.305 59.6378C107.986 59.6378 107.708 59.5738 107.468 59.4427C107.23 59.3132 107.032 59.1165 106.872 58.8527V61.3503C106.872 61.5501 106.763 61.6493 106.547 61.6493C106.347 61.6493 106.248 61.5501 106.248 61.3535V54.7385C106.248 54.5306 106.349 54.4267 106.547 54.4267C106.763 54.4267 106.872 54.5322 106.872 54.7417V55.1111C107.014 54.8776 107.214 54.6937 107.47 54.5578C107.727 54.4235 108.007 54.3547 108.311 54.3547C108.997 54.3547 109.531 54.5818 109.918 55.0375C110.303 55.4916 110.497 56.1296 110.497 56.9499C110.497 57.7702 110.297 58.4241 109.9 58.9102C109.502 59.3947 108.97 59.6378 108.301 59.6378H108.305ZM108.311 59.0429C108.776 59.0429 109.155 58.8543 109.441 58.4769C109.731 58.0979 109.875 57.5895 109.875 56.9483C109.875 56.3071 109.736 55.8306 109.459 55.4788C109.182 55.127 108.799 54.9496 108.309 54.9496C107.884 54.9496 107.539 55.0951 107.272 55.3845C107.005 55.6739 106.87 56.0417 106.87 56.4878V57.5015C106.87 57.9572 107.005 58.3282 107.273 58.6144C107.542 58.9006 107.887 59.0429 108.309 59.0429H108.311Z" fill="#221E20"/>
<path id="Vector_55" d="M113.559 59.6376C112.908 59.6376 112.376 59.401 111.962 58.9245C111.548 58.4496 111.34 57.8068 111.34 56.9977C111.34 56.1887 111.548 55.5059 111.962 55.0454C112.376 54.5849 112.908 54.353 113.559 54.353C114.21 54.353 114.752 54.5881 115.166 55.055C115.58 55.5219 115.788 56.1695 115.788 56.9977C115.788 57.826 115.579 58.4448 115.165 58.9213C114.749 59.3978 114.213 59.636 113.559 59.636V59.6376ZM113.559 54.9494C113.108 54.9494 112.729 55.1189 112.422 55.4595C112.115 55.7985 111.963 56.3118 111.963 56.9961C111.963 57.6805 112.123 58.1874 112.445 58.5296C112.765 58.8717 113.137 59.0428 113.559 59.0428C113.981 59.0428 114.359 58.8717 114.68 58.5296C115.003 58.1874 115.165 57.6757 115.165 56.9961C115.165 56.3166 115.013 55.8145 114.712 55.4691C114.41 55.1237 114.026 54.9494 113.559 54.9494Z" fill="#221E20"/>
<path id="Vector_56" d="M117.828 55.0199V58.1875C117.828 58.4721 117.876 58.6864 117.975 58.8287C118.072 58.971 118.219 59.0413 118.418 59.0413C118.496 59.0413 118.563 59.035 118.619 59.0206C118.673 59.0062 118.766 58.9694 118.897 58.9102C118.936 58.8958 118.974 58.8862 119.009 58.8862C119.073 58.8862 119.132 58.9166 119.182 58.9742C119.233 59.0334 119.259 59.1005 119.259 59.1757C119.259 59.2924 119.172 59.3995 119 59.4939C118.827 59.5882 118.627 59.6362 118.398 59.6362C117.975 59.6362 117.669 59.521 117.484 59.2908C117.298 59.0605 117.206 58.7104 117.206 58.2435V55.0183H116.648C116.443 55.0183 116.341 54.9256 116.341 54.7401C116.341 54.5546 116.443 54.4507 116.648 54.4507H117.206V53.2802C117.206 53.0788 117.308 52.978 117.514 52.978C117.72 52.978 117.829 53.0788 117.829 53.2802V54.4507H118.681C118.888 54.4507 118.99 54.5466 118.99 54.7401C118.99 54.9336 118.888 55.0183 118.681 55.0183H117.829L117.828 55.0199Z" fill="#221E20"/>
<path id="Vector_57" d="M120.36 57.1881C120.36 57.7286 120.515 58.1731 120.825 58.5216C121.136 58.8702 121.529 59.0445 122.007 59.0445C122.21 59.0445 122.416 59.0125 122.627 58.9454C122.837 58.8782 123.018 58.7951 123.169 58.6943C123.273 58.6256 123.35 58.592 123.398 58.592C123.476 58.592 123.542 58.6272 123.595 58.6959C123.649 58.7647 123.675 58.8382 123.675 58.9166C123.675 59.0637 123.5 59.222 123.153 59.3899C122.806 59.5578 122.421 59.6409 121.999 59.6409C121.305 59.6409 120.755 59.4059 120.347 58.9358C119.941 58.4641 119.738 57.8373 119.738 57.0506C119.738 56.2639 119.938 55.6291 120.339 55.1206C120.741 54.6122 121.284 54.3579 121.975 54.3579C122.583 54.3579 123.061 54.5626 123.409 54.9735C123.758 55.3845 123.931 55.9329 123.931 56.6205C123.931 56.8059 123.889 56.9467 123.807 57.0442C123.724 57.1417 123.611 57.1897 123.465 57.1897H120.363L120.36 57.1881ZM123.305 56.5933C123.305 56.1072 123.185 55.7122 122.944 55.4068C122.703 55.103 122.372 54.9495 121.949 54.9495C121.527 54.9495 121.144 55.0998 120.859 55.3988C120.574 55.6979 120.414 56.096 120.379 56.5917H123.305V56.5933Z" fill="#221E20"/>
<path id="Vector_58" d="M128.688 55.1669C128.688 55.2485 128.657 55.3204 128.6 55.3828C128.54 55.4451 128.472 55.4755 128.39 55.4755C128.331 55.4755 128.24 55.4307 128.117 55.3396C127.904 55.1845 127.715 55.0806 127.548 55.0294C127.38 54.9782 127.205 54.951 127.021 54.951C126.529 54.951 126.132 55.1365 125.827 55.5043C125.523 55.8737 125.371 56.3709 125.371 56.9977C125.371 57.6245 125.518 58.1234 125.813 58.4928C126.107 58.8605 126.5 59.0444 126.994 59.0444C127.392 59.0444 127.773 58.9037 128.134 58.6207C128.257 58.5248 128.35 58.4768 128.411 58.4768C128.496 58.4768 128.564 58.512 128.619 58.5807C128.672 58.6495 128.699 58.723 128.699 58.7982C128.699 58.9565 128.52 59.1356 128.16 59.337C127.8 59.5385 127.405 59.6376 126.972 59.6376C126.302 59.6376 125.765 59.3962 125.357 58.9149C124.949 58.432 124.746 57.794 124.746 56.9977C124.746 56.2014 124.962 55.5635 125.392 55.079C125.824 54.5961 126.371 54.353 127.036 54.353C127.492 54.353 127.88 54.449 128.201 54.6408C128.523 54.8327 128.684 55.007 128.684 55.1637L128.688 55.1669Z" fill="#221E20"/>
<path id="Vector_59" d="M133.743 59.2604C133.743 59.4651 133.64 59.5674 133.43 59.5674C133.221 59.5674 133.12 59.4651 133.12 59.2572V58.7711C132.952 59.0605 132.739 59.278 132.483 59.4219C132.228 59.5658 131.929 59.6378 131.585 59.6378C130.929 59.6378 130.418 59.3963 130.048 58.9134C129.679 58.4289 129.493 57.7877 129.493 56.9899C129.493 56.192 129.682 55.5684 130.059 55.0839C130.437 54.5994 130.969 54.3547 131.657 54.3547C131.985 54.3547 132.269 54.4219 132.512 54.5546C132.755 54.6857 132.958 54.8856 133.12 55.151V54.7305C133.12 54.529 133.224 54.4267 133.43 54.4267C133.636 54.4267 133.743 54.5274 133.743 54.7289V59.262V59.2604ZM133.12 56.507C133.12 56.0481 132.984 55.6739 132.712 55.3845C132.44 55.0951 132.097 54.9496 131.679 54.9496C131.188 54.9496 130.805 55.143 130.53 55.5268C130.255 55.9121 130.117 56.3982 130.117 56.9883C130.117 57.6246 130.248 58.1267 130.51 58.4945C130.773 58.8607 131.161 59.0445 131.679 59.0445C132.103 59.0445 132.448 58.9006 132.717 58.6112C132.986 58.3218 133.118 57.9492 133.118 57.4935V56.5086L133.12 56.507Z" fill="#221E20"/>
<path id="Vector_60" d="M135.775 55.0775C135.904 54.8392 136.071 54.6585 136.274 54.537C136.475 54.4155 136.717 54.3547 136.996 54.3547C137.24 54.3547 137.42 54.3899 137.539 54.4571C137.657 54.5242 137.716 54.609 137.716 54.7113C137.716 54.7977 137.697 54.8728 137.66 54.9368C137.623 55.0007 137.569 55.0327 137.497 55.0327C137.455 55.0327 137.404 55.0215 137.347 55.0007C137.236 54.9655 137.116 54.948 136.987 54.948C136.621 54.948 136.328 55.0775 136.107 55.3381C135.887 55.5971 135.776 55.9393 135.776 56.3631V59.2588C135.776 59.4635 135.672 59.5658 135.463 59.5658C135.254 59.5658 135.153 59.4635 135.153 59.2588V54.7257C135.153 54.5242 135.257 54.4235 135.463 54.4235C135.669 54.4235 135.776 54.5258 135.776 54.7273V55.0759L135.775 55.0775Z" fill="#221E20"/>
<path id="Vector_61" d="M138.8 53.1938C138.679 53.1938 138.576 53.1522 138.498 53.0675C138.418 52.9828 138.378 52.8868 138.378 52.7749C138.378 52.663 138.42 52.5638 138.503 52.4807C138.586 52.3975 138.685 52.356 138.802 52.356C138.919 52.356 139.018 52.3975 139.103 52.4759C139.187 52.5558 139.229 52.655 139.229 52.7749C139.229 52.8948 139.189 52.9987 139.107 53.0771C139.027 53.1554 138.925 53.1938 138.802 53.1938H138.8ZM139.114 59.2619C139.114 59.4666 139.005 59.5689 138.789 59.5689C138.589 59.5689 138.49 59.4666 138.49 59.2619V54.7288C138.49 54.5274 138.592 54.4266 138.799 54.4266C139.005 54.4266 139.112 54.5274 139.112 54.7288V59.2619H139.114Z" fill="#221E20"/>
<path id="Vector_62" d="M142.461 59.6376C141.811 59.6376 141.278 59.401 140.864 58.9245C140.45 58.4496 140.242 57.8068 140.242 56.9977C140.242 56.1887 140.45 55.5059 140.864 55.0454C141.278 54.5849 141.811 54.353 142.461 54.353C143.112 54.353 143.654 54.5881 144.068 55.055C144.482 55.5219 144.69 56.1695 144.69 56.9977C144.69 57.826 144.481 58.4448 144.067 58.9213C143.651 59.3978 143.115 59.636 142.461 59.636V59.6376ZM142.461 54.9494C142.01 54.9494 141.631 55.1189 141.324 55.4595C141.017 55.7985 140.866 56.3118 140.866 56.9961C140.866 57.6805 141.025 58.1874 141.347 58.5296C141.667 58.8717 142.039 59.0428 142.461 59.0428C142.883 59.0428 143.261 58.8717 143.582 58.5296C143.905 58.1874 144.067 57.6757 144.067 56.9961C144.067 56.3166 143.915 55.8145 143.614 55.4691C143.312 55.1237 142.928 54.9494 142.461 54.9494Z" fill="#221E20"/>
<path id="Vector_63" d="M145.974 59.6379C145.835 59.6379 145.717 59.5899 145.624 59.4956C145.53 59.3996 145.483 59.2861 145.483 59.155C145.483 59.0239 145.53 58.9039 145.624 58.8064C145.718 58.7105 145.835 58.6609 145.974 58.6609C146.113 58.6609 146.225 58.7089 146.32 58.8048C146.414 58.9007 146.46 59.0175 146.46 59.155C146.46 59.2829 146.412 59.3964 146.316 59.4924C146.221 59.5899 146.107 59.6379 145.974 59.6379Z" fill="#221E20"/>
<path id="Vector_64" d="M151.343 55.1669C151.343 55.2485 151.314 55.3204 151.256 55.3828C151.197 55.4451 151.127 55.4755 151.047 55.4755C150.988 55.4755 150.897 55.4307 150.773 55.3396C150.561 55.1845 150.372 55.0806 150.204 55.0294C150.036 54.9782 149.862 54.951 149.678 54.951C149.186 54.951 148.788 55.1365 148.484 55.5043C148.18 55.8737 148.028 56.3709 148.028 56.9977C148.028 57.6245 148.175 58.1234 148.471 58.4928C148.765 58.8605 149.16 59.0444 149.653 59.0444C150.052 59.0444 150.433 58.9037 150.793 58.6207C150.917 58.5248 151.008 58.4768 151.071 58.4768C151.156 58.4768 151.224 58.512 151.279 58.5807C151.331 58.6495 151.359 58.723 151.359 58.7982C151.359 58.9565 151.18 59.1356 150.82 59.337C150.462 59.5385 150.065 59.6376 149.632 59.6376C148.962 59.6376 148.425 59.3962 148.017 58.9149C147.609 58.432 147.406 57.794 147.406 56.9977C147.406 56.2014 147.622 55.5635 148.054 55.079C148.485 54.5961 149.032 54.353 149.697 54.353C150.153 54.353 150.542 54.449 150.863 54.6408C151.184 54.8327 151.344 55.007 151.344 55.1637L151.343 55.1669Z" fill="#221E20"/>
<path id="Vector_65" d="M154.37 59.6376C153.719 59.6376 153.187 59.401 152.773 58.9245C152.359 58.4496 152.151 57.8068 152.151 56.9977C152.151 56.1887 152.359 55.5059 152.773 55.0454C153.187 54.5849 153.719 54.353 154.37 54.353C155.021 54.353 155.563 54.5881 155.977 55.055C156.391 55.5219 156.599 56.1695 156.599 56.9977C156.599 57.826 156.39 58.4448 155.975 58.9213C155.56 59.3978 155.024 59.636 154.37 59.636V59.6376ZM154.37 54.9494C153.919 54.9494 153.54 55.1189 153.233 55.4595C152.926 55.7985 152.774 56.3118 152.774 56.9961C152.774 57.6805 152.934 58.1874 153.256 58.5296C153.575 58.8717 153.948 59.0428 154.37 59.0428C154.792 59.0428 155.17 58.8717 155.491 58.5296C155.814 58.1874 155.975 57.6757 155.975 56.9961C155.975 56.3166 155.823 55.8145 155.523 55.4691C155.221 55.1237 154.837 54.9494 154.37 54.9494Z" fill="#221E20"/>
<path id="Vector_66" d="M164.641 59.2604C164.641 59.4651 164.538 59.5675 164.337 59.5675C164.135 59.5675 164.019 59.4651 164.019 59.2604V56.184C164.019 55.8019 163.913 55.5013 163.7 55.2806C163.489 55.0599 163.197 54.9496 162.826 54.9496C162.424 54.9496 162.103 55.0919 161.862 55.3749C161.619 55.658 161.497 56.0673 161.497 56.6013V59.2588C161.497 59.4635 161.395 59.5659 161.193 59.5659C160.992 59.5659 160.875 59.4635 160.875 59.2588V56.1824C160.875 55.7939 160.773 55.4917 160.571 55.2726C160.37 55.0551 160.087 54.9464 159.722 54.9464C159.295 54.9464 158.961 55.0935 158.718 55.3893C158.475 55.6835 158.353 56.0881 158.353 56.5998V59.2572C158.353 59.4619 158.248 59.5642 158.04 59.5642C157.832 59.5642 157.731 59.4619 157.731 59.2572V54.7337C157.731 54.5259 157.834 54.4219 158.04 54.4219C158.246 54.4219 158.353 54.5259 158.353 54.7353V55.1559C158.499 54.9112 158.699 54.7162 158.95 54.569C159.201 54.4235 159.474 54.35 159.772 54.35C160.13 54.35 160.439 54.4267 160.696 54.5786C160.953 54.7305 161.161 54.9592 161.316 55.2614C161.467 54.9752 161.678 54.7513 161.95 54.5898C162.223 54.4299 162.528 54.3484 162.867 54.3484C163.429 54.3484 163.864 54.5019 164.175 54.8089C164.487 55.1159 164.642 55.5396 164.642 56.0817V59.254L164.641 59.2604Z" fill="#221E20"/>
<path id="Vector_67" d="M166.256 59.6379C166.117 59.6379 165.999 59.5899 165.906 59.4956C165.812 59.3996 165.765 59.2861 165.765 59.155C165.765 59.0239 165.812 58.9039 165.906 58.8064C166 58.7105 166.117 58.6609 166.256 58.6609C166.395 58.6609 166.507 58.7089 166.602 58.8048C166.696 58.9007 166.742 59.0175 166.742 59.155C166.742 59.2829 166.694 59.3964 166.598 59.4924C166.503 59.5899 166.389 59.6379 166.256 59.6379Z" fill="#221E20"/>
<path id="Vector_68" d="M174.835 59.2604C174.835 59.4651 174.733 59.5675 174.531 59.5675C174.33 59.5675 174.213 59.4651 174.213 59.2604V56.184C174.213 55.8019 174.107 55.5013 173.895 55.2806C173.684 55.0599 173.391 54.9496 173.02 54.9496C172.619 54.9496 172.297 55.0919 172.056 55.3749C171.813 55.658 171.691 56.0673 171.691 56.6013V59.2588C171.691 59.4635 171.589 59.5659 171.387 59.5659C171.186 59.5659 171.069 59.4635 171.069 59.2588V56.1824C171.069 55.7939 170.967 55.4917 170.765 55.2726C170.564 55.0551 170.281 54.9464 169.916 54.9464C169.489 54.9464 169.155 55.0935 168.912 55.3893C168.669 55.6835 168.548 56.0881 168.548 56.5998V59.2572C168.548 59.4619 168.442 59.5642 168.233 59.5642C168.023 59.5642 167.924 59.4619 167.924 59.2572V54.7337C167.924 54.5259 168.026 54.4219 168.233 54.4219C168.439 54.4219 168.548 54.5259 168.548 54.7353V55.1559C168.693 54.9112 168.893 54.7162 169.144 54.569C169.395 54.4235 169.669 54.35 169.966 54.35C170.324 54.35 170.633 54.4267 170.89 54.5786C171.148 54.7305 171.355 54.9592 171.511 55.2614C171.661 54.9752 171.872 54.7513 172.144 54.5898C172.417 54.4299 172.723 54.3484 173.062 54.3484C173.623 54.3484 174.058 54.5019 174.37 54.8089C174.681 55.1159 174.836 55.5396 174.836 56.0817V59.254L174.835 59.2604Z" fill="#221E20"/>
<path id="Vector_69" d="M178.329 56.969C178.831 57.3848 179.207 57.7845 179.46 58.1683C179.712 58.552 179.839 58.9198 179.839 59.27C179.839 59.4682 179.73 59.5658 179.514 59.5658C179.314 59.5658 179.215 59.4634 179.215 59.2588C179.215 58.9774 179.092 58.6624 178.844 58.3154C178.598 57.9684 178.268 57.6342 177.857 57.3128C177.434 57.6374 177.082 57.978 176.802 58.3378C176.522 58.6959 176.383 59.0077 176.383 59.2684C176.383 59.4666 176.289 59.5642 176.099 59.5642C175.873 59.5642 175.76 59.4602 175.76 59.2476C175.76 58.9102 175.899 58.5456 176.177 58.1539C176.455 57.7621 176.858 57.3624 177.384 56.9578C176.954 56.5885 176.612 56.2047 176.356 55.8082C176.1 55.41 175.972 55.0471 175.972 54.7161C175.972 54.521 176.076 54.4235 176.287 54.4235C176.498 54.4235 176.596 54.5242 176.596 54.7257C176.596 54.9783 176.708 55.2693 176.933 55.5987C177.157 55.9281 177.47 56.2671 177.87 56.6173C178.329 56.2175 178.673 55.8594 178.9 55.5412C179.129 55.223 179.244 54.9479 179.244 54.7145C179.244 54.5194 179.349 54.4219 179.562 54.4219C179.775 54.4219 179.866 54.5226 179.866 54.7241C179.866 55.0327 179.738 55.3733 179.48 55.749C179.223 56.1232 178.839 56.5293 178.329 56.9674V56.969Z" fill="#221E20"/>
</g>
</g>
<defs>
<radialGradient id="paint0_radial_260_1589" cx="0" cy="0" r="1" gradientUnits="userSpaceOnUse" gradientTransform="translate(31.6673 34.6841) scale(31.6677 31.6677)">
<stop stop-color="#FDFCFC"/>
<stop offset="0.05" stop-color="#E9CCD1"/>
<stop offset="0.1" stop-color="#D6A2AB"/>
<stop offset="0.15" stop-color="#C57B88"/>
<stop offset="0.21" stop-color="#B75969"/>
<stop offset="0.27" stop-color="#AA3D50"/>
<stop offset="0.35" stop-color="#A0263C"/>
<stop offset="0.43" stop-color="#99152C"/>
<stop offset="0.53" stop-color="#930921"/>
<stop offset="0.67" stop-color="#90011A"/>
<stop offset="1" stop-color="#900019"/>
</radialGradient>
<clipPath id="clip0_260_1589">
<rect width="180" height="70.2" fill="white"/>
</clipPath>
</defs>
</svg>
