<svg width="119" height="115" viewBox="0 0 119 115" fill="none" xmlns="http://www.w3.org/2000/svg">
<g filter="url(#filter0_d_1189_3841)">
<rect x="24" y="23.7695" width="71.5385" height="68.0769" rx="5.76923" fill="#00B8EC"/>
<mask id="mask0_1189_3841" style="mask-type:alpha" maskUnits="userSpaceOnUse" x="24" y="23" width="72" height="69">
<rect x="24" y="23.769" width="71.5385" height="68.0769" rx="5.76923" fill="#9ECCFA"/>
</mask>
<g mask="url(#mask0_1189_3841)">
<path d="M76.7133 47.5779C76.6125 47.5779 76.5159 47.5379 76.4447 47.4666C76.3734 47.3954 76.3334 47.2987 76.3334 47.1979V44.7664C76.2689 40.5995 74.5683 36.625 71.5988 33.7011C68.6293 30.7772 64.6291 29.1383 60.4617 29.1383C56.2943 29.1383 52.294 30.7772 49.3245 33.7011C46.355 36.625 44.6544 40.5995 44.5899 44.7664V47.1979C44.5899 47.2987 44.5499 47.3954 44.4787 47.4666C44.4074 47.5379 44.3108 47.5779 44.21 47.5779C44.1092 47.5779 44.0126 47.5379 43.9414 47.4666C43.8701 47.3954 43.8301 47.2987 43.8301 47.1979V44.7664C43.8961 40.3989 45.6774 36.2327 48.7892 33.1676C51.9011 30.1024 56.0937 28.3843 60.4617 28.3843C64.8296 28.3843 69.0222 30.1024 72.1341 33.1676C75.2459 36.2327 77.0272 40.3989 77.0932 44.7664V47.1979C77.0932 47.2478 77.0834 47.2972 77.0643 47.3433C77.0452 47.3894 77.0172 47.4313 76.982 47.4666C76.9467 47.5019 76.9048 47.5299 76.8587 47.549C76.8126 47.5681 76.7632 47.5779 76.7133 47.5779Z" fill="#161616"/>
<path d="M75.2656 93.0598C75.2656 93.0598 77.1919 93.7019 77.6174 94.4846C78.0429 95.2673 78.4039 98.5499 79.4715 98.2649C80.5391 97.98 79.6159 94.7012 80.4707 94.7695C81.3256 94.8379 87.2107 97.695 87.0664 96.1981C86.922 94.7012 84.251 92.3456 81.9676 91.2058C79.6842 90.066 75.7937 89.5645 75.7937 89.5645L75.2656 93.0598Z" fill="#FFC9B0"/>
<path d="M79.3391 98.6639C79.1853 98.6625 79.0346 98.6206 78.9022 98.5423C78.3019 98.1928 78.0017 97.1974 77.6408 95.8296C77.5551 95.4321 77.4344 95.0431 77.2798 94.667C77.0215 94.1921 75.8323 93.6526 75.1408 93.4208C75.0559 93.3923 74.9839 93.3348 74.9373 93.2583C74.8907 93.1818 74.8726 93.0914 74.8863 93.0029L75.4182 89.5075C75.4332 89.41 75.4857 89.3221 75.5644 89.2625C75.6431 89.203 75.7419 89.1764 75.8399 89.1884C76.0033 89.1884 79.8216 89.7089 82.1354 90.8639C84.2478 91.9239 87.2683 94.3517 87.4544 96.1601C87.4718 96.2843 87.456 96.4109 87.4086 96.527C87.3613 96.6431 87.284 96.7446 87.1847 96.8212C86.5046 97.3417 84.6657 96.6997 82.143 95.7346C81.5085 95.4953 80.798 95.2217 80.5207 95.1609C80.4571 95.5194 80.4317 95.8837 80.4447 96.2475C80.4447 97.262 80.4447 98.4094 79.5822 98.6335C79.5029 98.6542 79.4211 98.6644 79.3391 98.6639ZM75.6841 92.8091C76.2882 93.0371 77.561 93.5918 77.9637 94.3061C78.1508 94.7339 78.2946 95.1794 78.393 95.6358C78.5906 96.3957 78.9249 97.6685 79.3011 97.885C79.3139 97.892 79.3283 97.8957 79.3429 97.8957C79.3575 97.8957 79.3718 97.892 79.3847 97.885C79.6696 97.8091 79.681 96.7794 79.6848 96.2285C79.6848 95.4687 79.6848 94.8418 80.0306 94.5378C80.0946 94.4778 80.1709 94.4324 80.2542 94.4048C80.3375 94.3773 80.4259 94.3682 80.5131 94.3783C81.1662 94.5245 81.8028 94.7371 82.4127 95.0128C83.5525 95.4459 86.1817 96.4489 86.6984 96.2171C86.554 94.9786 84.1946 92.7217 81.8124 91.5288C80.0154 90.6321 77.1393 90.1344 76.1134 89.9786L75.6841 92.8091Z" fill="#161616"/>
<path d="M62.9296 46.6811C57.4928 46.0124 50.5286 47.4143 46.5507 51.3466C45.9136 51.8953 45.436 52.6053 45.1678 53.4021C44.4877 56.0236 45.107 58.5844 42.7932 60.5562C42.2043 61.0615 41.528 61.4681 40.9885 62.0304C39.2408 63.854 39.6017 67.2431 41.699 68.6564C40.5174 69.7962 40.335 71.6655 40.6959 73.2688C41.3456 76.1715 43.5075 78.5879 46.0834 80.0582C48.6594 81.5285 51.6266 82.2162 54.5749 82.6114C58.8644 83.1851 63.2792 83.2117 67.4623 82.1098C71.6453 81.008 75.6004 78.7094 78.1954 75.2445C79.0779 74.163 79.6645 72.8708 79.8975 71.4945C80.1634 69.3631 79.1376 67.3152 78.1536 65.4156C79.5973 63.7173 79.9507 61.2705 79.4377 59.1049C78.9248 56.9393 77.6293 55.0206 76.1095 53.4059C72.6314 49.7005 67.971 47.3226 62.9296 46.6811Z" fill="#725858"/>
<path d="M60.1333 83.3828C58.2565 83.3797 56.3819 83.2527 54.5217 83.0029C50.806 82.5052 48.1464 81.7035 45.8934 80.4042C42.9793 78.7211 40.9543 76.1565 40.3236 73.3678C39.9171 71.5517 40.221 69.8534 41.1367 68.725C40.2097 67.9151 39.6312 66.7786 39.522 65.5526C39.4346 64.8754 39.4961 64.1873 39.7022 63.5363C39.9082 62.8854 40.2538 62.2872 40.7149 61.7836C41.0677 61.4312 41.449 61.1085 41.8547 60.8186C42.0941 60.64 42.3221 60.4691 42.5424 60.2829C44.0622 59.0025 44.2103 57.479 44.4079 55.7237C44.4765 54.919 44.6035 54.1203 44.7878 53.3339C45.0708 52.4701 45.583 51.6993 46.2696 51.1037C50.5096 46.9244 57.7094 45.6859 62.9638 46.3279C68.09 46.9903 72.8289 49.4067 76.3755 53.1667C78.1726 55.0892 79.3238 57.0687 79.7949 59.0481C80.361 61.4227 79.9089 63.8087 78.5943 65.507C79.4947 67.2471 80.5396 69.3747 80.266 71.6049C80.1102 72.8587 79.5289 74.1467 78.4879 75.5334C76.0069 78.8464 72.1202 81.335 67.5496 82.5394C65.1241 83.1383 62.6314 83.4218 60.1333 83.3828ZM60.0839 46.8864C54.252 46.8864 49.347 49.1167 46.8167 51.6166C46.228 52.1242 45.7859 52.7801 45.5363 53.5163C45.3555 54.2661 45.2286 55.0279 45.1564 55.7959C44.9588 57.5626 44.7764 59.3863 43.0249 60.8604C42.7894 61.0618 42.5424 61.2403 42.2993 61.4303C41.9256 61.6944 41.5737 61.9878 41.2469 62.3079C40.8763 62.7407 40.5981 63.2447 40.4295 63.7889C40.2608 64.333 40.2052 64.906 40.266 65.4725C40.3269 66.0389 40.5029 66.587 40.7833 67.0829C41.0637 67.5789 41.4425 68.0123 41.8965 68.3565C41.9429 68.3883 41.9816 68.4301 42.0098 68.4787C42.0381 68.5273 42.0552 68.5816 42.0599 68.6376C42.0651 68.6942 42.0576 68.7512 42.0379 68.8044C42.0181 68.8577 41.9867 68.9059 41.9459 68.9454C40.9961 69.8724 40.6618 71.4605 41.0493 73.2006C41.6306 75.7842 43.5302 78.1702 46.2582 79.7469C48.42 80.9931 50.9959 81.7643 54.6167 82.2506C59.4684 82.9003 63.6363 82.737 67.3597 81.7567C71.7669 80.6169 75.5016 78.2081 77.8838 75.0319C78.8412 73.7515 79.377 72.5851 79.5137 71.4643C79.7531 69.5305 78.883 67.665 77.8078 65.5906C77.7731 65.5233 77.7593 65.4473 77.7681 65.3722C77.7769 65.297 77.8079 65.2262 77.8572 65.1688C79.1224 63.6833 79.5821 61.3923 79.0616 59.1925C78.6209 57.3422 77.5419 55.4805 75.8246 53.6531C72.3968 50.0317 67.8223 47.7069 62.8765 47.0726C61.9503 46.9535 61.0177 46.8913 60.0839 46.8864Z" fill="#161616"/>
<path d="M60.2885 31.7163H60.885C64.5639 31.7163 68.0921 33.1778 70.6935 35.7791C73.2949 38.3805 74.7563 41.9088 74.7563 45.5877V49.6872H46.4209V45.5877C46.4209 41.9088 47.8823 38.3805 50.4837 35.7791C53.0851 33.1778 56.6133 31.7163 60.2923 31.7163H60.2885Z" fill="#725858"/>
<path d="M74.7792 50.07H46.4209C46.3202 50.07 46.2235 50.0299 46.1523 49.9587C46.081 49.8874 46.041 49.7908 46.041 49.69V45.5867C46.045 41.809 47.5473 38.187 50.2182 35.5153C52.8892 32.8437 56.5107 31.3405 60.2885 31.3354H60.8888C64.6702 31.3354 68.2971 32.8363 70.9727 35.5084C73.6484 38.1805 75.1541 41.8053 75.1591 45.5867V49.69C75.1591 49.7908 75.1191 49.8874 75.0478 49.9587C74.9766 50.0299 74.8799 50.07 74.7792 50.07ZM46.8199 49.3101H74.3992V45.5867C74.3952 42.0098 72.9725 38.5806 70.4432 36.0513C67.914 33.522 64.4847 32.0993 60.9078 32.0953H60.3075C56.7309 32.0993 53.3021 33.5222 50.7734 36.0515C48.2448 38.5809 46.8229 42.0102 46.8199 45.5867V49.3101Z" fill="#161616"/>
<path d="M57.8457 70.5907V67.5664H63.104V70.5907" fill="#FFC9B0"/>
<path d="M63.104 70.9702C63.0033 70.9702 62.9066 70.9302 62.8354 70.8589C62.7641 70.7877 62.7241 70.6911 62.7241 70.5903V67.9308H58.2257V70.5903C58.2257 70.6911 58.1857 70.7877 58.1144 70.8589C58.0432 70.9302 57.9465 70.9702 57.8458 70.9702C57.745 70.9702 57.6484 70.9302 57.5771 70.8589C57.5059 70.7877 57.4658 70.6911 57.4658 70.5903V67.5508C57.4658 67.4501 57.5059 67.3534 57.5771 67.2822C57.6484 67.2109 57.745 67.1709 57.8458 67.1709H63.104C63.2048 67.1709 63.3014 67.2109 63.3727 67.2822C63.4439 67.3534 63.484 67.4501 63.484 67.5508V70.5903C63.484 70.6911 63.4439 70.7877 63.3727 70.8589C63.3014 70.9302 63.2048 70.9702 63.104 70.9702Z" fill="#161616"/>
<path d="M60.4638 68.2541C52.7055 68.2541 46.4062 63.6379 46.4062 55.1274V49.17C54.685 50.724 55.9464 42.1299 55.9464 42.1299C63.4576 55.192 74.4871 46.5523 74.4871 46.5523V55.1274C74.5023 63.6379 68.2182 68.2541 60.4638 68.2541Z" fill="#FFC9B0"/>
<path d="M60.4639 68.6335C51.8356 68.6335 46.0264 63.208 46.0264 55.1268V49.1695C46.0255 49.1133 46.0371 49.0576 46.0603 49.0064C46.0835 48.9552 46.1178 48.9098 46.1607 48.8734C46.2035 48.8371 46.254 48.8107 46.3083 48.7962C46.3626 48.7817 46.4194 48.7794 46.4747 48.7895C48.7543 49.2189 50.711 48.8807 52.2497 47.7789C54.989 45.8261 55.5665 42.1027 55.5703 42.0799C55.5823 42.0024 55.6179 41.9305 55.6723 41.874C55.7267 41.8176 55.7973 41.7794 55.8743 41.7646C55.9521 41.7492 56.0327 41.7585 56.1049 41.7912C56.1771 41.8239 56.2373 41.8783 56.277 41.9469C58.5262 45.8641 61.3149 48.1703 64.5672 48.7857C69.6621 49.7774 74.2099 46.2782 74.2555 46.244C74.3116 46.1996 74.3791 46.172 74.4503 46.1643C74.5214 46.1567 74.5932 46.1692 74.6576 46.2006C74.7219 46.232 74.776 46.2808 74.8138 46.3416C74.8515 46.4024 74.8713 46.4726 74.871 46.5441V55.1192C74.8862 63.208 69.0808 68.6335 60.4639 68.6335ZM46.7863 49.6368V55.142C46.7863 63.9489 53.6479 67.8888 60.4639 67.8888C67.2799 67.8888 74.1415 63.9489 74.1415 55.142V47.2812C72.6787 48.2462 68.8224 50.3891 64.4532 49.5608C61.2124 48.9301 58.4198 46.7759 56.1402 43.1589C55.7603 44.4887 54.8523 46.9051 52.7208 48.4248C51.0947 49.557 49.1077 49.9635 46.8015 49.6216L46.7863 49.6368Z" fill="#161616"/>
<path d="M44.2977 44.7896H46.4216V58.6723H44.2977C43.5511 58.6723 42.835 58.3757 42.307 57.8477C41.779 57.3198 41.4824 56.6037 41.4824 55.857V47.6049C41.4824 46.8582 41.779 46.1421 42.307 45.6141C42.835 45.0862 43.5511 44.7896 44.2977 44.7896Z" fill="#24DE9C"/>
<path d="M46.4216 59.0485H44.2978C43.451 59.0485 42.6389 58.7124 42.0397 58.114C41.4406 57.5156 41.1035 56.7038 41.1025 55.8571V47.6049C41.1035 46.7578 41.4405 45.9456 42.0395 45.3466C42.6385 44.7476 43.4507 44.4107 44.2978 44.4097H46.4216C46.5224 44.4097 46.619 44.4497 46.6903 44.5209C46.7615 44.5922 46.8015 44.6888 46.8015 44.7896V58.6686C46.8015 58.7693 46.7615 58.866 46.6903 58.9372C46.619 59.0085 46.5224 59.0485 46.4216 59.0485ZM44.2978 45.1695C43.6519 45.1695 43.0324 45.4261 42.5757 45.8828C42.119 46.3396 41.8624 46.959 41.8624 47.6049V55.8571C41.8634 56.5023 42.1204 57.1208 42.5771 57.5767C43.0337 58.0326 43.6525 58.2886 44.2978 58.2886H46.0417V45.1695H44.2978Z" fill="#161616"/>
<path d="M76.63 58.6685H74.5062V44.7857H76.63C77.3767 44.7857 78.0928 45.0823 78.6207 45.6103C79.1487 46.1383 79.4453 46.8543 79.4453 47.601V55.8532C79.4453 56.5998 79.1487 57.3159 78.6207 57.8439C78.0928 58.3718 77.3767 58.6685 76.63 58.6685Z" fill="#24DE9C"/>
<path d="M76.6259 59.0485H74.5059C74.4051 59.0485 74.3085 59.0085 74.2373 58.9372C74.166 58.866 74.126 58.7693 74.126 58.6686V44.7896C74.126 44.6888 74.166 44.5922 74.2373 44.5209C74.3085 44.4497 74.4051 44.4097 74.5059 44.4097H76.6259C77.4731 44.4107 78.2852 44.7476 78.8842 45.3466C79.4832 45.9456 79.8202 46.7578 79.8212 47.6049V55.8571C79.8202 56.7038 79.4831 57.5156 78.884 58.114C78.2849 58.7124 77.4727 59.0485 76.6259 59.0485ZM74.8858 58.2886H76.6259C77.2712 58.2886 77.8901 58.0326 78.3467 57.5767C78.8033 57.1208 79.0603 56.5023 79.0613 55.8571V47.6049C79.0613 46.959 78.8047 46.3396 78.348 45.8828C77.8913 45.4261 77.2718 45.1695 76.6259 45.1695H74.8858V58.2886Z" fill="#161616"/>
<path d="M51.2468 65.875C49.4079 65.875 46.9232 65.6622 45.6656 64.6478C43.5456 62.9305 43.6253 58.8766 43.6291 58.7056C43.6291 58.6049 43.6692 58.5082 43.7404 58.437C43.8117 58.3657 43.9083 58.3257 44.0091 58.3257C44.1098 58.3257 44.2065 58.3657 44.2777 58.437C44.349 58.5082 44.389 58.6049 44.389 58.7056C44.389 58.7436 44.3168 62.5581 46.1405 64.0247C47.9642 65.4912 53.3592 64.9897 53.42 64.9859C53.5197 64.9763 53.6191 65.0065 53.6966 65.0698C53.7742 65.1331 53.8236 65.2245 53.8342 65.3241C53.8394 65.3737 53.8349 65.4239 53.8207 65.4718C53.8066 65.5197 53.7831 65.5643 53.7517 65.6031C53.7203 65.6419 53.6816 65.6742 53.6377 65.698C53.5938 65.7218 53.5457 65.7368 53.496 65.742C53.4048 65.78 52.4664 65.875 51.2468 65.875Z" fill="#161616"/>
<path d="M54.3657 63.9229H50.7259C50.0041 63.9229 49.4189 64.508 49.4189 65.2298C49.4189 65.9516 50.0041 66.5368 50.7259 66.5368H54.3657C55.0875 66.5368 55.6726 65.9516 55.6726 65.2298C55.6726 64.508 55.0875 63.9229 54.3657 63.9229Z" fill="#24DE9C"/>
<path d="M54.3657 66.9168H50.726C50.2786 66.9168 49.8495 66.739 49.5331 66.4227C49.2168 66.1063 49.0391 65.6773 49.0391 65.2299C49.0391 64.7825 49.2168 64.3534 49.5331 64.0371C49.8495 63.7207 50.2786 63.543 50.726 63.543H54.3657C54.8131 63.543 55.2422 63.7207 55.5586 64.0371C55.8749 64.3534 56.0526 64.7825 56.0526 65.2299C56.0526 65.6773 55.8749 66.1063 55.5586 66.4227C55.2422 66.739 54.8131 66.9168 54.3657 66.9168ZM50.726 64.2952C50.4801 64.2952 50.2443 64.3929 50.0705 64.5668C49.8966 64.7406 49.7989 64.9764 49.7989 65.2223C49.7989 65.4681 49.8966 65.7039 50.0705 65.8778C50.2443 66.0516 50.4801 66.1493 50.726 66.1493H54.3657C54.6116 66.1493 54.8474 66.0516 55.0212 65.8778C55.1951 65.7039 55.2928 65.4681 55.2928 65.2223C55.2928 64.9764 55.1951 64.7406 55.0212 64.5668C54.8474 64.3929 54.6116 64.2952 54.3657 64.2952H50.726Z" fill="#161616"/>
<path d="M54.0885 70.5898H66.8581C69.0457 70.5898 71.1437 71.4589 72.6905 73.0057C74.2374 74.5526 75.1064 76.6506 75.1064 78.8382V96.8242H45.8516V78.842C45.8506 76.6557 46.7176 74.5585 48.2621 73.0111C49.8066 71.4637 51.9022 70.5929 54.0885 70.5898Z" fill="#00B8EC"/>
<path d="M75.1104 97.208H45.8555C45.7548 97.208 45.6581 97.168 45.5869 97.0967C45.5156 97.0255 45.4756 96.9289 45.4756 96.8281V78.842C45.4776 76.5539 46.3872 74.3601 48.0047 72.7418C49.6223 71.1235 51.8158 70.213 54.1039 70.21H66.8734C69.1622 70.212 71.3566 71.1221 72.975 72.7405C74.5934 74.3589 75.5035 76.5533 75.5055 78.842V96.8281C75.5056 96.8793 75.4953 96.93 75.4752 96.9771C75.4552 97.0242 75.4258 97.0668 75.3889 97.1023C75.352 97.1377 75.3083 97.1654 75.2605 97.1836C75.2126 97.2018 75.1615 97.2101 75.1104 97.208ZM46.2355 96.4482H74.7304V78.842C74.7274 76.7551 73.8971 74.7545 72.4214 73.2789C70.9457 71.8032 68.9451 70.9728 66.8582 70.9698H54.0887C52.0021 70.9728 50.0019 71.8033 48.5269 73.2791C47.0518 74.7549 46.2223 76.7555 46.2203 78.842L46.2355 96.4482Z" fill="#161616"/>
<path d="M60.4754 77.4286C57.2877 77.4286 52.6943 70.5898 52.6943 70.5898H68.2526C68.2526 70.5898 63.6592 77.4286 60.4754 77.4286Z" fill="white"/>
<path d="M60.4754 77.8099C57.1244 77.8099 52.5728 71.0889 52.379 70.804C52.3457 70.7462 52.3281 70.6807 52.3281 70.614C52.3281 70.5473 52.3457 70.4818 52.379 70.424C52.4113 70.3634 52.4595 70.3126 52.5184 70.2771C52.5772 70.2417 52.6446 70.2228 52.7134 70.2227H68.2716C68.341 70.2222 68.4092 70.2407 68.4688 70.2762C68.5284 70.3116 68.5772 70.3628 68.6098 70.424C68.6397 70.4838 68.6534 70.5504 68.6494 70.6171C68.6454 70.6838 68.6239 70.7482 68.587 70.804C68.378 71.0889 63.8226 77.8099 60.4754 77.8099ZM53.4238 70.9711C54.9436 73.095 58.2566 77.0501 60.4754 77.0501C62.6942 77.0501 65.9958 73.095 67.527 70.9711H53.4238Z" fill="#161616"/>
<path d="M54.8223 70.5898C54.8223 70.5898 57.0677 72.8694 58.1011 72.5807C59.1345 72.2919 60.4339 70.5898 60.4339 70.5898H54.8223Z" fill="white"/>
<path d="M57.9219 72.9835C56.7137 72.9835 54.9204 71.2358 54.5518 70.8597C54.4983 70.8065 54.4617 70.7386 54.4469 70.6646C54.432 70.5906 54.4396 70.5139 54.4685 70.4442C54.4974 70.3745 54.5465 70.315 54.6094 70.2733C54.6722 70.2316 54.7461 70.2095 54.8216 70.21H60.4332C60.5044 70.2098 60.5742 70.2297 60.6347 70.2673C60.6952 70.3049 60.7438 70.3588 60.7752 70.4227C60.8066 70.4862 60.8197 70.5571 60.813 70.6276C60.8063 70.6981 60.78 70.7653 60.7372 70.8217C60.5966 71.0078 59.3276 72.6377 58.203 72.9455C58.1116 72.9717 58.0169 72.9845 57.9219 72.9835ZM55.7828 70.9698C56.6605 71.7297 57.6027 72.3224 58.0016 72.216C58.5031 72.0754 59.1414 71.4789 59.6164 70.9698H55.7828Z" fill="#161616"/>
<path d="M66.1291 70.5898C66.1291 70.5898 63.8799 72.8694 62.8465 72.5807C61.813 72.2919 60.5137 70.5898 60.5137 70.5898H66.1291Z" fill="white"/>
<path d="M63.0242 72.9835C62.9304 72.9845 62.8369 72.9717 62.7468 72.9455C61.607 72.6377 60.3532 71.0078 60.2127 70.8216C60.1694 70.7655 60.1428 70.6983 60.1357 70.6278C60.1286 70.5573 60.1414 70.4862 60.1726 70.4225C60.2039 70.3589 60.2523 70.3053 60.3124 70.2677C60.3725 70.2301 60.4419 70.2101 60.5128 70.21H66.1282C66.2032 70.2103 66.2764 70.2329 66.3387 70.2748C66.4009 70.3167 66.4493 70.3761 66.4778 70.4455C66.5069 70.5147 66.5148 70.591 66.5006 70.6647C66.4864 70.7384 66.4507 70.8062 66.398 70.8596C66.0408 71.232 64.2324 72.9835 63.0242 72.9835ZM61.3335 70.9698C61.8008 71.4789 62.4429 72.0754 62.9482 72.216C63.3281 72.3224 64.2893 71.7259 65.1632 70.9698H61.3335Z" fill="#161616"/>
<path d="M60.5137 77.8086C60.413 77.8086 60.3163 77.7686 60.2451 77.6973C60.1738 77.6261 60.1338 77.5295 60.1338 77.4287V70.5899C60.1338 70.4891 60.1738 70.3925 60.2451 70.3212C60.3163 70.25 60.413 70.21 60.5137 70.21C60.6145 70.21 60.7111 70.25 60.7824 70.3212C60.8536 70.3925 60.8937 70.4891 60.8937 70.5899V77.4287C60.8937 77.5295 60.8536 77.6261 60.7824 77.6973C60.7111 77.7686 60.6145 77.8086 60.5137 77.8086Z" fill="#161616"/>
<path d="M42.7396 69.0698C42.7396 69.0698 33.1463 87.2344 36.6607 91.068C40.1751 94.9015 44.5747 92.3331 45.8589 89.5482C47.1431 86.7633 47.732 71.1329 47.732 71.1329L42.7396 69.0698Z" fill="#00B8EC"/>
<path d="M40.6693 93.3903C39.4459 93.3903 37.8958 92.9571 36.3951 91.3272C32.7249 87.3379 42.0067 69.6444 42.4018 68.8922C42.4465 68.8087 42.5207 68.7449 42.61 68.7132C42.6992 68.6816 42.7971 68.6844 42.8843 68.7212L47.8767 70.788C47.951 70.8183 48.0139 70.8714 48.0562 70.9397C48.0986 71.008 48.1181 71.0879 48.1122 71.168C48.0856 71.8101 47.5195 86.9086 46.2125 89.7277C45.7631 90.6597 45.1002 91.4727 44.2777 92.1005C43.4552 92.7283 42.4962 93.1532 41.4786 93.3409C41.2104 93.3775 40.9399 93.394 40.6693 93.3903ZM42.9147 69.5533C40.1982 74.7697 34.2636 87.8888 36.9536 90.8105C38.2453 92.2163 39.7727 92.8242 41.3684 92.5734C42.2608 92.4032 43.1013 92.0271 43.8228 91.4751C44.5444 90.923 45.1272 90.2102 45.5249 89.3934C46.6647 86.9086 47.2536 73.4362 47.3372 71.3883L42.9147 69.5533Z" fill="#161616"/>
<path d="M45.7341 62.08C45.7341 62.08 52.0828 61.4418 52.6527 62.8665C53.2226 64.2913 51.2241 64.6484 48.8724 64.3634C48.8724 64.3634 50.7986 65.4349 50.7986 67.2889C50.7986 69.143 47.7326 71.1339 47.7326 71.1339L42.7402 69.067C42.7402 69.067 42.8086 63.7214 45.7341 62.08Z" fill="#FFC9B0"/>
<path d="M47.7326 71.5137C47.682 71.5142 47.6318 71.5051 47.5845 71.4871L42.5921 69.4165C42.5229 69.3871 42.4639 69.3379 42.4226 69.275C42.3813 69.2121 42.3597 69.1384 42.3604 69.0631C42.3604 68.8352 42.4705 63.4743 45.548 61.7456C45.5932 61.7192 45.6439 61.7036 45.6962 61.7C47.2539 61.5443 52.3792 61.1529 53.0061 62.7221C53.109 62.9302 53.1525 63.1627 53.1317 63.394C53.1109 63.6253 53.0267 63.8464 52.8883 64.0328C52.3754 64.7053 51.1672 64.8497 50.0768 64.8307C50.4127 65.1474 50.6828 65.5271 50.8719 65.9483C51.0609 66.3694 51.1652 66.8236 51.1786 67.2851C51.1786 69.3215 48.0708 71.3655 47.9378 71.4643C47.8754 71.4998 47.8043 71.517 47.7326 71.5137ZM43.1316 68.8162L47.6908 70.7159C48.5837 70.0966 50.4226 68.5616 50.4226 67.2965C50.4226 65.6817 48.7091 64.7129 48.6901 64.7053C48.612 64.6629 48.5512 64.5945 48.5183 64.512C48.4855 64.4295 48.4826 64.338 48.5101 64.2536C48.5377 64.1691 48.5939 64.097 48.6691 64.0497C48.7444 64.0024 48.8338 63.983 48.9218 63.9948C50.9811 64.2456 52.0259 63.9302 52.2918 63.5807C52.3564 63.4933 52.4324 63.3414 52.2918 63.0146C52.0069 62.3041 48.7432 62.175 45.833 62.4599C43.5648 63.8087 43.1886 67.7752 43.1316 68.82V68.8162Z" fill="#161616"/>
<path d="M74.7796 102.369H45.0384C44.3463 102.37 43.6794 102.109 43.1714 101.639C42.6634 101.169 42.3518 100.525 42.2991 99.8345L40.9731 82.7375C40.9438 82.3599 40.9928 81.9804 41.1172 81.6227C41.2416 81.265 41.4386 80.9368 41.6958 80.6589C41.953 80.3809 42.265 80.1592 42.612 80.0076C42.9591 79.856 43.3337 79.7777 43.7124 79.7778H76.1017C76.4804 79.7777 76.8551 79.856 77.2021 80.0076C77.5492 80.1592 77.8611 80.3809 78.1183 80.6589C78.3756 80.9368 78.5726 81.265 78.6969 81.6227C78.8213 81.9804 78.8704 82.3599 78.841 82.7375L77.5151 99.8345C77.4624 100.524 77.1513 101.168 76.6441 101.638C76.1369 102.108 75.471 102.369 74.7796 102.369Z" fill="white"/>
<path d="M74.7795 102.749H45.0384C44.2519 102.746 43.4951 102.448 42.9176 101.914C42.3401 101.38 41.9838 100.649 41.9191 99.865L40.5931 82.768C40.5602 82.3381 40.6164 81.9061 40.7581 81.499C40.8999 81.0919 41.1243 80.7184 41.4171 80.402C41.7099 80.0856 42.065 79.8332 42.4599 79.6604C42.8549 79.4876 43.2813 79.3983 43.7124 79.3979H76.1017C76.5328 79.3983 76.9592 79.4876 77.3542 79.6604C77.7491 79.8332 78.1042 80.0856 78.397 80.402C78.6899 80.7184 78.9142 81.0919 79.056 81.499C79.1978 81.9061 79.2539 82.3381 79.221 82.768L77.895 99.865C77.8304 100.648 77.4747 101.379 76.8979 101.913C76.3212 102.446 75.5654 102.745 74.7795 102.749ZM43.7162 80.1464C43.3897 80.1465 43.0667 80.214 42.7676 80.3449C42.4685 80.4758 42.1997 80.6672 41.9781 80.907C41.7565 81.1467 41.5869 81.4298 41.48 81.7383C41.3731 82.0468 41.3311 82.3741 41.3568 82.6996L42.679 99.7966C42.7275 100.391 42.9973 100.945 43.435 101.349C43.8726 101.754 44.4462 101.979 45.0422 101.981H74.7795C75.3755 101.979 75.9491 101.754 76.3867 101.349C76.8244 100.945 77.0942 100.391 77.1427 99.7966L78.4649 82.6996C78.4906 82.3741 78.4486 82.0468 78.3417 81.7383C78.2348 81.4298 78.0652 81.1467 77.8436 80.907C77.622 80.6672 77.3532 80.4758 77.0541 80.3449C76.755 80.214 76.432 80.1465 76.1055 80.1464H43.7162Z" fill="#161616"/>
<path d="M59.9057 94.1776C59.291 94.1776 58.6902 93.9954 58.1791 93.6539C57.668 93.3124 57.2696 92.827 57.0344 92.2591C56.7992 91.6912 56.7377 91.0663 56.8576 90.4635C56.9775 89.8606 57.2735 89.3068 57.7081 88.8722C58.1428 88.4375 58.6965 88.1415 59.2994 88.0216C59.9023 87.9017 60.5271 87.9633 61.095 88.1985C61.6629 88.4337 62.1483 88.8321 62.4898 89.3431C62.8313 89.8542 63.0136 90.4551 63.0136 91.0698C63.0126 91.8937 62.6848 92.6836 62.1022 93.2662C61.5196 93.8489 60.7297 94.1766 59.9057 94.1776ZM59.9057 88.7218C59.4413 88.7218 58.9874 88.8595 58.6012 89.1175C58.2151 89.3755 57.9142 89.7422 57.7364 90.1712C57.5587 90.6003 57.5122 91.0724 57.6028 91.5278C57.6934 91.9833 57.9171 92.4017 58.2454 92.73C58.5738 93.0584 58.9922 93.282 59.4476 93.3726C59.9031 93.4632 60.3752 93.4167 60.8042 93.239C61.2333 93.0613 61.6 92.7604 61.858 92.3742C62.116 91.9881 62.2537 91.5342 62.2537 91.0698C62.2527 90.4474 62.005 89.8507 61.5649 89.4106C61.1248 88.9705 60.5281 88.7228 59.9057 88.7218Z" fill="#DFEAEF"/>
</g>
</g>
<defs>
<filter id="filter0_d_1189_3841" x="0.923077" y="0.692608" width="117.692" height="114.231" filterUnits="userSpaceOnUse" color-interpolation-filters="sRGB">
<feFlood flood-opacity="0" result="BackgroundImageFix"/>
<feColorMatrix in="SourceAlpha" type="matrix" values="0 0 0 0 0 0 0 0 0 0 0 0 0 0 0 0 0 0 127 0" result="hardAlpha"/>
<feOffset/>
<feGaussianBlur stdDeviation="11.5385"/>
<feComposite in2="hardAlpha" operator="out"/>
<feColorMatrix type="matrix" values="0 0 0 0 0 0 0 0 0 0 0 0 0 0 0 0 0 0 0.3 0"/>
<feBlend mode="normal" in2="BackgroundImageFix" result="effect1_dropShadow_1189_3841"/>
<feBlend mode="normal" in="SourceGraphic" in2="effect1_dropShadow_1189_3841" result="shape"/>
</filter>
</defs>
</svg>
