<svg width="63" height="61" viewBox="0 0 63 61" fill="none" xmlns="http://www.w3.org/2000/svg">
<path d="M59.5604 29.6846H3.40008C1.71503 29.6846 0.34903 31.0498 0.34903 32.7338C0.34903 34.4179 1.71503 35.7831 3.40008 35.7831H59.5604C61.2454 35.7831 62.6114 34.4179 62.6114 32.7338C62.6114 31.0498 61.2454 29.6846 59.5604 29.6846Z" fill="#AEA1FF"/>
<path d="M59.564 36.1427H3.41805C2.96918 36.1427 2.52471 36.0543 2.11002 35.8825C1.69532 35.7108 1.31852 35.459 1.00112 35.1416C0.683728 34.8242 0.431956 34.4474 0.260183 34.0327C0.0884104 33.618 0 33.1736 0 32.7247C0 32.2758 0.0884104 31.8314 0.260183 31.4167C0.431956 31.002 0.683728 30.6252 1.00112 30.3078C1.31852 29.9904 1.69532 29.7386 2.11002 29.5668C2.52471 29.3951 2.96918 29.3066 3.41805 29.3066H59.582C60.0308 29.3066 60.4753 29.3951 60.89 29.5668C61.3047 29.7386 61.6815 29.9904 61.9989 30.3078C62.3163 30.6252 62.568 31.002 62.7398 31.4167C62.9116 31.8314 63 32.2758 63 32.7247C63 33.1736 62.9116 33.618 62.7398 34.0327C62.568 34.4474 62.3163 34.8242 61.9989 35.1416C61.6815 35.459 61.3047 35.7108 60.89 35.8825C60.4753 36.0543 60.0308 36.1427 59.582 36.1427H59.564ZM3.40006 30.0262C2.68438 30.0262 1.99802 30.3105 1.49196 30.8166C0.9859 31.3226 0.701598 32.009 0.701598 32.7247C0.701598 33.4404 0.9859 34.1267 1.49196 34.6328C1.99802 35.1388 2.68438 35.4231 3.40006 35.4231H59.564C60.2796 35.4231 60.966 35.1388 61.4721 34.6328C61.9781 34.1267 62.2624 33.4404 62.2624 32.7247C62.2624 32.009 61.9781 31.3226 61.4721 30.8166C60.966 30.3105 60.2796 30.0262 59.564 30.0262H3.40006Z" fill="#686767"/>
<path d="M4.0585 35.783L9.91236 57.9787C10.2722 59.4718 11.8768 60.544 13.7334 60.544H49.2307C51.0872 60.544 52.6847 59.4646 53.0517 57.9787L58.9056 35.783H4.0585ZM19.6088 54.4527C19.6088 55.3414 18.6805 56.0646 17.54 56.0646C16.3994 56.0646 15.4784 55.345 15.4784 54.4527V41.6404C15.4784 40.7517 16.3994 40.0285 17.54 40.0285C18.0657 40.0196 18.5794 40.1854 19.0008 40.4999C19.184 40.6294 19.3345 40.8 19.44 40.998C19.5456 41.1961 19.6034 41.4161 19.6088 41.6404V54.4527ZM28.9059 54.4527C28.9059 55.3414 27.9848 56.0646 26.8443 56.0646C25.7037 56.0646 24.7791 55.345 24.7791 54.4527V41.6404C24.7791 40.7517 25.7037 40.0285 26.8443 40.0285C27.3625 40.0246 27.8679 40.1901 28.2835 40.4999C28.4661 40.6298 28.6158 40.8006 28.7207 40.9986C28.8257 41.1966 28.8829 41.4164 28.8879 41.6404L28.9059 54.4527ZM38.2066 54.4527C38.2066 55.3414 37.2819 56.0646 36.1414 56.0646C35.0008 56.0646 34.0797 55.345 34.0797 54.4527V41.6404C34.0797 40.7517 35.0008 40.0285 36.1414 40.0285C36.667 40.0201 37.1806 40.1859 37.6021 40.4999C37.7847 40.6298 37.9345 40.8006 38.0394 40.9986C38.1443 41.1966 38.2016 41.4164 38.2066 41.6404V54.4527ZM47.5073 54.4527C47.5073 55.3414 46.5862 56.0646 45.4456 56.0646C44.3051 56.0646 43.3768 55.345 43.3768 54.4527V41.6404C43.3768 40.7517 44.3051 40.0285 45.4456 40.0285C45.9701 40.0207 46.4823 40.1864 46.9028 40.4999C47.0854 40.6298 47.2351 40.8006 47.3401 40.9986C47.445 41.1966 47.5023 41.4164 47.5073 41.6404V54.4527Z" fill="#AEA1FF" stroke="#686767" stroke-width="0.719589" stroke-linecap="round" stroke-linejoin="round"/>
<path d="M27.8877 7.04605C29.7377 7.04605 31.2374 5.54635 31.2374 3.69637C31.2374 1.84639 29.7377 0.34668 27.8877 0.34668C26.0377 0.34668 24.538 1.84639 24.538 3.69637C24.538 5.54635 26.0377 7.04605 27.8877 7.04605Z" fill="#AEA1FF"/>
<path d="M27.8841 7.42028C27.0103 7.41741 26.1655 7.10617 25.4988 6.54142C24.832 5.97667 24.386 5.19466 24.2394 4.33324C24.1159 3.60992 24.2098 2.86623 24.5091 2.19626C24.8084 1.52629 25.2996 0.960129 25.9207 0.569398C26.5418 0.178667 27.2648 -0.0190808 27.9983 0.00116916C28.7318 0.0214192 29.4429 0.258756 30.0415 0.683159C30.6401 1.10756 31.0993 1.69997 31.3612 2.38543C31.6231 3.07089 31.6758 3.81862 31.5126 4.53404C31.3494 5.24945 30.9778 5.9004 30.4446 6.40455C29.9114 6.9087 29.2407 7.2434 28.5173 7.36631C28.3081 7.40212 28.0963 7.42017 27.8841 7.42028ZM27.8841 0.724505C27.4492 0.724658 27.0196 0.819674 26.6252 1.00293C26.2308 1.18618 25.8812 1.45325 25.6006 1.78553C25.3201 2.1178 25.1154 2.50728 25.0008 2.92679C24.8863 3.34631 24.8646 3.78576 24.9374 4.21451C25.0856 4.9818 25.5284 5.66054 26.1709 6.1054C26.8134 6.55026 27.6046 6.72588 28.375 6.59466C29.1454 6.46344 29.8338 6.03581 30.2928 5.40333C30.7518 4.77085 30.9449 3.98379 30.8308 3.21068C30.7136 2.5132 30.3536 1.87962 29.8143 1.42201C29.2751 0.964393 28.5913 0.712227 27.8841 0.710113V0.724505Z" fill="#686767"/>
<path d="M11.3335 33.5053C10.9964 33.6554 10.6203 33.6941 10.2597 33.6158C9.89908 33.5374 9.57288 33.3461 9.3285 33.0696C9.08412 32.7931 8.93431 32.4459 8.90083 32.0784C8.86735 31.711 8.95196 31.3424 9.14236 31.0263L26.5024 2.66011C26.6206 2.46544 26.7759 2.29595 26.9595 2.16131C27.1431 2.02666 27.3515 1.9295 27.5726 1.87538C27.7938 1.82126 28.0235 1.81122 28.2485 1.84586C28.4736 1.8805 28.6896 1.95912 28.8843 2.07724C29.0789 2.19536 29.2484 2.35067 29.3831 2.5343C29.5177 2.71792 29.6149 2.92627 29.669 3.14745C29.7231 3.36862 29.7332 3.59829 29.6985 3.82334C29.6639 4.04839 29.5853 4.26441 29.4671 4.45908L12.1107 32.8253C11.9272 33.126 11.656 33.3634 11.3335 33.5053Z" fill="#AEA1FF"/>
<path d="M10.6139 34.0127C10.2423 34.0146 9.87694 33.9175 9.55537 33.7313C9.2338 33.545 8.96768 33.2765 8.78442 32.9532C8.60117 32.6299 8.50739 32.2637 8.51276 31.8921C8.51813 31.5205 8.62244 31.1571 8.81496 30.8393L26.1714 2.46949C26.4577 1.99238 26.9218 1.64852 27.4616 1.51357C28.0014 1.37862 28.5727 1.46364 29.0498 1.74991C29.5269 2.03618 29.8708 2.50025 30.0057 3.04005C30.1407 3.57985 30.0557 4.15114 29.7694 4.62826L12.4129 33.0052C12.1934 33.3719 11.8652 33.6611 11.4738 33.8328C11.2035 33.9539 10.9102 34.0153 10.6139 34.0127ZM27.9848 2.18166C27.8732 2.18082 27.762 2.19411 27.6538 2.22124C27.4782 2.26391 27.3128 2.34087 27.1671 2.44769C27.0214 2.55451 26.8982 2.68909 26.8047 2.84368L9.4482 31.2135C9.29665 31.4635 9.22902 31.7555 9.25519 32.0467C9.28136 32.3379 9.39996 32.6131 9.59366 32.8321C9.78737 33.0511 10.046 33.2025 10.3319 33.2641C10.6177 33.3256 10.9157 33.2942 11.1824 33.1743C11.4401 33.062 11.6564 32.8721 11.8013 32.6311L29.1433 4.26487C29.329 3.95285 29.384 3.58017 29.2964 3.22782C29.2088 2.87547 28.9857 2.57192 28.6756 2.38314C28.4627 2.25134 28.2172 2.18156 27.9668 2.18166H27.9848Z" fill="#686767"/>
<path d="M35.0764 7.04605C36.9264 7.04605 38.4261 5.54635 38.4261 3.69637C38.4261 1.84639 36.9264 0.34668 35.0764 0.34668C33.2264 0.34668 31.7267 1.84639 31.7267 3.69637C31.7267 5.54635 33.2264 7.04605 35.0764 7.04605Z" fill="#AEA1FF"/>
<path d="M35.08 7.42047C34.8677 7.42036 34.6559 7.40231 34.4467 7.3665C33.5101 7.20447 32.6722 6.68703 32.1078 5.92215C31.5434 5.15726 31.2962 4.204 31.4177 3.26124C31.5392 2.31848 32.02 1.45904 32.7599 0.862214C33.4997 0.265392 34.4414 -0.0227133 35.3885 0.0580074C36.3357 0.138728 37.215 0.582037 37.8432 1.29545C38.4714 2.00886 38.7998 2.93728 38.76 3.887C38.7202 4.83673 38.3152 5.7344 37.6296 6.39275C36.9439 7.0511 36.0305 7.41928 35.08 7.42047ZM35.08 0.724694C34.3287 0.720721 33.6035 1.00009 33.049 1.50709C32.4945 2.01408 32.1515 2.71145 32.0884 3.46011C32.0253 4.20877 32.2467 4.95371 32.7085 5.54637C33.1703 6.13903 33.8385 6.53585 34.5799 6.6577C35.3609 6.79082 36.1628 6.60822 36.8092 6.15006C37.4556 5.69191 37.8936 4.99574 38.0267 4.2147C38.1598 3.43366 37.9772 2.63173 37.519 1.98532C37.0609 1.33892 36.3647 0.900986 35.5837 0.76787C35.4177 0.73454 35.2492 0.715281 35.08 0.710302V0.724694Z" fill="#686767"/>
<path d="M51.6485 33.5053C51.9855 33.6554 52.3617 33.6941 52.7223 33.6158C53.0829 33.5374 53.4091 33.3461 53.6535 33.0696C53.8979 32.7931 54.0477 32.4459 54.0812 32.0784C54.1146 31.711 54.03 31.3424 53.8396 31.0263L36.4795 2.66011C36.241 2.26697 35.856 1.98469 35.4093 1.87538C34.9627 1.76608 34.4908 1.83869 34.0977 2.07725C33.7046 2.31581 33.4223 2.70077 33.313 3.14745C33.2037 3.59413 33.2763 4.06594 33.5148 4.45908L50.8713 32.8253C51.0548 33.126 51.326 33.3634 51.6485 33.5053Z" fill="#AEA1FF"/>
<path d="M52.3501 34.0126C52.0575 34.0137 51.768 33.9524 51.501 33.8327C51.1092 33.6603 50.7801 33.3713 50.5583 33.0052L33.2055 4.639C32.9201 4.16167 32.8355 3.59066 32.9704 3.05112C33.1053 2.51158 33.4486 2.04752 33.925 1.76065C34.1611 1.61838 34.423 1.52413 34.6956 1.4833C34.9682 1.44247 35.2462 1.45587 35.5137 1.52273C35.7811 1.58958 36.0327 1.70858 36.254 1.87289C36.4753 2.03721 36.662 2.2436 36.8034 2.48023L54.1491 30.8356C54.3425 31.1535 54.4476 31.5173 54.4534 31.8894C54.4593 32.2615 54.3657 32.6284 54.1823 32.9523C53.999 33.2761 53.7325 33.5451 53.4104 33.7315C53.0883 33.9179 52.7223 34.015 52.3501 34.0126ZM51.7924 33.1743C52.0595 33.2924 52.3571 33.3224 52.6423 33.2599C52.9275 33.1974 53.1854 33.0458 53.3787 32.8269C53.5719 32.608 53.6904 32.3333 53.717 32.0425C53.7436 31.7518 53.6769 31.4601 53.5266 31.2098L36.1594 2.84723C35.9714 2.53917 35.6695 2.31766 35.3193 2.23077C34.969 2.14388 34.5986 2.19861 34.2884 2.38309C33.9773 2.5719 33.7535 2.87611 33.6659 3.22933C33.5783 3.58254 33.6339 3.95608 33.8207 4.26841L51.1772 32.6346C51.322 32.8756 51.5383 33.0655 51.796 33.1779L51.7924 33.1743Z" fill="#686767"/>
</svg>
